#define aphrodite_2_7_width 264
#define aphrodite_2_7_height 176
static unsigned char aphrodite_2_7_bits[] = {
   0x00, 0x00, 0x00, 0x00, 0x00, 0x00, 0x00, 0x00, 0x00, 0x00, 0x00, 0x00,
   0x00, 0x00, 0x00, 0x00, 0x00, 0x00, 0x00, 0x00, 0x00, 0x00, 0x00, 0x00,
   0x00, 0x00, 0x00, 0x00, 0x00, 0x00, 0x00, 0x00, 0x00, 0x00, 0x00, 0x00,
   0x00, 0x00, 0x00, 0x00, 0x00, 0x00, 0x00, 0x00, 0x00, 0x00, 0x00, 0x00,
   0x00, 0x00, 0x00, 0x00, 0x00, 0x00, 0x00, 0x00, 0x00, 0x00, 0x00, 0x00,
   0x00, 0x00, 0x00, 0x00, 0x00, 0x00, 0x00, 0x00, 0x00, 0x00, 0x00, 0x00,
   0x00, 0x00, 0x00, 0x00, 0x00, 0x00, 0x00, 0x00, 0x00, 0x00, 0x00, 0x00,
   0x00, 0x00, 0x00, 0x00, 0x00, 0x00, 0x00, 0x00, 0x00, 0x00, 0x00, 0x00,
   0x00, 0x00, 0x00, 0x00, 0x00, 0x00, 0x00, 0x00, 0x00, 0x00, 0x00, 0x00,
   0x00, 0x00, 0x00, 0x00, 0x00, 0x00, 0x00, 0x00, 0x00, 0x00, 0x00, 0x00,
   0x00, 0x00, 0x00, 0x00, 0x00, 0x00, 0x00, 0x00, 0x00, 0x00, 0x00, 0x00,
   0x00, 0x00, 0x00, 0x00, 0x00, 0x00, 0x00, 0x00, 0x00, 0x00, 0x00, 0x00,
   0x00, 0x00, 0x00, 0x00, 0x00, 0x00, 0x00, 0x00, 0x00, 0x00, 0x00, 0x00,
   0x00, 0x00, 0x00, 0x00, 0x00, 0x00, 0x00, 0x00, 0x00, 0x00, 0x00, 0x00,
   0x00, 0x00, 0x00, 0x00, 0x00, 0x00, 0x00, 0x00, 0x00, 0x00, 0x00, 0x00,
   0x00, 0x00, 0x00, 0x00, 0x00, 0x00, 0x00, 0x00, 0x00, 0x00, 0x00, 0x00,
   0x00, 0x00, 0x00, 0x00, 0x00, 0x00, 0x00, 0x00, 0x00, 0x00, 0x00, 0x00,
   0x00, 0x00, 0x00, 0x00, 0x00, 0x00, 0x00, 0x00, 0x00, 0x00, 0x00, 0x00,
   0x00, 0x00, 0x00, 0x00, 0x00, 0x00, 0x00, 0x00, 0x00, 0x00, 0x00, 0x00,
   0x00, 0x00, 0x00, 0x00, 0x00, 0x00, 0x00, 0x00, 0x00, 0x00, 0x00, 0x00,
   0x00, 0x00, 0x00, 0x00, 0x00, 0x00, 0x00, 0x00, 0x00, 0x00, 0x00, 0x00,
   0x00, 0x00, 0x00, 0x00, 0x00, 0x00, 0x00, 0x00, 0x00, 0x00, 0x00, 0x00,
   0x00, 0x00, 0x00, 0x00, 0x00, 0x00, 0x00, 0x00, 0x00, 0x00, 0x00, 0x00,
   0x00, 0x00, 0x00, 0x00, 0x00, 0x00, 0x00, 0x00, 0x00, 0x00, 0x00, 0x00,
   0x00, 0x00, 0x00, 0x00, 0x00, 0x00, 0x00, 0x00, 0x00, 0x00, 0x00, 0x00,
   0x00, 0x00, 0x00, 0x00, 0x00, 0x00, 0x00, 0x00, 0x00, 0x00, 0x00, 0x00,
   0x00, 0x00, 0x00, 0x00, 0x00, 0x00, 0x00, 0x00, 0x00, 0x00, 0x00, 0x00,
   0x00, 0x00, 0x00, 0x00, 0x00, 0x00, 0x00, 0x00, 0x00, 0x00, 0x00, 0x00,
   0x00, 0x00, 0x00, 0x00, 0x00, 0x00, 0x00, 0x00, 0x00, 0x00, 0x00, 0x00,
   0x00, 0x00, 0x00, 0x00, 0x00, 0x00, 0x00, 0x00, 0x00, 0x00, 0x00, 0x00,
   0x00, 0x00, 0x00, 0x00, 0x00, 0x00, 0x00, 0x00, 0x00, 0x00, 0x00, 0x00,
   0x00, 0x00, 0x00, 0x00, 0x00, 0x00, 0x00, 0x00, 0x00, 0x00, 0x00, 0x00,
   0x00, 0x00, 0x00, 0x00, 0x00, 0x00, 0x00, 0x00, 0x00, 0x00, 0x00, 0x00,
   0x00, 0x00, 0x00, 0x00, 0x00, 0x00, 0x00, 0x00, 0x00, 0x00, 0x00, 0x00,
   0x00, 0xe8, 0x0a, 0x00, 0x00, 0x00, 0x00, 0x00, 0x00, 0x00, 0x00, 0x00,
   0x00, 0x00, 0x00, 0x00, 0x00, 0x00, 0x00, 0x00, 0x00, 0x00, 0x00, 0x00,
   0x00, 0x00, 0x00, 0x00, 0x00, 0x00, 0x00, 0x00, 0x00, 0x00, 0x5a, 0xa9,
   0x00, 0x00, 0x00, 0x00, 0x00, 0x00, 0x00, 0x00, 0x00, 0x00, 0x00, 0x00,
   0x00, 0x00, 0x00, 0x00, 0x00, 0x00, 0x00, 0x00, 0x00, 0x00, 0x00, 0x00,
   0x00, 0x00, 0x00, 0x00, 0x00, 0x00, 0x00, 0xaf, 0x02, 0x02, 0x00, 0x00,
   0x00, 0x00, 0x00, 0x00, 0x00, 0x00, 0x00, 0x00, 0x00, 0x00, 0x00, 0x00,
   0x00, 0x00, 0x00, 0x00, 0x00, 0x00, 0x00, 0x00, 0x00, 0x00, 0x00, 0x00,
   0x00, 0x00, 0x00, 0xc0, 0xba, 0x54, 0x04, 0x00, 0x00, 0x00, 0x00, 0x00,
   0x00, 0x00, 0x00, 0x00, 0x00, 0x00, 0x00, 0x00, 0x00, 0x00, 0x00, 0x00,
   0x00, 0x00, 0x00, 0x00, 0x00, 0x00, 0x00, 0x00, 0x00, 0x00, 0x00, 0x00,
   0x68, 0x57, 0x25, 0x20, 0x00, 0x00, 0x00, 0x00, 0x00, 0x00, 0x00, 0x00,
   0x00, 0x00, 0x00, 0x00, 0x00, 0x00, 0x00, 0x00, 0x00, 0x00, 0x00, 0x00,
   0x00, 0x00, 0x00, 0x00, 0x00, 0x00, 0x00, 0x00, 0x00, 0xf8, 0x2d, 0x4a,
   0x01, 0x00, 0x00, 0x00, 0x00, 0x00, 0x00, 0x00, 0x00, 0x00, 0x00, 0x00,
   0x00, 0x00, 0x00, 0x00, 0x00, 0x00, 0x00, 0x00, 0x00, 0x00, 0x00, 0x00,
   0x00, 0x00, 0x00, 0x00, 0x00, 0x80, 0xaf, 0xab, 0x14, 0x04, 0x00, 0x00,
   0x00, 0x00, 0x00, 0x00, 0x00, 0x00, 0x00, 0x00, 0x00, 0x00, 0x00, 0x00,
   0x00, 0x00, 0x00, 0x80, 0x2a, 0x01, 0x00, 0x00, 0x00, 0x00, 0x00, 0x00,
   0x00, 0x00, 0x20, 0xbb, 0x2e, 0xa9, 0x80, 0x00, 0x00, 0x00, 0x00, 0x00,
   0x00, 0x00, 0x00, 0x00, 0x00, 0x00, 0x00, 0x00, 0x00, 0x00, 0x00, 0x00,
   0x00, 0x84, 0x08, 0x00, 0x00, 0x00, 0x00, 0x00, 0x00, 0x00, 0x00, 0xe8,
   0xed, 0x55, 0x14, 0x09, 0x00, 0x00, 0x00, 0x00, 0x00, 0x00, 0x00, 0x00,
   0x00, 0x00, 0x10, 0x00, 0x00, 0x00, 0x00, 0x00, 0x00, 0x40, 0x91, 0xaa,
   0x00, 0x00, 0x00, 0x00, 0x00, 0x00, 0x00, 0x00, 0x5a, 0xbf, 0x57, 0x51,
   0x00, 0x02, 0x00, 0x00, 0x00, 0x00, 0x28, 0x01, 0x00, 0x00, 0x00, 0x75,
   0x05, 0x00, 0x00, 0x00, 0x00, 0x00, 0x90, 0x54, 0x01, 0x00, 0x00, 0x00,
   0x00, 0x00, 0x00, 0x00, 0x40, 0xf7, 0xd5, 0x2a, 0x04, 0x11, 0x00, 0x00,
   0x00, 0x00, 0x80, 0x47, 0x54, 0x00, 0x00, 0xd0, 0x47, 0x0b, 0x00, 0x00,
   0x00, 0x00, 0x00, 0x20, 0x52, 0x95, 0x02, 0x40, 0x00, 0x00, 0x00, 0x00,
   0x00, 0xc0, 0xae, 0xfd, 0xaf, 0x28, 0x02, 0x02, 0x00, 0x00, 0x00, 0x80,
   0x1a, 0x00, 0x00, 0x00, 0xb0, 0x9f, 0xd2, 0x02, 0x00, 0x00, 0x00, 0x00,
   0x48, 0xa4, 0x02, 0x00, 0x2a, 0x09, 0x00, 0x00, 0x00, 0x00, 0xba, 0x7d,
   0x6b, 0x55, 0x02, 0x20, 0x00, 0x20, 0x00, 0x40, 0x62, 0xa5, 0xaa, 0x02,
   0x00, 0xfc, 0xad, 0x55, 0x00, 0x00, 0x00, 0x00, 0x00, 0x88, 0x24, 0xa5,
   0x46, 0x4a, 0x22, 0x00, 0x00, 0x00, 0x00, 0x6a, 0x6b, 0xfb, 0x97, 0xa0,
   0x00, 0x14, 0xa8, 0x42, 0xc8, 0x45, 0x6d, 0x81, 0x2e, 0x00, 0xf4, 0xff,
   0xcb, 0x15, 0x00, 0x00, 0x00, 0x00, 0x50, 0x4a, 0x01, 0xa2, 0x92, 0x88,
   0x00, 0x00, 0x00, 0x40, 0xad, 0xad, 0x6e, 0x55, 0x0a, 0x42, 0x08, 0xfe,
   0xf5, 0xf5, 0xb6, 0xfc, 0xff, 0x0b, 0x00, 0xdf, 0xaf, 0xa6, 0x02, 0x00,
   0x00, 0x00, 0x00, 0x40, 0x50, 0x4b, 0x56, 0x25, 0x11, 0x01, 0x00, 0x00,
   0x40, 0xbb, 0xfb, 0xfa, 0x97, 0x10, 0x80, 0x52, 0xbd, 0xff, 0xff, 0xb7,
   0xd8, 0xfa, 0xab, 0x00, 0xfe, 0xff, 0x0a, 0x12, 0x00, 0x00, 0x00, 0x00,
   0x14, 0xa5, 0x04, 0x5b, 0x95, 0x04, 0x04, 0x00, 0x00, 0xe8, 0x6a, 0xad,
   0x5e, 0x2d, 0x41, 0x04, 0x74, 0xff, 0xb6, 0xff, 0x3f, 0xfa, 0x7f, 0x15,
   0x81, 0xbf, 0x4a, 0x55, 0x00, 0x00, 0x00, 0x00, 0x00, 0x50, 0x4a, 0x25,
   0x5b, 0x95, 0xa8, 0x00, 0x00, 0x00, 0xa8, 0xde, 0x55, 0xfd, 0x2b, 0x0a,
   0x80, 0xe8, 0xf7, 0xff, 0xff, 0x77, 0xf8, 0xff, 0x37, 0xca, 0xfb, 0xd7,
   0x05, 0x21, 0x00, 0x00, 0x00, 0x00, 0x08, 0xa9, 0x10, 0xb7, 0x2a, 0x02,
   0x04, 0x00, 0x00, 0xd7, 0xb5, 0x6e, 0xaf, 0x4a, 0x21, 0x09, 0xdd, 0xff,
   0xfe, 0xff, 0x9b, 0x7c, 0xff, 0x95, 0xfe, 0xea, 0xd7, 0x57, 0x00, 0x00,
   0x00, 0x00, 0x00, 0x20, 0x49, 0x05, 0xed, 0xaa, 0x94, 0x10, 0x00, 0x00,
   0xb5, 0xb6, 0xd5, 0xff, 0x2b, 0x04, 0x20, 0xf8, 0xdf, 0xf7, 0xff, 0x7f,
   0xf8, 0xff, 0x17, 0xfd, 0xe5, 0xff, 0x1e, 0x89, 0x00, 0x00, 0x00, 0x00,
   0x14, 0x92, 0x92, 0xb6, 0x15, 0x41, 0x44, 0x00, 0xd0, 0xae, 0x6d, 0xd5,
   0xb7, 0x56, 0x21, 0x88, 0xd6, 0x87, 0xff, 0xdf, 0x15, 0xee, 0xff, 0xab,
   0x2e, 0x55, 0xff, 0x0b, 0x00, 0x04, 0x00, 0x00, 0x00, 0x40, 0x54, 0x85,
   0xb6, 0x6b, 0x8a, 0x00, 0x01, 0x60, 0xb5, 0xaa, 0xaa, 0xf7, 0x4a, 0x04,
   0x91, 0x04, 0x00, 0xbe, 0xfe, 0x7f, 0xf8, 0xff, 0x27, 0x5f, 0xdf, 0x1f,
   0x57, 0x00, 0x00, 0x00, 0x00, 0x00, 0x24, 0x55, 0x11, 0x6f, 0x95, 0x24,
   0x12, 0x04, 0xda, 0xd6, 0xad, 0xfa, 0x5f, 0xab, 0x12, 0x40, 0x03, 0x00,
   0xfe, 0xff, 0x2d, 0xdc, 0xff, 0x77, 0xaf, 0xfa, 0x3f, 0x4a, 0x12, 0x24,
   0x00, 0x00, 0x00, 0x44, 0x94, 0x26, 0xdd, 0x56, 0x49, 0x42, 0x00, 0x54,
   0xbd, 0xaa, 0xea, 0xfa, 0x2a, 0x42, 0x12, 0x06, 0x80, 0xfa, 0xf6, 0x5d,
   0xf8, 0xff, 0x67, 0xff, 0xf2, 0x7f, 0x4a, 0x40, 0x00, 0x00, 0x00, 0x00,
   0x80, 0x52, 0x81, 0xbb, 0x55, 0x25, 0x08, 0x52, 0xdb, 0xaa, 0xad, 0xfa,
   0xaf, 0x55, 0x09, 0xc8, 0xc2, 0xf7, 0x17, 0xff, 0x37, 0xd8, 0xff, 0xef,
   0x7b, 0xfd, 0xbf, 0x44, 0x11, 0x40, 0x00, 0x00, 0x00, 0x94, 0x94, 0x16,
   0xb7, 0x95, 0x4a, 0x49, 0x40, 0xb5, 0x6b, 0xab, 0xfa, 0x7a, 0x55, 0x52,
   0x91, 0xd6, 0xff, 0x17, 0x5e, 0x55, 0x58, 0xff, 0xcf, 0xff, 0xf6, 0xfb,
   0x19, 0x02, 0x00, 0x01, 0x00, 0x00, 0x40, 0xaa, 0xc2, 0xdb, 0xb6, 0x12,
   0x02, 0x81, 0x56, 0x56, 0x55, 0xdf, 0xaf, 0xab, 0x04, 0xaa, 0xfd, 0xff,
   0x3f, 0x53, 0x0a, 0xf9, 0xff, 0x5f, 0xaf, 0xff, 0x6e, 0x0a, 0x50, 0x02,
   0x00, 0x00, 0x00, 0x44, 0xaa, 0x0a, 0xb7, 0xad, 0xaa, 0x28, 0x0a, 0x6a,
   0xad, 0xaa, 0x7e, 0xbd, 0x56, 0xa9, 0x52, 0x7b, 0xff, 0xff, 0xaa, 0x28,
   0xf8, 0xfe, 0xff, 0x5e, 0xff, 0xff, 0x71, 0x11, 0x00, 0x00, 0x00, 0x00,
   0x90, 0xa4, 0x8a, 0x6f, 0xbb, 0x12, 0x81, 0x20, 0xd6, 0xaa, 0xea, 0xd7,
   0xeb, 0xaa, 0x96, 0x54, 0xfd, 0x5f, 0xa5, 0xaa, 0x02, 0xf4, 0xff, 0x5f,
   0xd3, 0xff, 0xbf, 0x22, 0x28, 0x44, 0x04, 0x00, 0x00, 0x02, 0xa9, 0x2a,
   0xdb, 0x6a, 0x2b, 0x15, 0x00, 0xa8, 0x55, 0xd5, 0x7d, 0xbf, 0x6f, 0xa9,
   0xaa, 0xed, 0x52, 0x95, 0x12, 0xa4, 0xf0, 0xff, 0xff, 0xf7, 0xff, 0xff,
   0x45, 0x64, 0x00, 0x00, 0x00, 0x00, 0x48, 0xaa, 0x8a, 0xb7, 0xaf, 0x2a,
   0x40, 0x25, 0xb4, 0xaa, 0xfa, 0xd6, 0x6a, 0xb5, 0xab, 0x5a, 0x95, 0xaa,
   0x2a, 0x4a, 0x01, 0xd4, 0xf7, 0x7f, 0xdd, 0xff, 0x5b, 0x15, 0x05, 0x81,
   0x00, 0x00, 0x00, 0x88, 0xaa, 0x96, 0x57, 0xbd, 0xd5, 0x0a, 0x80, 0x50,
   0x55, 0xf5, 0xdd, 0xdf, 0x6f, 0x5b, 0xdb, 0x5a, 0x55, 0xa2, 0x10, 0x94,
   0xe8, 0xff, 0xff, 0xfb, 0xff, 0xb7, 0x15, 0x1a, 0x04, 0x02, 0x00, 0x00,
   0x20, 0xa9, 0x4a, 0x6f, 0x57, 0x15, 0x51, 0x12, 0xa0, 0xaa, 0x5e, 0x77,
   0x75, 0xbd, 0xed, 0xaa, 0x55, 0x92, 0x14, 0x45, 0x01, 0x70, 0xee, 0xff,
   0xff, 0xff, 0xae, 0xc2, 0x25, 0x00, 0x00, 0x00, 0x00, 0x04, 0xd5, 0x9a,
   0xdb, 0xf6, 0x55, 0x05, 0x00, 0x85, 0xaa, 0xdf, 0xdd, 0xdf, 0xf7, 0xbb,
   0x7b, 0xab, 0x92, 0x52, 0x10, 0xaa, 0x6a, 0xdc, 0xff, 0xff, 0xff, 0xaa,
   0x0c, 0x55, 0x11, 0x04, 0x00, 0x00, 0x50, 0xaa, 0xa6, 0x6f, 0xaf, 0x2a,
   0xa8, 0x12, 0xa0, 0xf6, 0xb5, 0x76, 0x75, 0xdf, 0x6e, 0xad, 0x4a, 0x24,
   0x08, 0x45, 0x40, 0x02, 0xfc, 0xff, 0xff, 0xff, 0xab, 0x52, 0x25, 0x00,
   0x00, 0x00, 0x00, 0x02, 0x52, 0xbd, 0xdf, 0xde, 0x56, 0x03, 0x42, 0x04,
   0xad, 0xf7, 0xdd, 0xef, 0xfd, 0xdf, 0xbb, 0x95, 0x44, 0x21, 0x88, 0x14,
   0x00, 0x40, 0xff, 0xff, 0xf7, 0x96, 0x22, 0x45, 0x42, 0x08, 0x00, 0x00,
   0x48, 0xb5, 0xed, 0x6b, 0x5f, 0xab, 0x54, 0x08, 0x20, 0xfb, 0xad, 0x77,
   0xfd, 0xff, 0x75, 0x6f, 0x55, 0x12, 0x92, 0x20, 0x01, 0x00, 0x00, 0xff,
   0xff, 0xff, 0x55, 0x94, 0x96, 0x00, 0x00, 0x00, 0x00, 0x08, 0xd4, 0xfd,
   0xdf, 0xfd, 0x5a, 0x49, 0x91, 0x04, 0x76, 0x7b, 0xed, 0xbf, 0xdf, 0xdf,
   0x6d, 0x95, 0x40, 0x00, 0x45, 0x02, 0x00, 0x00, 0xfe, 0xff, 0xff, 0x57,
   0x21, 0x15, 0x04, 0x12, 0x00, 0x00, 0xa0, 0xea, 0xff, 0xb7, 0x5e, 0x57,
   0x25, 0x04, 0x20, 0xbe, 0xad, 0xbf, 0xfb, 0xff, 0x7a, 0xdf, 0x22, 0x25,
   0x15, 0x10, 0x00, 0x00, 0x00, 0xff, 0xf7, 0xfe, 0x95, 0x8a, 0x0a, 0x80,
   0x08, 0x00, 0x00, 0x04, 0xfa, 0xf7, 0xef, 0x7e, 0xb5, 0x4a, 0x21, 0x01,
   0x78, 0x7b, 0xf5, 0xff, 0xfb, 0xef, 0xbb, 0x2a, 0x04, 0xa0, 0x04, 0x00,
   0x00, 0x00, 0xfc, 0xff, 0xff, 0xaf, 0x28, 0xb6, 0x08, 0x00, 0x00, 0x00,
   0x48, 0xf9, 0xff, 0xdf, 0xbd, 0xaf, 0x92, 0x04, 0x24, 0xdc, 0xd6, 0xbf,
   0xff, 0x5f, 0x7d, 0x6f, 0x45, 0x90, 0x00, 0xfb, 0x05, 0x00, 0x00, 0x00,
   0xff, 0xfa, 0x8b, 0x82, 0x0a, 0x02, 0x05, 0x00, 0x00, 0x08, 0xf2, 0xff,
   0x5b, 0xbf, 0x5a, 0x95, 0x54, 0x40, 0xb0, 0x5d, 0xf5, 0xff, 0xff, 0xef,
   0x5d, 0x95, 0x02, 0x4a, 0xfe, 0xbf, 0x00, 0x00, 0x00, 0xff, 0xfb, 0x37,
   0x2a, 0x54, 0x00, 0x0a, 0x00, 0x00, 0xa0, 0xfc, 0xff, 0xef, 0x7a, 0x6b,
   0x25, 0x02, 0x01, 0x60, 0xeb, 0xff, 0xde, 0x7f, 0xbb, 0x77, 0x41, 0x28,
   0xa0, 0xd5, 0x7f, 0x05, 0x00, 0x80, 0xdf, 0xfe, 0x47, 0x81, 0x4a, 0x12,
   0x01, 0x00, 0x00, 0x04, 0xf0, 0xff, 0x5f, 0xff, 0xbe, 0xaa, 0x28, 0x48,
   0xc2, 0xad, 0xea, 0xff, 0xff, 0xff, 0xae, 0x0a, 0x41, 0x05, 0x55, 0xff,
   0x0f, 0x00, 0x80, 0xfe, 0xf7, 0x57, 0x14, 0xca, 0x26, 0x25, 0x00, 0x00,
   0x48, 0xfd, 0xff, 0xef, 0x7a, 0x6b, 0x55, 0x82, 0x02, 0xa8, 0x76, 0xff,
   0xff, 0x7f, 0xb7, 0x5b, 0x25, 0x04, 0x00, 0xb4, 0xfd, 0x1f, 0x00, 0x80,
   0xff, 0xfe, 0x42, 0x41, 0x04, 0x08, 0x01, 0x00, 0x00, 0x00, 0xf0, 0xff,
   0xaf, 0xfe, 0xee, 0x92, 0x14, 0x40, 0x80, 0xd6, 0xb5, 0xff, 0xfe, 0xfe,
   0x5b, 0x89, 0x20, 0x49, 0xa4, 0xfb, 0xfd, 0x00, 0x80, 0xff, 0xff, 0x95,
   0x0a, 0x9c, 0x28, 0x46, 0x00, 0x00, 0x94, 0xfa, 0xff, 0xdf, 0xf5, 0x5a,
   0xab, 0xa2, 0x04, 0x40, 0x5b, 0xff, 0xfd, 0xff, 0x6f, 0xb7, 0x24, 0x0a,
   0x00, 0x51, 0xff, 0xff, 0x00, 0xc0, 0xff, 0xbf, 0xe0, 0x21, 0x15, 0x20,
   0x14, 0x00, 0x00, 0x00, 0xe0, 0xff, 0xbf, 0xfe, 0x7b, 0x55, 0x84, 0x90,
   0x04, 0x76, 0xd5, 0xff, 0xff, 0xfd, 0x2a, 0x41, 0x20, 0x11, 0xa4, 0xda,
   0xff, 0x07, 0x40, 0xff, 0x5f, 0xa2, 0x07, 0x7c, 0xa5, 0x10, 0x01, 0x00,
   0x48, 0xf5, 0xff, 0x6f, 0x7b, 0xad, 0x95, 0x12, 0x02, 0x40, 0x55, 0x7b,
   0xff, 0xff, 0xdb, 0xab, 0x24, 0x09, 0x04, 0x50, 0xff, 0xdf, 0x0b, 0xe0,
   0xff, 0x1b, 0xe8, 0xaa, 0xae, 0x08, 0x50, 0x00, 0x00, 0x08, 0xe8, 0xff,
   0x5f, 0xf5, 0xbd, 0xb5, 0x52, 0x24, 0x04, 0xd4, 0xd6, 0xfb, 0xff, 0x7b,
   0xab, 0x24, 0x40, 0x80, 0x84, 0xfa, 0xfe, 0x3f, 0x50, 0xff, 0x5f, 0x81,
   0x0b, 0xff, 0x59, 0x91, 0x00, 0x00, 0x80, 0xfa, 0xff, 0xff, 0xfe, 0x7b,
   0x4b, 0x0a, 0x81, 0x00, 0xae, 0x5a, 0xff, 0xfd, 0xef, 0x96, 0x82, 0x00,
   0x08, 0x50, 0xff, 0xff, 0xff, 0xfd, 0xff, 0x27, 0xa4, 0x54, 0x57, 0x10,
   0x21, 0x02, 0x00, 0x10, 0xe0, 0xff, 0xaf, 0x6a, 0x6b, 0x5b, 0x51, 0x14,
   0x20, 0xb4, 0x6a, 0xd5, 0xff, 0xdf, 0x2a, 0x08, 0x2a, 0x21, 0x42, 0xf4,
   0xff, 0xef, 0xfb, 0xfd, 0x9f, 0x00, 0xc9, 0xb7, 0x25, 0x66, 0x04, 0x00,
   0x80, 0xf4, 0xff, 0xbf, 0xfd, 0xfd, 0xad, 0x0a, 0x81, 0x04, 0xa8, 0xda,
   0xfe, 0xff, 0xff, 0x4b, 0x41, 0x00, 0x00, 0xa8, 0xdf, 0xff, 0xff, 0xbf,
   0x6f, 0x2b, 0x4a, 0xe4, 0x6e, 0x48, 0x44, 0x00, 0x00, 0x10, 0xd4, 0xff,
   0x7f, 0xf5, 0x55, 0x57, 0x29, 0x12, 0x40, 0xa0, 0x92, 0x55, 0xed, 0xbf,
   0x2e, 0x0a, 0x92, 0x24, 0x81, 0xfa, 0xff, 0xff, 0xff, 0xfe, 0xa6, 0x88,
   0xe8, 0xe7, 0x90, 0x48, 0x09, 0x00, 0x44, 0xe8, 0xff, 0x5f, 0xef, 0xff,
   0xad, 0x52, 0x48, 0x04, 0x52, 0x55, 0xf5, 0xff, 0xff, 0xdb, 0x50, 0x40,
   0x00, 0x74, 0xaf, 0xff, 0xbf, 0xbb, 0x5b, 0xa9, 0x02, 0xf4, 0x3b, 0x4c,
   0x18, 0x05, 0x00, 0x08, 0xf1, 0xff, 0xbf, 0xfa, 0x55, 0x5b, 0x4a, 0x81,
   0x00, 0x40, 0x55, 0x15, 0x55, 0xfb, 0xb7, 0x86, 0x0a, 0x95, 0x60, 0x69,
   0xbb, 0xff, 0xff, 0x6b, 0x95, 0xa8, 0xfc, 0xb7, 0x90, 0x21, 0x0a, 0x00,
   0x20, 0xea, 0xff, 0xbf, 0xb6, 0xfd, 0xad, 0x12, 0x0a, 0x12, 0x52, 0x95,
   0x6a, 0xfd, 0xff, 0xe2, 0xb9, 0x54, 0x00, 0x5e, 0xda, 0xfe, 0xff, 0xff,
   0xd6, 0x28, 0x05, 0xff, 0x7f, 0x60, 0x51, 0x06, 0x00, 0x40, 0xd0, 0xf7,
   0x7f, 0xf5, 0xab, 0xbb, 0xaa, 0x50, 0x40, 0x00, 0x29, 0x89, 0xa2, 0xfe,
   0x07, 0xaf, 0x89, 0x54, 0xaa, 0x52, 0xeb, 0xff, 0xf7, 0x97, 0x4a, 0xa9,
   0xff, 0xef, 0xe2, 0x83, 0x2c, 0x00, 0x10, 0xf5, 0xff, 0xbf, 0xfe, 0xfb,
   0xd6, 0x2a, 0x05, 0x01, 0x40, 0x55, 0x52, 0xda, 0xdb, 0x02, 0x78, 0xb7,
   0x80, 0x1e, 0xa4, 0xbe, 0x7e, 0xff, 0x2f, 0x11, 0xd1, 0xdf, 0x7e, 0xb9,
   0x48, 0x11, 0x00, 0x00, 0xd0, 0xdf, 0x7f, 0xd5, 0xd7, 0xbf, 0x55, 0x29,
   0x14, 0x09, 0xa2, 0x44, 0xa2, 0xfe, 0x01, 0x40, 0xb7, 0x95, 0x75, 0x49,
   0xd1, 0xfb, 0xbf, 0x5d, 0xb5, 0xfa, 0xdf, 0xfd, 0xff, 0x49, 0x42, 0x01,
   0x28, 0xf5, 0xff, 0xff, 0xfa, 0x7b, 0x55, 0x95, 0x44, 0x01, 0x80, 0x54,
   0x29, 0xa9, 0xfb, 0x00, 0x00, 0xfe, 0xa3, 0x0e, 0x12, 0x56, 0xfd, 0xfd,
   0x56, 0x45, 0xfe, 0x2d, 0xff, 0xff, 0x50, 0x00, 0x00, 0x00, 0xa0, 0xff,
   0xff, 0xea, 0xef, 0xdf, 0x55, 0x15, 0x48, 0x10, 0x4a, 0x02, 0xa9, 0xde,
   0x01, 0x00, 0x70, 0x2b, 0x54, 0xa2, 0xa8, 0xd6, 0xef, 0x55, 0x49, 0xf0,
   0x6f, 0xff, 0xff, 0x12, 0x92, 0x02, 0x50, 0xea, 0x6f, 0x5b, 0xf7, 0xb5,
   0xba, 0xaa, 0x44, 0x01, 0x81, 0x92, 0x54, 0x52, 0x7f, 0x00, 0x00, 0xe0,
   0x85, 0x08, 0x08, 0x92, 0xfa, 0xbf, 0x0a, 0x04, 0xf8, 0x02, 0xbf, 0x7f,
   0x45, 0x29, 0x08, 0x40, 0xd0, 0xff, 0x92, 0xdc, 0xef, 0xb7, 0x57, 0x29,
   0x2a, 0x02, 0x2a, 0x01, 0xd2, 0x7a, 0x00, 0x00, 0xa0, 0x15, 0x51, 0x51,
   0x22, 0x52, 0xed, 0xaa, 0x50, 0xe0, 0xaf, 0x7e, 0xfd, 0x95, 0x6b, 0x01,
   0x00, 0x75, 0xff, 0x40, 0xeb, 0x5b, 0xdf, 0xaa, 0x4a, 0x01, 0x10, 0x94,
   0x54, 0xd4, 0x5f, 0x00, 0x00, 0xf0, 0x23, 0x02, 0x00, 0x44, 0xa5, 0xbb,
   0x02, 0x00, 0xc0, 0x43, 0x2b, 0xfa, 0xd7, 0xbf, 0x00, 0x20, 0xc0, 0xdb,
   0x01, 0xdb, 0xf7, 0x7a, 0x5b, 0x11, 0x94, 0x00, 0xa4, 0x92, 0x54, 0x7f,
   0x00, 0x00, 0x60, 0x4f, 0x28, 0xa5, 0x08, 0x24, 0xb6, 0xaa, 0x12, 0x00,
   0x9e, 0xe6, 0xe0, 0xff, 0x5f, 0x09, 0x80, 0xfa, 0xff, 0x80, 0xf6, 0xaf,
   0xef, 0x26, 0x45, 0x01, 0x22, 0x54, 0xa9, 0xea, 0x17, 0x00, 0x00, 0xf8,
   0x95, 0x82, 0x00, 0xa2, 0x88, 0x6a, 0x01, 0x08, 0x00, 0x60, 0x55, 0xd5,
   0xf3, 0x5f, 0x00, 0x10, 0xa0, 0xbf, 0x01, 0xad, 0xed, 0xdd, 0xad, 0x14,
   0x50, 0x80, 0xa8, 0x82, 0xda, 0x1f, 0x00, 0x00, 0xd0, 0x2b, 0x10, 0x48,
   0x04, 0x21, 0xa8, 0x2a, 0x00, 0x00, 0x40, 0x01, 0x83, 0xf7, 0x2f, 0x11,
   0x40, 0xd2, 0xf7, 0x00, 0xfb, 0xb7, 0x77, 0xab, 0xa2, 0x02, 0x09, 0x2c,
   0xb5, 0xfe, 0x0f, 0x00, 0x00, 0xfc, 0x4b, 0x85, 0x02, 0x91, 0x94, 0x6a,
   0x81, 0x08, 0x00, 0x00, 0x00, 0x55, 0xfe, 0x15, 0x00, 0x00, 0x50, 0xaf,
   0x01, 0xa6, 0xaf, 0xfe, 0xae, 0x4a, 0x24, 0x00, 0x68, 0xa4, 0xfa, 0x0f,
   0x00, 0x00, 0x74, 0x2f, 0x10, 0x28, 0x10, 0x00, 0x48, 0x0a, 0x00, 0x00,
   0x00, 0x00, 0x56, 0xff, 0xaf, 0x00, 0x20, 0xe9, 0xff, 0x00, 0xfd, 0xf7,
   0xdb, 0x55, 0x12, 0x11, 0x49, 0x90, 0x90, 0xad, 0x06, 0x00, 0x40, 0xdb,
   0xab, 0x84, 0x80, 0x42, 0x55, 0x91, 0x80, 0x00, 0x00, 0x00, 0x02, 0xde,
   0x7f, 0x09, 0x24, 0x20, 0x40, 0xbf, 0x01, 0xa4, 0xaf, 0xbe, 0x5b, 0x55,
   0x22, 0x00, 0xa0, 0x22, 0xab, 0x7e, 0x00, 0xd0, 0xff, 0x9f, 0x00, 0x09,
   0x08, 0x00, 0x12, 0x09, 0x09, 0x00, 0x00, 0xdf, 0xff, 0xff, 0x4b, 0x00,
   0x40, 0xb5, 0xeb, 0x00, 0xf6, 0xd7, 0xfb, 0x56, 0x85, 0x08, 0x81, 0x94,
   0xd4, 0xaa, 0xb4, 0x01, 0x7e, 0xfb, 0x2b, 0x12, 0x20, 0xa1, 0x2a, 0x41,
   0x00, 0x00, 0x00, 0xc0, 0xff, 0xff, 0xb7, 0x04, 0x00, 0x00, 0xa0, 0xbf,
   0x00, 0x54, 0x5f, 0xdb, 0xb7, 0x2a, 0x21, 0x12, 0x20, 0x41, 0x95, 0xf4,
   0x17, 0xf5, 0xbf, 0x6f, 0x90, 0x04, 0x04, 0x20, 0x08, 0x01, 0x10, 0x00,
   0xc0, 0xff, 0xef, 0xff, 0x25, 0x02, 0xa0, 0xd2, 0xef, 0x00, 0xee, 0xb7,
   0x7d, 0xad, 0x4a, 0x04, 0x00, 0xa0, 0x54, 0x25, 0xd2, 0xee, 0xff, 0xf7,
   0x9f, 0x02, 0x50, 0x92, 0x82, 0x02, 0x24, 0x01, 0x00, 0xc0, 0xff, 0x7f,
   0x5f, 0x00, 0x08, 0x00, 0x50, 0xbf, 0x00, 0x58, 0xbf, 0xed, 0x7f, 0x95,
   0xa4, 0x44, 0x82, 0xa4, 0x4a, 0xd0, 0xdf, 0xbf, 0xbf, 0x7b, 0x24, 0x01,
   0x10, 0x14, 0x50, 0x00, 0x24, 0x00, 0xd4, 0xfd, 0xff, 0xfb, 0x4a, 0x10,
   0x40, 0xa2, 0x6f, 0x00, 0xd4, 0xd7, 0x7e, 0x55, 0x55, 0x10, 0x00, 0x20,
   0x50, 0x95, 0xb2, 0xfd, 0xff, 0xff, 0x4f, 0x11, 0xa4, 0x44, 0x40, 0x02,
   0x00, 0x80, 0x80, 0xff, 0xff, 0xff, 0x9f, 0x00, 0x00, 0x40, 0xa4, 0x5e,
   0x00, 0xb8, 0xbe, 0xeb, 0x6f, 0x95, 0x02, 0x11, 0x80, 0x42, 0x21, 0xa2,
   0x7f, 0xfb, 0x7f, 0xbf, 0x82, 0x00, 0x88, 0x0a, 0x08, 0x89, 0x28, 0x20,
   0xf7, 0xff, 0x7d, 0xbf, 0x0a, 0x01, 0x00, 0xd0, 0x3f, 0x00, 0xe8, 0x6f,
   0x7d, 0xdb, 0x2a, 0x29, 0x84, 0x44, 0x28, 0x8a, 0xd8, 0xf6, 0xff, 0xfb,
   0x5b, 0x29, 0x92, 0x10, 0xa0, 0x20, 0x00, 0x40, 0xf9, 0xdf, 0xbe, 0x9f,
   0x5b, 0x00, 0x10, 0x40, 0x51, 0x75, 0x00, 0xa8, 0xbe, 0xed, 0xbf, 0x52,
   0x42, 0x00, 0x00, 0xa1, 0x10, 0xb4, 0x7e, 0xab, 0xff, 0x7f, 0x45, 0x80,
   0x52, 0x05, 0x02, 0x40, 0x0a, 0xf2, 0xff, 0x3f, 0x86, 0xbf, 0x20, 0x00,
   0x00, 0xa0, 0x1f, 0x00, 0xb0, 0x6f, 0x77, 0xd5, 0xad, 0x08, 0x11, 0x48,
   0x00, 0x45, 0x99, 0xdf, 0x6d, 0xff, 0x57, 0x89, 0x2a, 0x04, 0x90, 0x48,
   0x09, 0xa0, 0xd4, 0xdf, 0x0f, 0xc0, 0x17, 0x04, 0x01, 0x80, 0xd2, 0x3d,
   0x00, 0x60, 0xfd, 0xee, 0xbf, 0x2a, 0x29, 0x40, 0x00, 0x52, 0x08, 0x20,
   0xfa, 0x6d, 0xb5, 0x7f, 0x2b, 0x40, 0xa9, 0x02, 0x00, 0x80, 0x04, 0xa0,
   0xbf, 0x1d, 0xc0, 0xaf, 0x00, 0x02, 0x00, 0x60, 0x07, 0x00, 0xb0, 0xaf,
   0xbd, 0x75, 0xab, 0x42, 0x01, 0xa0, 0x40, 0x51, 0x92, 0xbe, 0xab, 0xfe,
   0xbf, 0x4a, 0x2b, 0x02, 0x94, 0x84, 0x24, 0x52, 0x49, 0xff, 0x0e, 0xe1,
   0x0e, 0x00, 0x00, 0x80, 0x52, 0x1d, 0x00, 0xe0, 0x7e, 0xf5, 0x6f, 0x55,
   0x0a, 0x09, 0x02, 0x0a, 0x42, 0x20, 0x74, 0x6d, 0x65, 0xff, 0x5a, 0xaa,
   0xaa, 0x10, 0x10, 0x40, 0x00, 0x80, 0xfe, 0x8f, 0xff, 0x3f, 0x24, 0x00,
   0x00, 0xd0, 0x16, 0x00, 0xa0, 0x7f, 0xdb, 0xbf, 0xab, 0x10, 0x00, 0x20,
   0xa0, 0x08, 0x81, 0xfa, 0x55, 0xd5, 0xfd, 0xab, 0x55, 0x02, 0x42, 0x42,
   0x0a, 0x55, 0x25, 0xfd, 0xe3, 0xbf, 0x8b, 0x00, 0x00, 0x00, 0x92, 0x3d,
   0x00, 0x60, 0x7d, 0xbb, 0xf6, 0x5e, 0x55, 0x25, 0x80, 0x04, 0x11, 0x2a,
   0xaa, 0xad, 0x2a, 0xdb, 0x6e, 0xdb, 0x54, 0x04, 0x04, 0x20, 0x00, 0x04,
   0x42, 0xe1, 0x7b, 0x3f, 0x00, 0x00, 0x00, 0x64, 0x1b, 0x00, 0xc0, 0xff,
   0xf6, 0xdf, 0x55, 0x01, 0x00, 0x22, 0x50, 0x40, 0x80, 0xfc, 0xab, 0x54,
   0xfa, 0xbb, 0x57, 0x05, 0x10, 0x90, 0x88, 0xa4, 0x10, 0x0a, 0xfc, 0xee,
   0x8b, 0x00, 0x00, 0x00, 0x80, 0x3e, 0x00, 0xa0, 0xfa, 0xb6, 0xbb, 0xad,
   0x56, 0x12, 0x00, 0x42, 0x0a, 0x80, 0x68, 0x55, 0x89, 0x54, 0xf7, 0x5e,
   0xa9, 0x42, 0x01, 0x11, 0x04, 0xa2, 0x08, 0xfe, 0x2d, 0x2f, 0x04, 0x00,
   0x00, 0x2a, 0x7f, 0x00, 0xc0, 0xff, 0xed, 0x7e, 0x5b, 0x49, 0x40, 0xa0,
   0x10, 0xa1, 0x12, 0xfa, 0x95, 0x52, 0xf5, 0xff, 0xbb, 0x02, 0x10, 0x08,
   0x40, 0x91, 0x08, 0x1a, 0x5f, 0x9b, 0x8b, 0x00, 0x00, 0x00, 0x20, 0x78,
   0x00, 0x80, 0xda, 0xdb, 0x6f, 0xb7, 0x4a, 0x05, 0x02, 0x22, 0x04, 0x80,
   0x50, 0xab, 0x12, 0xa4, 0xfd, 0x77, 0x55, 0x02, 0x41, 0x0a, 0x10, 0x41,
   0x72, 0x7f, 0x00, 0x3f, 0x00, 0x00, 0x00, 0x44, 0xf5, 0x00, 0xc0, 0xff,
   0x76, 0xfb, 0xaa, 0x12, 0x00, 0x40, 0x40, 0x11, 0x11, 0xed, 0x56, 0xa4,
   0xd2, 0xef, 0xdf, 0x0a, 0x00, 0x08, 0x20, 0x41, 0x14, 0xe8, 0x23, 0x80,
   0x87, 0x04, 0x00, 0x00, 0x08, 0xd5, 0x00, 0x00, 0xfd, 0x6d, 0xdf, 0x5f,
   0xa5, 0x2a, 0x04, 0x0a, 0x22, 0x20, 0xd8, 0x95, 0x24, 0x94, 0xfe, 0xff,
   0x92, 0x24, 0x40, 0x22, 0x0a, 0x51, 0xe9, 0x2f, 0x80, 0x2f, 0x00, 0x00,
   0x00, 0x50, 0xfa, 0x01, 0xc0, 0xf7, 0xdb, 0x7d, 0xb5, 0x2a, 0x00, 0x20,
   0xa0, 0x88, 0x84, 0xb2, 0xaa, 0x92, 0x62, 0xbf, 0xdf, 0x0a, 0x80, 0x08,
   0x88, 0x50, 0x0a, 0xb2, 0x0a, 0x80, 0x95, 0x10, 0x00, 0x00, 0x40, 0xd2,
   0x7f, 0x81, 0xfe, 0xb7, 0xef, 0x57, 0xa5, 0x92, 0x40, 0x09, 0x01, 0x00,
   0xaa, 0xab, 0x24, 0x48, 0xfd, 0xfd, 0x2b, 0x09, 0x41, 0x01, 0x42, 0xa9,
   0xe4, 0x1b, 0x80, 0x17, 0x00, 0x00, 0x00, 0xa8, 0x74, 0xff, 0xd7, 0xfd,
   0x6d, 0xbd, 0x6e, 0x15, 0x04, 0x04, 0x20, 0x2a, 0x49, 0x68, 0x55, 0x92,
   0x52, 0xff, 0x5f, 0x45, 0x00, 0x10, 0x94, 0xa8, 0x96, 0x52, 0x04, 0xc0,
   0x4b, 0x00, 0x00, 0x00, 0x80, 0xc4, 0xd7, 0xbf, 0xf7, 0xd7, 0xfb, 0xad,
   0xaa, 0x48, 0x00, 0x45, 0x00, 0x00, 0x69, 0xab, 0x24, 0x92, 0xfa, 0xff,
   0x95, 0x08, 0x80, 0x10, 0xa2, 0x55, 0xca, 0x00, 0x80, 0x17, 0x02, 0x00,
   0x00, 0x40, 0x5a, 0x7d, 0xff, 0xfa, 0x5b, 0xef, 0xbf, 0x55, 0x21, 0x54,
   0x10, 0x29, 0x49, 0xaa, 0x56, 0x49, 0xa1, 0xee, 0x7f, 0x0b, 0x40, 0x02,
   0x42, 0xf4, 0xaf, 0x50, 0x01, 0xc0, 0x45, 0x00, 0x00, 0x00, 0x40, 0xa0,
   0xea, 0xfd, 0xff, 0x77, 0x7d, 0xb5, 0x12, 0x85, 0x00, 0x22, 0x01, 0x00,
   0xd0, 0xaa, 0x12, 0x4a, 0xfa, 0xff, 0x5b, 0x01, 0x48, 0x88, 0xe8, 0xbd,
   0x4a, 0x03, 0xc0, 0x1f, 0x10, 0x00, 0x00, 0x00, 0xa9, 0x55, 0xf7, 0xda,
   0xd7, 0xeb, 0x6f, 0x55, 0x10, 0x50, 0x08, 0xa4, 0xa4, 0xaa, 0x56, 0x49,
   0x91, 0xee, 0x7e, 0x27, 0x00, 0x00, 0x11, 0xfd, 0x57, 0xa5, 0x02, 0xc0,
   0x42, 0x00, 0x00, 0x00, 0x40, 0x22, 0xdb, 0xf6, 0xff, 0xaf, 0xbe, 0xad,
   0x95, 0x22, 0x02, 0xa1, 0x04, 0x00, 0xa8, 0xad, 0x2a, 0xa2, 0xf8, 0xf7,
   0x56, 0x92, 0x10, 0x22, 0xfa, 0xff, 0x8a, 0x0e, 0xc0, 0x0f, 0x02, 0x00,
   0x00, 0x80, 0x54, 0x55, 0xdf, 0xfd, 0xb7, 0xeb, 0x7f, 0x25, 0x89, 0x48,
   0x14, 0x50, 0x89, 0x52, 0x55, 0x49, 0x09, 0xeb, 0xff, 0x1b, 0x00, 0x44,
   0x88, 0xde, 0xaf, 0x2a, 0x05, 0xe0, 0x22, 0x00, 0x00, 0x00, 0x80, 0x02,
   0xd5, 0xfa, 0xfb, 0x6f, 0xbd, 0xaa, 0x55, 0x02, 0x88, 0xa0, 0x02, 0x10,
   0xa4, 0xaa, 0x2a, 0x52, 0xaa, 0x6f, 0xb7, 0x12, 0x00, 0x51, 0xff, 0xff,
   0x55, 0x3e, 0xe0, 0x4b, 0x08, 0x00, 0x00, 0x00, 0xa9, 0xaa, 0xf6, 0xff,
   0xaf, 0xeb, 0x7f, 0x55, 0x29, 0x21, 0x0a, 0x24, 0x41, 0xa9, 0x56, 0x49,
   0x89, 0xd4, 0xfe, 0x4a, 0x40, 0x90, 0x80, 0xbd, 0x5f, 0xa5, 0x1a, 0xf0,
   0x0a, 0x00, 0x00, 0x00, 0x00, 0x21, 0x54, 0xad, 0xff, 0xaf, 0xde, 0x6b,
   0x4b, 0x22, 0x44, 0x90, 0x04, 0x09, 0xa4, 0xaa, 0x2a, 0x92, 0xd4, 0xaf,
   0x2f, 0x02, 0x02, 0x54, 0xfb, 0xff, 0x97, 0x74, 0xe0, 0x8b, 0x10, 0x00,
   0x00, 0x00, 0x84, 0xaa, 0xfa, 0xee, 0x5f, 0x7b, 0xdf, 0xaa, 0x84, 0x10,
   0x41, 0x50, 0x20, 0xa9, 0xaa, 0x4a, 0x49, 0x52, 0x7d, 0x29, 0x88, 0x20,
   0x51, 0xff, 0xbf, 0x6a, 0x3d, 0x70, 0x25, 0x00, 0x00, 0x00, 0x00, 0x92,
   0x48, 0xd5, 0xff, 0xdf, 0xd6, 0xbb, 0x95, 0x94, 0x22, 0x8a, 0x82, 0x04,
   0xa0, 0xaa, 0x2a, 0x49, 0x54, 0x6b, 0xab, 0x00, 0x00, 0x55, 0x6d, 0xff,
   0x57, 0xf1, 0xf0, 0x0b, 0x00, 0x00, 0x00, 0x00, 0x04, 0x52, 0xb5, 0xfe,
   0xaf, 0xbd, 0x6e, 0xab, 0x22, 0x84, 0x10, 0x08, 0x50, 0x95, 0xaa, 0xaa,
   0x84, 0xa2, 0xde, 0x0a, 0x92, 0x24, 0x6a, 0xff, 0xff, 0xae, 0xea, 0xf9,
   0x4a, 0x02, 0x00, 0x00, 0x00, 0xa8, 0x44, 0xed, 0xbb, 0x5f, 0xeb, 0x6d,
   0x55, 0x4a, 0x29, 0x42, 0x91, 0x02, 0x50, 0x55, 0x55, 0x95, 0xa8, 0xb2,
   0xaa, 0x00, 0x80, 0x54, 0xd9, 0xff, 0xbb, 0xea, 0xf1, 0x0b, 0x10, 0x00,
   0x00, 0x00, 0x40, 0x92, 0xaa, 0xfe, 0x5f, 0xbd, 0xdf, 0xaa, 0x12, 0x42,
   0x09, 0x04, 0x48, 0x49, 0x55, 0x95, 0x28, 0x45, 0xad, 0x0a, 0x4a, 0xaa,
   0xb6, 0xf8, 0xfd, 0x6f, 0xb5, 0x7b, 0x25, 0x00, 0x00, 0x00, 0x00, 0x00,
   0x54, 0xed, 0xef, 0x5f, 0xb5, 0xba, 0xab, 0xaa, 0x14, 0xa9, 0x20, 0x01,
   0x11, 0x55, 0x55, 0x45, 0x10, 0xa9, 0x52, 0x00, 0x48, 0x0d, 0xe0, 0xff,
   0xdf, 0xea, 0xff, 0x0b, 0x01, 0x00, 0x00, 0x00, 0x00, 0x20, 0xb5, 0xba,
   0xbf, 0xed, 0x77, 0x55, 0x52, 0x22, 0x04, 0x0a, 0x24, 0x44, 0x55, 0xa9,
   0x28, 0xa5, 0x54, 0x0a, 0xa9, 0xd4, 0x02, 0xb0, 0xff, 0x7f, 0xeb, 0x7f,
   0x51, 0x00, 0x00, 0x00, 0x00, 0x00, 0x00, 0x60, 0x7f, 0xbf, 0xaa, 0xd6,
   0x56, 0x95, 0x4a, 0x51, 0x90, 0x40, 0x48, 0xaa, 0xaa, 0x22, 0x09, 0x91,
   0x20, 0x01, 0x29, 0x00, 0xc0, 0xf7, 0xff, 0xae, 0xfb, 0x07, 0x10, 0x00,
   0x00, 0x00, 0x00, 0x00, 0xc0, 0xfa, 0x5b, 0xbb, 0xbb, 0x6d, 0xa5, 0x28,
   0x8a, 0x00, 0x02, 0xa1, 0xaa, 0x4a, 0x49, 0x52, 0x4a, 0x0a, 0xa4, 0x06,
   0x00, 0x40, 0xff, 0xf7, 0xf5, 0x7f, 0x11, 0x01, 0x00, 0x00, 0x00, 0x00,
   0x00, 0x80, 0xd6, 0xbf, 0xea, 0x76, 0x5b, 0xad, 0xa2, 0x10, 0x55, 0x28,
   0x84, 0x50, 0x55, 0x4a, 0x82, 0x40, 0xa2, 0xa0, 0x00, 0x00, 0x80, 0xde,
   0xff, 0xaf, 0xff, 0x06, 0x00, 0x00, 0x00, 0x00, 0x00, 0x00, 0x00, 0x7a,
   0x5f, 0xad, 0xdb, 0x56, 0x55, 0x15, 0x45, 0x00, 0x81, 0x10, 0x95, 0x92,
   0x00, 0x29, 0x15, 0x08, 0x4a, 0x00, 0x00, 0x00, 0xfb, 0xff, 0xdd, 0xff,
   0x09, 0x04, 0x00, 0x00, 0x00, 0x00, 0x00, 0x00, 0x68, 0x7b, 0xb5, 0xb6,
   0x75, 0x55, 0x55, 0x49, 0x12, 0x12, 0x22, 0x52, 0xaa, 0x2a, 0x22, 0x40,
   0x51, 0x0a, 0x00, 0x00, 0x00, 0xfe, 0xff, 0xbb, 0xfe, 0x55, 0x20, 0x00,
   0x00, 0x00, 0x00, 0x00, 0x00, 0xd0, 0xad, 0xda, 0x6d, 0xdb, 0xaa, 0x2a,
   0x12, 0x40, 0x40, 0x48, 0xa4, 0x24, 0x49, 0x88, 0x0a, 0x44, 0x01, 0x00,
   0x00, 0x00, 0xec, 0xdf, 0xef, 0xbf, 0x02, 0x00, 0x00, 0x00, 0x00, 0x00,
   0x00, 0x00, 0x80, 0x0a, 0xb5, 0xdd, 0x56, 0xab, 0xaa, 0xa4, 0x0a, 0x0a,
   0x01, 0x09, 0x49, 0x42, 0x51, 0xa8, 0x14, 0x00, 0x00, 0x00, 0x00, 0xb8,
   0xff, 0x7f, 0xfd, 0x16, 0x00, 0x00, 0x00, 0x00, 0x00, 0x00, 0x00, 0x00,
   0x00, 0xaa, 0x6a, 0xdb, 0xb6, 0xaa, 0x12, 0xa0, 0x20, 0xaa, 0xd4, 0x52,
   0x09, 0x82, 0x82, 0x02, 0x00, 0x00, 0x00, 0x00, 0xf0, 0xff, 0xdf, 0xff,
   0x09, 0x02, 0x00, 0x00, 0x00, 0x00, 0x00, 0x00, 0x00, 0x00, 0xd4, 0xde,
   0xb6, 0xd6, 0xaa, 0x44, 0x05, 0x44, 0x00, 0x10, 0x25, 0x52, 0x14, 0x28,
   0x00, 0x00, 0x00, 0x00, 0x00, 0xd0, 0xfe, 0xff, 0xfb, 0x52, 0x10, 0x00,
   0x00, 0x00, 0x00, 0x00, 0x00, 0x00, 0x00, 0xa8, 0x55, 0xd5, 0x5a, 0x55,
   0x15, 0x90, 0x00, 0x49, 0xa5, 0x54, 0x89, 0xa0, 0x4a, 0x00, 0x00, 0x00,
   0x00, 0x00, 0xc0, 0xff, 0x7f, 0xbf, 0x02, 0x00, 0x00, 0x00, 0x00, 0x00,
   0x00, 0x00, 0x00, 0x00, 0x20, 0xd5, 0xb6, 0x76, 0x57, 0xa9, 0x02, 0x29,
   0x08, 0x48, 0x45, 0x92, 0x4a, 0x02, 0x00, 0x00, 0x00, 0x00, 0x00, 0x80,
   0xf6, 0xff, 0xf7, 0x14, 0x01, 0x00, 0x00, 0x00, 0x00, 0x00, 0x00, 0x00,
   0x00, 0xc0, 0xba, 0xad, 0xd5, 0x5a, 0x25, 0x14, 0x80, 0xa0, 0xa4, 0x9a,
   0x2a, 0x25, 0x00, 0x00, 0x00, 0x00, 0x00, 0x00, 0x00, 0xbf, 0xff, 0x5f,
   0x41, 0x00, 0x00, 0x00, 0x00, 0x00, 0x00, 0x00, 0x00, 0x00, 0x00, 0xa5,
   0xaa, 0x56, 0x6b, 0x55, 0x21, 0x89, 0x04, 0x29, 0xa2, 0x20, 0x00, 0x00,
   0x00, 0x00, 0x00, 0x00, 0x00, 0x00, 0xfa, 0xff, 0xbe, 0x0a, 0x10, 0x00,
   0x00, 0x00, 0x00, 0x00, 0x00, 0x00, 0x00, 0x00, 0xb4, 0xda, 0xda, 0xae,
   0x4a, 0x0a, 0x20, 0x50, 0x04, 0x00, 0x00, 0x00, 0x00, 0x00, 0x00, 0x00,
   0x00, 0x00, 0x00, 0xfc, 0xfe, 0x57, 0x81, 0x04, 0x00, 0x00, 0x00, 0x00,
   0x00, 0x00, 0x00, 0x00, 0x00, 0xa0, 0xb5, 0xb6, 0xaa, 0xaa, 0x50, 0x45,
   0x05, 0x00, 0x00, 0x00, 0x00, 0x00, 0x00, 0x00, 0x00, 0x00, 0x00, 0x00,
   0xd0, 0xff, 0xbf, 0x12, 0x00, 0x00, 0x00, 0x00, 0x00, 0x00, 0x00, 0x00,
   0x00, 0x00, 0x00, 0x6a, 0x55, 0x6d, 0x55, 0x05, 0x88, 0x00, 0x00, 0x00,
   0x00, 0x00, 0x00, 0x00, 0x00, 0x00, 0x00, 0x00, 0x00, 0xf0, 0xff, 0x57,
   0x01, 0x00, 0x00, 0x00, 0x00, 0x00, 0x00, 0x00, 0x00, 0x00, 0x00, 0x00,
   0xa0, 0xdb, 0xaa, 0x2a, 0xb5, 0x12, 0x00, 0x00, 0x00, 0x00, 0x00, 0x00,
   0x00, 0x00, 0x00, 0x00, 0x00, 0x00, 0x40, 0xfb, 0x5f, 0x95, 0x00, 0x00,
   0x00, 0x00, 0x00, 0x00, 0x00, 0x00, 0x00, 0x00, 0x00, 0x00, 0xaa, 0x55,
   0x55, 0x42, 0x00, 0x00, 0x00, 0x00, 0x00, 0x00, 0x00, 0x00, 0x00, 0x00,
   0x00, 0x00, 0x00, 0x80, 0xff, 0xb7, 0x00, 0x04, 0x00, 0x00, 0x00, 0x00,
   0x00, 0x00, 0x00, 0x00, 0x00, 0x00, 0x00, 0x00, 0x6d, 0x55, 0x15, 0x01,
   0x00, 0x00, 0x00, 0x00, 0x00, 0x00, 0x00, 0x00, 0x00, 0x00, 0x00, 0x00,
   0x00, 0xf7, 0xbf, 0x2a, 0x00, 0x00, 0x00, 0x00, 0x00, 0x00, 0x00, 0x00,
   0x00, 0x00, 0x00, 0x00, 0x00, 0x80, 0x22, 0x00, 0x00, 0x00, 0x00, 0x00,
   0x00, 0x00, 0x00, 0x00, 0x00, 0x00, 0x00, 0x00, 0x00, 0x00, 0xfe, 0xaf,
   0x00, 0x04, 0x00, 0x00, 0x00, 0x00, 0x00, 0x00, 0x00, 0x00, 0x00, 0x00,
   0x00, 0x00, 0x00, 0x00, 0x00, 0x00, 0x00, 0x00, 0x00, 0x00, 0x00, 0x00,
   0x00, 0x00, 0x00, 0x00, 0x00, 0x00, 0x00, 0xd8, 0x7f, 0x4b, 0x00, 0x00,
   0x00, 0x00, 0x00, 0x00, 0x00, 0x00, 0x00, 0x00, 0x00, 0x00, 0x00, 0x00,
   0x00, 0x00, 0x00, 0x00, 0x00, 0x00, 0x00, 0x00, 0x00, 0x00, 0x00, 0x00,
   0x00, 0x00, 0x00, 0x00, 0xf4, 0xaf, 0x04, 0x00, 0x00, 0x00, 0x00, 0x00,
   0x00, 0x00, 0x00, 0x00, 0x00, 0x00, 0x00, 0x00, 0x00, 0x00, 0x00, 0x00,
   0x00, 0x00, 0x00, 0x00, 0x00, 0x00, 0x00, 0x00, 0x00, 0x00, 0x00, 0x00,
   0x00, 0xd0, 0xfe, 0x15, 0x01, 0x00, 0x00, 0x00, 0x00, 0x00, 0x00, 0x00,
   0x00, 0x00, 0x00, 0x00, 0x00, 0x00, 0x00, 0x00, 0x00, 0x00, 0x00, 0x00,
   0x00, 0x00, 0x00, 0x00, 0x00, 0x00, 0x00, 0x00, 0x00, 0x00, 0xc0, 0xbf,
   0x0a, 0x00, 0x00, 0x00, 0x00, 0x00, 0x00, 0x00, 0x00, 0x00, 0x00, 0x00,
   0x00, 0x00, 0x00, 0x00, 0x00, 0x00, 0x00, 0x00, 0x00, 0x00, 0x00, 0x00,
   0x00, 0x00, 0x00, 0x00, 0x00, 0x00, 0x00, 0x80, 0xfe, 0x2b, 0x00, 0x00,
   0x00, 0x00, 0x00, 0x00, 0x00, 0x00, 0x00, 0x00, 0x00, 0x00, 0x00, 0x00,
   0x00, 0x00, 0x00, 0x00, 0x00, 0x00, 0x00, 0x00, 0x00, 0x00, 0x00, 0x00,
   0x00, 0x00, 0x00, 0x00, 0x00, 0xba, 0x8a, 0x00, 0x00, 0x00, 0x00, 0x00,
   0x00, 0x00, 0x00, 0x00, 0x00, 0x00, 0x00, 0x00, 0x00, 0x00, 0x00, 0x00,
   0x00, 0x00, 0x00, 0x00, 0x00, 0x00, 0x00, 0x00, 0x00, 0x00, 0x00, 0x00,
   0x00, 0x00, 0x60, 0x17, 0x00, 0x00, 0x00, 0x00, 0x00, 0x00, 0x00, 0x00,
   0x00, 0x00, 0x00, 0x00, 0x00, 0x00, 0x00, 0x00, 0x00, 0x00, 0x00, 0x00,
   0x00, 0x00, 0x00, 0x00, 0x00, 0x00, 0x00, 0x00, 0x00, 0x00, 0x00, 0x00,
   0x00, 0x00, 0x00, 0x00, 0x00, 0x00, 0x00, 0x00, 0x00, 0x00, 0x00, 0x00,
   0x00, 0x00, 0x00, 0x00, 0x00, 0x00, 0x00, 0x00, 0x00, 0x00, 0x00, 0x00,
   0x00, 0x00, 0x00, 0x00, 0x00, 0x00, 0x00, 0x00, 0x00, 0x00, 0x00, 0x00,
   0x00, 0x00, 0x00, 0x00, 0x00, 0x00, 0x00, 0x00, 0x00, 0x00, 0x00, 0x00,
   0x00, 0x00, 0x00, 0x00, 0x00, 0x00, 0x00, 0x00, 0x00, 0x00, 0x00, 0x00,
   0x00, 0x00, 0x00, 0x00, 0x00, 0x00, 0x00, 0x00, 0x00, 0x00, 0x00, 0x00,
   0x00, 0x00, 0x00, 0x00, 0x00, 0x00, 0x00, 0x00, 0x00, 0x00, 0x00, 0x00,
   0x00, 0x00, 0x00, 0x00, 0x00, 0x00, 0x00, 0x00, 0x00, 0x00, 0x00, 0x00,
   0x00, 0x00, 0x00, 0x00, 0x00, 0x00, 0x00, 0x00, 0x00, 0x00, 0x00, 0x00,
   0x00, 0x00, 0x00, 0x00, 0x00, 0x00, 0x00, 0x00, 0x00, 0x00, 0x00, 0x00,
   0x00, 0x00, 0x00, 0x00, 0x00, 0x00, 0x00, 0x00, 0x00, 0x00, 0x00, 0x00,
   0x00, 0x00, 0x00, 0x00, 0x00, 0x00, 0x00, 0x00, 0x00, 0x00, 0x00, 0x00,
   0x00, 0x00, 0x00, 0x00, 0x00, 0x00, 0x00, 0x00, 0x00, 0x00, 0x00, 0x00,
   0x00, 0x00, 0x00, 0x00, 0x00, 0x00, 0x00, 0x00, 0x00, 0x00, 0x00, 0x00,
   0x00, 0x00, 0x00, 0x00, 0x00, 0x00, 0x00, 0x00, 0x00, 0x00, 0x00, 0x00,
   0x00, 0x00, 0x00, 0x00, 0x00, 0x00, 0x00, 0x00, 0x00, 0x00, 0x00, 0x00,
   0x00, 0x00, 0x00, 0x00, 0x00, 0x00, 0x00, 0x00, 0x00, 0x00, 0x00, 0x00,
   0x00, 0x00, 0x00, 0x00, 0x00, 0x00, 0x00, 0x00, 0x00, 0x00, 0x00, 0x00,
   0x00, 0x00, 0x00, 0x00, 0x00, 0x00, 0x00, 0x00, 0x00, 0x00, 0x00, 0x00,
   0x00, 0x00, 0x00, 0x00, 0x00, 0x00, 0x00, 0x00, 0x00, 0x00, 0x00, 0x00,
   0x00, 0x00, 0x00, 0x00, 0x00, 0x00, 0x00, 0x00, 0x00, 0x00, 0x00, 0x00,
   0x00, 0x00, 0x00, 0x00, 0x00, 0x00, 0x00, 0x00, 0x00, 0x00, 0x00, 0x00,
   0x00, 0x00, 0x00, 0x00, 0x00, 0x00, 0x00, 0x00, 0x00, 0x00, 0x00, 0x00,
   0x00, 0x00, 0x00, 0x00, 0x00, 0x00, 0x00, 0x00, 0x00, 0x00, 0x00, 0x00,
   0x00, 0x00, 0x00, 0x00, 0x00, 0x00, 0x00, 0x00, 0x00, 0x00, 0x00, 0x00,
   0x00, 0x00, 0x00, 0x00, 0x00, 0x00, 0x00, 0x00, 0x00, 0x00, 0x00, 0x00,
   0x00, 0x00, 0x00, 0x00, 0x00, 0x00, 0x00, 0x00, 0x00, 0x00, 0x00, 0x00,
   0x00, 0x00, 0x00, 0x00, 0x00, 0x00, 0x00, 0x00, 0x00, 0x00, 0x00, 0x00,
   0x00, 0x00, 0x00, 0x00, 0x00, 0x00, 0x00, 0x00, 0x00, 0x00, 0x00, 0x00,
   0x00, 0x00, 0x00, 0x00, 0x00, 0x00, 0x00, 0x00, 0x00, 0x00, 0x00, 0x00,
   0x00, 0x00, 0x00, 0x00, 0x00, 0x00, 0x00, 0x00, 0x00, 0x00, 0x00, 0x00,
   0x00, 0x00, 0x00, 0x00, 0x00, 0x00, 0x00, 0x00, 0x00, 0x00, 0x00, 0x00,
   0x00, 0x00, 0x00, 0x00, 0x00, 0x00, 0x00, 0x00, 0x00, 0x00, 0x00, 0x00,
   0x00, 0x00, 0x00, 0x00, 0x00, 0x00, 0x00, 0x00, 0x00, 0x00, 0x00, 0x00,
   0x00, 0x00, 0x00, 0x00, 0x00, 0x00, 0x00, 0x00, 0x00, 0x00, 0x00, 0x00,
   0x00, 0x00, 0x00, 0x00, 0x00, 0x00, 0x00, 0x00, 0x00, 0x00, 0x00, 0x00,
   0x00, 0x00, 0x00, 0x00, 0x00, 0x00, 0x00, 0x00, 0x00, 0x00, 0x00, 0x00,
   0x00, 0x00, 0x00, 0x00, 0x00, 0x00, 0x00, 0x00, 0x00, 0x00, 0x00, 0x00,
   0x00, 0x00, 0x00, 0x00, 0x00, 0x00, 0x00, 0x00, 0x00, 0x00, 0x00, 0x00,
   0x00, 0x00, 0x00, 0x00, 0x00, 0x00, 0x00, 0x00, 0x00, 0x00, 0x00, 0x00,
   0x00, 0x00, 0x00, 0x00, 0x00, 0x00, 0x00, 0x00, 0x00, 0x00, 0x00, 0x00,
   0x00, 0x00, 0x00, 0x00, 0x00, 0x00, 0x00, 0x00, 0x00, 0x00, 0x00, 0x00,
   0x00, 0x00, 0x00, 0x00, 0x00, 0x00, 0x00, 0x00, 0x00, 0x00, 0x00, 0x00,
   0x00, 0x00, 0x00, 0x00, 0x00, 0x00, 0x00, 0x00, 0x00, 0x00, 0x00, 0x00,
   0x00, 0x00, 0x00, 0x00, 0x00, 0x00, 0x00, 0x00, 0x00, 0x00, 0x00, 0x00,
   0x00, 0x00, 0x00, 0x00, 0x00, 0x00, 0x00, 0x00, 0x00, 0x00, 0x00, 0x00,
   0x00, 0x00, 0x00, 0x00, 0x00, 0x00, 0x00, 0x00, 0x00, 0x00, 0x00, 0x00,
   0x00, 0x00, 0x00, 0x00, 0x00, 0x00, 0x00, 0x00, 0x00, 0x00, 0x00, 0x00,
   0x00, 0x00, 0x00, 0x00, 0x00, 0x00, 0x00, 0x00, 0x00, 0x00, 0x00, 0x00,
   0x00, 0x00, 0x00, 0x00, 0x00, 0x00, 0x00, 0x00, 0x00, 0x00, 0x00, 0x00,
   0x00, 0x00, 0x00, 0x00, 0x00, 0x00, 0x00, 0x00, 0x00, 0x00, 0x00, 0x00,
   0x00, 0x00, 0x00, 0x00, 0x00, 0x00, 0x00, 0x00, 0x00, 0x00, 0x00, 0x00,
   0x00, 0x00, 0x00, 0x00, 0x00, 0x00, 0x00, 0x00, 0x00, 0x00, 0x00, 0x00,
   0x00, 0x00, 0x00, 0x00, 0x00, 0x00, 0x00, 0x00, 0x00, 0x00, 0x00, 0x00,
   0x00, 0x00, 0x00, 0x00, 0x00, 0x00, 0x00, 0x00, 0x00, 0x00, 0x00, 0x00,
   0x00, 0x00, 0x00, 0x00, 0x00, 0x00, 0x00, 0x00, 0x00, 0x00, 0x00, 0x00,
   0x00, 0x00, 0x00, 0x00, 0x00, 0x00, 0x00, 0x00, 0x00, 0x00, 0x00, 0x00,
   0x00, 0x00, 0x00, 0x00, 0x00, 0x00, 0x00, 0x00, 0x00, 0x00, 0x00, 0x00,
   0x00, 0x00, 0x00, 0x00, 0x00, 0x00, 0x00, 0x00, 0x00, 0x00, 0x00, 0x00,
   0x00, 0x00, 0x00, 0x00, 0x00, 0x00, 0x00, 0x00, 0x00, 0x00, 0x00, 0x00,
   0x00, 0x00, 0x00, 0x00, 0x00, 0x00, 0x00, 0x00, 0x00, 0x00, 0x00, 0x00,
   0x00, 0x00, 0x00, 0x00, 0x00, 0x00, 0x00, 0x00, 0x00, 0x00, 0x00, 0x00,
   0x00, 0x00, 0x00, 0x00, 0x00, 0x00, 0x00, 0x00, 0x00, 0x00, 0x00, 0x00,
   0x00, 0x00, 0x00, 0x00, 0x00, 0x00, 0x00, 0x00, 0x00, 0x00, 0x00, 0x00,
   0x00, 0x00, 0x00, 0x00, 0x00, 0x00, 0x00, 0x00, 0x00, 0x00, 0x00, 0x00,
   0x00, 0x00, 0x00, 0x00, 0x00, 0x00, 0x00, 0x00, 0x00, 0x00, 0x00, 0x00,
   0x00, 0x00, 0x00, 0x00, 0x00, 0x00, 0x00, 0x00, 0x00, 0x00, 0x00, 0x00,
   0x00, 0x00, 0x00, 0x00, 0x00, 0x00, 0x00, 0x00, 0x00, 0x00, 0x00, 0x00,
   0x00, 0x00, 0x00, 0x00, 0x00, 0x00, 0x00, 0x00, 0x00, 0x00, 0x00, 0x00 };
