#define cat_2_6_width 232
#define cat_2_6_height 128
static unsigned char cat_2_6_bits[] = {
   0x00, 0x00, 0x00, 0x00, 0x00, 0x00, 0x00, 0x00, 0x00, 0xa0, 0x2a, 0x48,
   0x24, 0x01, 0x00, 0x00, 0x00, 0x00, 0x00, 0x00, 0x00, 0x00, 0x00, 0x00,
   0x00, 0x00, 0x00, 0x00, 0x00, 0x00, 0x00, 0x00, 0x00, 0x00, 0x00, 0x00,
   0x00, 0x00, 0xa0, 0xa5, 0x22, 0x25, 0x02, 0x00, 0x00, 0x00, 0x00, 0x00,
   0x00, 0x00, 0x00, 0x00, 0x00, 0x00, 0x00, 0x00, 0x00, 0x00, 0x00, 0x00,
   0x00, 0x00, 0x00, 0x00, 0x00, 0x00, 0x00, 0x68, 0x15, 0x94, 0x54, 0x04,
   0x00, 0x00, 0x00, 0x00, 0x00, 0x00, 0x00, 0x00, 0x00, 0x00, 0x00, 0x00,
   0x00, 0x00, 0x00, 0x00, 0x00, 0x00, 0x00, 0x00, 0x00, 0x00, 0x00, 0x00,
   0x48, 0xd5, 0x80, 0x44, 0x09, 0x00, 0x00, 0x00, 0x00, 0x00, 0x00, 0x00,
   0x00, 0x00, 0x00, 0x00, 0x00, 0x00, 0x00, 0x00, 0x00, 0x00, 0x00, 0x00,
   0x00, 0x00, 0x00, 0x00, 0x00, 0xa8, 0x15, 0x55, 0x58, 0x11, 0x00, 0x00,
   0x00, 0x00, 0x00, 0x00, 0x00, 0x00, 0x00, 0x00, 0x00, 0x00, 0x00, 0x00,
   0x00, 0x00, 0x00, 0x00, 0x00, 0x00, 0x00, 0x00, 0x00, 0x00, 0xa8, 0x2a,
   0x81, 0x92, 0x26, 0x00, 0x00, 0x00, 0x00, 0x00, 0x00, 0x00, 0x00, 0x00,
   0x00, 0x00, 0x00, 0x00, 0x00, 0x00, 0x00, 0x00, 0x00, 0x00, 0x00, 0x00,
   0x00, 0x00, 0x00, 0xa0, 0x8a, 0x14, 0x20, 0x49, 0x00, 0x00, 0x00, 0x00,
   0x00, 0x00, 0x00, 0x00, 0x00, 0x00, 0x00, 0x00, 0x00, 0x00, 0x00, 0x00,
   0x00, 0x00, 0x00, 0x00, 0x00, 0x00, 0x00, 0x00, 0x58, 0x29, 0xa0, 0x0a,
   0x95, 0x00, 0x00, 0x00, 0x00, 0x00, 0x00, 0x00, 0x00, 0x00, 0x00, 0x00,
   0x00, 0x00, 0x00, 0x00, 0x00, 0x00, 0x00, 0x00, 0x00, 0x00, 0x00, 0x00,
   0x00, 0xc8, 0x92, 0x02, 0xa0, 0x14, 0x01, 0x00, 0x00, 0x00, 0x00, 0x00,
   0x00, 0x00, 0x00, 0x00, 0x00, 0x00, 0x00, 0x00, 0x00, 0x00, 0x00, 0x00,
   0x00, 0x00, 0x00, 0x00, 0x00, 0x00, 0x90, 0xa4, 0x48, 0x05, 0x75, 0x02,
   0x00, 0x00, 0x00, 0x00, 0x00, 0x00, 0x00, 0x00, 0x00, 0x00, 0x00, 0x00,
   0x00, 0x00, 0x00, 0x00, 0x00, 0x00, 0x00, 0x00, 0x00, 0x00, 0x00, 0x60,
   0x11, 0x02, 0x10, 0x80, 0x00, 0x00, 0x00, 0x00, 0x00, 0x00, 0x00, 0x00,
   0x00, 0x00, 0x00, 0x00, 0x50, 0x68, 0x00, 0x00, 0x00, 0x00, 0x00, 0x00,
   0x00, 0x00, 0x00, 0x00, 0x40, 0x45, 0x48, 0xa2, 0x54, 0x29, 0x00, 0x00,
   0x00, 0x00, 0x00, 0x00, 0x00, 0x00, 0x00, 0x00, 0x00, 0x80, 0x00, 0x00,
   0x00, 0x00, 0x00, 0x00, 0x00, 0x00, 0x00, 0x00, 0x00, 0x50, 0x10, 0x05,
   0x08, 0xaa, 0x52, 0x01, 0x00, 0x00, 0x00, 0x00, 0x00, 0x00, 0x00, 0x00,
   0x00, 0x80, 0x00, 0x92, 0x00, 0x00, 0x00, 0x00, 0x00, 0x00, 0x00, 0x00,
   0x00, 0x00, 0xc0, 0x22, 0x10, 0x81, 0x40, 0x42, 0xb4, 0x03, 0x00, 0x00,
   0x00, 0x00, 0x00, 0x00, 0x00, 0x00, 0x00, 0x50, 0x25, 0x02, 0x00, 0x00,
   0x00, 0x00, 0x00, 0x00, 0x00, 0x00, 0x00, 0x80, 0x84, 0x44, 0x28, 0xaa,
   0x2a, 0x51, 0xea, 0x02, 0x00, 0x00, 0x00, 0x00, 0x00, 0x00, 0x00, 0x00,
   0x95, 0x4a, 0x01, 0x00, 0x00, 0x00, 0x00, 0x00, 0x00, 0x00, 0x00, 0x00,
   0x20, 0x11, 0x01, 0x80, 0xa4, 0x85, 0xa0, 0xbc, 0x1a, 0x00, 0x00, 0x00,
   0x00, 0x00, 0x00, 0x00, 0x26, 0x95, 0x54, 0x01, 0x00, 0x00, 0x00, 0x00,
   0x00, 0x00, 0x00, 0x00, 0x00, 0xa0, 0x4a, 0x94, 0x54, 0x52, 0x95, 0x2a,
   0x6a, 0x29, 0x00, 0x00, 0x00, 0x00, 0x00, 0x00, 0x80, 0x90, 0x20, 0x09,
   0x02, 0x00, 0x00, 0x00, 0x00, 0x00, 0x00, 0x00, 0x00, 0x00, 0x00, 0x89,
   0x00, 0x80, 0x02, 0x15, 0xa9, 0xd4, 0x22, 0x00, 0x00, 0x00, 0x00, 0x00,
   0x00, 0x20, 0x50, 0x25, 0xb5, 0x00, 0x00, 0x00, 0x00, 0x00, 0x00, 0x00,
   0x00, 0x00, 0x00, 0x80, 0x14, 0x55, 0x55, 0x54, 0x0a, 0x56, 0xb5, 0x14,
   0x00, 0x00, 0x00, 0x00, 0x00, 0x00, 0x08, 0x85, 0x44, 0x52, 0x02, 0x00,
   0x00, 0x00, 0x00, 0x00, 0x00, 0x00, 0x00, 0x00, 0x80, 0x62, 0x10, 0x00,
   0xc1, 0x5a, 0x14, 0xb8, 0x98, 0x05, 0x50, 0x05, 0x00, 0x00, 0x00, 0x80,
   0x14, 0x89, 0x54, 0x00, 0x00, 0x00, 0x00, 0x00, 0x00, 0x00, 0x00, 0x00,
   0x00, 0x40, 0x8a, 0x45, 0x25, 0x2c, 0x25, 0x89, 0x64, 0x6a, 0xda, 0x15,
   0x0d, 0x00, 0x00, 0x00, 0x59, 0x42, 0x24, 0xaa, 0x02, 0x00, 0x00, 0x00,
   0x00, 0x00, 0x00, 0x00, 0x00, 0x00, 0x40, 0x12, 0x09, 0x80, 0xc8, 0x56,
   0x12, 0xe4, 0xa4, 0x12, 0x55, 0xca, 0x0d, 0x00, 0x00, 0x12, 0x94, 0x88,
   0xaa, 0x00, 0x00, 0x00, 0x00, 0x00, 0x00, 0x00, 0x00, 0x00, 0x00, 0x00,
   0x49, 0x22, 0x2a, 0x51, 0x49, 0x41, 0x69, 0x59, 0x37, 0x17, 0xbd, 0x08,
   0x0b, 0x08, 0x49, 0x01, 0x52, 0x6a, 0x02, 0x00, 0x00, 0x00, 0x00, 0x00,
   0x00, 0x00, 0x00, 0x00, 0x00, 0x42, 0x84, 0x24, 0x05, 0x0a, 0x14, 0x79,
   0xd0, 0x6d, 0x54, 0x6a, 0x69, 0x20, 0x42, 0x11, 0x52, 0x42, 0xad, 0x00,
   0x00, 0x00, 0x00, 0x00, 0x00, 0x00, 0x00, 0x00, 0x00, 0x80, 0x14, 0x51,
   0x55, 0x50, 0x50, 0x61, 0x76, 0xb2, 0x5a, 0x21, 0x5d, 0x14, 0xa5, 0x28,
   0x42, 0x08, 0x55, 0x5b, 0x01, 0x00, 0x00, 0x00, 0x00, 0x00, 0x00, 0x00,
   0x00, 0x00, 0xc0, 0x15, 0x02, 0x4d, 0x80, 0x02, 0x44, 0x7c, 0xb2, 0x52,
   0x26, 0xab, 0x28, 0x20, 0xa0, 0x08, 0x21, 0x50, 0x36, 0x01, 0x00, 0x00,
   0x00, 0x00, 0x00, 0x00, 0x00, 0x00, 0x00, 0x80, 0xa6, 0x34, 0x20, 0x21,
   0x54, 0x11, 0x77, 0x78, 0xcc, 0xc3, 0x25, 0x95, 0x04, 0x15, 0x22, 0x12,
   0xa5, 0xaa, 0x00, 0x00, 0x00, 0x00, 0x00, 0x00, 0x00, 0x00, 0x00, 0x00,
   0x40, 0x45, 0xa5, 0x04, 0x04, 0x11, 0x20, 0x7e, 0xe1, 0x4b, 0x85, 0x21,
   0x90, 0x00, 0x45, 0x40, 0x20, 0x50, 0xad, 0x00, 0x00, 0x00, 0x00, 0x00,
   0x00, 0x00, 0x00, 0x00, 0x00, 0xc0, 0x50, 0x15, 0x90, 0x50, 0xa4, 0x8a,
   0x6e, 0x52, 0xaf, 0xd1, 0x05, 0xa5, 0x50, 0x29, 0x25, 0x85, 0xaa, 0x2a,
   0x00, 0x00, 0x00, 0x00, 0x00, 0x00, 0x00, 0x00, 0x00, 0x00, 0x80, 0x43,
   0xd5, 0x00, 0x42, 0x49, 0x91, 0xfc, 0xd2, 0xba, 0xc3, 0x2b, 0x28, 0x21,
   0x03, 0x04, 0x10, 0x50, 0x5d, 0x00, 0x00, 0x00, 0x00, 0x00, 0x00, 0x00,
   0x00, 0x00, 0x00, 0x40, 0xa8, 0x0a, 0x51, 0x09, 0x24, 0x02, 0x5e, 0xc8,
   0x77, 0xe9, 0x02, 0x02, 0x54, 0x55, 0x51, 0x82, 0x44, 0x13, 0x00, 0x00,
   0x00, 0x00, 0x00, 0x00, 0x00, 0x00, 0x00, 0x00, 0xc0, 0x81, 0x15, 0x00,
   0xa0, 0x40, 0x48, 0x15, 0xc1, 0xde, 0xea, 0x57, 0xa8, 0x50, 0x41, 0x04,
   0x80, 0x88, 0x2a, 0x00, 0x00, 0x00, 0x00, 0x00, 0x00, 0x00, 0x00, 0x00,
   0x00, 0x40, 0x51, 0x2a, 0x52, 0x15, 0x15, 0x25, 0x95, 0xd4, 0x5d, 0xe8,
   0x53, 0x02, 0x29, 0x8a, 0x52, 0x29, 0x52, 0x27, 0x00, 0x00, 0x00, 0x00,
   0x00, 0x00, 0x00, 0x00, 0x00, 0x00, 0x40, 0x01, 0x05, 0x00, 0x04, 0x20,
   0x01, 0x2a, 0xa0, 0x59, 0xb9, 0x87, 0x54, 0xea, 0x10, 0x22, 0x02, 0x82,
   0x14, 0x00, 0x00, 0x00, 0x00, 0x00, 0x00, 0x00, 0x00, 0x00, 0x00, 0xc0,
   0x54, 0x4a, 0x42, 0x10, 0x08, 0xaa, 0x2e, 0x6d, 0x87, 0xf4, 0x2e, 0x00,
   0x15, 0x41, 0x44, 0x55, 0xa8, 0x0a, 0x00, 0x00, 0x00, 0x00, 0x00, 0x00,
   0x00, 0x00, 0x00, 0x00, 0x80, 0x91, 0x04, 0x88, 0x20, 0x41, 0x00, 0x1c,
   0xcd, 0x16, 0xf9, 0x4d, 0x55, 0x68, 0x8a, 0x10, 0x90, 0x42, 0x03, 0x00,
   0x00, 0x00, 0x00, 0x00, 0x00, 0x00, 0x00, 0x00, 0x00, 0x80, 0xa2, 0x8a,
   0x00, 0x02, 0x08, 0x22, 0x57, 0x78, 0x05, 0xda, 0x2a, 0x80, 0x52, 0x11,
   0x4a, 0x25, 0x5a, 0x05, 0x00, 0x00, 0x00, 0x00, 0x00, 0x00, 0x00, 0x00,
   0x00, 0x00, 0x00, 0x46, 0x11, 0x12, 0x00, 0x41, 0x04, 0x36, 0xd8, 0x5e,
   0xd8, 0x41, 0x15, 0x02, 0xa5, 0x00, 0xa0, 0x50, 0x02, 0x00, 0x00, 0x00,
   0x00, 0x00, 0x00, 0x00, 0x00, 0x00, 0x00, 0x00, 0x81, 0x04, 0x00, 0x04,
   0x08, 0x20, 0x72, 0xba, 0x0d, 0x3e, 0x94, 0xa0, 0x08, 0x50, 0x2b, 0x45,
   0xad, 0x00, 0x00, 0x00, 0x00, 0x00, 0x00, 0x00, 0x00, 0x00, 0x00, 0x00,
   0x00, 0x06, 0x91, 0x22, 0x20, 0x91, 0x44, 0x60, 0x74, 0x1f, 0x74, 0x81,
   0x0a, 0x29, 0x44, 0x22, 0x8a, 0xaa, 0x00, 0x00, 0x00, 0x00, 0x00, 0x00,
   0x00, 0x00, 0x00, 0x00, 0x00, 0x00, 0x48, 0x01, 0x00, 0x00, 0x00, 0x00,
   0x62, 0x2c, 0x4b, 0x1e, 0x44, 0x54, 0x84, 0x90, 0x84, 0x34, 0xb5, 0x00,
   0x00, 0x00, 0x00, 0x00, 0x00, 0x00, 0x00, 0x00, 0x00, 0x00, 0x00, 0x0c,
   0x00, 0x40, 0x44, 0x22, 0x15, 0xe0, 0x6c, 0x4a, 0xab, 0x88, 0x50, 0x29,
   0xb2, 0x35, 0x65, 0x15, 0x00, 0x00, 0x00, 0x00, 0x00, 0x00, 0x00, 0x00,
   0x00, 0x00, 0x00, 0x00, 0xa4, 0x48, 0x04, 0x90, 0x08, 0x40, 0xd0, 0x94,
   0xc3, 0x25, 0x20, 0x85, 0x52, 0x00, 0x8a, 0x94, 0x2a, 0x00, 0x00, 0x00,
   0x00, 0x00, 0x00, 0x00, 0x00, 0x00, 0x00, 0x00, 0x00, 0x04, 0x00, 0x00,
   0x20, 0x01, 0x09, 0xc0, 0x2c, 0xa7, 0x85, 0x44, 0x54, 0x4a, 0xd5, 0x94,
   0x28, 0x25, 0x00, 0x00, 0x00, 0x00, 0x00, 0x00, 0x00, 0x00, 0x00, 0x00,
   0x00, 0x00, 0x82, 0x10, 0x10, 0x80, 0x12, 0x00, 0xa0, 0x54, 0xf1, 0x20,
   0x10, 0x11, 0x51, 0x00, 0xa9, 0x4a, 0x05, 0x00, 0x00, 0x00, 0x00, 0x00,
   0x00, 0x00, 0x00, 0x00, 0x00, 0x00, 0x00, 0x09, 0x81, 0x00, 0x04, 0x82,
   0xa4, 0xc0, 0x6c, 0xe1, 0x40, 0x21, 0x44, 0x04, 0x15, 0x42, 0x4b, 0x15,
   0x00, 0x00, 0x00, 0x00, 0x00, 0x00, 0x00, 0x00, 0x00, 0x00, 0x00, 0x00,
   0x00, 0x00, 0x40, 0x20, 0x0a, 0x12, 0x70, 0xb6, 0x3c, 0x02, 0x94, 0x92,
   0x52, 0x02, 0x54, 0xad, 0x07, 0x00, 0x00, 0x00, 0x00, 0x00, 0x00, 0x00,
   0x00, 0x00, 0x00, 0x00, 0xa0, 0x40, 0x04, 0x01, 0x00, 0x00, 0x04, 0xe0,
   0xd6, 0x28, 0xd0, 0x00, 0x10, 0xa2, 0xa4, 0x54, 0x55, 0x13, 0x00, 0x00,
   0x00, 0x00, 0x00, 0x00, 0x00, 0x00, 0x00, 0x00, 0x00, 0x20, 0x10, 0x20,
   0x00, 0x40, 0x0a, 0x09, 0x60, 0x5d, 0x1d, 0x24, 0x92, 0x42, 0x08, 0x09,
   0x68, 0xab, 0x1e, 0x00, 0x00, 0x00, 0x00, 0x00, 0x00, 0x00, 0x00, 0x00,
   0x00, 0x00, 0x08, 0x80, 0x00, 0x00, 0x04, 0x00, 0x28, 0xe0, 0x6f, 0x59,
   0x20, 0x21, 0x14, 0x22, 0xa1, 0x50, 0xad, 0x14, 0x00, 0x00, 0x00, 0x00,
   0x00, 0x00, 0x00, 0x00, 0x00, 0x00, 0x00, 0x88, 0x24, 0x00, 0x44, 0x20,
   0x24, 0x01, 0xe4, 0xbe, 0x0d, 0x88, 0x80, 0xa0, 0x88, 0x14, 0xb2, 0x2a,
   0x05, 0x00, 0x00, 0x00, 0x00, 0x00, 0x00, 0x00, 0x00, 0x00, 0x00, 0x00,
   0x04, 0x00, 0x41, 0x00, 0x00, 0x00, 0x0a, 0xc0, 0xb5, 0x1f, 0x20, 0x94,
   0x0a, 0x10, 0x41, 0xa2, 0x2a, 0x0e, 0x00, 0x00, 0x00, 0x00, 0x00, 0x00,
   0x00, 0x00, 0x00, 0x00, 0x00, 0x12, 0x09, 0x08, 0x44, 0x4a, 0x00, 0x10,
   0x68, 0xd5, 0x46, 0x88, 0x42, 0x95, 0x48, 0x14, 0xa8, 0x42, 0x05, 0x00,
   0x00, 0x00, 0x00, 0x00, 0x00, 0x00, 0x00, 0x00, 0x00, 0x00, 0x01, 0x52,
   0x40, 0xa0, 0xdf, 0x82, 0x42, 0xa0, 0xaa, 0x0f, 0x28, 0x40, 0x15, 0x81,
   0xa2, 0x20, 0x95, 0x0e, 0x00, 0x00, 0x00, 0x00, 0x00, 0x00, 0x00, 0x00,
   0x00, 0x00, 0x00, 0x11, 0x14, 0xbd, 0xd4, 0xff, 0x0b, 0x08, 0x54, 0x55,
   0x8b, 0x80, 0x90, 0x22, 0x24, 0x04, 0xa9, 0x94, 0x02, 0x00, 0x00, 0x00,
   0x00, 0x00, 0x00, 0x00, 0x00, 0x00, 0x00, 0x80, 0x82, 0x24, 0xfa, 0xf1,
   0xe6, 0x1f, 0x41, 0x40, 0x12, 0x0b, 0x28, 0x42, 0x48, 0x80, 0x28, 0x21,
   0x85, 0x03, 0x00, 0x00, 0x00, 0x00, 0x00, 0x00, 0x00, 0x00, 0x80, 0x00,
   0x80, 0x10, 0x8b, 0xbe, 0xe4, 0x75, 0x3f, 0x10, 0x89, 0xaa, 0x22, 0x42,
   0x90, 0x02, 0x04, 0x42, 0x54, 0x62, 0x02, 0x00, 0x00, 0x00, 0x00, 0x00,
   0x00, 0x00, 0x00, 0x00, 0x00, 0x80, 0x20, 0x94, 0x7b, 0xa1, 0xed, 0xff,
   0x00, 0x10, 0x44, 0x06, 0x10, 0x10, 0x48, 0x48, 0x08, 0x81, 0xe4, 0x01,
   0x00, 0x00, 0x00, 0x00, 0x00, 0x00, 0x00, 0x00, 0x00, 0x00, 0x40, 0x42,
   0xa3, 0x2e, 0x64, 0xf2, 0x78, 0x41, 0x45, 0x29, 0x91, 0x4a, 0x42, 0x01,
   0x00, 0x25, 0x54, 0xb0, 0x00, 0x00, 0x00, 0x00, 0x00, 0x00, 0x00, 0x00,
   0x00, 0x80, 0x04, 0x40, 0x48, 0xd4, 0xaf, 0xc0, 0xc8, 0xe9, 0x01, 0x08,
   0x22, 0x03, 0x00, 0x00, 0x14, 0x11, 0x84, 0xa0, 0x28, 0x00, 0x00, 0x00,
   0x00, 0x00, 0x00, 0x00, 0x00, 0x00, 0x80, 0x00, 0x40, 0x02, 0xf5, 0x0a,
   0x30, 0xf5, 0xef, 0x81, 0xa2, 0xa8, 0x2a, 0x25, 0x44, 0x00, 0x44, 0x10,
   0x12, 0x0a, 0x00, 0x00, 0x00, 0x00, 0x00, 0x00, 0x00, 0x00, 0x00, 0x80,
   0x08, 0x40, 0x24, 0xfd, 0x0b, 0x60, 0x64, 0x8f, 0x07, 0x04, 0x02, 0x02,
   0x80, 0x90, 0x49, 0x80, 0x42, 0x60, 0x04, 0x00, 0x00, 0x00, 0x00, 0x00,
   0x00, 0x00, 0x00, 0x00, 0x00, 0x00, 0x20, 0x00, 0x6e, 0x05, 0x61, 0xe8,
   0x57, 0x03, 0xa0, 0xa8, 0x2a, 0x40, 0xff, 0x0b, 0x20, 0x08, 0x01, 0x05,
   0x00, 0x00, 0x00, 0x00, 0x00, 0x00, 0x00, 0x00, 0x00, 0x00, 0x00, 0xa0,
   0x48, 0xdd, 0x0b, 0xc0, 0xd4, 0x8e, 0x06, 0x05, 0x02, 0x05, 0xa4, 0xff,
   0xbf, 0x82, 0x20, 0x4a, 0x08, 0x00, 0x00, 0x00, 0x00, 0x00, 0x00, 0x00,
   0x00, 0x00, 0x00, 0x10, 0x20, 0xa2, 0xaf, 0x00, 0x60, 0xe8, 0x13, 0x07,
   0x40, 0xa8, 0x14, 0xf8, 0xb7, 0x3f, 0x08, 0x02, 0x80, 0x06, 0x00, 0x00,
   0x00, 0x00, 0x00, 0x00, 0x00, 0x00, 0x00, 0x00, 0x20, 0x40, 0xc4, 0xba,
   0x43, 0xc2, 0xd1, 0x57, 0x0e, 0x04, 0x01, 0x42, 0xe8, 0x7e, 0xfb, 0x21,
   0x48, 0x09, 0x0e, 0x00, 0x00, 0x00, 0x00, 0x00, 0x00, 0x00, 0x00, 0x00,
   0x00, 0x01, 0x20, 0x79, 0x91, 0x08, 0x80, 0xd4, 0x90, 0x06, 0x00, 0x88,
   0x08, 0x3e, 0xf3, 0x7d, 0x81, 0x02, 0x24, 0x01, 0x00, 0x00, 0x00, 0x00,
   0x00, 0x00, 0x00, 0x00, 0x00, 0x00, 0x40, 0x20, 0xe2, 0x12, 0x82, 0x84,
   0xa1, 0x93, 0x0e, 0x20, 0x10, 0x01, 0x2c, 0xa2, 0xea, 0x15, 0x10, 0x01,
   0x0e, 0x00, 0x00, 0x00, 0x00, 0x00, 0x00, 0x00, 0x00, 0x00, 0x00, 0x82,
   0x90, 0x5c, 0x4a, 0x52, 0x0a, 0x43, 0xa0, 0x03, 0x04, 0x02, 0x80, 0x43,
   0x7f, 0xe9, 0x00, 0x41, 0x4c, 0x08, 0x00, 0x00, 0x00, 0x00, 0x00, 0x00,
   0x00, 0x00, 0x00, 0x00, 0x00, 0x20, 0x5d, 0x10, 0x44, 0x28, 0x0e, 0x4a,
   0x0f, 0x00, 0x40, 0x00, 0x0f, 0x7e, 0xc9, 0x4b, 0x0a, 0x09, 0x08, 0x00,
   0x00, 0x00, 0x00, 0x00, 0x00, 0x00, 0x00, 0x00, 0x00, 0x04, 0x91, 0x27,
   0x45, 0xa2, 0x22, 0xfc, 0xf8, 0x07, 0x00, 0x00, 0x80, 0xa1, 0x6e, 0xa2,
   0xa0, 0x57, 0x24, 0x09, 0x00, 0x00, 0x00, 0x00, 0x00, 0x00, 0x00, 0x00,
   0x00, 0x00, 0x08, 0xa2, 0x2e, 0x50, 0x00, 0x4c, 0xc0, 0xd7, 0x0e, 0x20,
   0x88, 0x80, 0x17, 0xfd, 0xa8, 0xe8, 0x8e, 0x08, 0x10, 0x00, 0x00, 0x00,
   0x00, 0x00, 0x00, 0x00, 0x00, 0x00, 0x00, 0x08, 0x94, 0x8b, 0x14, 0x52,
   0x12, 0x01, 0x40, 0x03, 0x02, 0x21, 0xc0, 0xa3, 0x1e, 0x25, 0xd0, 0x17,
   0x52, 0x29, 0x00, 0x00, 0x00, 0x00, 0x00, 0x00, 0x00, 0x00, 0x00, 0x00,
   0x10, 0x28, 0x15, 0xf0, 0x40, 0x50, 0x04, 0x82, 0x0b, 0x00, 0x00, 0x40,
   0x0f, 0xba, 0xe0, 0x90, 0xaf, 0x2a, 0x28, 0x00, 0x00, 0x00, 0xfe, 0xff,
   0x01, 0x00, 0x00, 0x00, 0x00, 0x20, 0xd0, 0x95, 0x54, 0x81, 0x24, 0x11,
   0x00, 0x04, 0x20, 0x49, 0xe0, 0x53, 0x5d, 0x1a, 0x40, 0x1f, 0x49, 0x21,
   0x00, 0x00, 0x00, 0xee, 0xde, 0x3f, 0x00, 0x00, 0x00, 0x00, 0x40, 0x00,
   0x17, 0xaa, 0x8b, 0x08, 0x02, 0x40, 0x24, 0x02, 0x80, 0xc0, 0x17, 0x58,
   0x30, 0x02, 0x7b, 0x1a, 0x25, 0x00, 0x00, 0x00, 0xfc, 0x7b, 0xff, 0x3f,
   0x00, 0x00, 0x00, 0xc0, 0x50, 0xa5, 0x94, 0x06, 0x61, 0x15, 0x00, 0x01,
   0x00, 0x12, 0x74, 0xaf, 0x12, 0x1c, 0x40, 0x9f, 0x2a, 0x10, 0x00, 0x00,
   0x00, 0xde, 0xff, 0xdb, 0xff, 0x01, 0x00, 0x00, 0x00, 0xa1, 0x8a, 0x14,
   0x1d, 0x2d, 0x68, 0x41, 0x02, 0x20, 0x90, 0xe0, 0x3a, 0x82, 0x0a, 0x04,
   0xbd, 0xd2, 0x22, 0x00, 0x00, 0x00, 0xfe, 0x7b, 0x7f, 0xdb, 0xff, 0x1f,
   0x00, 0x00, 0x4a, 0x01, 0xaa, 0xb4, 0xc2, 0x12, 0x84, 0x88, 0x00, 0x40,
   0x94, 0xe8, 0xa8, 0x07, 0x00, 0x7f, 0x4a, 0x14, 0x00, 0x00, 0x00, 0x7a,
   0xef, 0xff, 0x7f, 0xef, 0xff, 0x00, 0x00, 0x5c, 0x4b, 0x14, 0xa0, 0x10,
   0x42, 0x91, 0x00, 0x04, 0x49, 0x90, 0x01, 0xff, 0x40, 0x50, 0xea, 0xab,
   0x50, 0x00, 0x00, 0x00, 0xee, 0x7f, 0x7b, 0xfb, 0xbd, 0xed, 0x03, 0x00,
   0x48, 0x05, 0x95, 0x50, 0xaa, 0x14, 0x04, 0x88, 0x20, 0x00, 0x15, 0x40,
   0x00, 0x00, 0x02, 0x7f, 0x57, 0x62, 0x00, 0x00, 0x00, 0xfe, 0xfd, 0xef,
   0xdf, 0xff, 0x5d, 0x1d, 0x00, 0x18, 0x15, 0x14, 0x82, 0x2e, 0x81, 0x10,
   0x00, 0x04, 0x29, 0x50, 0x00, 0x00, 0x40, 0x28, 0xfa, 0x5e, 0x4c, 0x00,
   0x00, 0x00, 0xda, 0x77, 0xfb, 0x7b, 0xdb, 0xbb, 0xeb, 0x00, 0x40, 0x46,
   0xaa, 0xa4, 0xa3, 0x24, 0x00, 0x50, 0x51, 0x24, 0x95, 0x00, 0x84, 0x9a,
   0xa4, 0xed, 0x57, 0x51, 0x00, 0x00, 0x00, 0x76, 0xff, 0x6f, 0xff, 0x7f,
   0x53, 0x5d, 0x00, 0x98, 0x94, 0x9c, 0x95, 0x94, 0x04, 0x00, 0x40, 0x8b,
   0x24, 0x20, 0x01, 0x28, 0x22, 0x89, 0xb8, 0x5f, 0x55, 0x00, 0x00, 0x00,
   0xea, 0xdb, 0xff, 0xfb, 0xf6, 0xad, 0x36, 0x01, 0x10, 0x45, 0xea, 0xff,
   0x3b, 0x00, 0x00, 0xf0, 0x6a, 0x95, 0x52, 0x44, 0x90, 0x44, 0x2d, 0xd5,
   0xaa, 0x4a, 0x00, 0x00, 0x00, 0x4a, 0xbf, 0xdd, 0xdf, 0x5f, 0xa9, 0xf6,
   0x05, 0x30, 0x5c, 0xbd, 0xb5, 0xdf, 0x00, 0x00, 0xc0, 0xaf, 0x3e, 0x40,
   0x89, 0x92, 0x14, 0x21, 0x68, 0xb5, 0x5a, 0x00, 0x00, 0x00, 0xb6, 0xfd,
   0x7f, 0xf7, 0xbb, 0xd4, 0xbb, 0x27, 0x8c, 0xea, 0xe3, 0xef, 0x12, 0x22,
   0x00, 0x78, 0xf5, 0x2b, 0x00, 0x20, 0x22, 0xa1, 0x84, 0x9f, 0x5c, 0x54,
   0x00, 0x00, 0x00, 0xaa, 0x77, 0xf7, 0xbf, 0x57, 0x29, 0xf7, 0xd6, 0x19,
   0x5a, 0x0f, 0xb8, 0x5a, 0x00, 0x02, 0xe0, 0x4d, 0x5f, 0x01, 0x4a, 0x4d,
   0x16, 0x25, 0x32, 0x69, 0x5d, 0x00, 0x00, 0x00, 0xfa, 0xfe, 0xff, 0xfe,
   0x57, 0xed, 0xdf, 0x95, 0x4e, 0xaa, 0xfa, 0xd3, 0x25, 0x00, 0x00, 0xe0,
   0xab, 0x5d, 0x00, 0x20, 0x91, 0x44, 0xb0, 0x6f, 0xf4, 0x35, 0x00, 0x00,
   0x00, 0xc2, 0xb7, 0xed, 0xf7, 0xad, 0x5a, 0xbd, 0xd7, 0x5d, 0xa8, 0x4a,
   0xaa, 0x0d, 0x00, 0x00, 0x00, 0xb7, 0x3f, 0x20, 0x48, 0xaa, 0x54, 0x62,
   0xdf, 0x54, 0x6b, 0x00, 0x00, 0x00, 0xb4, 0xfd, 0xff, 0xbf, 0x96, 0xfe,
   0x7f, 0x55, 0x2f, 0x55, 0xb0, 0xa1, 0x01, 0x00, 0x00, 0x80, 0xed, 0x0b,
   0x00, 0x40, 0x25, 0x11, 0xdd, 0x29, 0xe9, 0x57, 0x00, 0x00, 0x00, 0xa4,
   0xb7, 0xde, 0xfe, 0xab, 0xfa, 0x6d, 0xe9, 0x3e, 0xa8, 0x65, 0x0b, 0x2f,
   0x08, 0x00, 0x00, 0x57, 0x0b, 0x00, 0x00, 0x48, 0x22, 0x19, 0xbb, 0xe8,
   0x5e, 0x00, 0x00, 0x00, 0x52, 0xff, 0xfb, 0x77, 0x6d, 0xdf, 0x5f, 0xf5,
   0x5f, 0xa0, 0xa4, 0xa4, 0x00, 0x40, 0x04, 0x00, 0xdd, 0x00, 0x80, 0x44,
   0xb5, 0xca, 0x46, 0x29, 0xa9, 0x6b, 0x00, 0x00, 0x00, 0xd4, 0xad, 0xfe,
   0xef, 0xda, 0x7f, 0xbf, 0xda, 0xaa, 0xa4, 0x4a, 0x05, 0x05, 0x00, 0x20,
   0x00, 0xfb, 0x01, 0x08, 0x00, 0x40, 0xdb, 0x14, 0x2a, 0xd1, 0x5f, 0x00,
   0x01, 0x00, 0xa4, 0xfe, 0xb7, 0xbf, 0xd5, 0xfe, 0x55, 0x7f, 0x3f, 0x50,
   0xb5, 0xa8, 0x2a, 0x00, 0x00, 0x00, 0x5e, 0x00, 0x80, 0x88, 0x6a, 0x25,
   0x42, 0x99, 0x40, 0x0b, 0x00, 0x00, 0x00, 0xaa, 0xab, 0xfe, 0xbd, 0xd5,
   0xed, 0x57, 0xd5, 0x7f, 0x41, 0x25, 0x81, 0x02, 0x00, 0x00, 0x00, 0x7c,
   0x40, 0x00, 0x10, 0x94, 0xae, 0x24, 0x25, 0x55, 0x1f, 0x00, 0x00, 0x00,
   0x54, 0xd5, 0xbf, 0x6f, 0xf5, 0xbf, 0xab, 0xfe, 0x76, 0x50, 0x4b, 0x15,
   0x00, 0x40, 0x00, 0x92, 0x16, 0x04, 0x00, 0x40, 0x50, 0xbb, 0xea, 0x0d,
   0xf0, 0x15, 0x00, 0x00, 0x00, 0x54, 0xab, 0xf6, 0xaf, 0xda, 0xff, 0x95,
   0xdd, 0xff, 0x42, 0x16, 0x2a, 0x95, 0x0a, 0x22, 0x40, 0xac, 0x00, 0x88,
   0x00, 0xa1, 0xfe, 0xbf, 0x5f, 0x40, 0x1f, 0x00, 0x00, 0x00, 0xba, 0xd6,
   0x7f, 0x5f, 0x7d, 0xab, 0x62, 0x7f, 0x6f, 0x80, 0x50, 0x52, 0x50, 0x80,
   0x00, 0x88, 0x1f, 0x00, 0x21, 0x04, 0xa8, 0xb5, 0xfd, 0x16, 0xb5, 0x15,
   0x00, 0x00, 0x00, 0xd2, 0x54, 0xfd, 0xbd, 0xf5, 0xef, 0x8b, 0xed, 0xfd,
   0x13, 0x56, 0x8a, 0x8a, 0x0a, 0x00, 0x21, 0xea, 0x0a, 0x80, 0x00, 0xa0,
   0xaa, 0xd7, 0x7d, 0x60, 0x0f, 0x00, 0x20, 0x00, 0xac, 0xd2, 0xef, 0x57,
   0xff, 0x55, 0xb5, 0xbf, 0x6f, 0x41, 0x55, 0x21, 0x11, 0x00, 0x08, 0xd4,
   0x1e, 0x00, 0x00, 0x54, 0xd4, 0xf5, 0xad, 0x9a, 0xda, 0x0a, 0x00, 0x10,
   0x00, 0x6a, 0x55, 0xbf, 0xdf, 0xab, 0xaf, 0x44, 0x7b, 0x7f, 0x05, 0xb4,
   0x82, 0x42, 0x48, 0x41, 0x90, 0x72, 0x95, 0x00, 0x00, 0x29, 0xbf, 0xbf,
   0xba, 0x5a, 0x0f, 0x00, 0x08, 0x00, 0xba, 0xe0, 0xfd, 0x55, 0xf7, 0x2a,
   0xb2, 0xff, 0x9d, 0xaa, 0x28, 0x14, 0xba, 0x2a, 0x12, 0x65, 0xaf, 0x00,
   0x10, 0x00, 0xd0, 0x65, 0xb5, 0xf5, 0xad, 0x04, 0x00, 0x02, 0x00, 0xb4,
   0x8a, 0xff, 0xeb, 0x6a, 0xab, 0x48, 0xaf, 0xaf, 0x0b, 0x88, 0x55, 0xa0,
   0x53, 0x20, 0xc8, 0xae, 0x15, 0x81, 0x04, 0x06, 0x8d, 0xb6, 0xd6, 0xff,
   0x01, 0x00, 0x01, 0x00, 0xb4, 0xb0, 0x5b, 0xd5, 0xbd, 0x4d, 0xd6, 0xfd,
   0x5a, 0x97, 0xa0, 0x02, 0xad, 0x28, 0x85, 0xbe, 0x5d, 0x02, 0x00, 0x28,
   0x58, 0x51, 0x74, 0x69, 0x5b, 0x0f, 0x20, 0x00, 0x00, 0x6a, 0x22, 0xff,
   0x5a, 0x6b, 0xbb, 0x90, 0xdb, 0x5a, 0x2e, 0x00, 0x34, 0x4a, 0x89, 0xb4,
   0xb5, 0xea, 0x24, 0x12, 0x91, 0x40, 0x8a, 0x40, 0xa9, 0x76, 0x3d, 0x0c,
   0x00, 0x00, 0x2e, 0xc1, 0xbd, 0xf4, 0x56, 0x4d, 0xd5, 0xbe, 0x46, 0x9d,
   0x2a, 0xc1, 0x3b, 0x76, 0xd5, 0x4a, 0xaa, 0x85, 0x40, 0x68, 0x12, 0x20,
   0x02, 0x40, 0xab, 0xd5, 0x00, 0x00, 0x00, 0x7a, 0x14, 0xf7, 0xd2, 0xae,
   0x59, 0x91, 0xd5, 0x1f, 0x5a, 0x04, 0x88, 0xb2, 0xea, 0x5b, 0x49, 0x90,
   0x2e, 0x09, 0xc1, 0x8a, 0x04, 0x94, 0x4a, 0x2a, 0x85, 0x01, 0x00, 0x00,
   0xac, 0xd1, 0x1f, 0xbd, 0x6a, 0xab, 0x62, 0xb7, 0xa5, 0xb3, 0x41, 0x62,
   0x4e, 0xb5, 0xb6, 0x04, 0x45, 0x55, 0x24, 0x04, 0x25, 0x50, 0x20, 0xb2,
   0xd5, 0x01, 0x02, 0x00, 0x00, 0x5a, 0x55, 0xbf, 0x74, 0xd7, 0x16, 0xca,
   0xb2, 0x0b, 0xea, 0x09, 0x00, 0xe0, 0xad, 0xad, 0x28, 0x00, 0xb5, 0x84,
   0x2d, 0x04, 0x42, 0x45, 0xa2, 0xad, 0x00, 0x0c, 0x00, 0x00, 0x96, 0xe8,
   0xbb, 0xfe, 0xd5, 0xf5, 0x64, 0x6d, 0xab, 0x3c, 0x27, 0x44, 0xd9, 0x6a,
   0x2b, 0x82, 0x4a, 0x54, 0x29, 0x5a, 0x53, 0x24, 0x10, 0x68, 0xab, 0x00,
   0x10, 0x00, 0x00, 0x2c, 0xd2, 0xbf, 0xb4, 0xb7, 0x85, 0x54, 0x9d, 0x03,
   0xb4, 0x0e, 0x00, 0xd0, 0xad, 0x4a, 0x10, 0x80, 0xa0, 0x53, 0xd5, 0x84,
   0xd4, 0xa2, 0x52, 0x55, 0x00, 0x20, 0x00, 0x00, 0x96, 0x74, 0xd7, 0xfa,
   0xae, 0x45, 0xba, 0xd7, 0x8a, 0xcb, 0xa3, 0x08, 0xaa, 0x57, 0xab, 0x8a,
   0x24, 0x4a, 0x6d, 0x6d, 0x11, 0x91, 0x04, 0xf4, 0x6a, 0x00, 0xc0, 0x00,
   0x00, 0x1e, 0xea, 0x5f, 0xff, 0xdd, 0x0a, 0x5a, 0xad, 0x2a, 0xd6, 0x56,
   0x21, 0xb0, 0x7e, 0x55, 0x95, 0x84, 0x48, 0xed, 0x5a, 0x25, 0x84, 0xa8,
   0x96, 0x49, 0x00, 0x80, 0x00, 0x00, 0x52, 0x7a, 0xab, 0xd5, 0x37, 0x51,
   0x6a, 0xd7, 0xa1, 0x38, 0x7d, 0x04, 0x2d, 0xdb, 0xab, 0x5a, 0x12, 0x01,
   0xd5, 0x96, 0xd0, 0x12, 0x04, 0x7d, 0x32, 0x00, 0x00, 0x02, 0x00, 0x8a,
   0xf4, 0xaf, 0xbf, 0x7e, 0x45, 0xda, 0x4a, 0x1b, 0x55, 0xfd, 0x0b, 0x80,
   0xfa, 0xde, 0x56, 0x55, 0x2b, 0x5d, 0xb5, 0x92, 0x80, 0xb0, 0xd9, 0x14,
   0x00, 0x00, 0x00, 0x00, 0x24, 0xde, 0xea, 0xf6, 0xab, 0x48, 0x6d, 0xd5,
   0x20, 0xaa, 0x96, 0xa7, 0x08, 0xff, 0xbb, 0x6d, 0xab, 0x4a, 0x52, 0x49,
   0x25, 0x12, 0x6a, 0x53, 0x15, 0x00, 0x00, 0x00, 0x00, 0x84, 0xf8, 0xaf,
   0xbf, 0x5e, 0x49, 0xad, 0x96, 0x4e, 0xae, 0xea, 0x37, 0x21, 0xd5, 0xff,
   0x6f, 0x55, 0x55, 0x55, 0xb5, 0xaa, 0x54, 0xca, 0x26, 0x05, 0x00, 0x00,
   0x00, 0x00, 0x94, 0x5e, 0xd5, 0xed, 0xab, 0xaa, 0x57, 0xad, 0x09, 0xd9,
   0x55, 0x7b, 0x81, 0x7a, 0x77, 0xbb, 0x6d, 0x5b, 0x55, 0xa9, 0x4a, 0xad,
   0xb2, 0x94, 0x1e, 0x00, 0x00, 0x00, 0x00, 0x92, 0xfa, 0xaf, 0x7f, 0x2b,
   0x48, 0xbd, 0x2d, 0x2b, 0x5b, 0xab, 0xea, 0x17, 0xa4, 0xfe, 0xff, 0x6f,
   0x6b, 0xaf, 0xaa, 0xba, 0xb3, 0x06, 0x11, 0x22, 0x00, 0x00, 0x00, 0x00,
   0x52, 0xff, 0xd2, 0xed, 0xd7, 0xb2, 0x57, 0xdb, 0x42, 0xec, 0x5b, 0xb9,
   0x6d, 0x49, 0x6a, 0x7b, 0xfb, 0xdf, 0x75, 0xd5, 0x57, 0x0a, 0x48, 0xc4,
   0x40, 0x00, 0x00, 0x00, 0x00, 0xa4, 0xed, 0x93, 0xdf, 0x96, 0xe4, 0xbd,
   0x44, 0xab, 0xf6, 0x6d, 0xe8, 0xfe, 0x5b, 0xed, 0xff, 0xdf, 0xba, 0xff,
   0xb5, 0xaa, 0x20, 0x01, 0x50, 0x83, 0x00, 0x00, 0x00, 0x00, 0xd4, 0xf7,
   0xf6, 0xf6, 0x54, 0xba, 0xa7, 0xaa, 0x09, 0xda, 0x96, 0x92, 0xda, 0xef,
   0xf7, 0xed, 0xff, 0xd7, 0xb7, 0xaa, 0x16, 0x02, 0x48, 0xc9, 0x02, 0x01,
   0x00, 0x00, 0x00, 0x74, 0xef, 0xd6, 0xff, 0xa5, 0xf6, 0x5e, 0x55, 0x55,
   0x78, 0xdf, 0x12, 0xb5, 0x5d, 0xac, 0xbf, 0xad, 0xb6, 0xfe, 0xeb, 0x6a,
   0x14, 0x01, 0x51, 0x0e, 0x02, 0x00, 0x00, 0x00, 0xe8, 0xff, 0xbd, 0xdd,
   0xaa, 0xba, 0x2b, 0xa9, 0x0a, 0xb5, 0xbf, 0xa5, 0xd6, 0xaf, 0xa9, 0xfa,
   0x76, 0xdb, 0x2a, 0xaa, 0x95, 0x00, 0xa4, 0x7a, 0x14, 0x04, 0x00, 0x00,
   0x00, 0xe8, 0xee, 0x75, 0xff, 0xaa, 0x7a, 0x4b, 0x52, 0x2e, 0x60, 0x3b,
   0x0d, 0x58, 0xbe, 0x55, 0xd5, 0xd6, 0xaa, 0xad, 0x20, 0x15, 0x21, 0xa4,
   0x66, 0x20, 0x08, 0x00, 0x00, 0x00, 0xf2, 0xbf, 0xff, 0xbb, 0x44, 0xfd,
   0xad, 0xac, 0xad, 0x94, 0xdf, 0x5b, 0x55, 0x7b, 0x57, 0xaa, 0x2a, 0x55,
   0x2a, 0x82, 0x14, 0x04, 0xa8, 0x1a, 0x40, 0x18, 0x00, 0x00, 0x00, 0xd4,
   0x7d, 0xd8, 0xb7, 0x5a, 0xb5, 0x57, 0x29, 0x77, 0xd0, 0xd7, 0x2b, 0x60,
   0xf5, 0x5e, 0x25, 0x55, 0x95, 0xd2, 0x14, 0x41, 0xa0, 0xda, 0xdd, 0x80,
   0x00, 0x00, 0x00, 0x00 };
