#define cat_1_44_width 128
#define cat_1_44_height 96
static unsigned char cat_1_44_bits[] = {
   0x00, 0x40, 0x88, 0x90, 0xa4, 0x40, 0x81, 0x22, 0x0f, 0xba, 0x8d, 0x4a,
   0x2d, 0x0d, 0x44, 0x28, 0x00, 0x90, 0x22, 0xaa, 0x0a, 0x0a, 0x2a, 0xcc,
   0x4e, 0x56, 0x2b, 0xa4, 0x8b, 0xa2, 0x14, 0x45, 0x00, 0xb8, 0x42, 0xa0,
   0x09, 0x50, 0x80, 0x88, 0x4f, 0x56, 0xca, 0x64, 0x15, 0x05, 0x04, 0x14,
   0x00, 0xd0, 0x94, 0x06, 0x24, 0x84, 0x2a, 0xe2, 0x0e, 0x8f, 0x79, 0xb8,
   0xa4, 0x92, 0xa0, 0x42, 0x00, 0xa8, 0xa8, 0x94, 0x80, 0x20, 0x02, 0xc4,
   0x2f, 0x7c, 0xa9, 0x30, 0x04, 0x12, 0xa0, 0x08, 0x00, 0x18, 0xaa, 0x02,
   0x12, 0x8a, 0x54, 0xd1, 0x4d, 0xea, 0x35, 0xba, 0xa0, 0x14, 0x2a, 0xa5,
   0x00, 0x70, 0xa8, 0x1a, 0x40, 0x28, 0x29, 0x92, 0x5f, 0x5a, 0x77, 0x78,
   0x05, 0x25, 0x64, 0x80, 0x00, 0x08, 0x55, 0x21, 0x2a, 0x81, 0x44, 0xc0,
   0x0b, 0xf9, 0x2e, 0x5d, 0x40, 0x80, 0xaa, 0x2a, 0x00, 0x38, 0xb0, 0x02,
   0x00, 0x14, 0x08, 0xa9, 0x22, 0xd8, 0x5b, 0xfd, 0x0a, 0x15, 0x2a, 0x88,
   0x00, 0x28, 0x4a, 0x45, 0xaa, 0xa2, 0xa2, 0xa4, 0x92, 0xba, 0x0b, 0x7d,
   0x4a, 0x20, 0x45, 0x51, 0x00, 0x28, 0xa0, 0x00, 0x80, 0x00, 0x24, 0x40,
   0x05, 0x34, 0x2b, 0xf7, 0x90, 0x4a, 0x1d, 0x42, 0x00, 0x98, 0x4a, 0x49,
   0x08, 0x02, 0x41, 0xd5, 0xa5, 0xed, 0x90, 0xde, 0x05, 0xa0, 0x22, 0x88,
   0x00, 0x30, 0x92, 0x00, 0x11, 0x24, 0x08, 0x80, 0xa3, 0xd9, 0x22, 0xbf,
   0xa9, 0x0a, 0x4d, 0x11, 0x00, 0x50, 0x54, 0x11, 0x40, 0x00, 0x41, 0xe4,
   0x0a, 0xaf, 0x40, 0x5b, 0x05, 0x50, 0x2a, 0x42, 0x00, 0xc0, 0x28, 0x42,
   0x02, 0x20, 0x88, 0xc0, 0x06, 0xdb, 0x0b, 0x3b, 0xa8, 0x42, 0xa0, 0x14,
   0x00, 0x20, 0x90, 0x00, 0x80, 0x00, 0x01, 0x44, 0x4e, 0xb7, 0xc1, 0x87,
   0x12, 0x14, 0x01, 0x6a, 0x00, 0xc0, 0x20, 0x52, 0x04, 0x24, 0x92, 0x08,
   0x8c, 0xee, 0x83, 0x2e, 0x50, 0x21, 0x85, 0x48, 0x00, 0x00, 0x29, 0x00,
   0x00, 0x00, 0x00, 0x40, 0x8c, 0x65, 0xc9, 0x83, 0x88, 0x8a, 0x10, 0x92,
   0x00, 0x80, 0x01, 0x00, 0x88, 0x48, 0xa4, 0x02, 0x9c, 0x4d, 0x69, 0x15,
   0x11, 0x2a, 0x45, 0xb6, 0x00, 0x80, 0x14, 0x89, 0x00, 0x12, 0x01, 0x08,
   0x9a, 0x72, 0xb8, 0x04, 0xa4, 0x50, 0x0a, 0x40, 0x00, 0x80, 0x00, 0x00,
   0x00, 0x24, 0x20, 0x01, 0x98, 0xe5, 0xb4, 0x90, 0x88, 0x4a, 0xa9, 0x9a,
   0x00, 0x40, 0x10, 0x02, 0x02, 0x50, 0x02, 0x00, 0x94, 0x2a, 0x1e, 0x04,
   0x22, 0x22, 0x0a, 0x20, 0x00, 0x20, 0x21, 0x10, 0x80, 0x40, 0x90, 0x14,
   0x98, 0x2d, 0x1c, 0x28, 0x84, 0x88, 0xa0, 0x42, 0x00, 0x00, 0x00, 0x00,
   0x08, 0x44, 0x41, 0x02, 0xce, 0x96, 0x47, 0x80, 0x52, 0x52, 0x4a, 0x80,
   0x00, 0x14, 0x88, 0x20, 0x00, 0x00, 0x80, 0x00, 0xdc, 0x1a, 0x05, 0x1a,
   0x00, 0x42, 0x94, 0x94, 0x00, 0x04, 0x02, 0x04, 0x00, 0x48, 0x21, 0x01,
   0xac, 0xab, 0x83, 0x44, 0x52, 0x08, 0x21, 0x01, 0x00, 0x01, 0x10, 0x00,
   0x80, 0x00, 0x00, 0x05, 0xfc, 0x2d, 0x0b, 0x24, 0x84, 0x42, 0x24, 0x14,
   0x00, 0x91, 0x04, 0x80, 0x08, 0x84, 0x24, 0x80, 0xdc, 0xb7, 0x01, 0x11,
   0x10, 0x14, 0x91, 0x42, 0x80, 0x00, 0x20, 0x08, 0x00, 0x00, 0x40, 0x01,
   0xb8, 0xf6, 0x03, 0x84, 0x52, 0x01, 0x22, 0x48, 0x40, 0x22, 0x01, 0x81,
   0x48, 0x09, 0x00, 0x02, 0xad, 0xda, 0x08, 0x51, 0xa8, 0x12, 0x89, 0x02,
   0x20, 0x40, 0x0a, 0x08, 0xf4, 0x5b, 0x50, 0x08, 0x54, 0xf5, 0x01, 0x05,
   0xa8, 0x22, 0x50, 0x14, 0x20, 0x82, 0xa2, 0x97, 0xfa, 0x7f, 0x01, 0x81,
   0xaa, 0x6a, 0x11, 0x10, 0x52, 0x84, 0x84, 0x20, 0x50, 0x90, 0x44, 0x3f,
   0xde, 0xfc, 0x23, 0x08, 0x48, 0x62, 0x01, 0x45, 0x08, 0x09, 0x10, 0x25,
   0x10, 0x62, 0xd1, 0x97, 0xbc, 0xee, 0x07, 0x22, 0x51, 0x55, 0x44, 0x08,
   0x52, 0x80, 0x40, 0x88, 0x10, 0x84, 0x72, 0x2f, 0xb4, 0xfd, 0x1f, 0x00,
   0x82, 0xc8, 0x00, 0x02, 0x02, 0x09, 0x09, 0x21, 0x48, 0x68, 0xd4, 0x85,
   0x4c, 0x1e, 0x2f, 0xa8, 0x28, 0x25, 0x52, 0x49, 0x28, 0x00, 0xa0, 0x84,
   0x08, 0x89, 0xfa, 0x15, 0x18, 0x39, 0x3d, 0x00, 0x41, 0x64, 0x00, 0x00,
   0x80, 0x22, 0x82, 0x10, 0x48, 0xa0, 0x5e, 0x01, 0xa6, 0xfe, 0x3d, 0x50,
   0x14, 0x55, 0xa5, 0x84, 0x08, 0x80, 0x08, 0x42, 0x88, 0xa4, 0x7f, 0x01,
   0x8c, 0xec, 0xf1, 0x80, 0x40, 0x40, 0x00, 0x10, 0x32, 0x09, 0x50, 0x08,
   0x04, 0xc0, 0xad, 0x20, 0x0c, 0xfd, 0x6a, 0x00, 0x14, 0x55, 0x05, 0xe8,
   0x7f, 0x01, 0x04, 0x21, 0x14, 0xa9, 0x7b, 0x01, 0x98, 0xda, 0xd1, 0xa0,
   0x40, 0xa0, 0x80, 0xf4, 0xff, 0x57, 0x10, 0x44, 0x44, 0xf4, 0x15, 0x00,
   0x0c, 0x7d, 0xe2, 0x00, 0x08, 0x95, 0x02, 0xff, 0xf6, 0x07, 0x41, 0x00,
   0x88, 0x58, 0x77, 0x48, 0x38, 0xfa, 0xca, 0x81, 0x20, 0x40, 0x08, 0xdd,
   0x6f, 0x3f, 0x04, 0x29, 0x24, 0x2f, 0x12, 0x01, 0x90, 0x1a, 0xd2, 0x00,
   0x00, 0x11, 0xc1, 0x67, 0xbe, 0x2f, 0x50, 0x80, 0x44, 0x5c, 0x42, 0x90,
   0x30, 0x74, 0xd2, 0x01, 0x04, 0x22, 0x80, 0x45, 0x54, 0xbd, 0x02, 0x22,
   0x92, 0x4b, 0x49, 0x4a, 0x61, 0x08, 0x74, 0x80, 0x40, 0x00, 0x70, 0xe8,
   0x2f, 0x1d, 0x20, 0x88, 0xa4, 0x0b, 0x82, 0x08, 0xc5, 0x41, 0xe9, 0x01,
   0x00, 0x08, 0xe0, 0xc1, 0x2f, 0x79, 0x49, 0x21, 0xf2, 0xa4, 0x48, 0x54,
   0x84, 0x1f, 0xff, 0x00, 0x00, 0x00, 0x30, 0xd4, 0x4d, 0x14, 0xf4, 0x8a,
   0xd4, 0x05, 0x0a, 0x80, 0x09, 0xf8, 0xda, 0x01, 0x04, 0x11, 0xf0, 0xa2,
   0x1f, 0x15, 0xdd, 0x11, 0x72, 0x91, 0x42, 0x4a, 0x22, 0x00, 0x68, 0x40,
   0x20, 0x04, 0x78, 0xd4, 0xa3, 0x04, 0xfa, 0x42, 0xa5, 0x02, 0x1e, 0x08,
   0x8a, 0x40, 0x70, 0x01, 0x00, 0x00, 0xe8, 0x41, 0x17, 0x1c, 0xf2, 0x55,
   0xba, 0x92, 0x2a, 0x90, 0x24, 0x02, 0x80, 0x00, 0x24, 0x09, 0x7c, 0xaa,
   0x4b, 0x03, 0xe8, 0x23, 0xe0, 0x42, 0x75, 0x11, 0x41, 0x00, 0x88, 0x44,
   0x00, 0x10, 0xf8, 0x02, 0x0b, 0x46, 0x60, 0x4f, 0xaa, 0x94, 0xd2, 0x20,
   0xac, 0x02, 0x20, 0x00, 0x40, 0x82, 0xee, 0x55, 0x82, 0x03, 0xe8, 0x53,
   0x54, 0x91, 0xa2, 0xa3, 0x05, 0x2d, 0x48, 0x00, 0x04, 0x12, 0x5c, 0x47,
   0x50, 0x81, 0xa0, 0x57, 0x29, 0x40, 0x95, 0x56, 0x58, 0x82, 0x10, 0x11,
   0x00, 0x88, 0x12, 0x1d, 0xf5, 0x00, 0xe0, 0x4f, 0x6b, 0x89, 0x02, 0x14,
   0x42, 0x28, 0x12, 0x80, 0x20, 0x09, 0x32, 0xe0, 0x1f, 0x08, 0x4a, 0x7d,
   0xa9, 0xa0, 0x12, 0x4a, 0x95, 0x82, 0x00, 0x11, 0x04, 0xa0, 0x02, 0x08,
   0x00, 0x40, 0xe0, 0xef, 0xa3, 0x82, 0x42, 0xd0, 0x25, 0x10, 0x02, 0x80,
   0x20, 0x05, 0x0a, 0x00, 0x00, 0x08, 0x45, 0xdf, 0xc8, 0x48, 0x95, 0x74,
   0x94, 0x04, 0x00, 0x2a, 0x8a, 0xa4, 0x12, 0x80, 0x50, 0x93, 0xb4, 0xfd,
   0x93, 0x92, 0xb3, 0x92, 0x92, 0x00, 0x00, 0x68, 0x91, 0x04, 0x24, 0x00,
   0x45, 0x24, 0x11, 0xf7, 0xa2, 0x48, 0xfd, 0x7f, 0x07, 0x00, 0x00, 0x5e,
   0xad, 0x52, 0x8a, 0x08, 0x92, 0xa8, 0xa5, 0x5a, 0x86, 0xab, 0xb7, 0xf6,
   0x1b, 0x00, 0x00, 0xf8, 0xd5, 0x07, 0x28, 0x51, 0x92, 0x22, 0x04, 0xad,
   0x51, 0x7d, 0xfc, 0x5d, 0x42, 0x04, 0x00, 0xaf, 0x7e, 0x05, 0x00, 0x44,
   0x24, 0x94, 0xf0, 0x93, 0x43, 0xeb, 0x01, 0x57, 0x0b, 0x40, 0x00, 0xbc,
   0xe9, 0x2b, 0x40, 0xa9, 0xc9, 0xa2, 0x44, 0x26, 0x49, 0x55, 0x7f, 0xba,
   0x04, 0x00, 0x00, 0x7c, 0xb5, 0x0b, 0x00, 0x24, 0x92, 0x08, 0xf6, 0x8d,
   0x0b, 0x55, 0x49, 0xb5, 0x01, 0x00, 0x00, 0xe0, 0xf6, 0x07, 0x04, 0x49,
   0x95, 0x4a, 0xec, 0x9b, 0xa5, 0x0a, 0x36, 0x34, 0x00, 0x00, 0x00, 0xb0,
   0x7d, 0x01, 0x00, 0xa8, 0x24, 0xa2, 0x3b, 0x25, 0x07, 0xb5, 0x6c, 0xe1,
   0x05, 0x01, 0x00, 0xe0, 0x6a, 0x01, 0x00, 0x00, 0x49, 0x24, 0x63, 0x17,
   0x0b, 0x94, 0x94, 0x14, 0x00, 0x88, 0x00, 0xa0, 0x1b, 0x00, 0x90, 0xa8,
   0x56, 0xd9, 0x28, 0x25, 0x95, 0x54, 0xa9, 0xa0, 0x00, 0x00, 0x04, 0x60,
   0x3f, 0x00, 0x01, 0x00, 0x68, 0x9b, 0x42, 0x25, 0x07, 0xaa, 0x16, 0x55,
   0x05, 0x00, 0x00, 0xc0, 0x0b, 0x00, 0x10, 0x51, 0xad, 0x44, 0x28, 0x13,
   0x2f, 0xa8, 0x24, 0x50, 0x00, 0x00, 0x00, 0x80, 0x0f, 0x08, 0x00, 0x82,
   0xd2, 0x95, 0xa4, 0xa4, 0x0e, 0x6a, 0xa9, 0x02, 0x00, 0x08, 0x40, 0xd2,
   0x82, 0x00, 0x00, 0x08, 0x6a, 0x57, 0xbd, 0x01, 0x5f, 0xc8, 0x42, 0xa5,
   0x52, 0x41, 0x04, 0x88, 0x15, 0x00, 0x11, 0x20, 0xd4, 0xff, 0xf7, 0x0b,
   0x0d, 0x10, 0x4a, 0x0a, 0x0a, 0x10, 0x00, 0xf1, 0x03, 0x20, 0x84, 0x00,
   0xb5, 0xb6, 0xdf, 0xa2, 0x7f, 0xc2, 0x4a, 0x51, 0x51, 0x01, 0x20, 0x44,
   0x5d, 0x01, 0x10, 0x00, 0x54, 0xf5, 0xba, 0x0f, 0x2d, 0xa8, 0x2a, 0x24,
   0x02, 0x00, 0x81, 0xda, 0x03, 0x00, 0x80, 0x8a, 0xba, 0xbe, 0x55, 0x53,
   0xaf, 0x80, 0x56, 0x50, 0x08, 0x29, 0x08, 0x52, 0xae, 0x12, 0x00, 0x20,
   0xe5, 0xf7, 0x57, 0x57, 0x53, 0x15, 0x85, 0x42, 0x57, 0x45, 0xa2, 0xec,
   0x15, 0x00, 0x02, 0x00, 0xba, 0xac, 0xb6, 0xbe, 0x75, 0x01, 0xb1, 0x0a,
   0x74, 0x0a, 0x04, 0xd9, 0xb5, 0x22, 0x90, 0xc0, 0xa0, 0xd1, 0xd6, 0xfa,
   0xeb, 0x12, 0x54, 0xa0, 0x15, 0xa5, 0xd0, 0xb7, 0x4b, 0x00, 0x00, 0x05,
   0x2b, 0x8a, 0x2e, 0x6d, 0xcb, 0x05, 0x80, 0x46, 0x29, 0x91, 0xb6, 0x56,
   0x9d, 0x44, 0x22, 0x12, 0x48, 0x11, 0x28, 0xd5, 0xa8, 0x53, 0x25, 0x78,
   0xc7, 0xae, 0x5a, 0x49, 0xb5, 0x10, 0x08, 0x4d, 0x02, 0x44, 0x00, 0x68,
   0x43, 0x8b, 0x00, 0x51, 0x56, 0x7d, 0x2b, 0x09, 0xd2, 0x25, 0x21, 0x58,
   0x91, 0x80, 0x52, 0x49, 0x74, 0x36, 0x48, 0xcc, 0xa9, 0xd6, 0x96, 0xa0,
   0xa8, 0x8a, 0x84, 0xa0, 0x04, 0x0a, 0x44, 0xb6, 0x41, 0x3d, 0x01, 0x00,
   0xbc, 0xb5, 0x15, 0x05, 0xa0, 0x96, 0xb0, 0x85, 0x40, 0xa8, 0x48, 0xb4,
   0x95, 0xe7, 0x84, 0x28, 0x5b, 0x6d, 0x45, 0x50, 0x89, 0x2a, 0x45, 0x6b,
   0x8a, 0x04, 0x02, 0x6d, 0x80, 0xd6, 0x01, 0x00, 0xba, 0x55, 0x09, 0x02,
   0x10, 0x74, 0xaa, 0x9a, 0x90, 0x5a, 0x54, 0xaa, 0x71, 0x79, 0x14, 0x41,
   0xf5, 0x6a, 0x55, 0x91, 0x44, 0xa9, 0xad, 0x2d, 0x22, 0x92, 0x80, 0x5e,
   0xc5, 0xda, 0x2a, 0x04, 0xd6, 0xaf, 0xaa, 0x92, 0x10, 0xa9, 0x5d, 0xab,
   0x84, 0x10, 0xd5, 0x32, 0x14, 0xa7, 0x8f, 0xa0, 0x65, 0x7b, 0x55, 0x4b,
   0x22, 0xa0, 0xda, 0x12, 0x5a, 0x82, 0xa0, 0x4f, 0xa3, 0xaa, 0x7f, 0x01,
   0x50, 0xdf, 0xdb, 0xaa, 0x6a, 0xa5, 0xab, 0x56, 0x12, 0x10, 0x36, 0x9b,
   0x44, 0xd5, 0xf2, 0x14, 0xe1, 0x7f, 0xb7, 0x6d, 0x55, 0x49, 0x2a, 0xa9,
   0x44, 0x42, 0x6d, 0xaa, 0xc9, 0x55, 0xfd, 0x26, 0xa4, 0xfa, 0xff, 0xad,
   0xaa, 0xaa, 0xaa, 0x56, 0x95, 0x4a, 0xd9, 0xa4, 0x21, 0xbb, 0x6a, 0x2f,
   0x50, 0xef, 0x6e, 0xb7, 0x6d, 0xab, 0x2a, 0x55, 0xa9, 0x55, 0x96, 0xd2 };
