#define cat_2_7_width 264
#define cat_2_7_height 176
static unsigned char cat_2_7_bits[] = {
   0x00, 0x00, 0x00, 0x00, 0x00, 0x00, 0x00, 0x00, 0x00, 0x00, 0x00, 0x00,
   0x00, 0x00, 0x00, 0x00, 0x00, 0x00, 0x00, 0x00, 0x00, 0x00, 0x00, 0x00,
   0x00, 0x00, 0x00, 0x00, 0x00, 0x00, 0x00, 0x00, 0x00, 0x00, 0x00, 0x00,
   0x00, 0x00, 0x00, 0x00, 0x00, 0x00, 0x00, 0x00, 0x00, 0x00, 0x00, 0x1c,
   0x00, 0x00, 0x00, 0x00, 0x00, 0x00, 0x00, 0x00, 0x00, 0x00, 0x00, 0x00,
   0x00, 0x00, 0x00, 0x00, 0x00, 0x00, 0x00, 0x00, 0x00, 0x00, 0x00, 0x00,
   0x00, 0x00, 0x00, 0x00, 0x00, 0x00, 0x00, 0x00, 0x00, 0x01, 0x00, 0x00,
   0x00, 0x00, 0x00, 0x00, 0x00, 0x00, 0x00, 0x00, 0x00, 0x00, 0x00, 0x00,
   0x00, 0x00, 0x00, 0x00, 0x00, 0x00, 0x00, 0x00, 0x00, 0x00, 0x00, 0x00,
   0x00, 0x00, 0x00, 0x00, 0x00, 0x21, 0x08, 0x00, 0x00, 0x00, 0x00, 0x00,
   0x00, 0x00, 0x00, 0x00, 0x00, 0x00, 0x00, 0x00, 0x00, 0x00, 0x00, 0x00,
   0x00, 0x00, 0x00, 0x00, 0x00, 0x00, 0x00, 0x00, 0x00, 0x00, 0x00, 0x00,
   0x00, 0x40, 0x94, 0x22, 0x00, 0x00, 0x00, 0x00, 0x00, 0x00, 0x00, 0x00,
   0x00, 0x00, 0x00, 0x00, 0x00, 0x00, 0x00, 0x00, 0x00, 0x00, 0x00, 0x00,
   0x00, 0x00, 0x00, 0x00, 0x00, 0x00, 0x00, 0x00, 0x00, 0x00, 0x20, 0xa5,
   0x04, 0x00, 0x00, 0x00, 0x00, 0x00, 0x00, 0x00, 0x00, 0x00, 0x00, 0x00,
   0x00, 0x00, 0x00, 0x00, 0x00, 0x00, 0x00, 0x00, 0x00, 0x00, 0x00, 0x00,
   0x00, 0x00, 0x00, 0x00, 0x00, 0x00, 0x00, 0x80, 0x54, 0x49, 0x01, 0x00,
   0x00, 0x00, 0x00, 0x00, 0x00, 0x00, 0x00, 0x00, 0x00, 0x00, 0x00, 0x00,
   0x00, 0x00, 0x00, 0x00, 0x00, 0x00, 0x00, 0x00, 0x00, 0x00, 0x00, 0x00,
   0x00, 0x00, 0x00, 0x00, 0x80, 0x12, 0x15, 0x00, 0x00, 0x00, 0x00, 0x00,
   0x00, 0x00, 0x00, 0x00, 0x00, 0x00, 0x00, 0x00, 0x00, 0x00, 0x00, 0x00,
   0x00, 0x00, 0x00, 0x00, 0x00, 0x00, 0x00, 0x00, 0x00, 0x00, 0x00, 0x00,
   0x00, 0x50, 0xa4, 0x54, 0x09, 0x00, 0x00, 0x00, 0x00, 0x00, 0x00, 0x00,
   0x00, 0x00, 0x00, 0x00, 0x00, 0x00, 0x00, 0x00, 0x00, 0x00, 0x00, 0x00,
   0x00, 0x00, 0x00, 0x00, 0x00, 0x00, 0x00, 0x00, 0x00, 0x00, 0x40, 0x25,
   0x55, 0x01, 0x00, 0x00, 0x00, 0x00, 0x00, 0x00, 0x00, 0x00, 0x00, 0x00,
   0x00, 0x00, 0x00, 0x00, 0x00, 0x00, 0x00, 0x00, 0x00, 0x00, 0x00, 0x00,
   0x00, 0x00, 0x00, 0x00, 0x00, 0x00, 0x00, 0x90, 0x92, 0x48, 0x25, 0x00,
   0x00, 0x00, 0x00, 0x00, 0x00, 0x00, 0x00, 0x00, 0x00, 0x00, 0x00, 0x00,
   0x00, 0x00, 0x00, 0x00, 0x00, 0x00, 0x00, 0x00, 0x00, 0x00, 0x00, 0x00,
   0x00, 0x00, 0x00, 0x00, 0x40, 0x25, 0x4b, 0x4a, 0x00, 0x00, 0x00, 0x00,
   0x00, 0x00, 0x00, 0x00, 0x00, 0x00, 0x00, 0x00, 0x00, 0x00, 0x00, 0x00,
   0x00, 0x00, 0x00, 0x00, 0x00, 0x00, 0x00, 0x00, 0x00, 0x00, 0x00, 0x00,
   0x00, 0x90, 0x8a, 0x90, 0x8a, 0x00, 0x00, 0x00, 0x00, 0x00, 0x00, 0x00,
   0x00, 0x00, 0x00, 0x00, 0x00, 0x00, 0x00, 0x00, 0x00, 0x00, 0x00, 0x00,
   0x00, 0x00, 0x00, 0x00, 0x00, 0x00, 0x00, 0x00, 0x00, 0x00, 0xa0, 0x2a,
   0x25, 0x35, 0x01, 0x00, 0x00, 0x00, 0x00, 0x00, 0x00, 0x00, 0x00, 0x00,
   0x00, 0x00, 0x00, 0x00, 0x00, 0x00, 0x00, 0x00, 0x00, 0x00, 0x00, 0x00,
   0x00, 0x00, 0x00, 0x00, 0x00, 0x00, 0x00, 0x40, 0x55, 0x90, 0x48, 0x02,
   0x00, 0x00, 0x00, 0x00, 0x00, 0x00, 0x00, 0x00, 0x00, 0x00, 0x00, 0x00,
   0x00, 0x00, 0x00, 0x00, 0x00, 0x00, 0x00, 0x00, 0x00, 0x00, 0x00, 0x00,
   0x00, 0x00, 0x00, 0x00, 0x40, 0x4b, 0x45, 0x4a, 0x04, 0x00, 0x00, 0x00,
   0x00, 0x00, 0x00, 0x00, 0x00, 0x00, 0x00, 0x00, 0x00, 0x00, 0x00, 0x00,
   0x00, 0x00, 0x00, 0x00, 0x00, 0x00, 0x00, 0x00, 0x00, 0x00, 0x00, 0x00,
   0x00, 0xd0, 0x2a, 0x28, 0xa9, 0x08, 0x00, 0x00, 0x00, 0x00, 0x00, 0x00,
   0x00, 0x00, 0x00, 0x00, 0x00, 0x00, 0x00, 0x00, 0x00, 0x00, 0x00, 0x00,
   0x00, 0x00, 0x00, 0x00, 0x00, 0x00, 0x00, 0x00, 0x00, 0x00, 0x90, 0xaa,
   0x01, 0x89, 0x12, 0x00, 0x00, 0x00, 0x00, 0x00, 0x00, 0x00, 0x00, 0x00,
   0x00, 0x00, 0x00, 0x00, 0x00, 0x00, 0x00, 0x00, 0x00, 0x00, 0x00, 0x00,
   0x00, 0x00, 0x00, 0x00, 0x00, 0x00, 0x00, 0x50, 0x2b, 0xaa, 0xb0, 0x22,
   0x00, 0x00, 0x00, 0x00, 0x00, 0x00, 0x00, 0x00, 0x00, 0x00, 0x00, 0x00,
   0x00, 0x00, 0x00, 0x00, 0x00, 0x00, 0x00, 0x00, 0x00, 0x00, 0x00, 0x00,
   0x00, 0x00, 0x00, 0x00, 0x50, 0x55, 0x02, 0x25, 0x4d, 0x00, 0x00, 0x00,
   0x00, 0x00, 0x00, 0x00, 0x00, 0x00, 0x00, 0x00, 0x00, 0x00, 0x00, 0x00,
   0x00, 0x00, 0x00, 0x00, 0x00, 0x00, 0x00, 0x00, 0x00, 0x00, 0x00, 0x00,
   0x00, 0x40, 0x15, 0x29, 0x40, 0x92, 0x00, 0x00, 0x00, 0x00, 0x00, 0x00,
   0x00, 0x00, 0x00, 0x00, 0x00, 0x00, 0x00, 0x00, 0x00, 0x00, 0x00, 0x00,
   0x00, 0x00, 0x00, 0x00, 0x00, 0x00, 0x00, 0x00, 0x00, 0x00, 0xb0, 0x52,
   0x40, 0x15, 0x2a, 0x01, 0x00, 0x00, 0x00, 0x00, 0x00, 0x00, 0x00, 0x00,
   0x00, 0x00, 0x00, 0x00, 0x00, 0x00, 0x00, 0x00, 0x00, 0x00, 0x00, 0x00,
   0x00, 0x00, 0x00, 0x00, 0x00, 0x00, 0x00, 0x90, 0x25, 0x05, 0x40, 0x29,
   0x02, 0x00, 0x00, 0x00, 0x00, 0x00, 0x00, 0x00, 0x00, 0x00, 0x00, 0x00,
   0x00, 0x00, 0x00, 0x00, 0x00, 0x00, 0x00, 0x00, 0x00, 0x00, 0x00, 0x00,
   0x00, 0x00, 0x00, 0x00, 0x20, 0x49, 0x91, 0x0a, 0xea, 0x04, 0x00, 0x00,
   0x00, 0x00, 0x00, 0x00, 0x00, 0x00, 0x00, 0x00, 0x00, 0x00, 0x00, 0x00,
   0x00, 0x00, 0x00, 0x00, 0x00, 0x00, 0x00, 0x00, 0x00, 0x00, 0x00, 0x00,
   0x00, 0xc0, 0x22, 0x04, 0x20, 0x00, 0x01, 0x00, 0x00, 0x00, 0x00, 0x00,
   0x00, 0x00, 0x00, 0x00, 0x00, 0x00, 0xa0, 0xd0, 0x00, 0x00, 0x00, 0x00,
   0x00, 0x00, 0x00, 0x00, 0x00, 0x00, 0x00, 0x00, 0x00, 0x00, 0x80, 0x8a,
   0x90, 0x44, 0xa9, 0x52, 0x00, 0x00, 0x00, 0x00, 0x00, 0x00, 0x00, 0x00,
   0x00, 0x00, 0x00, 0x00, 0x01, 0x00, 0x00, 0x00, 0x00, 0x00, 0x00, 0x00,
   0x00, 0x00, 0x00, 0x00, 0x00, 0x00, 0x00, 0xa0, 0x20, 0x0a, 0x10, 0x54,
   0xa5, 0x02, 0x00, 0x00, 0x00, 0x00, 0x00, 0x00, 0x00, 0x00, 0x00, 0x00,
   0x01, 0x24, 0x01, 0x00, 0x00, 0x00, 0x00, 0x00, 0x00, 0x00, 0x00, 0x00,
   0x00, 0x00, 0x00, 0x00, 0x80, 0x45, 0x20, 0x02, 0x81, 0x84, 0x68, 0x07,
   0x00, 0x00, 0x00, 0x00, 0x00, 0x00, 0x00, 0x00, 0x00, 0xa0, 0x4a, 0x04,
   0x00, 0x00, 0x00, 0x00, 0x00, 0x00, 0x00, 0x00, 0x00, 0x00, 0x00, 0x00,
   0x00, 0x00, 0x09, 0x89, 0x50, 0x54, 0x55, 0xa2, 0xd4, 0x05, 0x00, 0x00,
   0x00, 0x00, 0x00, 0x00, 0x00, 0x00, 0x2a, 0x95, 0x02, 0x00, 0x00, 0x00,
   0x00, 0x00, 0x00, 0x00, 0x00, 0x00, 0x00, 0x00, 0x00, 0x00, 0x40, 0x22,
   0x02, 0x00, 0x49, 0x0b, 0x41, 0x79, 0x35, 0x00, 0x00, 0x00, 0x00, 0x00,
   0x00, 0x00, 0x4c, 0x2a, 0xa9, 0x02, 0x00, 0x00, 0x00, 0x00, 0x00, 0x00,
   0x00, 0x00, 0x00, 0x00, 0x00, 0x00, 0x00, 0x40, 0x95, 0x28, 0xa9, 0xa4,
   0x2a, 0x55, 0xd4, 0x52, 0x00, 0x00, 0x00, 0x00, 0x00, 0x00, 0x00, 0x21,
   0x41, 0x12, 0x04, 0x00, 0x00, 0x00, 0x00, 0x00, 0x00, 0x00, 0x00, 0x00,
   0x00, 0x00, 0x00, 0x00, 0x00, 0x12, 0x01, 0x00, 0x05, 0x2a, 0x52, 0xa9,
   0x45, 0x00, 0x00, 0x00, 0x00, 0x00, 0x00, 0x40, 0xa0, 0x4a, 0x6a, 0x01,
   0x00, 0x00, 0x00, 0x00, 0x00, 0x00, 0x00, 0x00, 0x00, 0x00, 0x00, 0x00,
   0x00, 0x00, 0x29, 0xaa, 0xaa, 0xa8, 0x14, 0xac, 0x6a, 0x29, 0x00, 0x00,
   0x00, 0x00, 0x00, 0x00, 0x10, 0x0a, 0x89, 0xa4, 0x04, 0x00, 0x00, 0x00,
   0x00, 0x00, 0x00, 0x00, 0x00, 0x00, 0x00, 0x00, 0x00, 0x00, 0x00, 0xc5,
   0x20, 0x00, 0x82, 0xb5, 0x28, 0x70, 0x31, 0x0b, 0xa0, 0x0a, 0x00, 0x00,
   0x00, 0x00, 0x29, 0x12, 0xa9, 0x00, 0x00, 0x00, 0x00, 0x00, 0x00, 0x00,
   0x00, 0x00, 0x00, 0x00, 0x00, 0x00, 0x00, 0x80, 0x14, 0x8b, 0x4a, 0x58,
   0x4a, 0x12, 0xc9, 0xd4, 0xb4, 0x2b, 0x1a, 0x00, 0x00, 0x00, 0xb2, 0x84,
   0x48, 0x54, 0x05, 0x00, 0x00, 0x00, 0x00, 0x00, 0x00, 0x00, 0x00, 0x00,
   0x00, 0x00, 0x00, 0x00, 0x80, 0x24, 0x12, 0x00, 0x91, 0xad, 0x24, 0xc8,
   0x49, 0x25, 0xaa, 0x94, 0x1b, 0x00, 0x00, 0x24, 0x28, 0x11, 0x55, 0x01,
   0x00, 0x00, 0x00, 0x00, 0x00, 0x00, 0x00, 0x00, 0x00, 0x00, 0x00, 0x00,
   0x00, 0x00, 0x92, 0x44, 0x54, 0xa2, 0x92, 0x82, 0xd2, 0xb2, 0x6e, 0x2e,
   0x7a, 0x11, 0x16, 0x10, 0x92, 0x02, 0xa4, 0xd4, 0x04, 0x00, 0x00, 0x00,
   0x00, 0x00, 0x00, 0x00, 0x00, 0x00, 0x00, 0x00, 0x00, 0x00, 0x00, 0x84,
   0x08, 0x49, 0x0a, 0x14, 0x28, 0xf2, 0xa0, 0xdb, 0xa8, 0xd4, 0xd2, 0x40,
   0x84, 0x22, 0xa4, 0x84, 0x5a, 0x01, 0x00, 0x00, 0x00, 0x00, 0x00, 0x00,
   0x00, 0x00, 0x00, 0x00, 0x00, 0x00, 0x00, 0x00, 0x29, 0xa2, 0xaa, 0xa0,
   0xa0, 0xc2, 0xec, 0x64, 0xb5, 0x42, 0xba, 0x28, 0x4a, 0x51, 0x84, 0x10,
   0xaa, 0xb6, 0x02, 0x00, 0x00, 0x00, 0x00, 0x00, 0x00, 0x00, 0x00, 0x00,
   0x00, 0x00, 0x00, 0x00, 0x80, 0x2b, 0x04, 0x9a, 0x00, 0x05, 0x88, 0xf8,
   0x64, 0xa5, 0x4c, 0x56, 0x51, 0x40, 0x40, 0x11, 0x42, 0xa0, 0x6c, 0x02,
   0x00, 0x00, 0x00, 0x00, 0x00, 0x00, 0x00, 0x00, 0x00, 0x00, 0x00, 0x00,
   0x00, 0x00, 0x4d, 0x69, 0x40, 0x42, 0xa8, 0x22, 0xee, 0xf0, 0x98, 0x87,
   0x4b, 0x2a, 0x09, 0x2a, 0x44, 0x24, 0x4a, 0x55, 0x01, 0x00, 0x00, 0x00,
   0x00, 0x00, 0x00, 0x00, 0x00, 0x00, 0x00, 0x00, 0x00, 0x00, 0x80, 0x8a,
   0x4a, 0x09, 0x08, 0x22, 0x40, 0xfc, 0xc2, 0x97, 0x0a, 0x43, 0x20, 0x01,
   0x8a, 0x80, 0x40, 0xa0, 0x5a, 0x01, 0x00, 0x00, 0x00, 0x00, 0x00, 0x00,
   0x00, 0x00, 0x00, 0x00, 0x00, 0x00, 0x00, 0x80, 0xa1, 0x2a, 0x20, 0xa1,
   0x48, 0x15, 0xdd, 0xa4, 0x5e, 0xa3, 0x0b, 0x4a, 0xa1, 0x52, 0x4a, 0x0a,
   0x55, 0x55, 0x00, 0x00, 0x00, 0x00, 0x00, 0x00, 0x00, 0x00, 0x00, 0x00,
   0x00, 0x00, 0x00, 0x00, 0x00, 0x87, 0xaa, 0x01, 0x84, 0x92, 0x22, 0xf9,
   0xa5, 0x75, 0x87, 0x57, 0x50, 0x42, 0x06, 0x08, 0x20, 0xa0, 0xba, 0x00,
   0x00, 0x00, 0x00, 0x00, 0x00, 0x00, 0x00, 0x00, 0x00, 0x00, 0x00, 0x00,
   0x00, 0x80, 0x50, 0x15, 0xa2, 0x12, 0x48, 0x04, 0xbc, 0x90, 0xef, 0xd2,
   0x05, 0x04, 0xa8, 0xaa, 0xa2, 0x04, 0x89, 0x26, 0x00, 0x00, 0x00, 0x00,
   0x00, 0x00, 0x00, 0x00, 0x00, 0x00, 0x00, 0x00, 0x00, 0x00, 0x80, 0x03,
   0x2b, 0x00, 0x40, 0x81, 0x90, 0x2a, 0x82, 0xbd, 0xd5, 0xaf, 0x50, 0xa1,
   0x82, 0x08, 0x00, 0x11, 0x55, 0x00, 0x00, 0x00, 0x00, 0x00, 0x00, 0x00,
   0x00, 0x00, 0x00, 0x00, 0x00, 0x00, 0x00, 0x80, 0xa2, 0x54, 0xa4, 0x2a,
   0x2a, 0x4a, 0x2a, 0xa9, 0xbb, 0xd0, 0xa7, 0x04, 0x52, 0x14, 0xa5, 0x52,
   0xa4, 0x4e, 0x00, 0x00, 0x00, 0x00, 0x00, 0x00, 0x00, 0x00, 0x00, 0x00,
   0x00, 0x00, 0x00, 0x00, 0x80, 0x02, 0x0a, 0x00, 0x08, 0x40, 0x02, 0x54,
   0x40, 0xb3, 0x72, 0x0f, 0xa9, 0xd4, 0x21, 0x44, 0x04, 0x04, 0x29, 0x00,
   0x00, 0x00, 0x00, 0x00, 0x00, 0x00, 0x00, 0x00, 0x00, 0x00, 0x00, 0x00,
   0x00, 0x80, 0xa9, 0x94, 0x84, 0x20, 0x10, 0x54, 0x5d, 0xda, 0x0e, 0xe9,
   0x5d, 0x00, 0x2a, 0x82, 0x88, 0xaa, 0x50, 0x15, 0x00, 0x00, 0x00, 0x00,
   0x00, 0x00, 0x00, 0x00, 0x00, 0x00, 0x00, 0x00, 0x00, 0x00, 0x00, 0x23,
   0x09, 0x10, 0x41, 0x82, 0x00, 0x38, 0x9a, 0x2d, 0xf2, 0x9b, 0xaa, 0xd0,
   0x14, 0x21, 0x20, 0x85, 0x06, 0x00, 0x00, 0x00, 0x00, 0x00, 0x00, 0x00,
   0x00, 0x00, 0x00, 0x00, 0x00, 0x00, 0x00, 0x00, 0x45, 0x15, 0x01, 0x04,
   0x10, 0x44, 0xae, 0xf0, 0x0a, 0xb4, 0x55, 0x00, 0xa5, 0x22, 0x94, 0x4a,
   0xb4, 0x0a, 0x00, 0x00, 0x00, 0x00, 0x00, 0x00, 0x00, 0x00, 0x00, 0x00,
   0x00, 0x00, 0x00, 0x00, 0x00, 0x8c, 0x22, 0x24, 0x00, 0x82, 0x08, 0x6c,
   0xb0, 0xbd, 0xb0, 0x83, 0x2a, 0x04, 0x4a, 0x01, 0x40, 0xa1, 0x04, 0x00,
   0x00, 0x00, 0x00, 0x00, 0x00, 0x00, 0x00, 0x00, 0x00, 0x00, 0x00, 0x00,
   0x00, 0x00, 0x02, 0x09, 0x00, 0x08, 0x10, 0x40, 0xe4, 0x74, 0x1b, 0x7c,
   0x28, 0x41, 0x11, 0xa0, 0x56, 0x8a, 0x5a, 0x01, 0x00, 0x00, 0x00, 0x00,
   0x00, 0x00, 0x00, 0x00, 0x00, 0x00, 0x00, 0x00, 0x00, 0x00, 0x00, 0x0c,
   0x22, 0x45, 0x40, 0x22, 0x89, 0xc0, 0xe8, 0x3e, 0xe8, 0x02, 0x15, 0x52,
   0x88, 0x44, 0x14, 0x55, 0x01, 0x00, 0x00, 0x00, 0x00, 0x00, 0x00, 0x00,
   0x00, 0x00, 0x00, 0x00, 0x00, 0x00, 0x00, 0x00, 0x90, 0x02, 0x00, 0x00,
   0x00, 0x00, 0xc4, 0x58, 0x96, 0x3c, 0x88, 0xa8, 0x08, 0x21, 0x09, 0x69,
   0x6a, 0x01, 0x00, 0x00, 0x00, 0x00, 0x00, 0x00, 0x00, 0x00, 0x00, 0x00,
   0x00, 0x00, 0x00, 0x00, 0x00, 0x18, 0x00, 0x80, 0x88, 0x44, 0x2a, 0xc0,
   0xd9, 0x94, 0x56, 0x11, 0xa1, 0x52, 0x64, 0x6b, 0xca, 0x2a, 0x00, 0x00,
   0x00, 0x00, 0x00, 0x00, 0x00, 0x00, 0x00, 0x00, 0x00, 0x00, 0x00, 0x00,
   0x00, 0x00, 0x48, 0x91, 0x08, 0x20, 0x11, 0x80, 0xa0, 0x29, 0x87, 0x4b,
   0x40, 0x0a, 0xa5, 0x00, 0x14, 0x29, 0x55, 0x00, 0x00, 0x00, 0x00, 0x00,
   0x00, 0x00, 0x00, 0x00, 0x00, 0x00, 0x00, 0x00, 0x00, 0x00, 0x00, 0x08,
   0x00, 0x00, 0x40, 0x02, 0x12, 0x80, 0x59, 0x4e, 0x0b, 0x89, 0xa8, 0x94,
   0xaa, 0x29, 0x51, 0x4a, 0x00, 0x00, 0x00, 0x00, 0x00, 0x00, 0x00, 0x00,
   0x00, 0x00, 0x00, 0x00, 0x00, 0x00, 0x00, 0x00, 0x04, 0x21, 0x20, 0x00,
   0x25, 0x00, 0x40, 0xa9, 0xe2, 0x41, 0x20, 0x22, 0xa2, 0x00, 0x52, 0x95,
   0x0a, 0x00, 0x00, 0x00, 0x00, 0x00, 0x00, 0x00, 0x00, 0x00, 0x00, 0x00,
   0x00, 0x00, 0x00, 0x00, 0x00, 0x12, 0x02, 0x01, 0x08, 0x04, 0x49, 0x81,
   0xd9, 0xc2, 0x81, 0x42, 0x88, 0x08, 0x2a, 0x84, 0x96, 0x2a, 0x00, 0x00,
   0x00, 0x00, 0x00, 0x00, 0x00, 0x00, 0x00, 0x00, 0x00, 0x00, 0x00, 0x00,
   0x00, 0x00, 0x00, 0x00, 0x80, 0x40, 0x14, 0x24, 0xe0, 0x6c, 0x79, 0x04,
   0x28, 0x25, 0xa5, 0x04, 0xa8, 0x5a, 0x0f, 0x00, 0x00, 0x00, 0x00, 0x00,
   0x00, 0x00, 0x00, 0x00, 0x00, 0x00, 0x00, 0x00, 0x00, 0x00, 0x40, 0x81,
   0x08, 0x02, 0x00, 0x00, 0x08, 0xc0, 0xad, 0x51, 0xa0, 0x01, 0x20, 0x44,
   0x49, 0xa9, 0xaa, 0x26, 0x00, 0x00, 0x00, 0x00, 0x00, 0x00, 0x00, 0x00,
   0x00, 0x00, 0x00, 0x00, 0x00, 0x00, 0x00, 0x40, 0x20, 0x40, 0x00, 0x80,
   0x14, 0x12, 0xc0, 0xba, 0x3a, 0x48, 0x24, 0x85, 0x10, 0x12, 0xd0, 0x56,
   0x3d, 0x00, 0x00, 0x00, 0x00, 0x00, 0x00, 0x00, 0x00, 0x00, 0x00, 0x00,
   0x00, 0x00, 0x00, 0x00, 0x10, 0x00, 0x01, 0x00, 0x08, 0x00, 0x50, 0xc0,
   0xdf, 0xb2, 0x40, 0x42, 0x28, 0x44, 0x42, 0xa1, 0x5a, 0x29, 0x00, 0x00,
   0x00, 0x00, 0x00, 0x00, 0x00, 0x00, 0x00, 0x00, 0x00, 0x00, 0x00, 0x00,
   0x00, 0x10, 0x49, 0x00, 0x88, 0x40, 0x48, 0x02, 0xc8, 0x7d, 0x1b, 0x10,
   0x01, 0x41, 0x11, 0x29, 0x64, 0x55, 0x0a, 0x00, 0x00, 0x00, 0x00, 0x00,
   0x00, 0x00, 0x00, 0x00, 0x00, 0x00, 0x00, 0x00, 0x00, 0x00, 0x08, 0x00,
   0x82, 0x00, 0x00, 0x00, 0x14, 0x80, 0x6b, 0x3f, 0x40, 0x28, 0x15, 0x20,
   0x82, 0x44, 0x55, 0x1c, 0x00, 0x00, 0x00, 0x00, 0x00, 0x00, 0x00, 0x00,
   0x00, 0x00, 0x00, 0x00, 0x00, 0x00, 0x00, 0x24, 0x12, 0x10, 0x88, 0x94,
   0x00, 0x20, 0xd0, 0xaa, 0x8d, 0x10, 0x85, 0x2a, 0x91, 0x28, 0x50, 0x85,
   0x0a, 0x00, 0x00, 0x00, 0x00, 0x00, 0x00, 0x00, 0x00, 0x00, 0x00, 0x00,
   0x00, 0x00, 0x00, 0x00, 0x02, 0xa4, 0x80, 0x40, 0xbf, 0x05, 0x85, 0x40,
   0x55, 0x1f, 0x50, 0x80, 0x2a, 0x02, 0x45, 0x41, 0x2a, 0x1d, 0x00, 0x00,
   0x00, 0x00, 0x00, 0x00, 0x00, 0x00, 0x00, 0x00, 0x00, 0x00, 0x00, 0x00,
   0x00, 0x22, 0x28, 0x7a, 0xa9, 0xff, 0x17, 0x10, 0xa8, 0xaa, 0x16, 0x01,
   0x21, 0x45, 0x48, 0x08, 0x52, 0x29, 0x05, 0x00, 0x00, 0x00, 0x00, 0x00,
   0x00, 0x00, 0x00, 0x00, 0x00, 0x00, 0x00, 0x00, 0x00, 0x00, 0x05, 0x49,
   0xf4, 0xe3, 0xcd, 0x3f, 0x82, 0x80, 0x24, 0x16, 0x50, 0x84, 0x90, 0x00,
   0x51, 0x42, 0x0a, 0x07, 0x00, 0x00, 0x00, 0x00, 0x00, 0x00, 0x00, 0x00,
   0x00, 0x00, 0x00, 0x00, 0x00, 0x01, 0x00, 0x21, 0x16, 0x7d, 0xc9, 0xeb,
   0x7e, 0x20, 0x12, 0x55, 0x45, 0x84, 0x20, 0x05, 0x08, 0x84, 0xa8, 0xc4,
   0x04, 0x00, 0x00, 0x00, 0x00, 0x00, 0x00, 0x00, 0x00, 0x00, 0x00, 0x00,
   0x00, 0x00, 0x00, 0x00, 0x41, 0x28, 0xf7, 0x42, 0xdb, 0xff, 0x01, 0x20,
   0x88, 0x0c, 0x20, 0x20, 0x90, 0x90, 0x10, 0x02, 0xc9, 0x03, 0x00, 0x00,
   0x00, 0x00, 0x00, 0x00, 0x00, 0x00, 0x00, 0x00, 0x00, 0x00, 0x00, 0x00,
   0x80, 0x84, 0x46, 0x5d, 0xc8, 0xe4, 0xf1, 0x82, 0x8a, 0x52, 0x22, 0x95,
   0x84, 0x02, 0x00, 0x4a, 0xa8, 0x60, 0x01, 0x00, 0x00, 0x00, 0x00, 0x00,
   0x00, 0x00, 0x00, 0x00, 0x00, 0x00, 0x00, 0x00, 0x09, 0x80, 0x90, 0xa8,
   0x5f, 0x81, 0x91, 0xd3, 0x03, 0x10, 0x44, 0x06, 0x00, 0x00, 0x28, 0x22,
   0x08, 0x41, 0x51, 0x00, 0x00, 0x00, 0x00, 0x00, 0x00, 0x00, 0x00, 0x00,
   0x00, 0x00, 0x00, 0x00, 0x00, 0x01, 0x80, 0x04, 0xea, 0x15, 0x60, 0xea,
   0xdf, 0x03, 0x45, 0x51, 0x55, 0x4a, 0x88, 0x00, 0x88, 0x20, 0x24, 0x14,
   0x00, 0x00, 0x00, 0x00, 0x00, 0x00, 0x00, 0x00, 0x00, 0x00, 0x00, 0x00,
   0x00, 0x00, 0x11, 0x80, 0x48, 0xfa, 0x17, 0xc0, 0xc8, 0x1e, 0x0f, 0x08,
   0x04, 0x04, 0x00, 0x21, 0x93, 0x00, 0x85, 0xc0, 0x08, 0x00, 0x00, 0x00,
   0x00, 0x00, 0x00, 0x00, 0x00, 0x00, 0x00, 0x00, 0x00, 0x00, 0x00, 0x00,
   0x40, 0x00, 0xdc, 0x0a, 0xc2, 0xd0, 0xaf, 0x06, 0x40, 0x51, 0x55, 0x80,
   0xfe, 0x17, 0x40, 0x10, 0x02, 0x0a, 0x00, 0x00, 0x00, 0x00, 0x00, 0x00,
   0x00, 0x00, 0x00, 0x00, 0x00, 0x00, 0x00, 0x00, 0x00, 0x40, 0x91, 0xba,
   0x17, 0x80, 0xa9, 0x1d, 0x0d, 0x0a, 0x04, 0x0a, 0x48, 0xff, 0x7f, 0x05,
   0x41, 0x94, 0x10, 0x00, 0x00, 0x00, 0x00, 0x00, 0x00, 0x00, 0x00, 0x00,
   0x00, 0x00, 0x00, 0x00, 0x00, 0x20, 0x40, 0x44, 0x5f, 0x01, 0xc0, 0xd0,
   0x27, 0x0e, 0x80, 0x50, 0x29, 0xf0, 0x6f, 0x7f, 0x10, 0x04, 0x00, 0x0d,
   0x00, 0x00, 0x00, 0x00, 0x00, 0x00, 0x00, 0x00, 0x00, 0x00, 0x00, 0x00,
   0x00, 0x00, 0x40, 0x80, 0x88, 0x75, 0x87, 0x84, 0xa3, 0xaf, 0x1c, 0x08,
   0x02, 0x84, 0xd0, 0xfd, 0xf6, 0x43, 0x90, 0x12, 0x1c, 0x00, 0x00, 0x00,
   0x00, 0x00, 0x00, 0x00, 0x00, 0x00, 0x00, 0x00, 0x00, 0x00, 0x00, 0x02,
   0x40, 0xf2, 0x22, 0x11, 0x00, 0xa9, 0x21, 0x0d, 0x00, 0x10, 0x11, 0x7c,
   0xe6, 0xfb, 0x02, 0x05, 0x48, 0x02, 0x00, 0x00, 0x00, 0x00, 0x00, 0x00,
   0x00, 0x00, 0x00, 0x00, 0x00, 0x00, 0x00, 0x00, 0x80, 0x40, 0xc4, 0x25,
   0x04, 0x09, 0x43, 0x27, 0x1d, 0x40, 0x20, 0x02, 0x58, 0x44, 0xd5, 0x2b,
   0x20, 0x02, 0x1c, 0x00, 0x00, 0x00, 0x00, 0x00, 0x00, 0x00, 0x00, 0x00,
   0x00, 0x00, 0x00, 0x00, 0x00, 0x04, 0x21, 0xb9, 0x94, 0xa4, 0x14, 0x86,
   0x40, 0x07, 0x08, 0x04, 0x00, 0x87, 0xfe, 0xd2, 0x01, 0x82, 0x98, 0x10,
   0x00, 0x00, 0x00, 0x00, 0x00, 0x00, 0x00, 0x00, 0x00, 0x00, 0x00, 0x00,
   0x00, 0x00, 0x00, 0x40, 0xba, 0x20, 0x88, 0x50, 0x1c, 0x94, 0x1e, 0x00,
   0x80, 0x00, 0x1e, 0xfc, 0x92, 0x97, 0x14, 0x12, 0x10, 0x00, 0x00, 0x00,
   0x00, 0x00, 0x00, 0x00, 0x00, 0x00, 0x00, 0x00, 0x00, 0x00, 0x00, 0x08,
   0x22, 0x4f, 0x8a, 0x44, 0x45, 0xf8, 0xf1, 0x0f, 0x00, 0x00, 0x00, 0x43,
   0xdd, 0x44, 0x41, 0xaf, 0x48, 0x12, 0x00, 0x00, 0x00, 0x00, 0x00, 0x00,
   0x00, 0x00, 0x00, 0x00, 0x00, 0x00, 0x00, 0x00, 0x10, 0x44, 0x5d, 0xa0,
   0x00, 0x98, 0x80, 0xaf, 0x1d, 0x40, 0x10, 0x01, 0x2f, 0xfa, 0x51, 0xd1,
   0x1d, 0x11, 0x20, 0x00, 0x00, 0x00, 0x00, 0x00, 0x00, 0x00, 0x00, 0x00,
   0x00, 0x00, 0x00, 0x00, 0x00, 0x10, 0x28, 0x17, 0x29, 0xa4, 0x24, 0x02,
   0x80, 0x06, 0x04, 0x42, 0x80, 0x47, 0x3d, 0x4a, 0xa0, 0x2f, 0xa4, 0x52,
   0x00, 0x00, 0x00, 0x01, 0x00, 0x00, 0x00, 0x00, 0x00, 0x00, 0x00, 0x00,
   0x00, 0x00, 0x20, 0x50, 0x2a, 0xe0, 0x81, 0xa0, 0x08, 0x04, 0x17, 0x00,
   0x00, 0x80, 0x1e, 0x74, 0xc1, 0x21, 0x5f, 0x55, 0x50, 0x00, 0x00, 0x00,
   0xff, 0xff, 0xff, 0xff, 0xff, 0xff, 0x03, 0x00, 0x00, 0x00, 0x00, 0x40,
   0xa0, 0x2b, 0xa9, 0x02, 0x49, 0x22, 0x00, 0x08, 0x40, 0x92, 0xc0, 0xa7,
   0xba, 0x34, 0x80, 0x3e, 0x92, 0x42, 0x00, 0x00, 0x00, 0xff, 0xff, 0xff,
   0xff, 0xde, 0xbd, 0x7f, 0x00, 0x00, 0x00, 0x00, 0x80, 0x00, 0x2e, 0x54,
   0x17, 0x11, 0x04, 0x80, 0x48, 0x04, 0x00, 0x81, 0x2f, 0xb0, 0x60, 0x04,
   0xf6, 0x34, 0x4a, 0x00, 0x00, 0x00, 0xad, 0x6d, 0xdb, 0xf6, 0xfb, 0xf7,
   0xfe, 0x7f, 0x00, 0x00, 0x00, 0x80, 0xa1, 0x4a, 0x29, 0x0d, 0xc2, 0x2a,
   0x00, 0x02, 0x00, 0x24, 0xe8, 0x5e, 0x25, 0x38, 0x80, 0x3e, 0x55, 0x20,
   0x00, 0x00, 0x00, 0xff, 0xff, 0xff, 0xdf, 0xbf, 0xff, 0xb7, 0xff, 0x03,
   0x00, 0x00, 0x00, 0x42, 0x15, 0x29, 0x3a, 0x5a, 0xd0, 0x82, 0x04, 0x40,
   0x20, 0xc1, 0x75, 0x04, 0x15, 0x08, 0x7a, 0xa5, 0x45, 0x00, 0x00, 0x00,
   0x5d, 0xbb, 0xff, 0xff, 0xff, 0xf7, 0xfe, 0xb6, 0xff, 0x3f, 0x00, 0x00,
   0x94, 0x02, 0x54, 0x69, 0x85, 0x25, 0x08, 0x11, 0x01, 0x80, 0x28, 0xd1,
   0x51, 0x0f, 0x00, 0xfe, 0x94, 0x28, 0x00, 0x00, 0x00, 0x7b, 0xf7, 0x6a,
   0xfb, 0xf6, 0xde, 0xff, 0xff, 0xde, 0xff, 0x01, 0x00, 0xb8, 0x96, 0x28,
   0x40, 0x21, 0x84, 0x22, 0x01, 0x08, 0x92, 0x20, 0x03, 0xfe, 0x81, 0xa0,
   0xd4, 0x57, 0xa1, 0x00, 0x00, 0x00, 0xdd, 0xad, 0xb6, 0xad, 0xdf, 0xff,
   0xf6, 0xf6, 0x7b, 0xdb, 0x07, 0x00, 0x90, 0x0a, 0x2a, 0xa1, 0x54, 0x29,
   0x08, 0x10, 0x41, 0x00, 0x2a, 0x80, 0x00, 0x00, 0x04, 0xfe, 0xae, 0xc4,
   0x00, 0x00, 0x00, 0x5b, 0xbd, 0xaa, 0xeb, 0xfd, 0xfb, 0xdf, 0xbf, 0xff,
   0xbb, 0x3a, 0x00, 0x30, 0x2a, 0x28, 0x04, 0x5d, 0x02, 0x21, 0x00, 0x08,
   0x52, 0xa0, 0x00, 0x00, 0x80, 0x50, 0xf4, 0xbd, 0x98, 0x00, 0x00, 0x00,
   0x6f, 0xa3, 0x6a, 0x2d, 0xb7, 0xef, 0xf6, 0xf7, 0xb6, 0x77, 0xd7, 0x01,
   0x80, 0x8c, 0x54, 0x49, 0x47, 0x49, 0x00, 0xa0, 0xa2, 0x48, 0x2a, 0x01,
   0x08, 0x35, 0x49, 0xdb, 0xaf, 0xa2, 0x00, 0x00, 0x00, 0xdd, 0x4e, 0xdd,
   0xad, 0xee, 0xfe, 0xdf, 0xfe, 0xff, 0xa6, 0xba, 0x00, 0x30, 0x29, 0x39,
   0x2b, 0x29, 0x09, 0x00, 0x80, 0x16, 0x49, 0x40, 0x02, 0x50, 0x44, 0x12,
   0x71, 0xbf, 0xaa, 0x00, 0x00, 0x00, 0x77, 0xbb, 0x77, 0x5b, 0xd5, 0xb7,
   0xff, 0xf7, 0xed, 0x5b, 0x6d, 0x02, 0x20, 0x8a, 0xd4, 0xff, 0x77, 0x00,
   0x00, 0xe0, 0xd5, 0x2a, 0xa5, 0x88, 0x20, 0x89, 0x5a, 0xaa, 0x55, 0x95,
   0x00, 0x00, 0x00, 0x7e, 0xbf, 0xfe, 0xbb, 0x95, 0x7e, 0xbb, 0xbf, 0xbf,
   0x52, 0xed, 0x0b, 0x60, 0xb8, 0x7a, 0x6b, 0xbf, 0x01, 0x00, 0x80, 0x5f,
   0x7d, 0x80, 0x12, 0x25, 0x29, 0x42, 0xd0, 0x6a, 0xb5, 0x00, 0x00, 0x00,
   0xfd, 0xfb, 0x77, 0x6f, 0x6d, 0xfb, 0xff, 0xee, 0x77, 0xa9, 0x77, 0x4f,
   0x18, 0xd5, 0xc7, 0xdf, 0x25, 0x44, 0x00, 0xf0, 0xea, 0x57, 0x00, 0x40,
   0x44, 0x42, 0x09, 0x3f, 0xb9, 0xa8, 0x00, 0x00, 0x00, 0xed, 0xf7, 0xff,
   0xfd, 0x55, 0xef, 0xee, 0x7f, 0xaf, 0x52, 0xee, 0xad, 0x33, 0xb4, 0x1e,
   0x70, 0xb5, 0x00, 0x04, 0xc0, 0x9b, 0xbe, 0x02, 0x94, 0x9a, 0x2c, 0x4a,
   0x64, 0xd2, 0xba, 0x00, 0x00, 0x00, 0x7f, 0xbf, 0xed, 0x57, 0xf5, 0xfd,
   0xff, 0xfd, 0xaf, 0xda, 0xbf, 0x2b, 0x9d, 0x54, 0xf5, 0xa7, 0x4b, 0x00,
   0x00, 0xc0, 0x57, 0xbb, 0x00, 0x40, 0x22, 0x89, 0x60, 0xdf, 0xe8, 0x6b,
   0x00, 0x00, 0x00, 0xff, 0xff, 0xbf, 0xff, 0x85, 0x6f, 0xdb, 0xef, 0x5b,
   0xb5, 0x7a, 0xaf, 0xbb, 0x50, 0x95, 0x54, 0x1b, 0x00, 0x00, 0x00, 0x6e,
   0x7f, 0x40, 0x90, 0x54, 0xa9, 0xc4, 0xbe, 0xa9, 0xd6, 0x00, 0x00, 0x00,
   0xf5, 0xfb, 0xff, 0xee, 0x6a, 0xfb, 0xff, 0x7f, 0x2d, 0xfd, 0xff, 0xaa,
   0x5e, 0xaa, 0x60, 0x43, 0x03, 0x00, 0x00, 0x00, 0xdb, 0x17, 0x00, 0x80,
   0x4a, 0x22, 0xba, 0x53, 0xd2, 0xaf, 0x00, 0x00, 0x00, 0x6f, 0xbf, 0xed,
   0xdf, 0x49, 0x6f, 0xbd, 0xfd, 0x57, 0xf5, 0xdb, 0xd2, 0x7d, 0x50, 0xcb,
   0x16, 0x5e, 0x10, 0x00, 0x00, 0xae, 0x16, 0x00, 0x00, 0x90, 0x44, 0x32,
   0x76, 0xd1, 0xbd, 0x00, 0x00, 0x00, 0xd0, 0xfa, 0xbf, 0xfd, 0xa5, 0xfe,
   0xf7, 0xef, 0xda, 0xbe, 0xbf, 0xea, 0xbf, 0x40, 0x49, 0x49, 0x01, 0x80,
   0x08, 0x00, 0xba, 0x01, 0x00, 0x89, 0x6a, 0x95, 0x8d, 0x52, 0x52, 0xd7,
   0x00, 0x00, 0x00, 0x04, 0xf5, 0xff, 0xbf, 0xab, 0x5b, 0xfd, 0xdf, 0xb5,
   0xff, 0x7e, 0xb5, 0x55, 0x49, 0x95, 0x0a, 0x0a, 0x00, 0x40, 0x00, 0xf6,
   0x03, 0x10, 0x00, 0x80, 0xb6, 0x29, 0x54, 0xa2, 0xbf, 0x00, 0x02, 0x00,
   0x10, 0xda, 0xb6, 0xf6, 0x4a, 0xfd, 0x6f, 0x7f, 0xab, 0xfd, 0xab, 0xfe,
   0x7e, 0xa0, 0x6a, 0x51, 0x55, 0x00, 0x00, 0x00, 0xbc, 0x00, 0x00, 0x11,
   0xd5, 0x4a, 0x84, 0x32, 0x81, 0x16, 0x00, 0x00, 0x00, 0xa1, 0xf4, 0xff,
   0xee, 0x57, 0x57, 0xfd, 0x7b, 0xab, 0xdb, 0xaf, 0xaa, 0xff, 0x82, 0x4a,
   0x02, 0x05, 0x00, 0x00, 0x00, 0xf8, 0x80, 0x00, 0x20, 0x28, 0x5d, 0x49,
   0x4a, 0xaa, 0x3e, 0x00, 0x00, 0x00, 0x00, 0xfb, 0xdf, 0xbd, 0xa8, 0xaa,
   0x7f, 0xdf, 0xea, 0x7f, 0x57, 0xfd, 0xed, 0xa0, 0x96, 0x2a, 0x00, 0x80,
   0x00, 0x24, 0x2d, 0x08, 0x00, 0x80, 0xa0, 0x76, 0xd5, 0x1b, 0xe0, 0x2b,
   0x00, 0x00, 0x00, 0x54, 0xaa, 0xbd, 0xfa, 0xab, 0x56, 0xed, 0x5f, 0xb5,
   0xff, 0x2b, 0xbb, 0xff, 0x85, 0x2c, 0x54, 0x2a, 0x15, 0x44, 0x80, 0x58,
   0x01, 0x10, 0x01, 0x42, 0xfd, 0x7f, 0xbf, 0x80, 0x3e, 0x00, 0x00, 0x00,
   0x80, 0xf6, 0xff, 0xad, 0x74, 0xad, 0xff, 0xbe, 0xfa, 0x56, 0xc5, 0xfe,
   0xde, 0x00, 0xa1, 0xa4, 0xa0, 0x00, 0x01, 0x10, 0x3f, 0x00, 0x42, 0x08,
   0x50, 0x6b, 0xfb, 0x2d, 0x6a, 0x2b, 0x00, 0x00, 0x00, 0xa9, 0xb6, 0xff,
   0xfb, 0xa5, 0xa9, 0xfa, 0x7b, 0xeb, 0xdf, 0x17, 0xdb, 0xfb, 0x27, 0xac,
   0x14, 0x15, 0x15, 0x00, 0x42, 0xd4, 0x15, 0x00, 0x01, 0x40, 0x55, 0xaf,
   0xfb, 0xc0, 0x1e, 0x00, 0x40, 0x00, 0x80, 0xda, 0x6d, 0xb7, 0x5a, 0xa5,
   0xdf, 0xaf, 0xfe, 0xab, 0x6a, 0x7f, 0xdf, 0x82, 0xaa, 0x42, 0x22, 0x00,
   0x10, 0xa8, 0x3d, 0x00, 0x00, 0xa8, 0xa8, 0xeb, 0x5b, 0x35, 0xb5, 0x15,
   0x00, 0x20, 0x00, 0x92, 0xbe, 0xff, 0xbf, 0xd5, 0xaa, 0x7e, 0xbf, 0x57,
   0x5f, 0x89, 0xf6, 0xfe, 0x0a, 0x68, 0x05, 0x85, 0x90, 0x82, 0x20, 0xe5,
   0x2a, 0x01, 0x00, 0x52, 0x7e, 0x7f, 0x75, 0xb5, 0x1e, 0x00, 0x10, 0x00,
   0x48, 0xf5, 0xfe, 0x77, 0x75, 0xc1, 0xfb, 0xab, 0xee, 0x55, 0x64, 0xff,
   0x3b, 0x55, 0x51, 0x28, 0x74, 0x55, 0x24, 0xca, 0x5e, 0x01, 0x20, 0x00,
   0xa0, 0xcb, 0x6a, 0xeb, 0x5b, 0x09, 0x00, 0x04, 0x00, 0x52, 0xdd, 0x6f,
   0xff, 0x6a, 0x15, 0xff, 0xd7, 0xd5, 0x56, 0x91, 0x5e, 0x5f, 0x17, 0x10,
   0xab, 0x40, 0xa7, 0x40, 0x90, 0x5d, 0x2b, 0x02, 0x09, 0x0c, 0x1a, 0x6d,
   0xad, 0xff, 0x03, 0x00, 0x02, 0x00, 0xa4, 0x6a, 0xfd, 0xbf, 0x6a, 0x61,
   0xb7, 0xaa, 0x7b, 0x9b, 0xac, 0xfb, 0xb5, 0x2e, 0x41, 0x05, 0x5a, 0x51,
   0x0a, 0x7d, 0xbb, 0x04, 0x00, 0x50, 0xb0, 0xa2, 0xe8, 0xd2, 0xb6, 0x1e,
   0x40, 0x00, 0x00, 0x54, 0xef, 0xff, 0xf7, 0xd5, 0x44, 0xfe, 0xb5, 0xd6,
   0x76, 0x21, 0xb7, 0xb5, 0x5c, 0x00, 0x68, 0x94, 0x12, 0x69, 0x6b, 0xd5,
   0x49, 0x24, 0x22, 0x81, 0x14, 0x81, 0x52, 0xed, 0x7a, 0x18, 0x00, 0x00,
   0xd5, 0xba, 0xb6, 0x7d, 0x5d, 0x82, 0x7b, 0xe9, 0xad, 0x9a, 0xaa, 0x7d,
   0x8d, 0x3a, 0x55, 0x82, 0x77, 0xec, 0xaa, 0x95, 0x54, 0x0b, 0x81, 0xd0,
   0x24, 0x40, 0x04, 0x80, 0x56, 0xab, 0x01, 0x00, 0x00, 0xd5, 0xf6, 0xfe,
   0xff, 0xf5, 0x28, 0xee, 0xa5, 0x5d, 0xb3, 0x22, 0xab, 0x3f, 0xb4, 0x08,
   0x10, 0x65, 0xd5, 0xb7, 0x92, 0x20, 0x5d, 0x12, 0x82, 0x15, 0x09, 0x28,
   0x95, 0x54, 0x0a, 0x03, 0x00, 0x00, 0x54, 0xfb, 0xfb, 0xb7, 0x5a, 0xa3,
   0x3f, 0x7a, 0xd5, 0x56, 0xc5, 0x6e, 0x4b, 0x67, 0x83, 0xc4, 0x9c, 0x6a,
   0x6d, 0x09, 0x8a, 0xaa, 0x48, 0x08, 0x4a, 0xa0, 0x40, 0x64, 0xab, 0x03,
   0x04, 0x00, 0x00, 0x6b, 0xb7, 0x6f, 0xff, 0xb6, 0xaa, 0x7e, 0xe9, 0xae,
   0x2d, 0x94, 0x65, 0x17, 0xd4, 0x13, 0x00, 0xc0, 0x5b, 0x5b, 0x51, 0x00,
   0x6a, 0x09, 0x5b, 0x08, 0x84, 0x8a, 0x44, 0x5b, 0x01, 0x18, 0x00, 0x00,
   0xaa, 0xfa, 0xfb, 0xff, 0x2d, 0xd1, 0x77, 0xfd, 0xab, 0xeb, 0xc9, 0xda,
   0x56, 0x79, 0x4e, 0x88, 0xb2, 0xd5, 0x56, 0x04, 0x95, 0xa8, 0x52, 0xb4,
   0xa6, 0x48, 0x20, 0xd0, 0x56, 0x01, 0x20, 0x00, 0x00, 0xef, 0x57, 0xff,
   0x6d, 0x59, 0xa4, 0x7f, 0x69, 0x6f, 0x0b, 0xa9, 0x3a, 0x07, 0x68, 0x1d,
   0x00, 0xa0, 0x5b, 0x95, 0x20, 0x00, 0x41, 0xa7, 0xaa, 0x09, 0xa9, 0x45,
   0xa5, 0xaa, 0x00, 0x40, 0x00, 0x00, 0x5a, 0xfd, 0xef, 0xff, 0x2d, 0xe9,
   0xae, 0xf5, 0x5d, 0x8b, 0x74, 0xaf, 0x15, 0x97, 0x47, 0x11, 0x54, 0xaf,
   0x56, 0x15, 0x49, 0x94, 0xda, 0xda, 0x22, 0x22, 0x09, 0xe8, 0xd5, 0x00,
   0x80, 0x01, 0x00, 0xf5, 0xab, 0xbd, 0xff, 0x3d, 0xd4, 0xbf, 0xfe, 0xbb,
   0x15, 0xb4, 0x5a, 0x55, 0xac, 0xad, 0x42, 0x60, 0xfd, 0xaa, 0x2a, 0x09,
   0x91, 0xda, 0xb5, 0x4a, 0x08, 0x51, 0x2d, 0x93, 0x00, 0x00, 0x01, 0x00,
   0xad, 0xfe, 0xff, 0xb6, 0xa6, 0xf4, 0x56, 0xab, 0x6f, 0xa2, 0xd4, 0xae,
   0x43, 0x71, 0xfa, 0x08, 0x5a, 0xb6, 0x57, 0xb5, 0x24, 0x02, 0xaa, 0x2d,
   0xa1, 0x25, 0x08, 0xfa, 0x64, 0x00, 0x00, 0x04, 0x00, 0xfb, 0xb5, 0xfb,
   0xff, 0x15, 0xe9, 0x5f, 0x7f, 0xfd, 0x8a, 0xb4, 0x95, 0x36, 0xaa, 0xfa,
   0x17, 0x00, 0xf5, 0xbd, 0xad, 0xaa, 0x56, 0xba, 0x6a, 0x25, 0x01, 0x61,
   0xb3, 0x29, 0x00, 0x00, 0x00, 0x00, 0xaa, 0xff, 0xdf, 0x6f, 0x4b, 0xbc,
   0xd5, 0xed, 0x57, 0x91, 0xda, 0xaa, 0x41, 0x54, 0x2d, 0x4f, 0x11, 0xfe,
   0x77, 0xdb, 0x56, 0x95, 0xa4, 0x92, 0x4a, 0x24, 0xd4, 0xa6, 0x2a, 0x00,
   0x00, 0x00, 0x00, 0xab, 0x6a, 0xff, 0xfe, 0x0a, 0xf1, 0x5f, 0x7f, 0xbd,
   0x92, 0x5a, 0x2d, 0x9d, 0x5c, 0xd5, 0x6f, 0x42, 0xaa, 0xff, 0xdf, 0xaa,
   0xaa, 0xaa, 0x6a, 0x55, 0xa9, 0x94, 0x4d, 0x0a, 0x00, 0x00, 0x00, 0x00,
   0xff, 0xbf, 0xfb, 0xbf, 0x2a, 0xbd, 0xaa, 0xdb, 0x57, 0x55, 0xaf, 0x5a,
   0x13, 0xb2, 0xab, 0xf6, 0x02, 0xf5, 0xee, 0x76, 0xdb, 0xb6, 0xaa, 0x52,
   0x95, 0x5a, 0x65, 0x29, 0x3d, 0x00, 0x00, 0x00, 0x00, 0x55, 0xf5, 0xdf,
   0xf7, 0x25, 0xf5, 0x5f, 0xff, 0x56, 0x90, 0x7a, 0x5b, 0x56, 0xb6, 0x56,
   0xd5, 0x2f, 0x48, 0xfd, 0xff, 0xdf, 0xd6, 0x5e, 0x55, 0x75, 0x67, 0x0d,
   0x22, 0x44, 0x00, 0x00, 0x00, 0x00, 0xff, 0xbf, 0x7f, 0x3f, 0xa5, 0xfe,
   0xa5, 0xdb, 0xaf, 0x65, 0xaf, 0xb6, 0x85, 0xd8, 0xb7, 0x72, 0xdb, 0x92,
   0xd4, 0xf6, 0xf6, 0xbf, 0xeb, 0xaa, 0xaf, 0x14, 0x90, 0x88, 0x81, 0x00,
   0x00, 0x00, 0x00, 0x77, 0x7f, 0xfb, 0xfe, 0x4a, 0xdb, 0x27, 0xbf, 0x2d,
   0xc9, 0x7b, 0x89, 0x56, 0xed, 0xdb, 0xd0, 0xfd, 0xb7, 0xda, 0xff, 0xbf,
   0x75, 0xff, 0x6b, 0x55, 0x41, 0x02, 0xa0, 0x06, 0x01, 0x00, 0x00, 0x00,
   0xdf, 0xed, 0xff, 0x77, 0xa9, 0xef, 0xed, 0xed, 0xa9, 0x74, 0x4f, 0x55,
   0x13, 0xb4, 0x2d, 0x25, 0xb5, 0xdf, 0xef, 0xdb, 0xff, 0xaf, 0x6f, 0x55,
   0x2d, 0x04, 0x90, 0x92, 0x05, 0x02, 0x00, 0x00, 0x00, 0xfe, 0xff, 0xef,
   0xff, 0xea, 0xde, 0xad, 0xff, 0x4b, 0xed, 0xbd, 0xaa, 0xaa, 0xf0, 0xbe,
   0x25, 0x6a, 0xbb, 0x58, 0x7f, 0x5b, 0x6d, 0xfd, 0xd7, 0xd5, 0x28, 0x02,
   0xa2, 0x1c, 0x04, 0x00, 0x00, 0x00, 0xb7, 0xdf, 0x7e, 0x6f, 0xd0, 0xff,
   0x7b, 0xbb, 0x55, 0x75, 0x57, 0x52, 0x15, 0x6a, 0x7f, 0x4b, 0xad, 0x5f,
   0x53, 0xf5, 0xed, 0xb6, 0x55, 0x54, 0x2b, 0x01, 0x48, 0xf5, 0x28, 0x08,
   0x00, 0x00, 0x00, 0xff, 0xfd, 0xff, 0xff, 0xd3, 0xdd, 0xeb, 0xfe, 0x55,
   0xf5, 0x96, 0xa4, 0x5c, 0xc0, 0x76, 0x1a, 0xb0, 0x7c, 0xab, 0xaa, 0xad,
   0x55, 0x5b, 0x41, 0x2a, 0x42, 0x48, 0xcd, 0x40, 0x10, 0x00, 0x00, 0x00,
   0x7f, 0xff, 0xfd, 0x2e, 0xe4, 0x7f, 0xff, 0x77, 0x89, 0xfa, 0x5b, 0x59,
   0x5b, 0x29, 0xbf, 0xb7, 0xaa, 0xf6, 0xae, 0x54, 0x55, 0xaa, 0x54, 0x04,
   0x29, 0x08, 0x50, 0x35, 0x80, 0x30, 0x00, 0x00, 0x00, 0xf7, 0xdb, 0xdb,
   0xff, 0xab, 0xfb, 0xb0, 0x6f, 0xb5, 0x6a, 0xaf, 0x52, 0xee, 0xa0, 0xaf,
   0x57, 0xc0, 0xea, 0xbd, 0x4a, 0xaa, 0x2a, 0xa5, 0x29, 0x82, 0x40, 0xb5,
   0xbb, 0x01, 0x01, 0x00, 0x00, 0x00, 0xff, 0xff, 0xff, 0x7d, 0xf5, 0xbf,
   0xef, 0xbf, 0x52, 0x7f, 0x99, 0x54, 0x35, 0x87, 0xfa, 0xae, 0x85, 0xda,
   0xef, 0x2a, 0x91, 0x44, 0x48, 0x86, 0x28, 0x08, 0xfa, 0x76, 0x03, 0x02,
   0x00, 0x00, 0x00, 0x7e, 0xbf, 0xff, 0xff, 0xea, 0xbf, 0xfd, 0xfd, 0x52,
   0x6f, 0x53, 0x25, 0x65, 0x24, 0xd6, 0x5f, 0x15, 0xad, 0xff, 0x4b, 0x92,
   0x48, 0x49, 0x7a, 0x41, 0x51, 0xcb, 0xef, 0x02, 0x00, 0x00, 0x00, 0x00,
   0xf7, 0xed, 0xdd, 0xb7, 0xbd, 0x7d, 0x6f, 0x6f, 0xe9, 0x7d, 0x59, 0x95,
   0x5a, 0x83, 0xfe, 0xbd, 0x22, 0x7a, 0xad, 0xad, 0x00, 0x02, 0x04, 0xe9,
   0x0e, 0xad, 0x7d, 0xad, 0x05, 0x04, 0x00, 0x00, 0x00, 0xff, 0xff, 0xff,
   0x7f, 0xfb, 0x77, 0xfd, 0x7f, 0x92, 0x77, 0xb5, 0xaa, 0xaa, 0x96, 0xa8,
   0xbf, 0x4f, 0xe0, 0xfd, 0x3f, 0x55, 0x90, 0x20, 0xa8, 0xff, 0xba, 0xaf,
   0x83, 0x07, 0x08, 0x00, 0x00, 0x00, 0xef, 0xdf, 0xbb, 0x7f, 0xfd, 0xbf,
   0xfe, 0x9e, 0xf4, 0xdf, 0x6a, 0x52, 0x55, 0x0b, 0xfa, 0xfd, 0x2a, 0xaa,
   0xdf, 0xd6, 0x00, 0x01, 0x04, 0x51, 0xd9, 0xff, 0xb5, 0x8c, 0x0d, 0x10,
   0x00, 0x00, 0x00, 0xde, 0xbd, 0x7f, 0xf7, 0x6d, 0xff, 0xed, 0x7b, 0x55,
   0xbb, 0xca, 0x46, 0x5d, 0x37, 0xa0, 0xef, 0xb7, 0x50, 0xfb, 0xbe, 0x0a,
   0x04, 0x00, 0x40, 0xb3, 0x7e, 0xef, 0x04, 0x1b, 0x00, 0x00, 0x00, 0x00,
   0xff, 0xff, 0xff, 0xbf, 0xff, 0x5b, 0xff, 0x8f, 0xe8, 0xad, 0xb8, 0x92,
   0xf4, 0x56, 0xa9, 0xfe, 0xee, 0x45, 0xed, 0xf5, 0x22, 0x20, 0x10, 0x92,
   0xd6, 0xd5, 0x55, 0x01, 0x26, 0x28, 0x00, 0x00, 0x00, 0xff, 0xfb, 0xf6,
   0xfe, 0xfd, 0x7f, 0xdd, 0x3a, 0xd9, 0xaf, 0xa2, 0x52, 0x95, 0x2b, 0x00,
   0xda, 0xbf, 0x15, 0xd8, 0xdf, 0x05, 0x00, 0x00, 0x00, 0x2a, 0x7d, 0xfd,
   0x16, 0x04, 0x40, 0x00, 0x00, 0x00, 0xdd, 0xdf, 0xff, 0xb7, 0x6f, 0xdf,
   0xff, 0x55, 0x6a, 0xa9, 0xb4, 0x8b, 0x6a, 0x55, 0x21, 0xfd, 0xf6, 0x56,
   0x75, 0xbb, 0x4a, 0x00, 0x00, 0x50, 0xe8, 0xd5, 0xb6, 0x3a, 0x58, 0x00,
   0x00, 0x00, 0x00, 0x7f, 0xff, 0xef, 0xff, 0xfe, 0x5d, 0xbb, 0x57, 0xf9,
   0xab, 0x64, 0x35, 0xca, 0x3b, 0x02, 0xea, 0xff, 0xaf, 0x40, 0xf7, 0x17,
   0x81, 0x10, 0x80, 0x88, 0xde, 0xf6, 0x16, 0x90, 0x00, 0x00, 0x00, 0x00,
   0xfb, 0x7b, 0xff, 0xde, 0xff, 0xaf, 0xff, 0x1a, 0xee, 0x36, 0xa9, 0x4a,
   0xb5, 0xba, 0x04, 0xd4, 0xb7, 0x5a, 0x55, 0x7f, 0x15, 0x08, 0x00, 0x00,
   0x20, 0xb1, 0xad, 0x0d, 0x10, 0x01, 0x00, 0x00, 0x00, 0xff, 0xff, 0xfe,
   0x5f, 0xdb, 0xbf, 0xf6, 0xe5, 0xdc, 0xd5, 0xaa, 0xba, 0x4a, 0xab, 0x4b,
   0xa0, 0xfe, 0xb7, 0x12, 0xf6, 0x6f, 0x01, 0x10, 0x01, 0x42, 0x44, 0x5b,
   0x0b, 0x60, 0x42, 0x00, 0x00, 0x00, 0xb7, 0xf7, 0xf7, 0xbb, 0xff, 0xb6,
   0xff, 0x0a, 0x7b, 0x2d, 0xd5, 0xaa, 0xaa, 0x7a, 0x05, 0xc0, 0xff, 0x6f,
   0x57, 0xfd, 0x55, 0x08, 0x00, 0x00, 0x10, 0x91, 0x54, 0x07, 0xa0, 0x00,
   0x02, 0x00, 0x00, 0xff, 0xff, 0xbf, 0xff, 0xfe, 0xaf, 0xaa, 0xab, 0x7e,
   0x79, 0x95, 0xb5, 0x6a, 0xeb, 0x95, 0x00, 0xd8, 0x7e, 0x55, 0xa0, 0xff,
   0x23, 0x00, 0x00, 0x00, 0x24, 0xd5, 0x06, 0xa0, 0x85, 0x00, 0x00, 0x00,
   0x7f, 0x6f, 0xef, 0xaf, 0xf7, 0xff, 0xbf, 0x92, 0x57, 0xad, 0xaa, 0xae,
   0xda, 0xae, 0x16, 0x00, 0xf5, 0xff, 0x57, 0xd5, 0xdf, 0x0a, 0x00, 0x10,
   0x40, 0x92, 0xfa, 0x0d, 0x00, 0x01, 0x04, 0x00, 0x00, 0xf6, 0xfe, 0xfe,
   0xfe, 0x6f, 0xab, 0xb7, 0x92, 0x5e, 0xda, 0xaa, 0xf9, 0x93, 0x6c, 0xad,
   0x04, 0xc0, 0xed, 0xbf, 0x52, 0xfa, 0x57, 0x02, 0x80, 0x08, 0x40, 0xb4,
   0x7f, 0x00, 0x02, 0x00, 0x00, 0x00, 0xff, 0xff, 0xff, 0xbf, 0xff, 0xff,
   0x7a, 0xa1, 0xab, 0xbd, 0x2d, 0x55, 0xaa, 0xda, 0x3b, 0x10, 0x54, 0xbf,
   0x7d, 0x49, 0x45, 0x5d, 0x90, 0x00, 0x20, 0x95, 0xff, 0x2b, 0x00, 0x04,
   0x00, 0x00, 0x00, 0xff, 0xed, 0xdf, 0xef, 0xfe, 0x8f, 0xa7, 0x24, 0x2f,
   0xb5, 0x6d, 0xed, 0x02, 0x54, 0x75, 0x43, 0x80, 0xfd, 0x77, 0x53, 0x55,
   0xfb, 0x02, 0x00, 0x21, 0x22, 0xb5, 0x2f, 0x00, 0x08, 0x08, 0x00, 0x00,
   0xdb, 0x7f, 0xfb, 0x9e, 0xb7, 0xf5, 0x5a, 0xd0, 0x4a, 0xdf, 0x96, 0xa8,
   0x54, 0x51, 0xeb, 0x08, 0x20, 0xba, 0xff, 0x0d, 0x40, 0xd4, 0x44, 0x02,
   0x40, 0xac, 0xfe, 0x55, 0x40, 0x30, 0x00, 0x00, 0x00, 0xff, 0xff, 0xff,
   0xbf, 0xfe, 0xff, 0x97, 0xd2, 0x55, 0xba, 0x59, 0xe3, 0x12, 0xa2, 0xaa,
   0x93, 0x44, 0xe4, 0xee, 0x7b, 0x15, 0xa9, 0x8d, 0x10, 0x89, 0xe8, 0xdb,
   0x55, 0x40, 0x10, 0x00, 0x00, 0x00, 0xbf, 0xed, 0xef, 0xad, 0x7f, 0x53,
   0x29, 0x68, 0x9f, 0x6d, 0xd5, 0xac, 0x42, 0x88, 0x6b, 0x57, 0x00, 0xd2,
   0xfd, 0xbf, 0x48, 0x02, 0x55, 0x02, 0xa0, 0x56, 0xfd, 0x6a, 0x40, 0x20,
   0x00, 0x00, 0x00, 0xfb, 0xff, 0xfe, 0x7f, 0xf7, 0xef, 0x55, 0xe9, 0x24,
   0xdd, 0x9b, 0x4a, 0x15, 0x21, 0x5a, 0xb7, 0x4b, 0x80, 0xba, 0xf7, 0x4b,
   0x28, 0x90, 0x94, 0x8a, 0xfa, 0xfb, 0x22, 0x00, 0x40, 0x00, 0x00, 0x00,
   0xff, 0xdf, 0xdf, 0xdf, 0xff, 0x15, 0x09, 0x7a, 0x9b, 0xb7, 0x6c, 0xaa,
   0xa0, 0x94, 0xa4, 0xaa, 0x16, 0x12, 0xed, 0xbf, 0x25, 0x05, 0xa2, 0x20,
   0xa5, 0xd7, 0xef, 0x3d, 0x00, 0x80, 0x20, 0x00, 0x00, 0xdf, 0xfd, 0xfd,
   0xfd, 0xde, 0x7f, 0x43, 0x75, 0x25, 0x5c, 0x59, 0x15, 0x0a, 0x90, 0x48,
   0x7a, 0x5d, 0x10, 0xb8, 0xfd, 0x5f, 0x4a, 0x04, 0x55, 0xb4, 0x7e, 0x5f,
   0x11, 0x00, 0x80, 0x21, 0x00, 0x00, 0xfb, 0xff, 0xbf, 0xaf, 0xff, 0x6d,
   0x08, 0xda, 0xca, 0x6b, 0x57, 0x55, 0xa0, 0x22, 0x92, 0xe2, 0x2b, 0x45,
   0xd5, 0xef, 0xb7, 0x14, 0x20, 0xa4, 0x76, 0xf7, 0xbd, 0x4e, 0x80, 0x00,
   0x21, 0x00, 0x00, 0xbf, 0xb7, 0xfb, 0xbf, 0xdb, 0xfb, 0x49, 0xba, 0x0d,
   0x6d, 0x55, 0x95, 0x02, 0x84, 0x92, 0x4a, 0x7b, 0x11, 0x90, 0xde, 0xbe,
   0x61, 0x45, 0xa4, 0xea, 0xee, 0x55, 0x48, 0x00, 0x00, 0x02, 0x00, 0x00,
   0xff, 0xff, 0x7f, 0x5f, 0xff, 0x2b, 0x22, 0x6d, 0xb6, 0x5e, 0xfb, 0x4a,
   0x04, 0x68, 0x21, 0x55, 0xad, 0x46, 0xa2, 0xfa, 0x7f, 0x5e, 0x00, 0x40,
   0xb5, 0xbf, 0x17, 0x4d, 0x80, 0x00, 0x40, 0x00, 0x00, 0xf6, 0xfd, 0xf6,
   0xfb, 0x7e, 0x6b, 0x80, 0xce, 0xbe, 0x75, 0x92, 0x97, 0xa4, 0x80, 0x06,
   0x40, 0xdb, 0xab, 0xa4, 0xf6, 0xfb, 0xd1, 0x35, 0x09, 0xa5, 0xba, 0x24,
   0x04, 0x80, 0x00, 0x00, 0x00, 0x00, 0xbf, 0xaf, 0xff, 0x4f, 0xdb, 0xad,
   0xaa, 0x5e, 0x8b, 0x5e, 0x75, 0x6d, 0x00, 0x54, 0x2a, 0x15, 0x74, 0x2d,
   0x81, 0xc8, 0xff, 0x57, 0x95, 0x00, 0xf4, 0x2f, 0x82, 0x02, 0x80, 0x00,
   0x00, 0x00, 0x00, 0xff, 0xbf, 0x7d, 0xbf, 0xfe, 0x2b, 0xa0, 0xd2, 0xfe,
   0x5b, 0x85, 0xdd, 0x95, 0x00, 0x51, 0x80, 0xe8, 0x7f, 0x2b, 0x15, 0x6d,
   0x9f, 0xb7, 0x0a, 0x00, 0x55, 0x08, 0x86, 0x80, 0x00, 0x02, 0x00, 0x00,
   0x7b, 0x77, 0xf7, 0xaf, 0xde, 0xae, 0x54, 0xaf, 0x85, 0xae, 0x58, 0x5b,
   0x02, 0x40, 0x2a, 0x25, 0x42, 0xeb, 0x55, 0x74, 0xfb, 0x3b, 0x5f, 0x41,
   0xa0, 0x0a, 0xa4, 0x82, 0x80, 0x00, 0x00, 0x00, 0x00, 0xf7, 0xef, 0xfe,
   0xbe, 0xdd, 0x17, 0xa0, 0x54, 0xdf, 0xbd, 0x53, 0xea, 0x9a, 0x04, 0xa0,
   0x44, 0x88, 0xbe, 0xbf, 0x45, 0xd2, 0x7f, 0xfc, 0x05, 0x02, 0xa0, 0x8c,
   0x83, 0x80, 0x00, 0x08, 0x00, 0x00, 0xff, 0xbe, 0xef, 0x77, 0xff, 0xaa,
   0xa0, 0xd5, 0xfd, 0xf7, 0x8a, 0xa8, 0x21, 0x00, 0x8a, 0x12, 0x52, 0xd5,
   0x6a, 0x25, 0xa5, 0xfb, 0xfd, 0x13, 0x00, 0x09, 0xbd, 0xe8, 0x80, 0x00,
   0x00, 0x00, 0x00, 0xef, 0xff, 0xfd, 0xd7, 0xaf, 0x15, 0x49, 0x93, 0xb5,
   0xd8, 0x9f, 0xa0, 0xaf, 0x24, 0x80, 0xa4, 0x80, 0x50, 0xed, 0x6f, 0x04,
   0xee, 0x51, 0x5f, 0x00, 0x21, 0x15, 0xb0, 0x40, 0x00, 0x00, 0x00, 0x00 };
