#define venus_2_0_width 200
#define venus_2_0_height 96
static unsigned char venus_2_0_bits[] = {
   0x00, 0x00, 0x54, 0xb5, 0xd2, 0x96, 0xf5, 0x2a, 0x5a, 0xb5, 0x8a, 0x2a,
   0x4a, 0xa9, 0x4a, 0x48, 0x03, 0x00, 0x44, 0x16, 0xa1, 0xac, 0x8a, 0x20,
   0x00, 0x00, 0x00, 0x44, 0xb5, 0x4a, 0x65, 0x15, 0x2a, 0x55, 0xef, 0x6a,
   0x24, 0x54, 0x92, 0x95, 0x12, 0x01, 0x00, 0x98, 0x14, 0x06, 0x09, 0x28,
   0x02, 0x00, 0x00, 0x00, 0x4a, 0xb5, 0xb2, 0x0a, 0x60, 0x80, 0xaa, 0xbd,
   0x1a, 0xa9, 0x82, 0x4b, 0x64, 0x2d, 0x00, 0x00, 0x20, 0x02, 0x48, 0x24,
   0x41, 0xa9, 0x00, 0x00, 0x80, 0xb4, 0x4a, 0xb5, 0x94, 0x6d, 0x21, 0xd4,
   0xea, 0x35, 0x25, 0xac, 0x90, 0xad, 0xa4, 0x00, 0x00, 0xa8, 0x24, 0x8a,
   0x10, 0x0d, 0x02, 0x00, 0x00, 0x00, 0x55, 0xb5, 0x0a, 0x89, 0x02, 0x04,
   0x53, 0x5d, 0xeb, 0x4a, 0x51, 0xa5, 0x55, 0x4b, 0x00, 0x00, 0x44, 0x01,
   0x24, 0x41, 0x20, 0x90, 0x02, 0x00, 0x00, 0xb5, 0xb6, 0x4a, 0x29, 0x08,
   0x00, 0x08, 0xb9, 0xd6, 0xaa, 0x56, 0xaa, 0x55, 0x54, 0x00, 0x00, 0x2a,
   0xa5, 0x20, 0x8d, 0x82, 0x20, 0x00, 0x00, 0x80, 0x4a, 0x75, 0x85, 0x08,
   0x28, 0x28, 0xc0, 0xae, 0xed, 0xb6, 0xaa, 0xb5, 0x55, 0x13, 0x81, 0x12,
   0x29, 0x17, 0xa9, 0x94, 0x24, 0x88, 0x02, 0x00, 0x40, 0xad, 0x8a, 0x0a,
   0x65, 0x01, 0x02, 0x02, 0xe9, 0x5b, 0x5b, 0x5b, 0x0a, 0xa9, 0x0c, 0x0a,
   0x40, 0x48, 0x49, 0x40, 0x40, 0x08, 0x02, 0x04, 0x00, 0x40, 0x35, 0xb5,
   0x42, 0x24, 0x64, 0x40, 0x20, 0x48, 0xab, 0xf6, 0xb6, 0xeb, 0x55, 0x23,
   0x91, 0x08, 0x42, 0x12, 0x09, 0x8d, 0x42, 0x94, 0x04, 0x00, 0xa0, 0x4a,
   0x55, 0xaa, 0x52, 0x01, 0x00, 0x04, 0xb1, 0xdf, 0xad, 0x6b, 0x2a, 0xaa,
   0x88, 0x4a, 0xaa, 0x96, 0xa9, 0x28, 0x20, 0x0c, 0x01, 0x08, 0x00, 0xa0,
   0xb5, 0xca, 0x14, 0x52, 0x24, 0x09, 0x00, 0x20, 0x7f, 0x55, 0xd6, 0xd5,
   0xd5, 0x80, 0x90, 0x00, 0x10, 0x29, 0x41, 0x4d, 0x51, 0x51, 0x02, 0x00,
   0xa0, 0xb2, 0x32, 0x49, 0x04, 0x11, 0x00, 0x48, 0x82, 0xda, 0x6d, 0xaa,
   0xb5, 0xaa, 0x14, 0x4b, 0x54, 0x21, 0x56, 0x29, 0x2a, 0x2d, 0x02, 0x04,
   0x00, 0x60, 0xa5, 0x4a, 0xa5, 0x14, 0x02, 0x91, 0x00, 0x80, 0xfa, 0xab,
   0xbb, 0x2a, 0x2a, 0x50, 0x80, 0x00, 0x44, 0xa8, 0x4a, 0x25, 0x4d, 0xad,
   0x08, 0x00, 0x98, 0x52, 0x95, 0x08, 0x61, 0x08, 0x04, 0x00, 0x04, 0x2f,
   0xef, 0x75, 0xd5, 0x55, 0x8b, 0x14, 0x24, 0x90, 0x56, 0xa9, 0xaa, 0xb2,
   0x22, 0x02, 0x00, 0x45, 0x4d, 0x35, 0x89, 0x28, 0x02, 0x00, 0x00, 0x00,
   0xd6, 0xaf, 0x5e, 0x56, 0x49, 0xa4, 0x2a, 0x08, 0x04, 0x05, 0xa9, 0x55,
   0x09, 0x15, 0x09, 0x00, 0x52, 0xc5, 0x52, 0xaa, 0x42, 0x08, 0x45, 0x02,
   0x42, 0x38, 0xb5, 0xea, 0x55, 0x53, 0x85, 0x00, 0xa0, 0x20, 0x00, 0x54,
   0x0a, 0x50, 0x50, 0x22, 0x40, 0x55, 0x4b, 0x45, 0x11, 0xaa, 0x02, 0x10,
   0x48, 0x10, 0xe8, 0xaa, 0x5f, 0x96, 0x44, 0x28, 0xab, 0x08, 0x8a, 0x04,
   0x80, 0x00, 0x00, 0x2d, 0xa8, 0x40, 0xa4, 0xfa, 0x4a, 0xb2, 0x08, 0x94,
   0x00, 0x00, 0x00, 0xe1, 0xb6, 0x69, 0x95, 0x55, 0x53, 0x24, 0x42, 0x10,
   0x15, 0x00, 0x10, 0x00, 0xd0, 0x82, 0x40, 0xe3, 0x2a, 0xaa, 0x2a, 0xa5,
   0x00, 0x02, 0x00, 0x42, 0xa8, 0xad, 0x55, 0x55, 0x4a, 0xab, 0xa8, 0x09,
   0x46, 0x40, 0x00, 0x40, 0x08, 0x20, 0x21, 0x40, 0x62, 0xf5, 0x28, 0x51,
   0xa4, 0x0a, 0x24, 0x09, 0x00, 0x20, 0x6b, 0xca, 0x55, 0x5a, 0xab, 0x14,
   0x53, 0x08, 0x06, 0x01, 0x08, 0x02, 0x80, 0x4a, 0x20, 0xdd, 0x3d, 0x55,
   0x2a, 0x49, 0x20, 0x00, 0x40, 0x04, 0x40, 0xaf, 0x95, 0x95, 0x55, 0xad,
   0xa4, 0x24, 0xa1, 0x50, 0x00, 0x51, 0x00, 0x80, 0x1a, 0x40, 0x22, 0x75,
   0xb5, 0x52, 0x22, 0x45, 0x49, 0x01, 0x88, 0x44, 0xed, 0x5b, 0xb6, 0xab,
   0x54, 0xab, 0x44, 0x00, 0x84, 0x24, 0x84, 0x02, 0x00, 0xa5, 0x90, 0xe6,
   0x3b, 0x29, 0x84, 0x54, 0x10, 0x00, 0x04, 0x00, 0x80, 0xbd, 0x56, 0xaa,
   0x5a, 0x6b, 0x4b, 0x28, 0x89, 0x0a, 0x90, 0x2a, 0x00, 0x00, 0x5a, 0x40,
   0xf3, 0x1a, 0x45, 0x42, 0x54, 0x10, 0x80, 0xa4, 0xc2, 0x00, 0x5d, 0xde,
   0xeb, 0xa9, 0xbc, 0x57, 0x4b, 0x45, 0x22, 0x54, 0x81, 0x22, 0x00, 0x40,
   0x50, 0x55, 0x73, 0x8a, 0x0a, 0x51, 0x85, 0x12, 0x2d, 0x88, 0x92, 0xfb,
   0xaa, 0x4e, 0x55, 0x51, 0xbb, 0x54, 0x0a, 0x46, 0x01, 0x00, 0x08, 0x00,
   0x00, 0x58, 0x59, 0xbd, 0x24, 0xb2, 0x24, 0x08, 0xc0, 0x12, 0x02, 0x00,
   0x56, 0x5d, 0xd9, 0xfb, 0x96, 0xed, 0x54, 0xa5, 0x80, 0x00, 0x00, 0x55,
   0x00, 0x00, 0x48, 0x79, 0x39, 0xb5, 0x84, 0x84, 0x62, 0xaa, 0x02, 0x20,
   0xa0, 0xd4, 0xd3, 0x55, 0x26, 0x35, 0x94, 0xaf, 0x0a, 0x28, 0x01, 0x00,
   0x84, 0x00, 0x00, 0xa0, 0x9a, 0x4a, 0x29, 0x29, 0x29, 0x09, 0x51, 0x24,
   0x02, 0x02, 0xb9, 0xad, 0xb5, 0xa9, 0xaa, 0x74, 0x55, 0x49, 0x00, 0x02,
   0x00, 0x28, 0x02, 0x00, 0xa0, 0x54, 0xad, 0xb2, 0x52, 0x02, 0x12, 0xb4,
   0x04, 0x08, 0x00, 0xd2, 0xb5, 0x55, 0xaa, 0xaa, 0x82, 0x5a, 0x49, 0x49,
   0x06, 0x00, 0x40, 0x00, 0x00, 0x50, 0x5d, 0xb5, 0x2a, 0x2a, 0x55, 0x49,
   0x15, 0x10, 0x21, 0x49, 0xb5, 0x5b, 0x52, 0x52, 0x2b, 0xab, 0xac, 0x2a,
   0x10, 0x80, 0x04, 0x28, 0x01, 0x00, 0x50, 0xa5, 0xb4, 0x54, 0x51, 0x28,
   0x91, 0x2a, 0x25, 0x44, 0x00, 0x68, 0x6a, 0x56, 0x4a, 0x54, 0x04, 0xbb,
   0x8a, 0xa2, 0x16, 0x50, 0x20, 0x02, 0x00, 0x40, 0xa6, 0x44, 0x8a, 0x52,
   0x89, 0x90, 0x10, 0x22, 0x85, 0x00, 0xe2, 0xab, 0x55, 0x95, 0xa8, 0x4a,
   0xea, 0x29, 0xa5, 0x44, 0x92, 0x92, 0x02, 0x00, 0x50, 0x5b, 0xbb, 0x44,
   0x04, 0x2a, 0x65, 0x42, 0x09, 0x52, 0x4a, 0xc9, 0xd6, 0xad, 0x89, 0x54,
   0x25, 0xab, 0x46, 0x10, 0x15, 0x00, 0x44, 0x12, 0x00, 0x80, 0x5a, 0x53,
   0x49, 0x45, 0x81, 0x08, 0x08, 0xea, 0xd4, 0x40, 0x88, 0xbd, 0x5a, 0x92,
   0x50, 0x14, 0x54, 0x57, 0x47, 0x52, 0xa1, 0x08, 0x44, 0x01, 0x60, 0x9b,
   0x8a, 0x86, 0x28, 0x2a, 0x65, 0x21, 0xc9, 0x37, 0x8b, 0xa0, 0xab, 0xb5,
   0x0a, 0xad, 0xa4, 0x54, 0x09, 0x90, 0x20, 0x15, 0xa2, 0x08, 0x24, 0xc0,
   0xea, 0xba, 0x28, 0x55, 0x89, 0x24, 0x0a, 0x6a, 0x00, 0x2a, 0x84, 0xbd,
   0x55, 0x52, 0x50, 0x0b, 0xb1, 0x76, 0xa5, 0x48, 0x40, 0x12, 0xad, 0x00,
   0x30, 0xb7, 0x9b, 0x56, 0xbd, 0x12, 0x09, 0xa0, 0x9a, 0xff, 0xa8, 0x10,
   0x73, 0xb5, 0x24, 0xab, 0x54, 0xa4, 0x8e, 0x10, 0x95, 0x92, 0x00, 0x10,
   0x25, 0xd0, 0xbc, 0xb6, 0xc4, 0xf2, 0x0b, 0x49, 0x41, 0x5a, 0xaf, 0x2f,
   0x21, 0xee, 0xe5, 0x4d, 0x95, 0x54, 0xa0, 0x6a, 0xa9, 0x22, 0x10, 0x29,
   0x40, 0x00, 0x50, 0x6b, 0x3b, 0xb5, 0xaf, 0x56, 0x12, 0x14, 0xe5, 0x57,
   0x00, 0x88, 0xd5, 0xab, 0x91, 0x54, 0x4b, 0x4b, 0x29, 0x11, 0x49, 0x0d,
   0x02, 0xa8, 0x5a, 0xa0, 0x6b, 0x6d, 0xa9, 0xa8, 0xb4, 0x64, 0x00, 0x3d,
   0x4f, 0x12, 0x80, 0xd7, 0xa5, 0xaa, 0x54, 0x5b, 0x11, 0xad, 0x50, 0xa8,
   0x56, 0x2c, 0x00, 0x01, 0xb8, 0xa6, 0x6c, 0x4a, 0x54, 0x95, 0x04, 0x82,
   0xae, 0x56, 0x25, 0x40, 0x9b, 0x65, 0x52, 0x6b, 0xac, 0x94, 0x90, 0x50,
   0xa9, 0x52, 0x52, 0x00, 0x04, 0x28, 0xa5, 0xf6, 0xba, 0xb5, 0x6a, 0x29,
   0x28, 0xd5, 0x4f, 0x00, 0x04, 0xf6, 0xab, 0xad, 0x24, 0x5a, 0xab, 0x4a,
   0x95, 0xd6, 0x92, 0x08, 0x00, 0x40, 0xa4, 0xa6, 0xcc, 0xb2, 0xb4, 0x6a,
   0x85, 0x00, 0xdb, 0x28, 0x09, 0x20, 0xae, 0xaa, 0x29, 0x8b, 0xaa, 0xa4,
   0x28, 0x6a, 0xa9, 0xb2, 0x25, 0x11, 0x40, 0x2a, 0xd9, 0xb6, 0x4a, 0xb5,
   0x9a, 0x12, 0x80, 0x2a, 0x25, 0x00, 0x84, 0xdb, 0xb5, 0x55, 0x29, 0xd4,
   0x4a, 0x49, 0x95, 0x2a, 0xad, 0x2a, 0x04, 0x0a, 0x64, 0x95, 0xea, 0xb5,
   0x4a, 0x75, 0x05, 0x25, 0xd2, 0x2a, 0x12, 0x10, 0xed, 0xa7, 0x55, 0x03,
   0x59, 0x55, 0xa9, 0x76, 0xa9, 0x44, 0xa5, 0x00, 0x90, 0x24, 0xdb, 0x4a,
   0xb5, 0xaa, 0xeb, 0x2a, 0x00, 0x89, 0x00, 0x80, 0x80, 0xb4, 0x54, 0x29,
   0x28, 0xb4, 0xaa, 0xaa, 0xc6, 0x12, 0x9a, 0x0a, 0x44, 0x45, 0x64, 0x9a,
   0xee, 0xb2, 0xaa, 0x7e, 0x85, 0x00, 0xb0, 0xaa, 0x02, 0x11, 0xb5, 0xab,
   0x54, 0x04, 0xa1, 0x2b, 0x69, 0x59, 0xa6, 0x54, 0xa6, 0x10, 0x00, 0x44,
   0x55, 0xcb, 0x55, 0xf5, 0x60, 0x0b, 0x12, 0x42, 0x00, 0x08, 0x40, 0x5e,
   0xac, 0x55, 0x51, 0x54, 0xd5, 0xae, 0x25, 0x89, 0x8a, 0x0c, 0xa1, 0xa4,
   0x5a, 0xa5, 0x7a, 0x43, 0xf3, 0x6f, 0x15, 0xa2, 0x00, 0x40, 0x11, 0x21,
   0x6d, 0x4a, 0x2d, 0x81, 0x92, 0x54, 0xaf, 0x82, 0x24, 0x21, 0x11, 0x10,
   0xe5, 0xa0, 0xaa, 0xca, 0x4f, 0xfb, 0x8d, 0x6b, 0x00, 0x90, 0x04, 0x00,
   0x80, 0xda, 0x96, 0x2a, 0x15, 0x00, 0xab, 0xb6, 0x28, 0x49, 0xa0, 0x6a,
   0x25, 0x91, 0xa4, 0x5a, 0xb5, 0xc2, 0xde, 0x65, 0x0a, 0x02, 0x02, 0x20,
   0x42, 0x22, 0xb5, 0x55, 0x5a, 0x81, 0x44, 0xaa, 0x56, 0x90, 0x20, 0x89,
   0x4c, 0xad, 0x2c, 0x58, 0x25, 0x75, 0x8f, 0xd4, 0x4d, 0x55, 0x48, 0x20,
   0x42, 0x04, 0x84, 0x74, 0xa5, 0x54, 0x14, 0x08, 0x48, 0x54, 0x91, 0x08,
   0x15, 0x51, 0x2d, 0x45, 0x50, 0xa5, 0x4a, 0xc6, 0x4b, 0x56, 0x15, 0x00,
   0x82, 0x00, 0x20, 0x00, 0xda, 0x55, 0xad, 0x43, 0x40, 0x93, 0x29, 0x20,
   0x51, 0x10, 0xa2, 0x52, 0x18, 0x40, 0xa5, 0xca, 0x8c, 0xe5, 0x9a, 0x6a,
   0x05, 0x08, 0x44, 0xc1, 0x24, 0xb2, 0x95, 0xb1, 0x1c, 0x05, 0x24, 0xd1,
   0x46, 0x90, 0x52, 0x2c, 0xa2, 0x01, 0x40, 0x5a, 0x35, 0x6b, 0xd5, 0x66,
   0x2a, 0x10, 0x20, 0x10, 0x04, 0x80, 0x6c, 0x66, 0x56, 0x45, 0x10, 0x50,
   0x28, 0x92, 0x25, 0x84, 0x48, 0x11, 0x42, 0x80, 0xa2, 0xca, 0x34, 0x55,
   0xad, 0x6a, 0x01, 0x41, 0x01, 0x08, 0x09, 0xe9, 0x8a, 0x50, 0x9b, 0xa0,
   0x40, 0xd5, 0x10, 0x4a, 0x29, 0x55, 0x42, 0x08, 0x00, 0xb0, 0x4b, 0x95,
   0xb4, 0x22, 0x95, 0x80, 0x80, 0x80, 0xa2, 0x84, 0x75, 0x55, 0x48, 0x75,
   0x2a, 0x11, 0x40, 0xab, 0x14, 0xad, 0x54, 0x50, 0x00, 0x00, 0x64, 0x36,
   0xb5, 0x4a, 0x55, 0x15, 0x22, 0x24, 0x12, 0x08, 0x10, 0xe8, 0xab, 0x52,
   0x0b, 0x81, 0x42, 0xaa, 0x08, 0xa1, 0x0c, 0x21, 0xa3, 0xaa, 0x00, 0x60,
   0x55, 0x55, 0xb2, 0xa4, 0x94, 0x84, 0x40, 0xa0, 0x40, 0x81, 0xca, 0x2b,
   0x2a, 0xbb, 0x14, 0x08, 0x90, 0x51, 0x55, 0x51, 0x42, 0x8c, 0x04, 0x00,
   0xa0, 0xad, 0x4a, 0x55, 0x89, 0x6a, 0x40, 0x84, 0x0a, 0x02, 0x24, 0x71,
   0xed, 0xa5, 0x94, 0x40, 0xa3, 0x48, 0xae, 0x92, 0xa2, 0x50, 0x55, 0xa5,
   0x00, 0x60, 0x45, 0x52, 0x8a, 0x12, 0x69, 0x89, 0x28, 0x10, 0x14, 0x40,
   0xd2, 0x9b, 0x55, 0xab, 0x14, 0x08, 0x42, 0x56, 0x25, 0x2d, 0x53, 0x14,
   0x21, 0x00, 0xa0, 0xb5, 0xaa, 0xb4, 0x84, 0x6a, 0x00, 0x00, 0x42, 0x00,
   0x09, 0xc8, 0x76, 0x2a, 0x4b, 0xa5, 0x20, 0x08, 0x5d, 0x59, 0xad, 0x12,
   0x20, 0x52, 0x00, 0xf0, 0xaa, 0xaa, 0x32, 0x95, 0x6a, 0xa5, 0x12, 0x04,
   0x49, 0x10, 0x90, 0xd6, 0x55, 0x54, 0x45, 0x4a, 0x22, 0x52, 0xa7, 0xac,
   0x02, 0x40, 0xa4, 0x00, 0x58, 0x4b, 0xad, 0xaa, 0x24, 0x95, 0x00, 0xc0,
   0x10, 0x00, 0x01, 0xaa, 0xab, 0x4a, 0x93, 0x92, 0x90, 0x88, 0xa4, 0x58,
   0x21, 0x01, 0xa0, 0x00, 0x00, 0x58, 0xb5, 0x56, 0xb5, 0x54, 0x55, 0x21,
   0xd0, 0x40, 0x80, 0x02, 0xaa, 0x6b, 0x6a, 0x6b, 0x95, 0x54, 0x26, 0x48,
   0x54, 0x10, 0x00, 0x00, 0x04, 0x00, 0xe0, 0xba, 0x6d, 0x55, 0x65, 0x2a,
   0x05, 0x25, 0x09, 0x02, 0x90, 0x00, 0xd6, 0x56, 0x2b, 0x53, 0x8b, 0x0a,
   0x80, 0x0a, 0x82, 0x05, 0x00, 0x14, 0x00, 0x58, 0xb5, 0xca, 0xb2, 0x54,
   0x95, 0x52, 0xd5, 0x00, 0x28, 0x09, 0x55, 0xbe, 0xdb, 0xaa, 0x54, 0x2a,
   0xa6, 0x28, 0x24, 0x00, 0x14, 0x00, 0x00, 0x00, 0x50, 0xab, 0xeb, 0xb5,
   0x6a, 0x95, 0x44, 0xbe, 0x12, 0x41, 0x40, 0x10, 0xe8, 0xb7, 0xaf, 0xaa,
   0xab, 0xa8, 0x00, 0x41, 0x01, 0x08, 0x00, 0x04, 0x00, 0xde, 0x4a, 0x4e,
   0x2b, 0x09, 0x75, 0x0b, 0x41, 0x00, 0x08, 0x11, 0xa2, 0xde, 0xda, 0xa8,
   0x54, 0x54, 0x15, 0x52, 0x16, 0x04, 0x50, 0x00, 0x20, 0x00, 0xa0, 0xca,
   0xfa, 0xb5, 0x6a, 0x6a, 0x2a, 0x09, 0x24, 0x41, 0x02, 0x04, 0xb4, 0xaa,
   0xaa, 0x54, 0x2b, 0x51, 0x40, 0x80, 0x14, 0x40, 0x00, 0x08, 0x00, 0xa5,
   0x4a, 0x4a, 0x4b, 0x92, 0xaa, 0x2a, 0x02, 0x01, 0x10, 0x10, 0xa8, 0xfc,
   0xdf, 0xd4, 0x54, 0xa5, 0x0a, 0x15, 0x25, 0x40, 0x00, 0x01, 0x20, 0x00,
   0xc5, 0xca, 0xd6, 0xab, 0x4a, 0x55, 0xcf, 0x20, 0x08, 0x02, 0x91, 0x01,
   0xd1, 0xdb, 0xb6, 0x5f, 0x95, 0x50, 0x02, 0x00, 0x80, 0x00, 0x00, 0x08,
   0x00, 0xa9, 0x2a, 0x4d, 0x35, 0x15, 0xea, 0x3c, 0x03, 0x20, 0x21, 0x04,
   0x54, 0x7c, 0x6f, 0x5b, 0x55, 0x43, 0x81, 0x28, 0x49, 0x01, 0x8a, 0x01,
   0x40, 0x00, 0x49, 0xb5, 0x7a, 0x4d, 0x65, 0x95, 0x2a, 0x01, 0x20, 0x00,
   0x00, 0x52, 0xdc, 0xb7, 0x4a, 0x4f, 0x11, 0x47, 0xa8, 0x20, 0x00, 0x11,
   0x00, 0x98, 0x00, 0x45, 0xa9, 0x4a, 0xbd, 0xaa, 0x94, 0x2a, 0x12, 0x84,
   0x24, 0x49, 0x02, 0x75, 0xb6, 0x5b, 0x55, 0x26, 0x4a, 0x01, 0xa5, 0x22,
   0x04, 0x05, 0x10, 0x40, 0x42, 0x55, 0xb5, 0x4b, 0x65, 0x95, 0x2a, 0x41,
   0x11, 0x00, 0x00, 0xa8, 0xda, 0xdb, 0x54, 0x4b, 0x95, 0x14, 0x56, 0x40,
   0x4c, 0x11, 0x00, 0x40, 0x00, 0x4a, 0x95, 0x72, 0x5e, 0x0a, 0x51, 0x22,
   0x0a, 0x00, 0x09, 0x48, 0x81, 0xf6, 0x7b, 0xb5, 0x54, 0x14, 0x51, 0x8a,
   0x94, 0x51, 0x94, 0x0c, 0x00, 0x80, 0x80, 0xaa, 0xca, 0xa9, 0x6a, 0x66,
   0x09, 0x21, 0xd2, 0xa0, 0x00, 0x14, 0x5a, 0xd7, 0x4c, 0xab, 0xaa, 0xa4,
   0x50, 0x2a, 0x4e, 0x01, 0x20, 0x40, 0x80, 0x00, 0xb5, 0x8a, 0x4a, 0x89,
   0x28, 0x55, 0x25, 0x02, 0x05, 0x22, 0x40, 0xf3, 0xde, 0xba, 0xa4, 0x28,
   0x09, 0x95, 0xd6, 0xac, 0x2e, 0x01, 0x80, 0x00, 0x00, 0x49, 0x35, 0x75,
   0xaa, 0x4a, 0xd4, 0x14, 0xfd, 0x42, 0x00, 0x2a, 0x76, 0xf5, 0x6b, 0xab,
   0x54, 0x50, 0xa1, 0x28, 0x4d, 0x4d, 0x04, 0x00, 0x00, 0x01, 0x4b, 0xb5,
   0xca, 0x69, 0x55, 0x21, 0x45, 0xa9, 0x88, 0x88, 0x00, 0x6c, 0x57, 0x5b,
   0xad, 0xaa, 0x50, 0x28, 0xa5, 0x08, 0xac, 0x00, 0x00, 0x00, 0x00, 0x84,
   0x4a, 0x45, 0xa5, 0x52, 0xd1, 0xd5, 0x04, 0x20, 0x02, 0xa0, 0xd2, 0xaf,
   0xa7, 0xaa, 0x54, 0x90, 0x56, 0x55, 0xa0, 0x42, 0x03, 0x00, 0x00, 0x00,
   0x48, 0xb5, 0x8a, 0x96, 0x24, 0xed, 0x2f, 0x09, 0x84, 0x90, 0x45, 0xbc,
   0x52, 0xdb, 0x57, 0x55, 0x51, 0x25, 0x92, 0x2a, 0x11, 0x52, 0x00, 0x00,
   0x00, 0xb0, 0x4a, 0xb5, 0x0c, 0x95, 0xea, 0x48, 0xa9, 0x00, 0x00, 0xa8,
   0xb9, 0x2e, 0xb7, 0xd4, 0xac, 0x80, 0x4a, 0x10, 0x2c, 0x41, 0x40, 0x00,
   0x00, 0x00, 0x40, 0x75, 0x35, 0x55, 0x09, 0xdf, 0xd2, 0x04, 0x88, 0x04,
   0xa0, 0xea, 0x55, 0xda, 0x5b, 0xab, 0x54, 0x90, 0x6a, 0x05, 0x2c, 0x81,
   0x00, 0x00, 0x00, 0x40, 0xb5, 0x4a, 0x72, 0x6a, 0x34, 0x95, 0x24, 0x21,
   0x20, 0x2a, 0xba, 0x95, 0xb6, 0x7a, 0x57, 0x83, 0x90, 0x88, 0x52, 0x01,
   0x11, 0x05, 0x00, 0x00, 0x40, 0xb5, 0x4a, 0x55, 0x51, 0xd3, 0x6a, 0x01,
   0x00, 0x08, 0xa8, 0x6c, 0x2b, 0xdc, 0xa7, 0x54, 0x55, 0x2a, 0xb5, 0x00,
   0x52, 0x02, 0x08, 0x00, 0x00, 0x40, 0x75, 0xb5, 0x2a, 0x65, 0x24, 0x15,
   0x15, 0x44, 0x01, 0xa4, 0xd9, 0x56, 0xb2, 0xb7, 0x55, 0xa9, 0x50, 0x97,
   0xaa, 0x40, 0xa8, 0x10, 0x00, 0x00, 0x40, 0xb5, 0x4a, 0x69, 0x55, 0x15,
   0x6a, 0x40, 0x00, 0x90, 0x15, 0xac, 0x15, 0xe8, 0x5a, 0xab, 0xaa, 0xae,
   0x2a, 0x54, 0x2d, 0x05, 0x42, 0x00, 0x00, 0x00, 0xb4, 0xb6, 0xea, 0x92,
   0x2a, 0x55, 0x41, 0x40, 0x90, 0x29, 0x54, 0x94, 0x00, 0xad, 0xab, 0xb5,
   0xd6, 0x66, 0x85, 0x52, 0x21, 0x09, 0x00, 0x00, 0x00, 0x44, 0x4d, 0xe5,
   0x25, 0x22, 0x24, 0x0a, 0x82, 0x00, 0x82, 0xdd, 0x95, 0x02, 0x6a, 0xaa,
   0x6e, 0xb5, 0x4a, 0x21, 0x02, 0x52, 0x22, 0x00, 0x00, 0x00, 0xb4, 0xba,
   0x6a, 0xcb, 0x14, 0x95, 0xa0, 0x00, 0x92, 0x28, 0x56, 0x0a, 0x02, 0xbc,
   0x55, 0xb7, 0xa9, 0x28, 0x95, 0xac, 0xa0, 0x84, 0x00, 0x00, 0x00, 0x4d,
   0x55, 0xe9, 0x36, 0xa5, 0x24, 0x00, 0x24, 0x00, 0x42, 0x5c, 0x54, 0x00,
   0xea, 0x6f, 0x56, 0xa9, 0xaa, 0x94, 0x20, 0x02, 0x1a, 0x00, 0x00, 0x00,
   0xb2, 0xb6, 0x8a, 0x9a, 0x14, 0x0a, 0x02, 0x00, 0x24, 0x08, 0xb6, 0x83,
   0x04, 0x9e, 0xdc, 0x55, 0x09, 0x41, 0x01, 0x42, 0x51, 0xa8, 0x00, 0x00,
   0x00, 0xb6, 0x7c, 0xd5, 0x6a, 0x25, 0x12, 0xa4, 0x00, 0x50, 0xa1, 0xaa,
   0x56, 0x24, 0xf4, 0x2a, 0x55, 0xa9, 0x56, 0xaa, 0x10, 0x42, 0x19, 0x00,
   0x00, 0xa0, 0x4d, 0xb5, 0x6a, 0x75, 0xca, 0x44, 0x00, 0x04, 0x02, 0x04,
   0x57, 0x25, 0x00, 0xa8, 0xad, 0x8a, 0x56, 0x80, 0x42, 0x62, 0x15, 0xa2 };
