#define text_hello_2_0_width 200
#define text_hello_2_0_height 96
static unsigned char text_hello_2_0_bits[] = {
   0x00, 0x00, 0x00, 0x00, 0x00, 0x00, 0x00, 0x00, 0x00, 0x00, 0x00, 0x00,
   0x00, 0x00, 0x00, 0x00, 0x00, 0x00, 0x00, 0x00, 0x00, 0x00, 0x00, 0x00,
   0x00, 0x00, 0x00, 0x00, 0x00, 0x00, 0x00, 0x00, 0x00, 0x00, 0x00, 0x00,
   0x00, 0x00, 0x00, 0x00, 0x00, 0x00, 0x00, 0x00, 0x00, 0x00, 0x00, 0x00,
   0x00, 0x00, 0x00, 0x00, 0x00, 0x00, 0x00, 0x00, 0x00, 0x00, 0x00, 0x00,
   0x00, 0x00, 0x00, 0x00, 0x00, 0x00, 0x00, 0x00, 0x00, 0x00, 0x00, 0x00,
   0x00, 0x00, 0x00, 0x00, 0x00, 0x00, 0x00, 0x00, 0x00, 0x00, 0x00, 0x00,
   0x00, 0x00, 0x00, 0x00, 0x00, 0x00, 0x00, 0x00, 0x00, 0x00, 0x00, 0x00,
   0x00, 0x00, 0x00, 0x00, 0x00, 0x00, 0x00, 0x00, 0x00, 0x00, 0x00, 0x00,
   0x00, 0x00, 0x00, 0x00, 0x00, 0x00, 0x00, 0x00, 0x00, 0x00, 0x00, 0x00,
   0x00, 0x00, 0x00, 0x00, 0x00, 0x00, 0x01, 0x00, 0x10, 0x80, 0x01, 0x04,
   0x00, 0x81, 0x00, 0x00, 0x00, 0x00, 0x00, 0x00, 0x00, 0x00, 0x00, 0x00,
   0x00, 0x00, 0x00, 0x00, 0x00, 0x00, 0x00, 0x01, 0x00, 0x10, 0x40, 0x00,
   0x04, 0x24, 0x81, 0x00, 0x00, 0x00, 0x00, 0x00, 0x00, 0x00, 0x01, 0x00,
   0x00, 0x00, 0x00, 0x00, 0x80, 0xc7, 0x81, 0x00, 0x01, 0x00, 0x10, 0x40,
   0x00, 0x04, 0x00, 0x81, 0x00, 0x00, 0x00, 0x00, 0x00, 0x00, 0x00, 0x01,
   0x00, 0x00, 0x00, 0x00, 0x00, 0x80, 0x04, 0x41, 0x3c, 0x1d, 0x0e, 0x17,
   0xee, 0xb9, 0x74, 0x24, 0x91, 0x34, 0x43, 0x87, 0xa7, 0xc3, 0xa5, 0xb9,
   0x27, 0x14, 0x8a, 0x28, 0x14, 0xfa, 0x40, 0x08, 0x01, 0x62, 0x13, 0x92,
   0x19, 0x59, 0xcc, 0x8c, 0x24, 0x89, 0xcc, 0xc4, 0xc8, 0x6c, 0x62, 0x66,
   0x44, 0x21, 0x14, 0x8a, 0x48, 0x12, 0x82, 0x40, 0x08, 0x01, 0x40, 0x21,
   0x81, 0x90, 0x50, 0x84, 0x84, 0x24, 0x85, 0x44, 0x44, 0x48, 0x28, 0x24,
   0x24, 0x04, 0x21, 0x24, 0xd1, 0x45, 0x22, 0x41, 0x40, 0x08, 0x01, 0x7c,
   0x21, 0x81, 0x90, 0x5f, 0x84, 0x84, 0x24, 0x87, 0x44, 0x44, 0x48, 0x28,
   0x24, 0x24, 0x38, 0x21, 0x24, 0x51, 0x85, 0x21, 0x21, 0x40, 0x08, 0x01,
   0x42, 0x21, 0x81, 0x90, 0x40, 0x84, 0x84, 0x24, 0x85, 0x44, 0x44, 0x48,
   0x28, 0x24, 0x24, 0x40, 0x21, 0x24, 0x51, 0x45, 0x42, 0x11, 0x40, 0x08,
   0x01, 0x62, 0x33, 0x92, 0x19, 0x51, 0xcc, 0x84, 0x24, 0x89, 0x44, 0x44,
   0xc8, 0x6c, 0x66, 0x26, 0x44, 0x21, 0xc6, 0x20, 0x42, 0xc2, 0x08, 0x80,
   0x04, 0x81, 0x5c, 0x1d, 0x0e, 0x17, 0x4e, 0xb8, 0x84, 0x24, 0x91, 0x44,
   0x44, 0x88, 0xa7, 0xc3, 0x25, 0x38, 0xc6, 0xc5, 0x20, 0x22, 0x84, 0xf8,
   0x80, 0xc7, 0xc7, 0x00, 0x00, 0x00, 0x00, 0x00, 0x80, 0x00, 0x20, 0x00,
   0x00, 0x00, 0x00, 0x20, 0x00, 0x04, 0x00, 0x00, 0x00, 0x00, 0x00, 0x80,
   0x00, 0x00, 0x00, 0x00, 0x00, 0x00, 0x00, 0x00, 0x00, 0xc8, 0x00, 0x20,
   0x00, 0x00, 0x00, 0x00, 0x20, 0x00, 0x04, 0x00, 0x00, 0x00, 0x00, 0x00,
   0x40, 0x00, 0x00, 0x00, 0x00, 0x00, 0x00, 0x00, 0x00, 0x00, 0x70, 0x00,
   0x10, 0x00, 0x00, 0x00, 0x00, 0x20, 0x00, 0x04, 0x00, 0x00, 0x00, 0x00,
   0x00, 0x30, 0x00, 0x00, 0x00, 0x00, 0x00, 0x00, 0x00, 0x00, 0x00, 0x00,
   0x00, 0x00, 0x00, 0x00, 0x00, 0x00, 0x00, 0x00, 0x00, 0x00, 0x00, 0x00,
   0x00, 0x00, 0x00, 0x00, 0x00, 0x00, 0x00, 0x00, 0x00, 0x00, 0x00, 0x00,
   0x00, 0x00, 0x00, 0x00, 0x00, 0x00, 0x00, 0x00, 0x00, 0x00, 0x00, 0x00,
   0x00, 0x00, 0x00, 0x00, 0x00, 0x00, 0x00, 0x00, 0x00, 0x00, 0x00, 0x00,
   0x00, 0x00, 0x00, 0x00, 0x00, 0x00, 0x00, 0x00, 0x00, 0x00, 0x00, 0x00,
   0x00, 0x00, 0x00, 0x00, 0x00, 0x00, 0x00, 0x00, 0x00, 0x00, 0x00, 0x00,
   0x00, 0x00, 0x00, 0x00, 0x00, 0x40, 0x00, 0x00, 0x00, 0x00, 0x00, 0x00,
   0x00, 0x00, 0x00, 0x00, 0x00, 0x00, 0x00, 0x00, 0x00, 0x00, 0x1f, 0x00,
   0x00, 0x00, 0x00, 0xa0, 0x10, 0x10, 0x40, 0x00, 0x00, 0xf0, 0x80, 0x32,
   0x00, 0xf0, 0x00, 0x21, 0x00, 0x00, 0x21, 0x00, 0xa0, 0x28, 0x00, 0x01,
   0x00, 0x00, 0x00, 0x00, 0x80, 0x10, 0x10, 0x40, 0x00, 0x00, 0x08, 0x00,
   0x48, 0x00, 0x08, 0x00, 0x21, 0x00, 0x00, 0x21, 0x00, 0x00, 0x00, 0x00,
   0x41, 0x74, 0xce, 0xe3, 0x04, 0xa0, 0x90, 0x93, 0x43, 0x00, 0x00, 0x04,
   0x4e, 0x4c, 0x00, 0x04, 0x9c, 0xf7, 0x00, 0x00, 0xa1, 0x28, 0xe2, 0x38,
   0xf0, 0x5f, 0x14, 0x51, 0x14, 0x05, 0xa0, 0x5f, 0x14, 0x44, 0x00, 0x00,
   0x04, 0x42, 0x2c, 0x00, 0x04, 0x22, 0x21, 0x00, 0x00, 0xbf, 0x28, 0x02,
   0x41, 0x10, 0x41, 0x14, 0x51, 0xf4, 0x01, 0xa0, 0x50, 0x94, 0x47, 0x00,
   0x00, 0xc4, 0x42, 0x4c, 0x00, 0xc4, 0x22, 0x21, 0x00, 0x00, 0x21, 0x45,
   0xe1, 0x79, 0x10, 0x41, 0x14, 0x51, 0x14, 0x00, 0xa0, 0x50, 0x54, 0x04,
   0x00, 0x00, 0x84, 0x42, 0x8c, 0x00, 0x84, 0x22, 0x21, 0x00, 0x00, 0x21,
   0x45, 0x11, 0x45, 0x10, 0x41, 0x14, 0x51, 0x14, 0x04, 0xa0, 0x50, 0x54,
   0x04, 0x30, 0x00, 0x88, 0x42, 0x8c, 0x00, 0x88, 0x22, 0x21, 0x18, 0x00,
   0x21, 0x82, 0x10, 0x45, 0x10, 0x9f, 0x17, 0xce, 0xe3, 0x05, 0xa0, 0x90,
   0x93, 0x47, 0x20, 0x00, 0xf0, 0x82, 0x4d, 0x00, 0xf0, 0x1c, 0xc6, 0x10,
   0x00, 0x21, 0x82, 0x60, 0x59, 0xf0, 0x00, 0x00, 0x40, 0x00, 0x00, 0x00,
   0x00, 0x00, 0x00, 0x10, 0x00, 0x00, 0x00, 0x00, 0x00, 0x00, 0x00, 0x00,
   0x08, 0x00, 0x00, 0x01, 0x00, 0x00, 0x10, 0x00, 0x00, 0x40, 0x00, 0x00,
   0x00, 0x00, 0x00, 0x00, 0x00, 0x00, 0x00, 0x00, 0x00, 0x00, 0x00, 0x00,
   0x00, 0x00, 0x00, 0x00, 0x01, 0x00, 0x00, 0x10, 0x00, 0x00, 0x00, 0x00,
   0x00, 0x00, 0x00, 0x00, 0x00, 0x00, 0x00, 0x00, 0x00, 0x00, 0x00, 0x00,
   0x00, 0x00, 0x00, 0x00, 0x00, 0x00, 0x00, 0x00, 0x00, 0x00, 0x00, 0x00,
   0x00, 0x00, 0x00, 0x00, 0x00, 0x00, 0x00, 0x00, 0x00, 0x00, 0x00, 0x00,
   0x00, 0x00, 0x00, 0x00, 0x00, 0x00, 0x00, 0x00, 0x00, 0x00, 0x00, 0x00,
   0x00, 0x00, 0x00, 0x00, 0x00, 0x00, 0x00, 0x00, 0x00, 0x00, 0x00, 0x00,
   0x00, 0x00, 0x00, 0x00, 0x00, 0x00, 0x00, 0x00, 0x00, 0x00, 0x00, 0x00,
   0x00, 0x00, 0x00, 0x00, 0x00, 0x00, 0x00, 0x34, 0x00, 0x00, 0x00, 0x00,
   0x00, 0x00, 0x00, 0x00, 0x00, 0x00, 0x00, 0x00, 0x80, 0x04, 0x00, 0x00,
   0x00, 0x00, 0x00, 0x08, 0x00, 0x00, 0x00, 0x00, 0x4c, 0x00, 0x00, 0x00,
   0x00, 0x00, 0x00, 0x00, 0x00, 0x00, 0x00, 0x00, 0x00, 0x00, 0x03, 0x00,
   0x00, 0x1f, 0x40, 0x00, 0x00, 0x20, 0x00, 0x00, 0x00, 0x44, 0xc0, 0x0f,
   0x00, 0x00, 0x00, 0x00, 0x00, 0x00, 0x00, 0x00, 0x00, 0xce, 0x01, 0x00,
   0x00, 0x00, 0x21, 0x40, 0x00, 0x00, 0x20, 0x00, 0x00, 0x00, 0x40, 0x80,
   0x04, 0x36, 0x00, 0x03, 0x7c, 0x80, 0x03, 0xfe, 0xc0, 0x07, 0x84, 0xe0,
   0x1c, 0xfe, 0x00, 0x41, 0xce, 0x73, 0x11, 0x3c, 0xe7, 0x01, 0x00, 0x30,
   0x80, 0x04, 0x4c, 0x80, 0x04, 0x88, 0x40, 0x04, 0x92, 0x80, 0x08, 0x88,
   0x40, 0x0c, 0x92, 0x80, 0x41, 0x51, 0x14, 0x12, 0xa2, 0x28, 0x02, 0x00,
   0x40, 0x80, 0x04, 0x84, 0x00, 0x07, 0x88, 0x20, 0x00, 0x10, 0x80, 0x08,
   0x50, 0x40, 0x0a, 0x10, 0x40, 0x41, 0x51, 0x14, 0x12, 0xa2, 0x2f, 0x02,
   0x00, 0x80, 0x40, 0x04, 0x84, 0x80, 0x04, 0x78, 0x20, 0x00, 0x10, 0x80,
   0x07, 0x20, 0x40, 0x09, 0x10, 0xc0, 0x41, 0x51, 0x14, 0x0c, 0xa2, 0x20,
   0x02, 0x00, 0x82, 0x40, 0x04, 0x4c, 0x40, 0x04, 0x88, 0x20, 0x00, 0x10,
   0x80, 0x08, 0x20, 0xc0, 0x08, 0x10, 0x40, 0x21, 0x51, 0x14, 0x0c, 0xa2,
   0x20, 0x62, 0x00, 0x46, 0xf0, 0x0f, 0x34, 0x40, 0x02, 0x88, 0x40, 0x04,
   0x10, 0x80, 0x08, 0x10, 0x40, 0x08, 0x10, 0x80, 0x1f, 0xce, 0x13, 0x0c,
   0x3c, 0x2f, 0x42, 0x00, 0x3a, 0x10, 0x08, 0x04, 0x80, 0x0d, 0x7c, 0x80,
   0x03, 0x38, 0xc0, 0x07, 0x12, 0xe0, 0x1c, 0x38, 0x00, 0x00, 0x00, 0x00,
   0x04, 0x00, 0x00, 0x20, 0x00, 0x00, 0x00, 0x00, 0x0e, 0x00, 0x00, 0x00,
   0x00, 0x00, 0x00, 0x00, 0x00, 0x0c, 0x00, 0x00, 0x00, 0x00, 0x00, 0x00,
   0x00, 0x06, 0x00, 0x00, 0x00, 0x00, 0x00, 0x00, 0x00, 0x00, 0x00, 0x00,
   0x00, 0x00, 0x00, 0x00, 0x00, 0x00, 0x00, 0x00, 0x00, 0x00, 0x00, 0x00,
   0x00, 0x00, 0x00, 0x00, 0x00, 0x00, 0x00, 0x00, 0x00, 0x00, 0x00, 0x00,
   0x00, 0x00, 0x00, 0x00, 0x00, 0x00, 0x00, 0x00, 0x00, 0x00, 0x00, 0x00,
   0x00, 0x00, 0x00, 0x00, 0x00, 0x00, 0x00, 0x00, 0x00, 0x00, 0x00, 0x00,
   0x00, 0x00, 0x00, 0x00, 0x00, 0x00, 0x00, 0x00, 0x00, 0x00, 0x00, 0x00,
   0x00, 0x00, 0x00, 0x00, 0x00, 0x00, 0x00, 0x00, 0x00, 0x00, 0x00, 0x00,
   0x00, 0x00, 0x00, 0x00, 0x00, 0x00, 0x00, 0x00, 0x00, 0x00, 0x00, 0x00,
   0x00, 0x00, 0x00, 0x00, 0x00, 0x00, 0x00, 0x00, 0x00, 0x00, 0x00, 0x00,
   0x00, 0x00, 0x00, 0x00, 0x00, 0x00, 0x00, 0x00, 0x00, 0x00, 0x00, 0x00,
   0x00, 0x00, 0x00, 0x00, 0x00, 0x00, 0x00, 0x00, 0x00, 0x00, 0x00, 0x00,
   0x00, 0x00, 0x00, 0x00, 0x00, 0x00, 0x00, 0x00, 0x00, 0x00, 0x00, 0x00,
   0x00, 0x00, 0x00, 0x00, 0x08, 0x0c, 0x02, 0x00, 0x00, 0x00, 0x00, 0x00,
   0x00, 0x00, 0x00, 0x00, 0x00, 0x00, 0x00, 0x00, 0x00, 0x00, 0x00, 0x00,
   0x00, 0x00, 0x00, 0x00, 0x00, 0x08, 0x02, 0x00, 0x00, 0x00, 0x00, 0x00,
   0x00, 0x00, 0x00, 0x00, 0x00, 0x00, 0x00, 0x00, 0x00, 0x00, 0x00, 0x00,
   0x00, 0x00, 0x00, 0x00, 0x00, 0x00, 0x14, 0xef, 0x72, 0x4e, 0x00, 0x00,
   0xc2, 0x1f, 0x00, 0x00, 0x00, 0x00, 0x00, 0x00, 0x00, 0x00, 0x00, 0x00,
   0x00, 0x00, 0x00, 0x00, 0x00, 0x00, 0x00, 0x14, 0x22, 0x0a, 0x50, 0x00,
   0x25, 0x22, 0x15, 0x00, 0x00, 0x00, 0x00, 0x00, 0x00, 0x00, 0x00, 0x00,
   0x00, 0x00, 0x00, 0x00, 0x00, 0x00, 0x00, 0x00, 0x22, 0x22, 0x0a, 0x1e,
   0x80, 0xa5, 0x25, 0x0d, 0x00, 0x00, 0x00, 0x00, 0x00, 0x00, 0x00, 0x00,
   0x00, 0x00, 0x00, 0x00, 0x00, 0x00, 0x00, 0x00, 0x00, 0x3e, 0x22, 0x0a,
   0x11, 0x80, 0xbc, 0x84, 0x00, 0x00, 0x00, 0x00, 0x00, 0x00, 0x00, 0x00,
   0x00, 0x00, 0x00, 0x00, 0x00, 0x00, 0x00, 0x00, 0x00, 0x00, 0x41, 0x22,
   0x0a, 0x51, 0x80, 0x80, 0x44, 0x00, 0x00, 0x00, 0x00, 0x00, 0x00, 0x00,
   0x00, 0x00, 0x00, 0x00, 0x00, 0x00, 0x00, 0x00, 0x00, 0x00, 0x00, 0x41,
   0x22, 0x72, 0x5e, 0x00, 0x00, 0x2c, 0x00, 0x00, 0x00, 0x00, 0x00, 0x00,
   0x00, 0x00, 0x00, 0x00, 0x00, 0x00, 0x00, 0x00, 0x00, 0x00, 0x00, 0x00,
   0x00, 0x00, 0x00, 0x00, 0x00, 0x00, 0x00, 0x00, 0x00, 0x00, 0x00, 0x00,
   0x00, 0x00, 0x00, 0x00, 0x00, 0x00, 0x00, 0x00, 0x00, 0x00, 0x00, 0x00,
   0x00, 0x00, 0x00, 0x00, 0x00, 0x00, 0x00, 0x00, 0x00, 0x00, 0x00, 0x00,
   0x00, 0x00, 0x00, 0x00, 0x00, 0x00, 0x00, 0x00, 0x00, 0x00, 0x00, 0x00,
   0x00, 0x00, 0x00, 0x00, 0x00, 0x00, 0x00, 0x00, 0x00, 0x00, 0x00, 0x00,
   0x00, 0x00, 0x00, 0x00, 0x00, 0x00, 0x00, 0x00, 0x00, 0x00, 0x00, 0x00,
   0x00, 0x00, 0x00, 0x00, 0x00, 0x00, 0x00, 0x00, 0x00, 0x00, 0x00, 0x00,
   0x00, 0x00, 0x00, 0x00, 0x00, 0x00, 0x00, 0x00, 0x00, 0x00, 0x00, 0x00,
   0x00, 0x00, 0x00, 0x00, 0x00, 0x00, 0x00, 0x00, 0x00, 0x00, 0x00, 0x00,
   0x00, 0x00, 0x00, 0x00, 0x00, 0x00, 0x00, 0x00, 0x00, 0x00, 0x00, 0x00,
   0x00, 0x00, 0x00, 0x00, 0x00, 0x00, 0x00, 0x00, 0x00, 0x00, 0x00, 0x00,
   0x00, 0x00, 0x00, 0x00, 0x00, 0x00, 0x80, 0x03, 0x00, 0x00, 0x00, 0x00,
   0x00, 0x00, 0x00, 0x00, 0x00, 0x00, 0x00, 0x00, 0x00, 0x00, 0x04, 0x00,
   0x00, 0x00, 0x00, 0x00, 0x00, 0x00, 0x00, 0x80, 0x03, 0x00, 0x00, 0x00,
   0x00, 0x00, 0x00, 0x00, 0x00, 0x00, 0x00, 0x63, 0x41, 0x50, 0x00, 0x34,
   0x02, 0x00, 0x00, 0x3e, 0x00, 0x10, 0x00, 0x00, 0x00, 0x09, 0x00, 0x08,
   0x00, 0x00, 0x00, 0x00, 0x02, 0x00, 0x00, 0x00, 0x63, 0x40, 0x50, 0x00,
   0x32, 0x02, 0x00, 0x00, 0x02, 0x00, 0x10, 0x00, 0x10, 0x00, 0x09, 0x00,
   0x08, 0x0c, 0x00, 0x00, 0x00, 0x02, 0x00, 0x00, 0x00, 0x55, 0x79, 0x5e,
   0x0e, 0x52, 0x72, 0x9c, 0x03, 0x02, 0xc7, 0x79, 0x01, 0x12, 0x00, 0x09,
   0x00, 0x08, 0x02, 0x00, 0x00, 0x0f, 0x1e, 0x00, 0x00, 0x00, 0x55, 0x45,
   0x51, 0x11, 0x51, 0x8a, 0xa0, 0x00, 0x3e, 0x28, 0x12, 0x01, 0x10, 0x00,
   0x09, 0x00, 0x08, 0x02, 0x00, 0x00, 0x91, 0x10, 0x00, 0x00, 0x00, 0x49,
   0x45, 0x51, 0x1f, 0x91, 0xfa, 0xbc, 0x00, 0x02, 0xcf, 0x10, 0x00, 0x14,
   0x00, 0x09, 0x80, 0x09, 0x06, 0x00, 0x00, 0x91, 0x10, 0x00, 0x00, 0x00,
   0x49, 0x45, 0x51, 0x81, 0x90, 0x0a, 0xa2, 0x00, 0x82, 0x08, 0x11, 0x00,
   0x9c, 0x24, 0x89, 0xc1, 0x4b, 0x04, 0x03, 0x00, 0x91, 0x08, 0x00, 0x00,
   0x00, 0x41, 0x45, 0x51, 0x81, 0x10, 0x0b, 0xa2, 0x00, 0x82, 0x28, 0x12,
   0x01, 0x98, 0x35, 0xc9, 0x82, 0x49, 0x8c, 0x05, 0x18, 0x91, 0x08, 0x00,
   0x00, 0x00, 0x41, 0x79, 0x5e, 0x5e, 0x10, 0xf3, 0xbc, 0x00, 0x3e, 0xcf,
   0x61, 0x01, 0xe6, 0xfb, 0xf9, 0x43, 0xfe, 0xf7, 0x07, 0x10, 0x9f, 0x00,
   0x00, 0x00, 0x00, 0x00, 0x00, 0x00, 0x40, 0x00, 0x00, 0x00, 0x00, 0x00,
   0x00, 0x00, 0x00, 0x00, 0x00, 0x00, 0x40, 0x00, 0x00, 0x00, 0x08, 0x00,
   0x00, 0x00, 0x00, 0x00, 0x00, 0x00, 0x00, 0x00, 0x00, 0x00, 0x00, 0x00,
   0x00, 0x00, 0x00, 0x00, 0x00, 0x00, 0x00, 0xc0, 0x00, 0x00, 0x00, 0x00,
   0x00, 0x00, 0x00, 0x00, 0x00, 0x00, 0x00, 0x00, 0x00, 0x00, 0x00, 0x00,
   0x00, 0x00, 0x00, 0x00, 0x00, 0x00, 0x00, 0x00, 0x80, 0x07, 0x00, 0x00,
   0x00, 0x00, 0x00, 0x00, 0x00, 0x00, 0x00, 0x00, 0x00, 0x00, 0x00, 0x00,
   0x00, 0x00, 0x00, 0x00, 0x00, 0x00, 0x00, 0x00, 0x00, 0x00, 0x00, 0x00,
   0x00, 0x00, 0x00, 0x00, 0x00, 0x00, 0x00, 0x00, 0x00, 0x00, 0x00, 0x00,
   0x00, 0x00, 0x00, 0x00, 0x00, 0x00, 0x00, 0x00, 0x00, 0x00, 0x00, 0x00,
   0x00, 0x00, 0x00, 0x00, 0x00, 0x00, 0x00, 0x00, 0x00, 0x00, 0x00, 0x00,
   0x00, 0x00, 0x00, 0x00, 0x00, 0x00, 0x00, 0x00, 0x00, 0x00, 0x00, 0x00,
   0x00, 0x00, 0x00, 0x00, 0x00, 0x00, 0x00, 0x00, 0x00, 0x00, 0x00, 0x00,
   0x00, 0x00, 0x00, 0x00, 0x00, 0x00, 0x00, 0x40, 0x00, 0x00, 0x00, 0x00,
   0x00, 0x00, 0x00, 0x00, 0x00, 0x00, 0x00, 0x00, 0x00, 0x00, 0x1e, 0x00,
   0x88, 0x00, 0x40, 0x00, 0x02, 0x00, 0x00, 0x00, 0x00, 0x01, 0x00, 0x00,
   0x00, 0x00, 0x00, 0x00, 0x00, 0x00, 0x00, 0x00, 0x00, 0x00, 0x00, 0x01,
   0x00, 0x88, 0x00, 0x40, 0x00, 0x00, 0x00, 0x00, 0x00, 0x00, 0x02, 0x80,
   0xff, 0xff, 0x3f, 0x00, 0x00, 0x00, 0x00, 0x00, 0x00, 0x00, 0x00, 0x00,
   0x81, 0x13, 0xbd, 0x07, 0xa0, 0x70, 0x72, 0x02, 0x40, 0x22, 0x03, 0x02,
   0x00, 0x48, 0x22, 0x10, 0x00, 0x80, 0x40, 0x00, 0x00, 0x04, 0x00, 0x00,
   0x00, 0x4e, 0x14, 0x89, 0x08, 0xa0, 0x88, 0x82, 0x02, 0x78, 0x24, 0xc4,
   0x03, 0x00, 0x48, 0x22, 0x1e, 0x00, 0x78, 0xbf, 0xf9, 0xc3, 0x03, 0x00,
   0x00, 0x00, 0x50, 0x14, 0x89, 0x08, 0x10, 0x31, 0xf2, 0x00, 0x52, 0x24,
   0x14, 0x02, 0x80, 0xef, 0xb3, 0x11, 0x00, 0x00, 0x00, 0x12, 0x04, 0x04,
   0x00, 0xbe, 0xf9, 0x50, 0x14, 0x89, 0x08, 0xf0, 0x41, 0x8a, 0x00, 0x52,
   0xa5, 0x13, 0x02, 0x00, 0x09, 0x12, 0x10, 0x00, 0x08, 0x06, 0x92, 0x4b,
   0x04, 0x00, 0x49, 0xa5, 0x50, 0x14, 0x89, 0x08, 0x08, 0x8a, 0x8a, 0x02,
   0x54, 0x25, 0x01, 0x62, 0x00, 0x08, 0x22, 0x12, 0x03, 0x84, 0x41, 0xaa,
   0x41, 0xc4, 0x00, 0x49, 0xa5, 0x8f, 0xe3, 0xb1, 0x08, 0x08, 0x72, 0xf2,
   0x02, 0x40, 0x20, 0x47, 0x42, 0x00, 0x08, 0x02, 0x10, 0x02, 0x48, 0xb6,
   0x41, 0x86, 0x83, 0x00, 0xea, 0x23, 0x00, 0x00, 0x00, 0x00, 0x00, 0x00,
   0x00, 0x00, 0x00, 0x00, 0x00, 0x20, 0x00, 0x00, 0x00, 0x00, 0x01, 0x00,
   0x00, 0x00, 0x00, 0x40, 0x00, 0x00, 0x00, 0x00, 0x00, 0x00, 0x00, 0x00,
   0x00, 0x00, 0x00, 0x00, 0x00, 0x00, 0x00, 0x00, 0x00, 0x00, 0x00, 0x00,
   0x00, 0x00, 0x00, 0x1c, 0x00, 0x00, 0x00, 0x80, 0x00, 0x00, 0x00, 0x00,
   0x00, 0x00, 0x00, 0x00, 0x00, 0x00, 0x00, 0x00, 0x00, 0x00, 0x00, 0x00,
   0x00, 0x00, 0x00, 0x00, 0x00, 0x00, 0x00, 0x00, 0x00, 0x00, 0x00, 0x00,
   0x00, 0x00, 0x00, 0x00, 0x00, 0x00, 0x00, 0x00, 0x00, 0x00, 0x00, 0x00,
   0x00, 0x00, 0x00, 0x00, 0x00, 0x08, 0x00, 0x00, 0x00, 0x00, 0x00, 0x00,
   0x00, 0x00, 0x00, 0x00, 0x00, 0x00, 0x00, 0x00, 0x00, 0x00, 0x00, 0x00,
   0x00, 0x00, 0x00, 0x00, 0x00, 0x00, 0x00, 0x00, 0x00, 0x00, 0x00, 0x00,
   0x00, 0x00, 0x00, 0x00, 0x00, 0x00, 0x00, 0x00, 0x00, 0x00, 0x00, 0x00,
   0x00, 0x00, 0x00, 0x00, 0x00, 0x00, 0x00, 0x00, 0x00, 0x00, 0x00, 0x00 };
