#define cat_2_0_width 200
#define cat_2_0_height 96
static unsigned char cat_2_0_bits[] = {
   0x00, 0x00, 0x00, 0x00, 0x00, 0x00, 0x10, 0x22, 0x24, 0x29, 0x50, 0xa0,
   0xc8, 0x83, 0x6e, 0xa3, 0x52, 0x4b, 0x03, 0x11, 0x8a, 0x90, 0x12, 0x6a,
   0x05, 0x00, 0x00, 0x00, 0x00, 0x00, 0x00, 0xa4, 0x88, 0xaa, 0x82, 0x82,
   0x0a, 0xb3, 0x93, 0xd5, 0x0a, 0xe9, 0xa2, 0x28, 0x45, 0x11, 0x42, 0xa8,
   0xda, 0x0a, 0x00, 0x00, 0x00, 0x00, 0x00, 0x00, 0xae, 0x10, 0x68, 0x02,
   0x14, 0x20, 0xe2, 0x93, 0x95, 0x32, 0x59, 0x45, 0x01, 0x01, 0x45, 0x08,
   0x81, 0xb2, 0x09, 0x00, 0x00, 0x00, 0x00, 0x00, 0x00, 0x34, 0xa5, 0x01,
   0x09, 0xa1, 0x8a, 0xb8, 0xc3, 0x63, 0x1e, 0x2e, 0xa9, 0x24, 0xa8, 0x10,
   0x91, 0x28, 0x55, 0x05, 0x00, 0x00, 0x00, 0x00, 0x00, 0x00, 0x2a, 0x2a,
   0x25, 0x20, 0x88, 0x00, 0xf1, 0x0b, 0x5f, 0x2a, 0x0c, 0x81, 0x04, 0x28,
   0x02, 0x02, 0x81, 0x6a, 0x05, 0x00, 0x00, 0x00, 0x00, 0x00, 0x00, 0x86,
   0xaa, 0x80, 0x84, 0x22, 0x55, 0x74, 0x93, 0x7a, 0x8d, 0x2e, 0x28, 0x85,
   0x4a, 0x29, 0x29, 0x54, 0x55, 0x01, 0x00, 0x00, 0x00, 0x00, 0x00, 0x00,
   0x1c, 0xaa, 0x06, 0x10, 0x4a, 0x8a, 0xe4, 0x97, 0xd6, 0x1d, 0x5e, 0x41,
   0x09, 0x19, 0x20, 0x80, 0x80, 0xea, 0x02, 0x00, 0x00, 0x00, 0x00, 0x00,
   0x00, 0x42, 0x55, 0x88, 0x4a, 0x20, 0x11, 0xf0, 0x42, 0xbe, 0x4b, 0x17,
   0x10, 0xa0, 0xaa, 0x8a, 0x12, 0x24, 0x9a, 0x00, 0x00, 0x00, 0x00, 0x00,
   0x00, 0x00, 0x0e, 0xac, 0x00, 0x00, 0x05, 0x42, 0xaa, 0x08, 0xf6, 0x56,
   0xbf, 0x42, 0x85, 0x0a, 0x22, 0x00, 0x44, 0x54, 0x01, 0x00, 0x00, 0x00,
   0x00, 0x00, 0x00, 0x8a, 0x52, 0x91, 0xaa, 0xa8, 0x28, 0xa9, 0xa4, 0xee,
   0x42, 0x9f, 0x12, 0x48, 0x51, 0x94, 0x4a, 0x91, 0x3a, 0x01, 0x00, 0x00,
   0x00, 0x00, 0x00, 0x00, 0x0a, 0x28, 0x00, 0x20, 0x00, 0x09, 0x50, 0x01,
   0xcd, 0xca, 0x3d, 0xa4, 0x52, 0x87, 0x10, 0x11, 0x10, 0xa4, 0x00, 0x00,
   0x00, 0x00, 0x00, 0x00, 0x00, 0xa6, 0x52, 0x12, 0x82, 0x40, 0x50, 0x75,
   0x69, 0x3b, 0xa4, 0x77, 0x01, 0xa8, 0x08, 0x22, 0xaa, 0x42, 0x55, 0x00,
   0x00, 0x00, 0x00, 0x00, 0x00, 0x00, 0x8c, 0x24, 0x40, 0x04, 0x09, 0x02,
   0xe0, 0x68, 0xb6, 0xc8, 0x6f, 0xaa, 0x42, 0x53, 0x84, 0x80, 0x14, 0x1a,
   0x00, 0x00, 0x00, 0x00, 0x00, 0x00, 0x00, 0x14, 0x55, 0x04, 0x10, 0x40,
   0x10, 0xb9, 0xc2, 0x2b, 0xd0, 0x56, 0x01, 0x94, 0x8a, 0x50, 0x2a, 0xd1,
   0x2a, 0x00, 0x00, 0x00, 0x00, 0x00, 0x00, 0x00, 0x30, 0x8a, 0x90, 0x00,
   0x08, 0x22, 0xb0, 0xc1, 0xf6, 0xc2, 0x0e, 0xaa, 0x10, 0x28, 0x05, 0x00,
   0x85, 0x12, 0x00, 0x00, 0x00, 0x00, 0x00, 0x00, 0x00, 0x08, 0x24, 0x00,
   0x20, 0x40, 0x00, 0x91, 0xd3, 0x6d, 0xf0, 0xa1, 0x04, 0x45, 0x80, 0x5a,
   0x29, 0x6a, 0x05, 0x00, 0x00, 0x00, 0x00, 0x00, 0x00, 0x00, 0x30, 0x88,
   0x14, 0x01, 0x89, 0x24, 0x02, 0xa3, 0xfb, 0xa0, 0x0b, 0x54, 0x48, 0x21,
   0x12, 0x51, 0x54, 0x05, 0x00, 0x00, 0x00, 0x00, 0x00, 0x00, 0x00, 0x40,
   0x0a, 0x00, 0x00, 0x00, 0x00, 0x10, 0x63, 0x59, 0xf2, 0x20, 0xa2, 0x22,
   0x84, 0x24, 0xa4, 0xa9, 0x05, 0x00, 0x00, 0x00, 0x00, 0x00, 0x00, 0x00,
   0x60, 0x00, 0x00, 0x22, 0x12, 0xa9, 0x00, 0x67, 0x53, 0x5a, 0x45, 0x84,
   0x4a, 0x91, 0xad, 0x29, 0xab, 0x00, 0x00, 0x00, 0x00, 0x00, 0x00, 0x00,
   0x00, 0x20, 0x45, 0x22, 0x80, 0x44, 0x00, 0x82, 0xa6, 0x1c, 0x2e, 0x01,
   0x29, 0x94, 0x02, 0x50, 0xa4, 0x54, 0x01, 0x00, 0x00, 0x00, 0x00, 0x00,
   0x00, 0x00, 0x20, 0x00, 0x00, 0x00, 0x09, 0x48, 0x00, 0x66, 0x39, 0x2d,
   0x24, 0xa2, 0x52, 0xaa, 0xa6, 0x44, 0x29, 0x01, 0x00, 0x00, 0x00, 0x00,
   0x00, 0x00, 0x00, 0x10, 0x84, 0x80, 0x00, 0x94, 0x00, 0x00, 0xa5, 0x8a,
   0x07, 0x81, 0x88, 0x88, 0x02, 0x48, 0x55, 0x2a, 0x00, 0x00, 0x00, 0x00,
   0x00, 0x00, 0x00, 0x00, 0x48, 0x08, 0x04, 0x20, 0x10, 0x24, 0x05, 0x66,
   0x0b, 0x07, 0x0a, 0x21, 0x22, 0xa8, 0x10, 0x5a, 0xaa, 0x00, 0x00, 0x00,
   0x00, 0x00, 0x00, 0x00, 0x00, 0x00, 0x00, 0x00, 0x02, 0x51, 0x90, 0x80,
   0xb3, 0xe5, 0x11, 0xa0, 0x94, 0x94, 0x12, 0xa0, 0x6a, 0x3d, 0x00, 0x00,
   0x00, 0x00, 0x00, 0x00, 0x00, 0x00, 0x05, 0x22, 0x08, 0x00, 0x00, 0x20,
   0x00, 0xb7, 0x46, 0x81, 0x06, 0x80, 0x10, 0x25, 0xa5, 0xaa, 0x9a, 0x00,
   0x00, 0x00, 0x00, 0x00, 0x00, 0x00, 0x00, 0x81, 0x00, 0x01, 0x00, 0x52,
   0x48, 0x00, 0xeb, 0xea, 0x20, 0x91, 0x14, 0x42, 0x48, 0x40, 0x5b, 0xf5,
   0x00, 0x00, 0x00, 0x00, 0x00, 0x00, 0x00, 0x40, 0x00, 0x04, 0x00, 0x20,
   0x00, 0x40, 0x01, 0x7f, 0xcb, 0x02, 0x09, 0xa1, 0x10, 0x09, 0x85, 0x6a,
   0xa5, 0x00, 0x00, 0x00, 0x00, 0x00, 0x00, 0x00, 0x40, 0x24, 0x01, 0x20,
   0x02, 0x21, 0x09, 0x20, 0xf7, 0x6d, 0x40, 0x04, 0x04, 0x45, 0xa4, 0x90,
   0x55, 0x29, 0x00, 0x00, 0x00, 0x00, 0x00, 0x00, 0x00, 0x20, 0x00, 0x08,
   0x02, 0x00, 0x00, 0x50, 0x00, 0xae, 0xfd, 0x00, 0xa1, 0x54, 0x80, 0x08,
   0x12, 0x55, 0x71, 0x00, 0x00, 0x00, 0x00, 0x00, 0x00, 0x00, 0x90, 0x48,
   0x40, 0x20, 0x52, 0x02, 0x80, 0x40, 0xab, 0x36, 0x42, 0x14, 0xaa, 0x44,
   0xa2, 0x40, 0x15, 0x2a, 0x00, 0x00, 0x00, 0x00, 0x00, 0x00, 0x00, 0x08,
   0x90, 0x02, 0x02, 0xfd, 0x16, 0x14, 0x02, 0x55, 0x7d, 0x40, 0x01, 0xaa,
   0x08, 0x14, 0x05, 0xa9, 0x74, 0x00, 0x00, 0x00, 0x00, 0x00, 0x00, 0x00,
   0x88, 0xa0, 0xe8, 0xa5, 0xfe, 0x5f, 0x40, 0xa0, 0xaa, 0x5a, 0x04, 0x84,
   0x14, 0x21, 0x21, 0x48, 0xa5, 0x14, 0x00, 0x00, 0x00, 0x00, 0x00, 0x00,
   0x00, 0x14, 0x24, 0xd1, 0x8f, 0x37, 0xff, 0x08, 0x02, 0x92, 0x58, 0x40,
   0x11, 0x42, 0x02, 0x44, 0x09, 0x29, 0x1c, 0x00, 0x00, 0x00, 0x00, 0x00,
   0x04, 0x00, 0x84, 0x58, 0xf4, 0x25, 0xaf, 0xfb, 0x81, 0x48, 0x54, 0x15,
   0x11, 0x82, 0x14, 0x20, 0x10, 0xa2, 0x12, 0x13, 0x00, 0x00, 0x00, 0x00,
   0x00, 0x00, 0x00, 0x04, 0xa1, 0xdc, 0x0b, 0x6d, 0xff, 0x07, 0x80, 0x20,
   0x32, 0x80, 0x80, 0x40, 0x42, 0x42, 0x08, 0x24, 0x0f, 0x00, 0x00, 0x00,
   0x00, 0x00, 0x00, 0x00, 0x12, 0x1a, 0x75, 0x21, 0x93, 0xc7, 0x0b, 0x2a,
   0x4a, 0x89, 0x54, 0x12, 0x0a, 0x00, 0x28, 0xa1, 0x82, 0x05, 0x00, 0x00,
   0x00, 0x00, 0x00, 0x24, 0x00, 0x42, 0xa2, 0x7e, 0x05, 0x46, 0x4e, 0x0f,
   0x40, 0x10, 0x19, 0x00, 0x00, 0xa0, 0x88, 0x20, 0x04, 0x45, 0x01, 0x00,
   0x00, 0x00, 0x00, 0x00, 0x04, 0x00, 0x12, 0xa8, 0x57, 0x80, 0xa9, 0x7f,
   0x0f, 0x14, 0x45, 0x55, 0x29, 0x21, 0x02, 0x20, 0x82, 0x90, 0x50, 0x00,
   0x00, 0x00, 0x00, 0x00, 0x00, 0x44, 0x00, 0x22, 0xe9, 0x5f, 0x00, 0x23,
   0x7b, 0x3c, 0x20, 0x10, 0x10, 0x00, 0x84, 0x4c, 0x02, 0x14, 0x02, 0x23,
   0x00, 0x00, 0x00, 0x00, 0x00, 0x00, 0x00, 0x00, 0x01, 0x70, 0x2b, 0x08,
   0x43, 0xbf, 0x1a, 0x00, 0x45, 0x55, 0x01, 0xfa, 0x5f, 0x00, 0x41, 0x08,
   0x28, 0x00, 0x00, 0x00, 0x00, 0x00, 0x00, 0x00, 0x00, 0x45, 0xea, 0x5e,
   0x00, 0xa6, 0x76, 0x34, 0x28, 0x10, 0x28, 0x20, 0xfd, 0xff, 0x15, 0x04,
   0x51, 0x42, 0x00, 0x00, 0x00, 0x00, 0x00, 0x00, 0x80, 0x00, 0x11, 0x7d,
   0x05, 0x00, 0x43, 0x9f, 0x38, 0x00, 0x42, 0xa5, 0xc0, 0xbf, 0xfd, 0x41,
   0x10, 0x00, 0x34, 0x00, 0x00, 0x00, 0x00, 0x00, 0x00, 0x00, 0x01, 0x22,
   0xd6, 0x1d, 0x12, 0x8e, 0xbe, 0x72, 0x20, 0x08, 0x10, 0x42, 0xf7, 0xdb,
   0x0f, 0x41, 0x4a, 0x70, 0x00, 0x00, 0x00, 0x00, 0x00, 0x00, 0x08, 0x00,
   0xc9, 0x8b, 0x44, 0x00, 0xa4, 0x86, 0x34, 0x00, 0x40, 0x44, 0xf0, 0x99,
   0xef, 0x0b, 0x14, 0x20, 0x09, 0x00, 0x00, 0x00, 0x00, 0x00, 0x00, 0x00,
   0x02, 0x11, 0x97, 0x10, 0x24, 0x0c, 0x9d, 0x74, 0x00, 0x81, 0x08, 0x60,
   0x11, 0x55, 0xaf, 0x80, 0x08, 0x70, 0x00, 0x00, 0x00, 0x00, 0x00, 0x00,
   0x10, 0x84, 0xe4, 0x52, 0x92, 0x52, 0x18, 0x02, 0x1d, 0x20, 0x10, 0x00,
   0x1c, 0xfa, 0x4b, 0x07, 0x08, 0x62, 0x42, 0x00, 0x00, 0x00, 0x00, 0x00,
   0x00, 0x00, 0x00, 0xe9, 0x82, 0x20, 0x42, 0x71, 0x50, 0x7a, 0x00, 0x00,
   0x02, 0x78, 0xf0, 0x4b, 0x5e, 0x52, 0x48, 0x40, 0x00, 0x00, 0x00, 0x00,
   0x00, 0x00, 0x20, 0x88, 0x3c, 0x29, 0x12, 0x15, 0xe1, 0xc7, 0x3f, 0x00,
   0x00, 0x00, 0x0c, 0x75, 0x13, 0x05, 0xbd, 0x22, 0x49, 0x00, 0x00, 0x00,
   0x00, 0x00, 0x00, 0x40, 0x10, 0x75, 0x81, 0x02, 0x60, 0x02, 0xbe, 0x76,
   0x00, 0x41, 0x04, 0xbc, 0xe8, 0x47, 0x45, 0x77, 0x44, 0x80, 0x00, 0x00,
   0x00, 0x00, 0x00, 0x00, 0x40, 0xa0, 0x5c, 0xa4, 0x90, 0x92, 0x08, 0x00,
   0x1a, 0x10, 0x08, 0x01, 0x1e, 0xf5, 0x28, 0x81, 0xbe, 0x90, 0x4a, 0x01,
   0x00, 0x00, 0x00, 0x00, 0x00, 0x80, 0x40, 0xa9, 0x80, 0x07, 0x82, 0x22,
   0x10, 0x5c, 0x00, 0x00, 0x00, 0x7a, 0xd0, 0x05, 0x87, 0x7c, 0x55, 0x41,
   0x01, 0x00, 0x00, 0x00, 0x00, 0x00, 0x00, 0x81, 0xae, 0xa4, 0x0a, 0x24,
   0x89, 0x00, 0x20, 0x00, 0x49, 0x02, 0x9f, 0xea, 0xd2, 0x00, 0xfa, 0x48,
   0x0a, 0x01, 0x00, 0x00, 0x00, 0x00, 0x00, 0x00, 0x02, 0xb8, 0x50, 0x5d,
   0x44, 0x10, 0x00, 0x22, 0x11, 0x00, 0x04, 0xbe, 0xc0, 0x82, 0x11, 0xd8,
   0xd3, 0x28, 0x01, 0x00, 0x00, 0x01, 0x00, 0x00, 0x00, 0x86, 0x2a, 0xa5,
   0x34, 0x08, 0xab, 0x00, 0x08, 0x00, 0x90, 0xa0, 0x7b, 0x95, 0xe0, 0x00,
   0xfa, 0x54, 0x81, 0x00, 0x00, 0x00, 0x0f, 0x00, 0x00, 0x00, 0x08, 0x55,
   0xa4, 0xe8, 0x68, 0x41, 0x0b, 0x12, 0x00, 0x81, 0x04, 0xd7, 0x11, 0x54,
   0x20, 0xe8, 0x95, 0x16, 0x01, 0x00, 0x00, 0xfe, 0xff, 0x00, 0x00, 0x50,
   0x0a, 0x50, 0xa5, 0x15, 0x96, 0x20, 0x44, 0x04, 0x00, 0xa2, 0x44, 0x47,
   0x3d, 0x00, 0xf8, 0x53, 0xa2, 0x00, 0x00, 0x00, 0x7b, 0xff, 0x07, 0x00,
   0xe0, 0x5a, 0xa2, 0x00, 0x85, 0x10, 0x8a, 0x04, 0x20, 0x48, 0x82, 0x0c,
   0xf8, 0x07, 0x82, 0x52, 0x5f, 0x85, 0x02, 0x00, 0x00, 0xef, 0x6d, 0x1f,
   0x00, 0x40, 0x2a, 0xa8, 0x84, 0x52, 0xa5, 0x20, 0x40, 0x04, 0x01, 0xa8,
   0x00, 0x02, 0x00, 0x10, 0xf8, 0xbb, 0x12, 0x03, 0x00, 0x00, 0xfe, 0xef,
   0xea, 0x00, 0xc0, 0xa8, 0xa0, 0x10, 0x74, 0x09, 0x84, 0x00, 0x20, 0x48,
   0x81, 0x02, 0x00, 0x00, 0x42, 0xd1, 0xf7, 0x62, 0x02, 0x00, 0x00, 0xdb,
   0xde, 0x5d, 0x07, 0x00, 0x32, 0x52, 0x25, 0x1d, 0x25, 0x01, 0x80, 0x8a,
   0x22, 0xa9, 0x04, 0x20, 0xd4, 0x24, 0x6d, 0xbf, 0x8a, 0x02, 0x00, 0x00,
   0xff, 0x9b, 0xea, 0x02, 0xc0, 0xa4, 0xe4, 0xac, 0xa4, 0x24, 0x00, 0x00,
   0x5a, 0x24, 0x01, 0x09, 0x40, 0x11, 0x49, 0xc4, 0xfd, 0xaa, 0x02, 0x00,
   0x00, 0xb7, 0x6f, 0xb5, 0x09, 0x80, 0x28, 0x52, 0xff, 0xdf, 0x01, 0x00,
   0x80, 0x57, 0xab, 0x94, 0x22, 0x82, 0x24, 0x6a, 0xa9, 0x56, 0x55, 0x02,
   0x00, 0x00, 0xfe, 0x4a, 0xb5, 0x2f, 0x80, 0xe1, 0xea, 0xad, 0xfd, 0x06,
   0x00, 0x00, 0x7e, 0xf5, 0x01, 0x4a, 0x94, 0xa4, 0x08, 0x41, 0xab, 0xd5,
   0x02, 0x00, 0x00, 0xdf, 0xa5, 0xde, 0x3d, 0x61, 0x54, 0x1f, 0x7f, 0x97,
   0x10, 0x01, 0xc0, 0xab, 0x5f, 0x01, 0x00, 0x11, 0x09, 0x25, 0xfc, 0xe4,
   0xa2, 0x02, 0x00, 0x00, 0xbd, 0x4a, 0xb9, 0xb7, 0xce, 0xd0, 0x7a, 0xc0,
   0xd5, 0x02, 0x10, 0x00, 0x6f, 0xfa, 0x0a, 0x50, 0x6a, 0xb2, 0x28, 0x91,
   0x49, 0xeb, 0x02, 0x00, 0x00, 0xbf, 0x6a, 0xff, 0xae, 0x74, 0x52, 0xd5,
   0x9f, 0x2e, 0x01, 0x00, 0x00, 0x5f, 0xed, 0x02, 0x00, 0x89, 0x24, 0x82,
   0x7d, 0xa3, 0xaf, 0x01, 0x00, 0x00, 0x6f, 0xd5, 0xea, 0xbd, 0xee, 0x42,
   0x55, 0x52, 0x6d, 0x00, 0x00, 0x00, 0xb8, 0xfd, 0x01, 0x41, 0x52, 0xa5,
   0x12, 0xfb, 0xa6, 0x5a, 0x03, 0x00, 0x00, 0xb5, 0xf4, 0xff, 0xab, 0x7a,
   0xa9, 0x82, 0x0d, 0x0d, 0x00, 0x00, 0x00, 0x6c, 0x5f, 0x00, 0x00, 0x2a,
   0x89, 0xe8, 0x4e, 0x49, 0xbf, 0x02, 0x00, 0x00, 0x5f, 0xd5, 0x6f, 0x4b,
   0xf7, 0x41, 0x2d, 0x5b, 0x78, 0x41, 0x00, 0x00, 0xb8, 0x5a, 0x00, 0x00,
   0x40, 0x12, 0xc9, 0xd8, 0x45, 0xf7, 0x02, 0x00, 0x00, 0x6b, 0xfb, 0xfe,
   0xaa, 0xff, 0x02, 0x25, 0x25, 0x05, 0x00, 0x22, 0x00, 0xe8, 0x06, 0x00,
   0x24, 0xaa, 0x55, 0x36, 0x4a, 0x49, 0x5d, 0x03, 0x00, 0x00, 0xd7, 0xfe,
   0xfb, 0xd5, 0x56, 0x25, 0x55, 0x2a, 0x28, 0x00, 0x00, 0x01, 0xd8, 0x0f,
   0x40, 0x00, 0x00, 0xda, 0xa6, 0x50, 0x89, 0xfe, 0x02, 0x08, 0x00, 0xad,
   0xf6, 0xaf, 0xfa, 0xfb, 0x81, 0xaa, 0x45, 0x55, 0x01, 0x00, 0x00, 0xf0,
   0x02, 0x00, 0x44, 0x54, 0x2b, 0x11, 0xca, 0x04, 0x5a, 0x00, 0x00, 0x00,
   0xad, 0x6e, 0xbf, 0xaa, 0xfe, 0x0b, 0x2a, 0x09, 0x14, 0x00, 0x00, 0x00,
   0xe0, 0x03, 0x02, 0x80, 0xa0, 0x74, 0x25, 0x29, 0xa9, 0xfa, 0x00, 0x00,
   0x00, 0xab, 0xff, 0x5d, 0xf5, 0xb7, 0x83, 0x5a, 0xaa, 0x00, 0x00, 0x02,
   0x90, 0xb4, 0x20, 0x00, 0x00, 0x82, 0xda, 0x55, 0x6f, 0x80, 0xaf, 0x00,
   0x00, 0x00, 0xd5, 0xfe, 0xaf, 0xec, 0xfe, 0x17, 0xb2, 0x50, 0xa9, 0x54,
   0x10, 0x01, 0x62, 0x05, 0x40, 0x04, 0x08, 0xf5, 0xff, 0xfd, 0x02, 0xfa,
   0x00, 0x00, 0x00, 0xea, 0x5b, 0x15, 0xfb, 0x7b, 0x03, 0x84, 0x92, 0x82,
   0x02, 0x04, 0x40, 0xfc, 0x00, 0x08, 0x21, 0x40, 0xad, 0xed, 0xb7, 0xa8,
   0xad, 0x00, 0x00, 0x00, 0xad, 0x7f, 0x5f, 0x6c, 0xef, 0x9f, 0xb0, 0x52,
   0x54, 0x54, 0x00, 0x08, 0x51, 0x57, 0x00, 0x04, 0x00, 0x55, 0xbd, 0xee,
   0x03, 0x7b, 0x00, 0x00, 0x01, 0xfa, 0xaf, 0xaa, 0xfd, 0x7d, 0x0b, 0xaa,
   0x0a, 0x89, 0x00, 0x40, 0xa0, 0xf6, 0x00, 0x00, 0xa0, 0xa2, 0xae, 0x6f,
   0xd5, 0xd4, 0x56, 0x00, 0x80, 0x00, 0x5e, 0x7d, 0x25, 0xda, 0xfb, 0x2b,
   0xa0, 0x15, 0x14, 0x42, 0x0a, 0x82, 0x94, 0xab, 0x04, 0x00, 0x48, 0xf9,
   0xfd, 0xd5, 0xd5, 0x7a, 0x00, 0x40, 0x00, 0xba, 0x57, 0x91, 0xfd, 0xef,
   0x54, 0x45, 0xa1, 0xd0, 0x55, 0x91, 0x28, 0x7b, 0x05, 0x80, 0x00, 0x80,
   0x2e, 0xab, 0xad, 0x6f, 0x25, 0x00, 0x10, 0x00, 0x57, 0x5b, 0x45, 0x7a,
   0x7d, 0x5d, 0x40, 0xac, 0x02, 0x9d, 0x02, 0x41, 0x76, 0xad, 0x08, 0x24,
   0x30, 0x68, 0xb4, 0xb5, 0xfe, 0x0f, 0x00, 0x08, 0x00, 0xee, 0x6d, 0xb2,
   0xee, 0xd7, 0xba, 0x04, 0x15, 0x68, 0x45, 0x29, 0xf4, 0xed, 0x12, 0x00,
   0x40, 0xc1, 0x8a, 0xa2, 0x4b, 0xdb, 0x7a, 0x00, 0x01, 0x00, 0x5a, 0xdb,
   0x85, 0xdc, 0xd6, 0x72, 0x01, 0xa0, 0x51, 0x4a, 0xa4, 0xad, 0x55, 0x27,
   0x91, 0x88, 0x04, 0x52, 0x04, 0x4a, 0xb5, 0xeb, 0x61, 0x00, 0x00, 0xb7,
   0x6a, 0xaa, 0xf6, 0x35, 0xea, 0x54, 0x09, 0xde, 0xb1, 0xab, 0x56, 0x52,
   0x2d, 0x04, 0x42, 0x93, 0x00, 0x11, 0x00, 0x5a, 0xad, 0x06, 0x00, 0x00,
   0x76, 0xcd, 0x8a, 0xac, 0xfe, 0xd0, 0x22, 0x40, 0x94, 0x55, 0xdf, 0x4a,
   0x82, 0x74, 0x49, 0x08, 0x56, 0x24, 0xa0, 0x54, 0x52, 0x29, 0x0c, 0x00,
   0x00, 0x55, 0x5b, 0x15, 0xbb, 0x2d, 0x9d, 0x0d, 0x12, 0x73, 0xaa, 0xb5,
   0x25, 0x28, 0xaa, 0x22, 0x21, 0x28, 0x81, 0x02, 0x91, 0xad, 0x0e, 0x10,
   0x00, 0x00, 0xbb, 0xb6, 0x50, 0x96, 0x5d, 0x50, 0x4f, 0x00, 0x00, 0x6f,
   0x6d, 0x45, 0x01, 0xa8, 0x25, 0x6c, 0x21, 0x10, 0x2a, 0x12, 0x6d, 0x05,
   0x60, 0x00, 0x00, 0xaf, 0xae, 0x27, 0x6b, 0x5b, 0xe5, 0x39, 0x21, 0xca,
   0x56, 0x5b, 0x11, 0x54, 0xa2, 0x4a, 0xd1, 0x9a, 0x22, 0x81, 0x40, 0x5b,
   0x05, 0x80, 0x00, 0x00, 0xbd, 0x2d, 0xa4, 0xea, 0x1c, 0xa0, 0x75, 0x00,
   0x80, 0x6e, 0x55, 0x82, 0x00, 0x04, 0x9d, 0xaa, 0x26, 0xa4, 0x16, 0x95,
   0xaa, 0x02, 0x00, 0x01, 0x00, 0x77, 0x2d, 0xd2, 0xbd, 0x56, 0x5c, 0x1e,
   0x45, 0x50, 0xbd, 0x5a, 0x55, 0x24, 0x51, 0x6a, 0x6b, 0x8b, 0x88, 0x24,
   0xa0, 0x57, 0x03, 0x00, 0x06, 0x00, 0xef, 0x56, 0xd0, 0x6a, 0x55, 0xb1,
   0xb6, 0x0a, 0x81, 0xf5, 0xab, 0xaa, 0x24, 0x44, 0x6a, 0xd7, 0x2a, 0x21,
   0x44, 0xb5, 0x4c, 0x02, 0x00, 0x04, 0x00, 0xbe, 0x89, 0x52, 0xbb, 0x0e,
   0xc5, 0xe9, 0x23, 0x68, 0xd9, 0x5e, 0xd5, 0x92, 0x08, 0xa8, 0xb6, 0x84,
   0x96, 0x20, 0xe8, 0x93, 0x01, 0x00, 0x10, 0x00, 0xf5, 0x2b, 0xd2, 0x56,
   0xda, 0xa8, 0xea, 0x5f, 0x00, 0xd4, 0xf7, 0xb6, 0xaa, 0x5a, 0xe9, 0xaa,
   0x95, 0x04, 0x84, 0xcd, 0xa6, 0x00, 0x00, 0x00, 0x00, 0x5f, 0x45, 0x6a,
   0xab, 0x06, 0x51, 0xb5, 0x3c, 0x45, 0xf8, 0xdf, 0x6d, 0x5b, 0x55, 0x92,
   0x4a, 0x2a, 0x91, 0x50, 0x9b, 0xaa, 0x00, 0x00, 0x00, 0x00, 0xf5, 0x4a,
   0x6a, 0xb5, 0x74, 0x72, 0x55, 0xbf, 0x09, 0xa9, 0xfe, 0x7f, 0xab, 0xaa,
   0xaa, 0xaa, 0x55, 0xa5, 0x52, 0x36, 0x29, 0x00, 0x00, 0x00, 0x00, 0x5f,
   0x55, 0xbd, 0x6a, 0x4d, 0xc8, 0xae, 0xda, 0x0b, 0xd4, 0xbb, 0xdb, 0x6d,
   0xdb, 0xaa, 0x4a, 0x55, 0x6a, 0x95, 0xa5, 0xf4, 0x00, 0x00, 0x00, 0x00 };
