#define text_image_1_44_width 128
#define text_image_1_44_height 96
static unsigned char text_image_1_44_bits[] = {
   0x00, 0x00, 0x00, 0x00, 0x00, 0x00, 0x00, 0x00, 0x00, 0x00, 0x00, 0x00,
   0x00, 0x00, 0x00, 0x00, 0x00, 0x00, 0x00, 0x00, 0x00, 0x00, 0x00, 0x00,
   0x00, 0x00, 0x00, 0x00, 0x00, 0x00, 0x00, 0x00, 0x00, 0x00, 0x00, 0x00,
   0x00, 0x00, 0x00, 0x00, 0x00, 0x00, 0x00, 0x00, 0x00, 0x00, 0x00, 0x00,
   0x00, 0x00, 0x00, 0x00, 0x00, 0x00, 0x00, 0x00, 0x00, 0x00, 0x00, 0x00,
   0x00, 0x00, 0x00, 0x00, 0x00, 0x00, 0x00, 0x00, 0x00, 0x00, 0x00, 0x00,
   0x00, 0x00, 0x00, 0x00, 0x00, 0x00, 0x00, 0x00, 0x00, 0x00, 0x00, 0x00,
   0x00, 0x00, 0x00, 0x00, 0x00, 0x00, 0x00, 0x00, 0x00, 0x00, 0x00, 0x00,
   0x00, 0x00, 0x00, 0x00, 0x00, 0x00, 0x00, 0x00, 0x00, 0x00, 0x00, 0x00,
   0x00, 0x00, 0x00, 0x00, 0x00, 0x00, 0x00, 0x00, 0x00, 0x00, 0x00, 0x00,
   0x00, 0x00, 0x00, 0x00, 0x00, 0x00, 0x00, 0x00, 0x00, 0x00, 0x00, 0x00,
   0x00, 0x00, 0x00, 0x00, 0x00, 0x00, 0x00, 0x00, 0x00, 0x00, 0x00, 0x00,
   0x00, 0x00, 0x00, 0x00, 0x00, 0x00, 0x00, 0x00, 0x00, 0x00, 0x00, 0x00,
   0x00, 0x00, 0x00, 0x00, 0x00, 0x00, 0x00, 0x00, 0x00, 0x00, 0x00, 0x00,
   0x00, 0x00, 0x00, 0x00, 0x00, 0x00, 0x00, 0x00, 0x00, 0x00, 0x00, 0x00,
   0x00, 0x00, 0x00, 0x00, 0x00, 0x00, 0x00, 0x00, 0x00, 0x00, 0x00, 0x00,
   0x00, 0x00, 0x00, 0x00, 0x00, 0x00, 0x00, 0x00, 0x00, 0x00, 0x00, 0x00,
   0x00, 0x00, 0x00, 0x00, 0xff, 0xff, 0xff, 0xff, 0xff, 0xff, 0xff, 0xff,
   0xff, 0xff, 0xff, 0xff, 0xff, 0xff, 0xff, 0xff, 0xff, 0xff, 0xff, 0xff,
   0xff, 0xff, 0xff, 0xff, 0xff, 0xff, 0xff, 0xff, 0xff, 0xff, 0xff, 0xff,
   0xff, 0xff, 0xff, 0xff, 0xff, 0xff, 0xff, 0xff, 0xff, 0xff, 0xff, 0xff,
   0xff, 0xff, 0xff, 0xff, 0xff, 0xff, 0xff, 0xff, 0xff, 0xff, 0xff, 0xff,
   0xff, 0xff, 0xff, 0xff, 0xff, 0xff, 0xff, 0xff, 0xff, 0xff, 0xff, 0xff,
   0xff, 0xff, 0xff, 0xff, 0xff, 0xff, 0xff, 0xff, 0xff, 0xff, 0xff, 0xff,
   0x1f, 0x00, 0x00, 0x00, 0x00, 0x00, 0x00, 0x00, 0x00, 0x00, 0x00, 0x00,
   0x00, 0x00, 0x00, 0xf8, 0x1f, 0x00, 0x00, 0x00, 0x00, 0x00, 0x00, 0x00,
   0x00, 0x00, 0x00, 0x00, 0x00, 0x00, 0x00, 0xf8, 0x1f, 0x00, 0x00, 0x00,
   0x00, 0x00, 0x00, 0x00, 0x00, 0x00, 0x00, 0x00, 0x00, 0x00, 0x00, 0xf8,
   0x1f, 0x00, 0x00, 0x00, 0x00, 0x00, 0x00, 0x00, 0x00, 0x00, 0x00, 0x00,
   0x00, 0x00, 0x00, 0xf8, 0x1f, 0x00, 0x00, 0x00, 0x00, 0x00, 0x00, 0x00,
   0x00, 0x00, 0x00, 0x00, 0x00, 0x00, 0x00, 0xf8, 0x1f, 0x00, 0x00, 0x00,
   0x00, 0x00, 0x00, 0x00, 0x00, 0x00, 0x00, 0x00, 0x00, 0x00, 0x00, 0xf8,
   0x1f, 0x00, 0x00, 0x00, 0x00, 0x00, 0x00, 0x60, 0x00, 0x00, 0x00, 0x00,
   0x00, 0x00, 0x00, 0xf8, 0x1f, 0xf8, 0x00, 0x00, 0x00, 0x00, 0x00, 0x60,
   0x00, 0x00, 0x18, 0x00, 0x00, 0x00, 0x03, 0xf8, 0x1f, 0xfc, 0x01, 0x00,
   0x00, 0x00, 0x00, 0x60, 0x00, 0x00, 0x18, 0x00, 0x00, 0x00, 0x03, 0xf8,
   0x1f, 0x0e, 0x01, 0x00, 0x00, 0x00, 0x00, 0x60, 0x00, 0x00, 0x18, 0x00,
   0x00, 0x00, 0x03, 0xf8, 0x1f, 0x06, 0xc0, 0x03, 0x3b, 0x1e, 0xec, 0x61,
   0xf0, 0x01, 0xfc, 0xf0, 0x71, 0xb8, 0x1f, 0xf8, 0x1f, 0x06, 0xe0, 0x07,
   0x7f, 0x1f, 0xfc, 0x63, 0xfc, 0x03, 0xfc, 0xfc, 0x63, 0x98, 0x1f, 0xf8,
   0x1f, 0x7c, 0x20, 0x0e, 0xe7, 0x39, 0x1c, 0x67, 0x0c, 0x07, 0x18, 0x0c,
   0xc7, 0x0c, 0x03, 0xf8, 0x1f, 0xf8, 0x01, 0x0c, 0xc3, 0x30, 0x0c, 0x66,
   0x06, 0x06, 0x18, 0x06, 0xc6, 0x0c, 0x03, 0xf8, 0x1f, 0x80, 0xc3, 0x0f,
   0xc3, 0x30, 0x0c, 0x66, 0xfe, 0x07, 0x18, 0xfe, 0x87, 0x07, 0x03, 0xf8,
   0x1f, 0x00, 0xf3, 0x0f, 0xc3, 0x30, 0x0c, 0x66, 0xfe, 0x07, 0x18, 0xfe,
   0x87, 0x07, 0x03, 0xf8, 0x1f, 0x00, 0x33, 0x0c, 0xc3, 0x30, 0x0c, 0x66,
   0x06, 0x00, 0x18, 0x06, 0xc0, 0x0c, 0x03, 0xf8, 0x1f, 0x82, 0x33, 0x0e,
   0xc3, 0x30, 0x1c, 0x67, 0x0c, 0x04, 0x18, 0x0c, 0xc4, 0x0c, 0x03, 0xf8,
   0x1f, 0xfe, 0xf1, 0x0f, 0xc3, 0x30, 0xfc, 0x63, 0xfc, 0x07, 0xf8, 0xfc,
   0x67, 0x18, 0x1f, 0xf8, 0x1f, 0xfc, 0xe0, 0x0d, 0xc3, 0x30, 0xec, 0x61,
   0xf0, 0x03, 0xf0, 0xf0, 0x73, 0x38, 0x1e, 0xf8, 0x1f, 0x00, 0x00, 0x00,
   0x00, 0x00, 0x0c, 0x00, 0x00, 0x00, 0x00, 0x00, 0x00, 0x00, 0x00, 0xf8,
   0x1f, 0x00, 0x00, 0x00, 0x00, 0x00, 0x0c, 0x00, 0x00, 0x00, 0x00, 0x00,
   0x00, 0x00, 0x00, 0xf8, 0x1f, 0x00, 0x00, 0x00, 0x00, 0x00, 0x0c, 0x00,
   0x00, 0x00, 0x00, 0x00, 0x00, 0x00, 0x00, 0xf8, 0x1f, 0x00, 0x00, 0x00,
   0x00, 0x00, 0x0c, 0x00, 0x00, 0x00, 0x00, 0x00, 0x00, 0x00, 0x00, 0xf8,
   0x1f, 0x00, 0x00, 0x00, 0x00, 0x00, 0x00, 0x00, 0x00, 0x00, 0x00, 0x00,
   0x00, 0x00, 0x00, 0xf8, 0x1f, 0x00, 0x00, 0x00, 0x00, 0x00, 0x00, 0x00,
   0x00, 0x00, 0x00, 0x00, 0x00, 0x00, 0x00, 0xf8, 0x1f, 0x00, 0x00, 0x00,
   0x00, 0x00, 0x00, 0x00, 0x00, 0x00, 0x00, 0x00, 0x00, 0x00, 0x00, 0xf8,
   0x1f, 0x00, 0x00, 0x00, 0x00, 0x00, 0x00, 0x00, 0x00, 0x00, 0x00, 0x00,
   0x00, 0x00, 0x00, 0xf8, 0x1f, 0x00, 0x00, 0x00, 0x00, 0x18, 0x00, 0x00,
   0xc6, 0x00, 0x00, 0xc0, 0x00, 0x00, 0x00, 0xf8, 0x1f, 0xfe, 0x01, 0x18,
   0x00, 0x18, 0x00, 0x00, 0xc6, 0x00, 0x00, 0xc0, 0x00, 0x00, 0x00, 0xf8,
   0x1f, 0xfe, 0x01, 0x18, 0x00, 0x18, 0x00, 0x00, 0x06, 0x00, 0x00, 0xc0,
   0x00, 0x00, 0x00, 0xf8, 0x1f, 0x06, 0x00, 0x18, 0x00, 0x18, 0x00, 0x00,
   0x06, 0x00, 0x00, 0xc0, 0x00, 0x00, 0x00, 0xf8, 0x1f, 0x06, 0x00, 0x18,
   0x7b, 0x18, 0x06, 0xf0, 0xc6, 0xf8, 0xd8, 0xc3, 0xf0, 0x30, 0x30, 0xf8,
   0x1f, 0x06, 0x00, 0x18, 0x7f, 0x18, 0x03, 0xf8, 0xc7, 0xfc, 0xf9, 0xc7,
   0xf8, 0x31, 0x30, 0xf8, 0x1f, 0xfe, 0x01, 0x18, 0xe7, 0x98, 0x01, 0x1c,
   0xc7, 0x0c, 0x39, 0xce, 0x88, 0x63, 0x18, 0xf8, 0x1f, 0xfe, 0x01, 0x18,
   0xc3, 0xd8, 0x00, 0x0c, 0xc6, 0x1c, 0x18, 0xcc, 0x00, 0x63, 0x18, 0xf8,
   0x1f, 0x06, 0xf8, 0x18, 0xc3, 0x78, 0x00, 0x0c, 0xc6, 0xf8, 0x18, 0xcc,
   0xf0, 0xc3, 0x0c, 0xf8, 0x1f, 0x06, 0xf8, 0x18, 0xc3, 0x78, 0x00, 0x0c,
   0xc6, 0xe0, 0x19, 0xcc, 0xfc, 0xc3, 0x0c, 0xf8, 0x1f, 0x06, 0x00, 0x18,
   0xc3, 0xd8, 0x00, 0x0c, 0xc6, 0x80, 0x19, 0xcc, 0x0c, 0x83, 0x07, 0xf8,
   0x1f, 0x06, 0x00, 0x18, 0xc3, 0x98, 0x01, 0x1c, 0xc7, 0x84, 0x39, 0xce,
   0x8c, 0x83, 0x07, 0xf8, 0x1f, 0xfe, 0x01, 0x18, 0xc3, 0x18, 0x03, 0xf8,
   0xc7, 0xfc, 0xf9, 0xc7, 0xfc, 0x03, 0x03, 0xf8, 0x1f, 0xfe, 0x01, 0x18,
   0xc3, 0x18, 0x06, 0xf0, 0xc6, 0x78, 0xd8, 0xc3, 0x78, 0x03, 0x03, 0xf8,
   0x1f, 0x00, 0x00, 0x00, 0x00, 0x00, 0x00, 0x00, 0x00, 0x00, 0x18, 0x00,
   0x00, 0x00, 0x03, 0xf8, 0x1f, 0x00, 0x00, 0x00, 0x00, 0x00, 0x00, 0x00,
   0x00, 0x00, 0x18, 0x00, 0x00, 0x80, 0x01, 0xf8, 0x1f, 0x00, 0x00, 0x00,
   0x00, 0x00, 0x00, 0x00, 0x00, 0x00, 0x18, 0x00, 0x00, 0xe0, 0x01, 0xf8,
   0x1f, 0x00, 0x00, 0x00, 0x00, 0x00, 0x00, 0x00, 0x00, 0x00, 0x18, 0x00,
   0x00, 0xe0, 0x00, 0xf8, 0x1f, 0x00, 0x00, 0x00, 0x00, 0x00, 0x00, 0x00,
   0x00, 0x00, 0x00, 0x00, 0x00, 0x00, 0x00, 0xf8, 0x1f, 0x00, 0x00, 0x00,
   0x00, 0x00, 0x00, 0x00, 0x00, 0x00, 0x00, 0x00, 0x00, 0x00, 0x00, 0xf8,
   0xff, 0xff, 0xff, 0xff, 0xff, 0xff, 0xff, 0xff, 0xff, 0xff, 0xff, 0xff,
   0xff, 0xff, 0xff, 0xff, 0xff, 0xff, 0xff, 0xff, 0xff, 0xff, 0xff, 0xff,
   0xff, 0xff, 0xff, 0xff, 0xff, 0xff, 0xff, 0xff, 0xff, 0xff, 0xff, 0xff,
   0xff, 0xff, 0xff, 0xff, 0xff, 0xff, 0xff, 0xff, 0xff, 0xff, 0xff, 0xff,
   0xff, 0xff, 0xff, 0xff, 0xff, 0xff, 0xff, 0xff, 0xff, 0xff, 0xff, 0xff,
   0xff, 0xff, 0xff, 0xff, 0xff, 0xff, 0xff, 0xff, 0xff, 0xff, 0xff, 0xff,
   0xff, 0xff, 0xff, 0xff, 0xff, 0xff, 0xff, 0xff, 0x00, 0x00, 0x00, 0x00,
   0x00, 0x00, 0x00, 0x00, 0x00, 0x00, 0x00, 0x00, 0x00, 0x00, 0x00, 0x00,
   0x00, 0x00, 0x00, 0x00, 0x00, 0x00, 0x00, 0x00, 0x00, 0x00, 0x00, 0x00,
   0x00, 0x00, 0x00, 0x00, 0x00, 0x00, 0x00, 0x00, 0x00, 0x00, 0x00, 0x00,
   0x00, 0x00, 0x00, 0x00, 0x00, 0x00, 0x00, 0x00, 0x00, 0x00, 0x00, 0x00,
   0x00, 0x00, 0x00, 0x00, 0x00, 0x00, 0x00, 0x00, 0x00, 0x00, 0x00, 0x00,
   0x00, 0x00, 0x00, 0x00, 0x00, 0x00, 0x00, 0x00, 0x00, 0x00, 0x00, 0x00,
   0x00, 0x00, 0x00, 0x00, 0x00, 0x00, 0x00, 0x00, 0x00, 0x00, 0x00, 0x00,
   0x00, 0x00, 0x00, 0x00, 0x00, 0x00, 0x00, 0x00, 0x00, 0x00, 0x00, 0x00,
   0x00, 0x00, 0x00, 0x00, 0x00, 0x00, 0x00, 0x00, 0x00, 0x00, 0x00, 0x00,
   0x00, 0x00, 0x00, 0x00, 0x00, 0x00, 0x00, 0x00, 0x00, 0x00, 0x00, 0x00,
   0x00, 0x00, 0x00, 0x00, 0xf8, 0x80, 0x03, 0x1f, 0xf8, 0x01, 0x1c, 0x7e,
   0xc0, 0xc3, 0x3f, 0xf8, 0xc0, 0x03, 0x00, 0x00, 0xfc, 0xe1, 0x83, 0x3f,
   0xfc, 0x03, 0x1c, 0x7e, 0xe0, 0xc7, 0x3f, 0xfc, 0xe1, 0x0f, 0x00, 0x00,
   0x8c, 0x61, 0x83, 0x70, 0x04, 0x07, 0x1a, 0x06, 0x70, 0x04, 0x18, 0x8e,
   0x73, 0x0c, 0x00, 0x00, 0x06, 0x03, 0x03, 0x60, 0x00, 0x06, 0x1b, 0x06,
   0x38, 0x00, 0x18, 0x06, 0x33, 0x18, 0x00, 0x00, 0x06, 0x03, 0x03, 0x60,
   0x00, 0x07, 0x19, 0x3e, 0x18, 0x00, 0x18, 0x8e, 0x33, 0x18, 0x00, 0x00,
   0x06, 0x03, 0x03, 0x70, 0xf0, 0x81, 0x18, 0x7e, 0xd8, 0x03, 0x1c, 0xf8,
   0x70, 0x1c, 0x00, 0x00, 0x06, 0x03, 0x03, 0x30, 0xf0, 0xc3, 0x18, 0xe2,
   0xf8, 0x07, 0x0c, 0xfc, 0xe1, 0x1f, 0x00, 0x00, 0x06, 0x03, 0x03, 0x18,
   0x00, 0x47, 0x18, 0xc0, 0x38, 0x0e, 0x0c, 0x8e, 0xc3, 0x1b, 0x00, 0x00,
   0x06, 0x03, 0x03, 0x0c, 0x00, 0xe6, 0x7f, 0xc0, 0x18, 0x0c, 0x0e, 0x06,
   0x03, 0x18, 0x00, 0x00, 0x06, 0x03, 0x03, 0x06, 0x00, 0xe6, 0x7f, 0xc0,
   0x18, 0x0c, 0x06, 0x06, 0x03, 0x1c, 0x00, 0x00, 0x8c, 0x01, 0x03, 0x03,
   0x04, 0x07, 0x18, 0xe1, 0x30, 0x0e, 0x06, 0x8e, 0x23, 0x0e, 0x00, 0x00,
   0xfc, 0xe1, 0x9f, 0x7f, 0xfc, 0x03, 0x18, 0x7f, 0xf0, 0x07, 0x07, 0xfc,
   0xe1, 0x07, 0x00, 0x00, 0xf8, 0xe0, 0x9f, 0x7f, 0xf8, 0x01, 0x18, 0x3e,
   0xc0, 0x03, 0x03, 0xf8, 0xc0, 0x03, 0x00, 0x00, 0x00, 0x00, 0x00, 0x00,
   0x00, 0x00, 0x00, 0x00, 0x00, 0x00, 0x00, 0x00, 0x00, 0x00, 0x00, 0x00,
   0x00, 0x00, 0x00, 0x00, 0x00, 0x00, 0x00, 0x00, 0x00, 0x00, 0x00, 0x00,
   0x00, 0x00, 0x00, 0x00, 0x00, 0x00, 0x00, 0x00, 0x00, 0x00, 0x00, 0x00,
   0x00, 0x00, 0x00, 0x00, 0x00, 0x00, 0x00, 0x00, 0x00, 0x00, 0x00, 0x00,
   0x00, 0x00, 0x00, 0x00, 0x00, 0x00, 0x00, 0x00, 0x00, 0x00, 0x00, 0x00 };
