#define text_hello_2_7_width 264
#define text_hello_2_7_height 176
static unsigned char text_hello_2_7_bits[] = {
   0x00, 0x00, 0x00, 0x00, 0x00, 0x00, 0x00, 0x00, 0x00, 0x00, 0x00, 0x00,
   0x00, 0x00, 0x00, 0x00, 0x00, 0x00, 0x00, 0x00, 0x00, 0x00, 0x00, 0x00,
   0x00, 0x00, 0x00, 0x00, 0x00, 0x00, 0x00, 0x00, 0x00, 0x00, 0x00, 0x00,
   0x00, 0x00, 0x00, 0x00, 0x00, 0x00, 0x00, 0x00, 0x00, 0x00, 0x00, 0x00,
   0x00, 0x00, 0x00, 0x00, 0x00, 0x00, 0x00, 0x00, 0x00, 0x00, 0x00, 0x00,
   0x00, 0x00, 0x00, 0x00, 0x00, 0x00, 0x00, 0x00, 0x00, 0x00, 0x00, 0x00,
   0x00, 0x00, 0x00, 0x00, 0x00, 0x00, 0x00, 0x00, 0x00, 0x00, 0x00, 0x00,
   0x00, 0x00, 0x00, 0x00, 0x00, 0x00, 0x00, 0x00, 0x00, 0x00, 0x00, 0x00,
   0x00, 0x00, 0x00, 0x00, 0x00, 0x00, 0x00, 0x00, 0x00, 0x00, 0x00, 0x00,
   0x00, 0x00, 0x00, 0x00, 0x00, 0x00, 0x00, 0x00, 0x00, 0x00, 0x00, 0x00,
   0x00, 0x00, 0x00, 0x00, 0x00, 0x00, 0x00, 0x00, 0x00, 0x00, 0x00, 0x00,
   0x00, 0x00, 0x00, 0x00, 0x00, 0x00, 0x00, 0x00, 0x00, 0x00, 0x00, 0x00,
   0x00, 0x00, 0x00, 0x00, 0x00, 0x00, 0x00, 0x00, 0x00, 0x00, 0x00, 0x00,
   0x00, 0x00, 0x00, 0x00, 0x00, 0x00, 0x00, 0x00, 0x00, 0x00, 0x00, 0x00,
   0x00, 0x00, 0x00, 0x00, 0x00, 0x00, 0x00, 0x00, 0x00, 0x00, 0x00, 0x00,
   0x00, 0x00, 0x00, 0x00, 0x00, 0x00, 0x00, 0x00, 0x00, 0x00, 0x00, 0x00,
   0x00, 0x00, 0x00, 0x00, 0x00, 0x00, 0x00, 0x01, 0x00, 0x10, 0x80, 0x01,
   0x04, 0x00, 0x81, 0x00, 0x00, 0x00, 0x00, 0x00, 0x00, 0x00, 0x00, 0x00,
   0x00, 0x00, 0x00, 0x00, 0x00, 0x00, 0x00, 0x00, 0x00, 0x00, 0x00, 0x00,
   0x00, 0x00, 0x00, 0x00, 0x01, 0x00, 0x10, 0x40, 0x00, 0x04, 0x24, 0x81,
   0x00, 0x00, 0x00, 0x00, 0x00, 0x00, 0x00, 0x01, 0x00, 0x00, 0x00, 0x00,
   0x00, 0x80, 0xc7, 0x81, 0x87, 0x07, 0xc6, 0x07, 0xc7, 0x8f, 0x87, 0x07,
   0x00, 0x01, 0x00, 0x10, 0x40, 0x00, 0x04, 0x00, 0x81, 0x00, 0x00, 0x00,
   0x00, 0x00, 0x00, 0x00, 0x01, 0x00, 0x00, 0x00, 0x00, 0x00, 0x80, 0x04,
   0x41, 0x4c, 0x08, 0x46, 0x80, 0x08, 0xc8, 0xcc, 0x04, 0x3c, 0x1d, 0x0e,
   0x17, 0xee, 0xb9, 0x74, 0x24, 0x91, 0x34, 0x43, 0x87, 0xa7, 0xc3, 0xa5,
   0xb9, 0x27, 0x14, 0x8a, 0x28, 0x14, 0xfa, 0x40, 0x08, 0x01, 0x08, 0x08,
   0x45, 0x40, 0x00, 0x44, 0x48, 0x08, 0x62, 0x13, 0x92, 0x19, 0x59, 0xcc,
   0x8c, 0x24, 0x89, 0xcc, 0xc4, 0xc8, 0x6c, 0x62, 0x66, 0x44, 0x21, 0x14,
   0x8a, 0x48, 0x12, 0x82, 0x40, 0x08, 0x01, 0x08, 0x88, 0xc4, 0xc3, 0x07,
   0xc4, 0x4c, 0x08, 0x40, 0x21, 0x81, 0x90, 0x50, 0x84, 0x84, 0x24, 0x85,
   0x44, 0x44, 0x48, 0x28, 0x24, 0x24, 0x04, 0x21, 0x24, 0xd1, 0x45, 0x22,
   0x41, 0x40, 0x08, 0x01, 0x04, 0x87, 0x04, 0xcc, 0x0c, 0x82, 0xc7, 0x0c,
   0x7c, 0x21, 0x81, 0x90, 0x5f, 0x84, 0x84, 0x24, 0x87, 0x44, 0x44, 0x48,
   0x28, 0x24, 0x24, 0x38, 0x21, 0x24, 0x51, 0x85, 0x21, 0x21, 0x40, 0x08,
   0x01, 0x02, 0x4c, 0x04, 0x48, 0x08, 0xc2, 0x8c, 0x0b, 0x42, 0x21, 0x81,
   0x90, 0x40, 0x84, 0x84, 0x24, 0x85, 0x44, 0x44, 0x48, 0x28, 0x24, 0x24,
   0x40, 0x21, 0x24, 0x51, 0x45, 0x42, 0x11, 0x40, 0x08, 0x01, 0x01, 0xc8,
   0x0f, 0x48, 0x08, 0x41, 0x08, 0x08, 0x62, 0x33, 0x92, 0x19, 0x51, 0xcc,
   0x84, 0x24, 0x89, 0x44, 0x44, 0xc8, 0x6c, 0x66, 0x26, 0x44, 0x21, 0xc6,
   0x20, 0x42, 0xc2, 0x08, 0x80, 0x04, 0x81, 0x40, 0x0c, 0x44, 0x8c, 0x0c,
   0xc1, 0x4c, 0x04, 0x5c, 0x1d, 0x0e, 0x17, 0x4e, 0xb8, 0x84, 0x24, 0x91,
   0x44, 0x44, 0x88, 0xa7, 0xc3, 0x25, 0x38, 0xc6, 0xc5, 0x20, 0x22, 0x84,
   0xf8, 0x80, 0xc7, 0xc7, 0x8f, 0x07, 0x84, 0x87, 0x87, 0x80, 0x87, 0x03,
   0x00, 0x00, 0x00, 0x00, 0x00, 0x80, 0x00, 0x20, 0x00, 0x00, 0x00, 0x00,
   0x20, 0x00, 0x04, 0x00, 0x00, 0x00, 0x00, 0x00, 0x80, 0x00, 0x00, 0x00,
   0x00, 0x00, 0x00, 0x00, 0x00, 0x00, 0x00, 0x00, 0x00, 0x00, 0x00, 0x00,
   0x00, 0x00, 0xc8, 0x00, 0x20, 0x00, 0x00, 0x00, 0x00, 0x20, 0x00, 0x04,
   0x00, 0x00, 0x00, 0x00, 0x00, 0x40, 0x00, 0x00, 0x00, 0x00, 0x00, 0x00,
   0x00, 0x00, 0x00, 0x00, 0x00, 0x00, 0x00, 0x00, 0x00, 0x00, 0x00, 0x70,
   0x00, 0x10, 0x00, 0x00, 0x00, 0x00, 0x20, 0x00, 0x04, 0x00, 0x00, 0x00,
   0x00, 0x00, 0x30, 0x00, 0x00, 0x00, 0x00, 0x00, 0x00, 0x00, 0x00, 0x00,
   0x00, 0x00, 0x00, 0x00, 0x00, 0x00, 0x00, 0x00, 0x00, 0x00, 0x00, 0x00,
   0x00, 0x00, 0x00, 0x00, 0x00, 0x00, 0x00, 0x00, 0x00, 0x00, 0x00, 0x00,
   0x00, 0x00, 0x00, 0x00, 0x00, 0x00, 0x00, 0x00, 0x00, 0x00, 0x00, 0x00,
   0x00, 0x00, 0x00, 0x00, 0x00, 0x00, 0x00, 0x00, 0x00, 0x00, 0x00, 0x00,
   0x00, 0x00, 0x00, 0x00, 0x00, 0x00, 0x00, 0x00, 0x00, 0x00, 0x00, 0x00,
   0x00, 0x00, 0x00, 0x00, 0x00, 0x00, 0x00, 0x00, 0x00, 0x00, 0x00, 0x00,
   0x00, 0x00, 0x00, 0x00, 0x00, 0x00, 0x00, 0x00, 0x00, 0x00, 0x00, 0x00,
   0x00, 0x00, 0x00, 0x00, 0x00, 0x00, 0x00, 0x00, 0x00, 0x00, 0x00, 0x00,
   0x00, 0x00, 0x00, 0x00, 0x00, 0x00, 0x00, 0x00, 0x00, 0x00, 0x00, 0x00,
   0x00, 0x00, 0x40, 0x00, 0x00, 0x00, 0x00, 0x00, 0x00, 0x00, 0x00, 0x00,
   0x00, 0x00, 0x00, 0x00, 0x00, 0x00, 0x00, 0x00, 0x00, 0x00, 0x00, 0x00,
   0x00, 0x00, 0x00, 0x1f, 0x00, 0x00, 0x00, 0x00, 0xa0, 0x10, 0x10, 0x40,
   0x00, 0x00, 0xf0, 0x80, 0x32, 0x00, 0xf0, 0x00, 0x21, 0x00, 0x00, 0x21,
   0x00, 0xa0, 0x28, 0x00, 0x50, 0x01, 0x14, 0x05, 0x00, 0xf8, 0x03, 0x00,
   0x01, 0x00, 0x00, 0x00, 0x00, 0x80, 0x10, 0x10, 0x40, 0x00, 0x00, 0x08,
   0x00, 0x48, 0x00, 0x08, 0x00, 0x21, 0x00, 0x00, 0x21, 0x00, 0x00, 0x00,
   0x00, 0x00, 0x00, 0x00, 0x00, 0x00, 0x40, 0x00, 0x00, 0x41, 0x74, 0xce,
   0xe3, 0x04, 0xa0, 0x90, 0x93, 0x43, 0x00, 0x00, 0x04, 0x4e, 0x4c, 0x00,
   0x04, 0x9c, 0xf7, 0x00, 0x00, 0xa1, 0x28, 0xe2, 0x38, 0xf0, 0x70, 0x45,
   0x1c, 0x07, 0x00, 0x40, 0x70, 0xce, 0x5f, 0x14, 0x51, 0x14, 0x05, 0xa0,
   0x5f, 0x14, 0x44, 0x00, 0x00, 0x04, 0x42, 0x2c, 0x00, 0x04, 0x22, 0x21,
   0x00, 0x00, 0xbf, 0x28, 0x02, 0x41, 0x10, 0x81, 0x45, 0x20, 0x08, 0x00,
   0x40, 0x88, 0x22, 0x41, 0x14, 0x51, 0xf4, 0x01, 0xa0, 0x50, 0x94, 0x47,
   0x00, 0x00, 0xc4, 0x42, 0x4c, 0x00, 0xc4, 0x22, 0x21, 0x00, 0x00, 0x21,
   0x45, 0xe1, 0x79, 0x10, 0xf1, 0x29, 0x3c, 0x0f, 0x00, 0x40, 0xf8, 0xe2,
   0x41, 0x14, 0x51, 0x14, 0x00, 0xa0, 0x50, 0x54, 0x04, 0x00, 0x00, 0x84,
   0x42, 0x8c, 0x00, 0x84, 0x22, 0x21, 0x00, 0x00, 0x21, 0x45, 0x11, 0x45,
   0x10, 0x89, 0x29, 0xa2, 0x08, 0x00, 0x40, 0x08, 0x22, 0x41, 0x14, 0x51,
   0x14, 0x04, 0xa0, 0x50, 0x54, 0x04, 0x30, 0x00, 0x88, 0x42, 0x8c, 0x00,
   0x88, 0x22, 0x21, 0x18, 0x00, 0x21, 0x82, 0x10, 0x45, 0x10, 0x89, 0x11,
   0xa2, 0xc8, 0x00, 0x40, 0x08, 0x22, 0x9f, 0x17, 0xce, 0xe3, 0x05, 0xa0,
   0x90, 0x93, 0x47, 0x20, 0x00, 0xf0, 0x82, 0x4d, 0x00, 0xf0, 0x1c, 0xc6,
   0x10, 0x00, 0x21, 0x82, 0x60, 0x59, 0xf0, 0xb0, 0x11, 0x2c, 0x8b, 0x00,
   0x40, 0xf0, 0xc2, 0x00, 0x00, 0x40, 0x00, 0x00, 0x00, 0x00, 0x00, 0x00,
   0x10, 0x00, 0x00, 0x00, 0x00, 0x00, 0x00, 0x00, 0x00, 0x08, 0x00, 0x00,
   0x01, 0x00, 0x00, 0x10, 0x00, 0x00, 0x00, 0x40, 0x00, 0x00, 0x00, 0x00,
   0x00, 0x00, 0x40, 0x00, 0x00, 0x00, 0x00, 0x00, 0x00, 0x00, 0x00, 0x00,
   0x00, 0x00, 0x00, 0x00, 0x00, 0x00, 0x00, 0x00, 0x00, 0x01, 0x00, 0x00,
   0x10, 0x00, 0x00, 0x00, 0x00, 0x00, 0x00, 0x00, 0x00, 0x00, 0x00, 0x00,
   0x00, 0x00, 0x00, 0x00, 0x00, 0x00, 0x00, 0x00, 0x00, 0x00, 0x00, 0x00,
   0x00, 0x00, 0x00, 0x00, 0x00, 0x00, 0x00, 0x00, 0x00, 0x00, 0x00, 0x00,
   0x00, 0x00, 0x00, 0x00, 0x00, 0x00, 0x00, 0x00, 0x00, 0x00, 0x00, 0x00,
   0x00, 0x00, 0x00, 0x00, 0x00, 0x00, 0x00, 0x00, 0x00, 0x00, 0x00, 0x00,
   0x00, 0x00, 0x00, 0x00, 0x00, 0x00, 0x00, 0x00, 0x00, 0x00, 0x00, 0x00,
   0x00, 0x00, 0x00, 0x00, 0x00, 0x00, 0x00, 0x00, 0x00, 0x00, 0x00, 0x00,
   0x00, 0x00, 0x00, 0x00, 0x00, 0x00, 0x00, 0x00, 0x00, 0x00, 0x00, 0x00,
   0x00, 0x00, 0x00, 0x00, 0x00, 0x00, 0x00, 0x00, 0x00, 0x00, 0x00, 0x00,
   0x00, 0x00, 0x00, 0x00, 0x00, 0x00, 0x00, 0x00, 0x34, 0x00, 0x00, 0x00,
   0x00, 0x00, 0x00, 0x00, 0x00, 0x00, 0x00, 0x00, 0x00, 0x80, 0x04, 0x00,
   0x00, 0x00, 0x00, 0x00, 0xf0, 0x03, 0x00, 0x00, 0x00, 0x00, 0x00, 0x00,
   0x08, 0x00, 0x00, 0x00, 0x00, 0x4c, 0x00, 0x00, 0x00, 0x00, 0x00, 0x00,
   0x00, 0x00, 0x00, 0x00, 0x00, 0x00, 0x00, 0x03, 0x00, 0x00, 0x00, 0x02,
   0x00, 0x20, 0x02, 0x00, 0x00, 0x00, 0x1f, 0x40, 0x00, 0x00, 0x20, 0x00,
   0x00, 0x00, 0x44, 0xc0, 0x0f, 0x00, 0x00, 0x00, 0x00, 0x00, 0x00, 0x00,
   0x00, 0x00, 0xce, 0x01, 0x00, 0x00, 0x00, 0x00, 0x02, 0x00, 0x20, 0x04,
   0x0e, 0x80, 0x00, 0x21, 0x40, 0x00, 0x00, 0x20, 0x00, 0x00, 0x00, 0x40,
   0x80, 0x04, 0x36, 0x00, 0x03, 0x7c, 0x80, 0x03, 0xfe, 0xc0, 0x07, 0x84,
   0xe0, 0x1c, 0xfe, 0x00, 0x03, 0x02, 0x00, 0x20, 0x00, 0x11, 0x40, 0x00,
   0x41, 0xce, 0x73, 0x11, 0x3c, 0xe7, 0x01, 0x00, 0x30, 0x80, 0x04, 0x4c,
   0x80, 0x04, 0x88, 0x40, 0x04, 0x92, 0x80, 0x08, 0x88, 0x40, 0x0c, 0x92,
   0x80, 0x04, 0x02, 0x00, 0x20, 0x00, 0x01, 0x20, 0x80, 0x41, 0x51, 0x14,
   0x12, 0xa2, 0x28, 0x02, 0x00, 0x40, 0x80, 0x04, 0x84, 0x00, 0x07, 0x88,
   0x20, 0x00, 0x10, 0x80, 0x08, 0x50, 0x40, 0x0a, 0x10, 0x40, 0x08, 0x02,
   0x00, 0x20, 0x00, 0x06, 0x20, 0x40, 0x41, 0x51, 0x14, 0x12, 0xa2, 0x2f,
   0x02, 0x00, 0x80, 0x40, 0x04, 0x84, 0x80, 0x04, 0x78, 0x20, 0x00, 0x10,
   0x80, 0x07, 0x20, 0x40, 0x09, 0x10, 0xc0, 0x0f, 0x02, 0x00, 0x20, 0x00,
   0x01, 0x10, 0x40, 0x41, 0x51, 0x14, 0x0c, 0xa2, 0x20, 0x02, 0x00, 0x82,
   0x40, 0x04, 0x4c, 0x40, 0x04, 0x88, 0x20, 0x00, 0x10, 0x80, 0x08, 0x20,
   0xc0, 0x08, 0x10, 0x40, 0x00, 0x00, 0x00, 0x20, 0x80, 0x10, 0x10, 0x42,
   0x21, 0x51, 0x14, 0x0c, 0xa2, 0x20, 0x62, 0x00, 0x46, 0xf0, 0x0f, 0x34,
   0x40, 0x02, 0x88, 0x40, 0x04, 0x10, 0x80, 0x08, 0x10, 0x40, 0x08, 0x10,
   0x80, 0x08, 0x80, 0x01, 0x20, 0x80, 0x08, 0x90, 0x41, 0x1f, 0xce, 0x13,
   0x0c, 0x3c, 0x2f, 0x42, 0x00, 0x3a, 0x10, 0x08, 0x04, 0x80, 0x0d, 0x7c,
   0x80, 0x03, 0x38, 0xc0, 0x07, 0x12, 0xe0, 0x1c, 0x38, 0x00, 0x07, 0x02,
   0x01, 0x70, 0x00, 0x07, 0x60, 0x80, 0x00, 0x00, 0x00, 0x04, 0x00, 0x00,
   0x20, 0x00, 0x00, 0x00, 0x00, 0x0e, 0x00, 0x00, 0x00, 0x00, 0x00, 0x00,
   0x00, 0x00, 0x0c, 0x00, 0x00, 0x00, 0x00, 0x00, 0x80, 0x00, 0x00, 0x00,
   0x00, 0x00, 0x00, 0x00, 0x00, 0x00, 0x06, 0x00, 0x00, 0x00, 0x00, 0x00,
   0x00, 0x00, 0x00, 0x00, 0x00, 0x00, 0x00, 0x00, 0x00, 0x00, 0x00, 0x00,
   0x00, 0x00, 0x00, 0x00, 0x00, 0x00, 0x00, 0x00, 0x00, 0x00, 0x00, 0x00,
   0x00, 0x00, 0x00, 0x00, 0x00, 0x00, 0x00, 0x00, 0x00, 0x00, 0x00, 0x00,
   0x00, 0x00, 0x00, 0x00, 0x00, 0x00, 0x00, 0x00, 0x00, 0x00, 0x00, 0x00,
   0x00, 0x00, 0x00, 0x00, 0x00, 0x00, 0x00, 0x00, 0x00, 0x00, 0x00, 0x00,
   0x00, 0x00, 0x00, 0x00, 0x00, 0x00, 0x00, 0x00, 0x00, 0x00, 0x00, 0x00,
   0x00, 0x00, 0x00, 0x00, 0x00, 0x00, 0x00, 0x00, 0x00, 0x00, 0x00, 0x00,
   0x00, 0x00, 0x00, 0x00, 0x00, 0x00, 0x00, 0x00, 0x00, 0x00, 0x00, 0x00,
   0x00, 0x00, 0x00, 0x00, 0x00, 0x00, 0x00, 0x00, 0x00, 0x00, 0x00, 0x00,
   0x00, 0x00, 0x00, 0x00, 0x00, 0x00, 0x00, 0x00, 0x00, 0x00, 0x00, 0x00,
   0x00, 0x00, 0x00, 0x00, 0x00, 0x00, 0x00, 0x00, 0x00, 0x00, 0x00, 0x00,
   0x00, 0x00, 0x00, 0x00, 0x00, 0x00, 0x00, 0x00, 0x00, 0x00, 0x00, 0x00,
   0x00, 0x00, 0x00, 0x00, 0x00, 0x00, 0x00, 0x00, 0x00, 0x00, 0x00, 0x00,
   0x00, 0x00, 0x00, 0x00, 0x00, 0x00, 0x00, 0x00, 0x00, 0x00, 0x00, 0x00,
   0x00, 0x00, 0x00, 0x00, 0x00, 0x00, 0x00, 0x00, 0x00, 0x00, 0x00, 0x00,
   0x00, 0x00, 0x00, 0x00, 0x00, 0x00, 0x00, 0x00, 0x00, 0x08, 0x0c, 0x02,
   0x00, 0x00, 0x00, 0x00, 0x00, 0x00, 0x00, 0x00, 0x00, 0x00, 0x00, 0x00,
   0x00, 0x00, 0x00, 0x00, 0x00, 0x00, 0x00, 0x00, 0x00, 0x00, 0x00, 0x00,
   0x00, 0x00, 0x00, 0x00, 0x00, 0x00, 0x08, 0x02, 0x00, 0x00, 0x00, 0x00,
   0x00, 0x00, 0x00, 0x00, 0x00, 0x00, 0x00, 0x00, 0x00, 0x00, 0x00, 0x00,
   0x00, 0x00, 0x00, 0x00, 0x00, 0x00, 0x00, 0x00, 0x00, 0x00, 0x00, 0x00,
   0x00, 0x00, 0x00, 0x14, 0xef, 0x72, 0x4e, 0x00, 0x00, 0xc2, 0x1f, 0x00,
   0x00, 0x00, 0x00, 0x00, 0x00, 0x00, 0x00, 0x00, 0x00, 0x00, 0x00, 0x00,
   0x00, 0x00, 0x00, 0x00, 0x00, 0x00, 0x00, 0x00, 0x00, 0x00, 0x00, 0x00,
   0x14, 0x22, 0x0a, 0x50, 0x00, 0x25, 0x22, 0x15, 0x00, 0x00, 0x00, 0x00,
   0x00, 0x00, 0x00, 0x00, 0x00, 0x00, 0x00, 0x00, 0x00, 0x00, 0x00, 0x00,
   0x00, 0x00, 0x00, 0x00, 0x00, 0x00, 0x00, 0x00, 0x00, 0x22, 0x22, 0x0a,
   0x1e, 0x80, 0xa5, 0x25, 0x0d, 0x00, 0x00, 0x00, 0x00, 0x00, 0x00, 0x00,
   0x00, 0x00, 0x00, 0x00, 0x00, 0x00, 0x00, 0x00, 0x00, 0x00, 0x00, 0x00,
   0x00, 0x00, 0x00, 0x00, 0x00, 0x00, 0x3e, 0x22, 0x0a, 0x11, 0x80, 0xbc,
   0x84, 0x00, 0x00, 0x00, 0x00, 0x00, 0x00, 0x00, 0x00, 0x00, 0x00, 0x00,
   0x00, 0x00, 0x00, 0x00, 0x00, 0x00, 0x00, 0x00, 0x00, 0x00, 0x00, 0x00,
   0x00, 0x00, 0x00, 0x41, 0x22, 0x0a, 0x51, 0x80, 0x80, 0x44, 0x00, 0x00,
   0x00, 0x00, 0x00, 0x00, 0x00, 0x00, 0x00, 0x00, 0x00, 0x00, 0x00, 0x00,
   0x00, 0x00, 0x00, 0x00, 0x00, 0x00, 0x00, 0x00, 0x00, 0x00, 0x00, 0x00,
   0x41, 0x22, 0x72, 0x5e, 0x00, 0x00, 0x2c, 0x00, 0x00, 0x00, 0x00, 0x00,
   0x00, 0x00, 0x00, 0x00, 0x00, 0x00, 0x00, 0x00, 0x00, 0x00, 0x00, 0x00,
   0x00, 0x00, 0x00, 0x00, 0x00, 0x00, 0x00, 0x00, 0x00, 0x00, 0x00, 0x00,
   0x00, 0x00, 0x00, 0x00, 0x00, 0x00, 0x00, 0x00, 0x00, 0x00, 0x00, 0x00,
   0x00, 0x00, 0x00, 0x00, 0x00, 0x00, 0x00, 0x00, 0x00, 0x00, 0x00, 0x00,
   0x00, 0x00, 0x00, 0x00, 0x00, 0x00, 0x00, 0x00, 0x00, 0x00, 0x00, 0x00,
   0x00, 0x00, 0x00, 0x00, 0x00, 0x00, 0x00, 0x00, 0x00, 0x00, 0x00, 0x00,
   0x00, 0x00, 0x00, 0x00, 0x00, 0x00, 0x00, 0x00, 0x00, 0x00, 0x00, 0x00,
   0x00, 0x00, 0x00, 0x00, 0x00, 0x00, 0x00, 0x00, 0x00, 0x00, 0x00, 0x00,
   0x00, 0x00, 0x00, 0x00, 0x00, 0x00, 0x00, 0x00, 0x00, 0x00, 0x00, 0x00,
   0x00, 0x00, 0x00, 0x00, 0x00, 0x00, 0x00, 0x00, 0x00, 0x00, 0x00, 0x00,
   0x00, 0x00, 0x00, 0x00, 0x00, 0x00, 0x00, 0x00, 0x00, 0x00, 0x00, 0x00,
   0x00, 0x00, 0x00, 0x00, 0x00, 0x00, 0x00, 0x00, 0x00, 0x00, 0x00, 0x00,
   0x00, 0x00, 0x00, 0x00, 0x00, 0x00, 0x00, 0x00, 0x00, 0x00, 0x00, 0x00,
   0x00, 0x00, 0x00, 0x00, 0x00, 0x00, 0x00, 0x00, 0x00, 0x00, 0x00, 0x00,
   0x00, 0x00, 0x00, 0x00, 0x00, 0x00, 0x00, 0x00, 0x00, 0x00, 0x00, 0x00,
   0x00, 0x00, 0x00, 0x00, 0x00, 0x00, 0x00, 0x00, 0x00, 0x00, 0x00, 0x00,
   0x00, 0x00, 0x00, 0x00, 0x00, 0x00, 0x00, 0x80, 0x03, 0x00, 0x00, 0x00,
   0x00, 0x00, 0x00, 0x00, 0x00, 0x00, 0x00, 0x00, 0x00, 0x00, 0x00, 0x00,
   0x00, 0x00, 0x00, 0x00, 0x00, 0x00, 0x00, 0x04, 0x00, 0x00, 0x00, 0x00,
   0x00, 0x00, 0x00, 0x00, 0x80, 0x03, 0x00, 0x00, 0x00, 0x00, 0x00, 0x00,
   0x00, 0x00, 0x00, 0x00, 0x00, 0x00, 0x00, 0x00, 0x00, 0x00, 0x00, 0x00,
   0x63, 0x41, 0x50, 0x00, 0x34, 0x02, 0x00, 0x00, 0x3e, 0x00, 0x10, 0x00,
   0x00, 0x00, 0x09, 0x00, 0x08, 0x00, 0x00, 0x00, 0x00, 0x02, 0x00, 0x00,
   0x00, 0x00, 0x00, 0x00, 0x00, 0x00, 0x00, 0x00, 0x00, 0x63, 0x40, 0x50,
   0x00, 0x32, 0x02, 0x00, 0x00, 0x02, 0x00, 0x10, 0x00, 0x10, 0x00, 0x09,
   0x00, 0x08, 0x0c, 0x00, 0x00, 0x00, 0x02, 0x00, 0x00, 0x00, 0x00, 0x00,
   0x00, 0x00, 0x00, 0x00, 0x00, 0x00, 0x55, 0x79, 0x5e, 0x0e, 0x52, 0x72,
   0x9c, 0x03, 0x02, 0xc7, 0x79, 0x01, 0x12, 0x00, 0x09, 0x00, 0x08, 0x02,
   0x00, 0x00, 0x0f, 0x1e, 0x00, 0x00, 0x00, 0x00, 0x00, 0x00, 0x00, 0x00,
   0x00, 0x00, 0x00, 0x55, 0x45, 0x51, 0x11, 0x51, 0x8a, 0xa0, 0x00, 0x3e,
   0x28, 0x12, 0x01, 0x10, 0x00, 0x09, 0x00, 0x08, 0x02, 0x00, 0x00, 0x91,
   0x10, 0x00, 0x00, 0x00, 0x00, 0x00, 0x00, 0x00, 0x00, 0x00, 0x00, 0x00,
   0x49, 0x45, 0x51, 0x1f, 0x91, 0xfa, 0xbc, 0x00, 0x02, 0xcf, 0x10, 0x00,
   0x14, 0x00, 0x09, 0x80, 0x09, 0x06, 0x00, 0x00, 0x91, 0x10, 0x00, 0x00,
   0x00, 0x00, 0x00, 0x00, 0x00, 0x00, 0x00, 0x00, 0x00, 0x49, 0x45, 0x51,
   0x81, 0x90, 0x0a, 0xa2, 0x00, 0x82, 0x08, 0x11, 0x00, 0x9c, 0x24, 0x89,
   0xc1, 0x4b, 0x04, 0x03, 0x00, 0x91, 0x08, 0x00, 0x00, 0x00, 0x00, 0x00,
   0x00, 0x00, 0x00, 0x00, 0x00, 0x00, 0x41, 0x45, 0x51, 0x81, 0x10, 0x0b,
   0xa2, 0x00, 0x82, 0x28, 0x12, 0x01, 0x98, 0x35, 0xc9, 0x82, 0x49, 0x8c,
   0x05, 0x18, 0x91, 0x08, 0x00, 0x00, 0x00, 0x00, 0x00, 0x00, 0x00, 0x00,
   0x00, 0x00, 0x00, 0x41, 0x79, 0x5e, 0x5e, 0x10, 0xf3, 0xbc, 0x00, 0x3e,
   0xcf, 0x61, 0x01, 0xe6, 0xfb, 0xf9, 0x43, 0xfe, 0xf7, 0x07, 0x10, 0x9f,
   0x00, 0x00, 0x00, 0x00, 0x00, 0x00, 0x00, 0x00, 0x00, 0x00, 0x00, 0x00,
   0x00, 0x00, 0x00, 0x40, 0x00, 0x00, 0x00, 0x00, 0x00, 0x00, 0x00, 0x00,
   0x00, 0x00, 0x00, 0x40, 0x00, 0x00, 0x00, 0x08, 0x00, 0x00, 0x00, 0x00,
   0x00, 0x00, 0x00, 0x00, 0x00, 0x00, 0x00, 0x00, 0x00, 0x00, 0x00, 0x00,
   0x00, 0x00, 0x00, 0x00, 0x00, 0x00, 0x00, 0x00, 0x00, 0x00, 0x00, 0x00,
   0xc0, 0x00, 0x00, 0x00, 0x00, 0x00, 0x00, 0x00, 0x00, 0x00, 0x00, 0x00,
   0x00, 0x00, 0x00, 0x00, 0x00, 0x00, 0x00, 0x00, 0x00, 0x00, 0x00, 0x00,
   0x00, 0x00, 0x00, 0x00, 0x00, 0x00, 0x00, 0x00, 0x00, 0x80, 0x07, 0x00,
   0x00, 0x00, 0x00, 0x00, 0x00, 0x00, 0x00, 0x00, 0x00, 0x00, 0x00, 0x00,
   0x00, 0x00, 0x00, 0x00, 0x00, 0x00, 0x00, 0x00, 0x00, 0x00, 0x00, 0x00,
   0x00, 0x00, 0x00, 0x00, 0x00, 0x00, 0x00, 0x00, 0x00, 0x00, 0x00, 0x00,
   0x00, 0x00, 0x00, 0x00, 0x00, 0x00, 0x00, 0x00, 0x00, 0x00, 0x00, 0x00,
   0x00, 0x00, 0x00, 0x00, 0x00, 0x00, 0x00, 0x00, 0x00, 0x00, 0x00, 0x00,
   0x00, 0x00, 0x00, 0x00, 0x00, 0x00, 0x00, 0x00, 0x00, 0x00, 0x00, 0x00,
   0x00, 0x00, 0x00, 0x00, 0x00, 0x00, 0x00, 0x00, 0x00, 0x00, 0x00, 0x00,
   0x00, 0x00, 0x00, 0x00, 0x00, 0x00, 0x00, 0x00, 0x00, 0x00, 0x00, 0x00,
   0x00, 0x00, 0x00, 0x00, 0x00, 0x00, 0x00, 0x00, 0x00, 0x00, 0x00, 0x00,
   0x00, 0x00, 0xf0, 0x00, 0x00, 0x00, 0x00, 0x00, 0x00, 0x00, 0x00, 0x00,
   0x00, 0x00, 0x00, 0x00, 0x40, 0x00, 0x00, 0x00, 0x00, 0x00, 0x00, 0x00,
   0x00, 0x00, 0x00, 0x00, 0x00, 0x00, 0x00, 0x00, 0x00, 0x00, 0x00, 0x00,
   0x00, 0x00, 0x00, 0x1e, 0x00, 0x88, 0x00, 0x40, 0x00, 0x02, 0x00, 0x00,
   0x00, 0x00, 0x01, 0x00, 0x00, 0x00, 0x00, 0x00, 0x00, 0x00, 0x00, 0x00,
   0x00, 0x00, 0x00, 0x00, 0x00, 0x00, 0x00, 0xe0, 0x62, 0x31, 0x3c, 0x00,
   0x01, 0x00, 0x88, 0x00, 0x40, 0x00, 0x00, 0x00, 0x00, 0x00, 0x00, 0x02,
   0x80, 0xff, 0xff, 0x3f, 0x00, 0x00, 0x00, 0x00, 0x00, 0x00, 0x00, 0x00,
   0x00, 0x00, 0x00, 0x00, 0x10, 0x13, 0x01, 0x42, 0x00, 0x81, 0x13, 0xbd,
   0x07, 0xa0, 0x70, 0x72, 0x02, 0x40, 0x22, 0x03, 0x02, 0x00, 0x48, 0x22,
   0x10, 0x00, 0x80, 0x40, 0x00, 0x00, 0x04, 0x00, 0x00, 0x00, 0x00, 0x00,
   0x00, 0x18, 0x1a, 0x05, 0x01, 0x00, 0x4e, 0x14, 0x89, 0x08, 0xa0, 0x88,
   0x82, 0x02, 0x78, 0x24, 0xc4, 0x03, 0x00, 0x48, 0x22, 0x1e, 0x00, 0x78,
   0xbf, 0xf9, 0xc3, 0x03, 0x00, 0x00, 0x00, 0x00, 0x00, 0x00, 0x04, 0x06,
   0x1d, 0x81, 0x00, 0x50, 0x14, 0x89, 0x08, 0x10, 0x31, 0xf2, 0x00, 0x52,
   0x24, 0x14, 0x02, 0x80, 0xef, 0xb3, 0x11, 0x00, 0x00, 0x00, 0x12, 0x04,
   0x04, 0x00, 0xbe, 0xf9, 0x90, 0x03, 0x00, 0x34, 0x1e, 0x25, 0x19, 0x00,
   0x50, 0x14, 0x89, 0x08, 0xf0, 0x41, 0x8a, 0x00, 0x52, 0xa5, 0x13, 0x02,
   0x00, 0x09, 0x12, 0x10, 0x00, 0x08, 0x06, 0x92, 0x4b, 0x04, 0x00, 0x49,
   0xa5, 0x24, 0x17, 0x00, 0x48, 0x06, 0x45, 0x26, 0x00, 0x50, 0x14, 0x89,
   0x08, 0x08, 0x8a, 0x8a, 0x02, 0x54, 0x25, 0x01, 0x62, 0x00, 0x08, 0x22,
   0x12, 0x03, 0x84, 0x41, 0xaa, 0x41, 0xc4, 0x00, 0x49, 0xa5, 0x64, 0x2c,
   0x03, 0x40, 0x4a, 0x49, 0x24, 0x0c, 0x8f, 0xe3, 0xb1, 0x08, 0x08, 0x72,
   0xf2, 0x02, 0x40, 0x20, 0x47, 0x42, 0x00, 0x08, 0x02, 0x10, 0x02, 0x48,
   0xb6, 0x41, 0x86, 0x83, 0x00, 0xea, 0x23, 0x11, 0x13, 0x02, 0x30, 0x30,
   0x31, 0x28, 0x08, 0x00, 0x00, 0x00, 0x00, 0x00, 0x00, 0x00, 0x00, 0x00,
   0x00, 0x00, 0x20, 0x00, 0x00, 0x00, 0x00, 0x01, 0x00, 0x00, 0x00, 0x00,
   0x40, 0x00, 0x00, 0x00, 0x01, 0x00, 0x01, 0x00, 0x01, 0x00, 0x00, 0x04,
   0x00, 0x00, 0x00, 0x00, 0x00, 0x00, 0x00, 0x00, 0x00, 0x00, 0x00, 0x00,
   0x00, 0x00, 0x00, 0x00, 0x00, 0x00, 0x00, 0x00, 0x1c, 0x00, 0x00, 0x00,
   0x80, 0x02, 0x00, 0x00, 0x40, 0x01, 0x00, 0x00, 0x00, 0x00, 0x00, 0x00,
   0x00, 0x00, 0x00, 0x00, 0x00, 0x00, 0x00, 0x00, 0x00, 0x00, 0x00, 0x00,
   0x00, 0x00, 0x00, 0x00, 0x00, 0x00, 0x00, 0x00, 0x00, 0x00, 0x03, 0x00,
   0x00, 0x80, 0x00, 0x00, 0x00, 0x00, 0x00, 0x00, 0x00, 0x00, 0x00, 0x00,
   0x00, 0x00, 0x00, 0x00, 0x00, 0x00, 0x00, 0x00, 0x00, 0x00, 0x00, 0x00,
   0x00, 0x00, 0x08, 0x00, 0x00, 0x00, 0x00, 0x00, 0x00, 0x00, 0x00, 0x00,
   0x00, 0x00, 0x00, 0x00, 0x00, 0x00, 0x00, 0x00, 0x00, 0x00, 0x00, 0x00,
   0x00, 0x00, 0x00, 0x00, 0x00, 0x00, 0x00, 0x00, 0x00, 0x00, 0x00, 0x00,
   0x00, 0x00, 0x00, 0x00, 0x00, 0x00, 0x00, 0x00, 0x00, 0x00, 0x00, 0x00,
   0x00, 0x00, 0x00, 0x00, 0x00, 0x00, 0x00, 0x00, 0x00, 0x00, 0x00, 0x00,
   0x00, 0x00, 0x00, 0x00, 0x00, 0x00, 0x00, 0x00, 0x00, 0x00, 0x00, 0x00,
   0x00, 0x00, 0x00, 0x00, 0x00, 0x00, 0x00, 0x00, 0x00, 0x00, 0x00, 0x00,
   0x00, 0x00, 0x00, 0x00, 0x00, 0x00, 0x00, 0x00, 0x00, 0x00, 0x00, 0x00,
   0x00, 0x00, 0x00, 0x00, 0x00, 0x00, 0x00, 0x00, 0x00, 0x00, 0x00, 0x00,
   0x00, 0x00, 0x00, 0x00, 0x00, 0x00, 0x00, 0x00, 0x00, 0x00, 0x00, 0x00,
   0x00, 0x00, 0x00, 0x00, 0x00, 0x00, 0x00, 0x00, 0x00, 0x00, 0x00, 0x00,
   0x00, 0x00, 0x00, 0x00, 0x00, 0x00, 0x00, 0x00, 0x00, 0x00, 0x00, 0x00,
   0x00, 0x00, 0x00, 0x00, 0x00, 0x00, 0x00, 0x00, 0x00, 0x00, 0x00, 0x00,
   0x00, 0x00, 0x00, 0x00, 0x00, 0x00, 0x00, 0x00, 0x00, 0x00, 0x00, 0x00,
   0x00, 0x00, 0x00, 0x00, 0x00, 0x00, 0x00, 0x00, 0x00, 0x00, 0x00, 0x00,
   0x00, 0x00, 0x00, 0x00, 0x00, 0x00, 0x00, 0x00, 0x00, 0x00, 0x00, 0x00,
   0x00, 0x00, 0x00, 0x00, 0x00, 0x00, 0x00, 0x00, 0x00, 0x00, 0x00, 0x00,
   0x00, 0x00, 0x00, 0x00, 0x00, 0x00, 0x00, 0x00, 0x00, 0x00, 0x00, 0x00,
   0x00, 0x00, 0x00, 0x00, 0x00, 0x00, 0x00, 0x00, 0x00, 0x00, 0x00, 0x00,
   0x00, 0x00, 0x00, 0x00, 0x00, 0x00, 0x00, 0x00, 0x00, 0x00, 0x00, 0x00,
   0x40, 0x01, 0xc0, 0x60, 0x00, 0x00, 0x00, 0x00, 0x00, 0x00, 0x00, 0x00,
   0x00, 0x00, 0x00, 0x00, 0x00, 0x00, 0x00, 0x00, 0x00, 0x00, 0x00, 0x00,
   0x00, 0x00, 0x00, 0x00, 0x00, 0x00, 0x00, 0x00, 0x00, 0x80, 0x00, 0x00,
   0x00, 0x00, 0x00, 0x00, 0x00, 0x00, 0x00, 0x00, 0x00, 0x00, 0x00, 0x10,
   0x42, 0x00, 0x02, 0x00, 0x00, 0x00, 0x00, 0x00, 0x00, 0x00, 0x00, 0x00,
   0x00, 0x00, 0x00, 0x00, 0x00, 0x00, 0x00, 0xb0, 0x00, 0x30, 0x81, 0x05,
   0x00, 0x00, 0x00, 0x00, 0x00, 0x00, 0x00, 0x00, 0x40, 0x02, 0x01, 0x06,
   0x00, 0x00, 0x00, 0x00, 0x02, 0x40, 0x00, 0x00, 0x00, 0x00, 0x01, 0x00,
   0x00, 0x00, 0x70, 0x3e, 0xb7, 0xdf, 0x6d, 0xbf, 0x55, 0x00, 0x00, 0x00,
   0x00, 0x00, 0x00, 0x00, 0x00, 0x80, 0x06, 0x02, 0x02, 0x00, 0x00, 0x00,
   0x00, 0x00, 0x00, 0x00, 0x00, 0x04, 0x00, 0x02, 0x40, 0x01, 0x00, 0x40,
   0x94, 0x2c, 0x10, 0x08, 0x61, 0x51, 0x00, 0x00, 0x00, 0x00, 0x00, 0x00,
   0x02, 0x08, 0x9c, 0x13, 0x0a, 0x03, 0x00, 0x8e, 0xf8, 0x3d, 0xc7, 0xc9,
   0x01, 0x00, 0xc3, 0xc0, 0x7f, 0xc0, 0x00, 0x00, 0x58, 0x90, 0x5c, 0xd6,
   0x69, 0xe7, 0x52, 0x00, 0x00, 0x00, 0x00, 0x00, 0xa8, 0x04, 0x65, 0xa0,
   0x34, 0x62, 0x04, 0x00, 0x90, 0x44, 0x12, 0x80, 0x48, 0x00, 0x00, 0x04,
   0x09, 0xd4, 0x00, 0x30, 0x00, 0x60, 0xc0, 0x04, 0x18, 0x02, 0x28, 0x50,
   0x00, 0x00, 0x00, 0x00, 0x00, 0x64, 0x0c, 0xb4, 0xa2, 0x0c, 0x82, 0x04,
   0x80, 0x92, 0xaa, 0x95, 0xe7, 0x49, 0x02, 0x00, 0x08, 0x92, 0x04, 0x21,
   0x4a, 0x00, 0x00, 0x86, 0x04, 0x00, 0x02, 0x20, 0x50, 0x00, 0x00, 0x00,
   0x00, 0x00, 0x24, 0x44, 0x82, 0x02, 0x0c, 0x81, 0x64, 0x00, 0x95, 0xb6,
   0x55, 0x98, 0x4a, 0x32, 0x80, 0x28, 0x52, 0x84, 0x20, 0x4a, 0x06, 0x00,
   0x08, 0x04, 0x00, 0x02, 0x20, 0x50, 0x00, 0x00, 0x00, 0x00, 0x00, 0x38,
   0x23, 0x79, 0x60, 0xf2, 0x78, 0x40, 0x00, 0xf7, 0x4c, 0x92, 0xeb, 0xfa,
   0x21, 0x80, 0xe6, 0x4d, 0x82, 0xc0, 0x31, 0x04, 0x00, 0x00, 0x04, 0x00,
   0x02, 0x20, 0x50, 0x00, 0x00, 0x00, 0x00, 0x00, 0x20, 0x00, 0x00, 0x00,
   0x00, 0x00, 0x20, 0x00, 0x00, 0x00, 0x00, 0x00, 0x00, 0x10, 0x00, 0x00,
   0x00, 0x40, 0x0e, 0x00, 0x02, 0x00, 0x00, 0x04, 0x00, 0x00, 0x20, 0x50,
   0x00, 0x00, 0x00, 0x00, 0x00, 0x20, 0x08, 0x00, 0x00, 0x00, 0x00, 0x00,
   0x00, 0x00, 0x00, 0x00, 0x00, 0x00, 0x00, 0x00, 0x00, 0x00, 0x40, 0x02,
   0x00, 0x00, 0x00, 0x00, 0x00, 0x00, 0x00, 0x00, 0x00, 0x00, 0x00, 0x00,
   0x00, 0x00, 0x20, 0xf0, 0x03, 0x00, 0x00, 0x00, 0x00, 0x00, 0x00, 0x00,
   0x00, 0x00, 0x00, 0x00, 0x00, 0x00, 0x00, 0x80, 0x03, 0x00, 0x00, 0x00,
   0x00, 0x00, 0x00, 0x00, 0x00, 0x00, 0x00, 0x00, 0x00, 0x00, 0x00, 0x00,
   0x00, 0x00, 0x00, 0x00, 0x00, 0x00, 0x00, 0x00, 0x00, 0x00, 0x00, 0x00,
   0x00, 0x00, 0x00, 0x00, 0x00, 0x00, 0x00, 0x00, 0x00, 0x00, 0x00, 0x00,
   0x00, 0x00, 0x00, 0x00, 0x00, 0x00, 0x00, 0x00, 0x00, 0x00, 0x00, 0x00,
   0x00, 0x00, 0x00, 0x00, 0x00, 0x00, 0x00, 0x00, 0x00, 0x00, 0x00, 0x00,
   0x00, 0x00, 0x00, 0x00, 0x00, 0x00, 0x00, 0x00, 0x00, 0x00, 0x00, 0x00,
   0x00, 0x00, 0x00, 0x00, 0x00, 0x00, 0x00, 0x00, 0x00, 0x00, 0x00, 0x00,
   0x00, 0x00, 0x00, 0x00, 0x00, 0x00, 0x00, 0x00, 0x00, 0x00, 0x00, 0x00,
   0x00, 0x00, 0x00, 0x00, 0x00, 0x00, 0x00, 0x00, 0x00, 0x00, 0x00, 0x00,
   0x00, 0x00, 0x00, 0x00, 0x00, 0x00, 0x00, 0x00, 0x00, 0x00, 0x00, 0x00,
   0x00, 0x00, 0x00, 0x00, 0x00, 0x00, 0x00, 0x00, 0x00, 0x00, 0x00, 0x00,
   0x00, 0x00, 0x00, 0x00, 0x00, 0x00, 0x00, 0x00, 0x00, 0x00, 0x00, 0x00,
   0x00, 0x00, 0x00, 0x00, 0x00, 0x00, 0x00, 0x00, 0x00, 0x00, 0x00, 0x00,
   0x00, 0x00, 0x00, 0x00, 0x00, 0x00, 0x00, 0x00, 0x00, 0x00, 0x00, 0x00,
   0x00, 0x00, 0x00, 0x00, 0x00, 0x00, 0x00, 0x00, 0x00, 0x00, 0x00, 0x00,
   0x00, 0x00, 0x00, 0x00, 0x00, 0x00, 0x00, 0x00, 0x00, 0x00, 0x00, 0x00,
   0x00, 0x00, 0x00, 0x00, 0x00, 0x00, 0x00, 0x00, 0x00, 0x00, 0x00, 0x00,
   0x00, 0x00, 0x00, 0x00, 0x00, 0x00, 0x00, 0x00, 0x00, 0x00, 0x00, 0x00,
   0x00, 0x00, 0x00, 0x00, 0x00, 0x00, 0x00, 0x00, 0x00, 0x00, 0x00, 0x00,
   0x00, 0x00, 0x00, 0x00, 0x00, 0x00, 0x00, 0x00, 0x00, 0x00, 0x00, 0x00,
   0x00, 0x00, 0x00, 0x00, 0x00, 0x00, 0x00, 0x00, 0x00, 0x00, 0x00, 0x00,
   0x00, 0x00, 0x00, 0x00, 0x00, 0x00, 0x00, 0x00, 0x00, 0x00, 0x00, 0x00,
   0x00, 0x00, 0x00, 0x00, 0x00, 0x00, 0x00, 0x00, 0x00, 0x00, 0x00, 0x00,
   0x00, 0x00, 0x00, 0x00, 0x00, 0x00, 0x00, 0x00, 0x00, 0x00, 0x00, 0x00,
   0x00, 0x00, 0x00, 0x00, 0x00, 0x00, 0x00, 0x00, 0x00, 0x00, 0x00, 0x00,
   0x00, 0x00, 0x00, 0x00, 0x00, 0x00, 0x00, 0x00, 0x00, 0x00, 0x00, 0x00,
   0x00, 0x00, 0x00, 0x00, 0x50, 0x00, 0x00, 0x00, 0x00, 0x00, 0x00, 0x00,
   0x00, 0x00, 0x00, 0x00, 0x00, 0x00, 0x00, 0x00, 0x00, 0x00, 0x00, 0x00,
   0x00, 0x00, 0x00, 0x00, 0x00, 0x00, 0x00, 0x00, 0x00, 0x00, 0x00, 0x00,
   0x00, 0x20, 0x00, 0x00, 0x00, 0x00, 0x00, 0x00, 0x00, 0x00, 0x00, 0xc0,
   0x03, 0x00, 0x80, 0x01, 0x00, 0xc0, 0x00, 0x00, 0x20, 0x00, 0xe0, 0x01,
   0x80, 0x08, 0x80, 0x0f, 0x00, 0x04, 0x80, 0x00, 0x04, 0x00, 0x00, 0x00,
   0x00, 0x00, 0x00, 0x00, 0x00, 0x00, 0x00, 0x00, 0x20, 0x02, 0x00, 0x80,
   0x00, 0x00, 0x20, 0x01, 0x00, 0x60, 0x00, 0x10, 0x00, 0x80, 0x08, 0x80,
   0x00, 0x00, 0x04, 0x80, 0x00, 0x00, 0x00, 0x90, 0x00, 0x00, 0x30, 0x08,
   0x00, 0x00, 0x00, 0x00, 0x00, 0x40, 0x07, 0x00, 0x80, 0x01, 0x00, 0x00,
   0x01, 0x00, 0xc0, 0x00, 0x10, 0x38, 0xd1, 0x7b, 0x80, 0xc0, 0x71, 0x1e,
   0x40, 0xe1, 0xe4, 0x04, 0x68, 0xd8, 0xc8, 0x00, 0xc4, 0x00, 0xc0, 0x2b,
   0x4c, 0x8c, 0xc9, 0x01, 0x00, 0x80, 0x01, 0x00, 0x00, 0x01, 0xc0, 0x7f,
   0x00, 0xe0, 0x44, 0x91, 0x88, 0x80, 0x0f, 0x8a, 0x04, 0x40, 0x11, 0x05,
   0x05, 0x08, 0x88, 0x88, 0x70, 0x48, 0x00, 0x60, 0x3c, 0x4d, 0xd6, 0x29,
   0x02, 0x00, 0x80, 0x40, 0x64, 0x00, 0x01, 0x00, 0x46, 0x00, 0x00, 0x45,
   0x91, 0x88, 0x80, 0xc0, 0x33, 0x04, 0x20, 0x62, 0xe4, 0x01, 0x88, 0x88,
   0x88, 0x88, 0x48, 0x00, 0x80, 0xe7, 0x48, 0x56, 0x28, 0x02, 0x00, 0x48,
   0x22, 0x98, 0x22, 0x01, 0x80, 0x85, 0x00, 0x00, 0x45, 0x91, 0x88, 0x80,
   0x20, 0x42, 0x04, 0xe0, 0x83, 0x14, 0x01, 0x88, 0x88, 0x88, 0x98, 0x48,
   0x00, 0xc0, 0x04, 0x44, 0xd6, 0x28, 0x02, 0x80, 0x28, 0x12, 0x10, 0x23,
   0x01, 0x40, 0x86, 0x00, 0x00, 0x45, 0x91, 0x88, 0x80, 0x20, 0x8a, 0x04,
   0x10, 0x14, 0x15, 0x05, 0x88, 0x8c, 0x88, 0x98, 0x68, 0x18, 0xe0, 0x35,
   0x45, 0x50, 0x68, 0x62, 0x00, 0x2f, 0x02, 0x10, 0x20, 0x19, 0xc0, 0xe6,
   0x00, 0xf0, 0x38, 0x1e, 0x8b, 0x80, 0xcf, 0x73, 0x18, 0x10, 0xe4, 0xe4,
   0x05, 0xd8, 0x88, 0x70, 0x88, 0x47, 0x10, 0x60, 0xe7, 0x39, 0x90, 0x67,
   0x42, 0x00, 0x07, 0x60, 0xce, 0x1c, 0x11, 0xc0, 0x64, 0x00, 0x00, 0x00,
   0x00, 0x00, 0x00, 0x00, 0x00, 0x00, 0x00, 0x00, 0x00, 0x00, 0x00, 0x00,
   0x00, 0x00, 0x00, 0x08, 0x00, 0x00, 0x00, 0x00, 0x00, 0x20, 0x00, 0x00,
   0x00, 0x00, 0x00, 0x08, 0x00, 0x00, 0x00, 0x00, 0x00, 0x00, 0x00, 0x00,
   0x00, 0x00, 0x00, 0x00, 0x00, 0x00, 0x00, 0x00, 0x00, 0x00, 0x00, 0x02,
   0x00, 0x00, 0x00, 0x00, 0x00, 0x00, 0x00, 0x00, 0x00, 0x00, 0x00, 0x00,
   0x00, 0x00, 0x00, 0x00, 0x00, 0x00, 0x00, 0x00, 0x00, 0x00, 0x00, 0x00,
   0x00, 0x00, 0x00, 0x00, 0x00, 0x00, 0x00, 0x00, 0x05, 0x00, 0x00, 0x00,
   0x00, 0x00, 0x00, 0x00, 0x00, 0x00, 0x00, 0x00, 0x00, 0x00, 0x00, 0x00,
   0x00, 0x00, 0x00, 0x00, 0x00, 0x00, 0x00, 0x00, 0x00, 0x00, 0x00, 0x00,
   0x00, 0x00, 0x00, 0x00, 0x00, 0x00, 0x00, 0x00, 0x00, 0x00, 0x00, 0x00,
   0x00, 0x00, 0x00, 0x00, 0x00, 0x00, 0x00, 0x00, 0x00, 0x00, 0x00, 0x00,
   0x00, 0x00, 0x00, 0x00, 0x00, 0x00, 0x00, 0x00, 0x00, 0x00, 0x00, 0x00,
   0x00, 0x00, 0x00, 0x00, 0x00, 0x00, 0x00, 0x00, 0x00, 0x00, 0x00, 0x00,
   0x00, 0x00, 0x00, 0x00, 0x00, 0x00, 0x00, 0x00, 0x00, 0x00, 0x00, 0x00,
   0x00, 0x00, 0x00, 0x00, 0x00, 0x00, 0x00, 0x00, 0x00, 0x00, 0x00, 0x00,
   0x00, 0x00, 0x00, 0x00, 0x00, 0x00, 0x00, 0x00, 0x00, 0x00, 0x00, 0x00,
   0x00, 0x00, 0x00, 0x00, 0x00, 0x00, 0x00, 0x00, 0x00, 0x00, 0x00, 0x00,
   0x00, 0x00, 0x00, 0x00, 0x00, 0x00, 0x00, 0x00, 0x00, 0x00, 0x00, 0x00,
   0x00, 0x00, 0x00, 0x00, 0x00, 0x00, 0x00, 0x00, 0x00, 0x00, 0x00, 0x00,
   0x00, 0x00, 0x00, 0x00, 0x00, 0x00, 0x00, 0x00, 0x00, 0x00, 0x00, 0x00,
   0x00, 0x00, 0x00, 0x00, 0x00, 0x00, 0x00, 0x00, 0x00, 0x00, 0x00, 0x00,
   0x00, 0x00, 0x00, 0x00, 0x00, 0x00, 0x00, 0x00, 0x00, 0x00, 0x00, 0x00,
   0x00, 0x00, 0x00, 0x00, 0x00, 0x00, 0x00, 0x00, 0x00, 0x00, 0x00, 0x00,
   0x00, 0x00, 0x00, 0x00, 0x00, 0x00, 0x00, 0x00, 0x00, 0x00, 0x00, 0x00,
   0x00, 0x00, 0x00, 0x00, 0x00, 0x00, 0x00, 0x00, 0x00, 0x00, 0x00, 0x00,
   0x00, 0x00, 0x00, 0x00, 0x00, 0x00, 0x00, 0x00, 0x00, 0x00, 0x00, 0x00,
   0x00, 0x00, 0x00, 0x00, 0x00, 0x00, 0x00, 0x00, 0x00, 0x00, 0x00, 0x00,
   0x00, 0x00, 0x00, 0x00, 0x00, 0x00, 0x00, 0x00, 0x00, 0x00, 0x00, 0x00,
   0x14, 0x20, 0x00, 0x00, 0xe0, 0x0f, 0xfe, 0x00, 0x00, 0x00, 0x00, 0x00,
   0x00, 0x80, 0x00, 0x40, 0x00, 0x00, 0x00, 0x00, 0x00, 0x00, 0x00, 0x00,
   0x00, 0x00, 0x00, 0x00, 0x00, 0x00, 0x00, 0x00, 0x00, 0x14, 0x20, 0x3e,
   0x00, 0x20, 0x08, 0x82, 0x00, 0x00, 0x04, 0x80, 0x00, 0x01, 0x00, 0x01,
   0x81, 0x00, 0x00, 0x00, 0x00, 0x00, 0x00, 0x00, 0x00, 0x00, 0xf0, 0x01,
   0x80, 0x00, 0x10, 0x80, 0x00, 0x00, 0xf2, 0xfb, 0x10, 0x00, 0xe0, 0x0f,
   0xfe, 0x00, 0x00, 0xf8, 0x00, 0x01, 0xe2, 0x10, 0x05, 0x8a, 0x03, 0x00,
   0x40, 0x80, 0x00, 0x01, 0x05, 0x00, 0x00, 0x10, 0x00, 0x80, 0x00, 0x10,
   0x00, 0x00, 0x00, 0x0a, 0xa2, 0x08, 0x00, 0x20, 0x08, 0x82, 0x00, 0x00,
   0x40, 0x00, 0x01, 0x9a, 0xe1, 0x03, 0xf2, 0x00, 0x00, 0x4e, 0xe2, 0x18,
   0x11, 0xe5, 0x03, 0x00, 0x10, 0x38, 0xce, 0x03, 0x28, 0x9c, 0x9c, 0x00,
   0x43, 0xa0, 0x08, 0x00, 0xe0, 0x0f, 0xff, 0x03, 0x00, 0x00, 0x80, 0x00,
   0x41, 0x80, 0x00, 0x81, 0x00, 0x00, 0x51, 0x82, 0x7e, 0x11, 0x15, 0x04,
   0x00, 0xf0, 0x41, 0x91, 0x00, 0x28, 0xa2, 0xa0, 0x80, 0x52, 0x91, 0x3f,
   0x00, 0x00, 0x01, 0x01, 0x00, 0x00, 0x00, 0x80, 0x00, 0x01, 0x80, 0x0e,
   0x81, 0x00, 0x00, 0x51, 0x82, 0x00, 0x91, 0x15, 0x04, 0x00, 0x10, 0x78,
   0x86, 0x00, 0x44, 0x8c, 0x3c, 0x00, 0x52, 0x51, 0x08, 0x00, 0x00, 0x01,
   0xfd, 0x01, 0x00, 0x02, 0xc0, 0x01, 0x01, 0x80, 0x11, 0x81, 0x00, 0x00,
   0x4e, 0xbe, 0x24, 0x13, 0xe5, 0x03, 0x00, 0x10, 0x44, 0x88, 0x00, 0x7c,
   0x90, 0x22, 0x00, 0x4a, 0x62, 0x08, 0x00, 0xf8, 0x3f, 0x01, 0x00, 0x00,
   0x02, 0x40, 0x02, 0x11, 0x40, 0x10, 0xf1, 0x00, 0x00, 0x40, 0x00, 0x04,
   0x29, 0x05, 0x02, 0x00, 0x10, 0x44, 0x91, 0x00, 0x82, 0xa2, 0xa2, 0x00,
   0x46, 0xa2, 0x08, 0x06, 0x00, 0x01, 0xff, 0x63, 0x00, 0x04, 0x21, 0x22,
   0x15, 0x00, 0x10, 0x8d, 0x61, 0x00, 0x02, 0x78, 0x24, 0x05, 0x25, 0x02,
   0x00, 0xf0, 0x79, 0x0e, 0x03, 0x82, 0x9c, 0xbc, 0x00, 0x42, 0x92, 0x08,
   0x04, 0x00, 0x01, 0xa5, 0x40, 0x00, 0xf8, 0x20, 0x12, 0xe3, 0x01, 0x0c,
   0x8b, 0x42, 0x00, 0x02, 0x84, 0x18, 0x01, 0xfd, 0x0f, 0x00, 0x00, 0x00,
   0x00, 0x00, 0x00, 0x00, 0x00, 0x00, 0x62, 0x08, 0x0e, 0x02, 0x00, 0x81,
   0xcc, 0x21, 0x00, 0x00, 0x10, 0x0c, 0x02, 0x80, 0x03, 0x72, 0x20, 0x00,
   0x7e, 0x80, 0x00, 0x01, 0x05, 0x00, 0x00, 0x00, 0x00, 0x00, 0x00, 0x00,
   0x00, 0x00, 0x00, 0x00, 0x00, 0x00, 0x00, 0x00, 0x00, 0x00, 0x00, 0x00,
   0x00, 0x00, 0x00, 0x00, 0x00, 0x00, 0x00, 0x00, 0x00, 0x00, 0x70, 0x00,
   0x00, 0x00, 0x00, 0x00, 0x00, 0x00, 0x00, 0x00, 0x00, 0x00, 0x00, 0x00,
   0x00, 0x00, 0x00, 0x00, 0x00, 0x00, 0x00, 0x00, 0x00, 0x00, 0x00, 0x00,
   0x00, 0x00, 0x00, 0x00, 0x00, 0x00, 0x00, 0x00, 0x00, 0x00, 0x00, 0x00,
   0x00, 0x00, 0x00, 0x00, 0x00, 0x00, 0x00, 0x00, 0x00, 0x00, 0x00, 0x00,
   0x00, 0x00, 0x00, 0x00, 0x00, 0x00, 0x00, 0x00, 0x00, 0x00, 0x00, 0x00,
   0x00, 0x00, 0x00, 0x00, 0x00, 0x00, 0x00, 0x00, 0x00, 0x00, 0x00, 0x00,
   0x00, 0x00, 0x00, 0x00, 0x00, 0x00, 0x00, 0x00, 0x00, 0x00, 0x00, 0x00,
   0x00, 0x00, 0x00, 0x00, 0x00, 0x00, 0x00, 0x00, 0x00, 0x00, 0x00, 0x00,
   0x00, 0x00, 0x00, 0x00, 0x00, 0x00, 0x00, 0x00, 0x00, 0x00, 0x00, 0x00,
   0x01, 0x00, 0x00, 0x00, 0x00, 0x00, 0x00, 0x00, 0x00, 0x00, 0x00, 0x00,
   0x00, 0x00, 0x00, 0x00, 0x00, 0x00, 0x04, 0x01, 0x00, 0x00, 0xc0, 0x01,
   0x00, 0x00, 0x00, 0x00, 0x00, 0x00, 0x00, 0x00, 0x00, 0x00, 0x00, 0x00,
   0x80, 0x00, 0x00, 0x00, 0x20, 0x00, 0x00, 0x00, 0x00, 0x00, 0x00, 0x00,
   0x00, 0x00, 0x00, 0x04, 0x01, 0x00, 0x00, 0x20, 0x00, 0x00, 0x00, 0x00,
   0x00, 0x30, 0x16, 0x00, 0x00, 0x3e, 0x01, 0x60, 0x00, 0x40, 0x01, 0x00,
   0x14, 0x50, 0x00, 0x81, 0x00, 0x00, 0x20, 0x10, 0x08, 0x04, 0x02, 0x00,
   0x04, 0x01, 0x00, 0x00, 0x10, 0x00, 0x00, 0x00, 0x10, 0x00, 0x30, 0x06,
   0x00, 0x00, 0x02, 0x01, 0x00, 0x00, 0x00, 0x00, 0x00, 0x00, 0x00, 0x00,
   0x80, 0x00, 0x00, 0x00, 0x00, 0x00, 0x00, 0x00, 0x00, 0x88, 0x00, 0x00,
   0x00, 0x08, 0x00, 0x00, 0x00, 0x10, 0x00, 0x50, 0x95, 0xe3, 0x02, 0x02,
   0xcd, 0xe1, 0xce, 0xc3, 0x3b, 0x00, 0x57, 0x24, 0x47, 0xf4, 0x1c, 0x00,
   0x00, 0x00, 0x00, 0x00, 0x00, 0x00, 0xf8, 0x00, 0xf0, 0x00, 0xf8, 0x01,
   0x24, 0x39, 0x97, 0x00, 0x50, 0x55, 0x14, 0x02, 0x3e, 0x31, 0x12, 0x50,
   0x24, 0x46, 0x80, 0x50, 0x24, 0x48, 0x8c, 0x22, 0x00, 0x20, 0x81, 0x08,
   0x04, 0x10, 0x00, 0x88, 0x00, 0x10, 0x01, 0x08, 0x00, 0x24, 0x45, 0x51,
   0x00, 0x90, 0x94, 0x11, 0x00, 0x02, 0x31, 0x32, 0x5e, 0x24, 0x46, 0x80,
   0x50, 0x24, 0x4f, 0x8c, 0x3e, 0x00, 0x00, 0x00, 0x00, 0x00, 0x00, 0x00,
   0x50, 0x00, 0x10, 0x01, 0x08, 0x00, 0x54, 0x45, 0x51, 0x00, 0x90, 0x14,
   0x12, 0x00, 0x02, 0x31, 0xc2, 0x51, 0x24, 0x46, 0x80, 0x50, 0xa4, 0x48,
   0x8c, 0x02, 0x00, 0x00, 0x00, 0x00, 0x00, 0x00, 0x00, 0x50, 0x00, 0x10,
   0x01, 0x10, 0x00, 0x54, 0x45, 0x51, 0x00, 0x10, 0x54, 0x14, 0x02, 0x02,
   0x31, 0x82, 0x51, 0x24, 0x46, 0x80, 0x50, 0xa4, 0x48, 0x8c, 0x02, 0x06,
   0x00, 0x00, 0x08, 0x04, 0x02, 0x03, 0x50, 0x00, 0x10, 0x01, 0x20, 0x00,
   0x88, 0x44, 0x51, 0x00, 0x10, 0x94, 0xe3, 0x02, 0x3e, 0xd1, 0x71, 0x5e,
   0xc4, 0x3b, 0x00, 0x97, 0x27, 0x8f, 0xf7, 0x3c, 0x04, 0x00, 0x00, 0x00,
   0x00, 0x00, 0x02, 0x20, 0x00, 0xf0, 0x00, 0xc0, 0x01, 0x88, 0x38, 0x91,
   0x00, 0x00, 0x00, 0x00, 0x00, 0x00, 0x00, 0x00, 0x00, 0x00, 0x02, 0x00,
   0x00, 0x20, 0x00, 0x00, 0x00, 0x02, 0x00, 0x00, 0x00, 0x00, 0x00, 0x01,
   0x20, 0x00, 0x10, 0x00, 0x00, 0x00, 0x00, 0x00, 0x00, 0x00, 0x00, 0x00,
   0x00, 0x00, 0x00, 0x00, 0x00, 0x00, 0xc0, 0x01, 0x00, 0x00, 0x10, 0x00,
   0x00, 0x00, 0x00, 0x00, 0x00, 0x00, 0x00, 0x00, 0x00, 0x00, 0x00, 0x10,
   0x00, 0x00, 0x00, 0x00, 0x00, 0x00, 0x00, 0x00, 0x00, 0x00, 0x00, 0x00,
   0x00, 0x00, 0x00, 0x00, 0x00, 0x00, 0x00, 0x00, 0x00, 0x00, 0x00, 0x00,
   0x00, 0x00, 0x00, 0x00, 0x00, 0x00, 0x00, 0x00, 0x00, 0x00, 0x00, 0x00,
   0x00, 0x00, 0x00, 0x00, 0x00, 0x00, 0x00, 0x00, 0x00, 0x00, 0x00, 0x00,
   0x00, 0x00, 0x00, 0x00, 0x00, 0x00, 0x00, 0x00, 0x00, 0x00, 0x00, 0x00,
   0x00, 0x00, 0x00, 0x00, 0x00, 0x00, 0x00, 0x00, 0x00, 0x00, 0x00, 0x00,
   0x00, 0x00, 0x00, 0x00, 0x00, 0x00, 0x00, 0x00, 0x00, 0x00, 0x00, 0x00,
   0x00, 0x00, 0x00, 0x00, 0x00, 0x00, 0x00, 0x00, 0x00, 0x00, 0x00, 0x00,
   0x00, 0x00, 0x00, 0x00, 0x00, 0x00, 0x00, 0x00, 0x00, 0x00, 0x00, 0x00,
   0x00, 0x00, 0x00, 0x00, 0x00, 0x00, 0x00, 0x00, 0x00, 0x08, 0x00, 0x20,
   0x00, 0xe0, 0x3f, 0x24, 0x21, 0x00, 0x00, 0x00, 0x00, 0x00, 0x04, 0x00,
   0x08, 0x00, 0xf8, 0xbe, 0xaf, 0x10, 0x00, 0x00, 0x00, 0x00, 0x00, 0x00,
   0x00, 0x00, 0x00, 0x00, 0x00, 0x00, 0x04, 0xff, 0xe0, 0x0f, 0x80, 0x08,
   0x24, 0x42, 0x00, 0x00, 0x00, 0x00, 0x00, 0x82, 0x7f, 0xf8, 0x0f, 0x88,
   0x22, 0x68, 0x22, 0x00, 0x00, 0x8f, 0x22, 0x00, 0x00, 0x40, 0x80, 0x00,
   0x00, 0xf0, 0x3e, 0x04, 0x00, 0x10, 0x00, 0x80, 0x08, 0x22, 0x40, 0x00,
   0x80, 0xcf, 0xf1, 0x3e, 0x02, 0x00, 0x04, 0x00, 0xf8, 0x3e, 0x45, 0x21 };
