#define venus_2_7_width 264
#define venus_2_7_height 176
static unsigned char venus_2_7_bits[] = {
   0x00, 0x00, 0x00, 0x00, 0x00, 0x00, 0x00, 0x00, 0x00, 0x00, 0x00, 0x00,
   0x00, 0x00, 0x00, 0x00, 0x00, 0x00, 0x00, 0x00, 0x00, 0x10, 0x91, 0x00,
   0xa0, 0x00, 0x00, 0x00, 0x00, 0x00, 0x00, 0x00, 0x00, 0x00, 0x00, 0x00,
   0x00, 0x00, 0x00, 0x00, 0x00, 0x00, 0x00, 0x00, 0x00, 0x00, 0x00, 0x00,
   0x00, 0x00, 0x00, 0x00, 0x00, 0x40, 0x22, 0x25, 0xab, 0x84, 0x15, 0x00,
   0x00, 0x00, 0x00, 0x00, 0x00, 0x00, 0x00, 0x00, 0x00, 0x00, 0x00, 0x00,
   0x00, 0x00, 0x00, 0x00, 0x00, 0x00, 0x00, 0x00, 0x00, 0x00, 0x00, 0x00,
   0x00, 0x00, 0x00, 0x94, 0xaa, 0x04, 0x00, 0x22, 0x00, 0x00, 0x00, 0x00,
   0x00, 0x00, 0x00, 0x00, 0x00, 0x00, 0x00, 0x00, 0x00, 0x00, 0x00, 0x00,
   0x00, 0x00, 0x00, 0x00, 0x00, 0x00, 0x00, 0x00, 0x00, 0x00, 0x00, 0x50,
   0xa2, 0xa4, 0xa8, 0x56, 0x26, 0x00, 0x00, 0x00, 0x00, 0x00, 0x00, 0x00,
   0x00, 0x00, 0x00, 0x00, 0x00, 0x00, 0x00, 0x00, 0x00, 0x00, 0x00, 0x00,
   0x00, 0x00, 0x00, 0x00, 0x00, 0x00, 0x00, 0x00, 0x00, 0x25, 0x2a, 0x05,
   0x90, 0x48, 0x00, 0x00, 0x00, 0x00, 0x00, 0x00, 0x00, 0x00, 0x00, 0x00,
   0x00, 0x00, 0x00, 0x00, 0x00, 0x00, 0x00, 0x00, 0x00, 0x00, 0x00, 0x00,
   0x00, 0x00, 0x00, 0x00, 0x00, 0x28, 0x49, 0xaa, 0xa8, 0x82, 0x92, 0x00,
   0x00, 0x00, 0x00, 0x00, 0x00, 0x00, 0x00, 0x00, 0x00, 0x00, 0x00, 0x00,
   0x00, 0x00, 0x00, 0x00, 0x00, 0x00, 0x00, 0x00, 0x00, 0x00, 0x00, 0x00,
   0x00, 0x00, 0x44, 0x15, 0x15, 0x25, 0x08, 0x4a, 0x00, 0x00, 0x00, 0x00,
   0x00, 0x00, 0x00, 0x00, 0x00, 0x00, 0x00, 0x00, 0x00, 0x00, 0x00, 0x00,
   0x00, 0x00, 0x00, 0x80, 0x00, 0x00, 0x00, 0x00, 0x00, 0x00, 0x00, 0x88,
   0x28, 0x65, 0x49, 0x51, 0x90, 0x00, 0x00, 0x00, 0x00, 0x00, 0x00, 0x00,
   0x00, 0x00, 0x00, 0x00, 0x00, 0x00, 0x00, 0x00, 0x00, 0x00, 0x00, 0x00,
   0x20, 0x55, 0x05, 0x00, 0x00, 0x00, 0x00, 0x00, 0xb5, 0x82, 0x0a, 0x12,
   0x02, 0x21, 0x01, 0x00, 0x00, 0x00, 0x00, 0x00, 0x00, 0x00, 0x00, 0x00,
   0x00, 0x00, 0x00, 0x00, 0x00, 0x00, 0x00, 0x00, 0x40, 0x15, 0x12, 0xa8,
   0x02, 0x00, 0x00, 0x00, 0x00, 0xa2, 0x54, 0xb5, 0xaa, 0x14, 0x44, 0x02,
   0x00, 0x44, 0x04, 0x00, 0x00, 0x00, 0x00, 0x00, 0x00, 0x00, 0x00, 0x00,
   0x00, 0x00, 0x00, 0x00, 0x00, 0x2d, 0xa1, 0x44, 0x42, 0x14, 0x00, 0x00,
   0x00, 0xa0, 0x54, 0x4a, 0x45, 0x25, 0x52, 0x11, 0x01, 0x00, 0x00, 0x09,
   0x00, 0x00, 0x00, 0x00, 0x00, 0x00, 0x00, 0x00, 0x00, 0x00, 0x00, 0x00,
   0x00, 0x50, 0x49, 0x8a, 0x48, 0x0a, 0xa9, 0x00, 0x00, 0x00, 0x00, 0xa9,
   0x42, 0x91, 0xa8, 0x24, 0x23, 0x08, 0x80, 0x22, 0x01, 0x00, 0x00, 0x00,
   0x00, 0x00, 0x00, 0x00, 0x00, 0x00, 0x00, 0x00, 0x00, 0x00, 0x54, 0x55,
   0x29, 0x92, 0x10, 0x20, 0x01, 0x00, 0x00, 0xa8, 0x16, 0x69, 0x4a, 0xa5,
   0xaa, 0x84, 0x42, 0x21, 0x40, 0x02, 0x00, 0x00, 0x00, 0x00, 0x00, 0x00,
   0x00, 0x00, 0x00, 0x00, 0x00, 0x00, 0x80, 0xaa, 0x2a, 0x89, 0x04, 0x42,
   0x22, 0x24, 0x00, 0x00, 0xa8, 0x54, 0xd2, 0x28, 0x55, 0x29, 0x29, 0x08,
   0xa5, 0x40, 0x00, 0x00, 0x00, 0x00, 0x00, 0x00, 0x00, 0x00, 0x00, 0x00,
   0x00, 0x00, 0x00, 0x80, 0xaa, 0x54, 0x52, 0x50, 0x08, 0xc8, 0x4a, 0x05,
   0xa0, 0x54, 0x95, 0x29, 0xc1, 0xaa, 0x42, 0x4a, 0x21, 0x48, 0x28, 0x01,
   0x00, 0x00, 0x00, 0x00, 0x00, 0x00, 0x00, 0x00, 0x00, 0x00, 0x00, 0x00,
   0xa0, 0xaa, 0x92, 0x94, 0x12, 0xa9, 0x82, 0xaa, 0xa4, 0x2a, 0x95, 0x2a,
   0x29, 0x95, 0x4a, 0x4a, 0x4a, 0xa5, 0x12, 0x40, 0x00, 0x00, 0x00, 0x00,
   0x00, 0x00, 0x00, 0x00, 0x00, 0x00, 0x00, 0x00, 0x00, 0x50, 0x55, 0xa5,
   0x52, 0x4a, 0x02, 0x14, 0x29, 0x29, 0xa5, 0x4a, 0x49, 0x94, 0x68, 0x55,
   0x15, 0x08, 0x01, 0x84, 0x2a, 0x00, 0x00, 0x00, 0x00, 0x00, 0x00, 0x00,
   0x00, 0x00, 0x00, 0x00, 0x00, 0x00, 0x52, 0x55, 0x2d, 0x95, 0x48, 0xaa,
   0x10, 0x41, 0xaa, 0x94, 0x92, 0x52, 0x29, 0x51, 0xaa, 0xa4, 0x28, 0xaa,
   0x10, 0x10, 0x00, 0x00, 0x00, 0x00, 0x00, 0x00, 0x00, 0x00, 0x00, 0x00,
   0x00, 0x00, 0x00, 0x6c, 0x55, 0x51, 0xa5, 0x92, 0x04, 0x40, 0x94, 0x55,
   0x95, 0xaa, 0x2a, 0x92, 0x4c, 0x55, 0x15, 0x80, 0x04, 0x45, 0x05, 0x00,
   0x00, 0x00, 0x00, 0x00, 0x00, 0x00, 0x00, 0x00, 0x00, 0x00, 0x00, 0x80,
   0x54, 0x55, 0x97, 0xaa, 0x32, 0x49, 0x85, 0x20, 0x50, 0xa5, 0x12, 0xa2,
   0x14, 0x48, 0xa9, 0xaa, 0x12, 0xb4, 0x48, 0x09, 0x00, 0x00, 0x00, 0x00,
   0x00, 0x00, 0x00, 0x00, 0x00, 0x00, 0x00, 0x00, 0x00, 0x5b, 0x55, 0x29,
   0x15, 0x4a, 0x24, 0x28, 0x4d, 0xa5, 0x54, 0xca, 0x0c, 0xa1, 0x22, 0x40,
   0x55, 0x40, 0x48, 0x2b, 0x01, 0x00, 0x00, 0x00, 0x00, 0x00, 0x00, 0x00,
   0x00, 0x00, 0x00, 0x00, 0x00, 0xa0, 0x54, 0xab, 0xaa, 0xd4, 0xa8, 0x08,
   0x45, 0x51, 0x2a, 0xa5, 0x52, 0x55, 0x16, 0x06, 0x00, 0x55, 0x42, 0x01,
   0x00, 0x00, 0x00, 0x00, 0x00, 0x00, 0x00, 0x00, 0x00, 0x00, 0x00, 0x00,
   0x00, 0x00, 0x7d, 0xab, 0x54, 0x55, 0x55, 0x13, 0x65, 0xb5, 0x4a, 0x49,
   0xa9, 0xa4, 0x92, 0x21, 0x11, 0x00, 0x54, 0x08, 0x08, 0x00, 0x00, 0x00,
   0x00, 0x00, 0x00, 0x00, 0x00, 0x00, 0x00, 0x00, 0x00, 0x00, 0x80, 0xeb,
   0xa4, 0x55, 0x55, 0x15, 0x55, 0x55, 0x25, 0x12, 0xaa, 0x2a, 0x95, 0xa4,
   0x26, 0x01, 0x00, 0x50, 0x81, 0x20, 0x00, 0x00, 0x00, 0x00, 0x00, 0x00,
   0x00, 0x00, 0x00, 0x00, 0x00, 0x00, 0x00, 0xe0, 0xaa, 0xaa, 0xb6, 0xaa,
   0xaa, 0xaa, 0xaa, 0xaa, 0xd5, 0xa4, 0x4a, 0x55, 0x51, 0x88, 0x04, 0x00,
   0x54, 0x08, 0x02, 0x00, 0x00, 0x00, 0x00, 0x00, 0x00, 0x00, 0x00, 0x00,
   0x00, 0x00, 0x00, 0x00, 0xb4, 0xf6, 0xa9, 0xaa, 0x56, 0x55, 0x55, 0xad,
   0xaa, 0xaa, 0x2a, 0x52, 0x2a, 0xa5, 0x12, 0x14, 0x00, 0x50, 0x91, 0x40,
   0x00, 0x00, 0x00, 0x00, 0x00, 0x00, 0x00, 0x00, 0x00, 0x00, 0x00, 0x00,
   0x00, 0x58, 0xab, 0xa6, 0xd5, 0xaa, 0x52, 0x55, 0xb3, 0x77, 0x57, 0xd5,
   0xaa, 0xaa, 0x5a, 0x49, 0x00, 0x00, 0x50, 0x82, 0x04, 0x00, 0x00, 0x00,
   0x00, 0x00, 0x00, 0x00, 0x00, 0x00, 0x00, 0x00, 0x00, 0x00, 0xba, 0x6a,
   0xa9, 0xb6, 0x5a, 0x55, 0xed, 0x56, 0x55, 0x6d, 0x55, 0x55, 0x25, 0x55,
   0x82, 0x02, 0x00, 0xd0, 0x88, 0x80, 0x00, 0x00, 0x00, 0x00, 0x00, 0x00,
   0x00, 0x00, 0x00, 0x00, 0x00, 0x00, 0x00, 0x57, 0xd5, 0xab, 0xda, 0xab,
   0xaa, 0x5a, 0x6d, 0x6d, 0xd5, 0xaa, 0x2a, 0x49, 0x55, 0x29, 0x00, 0x00,
   0x40, 0x52, 0x02, 0x00, 0x00, 0x00, 0x00, 0x00, 0x00, 0x00, 0x00, 0x00,
   0x00, 0x00, 0x00, 0x40, 0x76, 0x15, 0x4a, 0x5b, 0xad, 0xda, 0x5b, 0x49,
   0x85, 0x5a, 0xab, 0x4a, 0xab, 0x2a, 0x22, 0x02, 0x00, 0x90, 0x40, 0x04,
   0x01, 0x00, 0x00, 0x00, 0x00, 0x00, 0x00, 0x00, 0x00, 0x00, 0x00, 0x00,
   0x80, 0xad, 0xe5, 0xd3, 0x6a, 0x6b, 0x77, 0xad, 0xad, 0x5a, 0xaa, 0xd6,
   0xb6, 0x54, 0x55, 0x11, 0x00, 0x00, 0x28, 0x4a, 0x08, 0x92, 0x04, 0x00,
   0x00, 0x00, 0x00, 0x00, 0x00, 0x00, 0x00, 0x00, 0x00, 0x50, 0x5b, 0x55,
   0x56, 0xad, 0xda, 0xda, 0xb7, 0x2a, 0xa9, 0x68, 0x5d, 0x55, 0x5b, 0x55,
   0x92, 0x00, 0x00, 0xa0, 0x40, 0x11, 0x24, 0x01, 0x00, 0x00, 0x00, 0x00,
   0x00, 0x00, 0x00, 0x00, 0x00, 0x00, 0x50, 0xb5, 0x46, 0xad, 0xba, 0x6e,
   0xab, 0x6e, 0x55, 0x52, 0x85, 0xb2, 0x6a, 0xa5, 0xaa, 0x40, 0x02, 0x00,
   0x14, 0x35, 0x0a, 0x90, 0x2a, 0x00, 0x00, 0x00, 0x00, 0x00, 0x00, 0x00,
   0x00, 0x00, 0x00, 0x50, 0x55, 0x55, 0xd9, 0xf7, 0xad, 0x6a, 0xd9, 0x57,
   0xa5, 0x95, 0x84, 0xaa, 0xaa, 0x4a, 0x0a, 0x00, 0x00, 0x30, 0x41, 0x50,
   0x00, 0x80, 0x02, 0x00, 0x00, 0x00, 0x00, 0x00, 0x00, 0x00, 0x00, 0x00,
   0xb4, 0xaa, 0x4a, 0xb6, 0x5a, 0x5b, 0x95, 0xb6, 0xda, 0x0a, 0x55, 0x2a,
   0x49, 0xa5, 0x24, 0xa9, 0x00, 0x00, 0x44, 0x2a, 0x82, 0x52, 0xd5, 0x08,
   0x04, 0x00, 0x00, 0x00, 0x00, 0x00, 0x00, 0x00, 0x00, 0xa4, 0xaa, 0xaa,
   0x2a, 0x55, 0x41, 0x55, 0xb5, 0xb7, 0x6a, 0x48, 0x52, 0x95, 0x54, 0x49,
   0x22, 0x00, 0x00, 0x9a, 0x28, 0x14, 0x44, 0x80, 0xa2, 0x00, 0x00, 0x00,
   0x00, 0x00, 0x00, 0x00, 0x00, 0x00, 0xaa, 0xaa, 0x4a, 0x55, 0x02, 0x0a,
   0xa0, 0xca, 0xde, 0x9a, 0x52, 0x09, 0x5a, 0x4a, 0xb6, 0x45, 0x00, 0x00,
   0x20, 0x02, 0x20, 0x11, 0x09, 0x14, 0x15, 0x00, 0x00, 0x00, 0x00, 0x00,
   0x00, 0x00, 0x80, 0x54, 0x55, 0x55, 0xa5, 0xda, 0x2a, 0x04, 0x55, 0xb5,
   0xb5, 0x4a, 0xb2, 0x82, 0xd4, 0xaa, 0x14, 0x00, 0x00, 0xaa, 0x4c, 0x24,
   0xa2, 0xa8, 0x20, 0x00, 0x00, 0x00, 0x00, 0x00, 0x00, 0x00, 0x00, 0x00,
   0x95, 0xaa, 0xaa, 0x48, 0x2a, 0x80, 0xd0, 0x94, 0x6e, 0x6b, 0x95, 0x44,
   0x2d, 0x55, 0x55, 0x09, 0x00, 0x00, 0x44, 0x01, 0x90, 0x04, 0x02, 0x82,
   0x52, 0x00, 0x00, 0x00, 0x00, 0x00, 0x00, 0x00, 0x00, 0x55, 0xad, 0xaa,
   0x4a, 0x81, 0x04, 0x00, 0xa2, 0xdc, 0x56, 0x55, 0x5b, 0x55, 0x55, 0xa5,
   0x0a, 0x00, 0x00, 0x29, 0x4d, 0x81, 0x54, 0x54, 0x08, 0x04, 0x00, 0x00,
   0x00, 0x00, 0x00, 0x00, 0x00, 0x40, 0x55, 0x55, 0x55, 0x24, 0x2a, 0x20,
   0x40, 0x96, 0x72, 0xad, 0xaa, 0xaa, 0xaa, 0x54, 0x55, 0x25, 0x00, 0x00,
   0x84, 0x02, 0x10, 0x88, 0x00, 0x21, 0x10, 0x00, 0x00, 0x00, 0x00, 0x00,
   0x00, 0x00, 0x80, 0xaa, 0xaa, 0x95, 0x44, 0x80, 0x02, 0x05, 0x50, 0xd7,
   0x6d, 0x6d, 0xab, 0xaa, 0x55, 0x55, 0x22, 0x20, 0x89, 0x28, 0x2b, 0xa2,
   0x92, 0x24, 0x02, 0x51, 0x00, 0x00, 0x00, 0x00, 0x00, 0x00, 0x00, 0x40,
   0x4d, 0x55, 0xaa, 0x28, 0x15, 0x40, 0x80, 0x80, 0xb4, 0xdb, 0xb6, 0x6e,
   0x55, 0x90, 0xaa, 0x81, 0x02, 0x20, 0x48, 0x95, 0x00, 0x01, 0x82, 0x20,
   0x80, 0x00, 0x00, 0x00, 0x00, 0x00, 0x00, 0x00, 0x40, 0x55, 0xaa, 0x8a,
   0x22, 0x41, 0x0a, 0x08, 0x08, 0x64, 0xab, 0xed, 0xdb, 0x5a, 0x57, 0x55,
   0x24, 0xa4, 0x04, 0x41, 0x26, 0x2a, 0x54, 0x14, 0x44, 0x92, 0x00, 0x00,
   0x00, 0x00, 0x00, 0x00, 0x00, 0xa0, 0x8a, 0x2a, 0x29, 0x95, 0x14, 0x00,
   0x00, 0x81, 0xd8, 0x5f, 0x5b, 0xad, 0x55, 0xa9, 0x2a, 0x91, 0x12, 0x55,
   0x95, 0x55, 0xa1, 0x00, 0xa1, 0x10, 0x00, 0x01, 0x00, 0x00, 0x00, 0x00,
   0x00, 0x00, 0xa0, 0x55, 0x55, 0x53, 0x90, 0x44, 0x22, 0x11, 0x00, 0x10,
   0xff, 0xaa, 0x5a, 0xab, 0x56, 0x2d, 0x10, 0xa4, 0x00, 0x10, 0x55, 0x0a,
   0x55, 0x0a, 0x95, 0x4a, 0x00, 0x00, 0x00, 0x00, 0x00, 0x00, 0x00, 0xa0,
   0x52, 0xa5, 0xa4, 0x22, 0x12, 0x01, 0x00, 0x12, 0xc1, 0x5a, 0xdb, 0xaa,
   0xaa, 0xad, 0x8a, 0xa2, 0x12, 0xaa, 0x22, 0xaa, 0xaa, 0x48, 0xa9, 0x22,
   0x80, 0x00, 0x00, 0x00, 0x00, 0x00, 0x00, 0x00, 0x60, 0x65, 0x55, 0x15,
   0xa5, 0x20, 0x24, 0x22, 0x00, 0x80, 0xfa, 0x57, 0xed, 0x56, 0xa9, 0x22,
   0x0a, 0xa0, 0x00, 0x44, 0x50, 0x25, 0x15, 0xa9, 0x54, 0x15, 0x01, 0x00,
   0x00, 0x00, 0x00, 0x00, 0x00, 0x94, 0x92, 0x2a, 0xa2, 0x08, 0x85, 0x80,
   0x00, 0x00, 0x02, 0xaf, 0xde, 0xd5, 0xad, 0x56, 0x55, 0x51, 0x05, 0x12,
   0x90, 0xaa, 0xaa, 0x6a, 0x55, 0xab, 0x44, 0x02, 0x00, 0x00, 0x00, 0x00,
   0x00, 0x00, 0xb4, 0x54, 0x55, 0x15, 0x29, 0x14, 0x0a, 0x44, 0x24, 0x08,
   0xf8, 0xb5, 0x5f, 0x5b, 0xed, 0x0a, 0x45, 0x20, 0x40, 0x01, 0x40, 0x55,
   0x49, 0x55, 0x54, 0x49, 0x94, 0x00, 0x00, 0x00, 0x00, 0x00, 0x80, 0x4a,
   0xad, 0xaa, 0xa4, 0x44, 0x21, 0x00, 0x00, 0x00, 0x00, 0x56, 0x5f, 0x7b,
   0xb5, 0x9a, 0xa4, 0x94, 0x8a, 0x04, 0x04, 0x09, 0xaa, 0xb6, 0x8a, 0xd0,
   0x22, 0x41, 0x00, 0x00, 0x00, 0x00, 0x00, 0x00, 0x59, 0xa5, 0x25, 0x29,
   0x15, 0x84, 0xa4, 0x88, 0x00, 0x21, 0xb8, 0x6a, 0xab, 0xaf, 0x32, 0x95,
   0x10, 0x80, 0x50, 0x20, 0x00, 0x50, 0x49, 0x00, 0x85, 0x4a, 0x0a, 0x11,
   0x00, 0x00, 0x00, 0x00, 0xa0, 0x52, 0xab, 0x4a, 0x45, 0x50, 0x29, 0x00,
   0x02, 0x12, 0x08, 0x68, 0x55, 0x7d, 0xb5, 0x44, 0x24, 0xa5, 0x2a, 0x04,
   0x89, 0x08, 0x00, 0x02, 0x00, 0x50, 0x05, 0xa9, 0x44, 0x00, 0x00, 0x00,
   0x00, 0x20, 0xaa, 0xda, 0x55, 0x49, 0x45, 0x42, 0x15, 0x10, 0x20, 0x00,
   0xe1, 0x6d, 0xa5, 0xad, 0x5c, 0x55, 0x4a, 0x09, 0x21, 0x10, 0x29, 0x00,
   0x80, 0x00, 0x80, 0x5a, 0x22, 0x08, 0x00, 0x00, 0x00, 0x00, 0xa0, 0xe9,
   0x6a, 0x94, 0x2a, 0x29, 0x09, 0x40, 0x00, 0x00, 0x21, 0xa8, 0x5b, 0x55,
   0xa9, 0xa2, 0x54, 0x55, 0x6a, 0x04, 0x45, 0x80, 0x00, 0x00, 0x82, 0x00,
   0x24, 0x88, 0x22, 0x00, 0x00, 0x00, 0x00, 0x20, 0x69, 0xd5, 0x91, 0x44,
   0x22, 0xa9, 0x84, 0x44, 0x02, 0x00, 0xa0, 0xd6, 0x2a, 0xab, 0xaa, 0x55,
   0x55, 0x45, 0x29, 0x08, 0x0a, 0x02, 0x40, 0x10, 0x00, 0x50, 0x51, 0x2a,
   0x00, 0x00, 0x00, 0x00, 0x94, 0xde, 0x5d, 0x2a, 0x29, 0x49, 0x04, 0x02,
   0x00, 0x10, 0x42, 0xc0, 0x5e, 0x55, 0xaa, 0x54, 0xb5, 0x55, 0x29, 0x92,
   0xa0, 0xa4, 0x08, 0x84, 0x42, 0x00, 0x50, 0x05, 0x49, 0x00, 0x00, 0x00,
   0x00, 0x24, 0x29, 0xf5, 0xaa, 0x4a, 0x12, 0x51, 0x28, 0x49, 0x20, 0x84,
   0xc4, 0xda, 0x6d, 0xb5, 0xb5, 0xaa, 0xaa, 0xaa, 0x22, 0x02, 0x08, 0x91,
   0x10, 0x14, 0x00, 0xa0, 0x2a, 0x09, 0x00, 0x00, 0x00, 0x00, 0x48, 0xeb,
   0x5b, 0x92, 0x90, 0xa4, 0x04, 0x01, 0x00, 0x01, 0x00, 0x80, 0x7b, 0x5b,
   0x55, 0xa5, 0x55, 0xad, 0x92, 0x94, 0x88, 0x12, 0x40, 0x4a, 0x41, 0x00,
   0x40, 0x95, 0x20, 0x00, 0x00, 0x00, 0x00, 0x4a, 0x95, 0xfa, 0x52, 0xa5,
   0x14, 0x51, 0x24, 0x09, 0xa4, 0x14, 0x08, 0xd7, 0xd7, 0xb6, 0x55, 0x5b,
   0xd9, 0xb6, 0x12, 0x11, 0xa0, 0x0a, 0x90, 0x8a, 0x00, 0x00, 0x28, 0x05,
   0x00, 0x00, 0x00, 0x00, 0xa4, 0xf9, 0x3a, 0x4a, 0x89, 0xa2, 0x04, 0x01,
   0x20, 0x49, 0xa1, 0x80, 0xba, 0x7a, 0x5b, 0x97, 0xaa, 0xb7, 0x55, 0xa5,
   0x44, 0x42, 0x50, 0x05, 0x54, 0x02, 0x00, 0x50, 0x59, 0x00, 0x00, 0x00,
   0x00, 0xa8, 0x52, 0xf3, 0x54, 0x2a, 0x88, 0x54, 0x54, 0x42, 0x2b, 0x84,
   0x12, 0xf7, 0xab, 0x76, 0x5a, 0x35, 0xaa, 0xae, 0x2a, 0x09, 0x8a, 0x02,
   0x00, 0x80, 0x00, 0x00, 0x40, 0x5b, 0x00, 0x00, 0x00, 0x00, 0xaa, 0x5c,
   0x5d, 0x89, 0x48, 0x25, 0x81, 0x00, 0xa8, 0x04, 0x01, 0x00, 0xac, 0x76,
   0xc9, 0xb6, 0xef, 0x72, 0xbb, 0xaa, 0xa4, 0x00, 0x09, 0x00, 0x28, 0x05,
   0x00, 0x00, 0x00, 0x00, 0x00, 0x00, 0x00, 0xa2, 0x74, 0x79, 0xaa, 0x92,
   0x24, 0x2a, 0x4a, 0xb5, 0x20, 0x10, 0x20, 0xa9, 0x4d, 0xab, 0x6a, 0x92,
   0x46, 0x65, 0x57, 0x09, 0x54, 0x02, 0x00, 0x20, 0x08, 0x00, 0x00, 0x10,
   0x00, 0x00, 0x00, 0x00, 0x54, 0x95, 0xaa, 0x92, 0x24, 0x49, 0x91, 0x20,
   0x1a, 0x09, 0x41, 0x02, 0x72, 0xb5, 0xaa, 0x95, 0x6a, 0x55, 0xdd, 0xaa,
   0x4a, 0x00, 0x04, 0x00, 0x80, 0x22, 0x00, 0x00, 0x00, 0x00, 0x00, 0x00,
   0x00, 0x54, 0x5a, 0x6d, 0xa5, 0x4a, 0x12, 0x22, 0x85, 0x26, 0x21, 0x04,
   0x00, 0xa4, 0xd5, 0xaa, 0xaa, 0x4a, 0x95, 0xa0, 0xad, 0x4a, 0x95, 0x14,
   0x00, 0x00, 0x04, 0x00, 0x00, 0x00, 0x00, 0x00, 0x00, 0x00, 0xa8, 0x56,
   0x55, 0x95, 0x28, 0xa9, 0x94, 0xa8, 0x12, 0x84, 0x10, 0x49, 0x6a, 0x6f,
   0x95, 0x2a, 0x55, 0xa5, 0xaa, 0x56, 0x29, 0x20, 0x00, 0x12, 0x80, 0x12,
   0x00, 0x00, 0x00, 0x00, 0x00, 0x00, 0x00, 0xa8, 0xaa, 0x54, 0x29, 0x45,
   0x42, 0x11, 0x51, 0x45, 0x29, 0x22, 0x00, 0xd0, 0xaa, 0xb5, 0xaa, 0x84,
   0x4a, 0x41, 0x5d, 0x8b, 0x42, 0x55, 0xa0, 0x02, 0x22, 0x00, 0x00, 0x00,
   0x00, 0x00, 0x00, 0x00, 0x54, 0xad, 0x36, 0x55, 0x29, 0x29, 0xa2, 0xc4,
   0x90, 0x84, 0x88, 0x24, 0x51, 0x6d, 0xab, 0xaa, 0x94, 0xaa, 0x8a, 0xaa,
   0x54, 0x08, 0x88, 0x0a, 0x04, 0x04, 0x00, 0x00, 0x00, 0x00, 0x00, 0x00,
   0x00, 0x20, 0xab, 0xa4, 0x54, 0x4a, 0x4a, 0x0a, 0x11, 0x92, 0xa8, 0x82,
   0x00, 0xc4, 0xad, 0xaa, 0x52, 0x29, 0x95, 0x12, 0xf5, 0x2a, 0x49, 0x11,
   0xa9, 0x54, 0xa9, 0x00, 0x00, 0x00, 0x00, 0x00, 0x00, 0x00, 0xa8, 0x55,
   0x5b, 0x49, 0x91, 0x50, 0x51, 0x4a, 0x48, 0x02, 0x29, 0x4a, 0x92, 0x5b,
   0x6b, 0x95, 0x88, 0x6a, 0x49, 0x55, 0x45, 0x20, 0x52, 0x00, 0x20, 0x24,
   0x02, 0x00, 0x00, 0x00, 0x00, 0x00, 0x00, 0x40, 0x55, 0xb3, 0x52, 0x95,
   0x0a, 0x8a, 0x00, 0x81, 0x5a, 0xaa, 0x40, 0x10, 0xf7, 0xd6, 0x2a, 0x29,
   0x4a, 0x05, 0xaa, 0x55, 0x8b, 0x44, 0x25, 0x85, 0x40, 0x28, 0x00, 0x00,
   0x00, 0x00, 0x00, 0x00, 0xb0, 0x95, 0x2a, 0x4d, 0x22, 0x51, 0x51, 0x2a,
   0x54, 0xd2, 0x5b, 0x0b, 0x41, 0xad, 0xaa, 0xa5, 0x90, 0x55, 0x29, 0xaa,
   0x0a, 0x24, 0x89, 0x94, 0x50, 0x0a, 0x81, 0x0a, 0x00, 0x00, 0x00, 0x00,
   0x00, 0x60, 0xed, 0x7a, 0x91, 0x54, 0x4a, 0x4a, 0x42, 0x91, 0x3a, 0x00,
   0x2a, 0x08, 0xf5, 0xaa, 0x2a, 0x25, 0xaa, 0x42, 0x58, 0x75, 0x49, 0x29,
   0x21, 0x12, 0x51, 0x15, 0x00, 0x00, 0x00, 0x00, 0x00, 0x00, 0x98, 0xb3,
   0x3b, 0x6d, 0xf5, 0x95, 0x92, 0x04, 0xa4, 0xc6, 0xff, 0x28, 0x21, 0xce,
   0xad, 0x45, 0x52, 0x55, 0x95, 0x52, 0x8d, 0x24, 0x52, 0x8a, 0x44, 0x00,
   0xa2, 0x0a, 0x00, 0x00, 0x00, 0x00, 0x00, 0x68, 0xb6, 0x76, 0x49, 0x4b,
   0x5f, 0x92, 0x28, 0x88, 0xb6, 0x97, 0x2f, 0x42, 0xba, 0x2b, 0xd7, 0x94,
   0x52, 0x15, 0x50, 0x69, 0x51, 0x85, 0x80, 0x88, 0x82, 0x08, 0x00, 0x00,
   0x00, 0x00, 0x00, 0x00, 0xac, 0x6d, 0x7b, 0xaa, 0xbe, 0xb5, 0x24, 0x81,
   0x52, 0xf9, 0x2b, 0x00, 0x10, 0x55, 0x5b, 0x15, 0xa9, 0xaa, 0x52, 0xa5,
   0x2a, 0x25, 0x2a, 0x55, 0x10, 0x00, 0x55, 0x15, 0x00, 0x00, 0x00, 0x00,
   0x00, 0xd4, 0x6d, 0xed, 0xd2, 0x22, 0xa5, 0x49, 0x0a, 0x40, 0xaf, 0x27,
   0x92, 0x00, 0x5d, 0x2b, 0xa5, 0xaa, 0xaa, 0x56, 0x88, 0xae, 0xa4, 0xa8,
   0x9a, 0xa2, 0x02, 0x20, 0x00, 0x00, 0x00, 0x00, 0x00, 0x00, 0x6f, 0xd5,
   0x76, 0x6a, 0xad, 0xaa, 0x2a, 0x21, 0xaa, 0x61, 0x99, 0x01, 0x24, 0x74,
   0x57, 0x55, 0x49, 0x41, 0x49, 0x51, 0x52, 0x92, 0xaa, 0xb2, 0x0a, 0x00,
   0x40, 0x00, 0x00, 0x00, 0x00, 0x00, 0x00, 0x5a, 0xab, 0xec, 0x54, 0x51,
   0xaa, 0x4a, 0x44, 0xa0, 0x4b, 0x2b, 0x25, 0x80, 0x6c, 0x2e, 0x2b, 0x55,
   0x4d, 0xab, 0x4a, 0x92, 0xa4, 0xaa, 0xaa, 0x52, 0x05, 0x80, 0x00, 0x00,
   0x00, 0x00, 0x00, 0x00, 0x96, 0xaa, 0xf6, 0xb5, 0x56, 0x55, 0x95, 0x02,
   0x55, 0xd5, 0x27, 0x80, 0x08, 0xda, 0x5b, 0xd5, 0xaa, 0x84, 0x56, 0x55,
   0x49, 0x29, 0x55, 0xab, 0x84, 0x00, 0x00, 0x10, 0x00, 0x00, 0x00, 0x00,
   0x00, 0x55, 0xab, 0xac, 0xa5, 0x52, 0x55, 0x55, 0x14, 0xd0, 0x56, 0x54,
   0x09, 0x40, 0xb8, 0x56, 0x95, 0x52, 0x91, 0xaa, 0x52, 0x2a, 0xd2, 0xaa,
   0xaa, 0x2d, 0x92, 0x02, 0x52, 0x00, 0x00, 0x00, 0x00, 0x80, 0x96, 0xd4,
   0x76, 0x55, 0x55, 0xd5, 0x2a, 0x01, 0xa0, 0xaa, 0x52, 0x80, 0x08, 0x6d,
   0xab, 0x55, 0x15, 0x05, 0x35, 0xa5, 0x4a, 0x2d, 0xad, 0x54, 0x95, 0x42,
   0x40, 0x01, 0x01, 0x00, 0x00, 0x00, 0x00, 0xb5, 0x92, 0xea, 0xab, 0xaa,
   0xaa, 0x55, 0xa4, 0x84, 0x54, 0x15, 0x12, 0x20, 0xb4, 0x3b, 0x55, 0x55,
   0x20, 0xd6, 0xaa, 0xa8, 0xea, 0xaa, 0x12, 0x2a, 0x0a, 0x00, 0x24, 0x04,
   0x00, 0x00, 0x00, 0x00, 0x95, 0xd5, 0xaa, 0xaa, 0xaa, 0x5d, 0xad, 0x02,
   0x50, 0x42, 0x40, 0x00, 0x01, 0xd1, 0xa6, 0x92, 0x22, 0x05, 0x2d, 0x55,
   0xab, 0x8a, 0x45, 0xc8, 0x94, 0x40, 0xa8, 0x90, 0x20, 0x00, 0x00, 0x00,
   0x00, 0x35, 0x95, 0xee, 0xa5, 0xaa, 0xf5, 0x55, 0x14, 0x00, 0x4c, 0x95,
   0x02, 0x22, 0xd4, 0x5e, 0x45, 0xa5, 0x20, 0x68, 0x95, 0x6a, 0xb5, 0x94,
   0x92, 0x32, 0x8a, 0x02, 0x02, 0x05, 0x00, 0x00, 0x00, 0x00, 0xa5, 0x52,
   0xab, 0x2b, 0xd5, 0x07, 0xb7, 0x40, 0x82, 0x10, 0x40, 0x08, 0x80, 0x7a,
   0x65, 0x55, 0x15, 0x0a, 0xd5, 0x6a, 0xad, 0x4d, 0x22, 0x4a, 0xa4, 0x10,
   0x94, 0x28, 0x10, 0x00, 0x00, 0x00, 0x00, 0x56, 0x55, 0x6d, 0x6b, 0x75,
   0xda, 0xaa, 0x0a, 0x00, 0xa1, 0x0a, 0x40, 0x08, 0xd2, 0x5a, 0x45, 0xa9,
   0x00, 0x50, 0x55, 0x55, 0x55, 0x44, 0x88, 0xa4, 0x52, 0x11, 0x81, 0x02,
   0x00, 0x00, 0x00, 0x80, 0xaa, 0xaa, 0xda, 0x46, 0x4d, 0x7f, 0x57, 0x41,
   0x24, 0x00, 0x20, 0x11, 0x42, 0xb4, 0x55, 0xd2, 0x12, 0x90, 0xa4, 0xaa,
   0xad, 0x02, 0x91, 0x24, 0x49, 0x01, 0xa2, 0xba, 0x54, 0x00, 0x00, 0x00,
   0x00, 0x54, 0xa5, 0xaa, 0x5f, 0xed, 0x6f, 0xb8, 0x0a, 0x00, 0x44, 0x02,
   0x00, 0x00, 0x69, 0xb7, 0xa4, 0xb2, 0x02, 0x40, 0x55, 0xb5, 0x54, 0x22,
   0x21, 0x95, 0x56, 0x24, 0x24, 0x15, 0x00, 0x00, 0x00, 0x00, 0x55, 0x55,
   0x55, 0x45, 0xfb, 0x2e, 0xa7, 0x44, 0x80, 0x00, 0x10, 0x42, 0x44, 0xd4,
   0xaa, 0xa2, 0x15, 0x10, 0x11, 0x55, 0x55, 0x20, 0x89, 0x44, 0xa4, 0x54,
   0x95, 0x4b, 0x6b, 0x00, 0x00, 0x00, 0x00, 0xaa, 0x2a, 0xd5, 0x5e, 0xd2,
   0x6e, 0x56, 0x09, 0x09, 0x08, 0x21, 0x04, 0x08, 0xd1, 0x2d, 0x45, 0xa5,
   0x02, 0x02, 0x24, 0x54, 0x25, 0x21, 0x94, 0x08, 0x55, 0xa5, 0x10, 0x08,
   0x00, 0x00, 0x00, 0x00, 0xa8, 0xaa, 0xaa, 0x4c, 0xaf, 0xb2, 0x54, 0x01,
   0x80, 0x40, 0x00, 0x20, 0x00, 0x6a, 0xab, 0xd2, 0x5a, 0x08, 0x50, 0xc9,
   0x2a, 0x40, 0x4a, 0xa1, 0x50, 0xaa, 0x0a, 0x05, 0x35, 0x00, 0x00, 0x00,
   0x00, 0xa0, 0xaa, 0xaa, 0x59, 0x96, 0xd7, 0xaa, 0xaa, 0x10, 0x02, 0x22,
   0x41, 0x49, 0xc8, 0xae, 0x14, 0xab, 0x23, 0x01, 0x92, 0xd2, 0x8a, 0x48,
   0x8a, 0xa2, 0xa2, 0x34, 0x00, 0x20, 0x00, 0x00, 0x00, 0x00, 0x20, 0x55,
   0x55, 0x96, 0x55, 0x36, 0xa5, 0x02, 0x02, 0x08, 0x08, 0x04, 0x00, 0xb1,
   0x35, 0x63, 0x95, 0x08, 0x04, 0x28, 0x2a, 0x22, 0x93, 0x10, 0x84, 0x94,
   0x42, 0x10, 0x00, 0x00, 0x00, 0x00, 0x00, 0x40, 0xa9, 0xaa, 0xa9, 0xd4,
   0x6a, 0xa9, 0x2a, 0x40, 0x90, 0x40, 0x08, 0x12, 0xa4, 0x57, 0x0c, 0x55,
   0x53, 0xa8, 0xa0, 0xd4, 0x24, 0x24, 0x45, 0x29, 0x25, 0x08, 0x01, 0x00,
   0x00, 0x00, 0x00, 0x00, 0x00, 0xaa, 0xaa, 0x2a, 0x55, 0x55, 0x55, 0x85,
   0x04, 0x02, 0x12, 0x20, 0x40, 0xd0, 0xb6, 0x75, 0x95, 0x22, 0x00, 0x42,
   0x35, 0x49, 0x55, 0x29, 0x92, 0x90, 0xa2, 0x04, 0x00, 0x00, 0x00, 0x00,
   0x00, 0x00, 0xb0, 0xab, 0x6a, 0x52, 0x15, 0x51, 0x15, 0x20, 0x40, 0x80,
   0x22, 0x09, 0xd5, 0xad, 0x82, 0xb4, 0xce, 0x4a, 0x08, 0x42, 0x53, 0x51,
   0x54, 0x25, 0x05, 0x0a, 0x00, 0x00, 0x00, 0x00, 0x00, 0x00, 0x00, 0x6a,
   0x56, 0xaa, 0xaa, 0xaa, 0x54, 0x45, 0x04, 0x09, 0x09, 0x08, 0x20, 0xa0,
   0x5b, 0x2d, 0x55, 0x21, 0x20, 0x21, 0xa9, 0x14, 0x8a, 0x52, 0x48, 0xb2,
   0x54, 0x29, 0x00, 0x00, 0x00, 0x00, 0x00, 0x00, 0x68, 0xb5, 0x6a, 0x49,
   0x25, 0x49, 0x95, 0x20, 0x10, 0x90, 0x40, 0x02, 0x29, 0x5b, 0xa9, 0x52,
   0x57, 0x05, 0x04, 0x92, 0xa5, 0x52, 0x85, 0x52, 0x44, 0x91, 0x82, 0x00,
   0x00, 0x00, 0x00, 0x00, 0x00, 0xa8, 0x6d, 0x55, 0x55, 0x4a, 0xaa, 0x0a,
   0x08, 0x41, 0x05, 0x02, 0x48, 0xc4, 0x6d, 0x57, 0xaa, 0x52, 0x50, 0x51,
   0x48, 0x5a, 0x4d, 0x2a, 0x45, 0x55, 0xaa, 0x2a, 0x02, 0x00, 0x00, 0x00,
   0x00, 0x00, 0x68, 0xa5, 0x64, 0xa9, 0x94, 0x92, 0x2a, 0x21, 0x0a, 0x48,
   0x94, 0x80, 0x48, 0xdb, 0x54, 0x55, 0x55, 0x05, 0x04, 0x41, 0xaa, 0x92,
   0x54, 0x59, 0x45, 0x22, 0x4a, 0x00, 0x00, 0x00, 0x00, 0x00, 0x00, 0xa8,
   0x55, 0xd5, 0x52, 0x25, 0xaa, 0x0a, 0x00, 0x20, 0x21, 0x00, 0x12, 0x22,
   0xb7, 0xab, 0x52, 0x29, 0xa9, 0x10, 0x08, 0xb9, 0x6a, 0x55, 0x55, 0x81,
   0x44, 0x94, 0x10, 0x00, 0x00, 0x00, 0x00, 0x00, 0xf0, 0x6a, 0xd5, 0x4a,
   0xa9, 0xa8, 0xaa, 0xa4, 0x04, 0x02, 0x49, 0x20, 0x42, 0xb6, 0x56, 0xa5,
   0x2a, 0x11, 0x25, 0x21, 0xa2, 0x96, 0x52, 0x15, 0x80, 0x88, 0xa8, 0x02,
   0x00, 0x00, 0x00, 0x00, 0x00, 0x54, 0xab, 0xda, 0x2a, 0x25, 0x53, 0x15,
   0x00, 0x50, 0x48, 0x00, 0x02, 0xa8, 0x5a, 0xad, 0x54, 0x92, 0xa4, 0x48,
   0x88, 0x48, 0x69, 0x25, 0x09, 0x00, 0x14, 0x42, 0x01, 0x00, 0x00, 0x00,
   0x00, 0x00, 0xd0, 0x6a, 0xd5, 0x52, 0x55, 0xaa, 0x56, 0xa9, 0x02, 0x09,
   0x55, 0x90, 0x02, 0xed, 0xb5, 0x55, 0x95, 0x14, 0x41, 0x01, 0x21, 0x0a,
   0x24, 0x01, 0x00, 0x50, 0x04, 0x15, 0x00, 0x00, 0x00, 0x00, 0x00, 0x54,
   0x55, 0x6d, 0x55, 0xa5, 0x54, 0x29, 0x04, 0x54, 0x20, 0x00, 0x05, 0xa8,
   0x5a, 0xab, 0x56, 0x2d, 0xa5, 0x2a, 0x25, 0x94, 0x50, 0x81, 0x00, 0x00,
   0x80, 0x40, 0x01, 0x00, 0x00, 0x00, 0x00, 0x00, 0xe0, 0x5a, 0xdb, 0x55,
   0x2a, 0xa5, 0xa6, 0x40, 0x89, 0x44, 0x02, 0x20, 0x01, 0xb4, 0x6e, 0x55,
   0xa5, 0x54, 0x45, 0x09, 0x00, 0x25, 0x08, 0x2c, 0x00, 0x80, 0x04, 0x16,
   0x00, 0x00, 0x00, 0x00, 0x00, 0x5c, 0x55, 0x55, 0x4b, 0xa5, 0x54, 0x55,
   0x4a, 0x55, 0x00, 0x28, 0x12, 0x54, 0xf5, 0xb5, 0x6d, 0x55, 0x15, 0x15,
   0xa5, 0x54, 0x90, 0x00, 0x20, 0x01, 0x00, 0x00, 0x29, 0x00, 0x00, 0x00,
   0x00, 0x00, 0x50, 0x6b, 0xd7, 0x57, 0x55, 0x55, 0x95, 0x88, 0x4f, 0x49,
   0x41, 0x80, 0x40, 0x44, 0x77, 0xdb, 0x95, 0x6a, 0x55, 0xaa, 0x00, 0x02,
   0x05, 0x80, 0x00, 0x80, 0x02, 0x28, 0x00, 0x00, 0x00, 0x00, 0x00, 0xd7,
   0xaa, 0x5c, 0x2d, 0x49, 0x52, 0x6b, 0x51, 0x10, 0x00, 0x08, 0x22, 0x8a,
   0xf2, 0xae, 0x2d, 0x55, 0x95, 0xaa, 0x14, 0xa2, 0x54, 0x10, 0x00, 0x05,
   0x00, 0x08, 0x02, 0x00, 0x00, 0x00, 0x00, 0x00, 0xa8, 0xaa, 0xb5, 0x57,
   0x55, 0xa5, 0x4a, 0x45, 0x22, 0x12, 0x41, 0x04, 0x10, 0xa4, 0xad, 0x6a,
   0x55, 0x55, 0x95, 0x52, 0x84, 0x00, 0x92, 0x00, 0x04, 0x00, 0x01, 0x28,
   0x00, 0x00, 0x00, 0x00, 0x80, 0xaa, 0xaa, 0x54, 0xad, 0x92, 0xaa, 0x56,
   0x95, 0x80, 0x40, 0x10, 0x20, 0xa0, 0xe2, 0xff, 0xad, 0x5a, 0x55, 0x52,
   0x09, 0x29, 0x92, 0x00, 0x02, 0x10, 0x00, 0x08, 0x48, 0x00, 0x00, 0x00,
   0x00, 0x80, 0xca, 0xaa, 0x6d, 0x2f, 0x55, 0x54, 0xed, 0x29, 0x08, 0x04,
   0x02, 0x22, 0x05, 0x88, 0xb6, 0xed, 0xf6, 0xd7, 0x4a, 0x52, 0x02, 0x00,
   0x20, 0x04, 0x00, 0x00, 0x01, 0x10, 0x00, 0x00, 0x00, 0x00, 0x80, 0xa4,
   0x4a, 0x5a, 0x55, 0xa9, 0xa2, 0x9a, 0xd7, 0x00, 0x10, 0x21, 0x08, 0x50,
   0xe5, 0xfb, 0x56, 0x2b, 0x55, 0xa1, 0x82, 0x54, 0x2a, 0x05, 0x90, 0x18,
   0x00, 0x12, 0x48, 0x00, 0x00, 0x00, 0x00, 0x20, 0xa9, 0xaa, 0xd2, 0xbe,
   0x92, 0x4a, 0x75, 0x35, 0xa5, 0x00, 0x84, 0x40, 0x02, 0x48, 0xaf, 0xdd,
   0x6e, 0xbd, 0x26, 0x28, 0x01, 0x20, 0x48, 0x01, 0x20, 0x00, 0x00, 0x08,
   0x00, 0x00, 0x00, 0x00, 0x80, 0x44, 0x55, 0xb5, 0xb5, 0x2a, 0x55, 0x55,
   0x45, 0x00, 0x10, 0x00, 0x00, 0x48, 0xe5, 0x7e, 0x6b, 0xa9, 0xd3, 0x88,
   0x45, 0x54, 0x89, 0x00, 0x08, 0x01, 0x00, 0x25, 0x61, 0x00, 0x00, 0x00,
   0x00, 0x80, 0x42, 0x49, 0x55, 0x75, 0x55, 0x49, 0x55, 0x95, 0x04, 0x82,
   0x24, 0x92, 0x08, 0xa8, 0x6b, 0x5b, 0x2b, 0x95, 0x13, 0x49, 0x01, 0x92,
   0x2a, 0x21, 0x50, 0x00, 0x04, 0x00, 0x00, 0x00, 0x00, 0x00, 0x20, 0x41,
   0x95, 0xaa, 0xae, 0x2a, 0x55, 0x55, 0x45, 0x90, 0x48, 0x80, 0x00, 0xa0,
   0xd2, 0xbe, 0xad, 0xaa, 0x52, 0x4a, 0x16, 0xaa, 0x08, 0x51, 0x0a, 0x01,
   0x00, 0x50, 0x49, 0x00, 0x00, 0x00, 0x00, 0x00, 0x45, 0x35, 0xa5, 0xf9,
   0x52, 0x12, 0x49, 0x94, 0x02, 0x00, 0x09, 0x90, 0x04, 0xb2, 0xb7, 0xb7,
   0x56, 0x95, 0x8a, 0x50, 0x12, 0x51, 0x86, 0x22, 0x49, 0x01, 0x00, 0x09,
   0x00, 0x00, 0x00, 0x00, 0x40, 0x80, 0x4a, 0x55, 0xa7, 0x55, 0x65, 0x2a,
   0x41, 0x08, 0xa9, 0x20, 0x01, 0x50, 0xd4, 0x7a, 0xad, 0xa9, 0x2a, 0x55,
   0xa6, 0xa4, 0xa4, 0x58, 0x0a, 0x00, 0x04, 0x10, 0x20, 0x00, 0x00, 0x00,
   0x00, 0x40, 0x00, 0x55, 0x55, 0xaa, 0x4a, 0x8a, 0xa2, 0x4a, 0x29, 0x41,
   0x05, 0x44, 0x02, 0x99, 0xef, 0x6d, 0x57, 0xa9, 0x94, 0x08, 0x29, 0x55,
   0x53, 0xb5, 0x12, 0x00, 0xa0, 0x0a, 0x00, 0x00, 0x00, 0x00, 0x00, 0x00,
   0xa9, 0xaa, 0xd4, 0x53, 0xa9, 0x8c, 0x2a, 0xa5, 0xfe, 0x42, 0x00, 0xa8,
   0xb4, 0x5b, 0x5f, 0xad, 0xaa, 0x2a, 0x52, 0x45, 0xa9, 0x54, 0xaa, 0x44,
   0x00, 0x00, 0x50, 0x00, 0x00, 0x00, 0x00, 0x80, 0x00, 0xab, 0xaa, 0x2a,
   0x4e, 0x55, 0x29, 0x54, 0x91, 0x94, 0x08, 0x11, 0x01, 0x64, 0x7b, 0x75,
   0x6b, 0xab, 0x55, 0x52, 0x54, 0x92, 0x42, 0xa0, 0x8a, 0x00, 0x00, 0x00,
   0x00, 0x00, 0x00, 0x00, 0x00, 0x00, 0xaa, 0x52, 0xd5, 0xaa, 0x24, 0xa5,
   0x55, 0xf5, 0x2b, 0x02, 0x40, 0xa4, 0xda, 0x57, 0xdd, 0xde, 0x6a, 0x2d,
   0x49, 0x49, 0x2d, 0x94, 0x0a, 0x15, 0x02, 0x00, 0x20, 0x00, 0x00, 0x00,
   0x00, 0x00, 0x00, 0x24, 0x55, 0x95, 0x2a, 0x29, 0x29, 0x6a, 0x55, 0x42,
   0x20, 0x04, 0x80, 0x92, 0xf6, 0xda, 0x94, 0xaa, 0x2a, 0x90, 0xaa, 0x52,
   0x21, 0x55, 0xb4, 0x00, 0x00, 0x20, 0x00, 0x00, 0x00, 0x00, 0x00, 0x00,
   0xa8, 0xaa, 0xaa, 0xb4, 0x4a, 0xa2, 0xfd, 0x8b, 0x04, 0x04, 0x21, 0x15,
   0xe5, 0x2d, 0x75, 0xbb, 0xd5, 0xaa, 0x52, 0x49, 0x44, 0x4a, 0x49, 0xa1,
   0x0a, 0x00, 0x40, 0x00, 0x00, 0x00, 0x00, 0x00, 0x00, 0x50, 0x55, 0x55,
   0x65, 0x52, 0x55, 0x2d, 0x92, 0x94, 0x00, 0x00, 0xa0, 0xca, 0xed, 0xd2,
   0x56, 0xb5, 0x56, 0x82, 0x92, 0x48, 0x50, 0x09, 0x04, 0x08, 0x00, 0x00,
   0x00, 0x00, 0x00, 0x00, 0x00, 0x00, 0xa0, 0xaa, 0x55, 0xa9, 0x94, 0xe4,
   0xab, 0x54, 0x02, 0x08, 0x09, 0x82, 0x52, 0x57, 0x65, 0xbb, 0x56, 0x55,
   0x54, 0x24, 0xa5, 0x15, 0xa0, 0x92, 0x10, 0x00, 0x00, 0x00, 0x00, 0x00,
   0x00, 0x00, 0x00, 0xa0, 0xaa, 0xaa, 0x92, 0xa5, 0x8a, 0x56, 0x45, 0x12,
   0x21, 0x40, 0xa8, 0xd4, 0x5d, 0xc9, 0xd6, 0xde, 0xab, 0x81, 0x24, 0x29,
   0x8a, 0x0a, 0x10, 0xa2, 0x00, 0x00, 0x00, 0x00, 0x00, 0x00, 0x00, 0x00,
   0xa0, 0xaa, 0xaa, 0xaa, 0x14, 0x69, 0xaa, 0xba, 0x00, 0x00, 0x10, 0xa2,
   0x62, 0xb3, 0xa2, 0xbb, 0x29, 0xaa, 0x56, 0x52, 0xd2, 0x22, 0x50, 0xa5,
   0x00, 0x01, 0x00, 0x00, 0x00, 0x00, 0x00, 0x00, 0x00, 0x80, 0xaa, 0x55,
   0x55, 0x53, 0x8a, 0x54, 0xa5, 0x4a, 0x44, 0x02, 0x90, 0xca, 0x6e, 0x45,
   0xb6, 0xed, 0xaa, 0xaa, 0xa4, 0x56, 0x4a, 0x45, 0x04, 0x15, 0x04, 0x00,
   0x00, 0x00, 0x00, 0x00, 0x00, 0x00, 0x80, 0xaa, 0xaa, 0x4a, 0x55, 0xa9,
   0x92, 0x1a, 0x20, 0x00, 0x20, 0x55, 0x64, 0x55, 0x21, 0xdd, 0x56, 0x55,
   0xab, 0x5a, 0xad, 0x90, 0xaa, 0x52, 0x40, 0x12, 0x00, 0x00, 0x00, 0x00,
   0x00, 0x00, 0x00, 0x00, 0x56, 0xab, 0xaa, 0x96, 0x2a, 0x52, 0x6a, 0x05,
   0x11, 0x04, 0x10, 0xe9, 0xab, 0x06, 0xb4, 0xad, 0xad, 0x5a, 0x53, 0x55,
   0x45, 0x01, 0x80, 0x4a, 0xa0, 0x00, 0x00, 0x00, 0x00, 0x00, 0x00, 0x00,
   0x00, 0xa8, 0x5a, 0x55, 0x2d, 0x51, 0x45, 0x95, 0x20, 0x40, 0x20, 0xa5,
   0xa0, 0x4a, 0x29, 0x60, 0x6b, 0xd5, 0xb6, 0xaa, 0x95, 0x15, 0x54, 0x95,
   0x24, 0x01, 0x00, 0x00, 0x00, 0x00, 0x00, 0x00, 0x00, 0x00, 0x48, 0xb5,
   0x2a, 0x5d, 0x46, 0x14, 0x29, 0x05, 0x02, 0x01, 0x0a, 0xea, 0x56, 0x49,
   0xc0, 0x9a, 0x55, 0x6d, 0x6d, 0x25, 0x25, 0x11, 0xa0, 0x4a, 0x4a, 0x01,
   0x00, 0x00, 0x00, 0x00, 0x00, 0x00, 0x00, 0xa8, 0x6a, 0x55, 0xb5, 0x98,
   0x52, 0x45, 0x90, 0x00, 0x24, 0xa1, 0xb0, 0xaa, 0x40, 0x40, 0x6f, 0xaa,
   0xb5, 0x55, 0xa9, 0x94, 0xa4, 0x0a, 0x94, 0x20, 0x00, 0x00, 0x00, 0x00,
   0x00, 0x00, 0x00, 0x00, 0x5a, 0xd5, 0x4a, 0x6d, 0xa3, 0x24, 0x09, 0x00,
   0x24, 0x00, 0x0a, 0xe5, 0x4a, 0x05, 0x80, 0xfa, 0x37, 0x55, 0x55, 0xa5,
   0x92, 0x04, 0xa2, 0x40, 0x05, 0x02, 0x00, 0x00, 0x00, 0x00, 0x00, 0x00,
   0x00, 0xa4, 0x5a, 0x55, 0xaa, 0x95, 0x92, 0x22, 0x01, 0x80, 0x48, 0x20,
   0xb0, 0x35, 0x88, 0x80, 0xa7, 0xee, 0x56, 0x15, 0x0a, 0x25, 0x50, 0x14,
   0x0a, 0x29, 0x00, 0x00, 0x00, 0x00, 0x00, 0x00, 0x00, 0x00, 0xac, 0x72,
   0xab, 0xae, 0xaa, 0x94, 0x04, 0x92, 0x00, 0xa0, 0x84, 0x52, 0x65, 0x85,
   0x04, 0xbd, 0x95, 0x54, 0x51, 0x55, 0x49, 0x45, 0xa1, 0x28, 0x45, 0x12,
   0x00, 0x00, 0x00, 0x00, 0x00, 0x00, 0x40, 0x5b, 0x55, 0x55, 0x55, 0x4b,
   0x29, 0x11, 0x00, 0x84, 0x04, 0x10, 0xb8, 0x52, 0x02, 0x00, 0xea, 0x56,
   0x8b, 0xaa, 0x08, 0x2a, 0x52, 0x56, 0x42, 0x28, 0x00, 0x00, 0x00, 0x00,
   0x00, 0x00, 0x00, 0x40, 0xaa, 0xaa, 0xad, 0xad, 0x9a, 0x42, 0x22, 0x09,
   0x10, 0x28, 0x21, 0xe9, 0x56, 0x41, 0x10, 0xaa, 0x75, 0x22, 0x40, 0xd5,
   0xaa, 0x94, 0x54, 0x15, 0x49, 0x29, 0x00, 0x00, 0x00, 0x00, 0x00, 0x00,
   0x90, 0xaa, 0xaa, 0xaa, 0x56, 0x2d, 0x55, 0x09, 0x20, 0x80, 0x00, 0x00,
   0x98, 0x91, 0x40, 0x00, 0x58, 0x57, 0x5d, 0x97, 0x12, 0x52, 0x55, 0xab,
   0x2a, 0x10, 0x00, 0x00, 0x00, 0x00, 0x00, 0x00, 0x00, 0x50, 0x6a, 0xa5,
   0x5a, 0x55, 0x75, 0x29, 0xa2, 0x84, 0x04, 0x26, 0x22, 0xb1, 0xb6, 0xc4,
   0x02, 0xb0, 0xd6, 0xa2, 0x54, 0xa5, 0x4a, 0x52, 0xaa, 0xaa, 0x52, 0x25,
   0x00, 0x00, 0x00, 0x00, 0x00, 0x00, 0xa0, 0xaa, 0x2a, 0xa5, 0x56, 0xd5,
   0x4a, 0x09, 0x22, 0x90, 0x00, 0x00, 0xdc, 0x29, 0x00, 0x08, 0xa0, 0x5a,
   0x5f, 0x55, 0x5a, 0x55, 0x55, 0xb5, 0x55, 0x40, 0x00, 0x00, 0x00, 0x00,
   0x00, 0x00, 0x00, 0x48, 0xa9, 0x2a, 0x5a, 0x55, 0x95, 0x52, 0x52, 0x04,
   0x02, 0x41, 0x44, 0x34, 0x2b, 0x24, 0x21, 0xc0, 0xd5, 0xa8, 0xaa, 0x52,
   0xa9, 0x5a, 0x55, 0x55, 0x89, 0x12, 0x00, 0x00, 0x00, 0x00, 0x00, 0x00,
   0x28, 0x55, 0x55, 0xa5, 0x4b, 0x55, 0x8b, 0x88, 0x50, 0xa8, 0x08, 0x00,
   0xd5, 0x4c, 0x41, 0x88, 0x80, 0xb6, 0x56, 0xad, 0xaa, 0x56, 0x55, 0xbb,
   0xab, 0x42, 0x40, 0x00, 0x00, 0x00, 0x00, 0x00, 0x00, 0xa0, 0xaa, 0x92,
   0x58, 0x55, 0xa9, 0xaa, 0x12, 0x05, 0x21, 0x80, 0x08, 0xb4, 0x05, 0x08,
   0x01, 0x00, 0x56, 0x55, 0x55, 0xa5, 0xaa, 0x55, 0x55, 0xb6, 0x88, 0x0a,
   0x00, 0x00, 0x00, 0x00, 0x00, 0x00, 0x54, 0x55, 0x2d, 0x67, 0x4b, 0x55,
   0x2d, 0x49, 0xa8, 0x14, 0x02, 0x40, 0x56, 0x53, 0x51, 0x10, 0x01, 0xac,
   0x55, 0x55, 0x55, 0x55, 0xed, 0xaa, 0xad, 0x22, 0x41, 0x00, 0x00, 0x00,
   0x00, 0x00, 0x00, 0xa4, 0xaa, 0xd2, 0xee, 0x52, 0x55, 0x29, 0x49, 0x89,
   0x44, 0x10, 0x02, 0xdc, 0x28, 0x44, 0x02, 0x00, 0xb0, 0x76, 0x55, 0xad,
   0xad, 0x4a, 0x2b, 0xb4, 0x25, 0x0a, 0x00, 0x00, 0x00, 0x00, 0x00, 0x00,
   0x28, 0x55, 0xad, 0xb4, 0x4a, 0x4a, 0x6a, 0x95, 0x2a, 0x01, 0x40, 0x00,
   0x5b, 0xd2, 0x12, 0x10, 0x00, 0x60, 0x55, 0xbf, 0x55, 0x55, 0xa9, 0x4a,
   0xd1, 0x80, 0x20, 0x00, 0x00, 0x00, 0x00, 0x00, 0x00, 0x52, 0xa5, 0x92,
   0xa9, 0x55, 0xa9, 0x4a, 0xa9, 0x62, 0x89, 0x02, 0x24, 0x36, 0x45, 0x44,
   0x42, 0x02, 0x80, 0xaa, 0x62, 0x55, 0x29, 0xa5, 0x2a, 0x90, 0x16, 0x05,
   0x00, 0x00, 0x00, 0x00, 0x00, 0x00, 0xa8, 0xaa, 0xaa, 0x72, 0xa9, 0x4a,
   0xaa, 0x56, 0x0d, 0x00, 0x00, 0x00, 0x8d, 0x2a, 0x0b, 0x00, 0x00, 0x00,
   0x55, 0x55, 0x55, 0x05, 0xa8, 0x8a, 0xe4, 0xa2, 0x52, 0x00, 0x00, 0x00,
   0x00, 0x00, 0x00, 0xa8, 0xaa, 0x8a, 0x64, 0x23, 0xa9, 0x92, 0x48, 0x08,
   0x11, 0x90, 0x00, 0x55, 0x94, 0xaa, 0x14, 0x08, 0x00, 0x60, 0x95, 0x0a,
   0x00, 0xa8, 0x9a, 0x80, 0x04, 0x05, 0x00, 0x00, 0x00, 0x00, 0x00, 0x00,
   0xa4, 0x52, 0xaa, 0xd2, 0x4c, 0x45, 0x4a, 0x12, 0x21, 0x40, 0x04, 0x24,
   0x49, 0x25, 0x0a, 0x40, 0x00, 0x00, 0x00, 0x2a, 0x00, 0x00, 0x48, 0x25,
   0x54, 0x4b, 0x21, 0x00, 0x00, 0x00, 0x00, 0x00, 0x00, 0x94, 0xaa, 0xaa,
   0xa4, 0x51, 0xaa, 0x50, 0x22, 0x00, 0x02, 0x00, 0x80, 0x4a, 0xaa, 0x58,
   0x02, 0x02, 0x00, 0x00, 0x00, 0x00, 0x00, 0xa8, 0x8a, 0x40, 0x12, 0x07,
   0x00, 0x00, 0x00, 0x00, 0x00, 0x00, 0xa8, 0xaa, 0x4a, 0xa9, 0xaa, 0x24,
   0x8b, 0x88, 0x44, 0x80, 0x90, 0x88, 0xaa, 0x2a, 0x21, 0x48, 0x04, 0x00,
   0x00, 0x00, 0x00, 0x00, 0xa0, 0x55, 0xa4, 0x45, 0x52, 0x00, 0x00, 0x00,
   0x00, 0x00, 0x00, 0x54, 0x55, 0x2a, 0xa1, 0x4a, 0x49, 0x90, 0x12, 0x08,
   0x08, 0x00, 0x80, 0xa2, 0xaa, 0x54, 0x01, 0x00, 0x00, 0x00, 0x00, 0x00,
   0x00, 0xa0, 0x8a, 0x00, 0x49, 0x05, 0x00, 0x00, 0x00, 0x00, 0x00, 0x00,
   0xa8, 0xaa, 0x8a, 0x4a, 0x55, 0x95, 0x4a, 0x48, 0x81, 0x00, 0x02, 0x91,
   0x2a, 0x15, 0x21, 0xa4, 0x00, 0x00, 0x00, 0x00, 0x00, 0x00, 0xa8, 0x12,
   0xc4, 0x82, 0x12, 0x00, 0x00, 0x00, 0x00, 0x00, 0x00, 0xa9, 0xaa, 0xaa,
   0x20, 0x49, 0x24, 0x09, 0x01, 0x08, 0x21, 0x10, 0x80, 0x54, 0x6d, 0x65,
   0x81, 0x04, 0x00, 0x00, 0x00, 0x00, 0x00, 0x50, 0xa5, 0x10, 0x15, 0x05,
   0x00, 0x00, 0x00, 0x00, 0x00, 0x00, 0x54, 0x55, 0x15, 0x45, 0x55, 0x49,
   0x52, 0x2a, 0x01, 0x08, 0x00, 0x48, 0xd5, 0x2a, 0x80, 0x04, 0x02, 0x00,
   0x00, 0x00, 0x00, 0x00, 0xa8, 0x0a, 0xa2, 0x42, 0x2a, 0x00, 0x00, 0x00,
   0x00, 0xa8, 0x92, 0x48, 0x55, 0x2a, 0x15, 0x92, 0x4a, 0x82, 0x00, 0x24,
   0x00, 0x82, 0xc0, 0xaa, 0xaa, 0x4a, 0x51, 0x00, 0x00, 0x00, 0x00, 0x00,
   0x00, 0xa8, 0x22, 0x44, 0x09, 0x0a, 0x00, 0x00, 0x00, 0x40, 0x55, 0x05,
   0x56, 0x55, 0x55, 0xc0, 0x24, 0x29, 0x29, 0xaa, 0x80, 0x20, 0x10, 0xa8,
   0xaa, 0xaa, 0x84, 0x84, 0x12, 0x00, 0x00, 0x00, 0x00, 0x00, 0x54, 0x8a,
   0xa8, 0x22, 0x45, 0x00, 0x00, 0x00, 0x08, 0x55, 0xbd, 0x54, 0x55, 0x95,
   0x0a, 0x55, 0x22, 0x89, 0x00, 0x08, 0x42, 0x00, 0xa0, 0x5a, 0x55, 0x29,
   0x01, 0x00, 0x00, 0x00, 0x00, 0x00, 0x00, 0x54, 0x11, 0x88, 0x04, 0x0c,
   0x00, 0x00, 0x00, 0x70, 0x55, 0xa5, 0x2a, 0x55, 0x52, 0xa0, 0xa4, 0x44,
   0x24, 0x4a, 0x21, 0x00, 0x40, 0x52, 0xb7, 0xaa, 0x82, 0x54, 0x20, 0x00,
   0x00, 0x00, 0x00, 0x00, 0x48, 0x42, 0x52, 0x01, 0x14, 0x00, 0x00, 0x00,
   0x4a, 0x55, 0xa9, 0xaa, 0xaa, 0x8a, 0x0a, 0x15, 0x15, 0xa1, 0x08, 0x04,
   0x84, 0x04, 0xd0, 0xaa, 0x4a, 0x2a, 0x81, 0x20, 0x00, 0x00, 0x00, 0x00,
   0x00, 0xaa, 0x08, 0x40, 0x95, 0x28, 0x00, 0x00, 0x80, 0x5a, 0x55, 0xab,
   0xaa, 0xaa, 0x54, 0x84, 0xa4, 0xa4, 0x04, 0x22, 0x21, 0x00, 0x00, 0xb4,
   0xad, 0xaa, 0x44, 0x29, 0x40, 0x00, 0x00, 0x00, 0x00, 0x80, 0x12, 0x91,
   0xaa, 0x04, 0x15, 0x00, 0x00, 0x20, 0x55, 0x55, 0xaa, 0x2a, 0x55, 0x89,
   0x14, 0x29, 0x89, 0x54, 0x24, 0x84, 0x10, 0x40, 0x68, 0xb5, 0x4a, 0x09,
   0xa2, 0x44, 0x00, 0x00, 0x00, 0x00, 0x00, 0x34, 0x05, 0x02, 0x29, 0x30,
   0x00, 0x00, 0xc0, 0xaa, 0x55, 0x55, 0x55, 0x55, 0x55, 0x10, 0xa5, 0x24,
   0x41, 0x81, 0x20, 0x84, 0x04, 0xb8, 0x4b, 0x95, 0x52, 0x49, 0x10, 0x00,
   0x00, 0x00, 0x00, 0x80, 0x45, 0x28, 0x54, 0x41, 0x45, 0x00, 0x00, 0x94,
   0xaa, 0xaa, 0xaa, 0xaa, 0x54, 0x85, 0x12, 0x29, 0x49, 0x0a, 0x14, 0x04,
   0x00, 0x00, 0xd1, 0xba, 0xaa, 0x12, 0x09, 0x20, 0x01, 0x00, 0x00, 0x00,
   0x00, 0x99, 0x42, 0x50, 0x1b, 0x08, 0x00, 0x00, 0xa8, 0x5a, 0x55, 0x55,
   0x95, 0x2a, 0x29, 0x10, 0x45, 0x92, 0x54, 0x41, 0x20, 0x10, 0x48, 0x6c,
   0xa7, 0x4a, 0xa5, 0x24, 0x00, 0x00, 0x00, 0x00, 0x00, 0x00, 0x0a, 0x08,
   0x05, 0xa4, 0x22, 0x00, 0x00, 0x50, 0x55, 0xb5, 0xaa, 0xaa, 0x52, 0xa5,
   0x22, 0x49, 0x92, 0x00, 0x08, 0x05, 0x81, 0x00, 0x58, 0xad, 0x2a, 0x85,
   0x24, 0x50, 0x02, 0x00, 0x00, 0x00, 0x80, 0xaa, 0x12, 0x44, 0xa9, 0x24,
   0x00, 0x00, 0x55, 0xaa, 0xaa, 0xaa, 0xaa, 0x2a, 0x12, 0x08, 0x95, 0x48,
   0xaa, 0x22, 0x20, 0x00, 0x20, 0x75, 0x55, 0x55, 0x12, 0x09, 0x09, 0x00,
   0x00, 0x00, 0x00, 0x00, 0x05, 0x89, 0x80, 0x44, 0x09, 0x00, 0x00, 0xa4,
   0xaa, 0xaa, 0xaa, 0x4a, 0xd5, 0x44, 0x31, 0x91, 0x42, 0x12, 0x84, 0x04,
   0x12, 0x02, 0xaa, 0x55, 0xab, 0x22, 0x0a, 0x20, 0x04, 0x00, 0x00, 0x00,
   0x40, 0x2a, 0x11, 0x94, 0x14, 0x29, 0x00, 0x00, 0x55, 0x55, 0xd5, 0xaa,
   0xaa, 0x2a, 0x15, 0x04, 0x55, 0x14, 0x44, 0x29, 0x20, 0x80, 0x20, 0xda,
   0xb6, 0xaa, 0x44, 0x22, 0x24, 0x00, 0x00, 0x00, 0x00, 0x80, 0x82, 0x04,
   0x41, 0xa2, 0x22, 0x00, 0x00, 0xaa, 0x54, 0xad, 0xaa, 0xaa, 0x6a, 0xa2,
   0x28, 0x44, 0xa1, 0x28, 0x81, 0x44, 0x00, 0x40, 0x5a, 0xad, 0xaa, 0x4a,
   0x04, 0x84, 0x08, 0x00, 0x00, 0x00, 0x20, 0x15, 0x29, 0x08, 0x08, 0x0a };
