#define cat_1_9_width 144
#define cat_1_9_height 128
static unsigned char cat_1_9_bits[] = {
   0x00, 0x52, 0x35, 0x20, 0x51, 0x02, 0x00, 0x00, 0x00, 0x00, 0x00, 0x00,
   0x00, 0x00, 0x00, 0x00, 0x00, 0x00, 0x00, 0x6a, 0x45, 0x15, 0x56, 0x04,
   0x00, 0x00, 0x00, 0x00, 0x00, 0x00, 0x00, 0x00, 0x00, 0x00, 0x00, 0x00,
   0x00, 0xaa, 0x4a, 0xa0, 0xa4, 0x09, 0x00, 0x00, 0x00, 0x00, 0x00, 0x00,
   0x00, 0x00, 0x00, 0x00, 0x00, 0x00, 0x00, 0xa8, 0x22, 0x05, 0x48, 0x12,
   0x00, 0x00, 0x00, 0x00, 0x00, 0x00, 0x00, 0x00, 0x00, 0x00, 0x00, 0x00,
   0x00, 0x56, 0x0a, 0xa8, 0x42, 0x25, 0x00, 0x00, 0x00, 0x00, 0x00, 0x00,
   0x00, 0x00, 0x00, 0x00, 0x00, 0x00, 0x00, 0xb2, 0xa4, 0x00, 0x28, 0x45,
   0x00, 0x00, 0x00, 0x00, 0x00, 0x00, 0x00, 0x00, 0x00, 0x00, 0x00, 0x00,
   0x00, 0x24, 0x29, 0x52, 0x41, 0x9d, 0x00, 0x00, 0x00, 0x00, 0x00, 0x00,
   0x00, 0x00, 0x00, 0x00, 0x00, 0x00, 0x00, 0x58, 0x84, 0x00, 0x04, 0x20,
   0x00, 0x00, 0x00, 0x00, 0x00, 0x00, 0x00, 0x00, 0x00, 0x00, 0x00, 0x00,
   0x00, 0x50, 0x11, 0x92, 0x28, 0x55, 0x0a, 0x00, 0x00, 0x00, 0x00, 0x00,
   0x00, 0x00, 0x00, 0x00, 0x00, 0x00, 0x00, 0x14, 0x44, 0x01, 0x82, 0xaa,
   0x54, 0x00, 0x00, 0x00, 0x00, 0x00, 0x00, 0x00, 0x00, 0x00, 0x00, 0x20,
   0x00, 0xb0, 0x08, 0x44, 0x20, 0x90, 0x10, 0xed, 0x00, 0x00, 0x00, 0x00,
   0x00, 0x00, 0x00, 0x00, 0x00, 0x00, 0x00, 0x20, 0x21, 0x11, 0x8a, 0xaa,
   0x4a, 0x94, 0xba, 0x00, 0x00, 0x00, 0x00, 0x00, 0x00, 0x00, 0x00, 0x40,
   0x00, 0x48, 0x44, 0x00, 0x20, 0x69, 0x21, 0x28, 0xaf, 0x06, 0x00, 0x00,
   0x00, 0x00, 0x00, 0x00, 0x80, 0x49, 0x00, 0xa8, 0x12, 0x25, 0x95, 0x54,
   0xa5, 0x8a, 0x5a, 0x0a, 0x00, 0x00, 0x00, 0x00, 0x00, 0x00, 0x20, 0x24,
   0x00, 0x40, 0x22, 0x00, 0xa0, 0x40, 0x45, 0x2a, 0xb5, 0x08, 0x00, 0x00,
   0x00, 0x00, 0x00, 0x00, 0x08, 0x54, 0x00, 0x20, 0x45, 0x55, 0x15, 0x95,
   0x82, 0x55, 0x2d, 0x05, 0x00, 0x00, 0x00, 0x00, 0x00, 0x00, 0x42, 0x21,
   0x00, 0xa0, 0x18, 0x04, 0x40, 0xb0, 0x16, 0x05, 0x2e, 0x66, 0x01, 0x54,
   0x01, 0x00, 0x00, 0x00, 0x20, 0x45, 0x00, 0x90, 0x62, 0x51, 0x09, 0x4b,
   0x49, 0x22, 0x99, 0x9a, 0x76, 0x45, 0x03, 0x00, 0x00, 0x40, 0x96, 0x10,
   0x00, 0x90, 0x44, 0x02, 0x20, 0xb2, 0x95, 0x04, 0x39, 0xa9, 0x44, 0x95,
   0x72, 0x03, 0x00, 0x80, 0x04, 0x25, 0x00, 0x40, 0x92, 0x88, 0x4a, 0x54,
   0x52, 0x50, 0x5a, 0xd6, 0xcd, 0x45, 0x2f, 0xc2, 0x02, 0x42, 0x52, 0x80,
   0x00, 0x80, 0x10, 0x21, 0x49, 0x81, 0x02, 0x45, 0x1e, 0x74, 0x1b, 0x95,
   0x5a, 0x1a, 0x88, 0x50, 0x84, 0x94, 0x00, 0x20, 0x45, 0x54, 0x15, 0x14,
   0x54, 0x98, 0x9d, 0xac, 0x56, 0x48, 0x17, 0x45, 0x29, 0x8a, 0x10, 0x42,
   0x00, 0x70, 0x85, 0x40, 0x13, 0xa0, 0x00, 0x11, 0x9f, 0xac, 0x94, 0xc9,
   0x2a, 0x0a, 0x08, 0x28, 0x42, 0x08, 0x00, 0xa0, 0x29, 0x0d, 0x48, 0x08,
   0x55, 0xc4, 0x1d, 0x1e, 0xf3, 0x70, 0x49, 0x25, 0x41, 0x85, 0x88, 0x44,
   0x00, 0x50, 0x51, 0x29, 0x01, 0x41, 0x04, 0x88, 0x5f, 0xf8, 0x52, 0x61,
   0x08, 0x24, 0x40, 0x11, 0x10, 0x08, 0x00, 0x30, 0x54, 0x05, 0x24, 0x14,
   0xa9, 0xa2, 0x9b, 0xd4, 0x6b, 0x74, 0x41, 0x29, 0x54, 0x4a, 0x49, 0xa1,
   0x00, 0xe0, 0x50, 0x35, 0x80, 0x50, 0x52, 0x24, 0xbf, 0xb4, 0xee, 0xf0,
   0x0a, 0x4a, 0xc8, 0x00, 0x01, 0x04, 0x00, 0x10, 0xaa, 0x42, 0x54, 0x02,
   0x89, 0x80, 0x17, 0xf2, 0x5d, 0xba, 0x80, 0x00, 0x55, 0x55, 0x94, 0x20,
   0x00, 0x70, 0x60, 0x05, 0x00, 0x28, 0x10, 0x52, 0x45, 0xb0, 0xb7, 0xfa,
   0x15, 0x2a, 0x54, 0x10, 0x01, 0x20, 0x00, 0x50, 0x94, 0x8a, 0x54, 0x45,
   0x45, 0x49, 0x25, 0x75, 0x17, 0xfa, 0x94, 0x40, 0x8a, 0xa2, 0x54, 0x8a,
   0x00, 0x50, 0x40, 0x01, 0x00, 0x01, 0x48, 0x80, 0x0a, 0x68, 0x56, 0xee,
   0x21, 0x95, 0x3a, 0x84, 0x88, 0x80, 0x00, 0x30, 0x95, 0x92, 0x10, 0x04,
   0x82, 0xaa, 0x4b, 0xdb, 0x21, 0xbd, 0x0b, 0x40, 0x45, 0x10, 0x51, 0x15,
   0x00, 0x60, 0x24, 0x01, 0x22, 0x48, 0x10, 0x00, 0x47, 0xb3, 0x45, 0x7e,
   0x53, 0x15, 0x9a, 0x22, 0x04, 0xa4, 0x00, 0xa0, 0xa8, 0x22, 0x80, 0x00,
   0x82, 0xc8, 0x15, 0x5e, 0x81, 0xb6, 0x0a, 0xa0, 0x54, 0x84, 0x52, 0x89,
   0x00, 0x80, 0x51, 0x84, 0x04, 0x40, 0x10, 0x81, 0x0d, 0xb6, 0x17, 0x76,
   0x50, 0x85, 0x40, 0x29, 0x00, 0x28, 0x00, 0x40, 0x20, 0x01, 0x00, 0x01,
   0x02, 0x88, 0x9c, 0x6e, 0x83, 0x0f, 0x25, 0x28, 0x02, 0xd4, 0x4a, 0x51,
   0x00, 0x80, 0x41, 0xa4, 0x08, 0x48, 0x24, 0x11, 0x18, 0xdd, 0x07, 0x5d,
   0xa0, 0x42, 0x0a, 0x91, 0x88, 0xa2, 0x00, 0x00, 0x52, 0x00, 0x00, 0x00,
   0x00, 0x80, 0x18, 0xcb, 0x92, 0x07, 0x11, 0x15, 0x21, 0x24, 0x21, 0x4d,
   0x00, 0x00, 0x03, 0x00, 0x10, 0x91, 0x48, 0x05, 0x38, 0x9b, 0xd2, 0x2a,
   0x22, 0x54, 0x8a, 0x6c, 0x4d, 0x59, 0x00, 0x00, 0x29, 0x12, 0x01, 0x24,
   0x02, 0x10, 0x34, 0xe5, 0x70, 0x09, 0x48, 0xa1, 0x14, 0x80, 0x22, 0xa5,
   0x00, 0x00, 0x01, 0x00, 0x00, 0x48, 0x40, 0x02, 0x30, 0xcb, 0x69, 0x21,
   0x11, 0x95, 0x52, 0x35, 0x25, 0x4a, 0x00, 0x80, 0x20, 0x04, 0x04, 0xa0,
   0x04, 0x00, 0x28, 0x55, 0x3c, 0x08, 0x44, 0x44, 0x14, 0x40, 0xaa, 0x52,
   0x00, 0x40, 0x42, 0x20, 0x00, 0x81, 0x20, 0x29, 0x30, 0x5b, 0x38, 0x50,
   0x08, 0x11, 0x41, 0x85, 0xd0, 0x52, 0x00, 0x00, 0x00, 0x00, 0x10, 0x88,
   0x82, 0x04, 0x9c, 0x2d, 0x8f, 0x00, 0xa5, 0xa4, 0x94, 0x00, 0x55, 0xeb,
   0x00, 0x28, 0x10, 0x41, 0x00, 0x00, 0x00, 0x01, 0xb8, 0x35, 0x0a, 0x34,
   0x00, 0x84, 0x28, 0x29, 0x55, 0xd5, 0x00, 0x08, 0x04, 0x08, 0x00, 0x90,
   0x42, 0x02, 0x58, 0x57, 0x07, 0x89, 0xa4, 0x10, 0x42, 0x02, 0xda, 0xaa,
   0x00, 0x02, 0x20, 0x00, 0x00, 0x01, 0x00, 0x0a, 0xf8, 0x5b, 0x16, 0x48,
   0x08, 0x85, 0x48, 0x28, 0x54, 0x2b, 0x00, 0x22, 0x09, 0x00, 0x11, 0x08,
   0x49, 0x00, 0xb9, 0x6f, 0x03, 0x22, 0x20, 0x28, 0x22, 0x85, 0xac, 0x4a,
   0x00, 0x01, 0x40, 0x10, 0x00, 0x00, 0x80, 0x02, 0x70, 0xed, 0x07, 0x08,
   0xa5, 0x02, 0x44, 0x90, 0xa8, 0x8a, 0x80, 0x44, 0x02, 0x02, 0x91, 0x12,
   0x00, 0x04, 0x5a, 0xb5, 0x11, 0xa2, 0x50, 0x25, 0x12, 0x05, 0xaa, 0x50,
   0x40, 0x80, 0x14, 0x10, 0xe8, 0xb7, 0xa0, 0x10, 0xa8, 0xea, 0x03, 0x0a,
   0x50, 0x45, 0xa0, 0x28, 0x48, 0xa5, 0x40, 0x04, 0x45, 0x2f, 0xf5, 0xff,
   0x02, 0x02, 0x55, 0xd5, 0x22, 0x20, 0xa4, 0x08, 0x09, 0x41, 0x2a, 0xa5,
   0xa0, 0x20, 0x89, 0x7e, 0xbc, 0xf9, 0x47, 0x10, 0x90, 0xc4, 0x02, 0x8a,
   0x10, 0x12, 0x20, 0x4a, 0x48, 0xe1, 0x20, 0xc4, 0xa2, 0x2f, 0x79, 0xdd,
   0x0f, 0x44, 0xa2, 0xaa, 0x88, 0x10, 0xa4, 0x00, 0x81, 0x10, 0x95, 0x98,
   0x20, 0x08, 0xe5, 0x5e, 0x68, 0xfb, 0x3f, 0x00, 0x04, 0x91, 0x01, 0x04,
   0x04, 0x12, 0x12, 0x42, 0x20, 0x79, 0x90, 0xd0, 0xa8, 0x0b, 0x99, 0x3c,
   0x5e, 0x50, 0x51, 0x4a, 0xa4, 0x92, 0x50, 0x00, 0x40, 0x09, 0x15, 0x2c,
   0x10, 0x12, 0xf5, 0x2b, 0x30, 0x72, 0x7a, 0x00, 0x82, 0xc8, 0x00, 0x00,
   0x00, 0x45, 0x04, 0x21, 0x28, 0x0a, 0x90, 0x40, 0xbd, 0x02, 0x4c, 0xfd,
   0x7b, 0xa0, 0x28, 0xaa, 0x4a, 0x09, 0x11, 0x00, 0x11, 0x84, 0x84, 0x02,
   0x10, 0x49, 0xff, 0x02, 0x18, 0xd9, 0xe3, 0x01, 0x81, 0x80, 0x00, 0x20,
   0x64, 0x12, 0xa0, 0x10, 0x18, 0x01, 0x08, 0x80, 0x5b, 0x41, 0x18, 0xfa,
   0xd5, 0x00, 0x28, 0xaa, 0x0a, 0xd0, 0xff, 0x02, 0x08, 0x42, 0x40, 0x01,
   0x28, 0x52, 0xf7, 0x02, 0x30, 0xb5, 0xa3, 0x41, 0x81, 0x40, 0x01, 0xe9,
   0xff, 0xaf, 0x20, 0x88, 0x12, 0x02, 0x88, 0xe8, 0x2b, 0x00, 0x18, 0xfa,
   0xc4, 0x01, 0x10, 0x2a, 0x05, 0xfe, 0xed, 0x0f, 0x82, 0x00, 0xa0, 0x01,
   0x10, 0xb1, 0xee, 0x90, 0x70, 0xf4, 0x95, 0x03, 0x41, 0x80, 0x10, 0xba,
   0xdf, 0x7e, 0x08, 0x52, 0x82, 0x03, 0x48, 0x5e, 0x24, 0x02, 0x20, 0x35,
   0xa4, 0x01, 0x00, 0x22, 0x82, 0xcf, 0x7c, 0x5f, 0xa0, 0x00, 0x49, 0x00,
   0x88, 0xb8, 0x84, 0x20, 0x61, 0xe8, 0xa4, 0x03, 0x08, 0x44, 0x00, 0x8b,
   0xa8, 0x7a, 0x05, 0x44, 0x80, 0x03, 0x24, 0x97, 0x92, 0x94, 0xc2, 0x10,
   0xe8, 0x00, 0x81, 0x00, 0xe0, 0xd0, 0x5f, 0x3a, 0x40, 0x10, 0x13, 0x02,
   0x48, 0x17, 0x04, 0x11, 0x8a, 0x83, 0xd2, 0x03, 0x00, 0x10, 0xc0, 0x83,
   0x5f, 0xf2, 0x92, 0x42, 0x02, 0x02, 0xe4, 0x49, 0x91, 0xa8, 0x08, 0x3f,
   0xfe, 0x01, 0x00, 0x00, 0x60, 0xa8, 0x9b, 0x28, 0xe8, 0x15, 0x49, 0x02,
   0xa8, 0x0b, 0x14, 0x00, 0x13, 0xf0, 0xb5, 0x03, 0x08, 0x22, 0xe0, 0x45,
   0x3f, 0x2a, 0xba, 0x23, 0x02, 0x04, 0xe5, 0x22, 0x85, 0x94, 0x44, 0x00,
   0xd0, 0x80, 0x40, 0x08, 0xf0, 0xa8, 0x47, 0x09, 0xf4, 0x85, 0x54, 0x0a,
   0x4a, 0x05, 0x3c, 0x10, 0x14, 0x81, 0xe0, 0x02, 0x00, 0x00, 0xd0, 0x83,
   0x2e, 0x38, 0xe4, 0xab, 0x0a, 0x0a, 0x74, 0x25, 0x55, 0x20, 0x49, 0x04,
   0x00, 0x01, 0x48, 0x12, 0xf8, 0x54, 0x97, 0x06, 0xd0, 0x47, 0x52, 0x08,
   0xc0, 0x85, 0xea, 0x22, 0x82, 0x00, 0x10, 0x89, 0x00, 0x20, 0xf0, 0x05,
   0x16, 0x8c, 0xc0, 0x9e, 0x46, 0x09, 0x54, 0x29, 0xa5, 0x41, 0x58, 0x05,
   0x40, 0x00, 0x80, 0x04, 0xdd, 0xab, 0x04, 0x07, 0xd0, 0xa7, 0x0a, 0x04,
   0xa8, 0x22, 0x45, 0x47, 0x0b, 0x5a, 0x90, 0x00, 0x08, 0x24, 0xb8, 0x8e,
   0xa0, 0x02, 0x41, 0xaf, 0xb4, 0x08, 0x52, 0x80, 0x2a, 0xad, 0xb0, 0x04,
   0x21, 0x22, 0x00, 0x10, 0x25, 0x3a, 0xea, 0x01, 0xc0, 0x9f, 0x12, 0x05,
   0xd7, 0x12, 0x05, 0x28, 0x84, 0x50, 0x24, 0x00, 0x41, 0x12, 0x64, 0xc0,
   0x3f, 0x10, 0x94, 0xfa, 0x2a, 0x14, 0x52, 0x41, 0x25, 0x94, 0x2a, 0x05,
   0x01, 0x22, 0x08, 0x40, 0x05, 0x10, 0x00, 0x80, 0xc0, 0xdf, 0x95, 0x18,
   0x46, 0x05, 0x85, 0xa0, 0x4b, 0x20, 0x04, 0x00, 0x41, 0x0a, 0x14, 0x00,
   0x00, 0x10, 0x8a, 0xbe, 0x17, 0x13, 0x90, 0x91, 0x2a, 0xe9, 0x28, 0x09,
   0x00, 0x54, 0x14, 0x49, 0x25, 0x00, 0xa1, 0x26, 0x69, 0xfb, 0x55, 0x14,
   0x26, 0x25, 0x67, 0x25, 0x25, 0x01, 0x00, 0xd0, 0x22, 0x09, 0x48, 0x00,
   0x8a, 0x48, 0x22, 0xee, 0x57, 0x15, 0x44, 0x91, 0xfa, 0xff, 0x0e, 0x00,
   0x00, 0xbc, 0x5a, 0xa5, 0x14, 0x11, 0x24, 0x51, 0x4b, 0xb5, 0xaa, 0x12,
   0x0c, 0x57, 0x6f, 0xed, 0x37, 0x00, 0x00, 0xf0, 0xab, 0x0f, 0x50, 0xa2,
   0x24, 0x45, 0x08, 0x5a, 0xad, 0x16, 0xa3, 0xfa, 0xf8, 0xbb, 0x84, 0x08,
   0x00, 0x5e, 0xfd, 0x0a, 0x00, 0x88, 0x48, 0x28, 0xe1, 0x27, 0x17, 0x15,
   0x86, 0xd6, 0x03, 0xae, 0x16, 0x80, 0x00, 0x78, 0xd3, 0x57, 0x80, 0x52,
   0x93, 0x45, 0x89, 0x4c, 0x5a, 0x17, 0x93, 0xaa, 0xfe, 0x74, 0x09, 0x00,
   0x00, 0xf8, 0x6a, 0x17, 0x00, 0x48, 0x24, 0x11, 0xec, 0x1b, 0x7d, 0x0d,
   0x17, 0xaa, 0x92, 0x6a, 0x03, 0x00, 0x00, 0xc0, 0xed, 0x0f, 0x08, 0x92,
   0x2a, 0x95, 0xd8, 0x37, 0xd5, 0x1a, 0x4b, 0x15, 0x6c, 0x68, 0x00, 0x00,
   0x00, 0x60, 0xfb, 0x02, 0x00, 0x50, 0x49, 0x44, 0x77, 0x4a, 0xfa, 0x15,
   0x0f, 0x6a, 0xd9, 0xc2, 0x0b, 0x02, 0x00, 0xc0, 0xd5, 0x02, 0x00, 0x00,
   0x92, 0x48, 0xc6, 0x2e, 0xba, 0x17, 0x17, 0x28, 0x29, 0x29, 0x00, 0x10,
   0x01, 0x40, 0x37, 0x00, 0x20, 0x51, 0xad, 0xb2, 0x51, 0x4a, 0xea, 0x1a,
   0x2a, 0xa9, 0x52, 0x41, 0x01, 0x00, 0x08, 0xc0, 0x7e, 0x00, 0x02, 0x00,
   0xd0, 0x36, 0x85, 0x4a, 0xf4, 0x17, 0x0f, 0x54, 0x2d, 0xaa, 0x0a, 0x00,
   0x00, 0x80, 0x17, 0x00, 0x20, 0xa2, 0x5a, 0x89, 0x50, 0x26, 0xd0, 0x02,
   0x5f, 0x50, 0x49, 0xa0, 0x00, 0x00, 0x00, 0x00, 0x1f, 0x10, 0x00, 0x04,
   0xa5, 0x2b, 0x49, 0x49, 0xd5, 0x07, 0x1d, 0xd4, 0x52, 0x05, 0x00, 0x10,
   0x80, 0xa4, 0x05, 0x01, 0x00, 0x10, 0xd4, 0xae, 0x7a, 0x03, 0x7c, 0x05,
   0xbf, 0x90, 0x85, 0x4a, 0xa5, 0x82, 0x08, 0x10, 0x2b, 0x00, 0x22, 0x40,
   0xa8, 0xff, 0xef, 0x17, 0xd0, 0x07, 0x1b, 0x20, 0x94, 0x14, 0x14, 0x20,
   0x00, 0xe2, 0x07, 0x40, 0x08, 0x01, 0x6a, 0x6d, 0xbf, 0x45, 0x6d, 0x05,
   0xff, 0x84, 0x95, 0xa2, 0xa2, 0x02, 0x40, 0x88, 0xba, 0x02, 0x20, 0x00,
   0xa8, 0xea, 0x75, 0x1f, 0xd8, 0x03, 0x5b, 0x50, 0x55, 0x48, 0x04, 0x00,
   0x02, 0xb5, 0x07, 0x00, 0x00, 0x15, 0x75, 0x7d, 0xab, 0xa6, 0xb6, 0x02,
   0x5f, 0x01, 0xad, 0xa0, 0x10, 0x52, 0x10, 0xa4, 0x5c, 0x25, 0x00, 0x40,
   0xca, 0xef, 0xaf, 0xae, 0xd6, 0x03, 0xa7, 0x2a, 0x0a, 0x85, 0xae, 0x8a,
   0x44, 0xd9, 0x2b, 0x00, 0x04, 0x00, 0x74, 0x59, 0x6d, 0x7d, 0x2b, 0x01,
   0xeb, 0x02, 0x62, 0x15, 0xe8, 0x14, 0x08, 0xb2, 0x6b, 0x45, 0x20, 0x81,
   0x41, 0xa3, 0xad, 0xf5, 0x7f, 0x00, 0xd6, 0x25, 0xa8, 0x40, 0x2b, 0x4a,
   0xa1, 0x6f, 0x97, 0x00, 0x00, 0x0a, 0x56, 0x14, 0x5d, 0xda, 0xd6, 0x03,
   0x96, 0x0b, 0x00, 0x8d, 0x52, 0x22, 0x6d, 0xad, 0x3a, 0x89, 0x44, 0x24,
   0x90, 0x22, 0x50, 0xaa, 0x5d, 0x0f, 0x51, 0xa7, 0x4a, 0xf0, 0x8e, 0x5d,
   0xb5, 0x92, 0x6a, 0x21, 0x10, 0x9a, 0x04, 0x88, 0x00, 0xd0, 0x6a, 0x35,
   0x87, 0x16, 0x01, 0xa2, 0xac, 0xfa, 0x56, 0x12, 0xa4, 0x4b, 0x42, 0xb0,
   0x22, 0x01, 0xa5, 0x92, 0x4a, 0x61, 0xe9, 0x6c, 0x90, 0x98, 0x53, 0xad,
   0x2d, 0x41, 0x51, 0x15, 0x09, 0x41, 0x09, 0x14, 0x88, 0x6c, 0x75, 0x80,
   0x82, 0x7a, 0x02, 0x00, 0x78, 0x6b, 0x2b, 0x0a, 0x40, 0x2d, 0x61, 0x0b,
   0x81, 0x50, 0x91, 0x68, 0x2b, 0x00, 0x2a, 0xcf, 0x09, 0x51, 0xb6, 0xda,
   0x8a, 0xa0, 0x12, 0x55, 0x8a, 0xd6, 0x14, 0x09, 0x04, 0xda, 0x2a, 0x00,
   0x00, 0xad, 0x03, 0x00, 0x74, 0xab, 0x12, 0x04, 0x20, 0xe8, 0x54, 0x35,
   0x21, 0xb5, 0xa8, 0x54, 0x15, 0x00, 0xe2, 0xf2, 0x28, 0x82, 0xea, 0xd5,
   0xaa, 0x22, 0x89, 0x52, 0x5b, 0x5b, 0x44, 0x24, 0x01, 0xbd, 0x1a, 0x00,
   0x8a, 0xb5, 0x55, 0x08, 0xac, 0x5f, 0x55, 0x25, 0x21, 0x52, 0xbb, 0x56,
   0x09, 0x21, 0xaa, 0x65, 0x12, 0x00, 0x28, 0x4e, 0x1f, 0x41, 0xcb, 0xf6,
   0xaa, 0x96, 0x44, 0x40, 0xb5, 0x25, 0xb4, 0x04, 0x41, 0x9f, 0x0c, 0x00,
   0x46, 0x55, 0xff, 0x02, 0xa0, 0xbe, 0xb7, 0x55, 0xd5, 0x4a, 0x57, 0xad,
   0x24, 0x20, 0x6c, 0x36, 0x05, 0x00, 0x88, 0xaa, 0xe5, 0x29, 0xc2, 0xff,
   0x6e, 0xdb, 0xaa, 0x92, 0x54, 0x52, 0x89, 0x84, 0xda, 0x54, 0x05, 0x00,
   0x93, 0xab, 0xfa, 0x4d, 0x48, 0xf5, 0xff, 0x5b, 0x55, 0x55, 0x55, 0xad,
   0x2a, 0x95, 0xb2, 0x49, 0x01, 0x00, 0x42, 0x76, 0xd5, 0x5e, 0xa0, 0xde,
   0xdd, 0x6e, 0xdb, 0x56, 0x55, 0xaa, 0x52, 0xab, 0x2c, 0xa5, 0x07, 0x00,
   0xca, 0xd6, 0xaa, 0xfa, 0x05, 0xa9, 0xff, 0xff, 0xdb, 0xda, 0xab, 0xaa,
   0xee, 0xac, 0x41, 0x84, 0x08, 0x00, 0x10, 0xfb, 0x56, 0x6e, 0x5b, 0x92,
   0xda, 0xde, 0xfe, 0x77, 0x5d, 0xf5, 0x95, 0x02, 0x12, 0x31, 0x10, 0x00,
   0xaa, 0x7d, 0x1b, 0xba, 0xff, 0x56, 0xfb, 0xff, 0xb7, 0xee, 0x7f, 0xad,
   0x2a, 0x48, 0x00, 0xd4, 0x20, 0x00, 0x82, 0xb6, 0xa5, 0xa4, 0xf6, 0xfb,
   0x7d, 0xfb, 0xff, 0xf5, 0xad, 0xaa, 0x85, 0x00, 0x52, 0xb2, 0x40, 0x00,
   0x15, 0xde, 0xb7, 0x44, 0x6d, 0x17, 0xeb, 0x6f, 0xab, 0xad, 0xff, 0xba,
   0x1a, 0x45, 0x40, 0x94, 0x83, 0x00, 0x42, 0xed, 0x6f, 0xa9, 0xf5, 0x6b,
   0xaa, 0xbe, 0xdd, 0xb6, 0x8a, 0x6a, 0x25, 0x00, 0xa9, 0x1e, 0x05, 0x01,
   0x0b, 0xd8, 0x4e, 0x03, 0x96, 0x6f, 0x55, 0xb5, 0xb5, 0x6a, 0x2b, 0x48,
   0x45, 0x08, 0xa9, 0x19, 0x08, 0x02, 0x2b, 0xe5, 0xf7, 0x56, 0xd5, 0xde,
   0x95, 0xaa, 0x4a, 0x95, 0x8a, 0x20, 0x05, 0x01, 0xaa, 0x06, 0x10, 0x06,
   0x1d, 0xf4, 0xf5, 0x0a, 0x58, 0xbd, 0x57, 0x49, 0x55, 0xa5, 0x34, 0x45,
   0x10, 0xa8, 0x76, 0x37, 0x20, 0x00, 0xe6, 0x50, 0xdf, 0xb5, 0x50, 0xfb,
   0x5d, 0x25, 0x92, 0x08, 0xc9, 0x10, 0x05, 0x41, 0xdf, 0x6e, 0x40, 0x00,
   0x8c, 0xc4, 0xfa, 0xab, 0xa2, 0xf5, 0x7f, 0x49, 0x12, 0x29, 0x49, 0x2f,
   0x28, 0x6a, 0xf9, 0x5d, 0x00, 0x00, 0x6b, 0xd0, 0xbf, 0x57, 0x44, 0xaf,
   0xb5, 0x15, 0x40, 0x80, 0x20, 0xdd, 0xa1, 0xb5, 0xaf, 0xb5, 0x80, 0x00 };
