#define percheron_2_6_width 232
#define percheron_2_6_height 128
static unsigned char percheron_2_6_bits[] = {
  0x00, 0x00, 0x00, 0x00, 0x00, 0x00, 0x00, 0x00, 0x00, 0x00, 0x00, 0x00, 
  0x00, 0x00, 0x00, 0x00, 0x00, 0x00, 0x00, 0x00, 0x00, 0x00, 0x00, 0x00, 
  0x00, 0x00, 0x00, 0x00, 0x00, 0x00, 0x00, 0x00, 0x00, 0x00, 0x00, 0x00, 
  0x00, 0x00, 0x00, 0x00, 0x00, 0x00, 0x00, 0x00, 0x00, 0x00, 0x00, 0x00, 
  0x00, 0x00, 0x00, 0x00, 0x00, 0x00, 0x00, 0x00, 0x00, 0x00, 0x00, 0x00, 
  0x00, 0x00, 0x00, 0x00, 0x00, 0x00, 0x00, 0x00, 0x00, 0x00, 0x00, 0x00, 
  0x00, 0x00, 0x00, 0x00, 0x00, 0x00, 0x00, 0x00, 0x00, 0x00, 0x00, 0x00, 
  0x00, 0x00, 0x00, 0x00, 0x00, 0x00, 0x00, 0x00, 0x00, 0x00, 0x00, 0x00, 
  0x00, 0x00, 0x00, 0x00, 0x00, 0x00, 0x00, 0x00, 0x00, 0x00, 0x00, 0x00, 
  0x00, 0x00, 0x00, 0x00, 0x00, 0x00, 0x00, 0x00, 0x00, 0x00, 0x00, 0x00, 
  0x00, 0x00, 0x00, 0x00, 0x00, 0x00, 0x00, 0x00, 0x00, 0x00, 0x00, 0x00, 
  0x00, 0x00, 0x00, 0x00, 0x00, 0x00, 0x00, 0x00, 0x00, 0x00, 0x00, 0x00, 
  0x00, 0x00, 0x00, 0x00, 0x00, 0x00, 0x00, 0x00, 0x00, 0x00, 0x00, 0x00, 
  0x00, 0x00, 0x00, 0x00, 0x00, 0x00, 0x00, 0x00, 0x00, 0x00, 0x00, 0x00, 
  0x00, 0x00, 0x00, 0x00, 0x00, 0x00, 0x00, 0x00, 0x00, 0x00, 0x00, 0x00, 
  0x00, 0x00, 0x00, 0x00, 0x00, 0x00, 0x00, 0x00, 0x00, 0x00, 0x00, 0x00, 
  0x00, 0x00, 0x00, 0x00, 0x00, 0x00, 0x00, 0x00, 0x00, 0x00, 0x00, 0x00, 
  0x00, 0x00, 0x00, 0x00, 0x00, 0x00, 0x00, 0x00, 0x00, 0x00, 0x00, 0x00, 
  0x00, 0x00, 0x00, 0x00, 0x00, 0x00, 0x00, 0x00, 0x00, 0x00, 0x00, 0x00, 
  0x00, 0x00, 0x00, 0x00, 0x00, 0x00, 0x00, 0x00, 0x00, 0x00, 0x00, 0x00, 
  0x00, 0x00, 0x00, 0x00, 0x00, 0x00, 0x00, 0x00, 0x00, 0x00, 0x00, 0x00, 
  0x00, 0x00, 0x00, 0x00, 0x00, 0x00, 0x00, 0x00, 0x00, 0x00, 0x00, 0x00, 
  0x00, 0x00, 0x00, 0x00, 0x00, 0x00, 0x00, 0x00, 0x00, 0x00, 0x00, 0x00, 
  0x00, 0x00, 0x00, 0x00, 0x00, 0x00, 0x00, 0x00, 0x00, 0x00, 0x00, 0x00, 
  0x00, 0x00, 0x00, 0x00, 0x00, 0x00, 0x00, 0x00, 0x00, 0x00, 0x00, 0x00, 
  0x00, 0x00, 0x00, 0x00, 0x00, 0x00, 0x00, 0x00, 0x00, 0x00, 0x00, 0x00, 
  0x00, 0x00, 0x00, 0x00, 0x00, 0x00, 0x00, 0x00, 0x00, 0x00, 0x00, 0x00, 
  0x00, 0x00, 0x00, 0x00, 0x00, 0x00, 0x00, 0x00, 0x00, 0x00, 0x00, 0x00, 
  0x00, 0x00, 0x00, 0x00, 0x00, 0x00, 0x00, 0x00, 0x00, 0x00, 0x00, 0x00, 
  0x00, 0x00, 0x00, 0x00, 0x00, 0x00, 0x00, 0x00, 0x00, 0x00, 0x00, 0x00, 
  0x00, 0x00, 0x00, 0x00, 0x00, 0x00, 0x00, 0x00, 0x00, 0x00, 0x00, 0x00, 
  0x00, 0x00, 0x00, 0x00, 0x00, 0x00, 0x00, 0x00, 0x00, 0x00, 0x00, 0x00, 
  0x00, 0x00, 0x00, 0x00, 0x00, 0x00, 0x00, 0x00, 0x00, 0x00, 0x00, 0x00, 
  0x00, 0x00, 0x00, 0x00, 0x00, 0x00, 0x00, 0x00, 0x00, 0x00, 0x00, 0x00, 
  0x00, 0x00, 0x00, 0x00, 0x00, 0x00, 0x00, 0x00, 0x00, 0x00, 0x00, 0x00, 
  0x00, 0x00, 0x00, 0x00, 0x00, 0x00, 0x00, 0x00, 0x00, 0x00, 0x00, 0x00, 
  0x00, 0x00, 0x00, 0x00, 0x00, 0x00, 0x00, 0x00, 0x00, 0x00, 0x00, 0x00, 
  0x00, 0x00, 0x00, 0x00, 0x00, 0x00, 0x00, 0x00, 0x00, 0x00, 0x00, 0x00, 
  0x00, 0x00, 0x00, 0x00, 0x00, 0x00, 0x00, 0x00, 0x00, 0x00, 0x00, 0x00, 
  0x00, 0x00, 0x00, 0x00, 0x00, 0x00, 0x00, 0x00, 0x00, 0x00, 0x00, 0x00, 
  0x00, 0x00, 0x00, 0x00, 0x00, 0x00, 0x00, 0x00, 0x00, 0x00, 0x00, 0x00, 
  0x00, 0x00, 0x00, 0x00, 0x00, 0x00, 0x00, 0x00, 0x00, 0x00, 0x00, 0x00, 
  0x00, 0x00, 0x00, 0x00, 0x00, 0x00, 0x00, 0x00, 0x00, 0x00, 0x00, 0x00, 
  0x00, 0x00, 0x00, 0x00, 0x00, 0x00, 0x00, 0x00, 0x00, 0x00, 0x00, 0x00, 
  0x00, 0x00, 0x00, 0x00, 0x00, 0x00, 0x00, 0x00, 0x00, 0x00, 0x00, 0x00, 
  0x00, 0x00, 0x00, 0x00, 0x00, 0x00, 0x00, 0x00, 0x00, 0x00, 0x00, 0x00, 
  0x00, 0x00, 0x00, 0x00, 0x00, 0x00, 0x00, 0x00, 0x00, 0x00, 0x00, 0x00, 
  0x00, 0x00, 0x00, 0x00, 0x00, 0x00, 0x00, 0x00, 0x00, 0x00, 0x00, 0x00, 
  0x00, 0x00, 0x00, 0x00, 0x00, 0x00, 0x00, 0x00, 0x00, 0x00, 0x00, 0x00, 
  0x00, 0x00, 0x00, 0x00, 0x00, 0x00, 0x00, 0x00, 0x00, 0x00, 0x00, 0x00, 
  0x00, 0x00, 0x00, 0x00, 0x00, 0x00, 0x00, 0x00, 0x00, 0x00, 0x00, 0x00, 
  0x00, 0x00, 0x00, 0x00, 0x00, 0x00, 0x00, 0x00, 0x00, 0x00, 0x00, 0x00, 
  0x00, 0x00, 0x00, 0x00, 0x00, 0x00, 0x00, 0x00, 0x00, 0x00, 0x00, 0x00, 
  0x00, 0x00, 0x00, 0x00, 0x00, 0x00, 0x00, 0x00, 0x00, 0x00, 0x00, 0x00, 
  0x00, 0x00, 0x00, 0x00, 0x00, 0x00, 0x00, 0x00, 0x00, 0x00, 0x00, 0x00, 
  0x00, 0x00, 0x00, 0x00, 0x00, 0x00, 0x00, 0x00, 0x00, 0x00, 0x00, 0x00, 
  0x00, 0x00, 0x00, 0x00, 0x00, 0x00, 0x00, 0x00, 0x00, 0x00, 0x00, 0x00, 
  0x00, 0x00, 0x00, 0x00, 0x00, 0x00, 0x00, 0x00, 0x00, 0x00, 0x00, 0x00, 
  0x00, 0x00, 0x00, 0x00, 0x00, 0x00, 0x00, 0x00, 0x00, 0x00, 0x00, 0x00, 
  0x00, 0x00, 0x00, 0x00, 0x00, 0x00, 0x00, 0x00, 0x00, 0x00, 0x00, 0x00, 
  0x00, 0x00, 0x00, 0x00, 0x00, 0x00, 0x00, 0x00, 0x00, 0x00, 0x00, 0x00, 
  0x00, 0x00, 0x00, 0x00, 0x00, 0x60, 0x00, 0x00, 0x00, 0x00, 0x00, 0x00, 
  0x00, 0x00, 0x00, 0x00, 0x00, 0x00, 0x00, 0x00, 0x00, 0x00, 0x00, 0x00, 
  0x00, 0x00, 0x00, 0x00, 0x00, 0x00, 0x00, 0x00, 0x00, 0x00, 0x78, 0x00, 
  0x00, 0x00, 0x00, 0x00, 0x00, 0x00, 0x00, 0x00, 0x00, 0x00, 0x00, 0x00, 
  0x00, 0x00, 0x00, 0x00, 0x00, 0x00, 0x00, 0x00, 0x00, 0x00, 0x00, 0x00, 
  0x00, 0x00, 0x00, 0xFE, 0x00, 0x00, 0x00, 0x00, 0x00, 0x00, 0x00, 0x00, 
  0x00, 0x00, 0x00, 0x00, 0x00, 0x00, 0x00, 0x00, 0x00, 0x00, 0x00, 0x00, 
  0x00, 0x00, 0x00, 0x00, 0x00, 0x00, 0x00, 0x00, 0x7F, 0x00, 0x00, 0x00, 
  0x00, 0x00, 0x00, 0x00, 0x00, 0x00, 0x00, 0x00, 0x00, 0x00, 0x00, 0x00, 
  0x00, 0x00, 0x00, 0x00, 0x00, 0x00, 0x00, 0x00, 0x00, 0x00, 0x00, 0x00, 
  0x00, 0x7F, 0x00, 0x00, 0x00, 0x00, 0x00, 0x00, 0x00, 0x00, 0x00, 0x00, 
  0x00, 0x00, 0x00, 0x00, 0x00, 0x00, 0x00, 0x00, 0x00, 0x00, 0x00, 0x00, 
  0x00, 0x00, 0x00, 0x00, 0x00, 0x00, 0x7E, 0x00, 0x00, 0x00, 0x00, 0x00, 
  0x00, 0x00, 0x00, 0x00, 0x00, 0x00, 0x00, 0x00, 0x00, 0x00, 0x00, 0x00, 
  0x00, 0x00, 0x00, 0x00, 0x00, 0x00, 0x00, 0x00, 0x00, 0x00, 0x00, 0x7C, 
  0x00, 0x00, 0x00, 0x00, 0x00, 0x00, 0x00, 0x00, 0x00, 0x00, 0x00, 0x00, 
  0x00, 0x00, 0x00, 0x00, 0x00, 0x00, 0x00, 0x00, 0x00, 0x00, 0x00, 0x00, 
  0x00, 0x00, 0x00, 0x00, 0x78, 0x00, 0x00, 0x00, 0x00, 0x00, 0x00, 0x00, 
  0x00, 0x00, 0x00, 0x00, 0x00, 0x00, 0x00, 0x00, 0x00, 0x00, 0x00, 0x00, 
  0x00, 0x00, 0x00, 0x00, 0x00, 0x00, 0x00, 0x00, 0x00, 0x78, 0x00, 0x00, 
  0x00, 0x00, 0x00, 0x00, 0x00, 0x00, 0x00, 0x00, 0x00, 0x00, 0x00, 0x00, 
  0x00, 0x00, 0x00, 0x00, 0x00, 0x00, 0x00, 0x00, 0x00, 0x00, 0x00, 0x00, 
  0x00, 0x00, 0x78, 0x00, 0x00, 0x00, 0x00, 0x00, 0x00, 0x00, 0x00, 0x00, 
  0x00, 0x00, 0x00, 0x00, 0x00, 0x00, 0x00, 0x00, 0x00, 0x00, 0x00, 0x00, 
  0x00, 0x00, 0x00, 0x00, 0x00, 0x00, 0x00, 0x78, 0x00, 0x00, 0x00, 0x00, 
  0x00, 0x00, 0x00, 0x00, 0x00, 0x00, 0x00, 0x00, 0x00, 0x00, 0x00, 0x00, 
  0x00, 0x00, 0x00, 0x00, 0x00, 0x00, 0x00, 0x00, 0x00, 0x00, 0x00, 0x00, 
  0x78, 0x00, 0x00, 0x00, 0x00, 0x00, 0x00, 0x00, 0x00, 0x00, 0x00, 0x00, 
  0x00, 0x00, 0x00, 0x00, 0x00, 0x00, 0x00, 0x00, 0x00, 0x00, 0x00, 0x00, 
  0x00, 0x00, 0x00, 0x00, 0x00, 0x78, 0x00, 0x00, 0x00, 0x00, 0x00, 0x00, 
  0x00, 0x00, 0x00, 0x00, 0x00, 0x00, 0x00, 0x00, 0x00, 0x00, 0x00, 0x00, 
  0x00, 0x00, 0x00, 0x00, 0x00, 0x00, 0x00, 0x00, 0x00, 0x00, 0x78, 0x00, 
  0x00, 0x00, 0x00, 0x00, 0x00, 0x00, 0x00, 0x00, 0x00, 0x00, 0x00, 0x00, 
  0x00, 0x00, 0x00, 0x00, 0x00, 0x00, 0x00, 0x00, 0x00, 0x00, 0x00, 0x00, 
  0x00, 0x00, 0x00, 0x78, 0x00, 0x00, 0x00, 0x00, 0x00, 0x00, 0x00, 0x00, 
  0x00, 0x00, 0x00, 0x00, 0x00, 0x00, 0x00, 0x00, 0x00, 0x00, 0x00, 0x00, 
  0x00, 0x00, 0x00, 0x00, 0x00, 0x00, 0x00, 0x00, 0x78, 0x00, 0x00, 0x00, 
  0x00, 0x00, 0x00, 0x00, 0x00, 0x00, 0x00, 0x00, 0x00, 0x00, 0x00, 0x00, 
  0x00, 0x00, 0x00, 0x00, 0x00, 0x00, 0x00, 0x00, 0x00, 0x00, 0x00, 0x00, 
  0x00, 0x78, 0x00, 0x00, 0x00, 0x00, 0x00, 0x00, 0x00, 0x00, 0x00, 0x00, 
  0x00, 0x00, 0x00, 0x00, 0x00, 0x00, 0x00, 0x00, 0x00, 0x00, 0x00, 0x00, 
  0x00, 0x00, 0x00, 0x00, 0x00, 0x00, 0x78, 0x00, 0x00, 0x00, 0x00, 0x00, 
  0x00, 0x00, 0x00, 0x00, 0x00, 0x00, 0x00, 0x00, 0x00, 0x00, 0x00, 0x00, 
  0x00, 0x00, 0x00, 0x00, 0x00, 0x00, 0x00, 0x00, 0x00, 0x00, 0x00, 0x78, 
  0x00, 0x00, 0x00, 0x00, 0x00, 0x00, 0x00, 0x00, 0x00, 0x00, 0x00, 0x00, 
  0x00, 0x00, 0x00, 0x00, 0x00, 0x00, 0x00, 0x00, 0x00, 0x00, 0x00, 0x00, 
  0x00, 0x00, 0x00, 0x00, 0x78, 0x00, 0x00, 0x00, 0x00, 0x00, 0x00, 0x00, 
  0x00, 0x00, 0x00, 0x00, 0x00, 0x00, 0x00, 0x00, 0x00, 0x00, 0x00, 0x00, 
  0x00, 0x00, 0x00, 0x00, 0x00, 0x00, 0x00, 0x00, 0x00, 0x78, 0x00, 0x00, 
  0x00, 0x00, 0x00, 0x00, 0x00, 0x00, 0x00, 0x00, 0x00, 0x00, 0x00, 0x00, 
  0x00, 0x00, 0x00, 0x00, 0x00, 0x00, 0x00, 0x00, 0x00, 0x00, 0x00, 0x00, 
  0x00, 0x00, 0x78, 0x00, 0x00, 0x00, 0x00, 0x00, 0x00, 0x00, 0x00, 0x00, 
  0x00, 0x00, 0x00, 0x00, 0x00, 0x00, 0x00, 0x00, 0x00, 0x00, 0x00, 0x00, 
  0x00, 0x00, 0x00, 0x00, 0x00, 0x00, 0x00, 0x78, 0x00, 0x00, 0x00, 0x00, 
  0x00, 0x00, 0x00, 0x00, 0x00, 0x00, 0x00, 0x00, 0x00, 0x00, 0x00, 0x00, 
  0x00, 0x08, 0x00, 0x00, 0x00, 0x00, 0x00, 0x00, 0x00, 0x00, 0x00, 0x00, 
  0x78, 0x00, 0x00, 0x00, 0x00, 0x00, 0x00, 0x00, 0x00, 0x00, 0x00, 0x00, 
  0x00, 0x00, 0x00, 0x00, 0x00, 0x00, 0x1E, 0x50, 0x00, 0x00, 0x7E, 0x00, 
  0x20, 0x40, 0x00, 0x90, 0x00, 0x78, 0xC0, 0x07, 0x00, 0xE0, 0x03, 0x00, 
  0x03, 0x02, 0x00, 0x09, 0x00, 0x60, 0x80, 0x03, 0x00, 0x00, 0xC0, 0x1F, 
  0xFE, 0x03, 0x80, 0xFF, 0x01, 0x78, 0xF8, 0x01, 0xFE, 0x0F, 0x78, 0xF8, 
  0x1F, 0x00, 0xFC, 0x0F, 0x80, 0xC3, 0x0F, 0xE0, 0x7F, 0x00, 0x70, 0xF8, 
  0x1F, 0x00, 0x00, 0xC0, 0x9F, 0xFF, 0x07, 0xE0, 0xFF, 0x03, 0x7C, 0xFE, 
  0x01, 0xFF, 0x3F, 0x78, 0xFE, 0x3F, 0x00, 0xFE, 0x1F, 0xE0, 0xE3, 0x0F, 
  0xF8, 0xFF, 0x01, 0x7C, 0xFC, 0x3F, 0x00, 0x00, 0x80, 0xFF, 0xFF, 0x0F, 
  0xF0, 0xC0, 0x07, 0x7F, 0xFF, 0xC1, 0x87, 0x3F, 0xF8, 0xFF, 0x3F, 0x00, 
  0x0F, 0x3E, 0xF8, 0xF7, 0x0F, 0x7C, 0xF8, 0x03, 0xFF, 0xFF, 0x7F, 0x00, 
  0x00, 0x00, 0xFE, 0x80, 0x1F, 0x78, 0xC0, 0x0F, 0xFF, 0xFF, 0xE0, 0x01, 
  0x1F, 0xF8, 0x03, 0x7E, 0x80, 0x07, 0x7C, 0xF8, 0xFF, 0x0F, 0x1E, 0xE0, 
  0x87, 0xFF, 0x07, 0x7F, 0x00, 0x00, 0x00, 0x7E, 0x00, 0x3F, 0x78, 0x80, 
  0x0F, 0xFE, 0xF1, 0xF0, 0x01, 0x0C, 0xF8, 0x01, 0x7C, 0xC0, 0x03, 0xFC, 
  0xE0, 0x1F, 0x07, 0x0F, 0xC0, 0x0F, 0xFC, 0x01, 0x7C, 0x00, 0x00, 0x00, 
  0x3E, 0x00, 0x3F, 0x3C, 0x80, 0x1F, 0xF8, 0x00, 0xF0, 0x00, 0x00, 0x78, 
  0x00, 0x7C, 0xC0, 0x03, 0xF8, 0xC1, 0x07, 0x80, 0x0F, 0x80, 0x0F, 0xF8, 
  0x00, 0x78, 0x00, 0x00, 0x00, 0x3E, 0x00, 0x3E, 0x3C, 0x80, 0x1F, 0xF8, 
  0x00, 0xF8, 0x00, 0x00, 0x78, 0x00, 0x78, 0xE0, 0x03, 0xFC, 0xC1, 0x07, 
  0x80, 0x07, 0x80, 0x1F, 0x78, 0x00, 0x78, 0x00, 0x00, 0x00, 0x3E, 0x00, 
  0x7E, 0x3E, 0xE0, 0x0F, 0x78, 0x00, 0x78, 0x00, 0x00, 0xF8, 0x00, 0xF8, 
  0xE0, 0x01, 0xFF, 0x80, 0x07, 0xC0, 0x07, 0x00, 0x1F, 0xF8, 0x00, 0xF8, 
  0x00, 0x00, 0x00, 0x3E, 0x00, 0x7C, 0x3E, 0xFE, 0x01, 0xF8, 0x00, 0x78, 
  0x00, 0x00, 0x78, 0x00, 0x78, 0xE0, 0xE1, 0x1F, 0xC0, 0x07, 0xC0, 0x07, 
  0x00, 0x1F, 0x78, 0x00, 0xF8, 0x00, 0x00, 0x00, 0x3E, 0x00, 0x3C, 0xFE, 
  0x3F, 0x00, 0x78, 0x00, 0x7C, 0x00, 0x00, 0x78, 0x00, 0x78, 0xF0, 0xFF, 
  0x01, 0x80, 0x07, 0xC0, 0x07, 0x00, 0x1F, 0xF8, 0x00, 0x78, 0x00, 0x00, 
  0x00, 0x3E, 0x00, 0x7C, 0xFE, 0x03, 0x00, 0x78, 0x00, 0x78, 0x00, 0x00, 
  0x78, 0x00, 0xF8, 0xE0, 0x3F, 0x00, 0xC0, 0x07, 0xC0, 0x07, 0x00, 0x1F, 
  0x78, 0x00, 0xF8, 0x00, 0x00, 0x00, 0x3C, 0x00, 0x3C, 0x7E, 0x00, 0x00, 
  0xF8, 0x00, 0x7C, 0x00, 0x00, 0xF8, 0x00, 0x78, 0xE0, 0x07, 0x00, 0x80, 
  0x07, 0xC0, 0x07, 0x00, 0x1F, 0xF8, 0x00, 0xF0, 0x00, 0x00, 0x00, 0x1E, 
  0x00, 0x3C, 0x3E, 0x00, 0x00, 0x78, 0x00, 0xFC, 0x00, 0x00, 0x78, 0x00, 
  0x78, 0xE0, 0x03, 0x00, 0xC0, 0x07, 0xC0, 0x07, 0x00, 0x1F, 0x78, 0x00, 
  0x78, 0x00, 0x00, 0x00, 0x3E, 0x00, 0x3C, 0x7E, 0x00, 0x00, 0x78, 0x00, 
  0xFC, 0x00, 0x00, 0x78, 0x00, 0xF8, 0xE0, 0x03, 0x00, 0x80, 0x07, 0xC0, 
  0x07, 0x00, 0x1F, 0xF8, 0x00, 0xF8, 0x00, 0x00, 0x00, 0x3E, 0x00, 0x1C, 
  0x7C, 0x00, 0x00, 0x78, 0x00, 0xF8, 0x00, 0x00, 0x78, 0x00, 0xF8, 0xE0, 
  0x07, 0x00, 0xC0, 0x07, 0xC0, 0x0F, 0x00, 0x0F, 0xF8, 0x00, 0xF0, 0x00, 
  0x00, 0x00, 0x3E, 0x00, 0x1E, 0xFC, 0x00, 0x00, 0x78, 0x00, 0xF8, 0x01, 
  0x00, 0xF8, 0x00, 0x78, 0xE0, 0x07, 0x00, 0x80, 0x07, 0x80, 0x0F, 0x80, 
  0x0F, 0x78, 0x00, 0x78, 0x00, 0x00, 0x00, 0x3E, 0x00, 0x0E, 0xF8, 0x01, 
  0x18, 0x78, 0x00, 0xF8, 0x03, 0x00, 0x78, 0x00, 0x78, 0xC0, 0x0F, 0xC0, 
  0xC1, 0x07, 0x80, 0x1F, 0x80, 0x07, 0xF8, 0x00, 0xF8, 0x00, 0x00, 0x00, 
  0x7C, 0x00, 0x0F, 0xF8, 0x03, 0x1F, 0xF8, 0x00, 0xF0, 0x07, 0x38, 0xF8, 
  0x00, 0xF8, 0x80, 0x1F, 0xF0, 0xC1, 0x07, 0x00, 0x3F, 0xC0, 0x03, 0xF8, 
  0x00, 0xF8, 0x00, 0x00, 0x00, 0xFE, 0xE7, 0x07, 0xF0, 0xFF, 0x0F, 0xFC, 
  0x01, 0xE0, 0xBF, 0x1F, 0xF8, 0x00, 0xF8, 0x80, 0xFF, 0x7F, 0xC0, 0x0F, 
  0x00, 0xFE, 0xF4, 0x01, 0xF8, 0x01, 0xF8, 0x00, 0x00, 0x00, 0xFE, 0xFF, 
  0x01, 0xE0, 0xFF, 0x03, 0xFF, 0x0F, 0xC0, 0xFF, 0x0F, 0xFE, 0x07, 0xFE, 
  0x07, 0xFE, 0x3F, 0xF0, 0x7F, 0x00, 0xFC, 0xFF, 0x00, 0xFC, 0x0F, 0xFE, 
  0x07, 0x00, 0x00, 0xFC, 0xFF, 0x00, 0x80, 0xFF, 0x00, 0xFF, 0x0F, 0x00, 
  0xFF, 0x03, 0xFF, 0x0F, 0xFF, 0x0F, 0xF8, 0x07, 0xF8, 0xFF, 0x00, 0xF0, 
  0x1F, 0x00, 0xFF, 0x0F, 0xFF, 0x0F, 0x00, 0x00, 0x3E, 0x04, 0x00, 0x00, 
  0x00, 0x00, 0x00, 0x00, 0x00, 0x10, 0x00, 0x00, 0x00, 0x00, 0x00, 0x00, 
  0x00, 0x00, 0x00, 0x00, 0x00, 0x00, 0x00, 0x02, 0x00, 0x00, 0x00, 0x00, 
  0x00, 0x3E, 0x00, 0x00, 0x00, 0x00, 0x00, 0x00, 0x00, 0x00, 0x00, 0x00, 
  0x00, 0x00, 0x00, 0x00, 0x00, 0x00, 0x00, 0x00, 0x00, 0x00, 0x00, 0x00, 
  0x00, 0x00, 0x00, 0x00, 0x00, 0x00, 0x3C, 0x00, 0x00, 0x00, 0x00, 0x00, 
  0x00, 0x00, 0x00, 0x00, 0x00, 0x00, 0x00, 0x00, 0x00, 0x00, 0x00, 0x00, 
  0x00, 0x00, 0x00, 0x00, 0x00, 0x00, 0x00, 0x00, 0x00, 0x00, 0x00, 0x3E, 
  0x00, 0x00, 0x00, 0x00, 0x00, 0x00, 0x00, 0x00, 0x00, 0x00, 0x00, 0x00, 
  0x00, 0x00, 0x00, 0x00, 0x00, 0x00, 0x00, 0x00, 0x00, 0x00, 0x00, 0x00, 
  0x00, 0x00, 0x00, 0x00, 0x1E, 0x00, 0x00, 0x00, 0x00, 0x00, 0x00, 0x00, 
  0x00, 0x00, 0x00, 0x00, 0x00, 0x00, 0x00, 0x00, 0x00, 0x00, 0x00, 0x00, 
  0x00, 0x00, 0x00, 0x00, 0x00, 0x00, 0x00, 0x00, 0x00, 0x1E, 0x00, 0x00, 
  0x00, 0x00, 0x00, 0x00, 0x00, 0x00, 0x00, 0x00, 0x00, 0x00, 0x00, 0x00, 
  0x00, 0x00, 0x00, 0x00, 0x00, 0x00, 0x00, 0x00, 0x00, 0x00, 0x00, 0x00, 
  0x00, 0x00, 0x3C, 0x00, 0x00, 0x00, 0x00, 0x00, 0x00, 0x00, 0x00, 0x00, 
  0x00, 0x00, 0x00, 0x00, 0x00, 0x00, 0x00, 0x00, 0x00, 0x00, 0x02, 0x00, 
  0x00, 0x00, 0x00, 0x00, 0x00, 0x00, 0x00, 0x3E, 0x00, 0x00, 0xE0, 0x7F, 
  0x40, 0x00, 0xC0, 0x7F, 0x00, 0xFE, 0x00, 0xFF, 0x07, 0xFC, 0x07, 0xC0, 
  0x1F, 0x80, 0x03, 0x03, 0x0C, 0xC0, 0x1F, 0x00, 0x7F, 0x00, 0x00, 0x00, 
  0x3E, 0x00, 0x00, 0xB0, 0x2A, 0x60, 0x00, 0xE0, 0x6A, 0x00, 0xC7, 0x01, 
  0x75, 0x05, 0xAE, 0x07, 0xE0, 0x38, 0x80, 0x03, 0x02, 0x0C, 0xE0, 0x79, 
  0x80, 0xE3, 0x00, 0x00, 0x00, 0x3E, 0x00, 0x00, 0x30, 0x00, 0x40, 0x00, 
  0x60, 0x00, 0x80, 0x01, 0x03, 0x60, 0x00, 0x06, 0x0C, 0x30, 0x60, 0x80, 
  0x07, 0x02, 0x0C, 0x70, 0x60, 0xC0, 0xC1, 0x00, 0x00, 0x00, 0x3C, 0x00, 
  0x00, 0x30, 0x00, 0xE0, 0x00, 0x60, 0x00, 0x80, 0x01, 0x03, 0x20, 0x00, 
  0x06, 0x0C, 0x18, 0xC0, 0x80, 0x07, 0x03, 0x0C, 0x30, 0xC0, 0xC0, 0x80, 
  0x01, 0x00, 0x00, 0x3E, 0x00, 0x00, 0x30, 0x00, 0x60, 0x00, 0x60, 0x00, 
  0xC0, 0x00, 0x02, 0x30, 0x00, 0x06, 0x18, 0x18, 0xC0, 0x80, 0x0D, 0x06, 
  0x0C, 0x10, 0xC0, 0xC0, 0x80, 0x00, 0x00, 0x00, 0x3E, 0x00, 0x00, 0x30, 
  0x00, 0x40, 0x00, 0x60, 0x00, 0xC0, 0x00, 0x00, 0x60, 0x00, 0x06, 0x0C, 
  0x18, 0xC0, 0x80, 0x19, 0x03, 0x0C, 0x18, 0x00, 0x80, 0x01, 0x00, 0x00, 
  0x00, 0x1C, 0x00, 0x00, 0xB0, 0x2A, 0x40, 0x00, 0x60, 0x29, 0xC0, 0x00, 
  0x00, 0x60, 0x00, 0x06, 0x0E, 0x08, 0x80, 0x81, 0x19, 0x02, 0x0C, 0x18, 
  0x00, 0x00, 0x1F, 0x00, 0x00, 0x00, 0x3E, 0x00, 0x00, 0xF0, 0x3F, 0xE0, 
  0x00, 0xE0, 0x7F, 0xC0, 0x00, 0x00, 0x20, 0x00, 0xFE, 0x07, 0x0C, 0x80, 
  0x80, 0x31, 0x03, 0x0C, 0x18, 0x00, 0x00, 0x7C, 0x00, 0x00, 0x00, 0x3E, 
  0x00, 0x00, 0x30, 0x00, 0x40, 0x00, 0x60, 0x00, 0x40, 0x00, 0x00, 0x20, 
  0x00, 0x56, 0x07, 0x1C, 0x80, 0x80, 0x31, 0x02, 0x0C, 0x18, 0x00, 0x00, 
  0xE0, 0x00, 0x00, 0x00, 0x3E, 0x00, 0x00, 0x30, 0x00, 0x60, 0x00, 0x60, 
  0x00, 0xC0, 0x00, 0x00, 0x60, 0x00, 0x06, 0x0C, 0x08, 0xC0, 0x81, 0x61, 
  0x03, 0x0C, 0x18, 0x00, 0x00, 0x80, 0x01, 0x00, 0x00, 0x3E, 0x00, 0x00, 
  0x30, 0x00, 0x40, 0x00, 0x60, 0x00, 0xC0, 0x00, 0x02, 0x60, 0x00, 0x06, 
  0x0C, 0x18, 0xC0, 0x80, 0xC1, 0x02, 0x0C, 0x18, 0xC0, 0xC0, 0x80, 0x01, 
  0x00, 0x00, 0x3C, 0x00, 0x00, 0x30, 0x00, 0x60, 0x00, 0x60, 0x00, 0xC0, 
  0x00, 0x07, 0x20, 0x00, 0x06, 0x0C, 0x18, 0xC0, 0x80, 0xC1, 0x03, 0x0C, 
  0x30, 0xC0, 0xC0, 0x80, 0x01, 0x00, 0x00, 0x3E, 0x00, 0x00, 0x30, 0x00, 
  0x60, 0x00, 0x60, 0x00, 0x80, 0x01, 0x03, 0x20, 0x00, 0x06, 0x0C, 0x30, 
  0x60, 0x80, 0x81, 0x03, 0x0C, 0x30, 0x60, 0xC0, 0x80, 0x01, 0x00, 0x00, 
  0x3E, 0x00, 0x00, 0x70, 0x22, 0xC0, 0x12, 0x60, 0x22, 0x00, 0x83, 0x01, 
  0x70, 0x00, 0x06, 0x0C, 0x70, 0x70, 0x80, 0x81, 0x03, 0x0C, 0xE0, 0x70, 
  0x80, 0xC1, 0x01, 0x00, 0x00, 0x7E, 0x00, 0x00, 0xE0, 0x7F, 0xC0, 0x7F, 
  0xC0, 0xFF, 0x00, 0xFE, 0x00, 0x60, 0x00, 0x06, 0x1C, 0xE0, 0x1F, 0x80, 
  0x01, 0x03, 0x0C, 0xC0, 0x3F, 0x00, 0xFF, 0x00, 0x00, 0x00, 0xFF, 0x07, 
  0x00, 0x00, 0x00, 0x00, 0x00, 0x00, 0x00, 0x00, 0x28, 0x00, 0x20, 0x00, 
  0x02, 0x00, 0x00, 0x06, 0x00, 0x01, 0x02, 0x04, 0x00, 0x09, 0x00, 0x14, 
  0x00, 0x00, 0x80, 0xFF, 0x07, 0x00, 0x00, 0x00, 0x00, 0x00, 0x00, 0x00, 
  0x00, 0x00, 0x00, 0x00, 0x00, 0x00, 0x00, 0x00, 0x00, 0x00, 0x00, 0x00, 
  0x00, 0x00, 0x00, 0x00, 0x00, 0x00, 0x00, 0x80, 0x00, 0x00, 0x00, 0x00, 
  0x00, 0x00, 0x00, 0x00, 0x00, 0x00, 0x00, 0x00, 0x00, 0x00, 0x00, 0x00, 
  0x00, 0x00, 0x00, 0x00, 0x00, 0x00, 0x00, 0x00, 0x00, 0x00, 0x00, 0x00, 
  0x00, 0x00, 0x00, 0x00, 0x00, 0x00, 0x00, 0x00, 0x00, 0x00, 0x00, 0x00, 
  0x00, 0x00, 0x00, 0x00, 0x00, 0x00, 0x00, 0x00, 0x00, 0x00, 0x00, 0x00, 
  0x00, 0x00, 0x00, 0x00, 0x00, 0x00, 0x00, 0x00, 0x00, 0x00, 0x00, 0x00, 
  0x00, 0x00, 0x00, 0x00, 0x00, 0x00, 0x00, 0x00, 0x00, 0x00, 0x00, 0x00, 
  0x00, 0x00, 0x00, 0x00, 0x00, 0x00, 0x00, 0x00, 0x00, 0x00, 0x00, 0x00, 
  0x00, 0x00, 0x00, 0x00, 0x00, 0x00, 0x00, 0x00, 0x00, 0x00, 0x00, 0x00, 
  0x00, 0x00, 0x00, 0x00, 0x00, 0x00, 0x00, 0x00, 0x00, 0x00, 0x00, 0x00, 
  0x00, 0x00, 0x00, 0x00, 0x00, 0x00, 0x00, 0x00, 0x00, 0x00, 0x00, 0x00, 
  0x00, 0x00, 0x00, 0x00, 0x00, 0x00, 0x00, 0x00, 0x00, 0x00, 0x00, 0x00, 
  0x00, 0x00, 0x00, 0x00, 0x00, 0x00, 0x00, 0x00, 0x00, 0x00, 0x00, 0x00, 
  0x00, 0x00, 0x00, 0x00, 0x00, 0x00, 0x00, 0x00, 0x00, 0x00, 0x00, 0x00, 
  0x00, 0x00, 0x00, 0x00, 0x00, 0x00, 0x00, 0x00, 0x00, 0x00, 0x00, 0x00, 
  0x00, 0x00, 0x00, 0x00, 0x00, 0x00, 0x00, 0x00, 0x00, 0x00, 0x00, 0x00, 
  0x00, 0x00, 0x00, 0x00, 0x00, 0x00, 0x00, 0x00, 0x00, 0x00, 0x00, 0x00, 
  0x00, 0x00, 0x00, 0x00, 0x00, 0x00, 0x00, 0x00, 0x00, 0x00, 0x00, 0x00, 
  0x00, 0x00, 0x00, 0x00, 0x00, 0x00, 0x00, 0x00, 0x00, 0x00, 0x00, 0x00, 
  0x00, 0x00, 0x00, 0x00, 0x00, 0x00, 0x00, 0x00, 0x00, 0x00, 0x00, 0x00, 
  0x00, 0x00, 0x00, 0x00, 0x00, 0x00, 0x00, 0x00, 0x00, 0x00, 0x00, 0x00, 
  0x00, 0x00, 0x00, 0x00, 0x00, 0x00, 0x00, 0x00, 0x00, 0x00, 0x00, 0x00, 
  0x00, 0x00, 0x00, 0x00, 0x00, 0x00, 0x00, 0x00, 0x00, 0x00, 0x00, 0x00, 
  0x00, 0x00, 0x00, 0x00, 0x00, 0x00, 0x00, 0x00, 0x00, 0x00, 0x00, 0x00, 
  0x00, 0x00, 0x00, 0x00, 0x00, 0x00, 0x00, 0x00, 0x00, 0x00, 0x00, 0x00, 
  0x00, 0x00, 0x00, 0x00, 0x00, 0x00, 0x00, 0x00, 0x00, 0x00, 0x00, 0x00, 
  0x00, 0x00, 0x00, 0x00, 0x00, 0x00, 0x00, 0x00, 0x00, 0x00, 0x00, 0x00, 
  0x00, 0x00, 0x00, 0x00, 0x00, 0x00, 0x00, 0x00, 0x00, 0x00, 0x00, 0x00, 
  0x00, 0x00, 0x00, 0x00, 0x00, 0x00, 0x00, 0x00, 0x00, 0x00, 0x00, 0x00, 
  0x00, 0x00, 0x00, 0x00, 0x00, 0x00, 0x00, 0x00, 0x00, 0x00, 0x00, 0x00, 
  0x00, 0x00, 0x00, 0x00, 0x00, 0x00, 0x00, 0x00, 0x00, 0x00, 0x00, 0x00, 
  0x00, 0x00, 0x00, 0x00, 0x00, 0x00, 0x00, 0x00, 0x00, 0x00, 0x00, 0x00, 
  0x00, 0x00, 0x00, 0x00, 0x00, 0x00, 0x00, 0x00, 0x00, 0x00, 0x00, 0x00, 
  0x00, 0x00, 0x00, 0x00, 0x00, 0x00, 0x00, 0x00, 0x00, 0x00, 0x00, 0x00, 
  0x00, 0x00, 0x00, 0x00, 0x00, 0x00, 0x00, 0x00, 0x00, 0x00, 0x00, 0x00, 
  0x00, 0x00, 0x00, 0x00, 0x00, 0x00, 0x00, 0x00, 0x00, 0x00, 0x00, 0x00, 
  0x00, 0x00, 0x00, 0x00, 0x00, 0x00, 0x00, 0x00, 0x00, 0x00, 0x00, 0x00, 
  0x00, 0x00, 0x00, 0x00, 0x00, 0x00, 0x00, 0x00, 0x00, 0x00, 0x00, 0x00, 
  0x00, 0x00, 0x00, 0x00, 0x00, 0x00, 0x00, 0x00, 0x00, 0x00, 0x00, 0x00, 
  0x00, 0x00, 0x00, 0x00, 0x00, 0x00, 0x00, 0x00, 0x00, 0x00, 0x00, 0x00, 
  0x00, 0x00, 0x00, 0x00, 0x00, 0x00, 0x00, 0x00, 0x00, 0x00, 0x00, 0x00, 
  0x00, 0x00, 0x00, 0x00, 0x00, 0x00, 0x00, 0x00, 0x00, 0x00, 0x00, 0x00, 
  0x00, 0x00, 0x00, 0x00, 0x00, 0x00, 0x00, 0x00, 0x00, 0x00, 0x00, 0x00, 
  0x00, 0x00, 0x00, 0x00, 0x00, 0x00, 0x00, 0x00, 0x00, 0x00, 0x00, 0x00, 
  0x00, 0x00, 0x00, 0x00, 0x00, 0x00, 0x00, 0x00, 0x00, 0x00, 0x00, 0x00, 
  0x00, 0x00, 0x00, 0x00, 0x00, 0x00, 0x00, 0x00, 0x00, 0x00, 0x00, 0x00, 
  0x00, 0x00, 0x00, 0x00, 0x00, 0x00, 0x00, 0x00, 0x00, 0x00, 0x00, 0x00, 
  0x00, 0x00, 0x00, 0x00, 0x00, 0x00, 0x00, 0x00, 0x00, 0x00, 0x00, 0x00, 
  0x00, 0x00, 0x00, 0x00, 0x00, 0x00, 0x00, 0x00, 0x00, 0x00, 0x00, 0x00, 
  0x00, 0x00, 0x00, 0x00, 0x00, 0x00, 0x00, 0x00, 0x00, 0x00, 0x00, 0x00, 
  0x00, 0x00, 0x00, 0x00, 0x00, 0x00, 0x00, 0x00, 0x00, 0x00, 0x00, 0x00, 
  0x00, 0x00, 0x00, 0x00, 0x00, 0x00, 0x00, 0x00, 0x00, 0x00, 0x00, 0x00, 
  0x00, 0x00, 0x00, 0x00, 0x00, 0x00, 0x00, 0x00, 0x00, 0x00, 0x00, 0x00, 
  0x00, 0x00, 0x00, 0x00, 0x00, 0x00, 0x00, 0x00, 0x00, 0x00, 0x00, 0x00, 
  0x00, 0x00, 0x00, 0x00, 0x00, 0x00, 0x00, 0x00, 0x00, 0x00, 0x00, 0x00, 
  0x00, 0x00, 0x00, 0x00, 0x00, 0x00, 0x00, 0x00, 0x00, 0x00, 0x00, 0x00, 
  0x00, 0x00, 0x00, 0x00, 0x00, 0x00, 0x00, 0x00, 0x00, 0x00, 0x00, 0x00, 
  0x00, 0x00, 0x00, 0x00, 0x00, 0x00, 0x00, 0x00, 0x00, 0x00, 0x00, 0x00, 
  0x00, 0x00, 0x00, 0x00, 0x00, 0x00, 0x00, 0x00, 0x00, 0x00, 0x00, 0x00, 
  0x00, 0x00, 0x00, 0x00, 0x00, 0x00, 0x00, 0x00, 0x00, 0x00, 0x00, 0x00, 
  0x00, 0x00, 0x00, 0x00, 0x00, 0x00, 0x00, 0x00, 0x00, 0x00, 0x00, 0x00, 
  0x00, 0x00, 0x00, 0x00, 0x00, 0x00, 0x00, 0x00, 0x00, 0x00, 0x00, 0x00, 
  0x00, 0x00, 0x00, 0x00, 0x00, 0x00, 0x00, 0x00, 0x00, 0x00, 0x00, 0x00, 
  0x00, 0x00, 0x00, 0x00, 0x00, 0x00, 0x00, 0x00, 0x00, 0x00, 0x00, 0x00, 
  0x00, 0x00, 0x00, 0x00, 0x00, 0x00, 0x00, 0x00, 0x00, 0x00, 0x00, 0x00, 
  0x00, 0x00, 0x00, 0x00, 0x00, 0x00, 0x00, 0x00, 0x00, 0x00, 0x00, 0x00, 
  0x00, 0x00, 0x00, 0x00, 0x00, 0x00, 0x00, 0x00, 0x00, 0x00, 0x00, 0x00, 
  0x00, 0x00, 0x00, 0x00, 0x00, 0x00, 0x00, 0x00, 0x00, 0x00, 0x00, 0x00, 
  0x00, 0x00, 0x00, 0x00, 0x00, 0x00, 0x00, 0x00, 0x00, 0x00, 0x00, 0x00, 
  0x00, 0x00, 0x00, 0x00, 0x00, 0x00, 0x00, 0x00, 0x00, 0x00, 0x00, 0x00, 
  0x00, 0x00, 0x00, 0x00, 0x00, 0x00, 0x00, 0x00, 0x00, 0x00, 0x00, 0x00, 
  0x00, 0x00, 0x00, 0x00, 0x00, 0x00, 0x00, 0x00, 0x00, 0x00, 0x00, 0x00, 
  0x00, 0x00, 0x00, 0x00, 0x00, 0x00, 0x00, 0x00, 0x00, 0x00, 0x00, 0x00, 
  0x00, 0x00, 0x00, 0x00, 0x00, 0x00, 0x00, 0x00, 0x00, 0x00, 0x00, 0x00, 
  0x00, 0x00, 0x00, 0x00, 0x00, 0x00, 0x00, 0x00, 0x00, 0x00, 0x00, 0x00, 
  0x00, 0x00, 0x00, 0x00, 0x00, 0x00, 0x00, 0x00, 0x00, 0x00, 0x00, 0x00, 
  0x00, 0x00, 0x00, 0x00, 0x00, 0x00, 0x00, 0x00, 0x00, 0x00, 0x00, 0x00, 
  0x00, 0x00, 0x00, 0x00, 0x00, 0x00, 0x00, 0x00, 0x00, 0x00, 0x00, 0x00, 
  0x00, 0x00, 0x00, 0x00, 0x00, 0x00, 0x00, 0x00, 0x00, 0x00, 0x00, 0x00, 
  0x00, 0x00, 0x00, 0x00, 0x00, 0x00, 0x00, 0x00, 0x00, 0x00, 0x00, 0x00, 
  0x00, 0x00, 0x00, 0x00, };
