#define text_image_2_7_width 264
#define text_image_2_7_height 176
static unsigned char text_image_2_7_bits[] = {
   0x00, 0x00, 0x00, 0x00, 0x00, 0x00, 0x00, 0x00, 0x00, 0x00, 0x00, 0x00,
   0x00, 0x00, 0x00, 0x00, 0x00, 0x00, 0x00, 0x00, 0x00, 0x00, 0x00, 0x00,
   0x00, 0x00, 0x00, 0x00, 0x00, 0x00, 0x00, 0x00, 0x00, 0x00, 0x00, 0x00,
   0x00, 0x00, 0x00, 0x00, 0x00, 0x00, 0x00, 0x00, 0x00, 0x00, 0x00, 0x00,
   0x00, 0x00, 0x00, 0x00, 0x00, 0x00, 0x00, 0x00, 0x00, 0x00, 0x00, 0x00,
   0x00, 0x00, 0x00, 0x00, 0x00, 0x00, 0x00, 0x00, 0x00, 0x00, 0x00, 0x00,
   0x00, 0x00, 0x00, 0x00, 0x00, 0x00, 0x00, 0x00, 0x00, 0x00, 0x00, 0x00,
   0x00, 0x00, 0x00, 0x00, 0x00, 0x00, 0x00, 0x00, 0x00, 0x00, 0x00, 0x00,
   0x00, 0x00, 0x00, 0x00, 0x00, 0x00, 0x00, 0x00, 0x00, 0x00, 0x00, 0x00,
   0x00, 0x00, 0x00, 0x00, 0x00, 0x00, 0x00, 0x00, 0x00, 0x00, 0x00, 0x00,
   0x00, 0x00, 0x00, 0x00, 0x00, 0x00, 0x00, 0x00, 0x00, 0x00, 0x00, 0x00,
   0x00, 0x00, 0x00, 0x00, 0x00, 0x00, 0x00, 0x00, 0x00, 0x00, 0x00, 0x00,
   0x00, 0x00, 0x00, 0x00, 0x00, 0x00, 0x00, 0x00, 0x00, 0x00, 0x00, 0x00,
   0x00, 0x00, 0x00, 0x00, 0x00, 0x00, 0x00, 0x00, 0x00, 0x00, 0x00, 0x00,
   0x00, 0x00, 0x00, 0x00, 0x00, 0x00, 0x00, 0x00, 0x00, 0x00, 0x00, 0x00,
   0x00, 0x00, 0x00, 0x00, 0x00, 0x00, 0x00, 0x00, 0x00, 0x00, 0x00, 0x00,
   0x00, 0x00, 0x00, 0x00, 0x00, 0x00, 0x00, 0x00, 0x00, 0x00, 0x00, 0x00,
   0x00, 0x00, 0x00, 0x00, 0x00, 0x00, 0x00, 0x00, 0x00, 0x00, 0x00, 0x00,
   0x00, 0x00, 0x00, 0x00, 0x00, 0x00, 0x00, 0x00, 0x00, 0x00, 0x00, 0x00,
   0x00, 0x00, 0x00, 0x00, 0x00, 0x00, 0x00, 0x00, 0x00, 0x00, 0x00, 0x00,
   0x00, 0x00, 0x00, 0x00, 0x00, 0x00, 0x00, 0x00, 0x00, 0x00, 0x00, 0x00,
   0x00, 0x00, 0x00, 0x00, 0x00, 0x00, 0x00, 0x00, 0x00, 0x00, 0x00, 0x00,
   0x00, 0x00, 0x00, 0x00, 0x00, 0x00, 0x00, 0x00, 0x00, 0x00, 0x00, 0x00,
   0x00, 0x00, 0x00, 0x00, 0x00, 0x00, 0x00, 0x00, 0x00, 0x00, 0x00, 0x00,
   0x00, 0x00, 0x00, 0x00, 0x00, 0x00, 0x00, 0x00, 0x00, 0x00, 0x00, 0x00,
   0x00, 0x00, 0x00, 0x00, 0x00, 0x00, 0x00, 0x00, 0x00, 0x00, 0x00, 0x00,
   0x00, 0x00, 0x00, 0x00, 0x00, 0x00, 0x00, 0x00, 0x00, 0x00, 0x00, 0x00,
   0x00, 0x00, 0x00, 0x00, 0x00, 0x00, 0x00, 0x00, 0x00, 0x00, 0x00, 0x00,
   0x00, 0x00, 0x00, 0x00, 0x00, 0x00, 0x00, 0x00, 0x00, 0x00, 0x00, 0x00,
   0x00, 0x00, 0x00, 0x00, 0x00, 0x00, 0x00, 0x00, 0x00, 0x00, 0x00, 0x00,
   0x00, 0x00, 0x00, 0x00, 0x00, 0x00, 0x00, 0x00, 0x00, 0x00, 0x00, 0x00,
   0x00, 0x00, 0x00, 0x00, 0x00, 0x00, 0x00, 0x00, 0x00, 0x00, 0x00, 0x00,
   0x00, 0x00, 0x00, 0x00, 0x00, 0x00, 0x00, 0x00, 0x00, 0x00, 0x00, 0x00,
   0x00, 0x00, 0x00, 0x00, 0x00, 0x00, 0x00, 0x00, 0x00, 0x00, 0x00, 0x00,
   0x00, 0x00, 0x00, 0x00, 0x00, 0x00, 0x00, 0x00, 0x00, 0x00, 0x00, 0x00,
   0x00, 0x00, 0x00, 0x00, 0x00, 0x00, 0x00, 0x00, 0x00, 0xe0, 0xff, 0xff,
   0xff, 0xff, 0xff, 0xff, 0xff, 0xff, 0xff, 0xff, 0xff, 0xff, 0xff, 0xff,
   0xff, 0xff, 0xff, 0xff, 0xff, 0xff, 0xff, 0xff, 0xff, 0x07, 0x00, 0x00,
   0x00, 0x00, 0x00, 0x00, 0x00, 0x00, 0xe0, 0xff, 0xff, 0xff, 0xff, 0xff,
   0xff, 0xff, 0xff, 0xff, 0xff, 0xff, 0xff, 0xff, 0xff, 0xff, 0xff, 0xff,
   0xff, 0xff, 0xff, 0xff, 0xff, 0xff, 0x07, 0x00, 0x00, 0x00, 0x00, 0x00,
   0x00, 0x00, 0x00, 0xe0, 0xff, 0xff, 0xff, 0xff, 0xff, 0xff, 0xff, 0xff,
   0xff, 0xff, 0xff, 0xff, 0xff, 0xff, 0xff, 0xff, 0xff, 0xff, 0xff, 0xff,
   0xff, 0xff, 0xff, 0x07, 0x00, 0x00, 0x00, 0x00, 0x00, 0x00, 0x00, 0x00,
   0xe0, 0xff, 0xff, 0xff, 0xff, 0xff, 0xff, 0xff, 0xff, 0xff, 0xff, 0xff,
   0xff, 0xff, 0xff, 0xff, 0xff, 0xff, 0xff, 0xff, 0xff, 0xff, 0xff, 0xff,
   0x07, 0x00, 0x00, 0x00, 0x00, 0x00, 0x00, 0x00, 0x00, 0xe0, 0xff, 0xff,
   0xff, 0xff, 0xff, 0xff, 0xff, 0xff, 0xff, 0xff, 0xff, 0xff, 0xff, 0xff,
   0xff, 0xff, 0xff, 0xff, 0xff, 0xff, 0xff, 0xff, 0xff, 0x07, 0x00, 0x00,
   0x00, 0x00, 0x00, 0x00, 0x00, 0x00, 0xe0, 0x03, 0x00, 0x00, 0x00, 0x00,
   0x00, 0x00, 0x00, 0x00, 0x00, 0x00, 0x00, 0x00, 0x00, 0x00, 0x00, 0x00,
   0x00, 0x00, 0x00, 0x00, 0x00, 0xc0, 0x07, 0x00, 0x00, 0x06, 0x00, 0x00,
   0x00, 0x00, 0x00, 0xe0, 0x03, 0x00, 0x00, 0x00, 0x00, 0x00, 0x00, 0x00,
   0x00, 0x00, 0x00, 0x00, 0x00, 0x00, 0x00, 0x00, 0x00, 0x00, 0x00, 0x00,
   0x00, 0x00, 0xc0, 0x07, 0x00, 0x00, 0x0c, 0x18, 0x3f, 0x3f, 0x00, 0x00,
   0xe0, 0x03, 0x00, 0x00, 0x00, 0x00, 0x00, 0x00, 0x00, 0x00, 0x00, 0x00,
   0x00, 0x00, 0x00, 0x00, 0x00, 0x00, 0x00, 0x00, 0x00, 0x00, 0x00, 0xc0,
   0x07, 0x00, 0x80, 0xff, 0x0f, 0x33, 0x33, 0x00, 0x00, 0xe0, 0x03, 0x00,
   0x00, 0x00, 0x00, 0x00, 0x00, 0x00, 0x00, 0x00, 0x00, 0x00, 0x00, 0x00,
   0x00, 0x00, 0x00, 0x00, 0x00, 0x00, 0x00, 0x00, 0xc0, 0x07, 0x00, 0x00,
   0x80, 0x01, 0x3f, 0x3f, 0x00, 0x00, 0xe0, 0x03, 0x00, 0x00, 0x00, 0x00,
   0x00, 0x00, 0x00, 0x00, 0x00, 0x00, 0x00, 0x00, 0x00, 0x00, 0x00, 0x00,
   0x00, 0x00, 0x00, 0x00, 0x00, 0xc0, 0x07, 0x00, 0x00, 0xb3, 0x01, 0x33,
   0x33, 0x00, 0x00, 0xe0, 0x03, 0x00, 0x00, 0x00, 0x00, 0x00, 0x00, 0x00,
   0x00, 0x00, 0x00, 0x00, 0x00, 0x00, 0x00, 0x00, 0x00, 0x00, 0x00, 0x00,
   0x00, 0x00, 0xc0, 0x07, 0x00, 0x00, 0x9e, 0x01, 0x3f, 0x3f, 0x00, 0x00,
   0xe0, 0x03, 0x00, 0x00, 0x00, 0x00, 0x00, 0x00, 0x06, 0x00, 0x00, 0x00,
   0x00, 0x00, 0x00, 0x00, 0x00, 0x00, 0x00, 0x00, 0x00, 0x00, 0x00, 0xc0,
   0x07, 0x00, 0xc0, 0xff, 0x3f, 0x03, 0x30, 0x00, 0x00, 0xe0, 0x83, 0x0f,
   0x00, 0x00, 0x00, 0x00, 0x00, 0x06, 0x00, 0x80, 0x01, 0x00, 0x00, 0x30,
   0x00, 0x00, 0x00, 0x00, 0x00, 0x00, 0x00, 0x00, 0xc0, 0x07, 0x00, 0x00,
   0x8c, 0x0d, 0xfb, 0x37, 0x00, 0x00, 0xe0, 0xc3, 0x1f, 0x00, 0x00, 0x00,
   0x00, 0x00, 0x06, 0x00, 0x80, 0x01, 0x00, 0x00, 0x30, 0x00, 0x00, 0x00,
   0x00, 0x00, 0x00, 0x00, 0x00, 0xc0, 0x07, 0x00, 0x00, 0x8c, 0x0d, 0x33,
   0x33, 0x00, 0x00, 0xe0, 0xe3, 0x10, 0x00, 0x00, 0x00, 0x00, 0x00, 0x06,
   0x00, 0x80, 0x01, 0x00, 0x00, 0x30, 0x00, 0x00, 0x00, 0x00, 0x00, 0x00,
   0x00, 0x00, 0xc0, 0x07, 0x00, 0x80, 0xff, 0x0d, 0xf3, 0x33, 0x00, 0x00,
   0xe0, 0x63, 0x00, 0x3c, 0xb0, 0xe3, 0xc1, 0x1e, 0x06, 0x1f, 0xc0, 0x0f,
   0x1f, 0x87, 0xfb, 0x01, 0x00, 0x00, 0x00, 0x00, 0x00, 0x00, 0x00, 0xc0,
   0x07, 0x00, 0x00, 0x8c, 0x0d, 0x33, 0x33, 0x00, 0x00, 0xe0, 0x63, 0x00,
   0x7e, 0xf0, 0xf7, 0xc1, 0x3f, 0xc6, 0x3f, 0xc0, 0xcf, 0x3f, 0x86, 0xf9,
   0x01, 0x00, 0x00, 0x00, 0x00, 0x00, 0x00, 0x00, 0xc0, 0x07, 0x00, 0x00,
   0xbf, 0x0d, 0xf3, 0x33, 0x00, 0x00, 0xe0, 0xc3, 0x07, 0xe2, 0x70, 0x9e,
   0xc3, 0x71, 0xc6, 0x70, 0x80, 0xc1, 0x70, 0xcc, 0x30, 0x00, 0x00, 0x00,
   0x00, 0x00, 0x00, 0x00, 0x00, 0xc0, 0x07, 0x00, 0x80, 0xed, 0x0d, 0x33,
   0x3f, 0x00, 0x00, 0xe0, 0x83, 0x1f, 0xc0, 0x30, 0x0c, 0xc3, 0x60, 0x66,
   0x60, 0x80, 0x61, 0x60, 0xcc, 0x30, 0x00, 0x00, 0x00, 0x00, 0x00, 0x00,
   0x00, 0x00, 0xc0, 0x07, 0x00, 0xc0, 0xcc, 0x0c, 0xff, 0x33, 0x00, 0x00,
   0xe0, 0x03, 0x38, 0xfc, 0x30, 0x0c, 0xc3, 0x60, 0xe6, 0x7f, 0x80, 0xe1,
   0x7f, 0x78, 0x30, 0x00, 0x00, 0x00, 0x00, 0x00, 0x00, 0x00, 0x00, 0xc0,
   0x07, 0x00, 0x00, 0xcf, 0x0c, 0x03, 0x3f, 0x00, 0x00, 0xe0, 0x03, 0x30,
   0xff, 0x30, 0x0c, 0xc3, 0x60, 0xe6, 0x7f, 0x80, 0xe1, 0x7f, 0x78, 0x30,
   0x00, 0x00, 0x00, 0x00, 0x00, 0x00, 0x00, 0x00, 0xc0, 0x07, 0x00, 0x00,
   0x66, 0x0c, 0x03, 0x1b, 0x00, 0x00, 0xe0, 0x03, 0x30, 0xc3, 0x30, 0x0c,
   0xc3, 0x60, 0x66, 0x00, 0x80, 0x61, 0x00, 0xcc, 0x30, 0x00, 0x00, 0x00,
   0x00, 0x00, 0x00, 0x00, 0x00, 0xc0, 0x07, 0x00, 0x00, 0x00, 0x00, 0x00,
   0x00, 0x00, 0x00, 0xe0, 0x23, 0x38, 0xe3, 0x30, 0x0c, 0xc3, 0x71, 0xc6,
   0x40, 0x80, 0xc1, 0x40, 0xcc, 0x30, 0x00, 0x00, 0x00, 0x00, 0x00, 0x00,
   0x00, 0x00, 0xc0, 0x07, 0x00, 0x00, 0x00, 0x00, 0x00, 0x00, 0x00, 0x00,
   0xe0, 0xe3, 0x1f, 0xff, 0x30, 0x0c, 0xc3, 0x3f, 0xc6, 0x7f, 0x80, 0xcf,
   0x7f, 0x86, 0xf1, 0x01, 0x00, 0x00, 0x00, 0x00, 0x00, 0x00, 0x00, 0xc0,
   0x07, 0x00, 0x00, 0x06, 0x00, 0x18, 0x00, 0x00, 0x00, 0xe0, 0xc3, 0x0f,
   0xde, 0x30, 0x0c, 0xc3, 0x1e, 0x06, 0x3f, 0x00, 0x0f, 0x3f, 0x87, 0xe3,
   0x01, 0x00, 0x00, 0x00, 0x00, 0x00, 0x00, 0x00, 0xc0, 0x07, 0x00, 0x00,
   0x06, 0x00, 0xfc, 0x07, 0x00, 0x00, 0xe0, 0x03, 0x00, 0x00, 0x00, 0x00,
   0xc0, 0x00, 0x00, 0x00, 0x00, 0x00, 0x00, 0x00, 0x00, 0x00, 0x00, 0x00,
   0x00, 0x00, 0x00, 0x00, 0x00, 0xc0, 0x07, 0x00, 0x00, 0xff, 0x1f, 0x06,
   0x06, 0x00, 0x00, 0xe0, 0x03, 0x00, 0x00, 0x00, 0x00, 0xc0, 0x00, 0x00,
   0x00, 0x00, 0x00, 0x00, 0x00, 0x00, 0x00, 0x00, 0x00, 0x00, 0x00, 0x00,
   0x00, 0x00, 0xc0, 0x07, 0x00, 0x00, 0x03, 0x00, 0xff, 0x1f, 0x00, 0x00,
   0xe0, 0x03, 0x00, 0x00, 0x00, 0x00, 0xc0, 0x00, 0x00, 0x00, 0x00, 0x00,
   0x00, 0x00, 0x00, 0x00, 0x00, 0x00, 0x00, 0x00, 0x00, 0x00, 0x00, 0xc0,
   0x07, 0x00, 0x80, 0xfd, 0x87, 0xc7, 0x18, 0x00, 0x00, 0xe0, 0x03, 0x00,
   0x00, 0x00, 0x00, 0xc0, 0x00, 0x00, 0x00, 0x00, 0x00, 0x00, 0x00, 0x00,
   0x00, 0x00, 0x00, 0x00, 0x00, 0x00, 0x00, 0x00, 0xc0, 0x07, 0x00, 0xc0,
   0x00, 0x00, 0x66, 0x18, 0x00, 0x00, 0xe0, 0x03, 0x00, 0x00, 0x00, 0x00,
   0x00, 0x00, 0x00, 0x00, 0x00, 0x00, 0x00, 0x00, 0x00, 0x00, 0x00, 0x00,
   0x00, 0x00, 0x00, 0x00, 0x00, 0xc0, 0x07, 0x00, 0x00, 0xff, 0x07, 0xfe,
   0x1f, 0x00, 0x00, 0xe0, 0x03, 0x00, 0x00, 0x00, 0x00, 0x00, 0x00, 0x00,
   0x00, 0x00, 0x00, 0x00, 0x00, 0x00, 0x00, 0x00, 0x00, 0x00, 0x00, 0x00,
   0x00, 0x00, 0xc0, 0x07, 0x00, 0x00, 0x18, 0x06, 0x70, 0x00, 0x00, 0x00,
   0xe0, 0x03, 0x00, 0x00, 0x00, 0x00, 0x00, 0x00, 0x00, 0x00, 0x00, 0x00,
   0x00, 0x00, 0x00, 0x00, 0x00, 0x00, 0x00, 0x00, 0x00, 0x00, 0x00, 0xc0,
   0x07, 0x00, 0x00, 0xdb, 0x06, 0xdc, 0x0c, 0x00, 0x00, 0xe0, 0x03, 0x00,
   0x00, 0x00, 0x00, 0x00, 0x00, 0x00, 0x00, 0x00, 0x00, 0x00, 0x00, 0x00,
   0x00, 0x00, 0x00, 0x00, 0x00, 0x00, 0x00, 0x00, 0xc0, 0x07, 0x00, 0x00,
   0x7e, 0x06, 0xe7, 0x07, 0x00, 0x00, 0xe0, 0x03, 0x00, 0x00, 0x00, 0x00,
   0x30, 0x00, 0x00, 0x00, 0x00, 0x00, 0x00, 0x00, 0x0c, 0x00, 0x00, 0x63,
   0x00, 0x00, 0x60, 0x00, 0x00, 0xc0, 0x07, 0x00, 0x80, 0xff, 0x07, 0xb8,
   0x03, 0x00, 0x00, 0xe0, 0x03, 0x3f, 0x00, 0x00, 0x60, 0x30, 0x00, 0x00,
   0x00, 0xff, 0x00, 0x0c, 0x00, 0x0c, 0x00, 0x00, 0x63, 0x00, 0x00, 0x60,
   0x00, 0x00, 0xc0, 0x07, 0x00, 0x00, 0x3c, 0x06, 0xcf, 0x07, 0x00, 0x00,
   0xe0, 0x83, 0x7f, 0x00, 0x00, 0x60, 0x30, 0x00, 0x00, 0x00, 0xff, 0x00,
   0x0c, 0x00, 0x0c, 0x00, 0x00, 0x03, 0x00, 0x00, 0x60, 0x00, 0x00, 0xc0,
   0x07, 0x00, 0x00, 0x7e, 0x3c, 0xf0, 0x0d, 0x00, 0x00, 0xe0, 0xc3, 0xe1,
   0x00, 0x00, 0x60, 0x30, 0x00, 0x00, 0x00, 0x03, 0x00, 0x0c, 0x00, 0x0c,
   0x00, 0x00, 0x03, 0x00, 0x00, 0x60, 0x00, 0x00, 0xc0, 0x07, 0x00, 0x00,
   0xdb, 0x3c, 0x9c, 0x19, 0x00, 0x00, 0xe0, 0xc3, 0xc0, 0xb0, 0x07, 0xf0,
   0xb3, 0x07, 0x3e, 0x00, 0x03, 0x00, 0x8c, 0x3d, 0x0c, 0x03, 0x78, 0x63,
   0x7c, 0xec, 0x61, 0x78, 0x18, 0xd8, 0x07, 0x00, 0x80, 0x99, 0xb9, 0xe7,
   0x71, 0x00, 0x00, 0xe0, 0x63, 0x80, 0xf1, 0x07, 0xf0, 0xf3, 0x87, 0x7f,
   0x00, 0x03, 0x00, 0x8c, 0x3f, 0x8c, 0x01, 0xfc, 0x63, 0xfe, 0xfc, 0x63,
   0xfc, 0x18, 0xd8, 0x07, 0x00, 0x00, 0x18, 0x30, 0xc0, 0x00, 0x00, 0x00,
   0xe0, 0x63, 0x80, 0x71, 0x0e, 0x60, 0x70, 0x8e, 0xe1, 0x00, 0xff, 0x00,
   0x8c, 0x73, 0xcc, 0x00, 0x8e, 0x63, 0x86, 0x1c, 0x67, 0xc4, 0x31, 0xcc,
   0x07, 0x00, 0x00, 0x00, 0x00, 0x00, 0x00, 0x00, 0x00, 0xe0, 0x63, 0x80,
   0x31, 0x0c, 0x60, 0x30, 0xcc, 0xc0, 0x00, 0xff, 0x00, 0x8c, 0x61, 0x6c,
   0x00, 0x06, 0x63, 0x0e, 0x0c, 0x66, 0x80, 0x31, 0xcc, 0x07, 0x00, 0x00,
   0x00, 0x00, 0x00, 0x00, 0x00, 0x00, 0xe0, 0x63, 0x80, 0x31, 0x0c, 0x60,
   0x30, 0xcc, 0xff, 0x00, 0x03, 0x7c, 0x8c, 0x61, 0x3c, 0x00, 0x06, 0x63,
   0x7c, 0x0c, 0x66, 0xf8, 0x61, 0xc6, 0x07, 0x00, 0x00, 0x00, 0x00, 0x00,
   0x00, 0x00, 0x00, 0xe0, 0x63, 0x80, 0x31, 0x0c, 0x60, 0x30, 0xcc, 0xff,
   0x00, 0x03, 0x7c, 0x8c, 0x61, 0x3c, 0x00, 0x06, 0x63, 0xf0, 0x0c, 0x66,
   0xfe, 0x61, 0xc6, 0x07, 0x00, 0x00, 0x00, 0x00, 0x00, 0x00, 0x00, 0x00,
   0xe0, 0xc3, 0xc0, 0x30, 0x0c, 0x60, 0x30, 0xcc, 0x00, 0x00, 0x03, 0x00,
   0x8c, 0x61, 0x6c, 0x00, 0x06, 0x63, 0xc0, 0x0c, 0x66, 0x86, 0xc1, 0xc3,
   0x07, 0x00, 0x00, 0x00, 0x00, 0x00, 0x00, 0x00, 0x00, 0xe0, 0xc3, 0xe1,
   0x30, 0x0c, 0x60, 0x30, 0x8c, 0x81, 0x00, 0x03, 0x00, 0x8c, 0x61, 0xcc,
   0x00, 0x8e, 0x63, 0xc2, 0x1c, 0x67, 0xc6, 0xc1, 0xc3, 0x07, 0x00, 0x00,
   0x00, 0x00, 0x00, 0x00, 0x00, 0x00, 0xe0, 0x83, 0x7f, 0x30, 0x0c, 0xe0,
   0x33, 0x8c, 0xff, 0x00, 0xff, 0x00, 0x8c, 0x61, 0x8c, 0x01, 0xfc, 0x63,
   0xfe, 0xfc, 0x63, 0xfe, 0x81, 0xc1, 0x07, 0x00, 0x00, 0x00, 0x00, 0x00,
   0x00, 0x00, 0x00, 0xe0, 0x03, 0x3f, 0x30, 0x0c, 0xc0, 0x33, 0x0c, 0x7e,
   0x00, 0xff, 0x00, 0x8c, 0x61, 0x0c, 0x03, 0x78, 0x63, 0x3c, 0xec, 0x61,
   0xbc, 0x81, 0xc1, 0x07, 0x00, 0x00, 0xf0, 0xff, 0x7f, 0x00, 0x00, 0x00,
   0xe0, 0x03, 0x00, 0x00, 0x00, 0x00, 0x00, 0x00, 0x00, 0x00, 0x00, 0x00,
   0x00, 0x00, 0x00, 0x00, 0x00, 0x00, 0x00, 0x0c, 0x00, 0x00, 0x80, 0xc1,
   0x07, 0x00, 0x00, 0xf0, 0xff, 0x3f, 0x00, 0x00, 0x00, 0xe0, 0x03, 0x00,
   0x00, 0x00, 0x00, 0x00, 0x00, 0x00, 0x00, 0x00, 0x00, 0x00, 0x00, 0x00,
   0x00, 0x00, 0x00, 0x00, 0x0c, 0x00, 0x00, 0xc0, 0xc0, 0x07, 0x00, 0x00,
   0x00, 0x30, 0x00, 0x00, 0x00, 0x00, 0xe0, 0x03, 0x00, 0x00, 0x00, 0x00,
   0x00, 0x00, 0x00, 0x00, 0x00, 0x00, 0x00, 0x00, 0x00, 0x00, 0x00, 0x00,
   0x00, 0x0c, 0x00, 0x00, 0xf0, 0xc0, 0x07, 0x00, 0x00, 0x00, 0x30, 0x00,
   0x00, 0x00, 0x00, 0xe0, 0x03, 0x00, 0x00, 0x00, 0x00, 0x00, 0x00, 0x00,
   0x00, 0x00, 0x00, 0x00, 0x00, 0x00, 0x00, 0x00, 0x00, 0x00, 0x0c, 0x00,
   0x00, 0x70, 0xc0, 0x07, 0x00, 0x00, 0x00, 0x30, 0x00, 0x00, 0x00, 0x00,
   0xe0, 0x03, 0x00, 0x00, 0x00, 0x00, 0x00, 0x00, 0x00, 0x00, 0x00, 0x00,
   0x00, 0x00, 0x00, 0x00, 0x00, 0x00, 0x00, 0x00, 0x00, 0x00, 0x00, 0xc0,
   0x07, 0x00, 0x00, 0x00, 0x30, 0x00, 0x00, 0x00, 0x00, 0xe0, 0x03, 0x00,
   0x00, 0x00, 0x00, 0x00, 0x00, 0x00, 0x00, 0x00, 0x00, 0x00, 0x00, 0x00,
   0x00, 0x00, 0x00, 0x00, 0x00, 0x00, 0x00, 0x00, 0xc0, 0x07, 0x00, 0x00,
   0x00, 0x30, 0x00, 0x00, 0x00, 0x00, 0xe0, 0xff, 0xff, 0xff, 0xff, 0xff,
   0xff, 0xff, 0xff, 0xff, 0xff, 0xff, 0xff, 0xff, 0xff, 0xff, 0xff, 0xff,
   0xff, 0xff, 0xff, 0xff, 0xff, 0xff, 0x07, 0x00, 0x00, 0xf8, 0xff, 0xff,
   0x00, 0x00, 0x00, 0xe0, 0xff, 0xff, 0xff, 0xff, 0xff, 0xff, 0xff, 0xff,
   0xff, 0xff, 0xff, 0xff, 0xff, 0xff, 0xff, 0xff, 0xff, 0xff, 0xff, 0xff,
   0xff, 0xff, 0xff, 0x07, 0x00, 0x00, 0xf8, 0xff, 0xff, 0x00, 0x00, 0x00,
   0xe0, 0xff, 0xff, 0xff, 0xff, 0xff, 0xff, 0xff, 0xff, 0xff, 0xff, 0xff,
   0xff, 0xff, 0xff, 0xff, 0xff, 0xff, 0xff, 0xff, 0xff, 0xff, 0xff, 0xff,
   0x07, 0x00, 0x00, 0x00, 0x70, 0x00, 0x00, 0x00, 0x00, 0xe0, 0xff, 0xff,
   0xff, 0xff, 0xff, 0xff, 0xff, 0xff, 0xff, 0xff, 0xff, 0xff, 0xff, 0xff,
   0xff, 0xff, 0xff, 0xff, 0xff, 0xff, 0xff, 0xff, 0xff, 0x07, 0x00, 0x00,
   0x00, 0x70, 0x00, 0x00, 0x00, 0x00, 0xe0, 0xff, 0xff, 0xff, 0xff, 0xff,
   0xff, 0xff, 0xff, 0xff, 0xff, 0xff, 0xff, 0xff, 0xff, 0xff, 0xff, 0xff,
   0xff, 0xff, 0xff, 0xff, 0xff, 0xff, 0x07, 0x00, 0x00, 0x00, 0x70, 0x00,
   0x00, 0x00, 0x00, 0x00, 0x00, 0x00, 0x00, 0x00, 0x00, 0x00, 0x00, 0x00,
   0x00, 0x00, 0x00, 0x00, 0x00, 0x00, 0x00, 0x00, 0x00, 0x00, 0x00, 0x00,
   0x00, 0x00, 0x00, 0x00, 0x00, 0x00, 0x00, 0xf8, 0x00, 0x00, 0x00, 0x00,
   0x00, 0x00, 0x00, 0x00, 0x00, 0x00, 0x00, 0x00, 0x00, 0x00, 0x00, 0x00,
   0x00, 0x00, 0x00, 0x00, 0x00, 0x00, 0x00, 0x00, 0x00, 0x00, 0x00, 0x00,
   0x00, 0x00, 0x00, 0x00, 0xd8, 0x01, 0x00, 0x00, 0x00, 0x00, 0x00, 0x00,
   0x00, 0x00, 0x00, 0x00, 0x00, 0x00, 0x00, 0x00, 0x00, 0x00, 0x00, 0x00,
   0x00, 0x00, 0x00, 0x00, 0x00, 0x00, 0x00, 0x00, 0x00, 0x00, 0x00, 0x00,
   0x00, 0x9c, 0x03, 0x00, 0x00, 0x00, 0x00, 0x00, 0x00, 0x00, 0x00, 0x00,
   0x00, 0x00, 0x00, 0x00, 0x00, 0x00, 0x00, 0x00, 0x00, 0x00, 0x00, 0x00,
   0x00, 0x00, 0x00, 0x00, 0x00, 0x00, 0x00, 0x00, 0x00, 0x00, 0x0e, 0x07,
   0x00, 0x00, 0x00, 0x00, 0x00, 0x00, 0x00, 0x00, 0x00, 0x00, 0x00, 0x00,
   0x00, 0x00, 0x00, 0x00, 0x00, 0x00, 0x00, 0x00, 0x00, 0x00, 0x00, 0x00,
   0x00, 0x00, 0x00, 0x00, 0x00, 0x00, 0x00, 0x07, 0x0e, 0x00, 0x00, 0x00,
   0x00, 0x00, 0x00, 0x00, 0x00, 0x00, 0x00, 0x00, 0x00, 0x00, 0x00, 0x00,
   0x00, 0x00, 0x00, 0x00, 0x00, 0x00, 0x00, 0x00, 0x00, 0x00, 0x00, 0x00,
   0x00, 0x00, 0x00, 0x80, 0x03, 0x1c, 0x00, 0x00, 0x00, 0x00, 0x00, 0x00,
   0x00, 0x00, 0x00, 0x00, 0x00, 0x00, 0x00, 0x00, 0x00, 0x00, 0x00, 0x00,
   0x00, 0x00, 0x00, 0x00, 0x00, 0x00, 0x00, 0x00, 0x00, 0x00, 0x00, 0x00,
   0xe0, 0x01, 0x78, 0x00, 0x00, 0x00, 0x00, 0x00, 0x00, 0x00, 0x00, 0x00,
   0x00, 0x00, 0x00, 0x00, 0x00, 0x00, 0x00, 0x00, 0x00, 0x00, 0x00, 0x00,
   0x00, 0x00, 0x00, 0x18, 0x00, 0x00, 0x00, 0x00, 0x00, 0x78, 0x00, 0xf0,
   0x00, 0x00, 0x00, 0x00, 0xc0, 0x07, 0x1c, 0xf8, 0xc0, 0x0f, 0xe0, 0xf0,
   0x03, 0x1e, 0xfe, 0xc1, 0x07, 0x1e, 0xc0, 0x80, 0x1f, 0xc0, 0x0f, 0x00,
   0x18, 0x00, 0x00, 0x00, 0x00, 0x00, 0x38, 0x00, 0xc0, 0x00, 0x00, 0x00,
   0x00, 0xe0, 0x0f, 0x1f, 0xfc, 0xe1, 0x1f, 0xe0, 0xf0, 0x03, 0x3f, 0xfe,
   0xe1, 0x0f, 0x7f, 0xc0, 0x80, 0x7f, 0xf0, 0x1f, 0x00, 0x18, 0x00, 0x00,
   0x00, 0x00, 0x00, 0x00, 0x00, 0x00, 0x00, 0x00, 0x00, 0x00, 0x60, 0x0c,
   0x1b, 0x84, 0x23, 0x38, 0xd0, 0x30, 0x80, 0x23, 0xc0, 0x70, 0x9c, 0x63,
   0xe0, 0x81, 0x61, 0x38, 0x10, 0x00, 0x18, 0x00, 0x00, 0x00, 0x00, 0x00,
   0x00, 0x00, 0x00, 0x00, 0x00, 0x00, 0x00, 0x30, 0x18, 0x18, 0x00, 0x03,
   0x30, 0xd8, 0x30, 0xc0, 0x01, 0xc0, 0x30, 0x98, 0xc1, 0xe0, 0x81, 0x61,
   0x18, 0x00, 0x1e, 0xd8, 0x03, 0x0f, 0x00, 0x00, 0x00, 0x00, 0x00, 0x00,
   0x00, 0x00, 0x00, 0x00, 0x30, 0x18, 0x18, 0x00, 0x03, 0x38, 0xc8, 0xf0,
   0xc1, 0x00, 0xc0, 0x70, 0x9c, 0xc1, 0x30, 0x83, 0x61, 0x0c, 0x00, 0x3f,
   0xf8, 0xc7, 0x1f, 0x00, 0x00, 0x00, 0x00, 0x00, 0x00, 0x00, 0x00, 0x00,
   0x00, 0x30, 0x18, 0x18, 0x80, 0x83, 0x0f, 0xc4, 0xf0, 0xc3, 0x1e, 0xe0,
   0xc0, 0x87, 0xe3, 0x30, 0x83, 0x3f, 0x0c, 0x00, 0x71, 0x38, 0xce, 0x10,
   0x00, 0x00, 0x00, 0x00, 0x00, 0x00, 0x00, 0x00, 0x00, 0x00, 0x30, 0x18,
   0x18, 0x80, 0x81, 0x1f, 0xc6, 0x10, 0xc7, 0x3f, 0x60, 0xe0, 0x0f, 0xff,
   0x30, 0x83, 0x3f, 0x0c, 0x00, 0x60, 0x18, 0x6c, 0x00, 0x00, 0x00, 0x00,
   0x00, 0x00, 0x00, 0x00, 0x00, 0x00, 0x00, 0x30, 0x18, 0x18, 0xc0, 0x00,
   0x38, 0xc2, 0x00, 0xc6, 0x71, 0x60, 0x70, 0x1c, 0xde, 0x18, 0x86, 0x61,
   0x0c, 0x00, 0x7e, 0x18, 0x6c, 0x00, 0x00, 0x00, 0x00, 0x00, 0x00, 0x00,
   0x00, 0x00, 0x00, 0x00, 0x30, 0x18, 0x18, 0x60, 0x00, 0x30, 0xff, 0x03,
   0xc6, 0x60, 0x70, 0x30, 0x18, 0xc0, 0xf8, 0x87, 0xc1, 0x0c, 0x80, 0x7f,
   0x18, 0x6c, 0x00, 0x00, 0x00, 0x00, 0x00, 0x00, 0x00, 0x00, 0x00, 0x00,
   0x00, 0x30, 0x18, 0x18, 0x30, 0x00, 0x30, 0xff, 0x03, 0xc6, 0x60, 0x30,
   0x30, 0x18, 0xe0, 0xfc, 0x8f, 0xc1, 0x18, 0x80, 0x61, 0x18, 0x6c, 0x00,
   0x00, 0x00, 0x00, 0x00, 0x10, 0x00, 0x00, 0x00, 0x00, 0x00, 0x60, 0x0c,
   0x18, 0x18, 0x20, 0x38, 0xc0, 0x08, 0x87, 0x71, 0x30, 0x70, 0x1c, 0x71,
   0x0c, 0x8c, 0xe1, 0x38, 0x90, 0x71, 0x38, 0xce, 0x10, 0x00, 0x00, 0x00,
   0x00, 0x38, 0x00, 0x00, 0x00, 0x00, 0x00, 0xe0, 0x0f, 0xff, 0xfc, 0xe3,
   0x1f, 0xc0, 0xf8, 0x83, 0x3f, 0x38, 0xe0, 0x0f, 0x3f, 0x0c, 0x8c, 0x7f,
   0xf0, 0x9f, 0x7f, 0xf8, 0xc7, 0x1f, 0x00, 0x00, 0x00, 0x00, 0x30, 0x00,
   0x00, 0x00, 0x00, 0x00, 0xc0, 0x07, 0xff, 0xfc, 0xc3, 0x0f, 0xc0, 0xf0,
   0x01, 0x1e, 0x18, 0xc0, 0x07, 0x1e, 0x06, 0x98, 0x3f, 0xc0, 0x0f, 0x6f,
   0xd8, 0x03, 0x0f, 0x00, 0x00, 0x00, 0x00, 0x70, 0x00, 0x00, 0x00, 0x00,
   0x00, 0x00, 0x00, 0x00, 0x00, 0x00, 0x00, 0x00, 0x00, 0x00, 0x00, 0x00,
   0x00, 0x00, 0x00, 0x00, 0x00, 0x00, 0x00, 0x00, 0x00, 0x00, 0x00, 0x00,
   0x00, 0x00, 0x00, 0xf8, 0xff, 0xff, 0x00, 0x00, 0x00, 0x00, 0x00, 0x00,
   0x00, 0x00, 0x00, 0x00, 0x00, 0x00, 0x00, 0x00, 0x00, 0x00, 0x00, 0x00,
   0x00, 0x00, 0x00, 0x00, 0x00, 0x00, 0x00, 0x00, 0x00, 0x00, 0x00, 0x00,
   0xf8, 0xff, 0xff, 0x00, 0x00, 0x00, 0x00, 0x00, 0x00, 0x00, 0x00, 0x00,
   0x00, 0x00, 0x00, 0x00, 0x00, 0x00, 0x00, 0x00, 0x00, 0x00, 0x00, 0x00,
   0x00, 0x00, 0x00, 0x00, 0x00, 0x00, 0x00, 0x00, 0x00, 0xc0, 0x01, 0x0c,
   0x00, 0x00, 0x00, 0xe0, 0xff, 0xff, 0xff, 0xff, 0xff, 0xff, 0xff, 0xff,
   0xff, 0xff, 0xff, 0xff, 0xff, 0xff, 0xff, 0xff, 0xff, 0xff, 0xff, 0xff,
   0xff, 0xff, 0xff, 0x07, 0x00, 0x00, 0x80, 0x01, 0x0c, 0x00, 0x00, 0x00,
   0xe0, 0xff, 0xff, 0xff, 0xff, 0xff, 0xff, 0xff, 0xff, 0xff, 0xff, 0xff,
   0xff, 0xff, 0xff, 0xff, 0xff, 0xff, 0xff, 0xff, 0xff, 0xff, 0xff, 0xff,
   0x07, 0x00, 0x00, 0x80, 0x01, 0x0c, 0x00, 0x00, 0x00, 0xe0, 0xff, 0xff,
   0xff, 0xff, 0xff, 0xff, 0xff, 0xff, 0xff, 0xff, 0xff, 0xff, 0xff, 0xff,
   0xff, 0xff, 0xff, 0xff, 0xff, 0xff, 0xff, 0xff, 0xff, 0x07, 0x00, 0x00,
   0x00, 0x03, 0x06, 0x00, 0x00, 0x00, 0xe0, 0xff, 0xff, 0xff, 0xff, 0xff,
   0xff, 0xff, 0xff, 0xff, 0xff, 0xff, 0xff, 0xff, 0xff, 0xff, 0xff, 0xff,
   0xff, 0xff, 0xff, 0xff, 0xff, 0xff, 0x07, 0x00, 0x00, 0x00, 0x03, 0x06,
   0x00, 0x00, 0x00, 0xe0, 0xff, 0xff, 0xff, 0xff, 0xff, 0xff, 0xff, 0xff,
   0xff, 0xff, 0xff, 0xff, 0xff, 0xff, 0xff, 0xff, 0xff, 0xff, 0xff, 0xff,
   0xff, 0xff, 0xff, 0x07, 0x00, 0x00, 0x00, 0x06, 0x03, 0x00, 0x00, 0x00,
   0xe0, 0x03, 0x00, 0x00, 0x00, 0x00, 0x00, 0x00, 0x00, 0x00, 0x00, 0x00,
   0x00, 0x00, 0x00, 0x00, 0x00, 0x00, 0x00, 0x00, 0x00, 0x00, 0x00, 0xc0,
   0x07, 0x00, 0x00, 0x00, 0x8e, 0x03, 0x00, 0x00, 0x00, 0xe0, 0x03, 0x00,
   0x00, 0x00, 0x00, 0x00, 0x00, 0x00, 0x00, 0x00, 0x00, 0x00, 0x00, 0x00,
   0x00, 0x00, 0x00, 0x00, 0x00, 0x00, 0x00, 0x00, 0xc0, 0x07, 0x00, 0x00,
   0x00, 0xdc, 0x01, 0x00, 0x00, 0x00, 0xe0, 0x03, 0x00, 0x00, 0x00, 0x00,
   0x00, 0x00, 0x00, 0x00, 0x00, 0x00, 0x00, 0x00, 0x00, 0x00, 0x00, 0x00,
   0x00, 0x00, 0x00, 0x00, 0x00, 0xc0, 0x07, 0x00, 0x00, 0x00, 0xf8, 0x00,
   0x00, 0x00, 0x00, 0xe0, 0x03, 0x00, 0x00, 0x00, 0x00, 0x00, 0x00, 0x00,
   0x00, 0x00, 0x00, 0x00, 0x00, 0x00, 0x00, 0x00, 0x00, 0x00, 0x00, 0x00,
   0x00, 0x00, 0xc0, 0x07, 0x00, 0x00, 0x00, 0xf0, 0x00, 0x00, 0x00, 0x00,
   0xe0, 0x03, 0x00, 0x00, 0x00, 0x00, 0x00, 0x00, 0x00, 0x00, 0x00, 0x00,
   0x00, 0x00, 0x00, 0x00, 0x00, 0x00, 0x00, 0x00, 0x00, 0x00, 0x00, 0xc0,
   0x07, 0x00, 0x00, 0x00, 0xfc, 0x01, 0x00, 0x00, 0x00, 0xe0, 0x03, 0x00,
   0x00, 0x00, 0x00, 0x00, 0x00, 0x00, 0x00, 0x00, 0x00, 0x00, 0x00, 0x00,
   0x00, 0x00, 0x00, 0x00, 0x00, 0x00, 0x00, 0x00, 0xc0, 0x07, 0x00, 0x00,
   0x00, 0xde, 0x03, 0x00, 0x00, 0x00, 0xe0, 0x03, 0x00, 0x00, 0x00, 0x00,
   0x00, 0x00, 0x00, 0x00, 0x00, 0x00, 0x00, 0x00, 0x00, 0x00, 0x00, 0x00,
   0x00, 0x00, 0x00, 0x00, 0x00, 0xc0, 0x07, 0x00, 0x00, 0x80, 0x87, 0x0f,
   0x00, 0x00, 0x00, 0xe0, 0x03, 0x00, 0x00, 0x00, 0x00, 0x00, 0x00, 0x00,
   0x00, 0x00, 0x00, 0x00, 0x00, 0x00, 0x00, 0x00, 0x00, 0x00, 0x00, 0x00,
   0x00, 0x00, 0xc0, 0x07, 0x00, 0x00, 0xe0, 0x03, 0x3e, 0x00, 0x00, 0x00,
   0xe0, 0x03, 0x00, 0x00, 0x00, 0x00, 0x00, 0x00, 0x00, 0x00, 0x00, 0x00,
   0x00, 0x00, 0x00, 0x00, 0x00, 0x00, 0x00, 0x00, 0x00, 0x00, 0x00, 0xc0,
   0x07, 0x00, 0x00, 0xfc, 0x00, 0xf8, 0x00, 0x00, 0x00, 0xe0, 0x03, 0x00,
   0x00, 0x00, 0x00, 0x00, 0x00, 0x00, 0x00, 0x00, 0x00, 0x00, 0x00, 0x00,
   0x00, 0x00, 0x00, 0x00, 0x00, 0x00, 0x00, 0x00, 0xc0, 0x07, 0x00, 0x00,
   0x18, 0x00, 0xe0, 0x00, 0x00, 0x00, 0xe0, 0x03, 0x00, 0x00, 0x00, 0x00,
   0x00, 0x00, 0x00, 0x00, 0x00, 0x00, 0x00, 0x00, 0x00, 0x00, 0x00, 0x00,
   0x00, 0x00, 0x00, 0x00, 0x00, 0xc0, 0x07, 0x00, 0x00, 0x00, 0x00, 0x00,
   0x00, 0x00, 0x00, 0xe0, 0x03, 0x00, 0x00, 0x00, 0x00, 0x00, 0x00, 0x00,
   0x00, 0x00, 0x00, 0x00, 0x00, 0x00, 0x00, 0x00, 0x00, 0x00, 0x00, 0x00,
   0x00, 0x00, 0xc0, 0x07, 0x00, 0x00, 0x00, 0x00, 0x00, 0x00, 0x00, 0x00,
   0xe0, 0x03, 0x00, 0x00, 0x00, 0x00, 0x00, 0x00, 0x00, 0x00, 0x00, 0x00,
   0x00, 0x00, 0x00, 0x00, 0x00, 0x00, 0x00, 0x00, 0x00, 0x00, 0x00, 0xc0,
   0x07, 0x00, 0x00, 0x00, 0x00, 0x00, 0x00, 0x00, 0x00, 0xe0, 0x03, 0x00,
   0x00, 0x00, 0x00, 0x00, 0x00, 0x00, 0x00, 0x00, 0x00, 0x00, 0x00, 0x00,
   0x00, 0x00, 0x00, 0x00, 0x00, 0x00, 0x00, 0x00, 0xc0, 0x07, 0x00, 0x00,
   0x00, 0x00, 0x00, 0x00, 0x00, 0x00, 0xe0, 0x03, 0x00, 0x00, 0x00, 0x00,
   0x00, 0x00, 0x00, 0x00, 0x00, 0x00, 0x00, 0x00, 0x00, 0x00, 0x00, 0x00,
   0x00, 0x00, 0x00, 0x00, 0x00, 0xc0, 0x07, 0x00, 0x00, 0x00, 0x00, 0x00,
   0x00, 0x00, 0x00, 0xe0, 0x03, 0x00, 0x00, 0x00, 0x00, 0x00, 0x00, 0xe0,
   0x03, 0x00, 0x00, 0x00, 0x00, 0x00, 0x00, 0x00, 0x00, 0x00, 0x00, 0x00,
   0x00, 0x00, 0xc0, 0x07, 0x00, 0x00, 0x00, 0x00, 0x00, 0x00, 0x00, 0x00,
   0xe0, 0x03, 0x00, 0xf0, 0x03, 0x00, 0x00, 0x70, 0x38, 0x02, 0xff, 0x0f,
   0x00, 0x00, 0x00, 0x00, 0xfc, 0x7f, 0x00, 0x00, 0x00, 0x00, 0x00, 0xc0,
   0x07, 0x00, 0x00, 0x00, 0x00, 0x00, 0x00, 0x00, 0x00, 0xe0, 0x03, 0x00,
   0x38, 0x0e, 0x00, 0x00, 0x70, 0x38, 0x00, 0x1c, 0x08, 0x00, 0x00, 0xc0,
   0x01, 0x84, 0x43, 0x00, 0x00, 0xe0, 0x00, 0x00, 0xc0, 0x07, 0x00, 0x00,
   0x00, 0x00, 0x00, 0x00, 0x00, 0x00, 0xe0, 0x03, 0x00, 0x1c, 0x0c, 0x00,
   0x00, 0x70, 0x38, 0x00, 0x1c, 0x08, 0x00, 0x00, 0xc0, 0x01, 0x84, 0x43,
   0x00, 0x00, 0xe0, 0x00, 0x00, 0xc0, 0x07, 0x00, 0x00, 0xc0, 0x0c, 0x00,
   0x00, 0x00, 0x00, 0xe0, 0x03, 0x00, 0x1c, 0x08, 0x00, 0x00, 0x00, 0x38,
   0x00, 0x1c, 0x00, 0x00, 0x00, 0xc0, 0x01, 0x80, 0x03, 0x00, 0x00, 0xe0,
   0x00, 0x00, 0xc0, 0x07, 0x00, 0x00, 0xf8, 0x7f, 0xff, 0x00, 0x00, 0x00,
   0xe0, 0x03, 0x00, 0x3c, 0x00, 0x7e, 0xbc, 0x7f, 0xfc, 0x00, 0x1c, 0xc2,
   0x0f, 0xef, 0xe1, 0x07, 0x80, 0x03, 0x3f, 0xbf, 0xf7, 0x03, 0x00, 0xc0,
   0x07, 0x00, 0x00, 0xf8, 0x7f, 0xc3, 0x00, 0x00, 0x00, 0xe0, 0x03, 0x00,
   0xfc, 0x03, 0xe7, 0x78, 0x74, 0x38, 0x00, 0x1c, 0xe2, 0x1c, 0x9e, 0xc3,
   0x01, 0x80, 0x83, 0x73, 0x1c, 0xe1, 0x00, 0x00, 0xc0, 0x07, 0x00, 0x00,
   0xc0, 0x0c, 0xc3, 0x00, 0x00, 0x00, 0xe0, 0x03, 0x00, 0xf8, 0x8f, 0xc3,
   0x38, 0x70, 0x38, 0x00, 0xfc, 0x73, 0x38, 0x8e, 0xc3, 0x01, 0x80, 0xc3,
   0x61, 0xbc, 0xe0, 0x00, 0x00, 0xc0, 0x07, 0x00, 0x00, 0xf0, 0x3c, 0xc3,
   0x00, 0x00, 0x00, 0xe0, 0x03, 0x00, 0xe0, 0x9f, 0xc3, 0x39, 0x70, 0x38,
   0x00, 0x1c, 0x72, 0x38, 0x8e, 0xc3, 0x01, 0x80, 0xc3, 0xe1, 0x78, 0xe0,
   0x00, 0x00, 0xc0, 0x07, 0x00, 0x00, 0xf8, 0x7d, 0xff, 0x00, 0x00, 0x00,
   0xe0, 0x03, 0x00, 0x00, 0x9e, 0xff, 0x39, 0x70, 0x38, 0x00, 0x1c, 0x72,
   0x38, 0x8e, 0xc3, 0x01, 0x80, 0xc3, 0xff, 0x70, 0xe0, 0x00, 0x00, 0xc0,
   0x07, 0x00, 0x00, 0x98, 0x65, 0xc3, 0x00, 0x00, 0x00, 0xe0, 0x03, 0x00,
   0x04, 0x9c, 0x03, 0x38, 0x70, 0x38, 0x00, 0x1c, 0x70, 0x38, 0x8e, 0xc3,
   0x01, 0x80, 0xc3, 0x01, 0xf8, 0xe0, 0x00, 0x00, 0xc0, 0x07, 0x00, 0x00,
   0xf8, 0x7d, 0xc3, 0x00, 0x00, 0x00, 0xe0, 0x03, 0x00, 0x0c, 0x9c, 0x03,
   0x39, 0x70, 0x38, 0x00, 0x1c, 0x70, 0x38, 0x8e, 0xc3, 0x09, 0x80, 0xc3,
   0x81, 0xec, 0xe1, 0x04, 0x00, 0xc0, 0x07, 0x00, 0x00, 0xf8, 0x7d, 0xc3,
   0x00, 0x00, 0x00, 0xe0, 0x03, 0x00, 0x1c, 0x0e, 0x87, 0x38, 0x70, 0x38,
   0x00, 0x1c, 0xe0, 0x1c, 0x8e, 0xc3, 0x09, 0x80, 0x83, 0x43, 0xc4, 0xe1,
   0x04, 0x00, 0xc0, 0x07, 0x00, 0x00, 0x20, 0x00, 0xff, 0x00, 0x00, 0x00,
   0xe0, 0x03, 0x00, 0xf0, 0x07, 0x7e, 0x7c, 0xf8, 0xfc, 0x00, 0x7f, 0xc0,
   0x0f, 0xdf, 0x87, 0x07, 0xe0, 0x0f, 0x3f, 0xef, 0xc7, 0x03, 0x00, 0xc0,
   0x07, 0x00, 0x00, 0x60, 0x02, 0xc3, 0x00, 0x00, 0x00, 0xe0, 0x03, 0x00,
   0x00, 0x00, 0x00, 0x00, 0x00, 0x00, 0x00, 0x00, 0x00, 0x00, 0x00, 0x00,
   0x00, 0x00, 0x00, 0x00, 0x00, 0x00, 0x00, 0x00, 0xc0, 0x07, 0x00, 0x00,
   0xf0, 0x7f, 0xc3, 0x00, 0x00, 0x00, 0xe0, 0x03, 0x00, 0x00, 0x00, 0x00,
   0x00, 0x00, 0x00, 0x00, 0x00, 0x00, 0x00, 0x00, 0x00, 0x00, 0x00, 0x00,
   0x00, 0x00, 0x00, 0x00, 0x00, 0xc0, 0x07, 0x00, 0x00, 0xf0, 0x7f, 0xc3,
   0x00, 0x00, 0x00, 0xe0, 0x03, 0x00, 0x00, 0x00, 0x00, 0x00, 0x00, 0x00,
   0x00, 0x00, 0x00, 0x00, 0x00, 0x00, 0x00, 0x00, 0x00, 0x00, 0x00, 0x00,
   0x00, 0x00, 0xc0, 0x07, 0x00, 0x00, 0x38, 0x06, 0xff, 0x00, 0x00, 0x00,
   0xe0, 0x03, 0x00, 0x00, 0x00, 0x00, 0x00, 0x00, 0x00, 0x00, 0x00, 0x00,
   0x00, 0x00, 0x00, 0x00, 0x00, 0x00, 0x00, 0x00, 0x00, 0x00, 0x00, 0xc0,
   0x07, 0x00, 0x00, 0xfc, 0x7f, 0x7f, 0x00, 0x00, 0x00, 0xe0, 0x03, 0x00,
   0x00, 0x00, 0x00, 0x00, 0x00, 0x00, 0x00, 0x00, 0x00, 0x00, 0x00, 0x00,
   0x00, 0x00, 0x00, 0x00, 0x00, 0x00, 0x00, 0x00, 0xc0, 0x07, 0x00, 0x00,
   0xf4, 0x3f, 0x34, 0x00, 0x00, 0x00, 0xe0, 0x03, 0x00, 0x00, 0x00, 0x00,
   0x00, 0x00, 0x00, 0x00, 0x00, 0x00, 0x00, 0x00, 0x00, 0x00, 0x00, 0x00,
   0x00, 0x00, 0x00, 0x00, 0x00, 0xc0, 0x07, 0x00, 0x00, 0x30, 0x06, 0x36,
   0x00, 0x00, 0x00, 0xe0, 0x03, 0x00, 0x00, 0x00, 0x00, 0x00, 0x00, 0x00,
   0x00, 0x00, 0x00, 0x00, 0x00, 0x00, 0x00, 0x00, 0x00, 0x00, 0x00, 0x00,
   0x00, 0x00, 0xc0, 0x07, 0x00, 0x00, 0xf0, 0x7f, 0x36, 0x00, 0x00, 0x00,
   0xe0, 0x03, 0x00, 0x00, 0x00, 0x00, 0x00, 0x00, 0x00, 0x00, 0x00, 0x00,
   0x00, 0x00, 0x00, 0x00, 0x00, 0x00, 0x00, 0x00, 0x00, 0x00, 0x00, 0xc0,
   0x07, 0x00, 0x00, 0x30, 0x06, 0xb6, 0x01, 0x00, 0x00, 0xe0, 0x03, 0x00,
   0x00, 0x00, 0x00, 0x00, 0x00, 0x00, 0x00, 0x00, 0x00, 0x00, 0x00, 0x00,
   0x00, 0x00, 0x00, 0x00, 0x00, 0x00, 0x00, 0x00, 0xc0, 0x07, 0x00, 0x00,
   0x30, 0x06, 0xb3, 0x01, 0x00, 0x00, 0xe0, 0x03, 0x00, 0x00, 0x00, 0x00,
   0x00, 0x00, 0x00, 0x00, 0x00, 0x00, 0x00, 0x00, 0x00, 0x00, 0x00, 0x00,
   0x00, 0x00, 0x00, 0x00, 0x00, 0xc0, 0x07, 0x00, 0x00, 0xf0, 0xff, 0xf3,
   0x01, 0x00, 0x00, 0xe0, 0x03, 0x00, 0x00, 0x00, 0x00, 0x00, 0x00, 0x00,
   0x00, 0x00, 0x00, 0x00, 0x00, 0x00, 0x00, 0x00, 0x00, 0x00, 0x00, 0x00,
   0x00, 0x00, 0xc0, 0x07, 0x00, 0x00, 0x30, 0x00, 0xe1, 0x00, 0x00, 0x00,
   0xe0, 0x03, 0x00, 0x00, 0x00, 0x00, 0x00, 0x00, 0x00, 0x00, 0x00, 0x00,
   0x00, 0x00, 0x00, 0x00, 0x00, 0x00, 0x00, 0x00, 0x00, 0x00, 0x00, 0xc0,
   0x07, 0x00, 0x00, 0x00, 0x00, 0x00, 0x00, 0x00, 0x00, 0xe0, 0x03, 0x00,
   0x00, 0x00, 0x00, 0x00, 0x00, 0x00, 0x00, 0x00, 0x00, 0x00, 0x00, 0x00,
   0x00, 0x00, 0x00, 0x00, 0x00, 0x00, 0x00, 0x00, 0xc0, 0x07, 0x00, 0x00,
   0x00, 0x00, 0x00, 0x00, 0x00, 0x00, 0xe0, 0x03, 0x00, 0x00, 0x00, 0x00,
   0x00, 0x00, 0x00, 0x00, 0x00, 0x00, 0x00, 0x00, 0x00, 0x00, 0x00, 0x00,
   0x00, 0x00, 0x00, 0x00, 0x00, 0xc0, 0x07, 0x00, 0x00, 0x00, 0x00, 0x00,
   0x00, 0x00, 0x00, 0xe0, 0x03, 0x00, 0x00, 0x00, 0x00, 0x00, 0x00, 0x00,
   0x00, 0x00, 0x00, 0x00, 0x00, 0x00, 0x00, 0x00, 0x00, 0x00, 0x00, 0x00,
   0x00, 0x00, 0xc0, 0x07, 0x00, 0x00, 0x00, 0x00, 0x00, 0x00, 0x00, 0x00,
   0xe0, 0x03, 0x00, 0x00, 0x00, 0x00, 0x00, 0x00, 0x00, 0x00, 0x00, 0x00,
   0x00, 0x00, 0x00, 0x00, 0x00, 0x00, 0x00, 0x00, 0x00, 0x00, 0x00, 0xc0,
   0x07, 0x00, 0x00, 0x00, 0x00, 0x00, 0x00, 0x00, 0x00, 0xe0, 0x03, 0x00,
   0x00, 0x00, 0x00, 0x00, 0x00, 0x00, 0x00, 0x00, 0x00, 0x00, 0x00, 0x00,
   0x00, 0x00, 0x00, 0x00, 0x00, 0x00, 0x00, 0x00, 0xc0, 0x07, 0x00, 0x00,
   0x00, 0x00, 0x00, 0x00, 0x00, 0x00, 0xe0, 0x03, 0x00, 0x00, 0x00, 0x00,
   0x00, 0x00, 0x00, 0x00, 0x00, 0x00, 0x00, 0x00, 0x00, 0x00, 0x00, 0x00,
   0x00, 0x00, 0x00, 0x00, 0x00, 0xc0, 0x07, 0x00, 0x00, 0x00, 0x00, 0x00,
   0x00, 0x00, 0x00, 0xe0, 0x03, 0x00, 0x00, 0x00, 0x00, 0x00, 0x00, 0x00,
   0x00, 0x00, 0x00, 0x00, 0x00, 0x00, 0x00, 0x00, 0x00, 0x00, 0x00, 0x00,
   0x00, 0x00, 0xc0, 0x07, 0x00, 0x00, 0x00, 0x00, 0x00, 0x00, 0x00, 0x00,
   0xe0, 0xff, 0xff, 0xff, 0xff, 0xff, 0xff, 0xff, 0xff, 0xff, 0xff, 0xff,
   0xff, 0xff, 0xff, 0xff, 0xff, 0xff, 0xff, 0xff, 0xff, 0xff, 0xff, 0xff,
   0x07, 0x00, 0x00, 0x10, 0x00, 0xc0, 0x00, 0x00, 0x00, 0xe0, 0xff, 0xff,
   0xff, 0xff, 0xff, 0xff, 0xff, 0xff, 0xff, 0xff, 0xff, 0xff, 0xff, 0xff,
   0xff, 0xff, 0xff, 0xff, 0xff, 0xff, 0xff, 0xff, 0xff, 0x07, 0x00, 0x00,
   0x70, 0xfe, 0xc0, 0x00, 0x00, 0x00, 0xe0, 0xff, 0xff, 0xff, 0xff, 0xff,
   0xff, 0xff, 0xff, 0xff, 0xff, 0xff, 0xff, 0xff, 0xff, 0xff, 0xff, 0xff,
   0xff, 0xff, 0xff, 0xff, 0xff, 0xff, 0x07, 0x00, 0x00, 0xe0, 0xff, 0xc8,
   0x00, 0x00, 0x00, 0xe0, 0xff, 0xff, 0xff, 0xff, 0xff, 0xff, 0xff, 0xff,
   0xff, 0xff, 0xff, 0xff, 0xff, 0xff, 0xff, 0xff, 0xff, 0xff, 0xff, 0xff,
   0xff, 0xff, 0xff, 0x07, 0x00, 0x00, 0xc0, 0x82, 0xcc, 0x00, 0x00, 0x00,
   0xe0, 0xff, 0xff, 0xff, 0xff, 0xff, 0xff, 0xff, 0xff, 0xff, 0xff, 0xff,
   0xff, 0xff, 0xff, 0xff, 0xff, 0xff, 0xff, 0xff, 0xff, 0xff, 0xff, 0xff,
   0x07, 0x00, 0x00, 0x00, 0x82, 0xcc, 0x00, 0x00, 0x00, 0x00, 0x00, 0x00,
   0x00, 0x00, 0x00, 0x00, 0x00, 0x00, 0x00, 0x00, 0x00, 0x00, 0x00, 0x00,
   0x00, 0x00, 0x00, 0x00, 0x00, 0x00, 0x00, 0x00, 0x00, 0x00, 0x00, 0x00,
   0x00, 0xfe, 0xcc, 0x00, 0x00, 0x00, 0x00, 0x00, 0x00, 0x00, 0x00, 0x00,
   0x00, 0x00, 0x00, 0x00, 0x00, 0x00, 0x00, 0x00, 0x00, 0x00, 0x00, 0x00,
   0x00, 0x00, 0x00, 0x00, 0x00, 0x00, 0x00, 0x00, 0x00, 0x08, 0xfe, 0xcc,
   0x00, 0x00, 0x00, 0x00, 0x00, 0x00, 0x00, 0x00, 0x00, 0x00, 0x00, 0x00,
   0x00, 0x00, 0x00, 0x00, 0x00, 0x00, 0x00, 0x00, 0x00, 0x00, 0x00, 0x00,
   0x00, 0x00, 0x00, 0x00, 0x00, 0x00, 0x38, 0xc6, 0xcc, 0x00, 0x00, 0x00,
   0x00, 0x00, 0x00, 0x00, 0x00, 0x00, 0x00, 0x00, 0x00, 0x00, 0x00, 0x00,
   0x00, 0x00, 0x00, 0x00, 0x00, 0x00, 0x00, 0x00, 0x00, 0x00, 0x00, 0x00,
   0x00, 0x00, 0x00, 0x70, 0x82, 0xcc, 0x00, 0x00, 0x00, 0x00, 0x00, 0x00,
   0x00, 0x00, 0x00, 0x00, 0x00, 0x00, 0x00, 0x00, 0x00, 0x00, 0x00, 0x00,
   0x00, 0x00, 0x00, 0x00, 0x00, 0x00, 0x00, 0x00, 0x00, 0x00, 0x00, 0x00,
   0x20, 0x82, 0xcc, 0x00, 0x00, 0x00, 0x00, 0x00, 0x00, 0x00, 0x00, 0x00,
   0x00, 0x00, 0x00, 0x00, 0x00, 0x00, 0x00, 0x00, 0x00, 0x00, 0x00, 0x00,
   0x00, 0x00, 0x00, 0x00, 0x00, 0x00, 0x00, 0x00, 0x00, 0x00, 0xfe, 0xcc,
   0x00, 0x00, 0x00, 0x00, 0x00, 0x00, 0x00, 0x00, 0x00, 0x00, 0x00, 0x00,
   0x00, 0x00, 0x00, 0x00, 0x00, 0x00, 0x00, 0x00, 0x00, 0x00, 0x00, 0x00,
   0x00, 0x00, 0x00, 0x00, 0x00, 0x00, 0x00, 0xfe, 0xcc, 0x00, 0x00, 0x00,
   0x00, 0x00, 0x00, 0x00, 0x00, 0x00, 0x00, 0x00, 0x00, 0x00, 0x00, 0x00,
   0x00, 0x00, 0x00, 0x00, 0x00, 0x00, 0x00, 0x00, 0x00, 0x18, 0x00, 0x00,
   0x00, 0x00, 0x00, 0x00, 0x82, 0xcc, 0x00, 0x00, 0x00, 0x00, 0xc0, 0x07,
   0x1c, 0xf8, 0xc0, 0x0f, 0xe0, 0xf0, 0x03, 0x1e, 0xfe, 0xc1, 0x07, 0x1e,
   0xc0, 0x80, 0x1f, 0xc0, 0x0f, 0x00, 0x18, 0x00, 0x00, 0x00, 0x00, 0x00,
   0x60, 0x82, 0xcc, 0x00, 0x00, 0x00, 0x00, 0xe0, 0x0f, 0x1f, 0xfc, 0xe1,
   0x1f, 0xe0, 0xf0, 0x03, 0x3f, 0xfe, 0xe1, 0x0f, 0x7f, 0xc0, 0x80, 0x7f,
   0xf0, 0x1f, 0x00, 0x18, 0x00, 0x00, 0x00, 0x00, 0x00, 0x60, 0xc6, 0xcc,
   0x00, 0x00, 0x00, 0x00, 0x60, 0x0c, 0x1b, 0x84, 0x23, 0x38, 0xd0, 0x30,
   0x80, 0x23, 0xc0, 0x70, 0x9c, 0x63, 0xe0, 0x81, 0x61, 0x38, 0x10, 0x00,
   0x18, 0x00, 0x00, 0x00, 0x00, 0x00, 0x60, 0xfe, 0xcc, 0x00, 0x00, 0x00,
   0x00, 0x30, 0x18, 0x18, 0x00, 0x03, 0x30, 0xd8, 0x30, 0xc0, 0x01, 0xc0,
   0x30, 0x98, 0xc1, 0xe0, 0x81, 0x61, 0x18, 0x00, 0x1e, 0xd8, 0x03, 0x0f,
   0x00, 0x00, 0x00, 0x30, 0xfe, 0xc8, 0x00, 0x00, 0x00, 0x00, 0x30, 0x18,
   0x18, 0x00, 0x03, 0x38, 0xc8, 0xf0, 0xc1, 0x00, 0xc0, 0x70, 0x9c, 0xc1,
   0x30, 0x83, 0x61, 0x0c, 0x00, 0x3f, 0xf8, 0xc7, 0x1f, 0x00, 0x00, 0x00,
   0x30, 0x04, 0xc0, 0x00, 0x00, 0x00, 0x00, 0x30, 0x18, 0x18, 0x80, 0x83,
   0x0f, 0xc4, 0xf0, 0xc3, 0x1e, 0xe0, 0xc0, 0x87, 0xe3, 0x30, 0x83, 0x3f,
   0x0c, 0x00, 0x71, 0x38, 0xce, 0x10, 0x00, 0x00, 0x00, 0x38, 0xce, 0xc0,
   0x00, 0x00, 0x00, 0x00, 0x30, 0x18, 0x18, 0x80, 0x81, 0x1f, 0xc6, 0x10,
   0xc7, 0x3f, 0x60, 0xe0, 0x0f, 0xff, 0x30, 0x83, 0x3f, 0x0c, 0x00, 0x60,
   0x18, 0x6c, 0x00, 0x00, 0x00, 0x00, 0x18, 0xc6, 0xc0, 0x00, 0x00, 0x00,
   0x00, 0x30, 0x18, 0x18, 0xc0, 0x00, 0x38, 0xc2, 0x00, 0xc6, 0x71, 0x60,
   0x70, 0x1c, 0xde, 0x18, 0x86, 0x61, 0x0c, 0x00, 0x7e, 0x18, 0x6c, 0x00,
   0x00, 0x00, 0x00, 0x1c, 0x83, 0xf9, 0x00, 0x00, 0x00, 0x00, 0x30, 0x18,
   0x18, 0x60, 0x00, 0x30, 0xff, 0x03, 0xc6, 0x60, 0x70, 0x30, 0x18, 0xc0,
   0xf8, 0x87, 0xc1, 0x0c, 0x80, 0x7f, 0x18, 0x6c, 0x00, 0x00, 0x00, 0x00,
   0x08, 0x83, 0xf9, 0x00, 0x00, 0x00, 0x00, 0x30, 0x18, 0x18, 0x30, 0x00,
   0x30, 0xff, 0x03, 0xc6, 0x60, 0x30, 0x30, 0x18, 0xe0, 0xfc, 0x8f, 0xc1,
   0x18, 0x80, 0x61, 0x18, 0x6c, 0x00, 0x00, 0x00, 0x00, 0x00, 0x00, 0x00,
   0x00, 0x00, 0x00, 0x00, 0x60, 0x0c, 0x18, 0x18, 0x20, 0x38, 0xc0, 0x08,
   0x87, 0x71, 0x30, 0x70, 0x1c, 0x71, 0x0c, 0x8c, 0xe1, 0x38, 0x90, 0x71,
   0x38, 0xce, 0x10, 0x00, 0x00, 0x00, 0x00, 0x00, 0x00, 0x00, 0x00, 0x00,
   0x00, 0xe0, 0x0f, 0xff, 0xfc, 0xe3, 0x1f, 0xc0, 0xf8, 0x83, 0x3f, 0x38,
   0xe0, 0x0f, 0x3f, 0x0c, 0x8c, 0x7f, 0xf0, 0x9f, 0x7f, 0xf8, 0xc7, 0x1f,
   0x00, 0x00, 0x00, 0x00, 0x00, 0x00, 0x00, 0x00, 0x00, 0x00, 0xc0, 0x07,
   0xff, 0xfc, 0xc3, 0x0f, 0xc0, 0xf0, 0x01, 0x1e, 0x18, 0xc0, 0x07, 0x1e,
   0x06, 0x98, 0x3f, 0xc0, 0x0f, 0x6f, 0xd8, 0x03, 0x0f, 0x00, 0x00, 0x00,
   0x00, 0x00, 0x00, 0x00, 0x00, 0x00, 0x00, 0x00, 0x00, 0x00, 0x00, 0x00,
   0x00, 0x00, 0x00, 0x00, 0x00, 0x00, 0x00, 0x00, 0x00, 0x00, 0x00, 0x00,
   0x00, 0x00, 0x00, 0x00, 0x00, 0x00, 0x00, 0x00, 0x00, 0x00, 0x00, 0x00,
   0x00, 0x00, 0x00, 0x00, 0x00, 0x00, 0x00, 0x00, 0x00, 0x00, 0x00, 0x00,
   0x00, 0x00, 0x00, 0x00, 0x00, 0x00, 0x00, 0x00, 0x00, 0x00, 0x00, 0x00,
   0x00, 0x00, 0x00, 0x00, 0x00, 0x00, 0x00, 0x00, 0x00, 0x00, 0x00, 0x00 };
