#define text_image_2_6_width 232
#define text_image_2_6_height 128
static unsigned char text_image_2_6_bits[] = {
   0x00, 0x00, 0x00, 0x00, 0x00, 0x00, 0x00, 0x00, 0x00, 0x00, 0x00, 0x00,
   0x00, 0x00, 0x00, 0x00, 0x00, 0x00, 0x00, 0x00, 0x00, 0x00, 0x00, 0x00,
   0x00, 0x00, 0x00, 0x00, 0x00, 0x00, 0x00, 0x00, 0x00, 0x00, 0x00, 0x00,
   0x00, 0x00, 0x00, 0x00, 0x00, 0x00, 0x00, 0x00, 0x00, 0x00, 0x00, 0x00,
   0x00, 0x00, 0x00, 0x00, 0x00, 0x00, 0x00, 0x00, 0x00, 0x00, 0xf0, 0xff,
   0xff, 0xff, 0xff, 0xff, 0xff, 0xff, 0xff, 0xff, 0xff, 0xff, 0xff, 0xff,
   0xff, 0xff, 0xff, 0xff, 0xff, 0xff, 0xff, 0xff, 0xff, 0xff, 0x03, 0x00,
   0x00, 0x00, 0x00, 0xf0, 0xff, 0xff, 0xff, 0xff, 0xff, 0xff, 0xff, 0xff,
   0xff, 0xff, 0xff, 0xff, 0xff, 0xff, 0xff, 0xff, 0xff, 0xff, 0xff, 0xff,
   0xff, 0xff, 0xff, 0x03, 0x00, 0x00, 0x00, 0x00, 0xf0, 0xff, 0xff, 0xff,
   0xff, 0xff, 0xff, 0xff, 0xff, 0xff, 0xff, 0xff, 0xff, 0xff, 0xff, 0xff,
   0xff, 0xff, 0xff, 0xff, 0xff, 0xff, 0xff, 0xff, 0x03, 0x00, 0x00, 0x00,
   0x00, 0xf0, 0xff, 0xff, 0xff, 0xff, 0xff, 0xff, 0xff, 0xff, 0xff, 0xff,
   0xff, 0xff, 0xff, 0xff, 0xff, 0xff, 0xff, 0xff, 0xff, 0xff, 0xff, 0xff,
   0xff, 0x03, 0x00, 0x00, 0x00, 0x00, 0xf0, 0xff, 0xff, 0xff, 0xff, 0xff,
   0xff, 0xff, 0xff, 0xff, 0xff, 0xff, 0xff, 0xff, 0xff, 0xff, 0xff, 0xff,
   0xff, 0xff, 0xff, 0xff, 0xff, 0xff, 0x03, 0x00, 0x00, 0x00, 0x00, 0xf0,
   0x01, 0x00, 0x00, 0x00, 0x00, 0x00, 0x00, 0x00, 0x00, 0x00, 0x00, 0x00,
   0x00, 0x00, 0x00, 0x00, 0x00, 0x00, 0x00, 0x00, 0x00, 0x00, 0xe0, 0x03,
   0x00, 0x00, 0x03, 0x00, 0xf0, 0x01, 0x00, 0x00, 0x00, 0x00, 0x00, 0x00,
   0x00, 0x00, 0x00, 0x00, 0x00, 0x00, 0x00, 0x00, 0x00, 0x00, 0x00, 0x00,
   0x00, 0x00, 0x00, 0xe0, 0x03, 0x00, 0x00, 0x06, 0x8c, 0xf0, 0x01, 0x00,
   0x00, 0x00, 0x00, 0x00, 0x00, 0x00, 0x00, 0x00, 0x00, 0x00, 0x00, 0x00,
   0x00, 0x00, 0x00, 0x00, 0x00, 0x00, 0x00, 0x00, 0xe0, 0x03, 0x00, 0xc0,
   0xff, 0x87, 0xf0, 0x01, 0x00, 0x00, 0x00, 0x00, 0x00, 0x00, 0x00, 0x00,
   0x00, 0x00, 0x00, 0x00, 0x00, 0x00, 0x00, 0x00, 0x00, 0x00, 0x00, 0x00,
   0x00, 0xe0, 0x03, 0x00, 0x00, 0xc0, 0x80, 0xf0, 0x01, 0x00, 0x00, 0x00,
   0x00, 0x00, 0x00, 0x00, 0x00, 0x00, 0x00, 0x00, 0x00, 0x00, 0x00, 0x00,
   0x00, 0x00, 0x00, 0x00, 0x00, 0x00, 0xe0, 0x03, 0x00, 0x80, 0xd9, 0x80,
   0xf0, 0x01, 0x00, 0x00, 0x00, 0x00, 0x00, 0x00, 0x00, 0x00, 0x00, 0x00,
   0x00, 0x00, 0x00, 0x00, 0x00, 0x00, 0x00, 0x00, 0x00, 0x00, 0x00, 0xe0,
   0x03, 0x00, 0x00, 0xcf, 0x80, 0xf0, 0x01, 0x00, 0x00, 0x00, 0x00, 0x00,
   0x00, 0x03, 0x00, 0x00, 0x00, 0x00, 0x00, 0x00, 0x00, 0x00, 0x00, 0x00,
   0x00, 0x00, 0x00, 0x00, 0xe0, 0x03, 0x00, 0xe0, 0xff, 0x9f, 0xf0, 0xc1,
   0x07, 0x00, 0x00, 0x00, 0x00, 0x00, 0x03, 0x00, 0xc0, 0x00, 0x00, 0x00,
   0x18, 0x00, 0x00, 0x00, 0x00, 0x00, 0x00, 0x00, 0x00, 0xe0, 0x03, 0x00,
   0x00, 0xc6, 0x86, 0xf0, 0xe1, 0x0f, 0x00, 0x00, 0x00, 0x00, 0x00, 0x03,
   0x00, 0xc0, 0x00, 0x00, 0x00, 0x18, 0x00, 0x00, 0x00, 0x00, 0x00, 0x00,
   0x00, 0x00, 0xe0, 0x03, 0x00, 0x00, 0xc6, 0x86, 0xf0, 0x71, 0x08, 0x00,
   0x00, 0x00, 0x00, 0x00, 0x03, 0x00, 0xc0, 0x00, 0x00, 0x00, 0x18, 0x00,
   0x00, 0x00, 0x00, 0x00, 0x00, 0x00, 0x00, 0xe0, 0x03, 0x00, 0xc0, 0xff,
   0x86, 0xf0, 0x31, 0x00, 0x1e, 0xd8, 0xf1, 0x60, 0x0f, 0x83, 0x0f, 0xe0,
   0x87, 0x8f, 0xc3, 0xfd, 0x00, 0x00, 0x00, 0x00, 0x00, 0x00, 0x00, 0x00,
   0xe0, 0x03, 0x00, 0x00, 0xc6, 0x86, 0xf0, 0x31, 0x00, 0x3f, 0xf8, 0xfb,
   0xe0, 0x1f, 0xe3, 0x1f, 0xe0, 0xe7, 0x1f, 0xc3, 0xfc, 0x00, 0x00, 0x00,
   0x00, 0x00, 0x00, 0x00, 0x00, 0xe0, 0x03, 0x00, 0x80, 0xdf, 0x86, 0xf0,
   0xe1, 0x03, 0x71, 0x38, 0xcf, 0xe1, 0x38, 0x63, 0x38, 0xc0, 0x60, 0x38,
   0x66, 0x18, 0x00, 0x00, 0x00, 0x00, 0x00, 0x00, 0x00, 0x00, 0xe0, 0x03,
   0x00, 0xc0, 0xf6, 0x86, 0xf0, 0xc1, 0x0f, 0x60, 0x18, 0x86, 0x61, 0x30,
   0x33, 0x30, 0xc0, 0x30, 0x30, 0x66, 0x18, 0x00, 0x00, 0x00, 0x00, 0x00,
   0x00, 0x00, 0x00, 0xe0, 0x03, 0x00, 0x60, 0x66, 0x86, 0xf0, 0x01, 0x1c,
   0x7e, 0x18, 0x86, 0x61, 0x30, 0xf3, 0x3f, 0xc0, 0xf0, 0x3f, 0x3c, 0x18,
   0x00, 0x00, 0x00, 0x00, 0x00, 0x00, 0x00, 0x00, 0xe0, 0x03, 0x00, 0x80,
   0x67, 0x86, 0xf0, 0x01, 0x98, 0x7f, 0x18, 0x86, 0x61, 0x30, 0xf3, 0x3f,
   0xc0, 0xf0, 0x3f, 0x3c, 0x18, 0x00, 0x00, 0x00, 0x00, 0x00, 0x00, 0x00,
   0x00, 0xe0, 0x03, 0x00, 0x00, 0x33, 0x86, 0xf0, 0x01, 0x98, 0x61, 0x18,
   0x86, 0x61, 0x30, 0x33, 0x00, 0xc0, 0x30, 0x00, 0x66, 0x18, 0x00, 0x00,
   0x00, 0x00, 0x00, 0x00, 0x00, 0x00, 0xe0, 0x03, 0x00, 0x00, 0x00, 0x00,
   0xf0, 0x11, 0x9c, 0x71, 0x18, 0x86, 0xe1, 0x38, 0x63, 0x20, 0xc0, 0x60,
   0x20, 0x66, 0x18, 0x00, 0x00, 0x00, 0x00, 0x00, 0x00, 0x00, 0x00, 0xe0,
   0x03, 0x00, 0x00, 0x00, 0x00, 0xf0, 0xf1, 0x8f, 0x7f, 0x18, 0x86, 0xe1,
   0x1f, 0xe3, 0x3f, 0xc0, 0xe7, 0x3f, 0xc3, 0xf8, 0x00, 0x00, 0x00, 0x00,
   0x00, 0x00, 0x00, 0x00, 0xe0, 0x03, 0x00, 0x00, 0x03, 0x00, 0xf0, 0xe1,
   0x07, 0x6f, 0x18, 0x86, 0x61, 0x0f, 0x83, 0x1f, 0x80, 0x87, 0x9f, 0xc3,
   0xf1, 0x00, 0x00, 0x00, 0x00, 0x00, 0x00, 0x00, 0x00, 0xe0, 0x03, 0x00,
   0x00, 0x03, 0x00, 0xf0, 0x01, 0x00, 0x00, 0x00, 0x00, 0x60, 0x00, 0x00,
   0x00, 0x00, 0x00, 0x00, 0x00, 0x00, 0x00, 0x00, 0x00, 0x00, 0x00, 0x00,
   0x00, 0x00, 0xe0, 0x03, 0x00, 0x80, 0xff, 0x0f, 0xf0, 0x01, 0x00, 0x00,
   0x00, 0x00, 0x60, 0x00, 0x00, 0x00, 0x00, 0x00, 0x00, 0x00, 0x00, 0x00,
   0x00, 0x00, 0x00, 0x00, 0x00, 0x00, 0x00, 0xe0, 0x03, 0x00, 0x80, 0x01,
   0x80, 0xf0, 0x01, 0x00, 0x00, 0x00, 0x00, 0x60, 0x00, 0x00, 0x00, 0x00,
   0x00, 0x00, 0x00, 0x00, 0x00, 0x00, 0x00, 0x00, 0x00, 0x00, 0x00, 0x00,
   0xe0, 0x03, 0x00, 0xc0, 0xfe, 0xc3, 0xf0, 0x01, 0x00, 0x00, 0x00, 0x00,
   0x60, 0x00, 0x00, 0x00, 0x00, 0x00, 0x00, 0x00, 0x00, 0x00, 0x00, 0x00,
   0x00, 0x00, 0x00, 0x00, 0x00, 0xe0, 0x03, 0x00, 0x60, 0x00, 0x00, 0xf0,
   0x01, 0x00, 0x00, 0x00, 0x00, 0x00, 0x00, 0x00, 0x00, 0x00, 0x00, 0x00,
   0x00, 0x00, 0x00, 0x00, 0x00, 0x00, 0x00, 0x00, 0x00, 0x00, 0xe0, 0x03,
   0x00, 0x80, 0xff, 0x03, 0xf0, 0x01, 0x00, 0x00, 0x00, 0x00, 0x00, 0x00,
   0x00, 0x00, 0x00, 0x00, 0x00, 0x00, 0x00, 0x00, 0x00, 0x00, 0x00, 0x00,
   0x00, 0x00, 0x00, 0xe0, 0x03, 0x00, 0x00, 0x0c, 0x03, 0xf0, 0x01, 0x00,
   0x00, 0x00, 0x00, 0x00, 0x00, 0x00, 0x00, 0x00, 0x00, 0x00, 0x00, 0x00,
   0x00, 0x00, 0x00, 0x00, 0x00, 0x00, 0x00, 0x00, 0xe0, 0x03, 0x00, 0x80,
   0x6d, 0x03, 0xf0, 0x01, 0x00, 0x00, 0x00, 0x00, 0x00, 0x00, 0x00, 0x00,
   0x00, 0x00, 0x00, 0x00, 0x00, 0x00, 0x00, 0x00, 0x00, 0x00, 0x00, 0x00,
   0x00, 0xe0, 0x03, 0x00, 0x00, 0x3f, 0x83, 0xf0, 0x01, 0x00, 0x00, 0x00,
   0x00, 0x18, 0x00, 0x00, 0x00, 0x00, 0x00, 0x00, 0x00, 0x06, 0x00, 0x80,
   0x31, 0x00, 0x00, 0x30, 0x00, 0x00, 0xe0, 0x03, 0x00, 0xc0, 0xff, 0x03,
   0xf0, 0x81, 0x1f, 0x00, 0x00, 0x30, 0x18, 0x00, 0x00, 0x80, 0x7f, 0x00,
   0x06, 0x00, 0x06, 0x00, 0x80, 0x31, 0x00, 0x00, 0x30, 0x00, 0x00, 0xe0,
   0x03, 0x00, 0x00, 0x1e, 0x83, 0xf0, 0xc1, 0x3f, 0x00, 0x00, 0x30, 0x18,
   0x00, 0x00, 0x80, 0x7f, 0x00, 0x06, 0x00, 0x06, 0x00, 0x80, 0x01, 0x00,
   0x00, 0x30, 0x00, 0x00, 0xe0, 0x03, 0x00, 0x00, 0x3f, 0x1e, 0xf0, 0xe1,
   0x70, 0x00, 0x00, 0x30, 0x18, 0x00, 0x00, 0x80, 0x01, 0x00, 0x06, 0x00,
   0x06, 0x00, 0x80, 0x01, 0x00, 0x00, 0x30, 0x00, 0x00, 0xe0, 0x03, 0x00,
   0x80, 0x6d, 0x1e, 0xf0, 0x61, 0x60, 0xd8, 0x03, 0xf8, 0xd9, 0x03, 0x1f,
   0x80, 0x01, 0x00, 0xc6, 0x1e, 0x86, 0x01, 0xbc, 0x31, 0x3e, 0xf6, 0x30,
   0x3c, 0x0c, 0xec, 0x03, 0x00, 0xc0, 0xcc, 0xdc, 0xf0, 0x31, 0xc0, 0xf8,
   0x03, 0xf8, 0xf9, 0xc3, 0x3f, 0x80, 0x01, 0x00, 0xc6, 0x1f, 0xc6, 0x00,
   0xfe, 0x31, 0x7f, 0xfe, 0x31, 0x7e, 0x0c, 0xec, 0x03, 0x00, 0x00, 0x0c,
   0x18, 0xf0, 0x31, 0xc0, 0x38, 0x07, 0x30, 0x38, 0xc7, 0x70, 0x80, 0x7f,
   0x00, 0xc6, 0x39, 0x66, 0x00, 0xc7, 0x31, 0x43, 0x8e, 0x33, 0xe2, 0x18,
   0xe6, 0x03, 0x00, 0x00, 0x00, 0x00, 0xf0, 0x31, 0xc0, 0x18, 0x06, 0x30,
   0x18, 0x66, 0x60, 0x80, 0x7f, 0x00, 0xc6, 0x30, 0x36, 0x00, 0x83, 0x31,
   0x07, 0x06, 0x33, 0xc0, 0x18, 0xe6, 0x03, 0x00, 0x00, 0x00, 0x00, 0xf0,
   0x31, 0xc0, 0x18, 0x06, 0x30, 0x18, 0xe6, 0x7f, 0x80, 0x01, 0x3e, 0xc6,
   0x30, 0x1e, 0x00, 0x83, 0x31, 0x3e, 0x06, 0x33, 0xfc, 0x30, 0xe3, 0x03,
   0x00, 0x00, 0x00, 0x00, 0xf0, 0x31, 0xc0, 0x18, 0x06, 0x30, 0x18, 0xe6,
   0x7f, 0x80, 0x01, 0x3e, 0xc6, 0x30, 0x1e, 0x00, 0x83, 0x31, 0x78, 0x06,
   0x33, 0xff, 0x30, 0xe3, 0x03, 0x00, 0x00, 0x00, 0x00, 0xf0, 0x61, 0x60,
   0x18, 0x06, 0x30, 0x18, 0x66, 0x00, 0x80, 0x01, 0x00, 0xc6, 0x30, 0x36,
   0x00, 0x83, 0x31, 0x60, 0x06, 0x33, 0xc3, 0xe0, 0xe1, 0x03, 0x00, 0x00,
   0x00, 0x00, 0xf0, 0xe1, 0x70, 0x18, 0x06, 0x30, 0x18, 0xc6, 0x40, 0x80,
   0x01, 0x00, 0xc6, 0x30, 0x66, 0x00, 0xc7, 0x31, 0x61, 0x8e, 0x33, 0xe3,
   0xe0, 0xe1, 0x03, 0x00, 0x00, 0x00, 0x00, 0xf0, 0xc1, 0x3f, 0x18, 0x06,
   0xf0, 0x19, 0xc6, 0x7f, 0x80, 0x7f, 0x00, 0xc6, 0x30, 0xc6, 0x00, 0xfe,
   0x31, 0x7f, 0xfe, 0x31, 0xff, 0xc0, 0xe0, 0x03, 0x00, 0x00, 0x00, 0x00,
   0xf0, 0x81, 0x1f, 0x18, 0x06, 0xe0, 0x19, 0x06, 0x3f, 0x80, 0x7f, 0x00,
   0xc6, 0x30, 0x86, 0x01, 0xbc, 0x31, 0x1e, 0xf6, 0x30, 0xde, 0xc0, 0xe0,
   0x03, 0x00, 0x00, 0xf8, 0xff, 0xf0, 0x01, 0x00, 0x00, 0x00, 0x00, 0x00,
   0x00, 0x00, 0x00, 0x00, 0x00, 0x00, 0x00, 0x00, 0x00, 0x00, 0x00, 0x00,
   0x06, 0x00, 0x00, 0xc0, 0xe0, 0x03, 0x00, 0x00, 0xf8, 0xff, 0xf0, 0x01,
   0x00, 0x00, 0x00, 0x00, 0x00, 0x00, 0x00, 0x00, 0x00, 0x00, 0x00, 0x00,
   0x00, 0x00, 0x00, 0x00, 0x00, 0x06, 0x00, 0x00, 0x60, 0xe0, 0x03, 0x00,
   0x00, 0x00, 0x18, 0xf0, 0x01, 0x00, 0x00, 0x00, 0x00, 0x00, 0x00, 0x00,
   0x00, 0x00, 0x00, 0x00, 0x00, 0x00, 0x00, 0x00, 0x00, 0x00, 0x06, 0x00,
   0x00, 0x78, 0xe0, 0x03, 0x00, 0x00, 0x00, 0x18, 0xf0, 0x01, 0x00, 0x00,
   0x00, 0x00, 0x00, 0x00, 0x00, 0x00, 0x00, 0x00, 0x00, 0x00, 0x00, 0x00,
   0x00, 0x00, 0x00, 0x06, 0x00, 0x00, 0x38, 0xe0, 0x03, 0x00, 0x00, 0x00,
   0x18, 0xf0, 0x01, 0x00, 0x00, 0x00, 0x00, 0x00, 0x00, 0x00, 0x00, 0x00,
   0x00, 0x00, 0x00, 0x00, 0x00, 0x00, 0x00, 0x00, 0x00, 0x00, 0x00, 0x00,
   0xe0, 0x03, 0x00, 0x00, 0x00, 0x18, 0xf0, 0x01, 0x00, 0x00, 0x00, 0x00,
   0x00, 0x00, 0x00, 0x00, 0x00, 0x00, 0x00, 0x00, 0x00, 0x00, 0x00, 0x00,
   0x00, 0x00, 0x00, 0x00, 0x00, 0xe0, 0x03, 0x00, 0x00, 0x00, 0x18, 0xf0,
   0xff, 0xff, 0xff, 0xff, 0xff, 0xff, 0xff, 0xff, 0xff, 0xff, 0xff, 0xff,
   0xff, 0xff, 0xff, 0xff, 0xff, 0xff, 0xff, 0xff, 0xff, 0xff, 0xff, 0x03,
   0x00, 0x00, 0xfc, 0xff, 0xf0, 0xff, 0xff, 0xff, 0xff, 0xff, 0xff, 0xff,
   0xff, 0xff, 0xff, 0xff, 0xff, 0xff, 0xff, 0xff, 0xff, 0xff, 0xff, 0xff,
   0xff, 0xff, 0xff, 0xff, 0x03, 0x00, 0x00, 0xfc, 0xff, 0xf0, 0xff, 0xff,
   0xff, 0xff, 0xff, 0xff, 0xff, 0xff, 0xff, 0xff, 0xff, 0xff, 0xff, 0xff,
   0xff, 0xff, 0xff, 0xff, 0xff, 0xff, 0xff, 0xff, 0xff, 0x03, 0x00, 0x00,
   0x00, 0x38, 0xf0, 0xff, 0xff, 0xff, 0xff, 0xff, 0xff, 0xff, 0xff, 0xff,
   0xff, 0xff, 0xff, 0xff, 0xff, 0xff, 0xff, 0xff, 0xff, 0xff, 0xff, 0xff,
   0xff, 0xff, 0x03, 0x00, 0x00, 0x00, 0x38, 0xf0, 0xff, 0xff, 0xff, 0xff,
   0xff, 0xff, 0xff, 0xff, 0xff, 0xff, 0xff, 0xff, 0xff, 0xff, 0xff, 0xff,
   0xff, 0xff, 0xff, 0xff, 0xff, 0xff, 0xff, 0x03, 0x00, 0x00, 0x00, 0x38,
   0x00, 0x00, 0x00, 0x00, 0x00, 0x00, 0x00, 0x00, 0x00, 0x00, 0x00, 0x00,
   0x00, 0x00, 0x00, 0x00, 0x00, 0x00, 0x00, 0x00, 0x00, 0x00, 0x00, 0x00,
   0x00, 0x00, 0x00, 0x00, 0x7c, 0x00, 0x00, 0x00, 0x00, 0x00, 0x00, 0x00,
   0x00, 0x00, 0x00, 0x00, 0x00, 0x00, 0x00, 0x00, 0x00, 0x00, 0x00, 0x00,
   0x00, 0x00, 0x00, 0x00, 0x00, 0x00, 0x00, 0x00, 0x00, 0xec, 0x00, 0x00,
   0x00, 0x00, 0x00, 0x00, 0x00, 0x00, 0x00, 0x00, 0x00, 0x00, 0x00, 0x00,
   0x00, 0x00, 0x00, 0x00, 0x00, 0x00, 0x00, 0x00, 0x00, 0x00, 0x00, 0x00,
   0x00, 0x00, 0xce, 0x00, 0x00, 0x00, 0x00, 0x00, 0x00, 0x00, 0x00, 0x00,
   0x00, 0x00, 0x00, 0x00, 0x00, 0x00, 0x00, 0x00, 0x00, 0x00, 0x00, 0x00,
   0x00, 0x00, 0x00, 0x00, 0x00, 0x00, 0x00, 0x87, 0x00, 0x00, 0x00, 0x00,
   0x00, 0x00, 0x00, 0x00, 0x00, 0x00, 0x00, 0x00, 0x00, 0x00, 0x00, 0x00,
   0x00, 0x00, 0x00, 0x00, 0x00, 0x00, 0x00, 0x00, 0x00, 0x00, 0x00, 0x80,
   0x03, 0x00, 0x00, 0x00, 0x00, 0x00, 0x00, 0x00, 0x00, 0x00, 0x00, 0x00,
   0x00, 0x00, 0x00, 0x00, 0x00, 0x00, 0x00, 0x00, 0x00, 0x00, 0x00, 0x00,
   0x00, 0x00, 0x00, 0x00, 0xc0, 0x01, 0x00, 0x00, 0x00, 0x00, 0x00, 0x00,
   0x00, 0x00, 0x00, 0x00, 0x00, 0x00, 0x00, 0x00, 0x00, 0x00, 0x00, 0x00,
   0x00, 0x00, 0x00, 0x00, 0x00, 0x00, 0x00, 0x00, 0x00, 0xf0, 0x00, 0x00,
   0x00, 0x00, 0x00, 0x00, 0x00, 0x00, 0x00, 0x00, 0x00, 0x00, 0x00, 0x00,
   0x00, 0x00, 0x00, 0x00, 0x00, 0x00, 0x00, 0x00, 0x0c, 0x00, 0x00, 0x00,
   0x00, 0x00, 0x3c, 0x00, 0x00, 0xe0, 0x03, 0x0e, 0x7c, 0xe0, 0x07, 0x70,
   0xf8, 0x01, 0x0f, 0xff, 0xe0, 0x03, 0x0f, 0x60, 0xc0, 0x0f, 0xe0, 0x07,
   0x00, 0x0c, 0x00, 0x00, 0x00, 0x00, 0x00, 0x1c, 0x00, 0x00, 0xf0, 0x87,
   0x0f, 0xfe, 0xf0, 0x0f, 0x70, 0xf8, 0x81, 0x1f, 0xff, 0xf0, 0x87, 0x3f,
   0x60, 0xc0, 0x3f, 0xf8, 0x0f, 0x00, 0x0c, 0x00, 0x00, 0x00, 0x00, 0x00,
   0x00, 0x00, 0x00, 0x30, 0x86, 0x0d, 0xc2, 0x11, 0x1c, 0x68, 0x18, 0xc0,
   0x11, 0x60, 0x38, 0xce, 0x31, 0xf0, 0xc0, 0x30, 0x1c, 0x08, 0x00, 0x0c,
   0x00, 0x00, 0x00, 0x00, 0x00, 0x00, 0x00, 0x00, 0x18, 0x0c, 0x0c, 0x80,
   0x01, 0x18, 0x6c, 0x18, 0xe0, 0x00, 0x60, 0x18, 0xcc, 0x60, 0xf0, 0xc0,
   0x30, 0x0c, 0x00, 0x0f, 0xec, 0x81, 0x07, 0x00, 0x00, 0x00, 0x00, 0x00,
   0x00, 0x18, 0x0c, 0x0c, 0x80, 0x01, 0x1c, 0x64, 0xf8, 0x60, 0x00, 0x60,
   0x38, 0xce, 0x60, 0x98, 0xc1, 0x30, 0x06, 0x80, 0x1f, 0xfc, 0xe3, 0x0f,
   0x00, 0x00, 0x00, 0x00, 0x00, 0x00, 0x18, 0x0c, 0x0c, 0xc0, 0xc1, 0x07,
   0x62, 0xf8, 0x61, 0x0f, 0x70, 0xe0, 0xc3, 0x71, 0x98, 0xc1, 0x1f, 0x06,
   0x80, 0x38, 0x1c, 0x67, 0x08, 0x00, 0x00, 0x00, 0x00, 0x00, 0x00, 0x18,
   0x0c, 0x0c, 0xc0, 0xc0, 0x0f, 0x63, 0x88, 0xe3, 0x1f, 0x30, 0xf0, 0x87,
   0x7f, 0x98, 0xc1, 0x1f, 0x06, 0x00, 0x30, 0x0c, 0x36, 0x00, 0x00, 0x00,
   0x00, 0x00, 0x00, 0x00, 0x18, 0x0c, 0x0c, 0x60, 0x00, 0x1c, 0x61, 0x00,
   0xe3, 0x38, 0x30, 0x38, 0x0e, 0x6f, 0x0c, 0xc3, 0x30, 0x06, 0x00, 0x3f,
   0x0c, 0x36, 0x00, 0x00, 0x00, 0x00, 0x00, 0x00, 0x00, 0x18, 0x0c, 0x0c,
   0x30, 0x00, 0x98, 0xff, 0x01, 0x63, 0x30, 0x38, 0x18, 0x0c, 0x60, 0xfc,
   0xc3, 0x60, 0x06, 0xc0, 0x3f, 0x0c, 0x36, 0x00, 0x00, 0x00, 0x00, 0x00,
   0x00, 0x00, 0x18, 0x0c, 0x0c, 0x18, 0x00, 0x98, 0xff, 0x01, 0x63, 0x30,
   0x18, 0x18, 0x0c, 0x70, 0xfe, 0xc7, 0x60, 0x0c, 0xc0, 0x30, 0x0c, 0x36,
   0x00, 0x00, 0x00, 0x00, 0x00, 0x08, 0x00, 0x30, 0x06, 0x0c, 0x0c, 0x10,
   0x1c, 0x60, 0x84, 0xc3, 0x38, 0x18, 0x38, 0x8e, 0x38, 0x06, 0xc6, 0x70,
   0x1c, 0xc8, 0x38, 0x1c, 0x67, 0x08, 0x00, 0x00, 0x00, 0x00, 0x1c, 0x00,
   0xf0, 0x87, 0x7f, 0xfe, 0xf1, 0x0f, 0x60, 0xfc, 0xc1, 0x1f, 0x1c, 0xf0,
   0x87, 0x1f, 0x06, 0xc6, 0x3f, 0xf8, 0xcf, 0x3f, 0xfc, 0xe3, 0x0f, 0x00,
   0x00, 0x00, 0x00, 0x18, 0x00, 0xe0, 0x83, 0x7f, 0xfe, 0xe1, 0x07, 0x60,
   0xf8, 0x00, 0x0f, 0x0c, 0xe0, 0x03, 0x0f, 0x03, 0xcc, 0x1f, 0xe0, 0x87,
   0x37, 0xec, 0x81, 0x07, 0x00, 0x00, 0x00, 0x00, 0x38, 0x00, 0x00, 0x00,
   0x00, 0x00, 0x00, 0x00, 0x00, 0x00, 0x00, 0x00, 0x00, 0x00, 0x00, 0x00,
   0x00, 0x00, 0x00, 0x00, 0x00, 0x00, 0x00, 0x00, 0x00, 0x00, 0x00, 0x00,
   0xfc, 0xff, 0x00, 0x00, 0x00, 0x00, 0x00, 0x00, 0x00, 0x00, 0x00, 0x00,
   0x00, 0x00, 0x00, 0x00, 0x00, 0x00, 0x00, 0x00, 0x00, 0x00, 0x00, 0x00,
   0x00, 0x00, 0x00, 0x00, 0x00, 0xfc, 0xff, 0x00, 0x00, 0x00, 0x00, 0x00,
   0x00, 0x00, 0x00, 0x00, 0x00, 0x00, 0x00, 0x00, 0x00, 0x00, 0x00, 0x00,
   0x00, 0x00, 0x00, 0x00, 0x00, 0x00, 0x00, 0x00, 0x00, 0x00, 0xe0, 0x00,
   0xf0, 0xff, 0xff, 0xff, 0xff, 0xff, 0xff, 0xff, 0xff, 0xff, 0xff, 0xff,
   0xff, 0xff, 0xff, 0xff, 0xff, 0xff, 0xff, 0xff, 0xff, 0xff, 0xff, 0xff,
   0x03, 0x00, 0x00, 0xc0, 0x00, 0xf0, 0xff, 0xff, 0xff, 0xff, 0xff, 0xff,
   0xff, 0xff, 0xff, 0xff, 0xff, 0xff, 0xff, 0xff, 0xff, 0xff, 0xff, 0xff,
   0xff, 0xff, 0xff, 0xff, 0xff, 0x03, 0x00, 0x00, 0xc0, 0x00, 0xf0, 0xff,
   0xff, 0xff, 0xff, 0xff, 0xff, 0xff, 0xff, 0xff, 0xff, 0xff, 0xff, 0xff,
   0xff, 0xff, 0xff, 0xff, 0xff, 0xff, 0xff, 0xff, 0xff, 0xff, 0x03, 0x00,
   0x00, 0x80, 0x01, 0xf0, 0xff, 0xff, 0xff, 0xff, 0xff, 0xff, 0xff, 0xff,
   0xff, 0xff, 0xff, 0xff, 0xff, 0xff, 0xff, 0xff, 0xff, 0xff, 0xff, 0xff,
   0xff, 0xff, 0xff, 0x03, 0x00, 0x00, 0x80, 0x01, 0xf0, 0xff, 0xff, 0xff,
   0xff, 0xff, 0xff, 0xff, 0xff, 0xff, 0xff, 0xff, 0xff, 0xff, 0xff, 0xff,
   0xff, 0xff, 0xff, 0xff, 0xff, 0xff, 0xff, 0xff, 0x03, 0x00, 0x00, 0x00,
   0x83, 0xf0, 0x01, 0x00, 0x00, 0x00, 0x00, 0x00, 0x00, 0x00, 0x00, 0x00,
   0x00, 0x00, 0x00, 0x00, 0x00, 0x00, 0x00, 0x00, 0x00, 0x00, 0x00, 0x00,
   0xe0, 0x03, 0x00, 0x00, 0x00, 0xc7, 0xf0, 0x01, 0x00, 0x00, 0x00, 0x00,
   0x00, 0x00, 0x00, 0x00, 0x00, 0x00, 0x00, 0x00, 0x00, 0x00, 0x00, 0x00,
   0x00, 0x00, 0x00, 0x00, 0x00, 0xe0, 0x03, 0x00, 0x00, 0x00, 0xee, 0xf0,
   0x01, 0x00, 0x00, 0x00, 0x00, 0x00, 0x00, 0x00, 0x00, 0x00, 0x00, 0x00,
   0x00, 0x00, 0x00, 0x00, 0x00, 0x00, 0x00, 0x00, 0x00, 0x00, 0xe0, 0x03,
   0x00, 0x00, 0x00, 0x7c, 0xf0, 0x01, 0x00, 0x00, 0x00, 0x00, 0x00, 0x00,
   0x00, 0x00, 0x00, 0x00, 0x00, 0x00, 0x00, 0x00, 0x00, 0x00, 0x00, 0x00,
   0x00, 0x00, 0x00, 0xe0, 0x03, 0x00, 0x00, 0x00, 0x78, 0xf0, 0x01, 0x00,
   0x00, 0x00, 0x00, 0x00, 0x00, 0x00, 0x00, 0x00, 0x00, 0x00, 0x00, 0x00,
   0x00, 0x00, 0x00, 0x00, 0x00, 0x00, 0x00, 0x00, 0xe0, 0x03, 0x00, 0x00,
   0x00, 0xfe, 0xf0, 0x01, 0x00, 0x00, 0x00, 0x00, 0x00, 0x00, 0x00, 0x00,
   0x00, 0x00, 0x00, 0x00, 0x00, 0x00, 0x00, 0x00, 0x00, 0x00, 0x00, 0x00,
   0x00, 0xe0, 0x03, 0x00, 0x00, 0x00, 0xef, 0xf0, 0x01, 0x00, 0x00, 0x00,
   0x00, 0x00, 0x00, 0x00, 0x00, 0x00, 0x00, 0x00, 0x00, 0x00, 0x00, 0x00,
   0x00, 0x00, 0x00, 0x00, 0x00, 0x00, 0xe0, 0x03, 0x00, 0x00, 0xc0, 0xc3,
   0xf0, 0x01, 0x00, 0x00, 0x00, 0x00, 0x00, 0x00, 0x00, 0x00, 0x00, 0x00,
   0x00, 0x00, 0x00, 0x00, 0x00, 0x00, 0x00, 0x00, 0x00, 0x00, 0x00, 0xe0,
   0x03, 0x00, 0x00, 0xf0, 0x01, 0xf0, 0x01, 0x00, 0x00, 0x00, 0x00, 0x00,
   0x00, 0x00, 0x00, 0x00, 0x00, 0x00, 0x00, 0x00, 0x00, 0x00, 0x00, 0x00,
   0x00, 0x00, 0x00, 0x00, 0xe0, 0x03, 0x00, 0x00, 0x7e, 0x00, 0xf0, 0x01,
   0x00, 0x00, 0x00, 0x00, 0x00, 0x00, 0x00, 0x00, 0x00, 0x00, 0x00, 0x00,
   0x00, 0x00, 0x00, 0x00, 0x00, 0x00, 0x00, 0x00, 0x00, 0xe0, 0x03, 0x00,
   0x00, 0x0c, 0x00, 0xf0, 0x01, 0x00, 0x00, 0x00, 0x00, 0x00, 0x00, 0x00,
   0x00, 0x00, 0x00, 0x00, 0x00, 0x00, 0x00, 0x00, 0x00, 0x00, 0x00, 0x00,
   0x00, 0x00, 0xe0, 0x03, 0x00, 0x00, 0x00, 0x00, 0xf0, 0x01, 0x00, 0x00,
   0x00, 0x00, 0x00, 0x00, 0x00, 0x00, 0x00, 0x00, 0x00, 0x00, 0x00, 0x00,
   0x00, 0x00, 0x00, 0x00, 0x00, 0x00, 0x00, 0xe0, 0x03, 0x00, 0x00, 0x00,
   0x00, 0xf0, 0x01, 0x00, 0x00, 0x00, 0x00, 0x00, 0x00, 0x00, 0x00, 0x00,
   0x00, 0x00, 0x00, 0x00, 0x00, 0x00, 0x00, 0x00, 0x00, 0x00, 0x00, 0x00,
   0xe0, 0x03, 0x00, 0x00, 0x00, 0x00, 0xf0, 0x01, 0x00, 0x00, 0x00, 0x00,
   0x00, 0x00, 0x00, 0x00, 0x00, 0x00, 0x00, 0x00, 0x00, 0x00, 0x00, 0x00,
   0x00, 0x00, 0x00, 0x00, 0x00, 0xe0, 0x03, 0x00, 0x00, 0x00, 0x00, 0xf0,
   0x01, 0x00, 0x00, 0x00, 0x00, 0x00, 0x00, 0x00, 0x00, 0x00, 0x00, 0x00,
   0x00, 0x00, 0x00, 0x00, 0x00, 0x00, 0x00, 0x00, 0x00, 0x00, 0xe0, 0x03,
   0x00, 0x00, 0x00, 0x00, 0xf0, 0x01, 0x00, 0x00, 0x00, 0x00, 0x00, 0x00,
   0xf0, 0x01, 0x00, 0x00, 0x00, 0x00, 0x00, 0x00, 0x00, 0x00, 0x00, 0x00,
   0x00, 0x00, 0x00, 0xe0, 0x03, 0x00, 0x00, 0x00, 0x00, 0xf0, 0x01, 0x00,
   0xf8, 0x01, 0x00, 0x00, 0x38, 0x1c, 0x81, 0xff, 0x07, 0x00, 0x00, 0x00,
   0x00, 0xfe, 0x3f, 0x00, 0x00, 0x00, 0x00, 0x00, 0xe0, 0x03, 0x00, 0x00,
   0x00, 0x00, 0xf0, 0x01, 0x00, 0x1c, 0x07, 0x00, 0x00, 0x38, 0x1c, 0x00,
   0x0e, 0x04, 0x00, 0x00, 0xe0, 0x00, 0xc2, 0x21, 0x00, 0x00, 0x70, 0x00,
   0x00, 0xe0, 0x03, 0x00, 0x00, 0x00, 0x00, 0xf0, 0x01, 0x00, 0x0e, 0x06,
   0x00, 0x00, 0x38, 0x1c, 0x00, 0x0e, 0x04, 0x00, 0x00, 0xe0, 0x00, 0xc2,
   0x21, 0x00, 0x00, 0x70, 0x00, 0x00, 0xe0, 0x03, 0x00, 0x00, 0x60, 0x06,
   0xf0, 0x01, 0x00, 0x0e, 0x04, 0x00, 0x00, 0x00, 0x1c, 0x00, 0x0e, 0x00,
   0x00, 0x00, 0xe0, 0x00, 0xc0, 0x01, 0x00, 0x00, 0x70, 0x00, 0x00, 0xe0,
   0x03, 0x00, 0x00, 0xfc, 0xbf, 0xf0, 0x01, 0x00, 0x1e, 0x00, 0x3f, 0xde,
   0x3f, 0x7e, 0x00, 0x0e, 0xe1, 0x87, 0xf7, 0xf0, 0x03, 0xc0, 0x81, 0x9f,
   0xdf, 0xfb, 0x01, 0x00, 0xe0, 0x03, 0x00, 0x00, 0xfc, 0xbf, 0xf0, 0x01,
   0x00, 0xfe, 0x81, 0x73, 0x3c, 0x3a, 0x1c, 0x00, 0x0e, 0x71, 0x0e, 0xcf,
   0xe1, 0x00, 0xc0, 0xc1, 0x39, 0x8e, 0x70, 0x00, 0x00, 0xe0, 0x03, 0x00,
   0x00, 0x60, 0x86, 0xf0, 0x01, 0x00, 0xfc, 0xc7, 0x61, 0x1c, 0x38, 0x1c,
   0x00, 0xfe, 0x39, 0x1c, 0xc7, 0xe1, 0x00, 0xc0, 0xe1, 0x30, 0x5e, 0x70,
   0x00, 0x00, 0xe0, 0x03, 0x00, 0x00, 0x78, 0x9e, 0xf0, 0x01, 0x00, 0xf0,
   0xcf, 0xe1, 0x1c, 0x38, 0x1c, 0x00, 0x0e, 0x39, 0x1c, 0xc7, 0xe1, 0x00,
   0xc0, 0xe1, 0x70, 0x3c, 0x70, 0x00, 0x00, 0xe0, 0x03, 0x00, 0x00, 0xfc,
   0xbe, 0xf0, 0x01, 0x00, 0x00, 0xcf, 0xff, 0x1c, 0x38, 0x1c, 0x00, 0x0e,
   0x39, 0x1c, 0xc7, 0xe1, 0x00, 0xc0, 0xe1, 0x7f, 0x38, 0x70, 0x00, 0x00,
   0xe0, 0x03, 0x00, 0x00, 0xcc, 0xb2, 0xf0, 0x01, 0x00, 0x02, 0xce, 0x01,
   0x1c, 0x38, 0x1c, 0x00, 0x0e, 0x38, 0x1c, 0xc7, 0xe1, 0x00, 0xc0, 0xe1,
   0x00, 0x7c, 0x70, 0x00, 0x00, 0xe0, 0x03, 0x00, 0x00, 0xfc, 0xbe, 0xf0,
   0x01, 0x00, 0x06, 0xce, 0x81, 0x1c, 0x38, 0x1c, 0x00, 0x0e, 0x38, 0x1c,
   0xc7, 0xe1, 0x04, 0xc0, 0xe1, 0x40, 0xf6, 0x70, 0x02, 0x00, 0xe0, 0x03,
   0x00, 0x00, 0xfc, 0xbe, 0xf0, 0x01, 0x00, 0x0e, 0x87, 0x43, 0x1c, 0x38,
   0x1c, 0x00, 0x0e, 0x70, 0x0e, 0xc7, 0xe1, 0x04, 0xc0, 0xc1, 0x21, 0xe2,
   0x70, 0x02, 0x00, 0xe0, 0x03, 0x00, 0x00, 0x10, 0x80, 0xf0, 0x01, 0x00,
   0xf8, 0x03, 0x3f, 0x3e, 0x7c, 0x7e, 0x80, 0x3f, 0xe0, 0x87, 0xef, 0xc3,
   0x03, 0xf0, 0x87, 0x9f, 0xf7, 0xe3, 0x01, 0x00, 0xe0, 0x03, 0x00, 0x00,
   0x30, 0x81, 0xf0, 0x01, 0x00, 0x00, 0x00, 0x00, 0x00, 0x00, 0x00, 0x00,
   0x00, 0x00, 0x00, 0x00, 0x00, 0x00, 0x00, 0x00, 0x00, 0x00, 0x00, 0x00,
   0x00, 0xe0, 0x03, 0x00, 0x00, 0xf8, 0xbf, 0xf0, 0x01, 0x00, 0x00, 0x00,
   0x00, 0x00, 0x00, 0x00, 0x00, 0x00, 0x00, 0x00, 0x00, 0x00, 0x00, 0x00,
   0x00, 0x00, 0x00, 0x00, 0x00, 0x00, 0xe0, 0x03, 0x00, 0x00, 0xf8, 0xbf,
   0xf0, 0x01, 0x00, 0x00, 0x00, 0x00, 0x00, 0x00, 0x00, 0x00, 0x00, 0x00,
   0x00, 0x00, 0x00, 0x00, 0x00, 0x00, 0x00, 0x00, 0x00, 0x00, 0x00, 0xe0,
   0x03, 0x00, 0x00, 0x1c, 0x83, 0xf0, 0x01, 0x00, 0x00, 0x00, 0x00, 0x00,
   0x00, 0x00, 0x00, 0x00, 0x00, 0x00, 0x00, 0x00, 0x00, 0x00, 0x00, 0x00,
   0x00, 0x00, 0x00, 0x00, 0xe0, 0x03, 0x00, 0x00, 0xfe, 0xbf, 0xf0, 0x01,
   0x00, 0x00, 0x00, 0x00, 0x00, 0x00, 0x00, 0x00, 0x00, 0x00, 0x00, 0x00,
   0x00, 0x00, 0x00, 0x00, 0x00, 0x00, 0x00, 0x00, 0x00, 0xe0, 0x03, 0x00,
   0x00, 0xfa, 0x1f, 0xf0, 0x01, 0x00, 0x00, 0x00, 0x00, 0x00, 0x00, 0x00,
   0x00, 0x00, 0x00, 0x00, 0x00, 0x00, 0x00, 0x00, 0x00, 0x00, 0x00, 0x00,
   0x00, 0x00, 0xe0, 0x03, 0x00, 0x00, 0x18, 0x03, 0xf0, 0x01, 0x00, 0x00,
   0x00, 0x00, 0x00, 0x00, 0x00, 0x00, 0x00, 0x00, 0x00, 0x00, 0x00, 0x00,
   0x00, 0x00, 0x00, 0x00, 0x00, 0x00, 0x00, 0xe0, 0x03, 0x00, 0x00, 0xf8,
   0x3f, 0xf0, 0x01, 0x00, 0x00, 0x00, 0x00, 0x00, 0x00, 0x00, 0x00, 0x00,
   0x00, 0x00, 0x00, 0x00, 0x00, 0x00, 0x00, 0x00, 0x00, 0x00, 0x00, 0x00,
   0xe0, 0x03, 0x00, 0x00, 0x18, 0x03, 0xf0, 0x01, 0x00, 0x00, 0x00, 0x00,
   0x00, 0x00, 0x00, 0x00, 0x00, 0x00, 0x00, 0x00, 0x00, 0x00, 0x00, 0x00,
   0x00, 0x00, 0x00, 0x00, 0x00, 0xe0, 0x03, 0x00, 0x00, 0x18, 0x83, 0xf0,
   0x01, 0x00, 0x00, 0x00, 0x00, 0x00, 0x00, 0x00, 0x00, 0x00, 0x00, 0x00,
   0x00, 0x00, 0x00, 0x00, 0x00, 0x00, 0x00, 0x00, 0x00, 0x00, 0xe0, 0x03,
   0x00, 0x00, 0xf8, 0xff };
