#define venus_2_6_width 232
#define venus_2_6_height 128
static unsigned char venus_2_6_bits[] = {
   0x00, 0x00, 0x00, 0x00, 0x00, 0xc0, 0x75, 0xd2, 0xaa, 0xaa, 0x8a, 0xaa,
   0xaa, 0x12, 0x09, 0x55, 0x95, 0x4a, 0x52, 0x93, 0x00, 0x00, 0xa8, 0x40,
   0x10, 0x00, 0x00, 0x00, 0x00, 0x00, 0x00, 0x00, 0x00, 0x00, 0x70, 0x55,
   0x55, 0x5b, 0x55, 0x55, 0x55, 0x55, 0xd5, 0x6a, 0x52, 0xa5, 0xaa, 0x28,
   0x44, 0x02, 0x00, 0x2a, 0x04, 0x01, 0x00, 0x00, 0x00, 0x00, 0x00, 0x00,
   0x00, 0x00, 0x00, 0x5a, 0xfb, 0x54, 0x55, 0xab, 0xaa, 0xaa, 0x56, 0x55,
   0x55, 0x15, 0x29, 0x95, 0x52, 0x09, 0x0a, 0x00, 0xa8, 0x48, 0x20, 0x00,
   0x00, 0x00, 0x00, 0x00, 0x00, 0x00, 0x00, 0x00, 0xac, 0x55, 0xd3, 0x6a,
   0x55, 0xa9, 0xaa, 0xd9, 0xbb, 0xab, 0x6a, 0x55, 0x55, 0xad, 0x24, 0x00,
   0x00, 0x28, 0x41, 0x02, 0x00, 0x00, 0x00, 0x00, 0x00, 0x00, 0x00, 0x00,
   0x00, 0x5d, 0xb5, 0x54, 0x5b, 0xad, 0xaa, 0x76, 0xab, 0xaa, 0xb6, 0xaa,
   0xaa, 0x92, 0x2a, 0x41, 0x01, 0x00, 0x68, 0x44, 0x40, 0x00, 0x00, 0x00,
   0x00, 0x00, 0x00, 0x00, 0x00, 0x80, 0xab, 0xea, 0x55, 0xed, 0x55, 0x55,
   0xad, 0xb6, 0xb6, 0x6a, 0x55, 0x95, 0xa4, 0xaa, 0x14, 0x00, 0x00, 0x20,
   0x29, 0x01, 0x00, 0x00, 0x00, 0x00, 0x00, 0x00, 0x00, 0x00, 0x20, 0xbb,
   0x0a, 0xa5, 0xad, 0x56, 0xed, 0xad, 0xa4, 0x42, 0xad, 0x55, 0xa5, 0x55,
   0x15, 0x11, 0x01, 0x00, 0x48, 0x20, 0x82, 0x00, 0x00, 0x00, 0x00, 0x00,
   0x00, 0x00, 0x00, 0xc0, 0xd6, 0xf2, 0x69, 0xb5, 0xb5, 0xbb, 0xd6, 0x56,
   0x2d, 0x55, 0x6b, 0x5b, 0xaa, 0xaa, 0x08, 0x00, 0x00, 0x14, 0x25, 0x04,
   0x49, 0x02, 0x00, 0x00, 0x00, 0x00, 0x00, 0x00, 0xa8, 0xad, 0x2a, 0xab,
   0x56, 0x6d, 0xed, 0x5b, 0x95, 0x54, 0xb4, 0xae, 0xaa, 0xad, 0x2a, 0x49,
   0x00, 0x00, 0x50, 0xa0, 0x08, 0x92, 0x00, 0x00, 0x00, 0x00, 0x00, 0x00,
   0x00, 0xa8, 0x5a, 0xa3, 0x56, 0x5d, 0xb7, 0x55, 0xb7, 0x2a, 0xa9, 0x42,
   0x59, 0xb5, 0x52, 0x55, 0x20, 0x01, 0x00, 0x8a, 0x1a, 0x05, 0x48, 0x15,
   0x00, 0x00, 0x00, 0x00, 0x00, 0x00, 0xa8, 0xaa, 0xaa, 0xec, 0xfb, 0x56,
   0xb5, 0xec, 0xab, 0xd2, 0x4a, 0x42, 0x55, 0x55, 0x25, 0x05, 0x00, 0x00,
   0x98, 0x20, 0x28, 0x00, 0x40, 0x01, 0x00, 0x00, 0x00, 0x00, 0x00, 0x5a,
   0x55, 0x25, 0x5b, 0xad, 0xad, 0x4a, 0x5b, 0x6d, 0x85, 0x2a, 0x95, 0xa4,
   0x52, 0x92, 0x54, 0x00, 0x00, 0x22, 0x15, 0x41, 0xa9, 0x6a, 0x04, 0x02,
   0x00, 0x00, 0x00, 0x00, 0x52, 0x55, 0x55, 0x95, 0xaa, 0xa0, 0xaa, 0xda,
   0x5b, 0x35, 0x24, 0xa9, 0x4a, 0xaa, 0x24, 0x11, 0x00, 0x00, 0x4d, 0x14,
   0x0a, 0x22, 0x40, 0x51, 0x00, 0x00, 0x00, 0x00, 0x00, 0x55, 0x55, 0xa5,
   0x2a, 0x01, 0x05, 0x50, 0x65, 0x6f, 0x4d, 0xa9, 0x04, 0x2d, 0x25, 0xdb,
   0x22, 0x00, 0x00, 0x10, 0x01, 0x90, 0x88, 0x04, 0x8a, 0x0a, 0x00, 0x00,
   0x00, 0x40, 0xaa, 0xaa, 0xaa, 0x52, 0x6d, 0x15, 0x82, 0xaa, 0xda, 0x5a,
   0x25, 0x59, 0x41, 0x6a, 0x55, 0x0a, 0x00, 0x00, 0x55, 0x26, 0x12, 0x51,
   0x54, 0x10, 0x00, 0x00, 0x00, 0x00, 0x80, 0x4a, 0x55, 0x55, 0x24, 0x15,
   0x40, 0x68, 0x4a, 0xb7, 0xb5, 0x4a, 0xa2, 0x96, 0xaa, 0xaa, 0x04, 0x00,
   0x00, 0xa2, 0x00, 0x48, 0x02, 0x01, 0x41, 0x29, 0x00, 0x00, 0x00, 0x80,
   0xaa, 0x56, 0x55, 0xa5, 0x40, 0x02, 0x00, 0x51, 0x6e, 0xab, 0xaa, 0xad,
   0xaa, 0xaa, 0x52, 0x05, 0x00, 0x80, 0x94, 0xa6, 0x40, 0x2a, 0x2a, 0x04,
   0x02, 0x00, 0x00, 0x00, 0xa0, 0xaa, 0xaa, 0x2a, 0x12, 0x15, 0x10, 0x20,
   0x4b, 0xb9, 0x56, 0x55, 0x55, 0x55, 0xaa, 0xaa, 0x12, 0x00, 0x00, 0x42,
   0x01, 0x08, 0x44, 0x80, 0x10, 0x08, 0x00, 0x00, 0x00, 0x40, 0x55, 0xd5,
   0x4a, 0x22, 0x40, 0x81, 0x02, 0xa8, 0xeb, 0xb6, 0xb6, 0x55, 0xd5, 0xaa,
   0x2a, 0x11, 0x90, 0x44, 0x94, 0x15, 0x51, 0x49, 0x12, 0x81, 0x28, 0x00,
   0x00, 0x00, 0xa0, 0xa6, 0x2a, 0x55, 0x94, 0x0a, 0x20, 0x40, 0x40, 0xda,
   0x6d, 0x5b, 0xb7, 0x2a, 0x48, 0xd5, 0x40, 0x01, 0x10, 0xa4, 0x4a, 0x80,
   0x00, 0x41, 0x10, 0x40, 0x00, 0x00, 0x00, 0xa0, 0x2a, 0x55, 0x45, 0x91,
   0x20, 0x05, 0x04, 0x04, 0xb2, 0xd5, 0xf6, 0x6d, 0xad, 0xab, 0x2a, 0x12,
   0x52, 0x82, 0x20, 0x13, 0x15, 0x2a, 0x0a, 0x22, 0x49, 0x00, 0x00, 0x00,
   0x50, 0x45, 0x95, 0x94, 0x4a, 0x0a, 0x00, 0x80, 0x40, 0xec, 0xaf, 0xad,
   0xd6, 0xaa, 0x54, 0x95, 0x48, 0x89, 0xaa, 0xca, 0xaa, 0x50, 0x80, 0x50,
   0x08, 0x80, 0x00, 0x00, 0x00, 0xd0, 0xaa, 0xaa, 0x29, 0x48, 0x22, 0x91,
   0x08, 0x00, 0x88, 0x7f, 0x55, 0xad, 0x55, 0xab, 0x16, 0x08, 0x52, 0x00,
   0x88, 0x2a, 0x85, 0x2a, 0x85, 0x4a, 0x25, 0x00, 0x00, 0x00, 0x50, 0xa9,
   0x52, 0x52, 0x11, 0x89, 0x00, 0x00, 0x89, 0x60, 0xad, 0x6d, 0x55, 0xd5,
   0x56, 0x45, 0x51, 0x09, 0x55, 0x11, 0x55, 0x55, 0xa4, 0x54, 0x11, 0x40,
   0x00, 0x00, 0x00, 0xb0, 0xb2, 0xaa, 0x8a, 0x52, 0x10, 0x12, 0x11, 0x00,
   0x40, 0xfd, 0xab, 0x76, 0xab, 0x54, 0x11, 0x05, 0x50, 0x00, 0x22, 0xa8,
   0x92, 0x8a, 0x54, 0xaa, 0x8a, 0x00, 0x00, 0x00, 0x4a, 0x49, 0x15, 0x51,
   0x84, 0x42, 0x40, 0x00, 0x00, 0x81, 0x57, 0xef, 0xea, 0x56, 0xab, 0xaa,
   0xa8, 0x02, 0x09, 0x48, 0x55, 0x55, 0xb5, 0xaa, 0x55, 0x22, 0x00, 0x00,
   0x00, 0x5a, 0xaa, 0xaa, 0x8a, 0x14, 0x0a, 0x05, 0x22, 0x12, 0x04, 0xfc,
   0xda, 0xaf, 0xad, 0x76, 0x85, 0x22, 0x10, 0xa0, 0x00, 0xa0, 0xaa, 0xa4,
   0x2a, 0xaa, 0x24, 0x00, 0x00, 0x40, 0xa5, 0x56, 0x55, 0x52, 0xa2, 0x10,
   0x00, 0x00, 0x00, 0x00, 0xab, 0xaf, 0xbd, 0x5a, 0x4d, 0x52, 0x4a, 0x45,
   0x02, 0x82, 0x04, 0x55, 0x5b, 0x45, 0x68, 0x91, 0x00, 0x00, 0x80, 0xac,
   0xd2, 0x92, 0x94, 0x0a, 0x42, 0x52, 0x44, 0x80, 0x10, 0x5c, 0xb5, 0xd5,
   0x57, 0x99, 0x4a, 0x08, 0x40, 0x28, 0x10, 0x00, 0xa8, 0x24, 0x80, 0x42,
   0x25, 0x00, 0x00, 0x50, 0xa9, 0x55, 0xa5, 0x22, 0xa8, 0x14, 0x00, 0x01,
   0x09, 0x04, 0xb4, 0xaa, 0xbe, 0x5a, 0x22, 0x92, 0x52, 0x15, 0x82, 0x44,
   0x04, 0x00, 0x01, 0x00, 0xa8, 0x82, 0x00, 0x00, 0x10, 0x55, 0xed, 0xaa,
   0xa4, 0x22, 0xa1, 0x0a, 0x08, 0x10, 0x80, 0xf0, 0xb6, 0xd2, 0x56, 0xae,
   0x2a, 0xa5, 0x84, 0x10, 0x88, 0x14, 0x00, 0x40, 0x00, 0x40, 0x2d, 0x00,
   0x00, 0xd0, 0x74, 0x35, 0x4a, 0x95, 0x94, 0x04, 0x20, 0x00, 0x80, 0x10,
   0xd4, 0xad, 0xaa, 0x54, 0x51, 0xaa, 0x2a, 0x35, 0x82, 0x22, 0x40, 0x00,
   0x00, 0x41, 0x00, 0x12, 0x00, 0x00, 0x90, 0xb4, 0xea, 0x48, 0x22, 0x91,
   0x54, 0x42, 0x22, 0x01, 0x00, 0x50, 0x6b, 0x95, 0x55, 0xd5, 0xaa, 0xaa,
   0xa2, 0x14, 0x04, 0x05, 0x01, 0x20, 0x08, 0x00, 0xa8, 0x00, 0x00, 0x4a,
   0xef, 0x2e, 0x95, 0x94, 0x24, 0x02, 0x01, 0x00, 0x08, 0x21, 0x60, 0xaf,
   0x2a, 0x55, 0xaa, 0xda, 0xaa, 0x14, 0x49, 0x50, 0x52, 0x04, 0x42, 0x21,
   0x00, 0xa8, 0x00, 0x00, 0x92, 0x94, 0x7a, 0x55, 0x25, 0x89, 0x28, 0x94,
   0x24, 0x10, 0x42, 0x62, 0xed, 0xb6, 0xda, 0x5a, 0x55, 0x55, 0x55, 0x11,
   0x01, 0x84, 0x48, 0x08, 0x0a, 0x00, 0x50, 0x00, 0x00, 0xa4, 0xf5, 0x2d,
   0x49, 0x48, 0x52, 0x82, 0x00, 0x80, 0x00, 0x00, 0xc0, 0xbd, 0xad, 0xaa,
   0xd2, 0xaa, 0x56, 0x49, 0x4a, 0x44, 0x09, 0x20, 0xa5, 0x20, 0x00, 0xa0,
   0x00, 0x00, 0xa5, 0x4a, 0x7d, 0xa9, 0x52, 0x8a, 0x28, 0x92, 0x04, 0x52,
   0x0a, 0x84, 0xeb, 0x6b, 0xdb, 0xaa, 0xad, 0x6c, 0x5b, 0x89, 0x08, 0x50,
   0x05, 0x48, 0x45, 0x00, 0x00, 0x00, 0x00, 0xd2, 0x7c, 0x1d, 0xa5, 0x44,
   0x51, 0x82, 0x00, 0x90, 0xa4, 0x50, 0x40, 0x5d, 0xbd, 0xad, 0x4b, 0xd5,
   0xdb, 0xaa, 0x52, 0x22, 0x21, 0xa8, 0x02, 0x2a, 0x01, 0x00, 0x00, 0x00,
   0x54, 0xa9, 0x79, 0x2a, 0x15, 0x44, 0x2a, 0x2a, 0xa1, 0x15, 0x42, 0x89,
   0xfb, 0x55, 0x3b, 0xad, 0x1a, 0x55, 0x57, 0x95, 0x04, 0x45, 0x01, 0x00,
   0x40, 0x00, 0x00, 0x00, 0x00, 0x55, 0xae, 0xae, 0x44, 0xa4, 0x92, 0x40,
   0x00, 0x54, 0x82, 0x00, 0x00, 0x56, 0xbb, 0x64, 0xdb, 0x77, 0xb9, 0x5d,
   0x55, 0x52, 0x80, 0x04, 0x00, 0x94, 0x02, 0x00, 0x00, 0x00, 0x51, 0xba,
   0x3c, 0x55, 0x49, 0x12, 0x15, 0xa5, 0x5a, 0x10, 0x08, 0x90, 0xd4, 0xa6,
   0x55, 0x35, 0x49, 0xa3, 0xb2, 0xab, 0x04, 0x2a, 0x01, 0x00, 0x10, 0x04,
   0x00, 0x00, 0x00, 0xaa, 0x4a, 0x55, 0x49, 0x92, 0xa4, 0x48, 0x10, 0x8d,
   0x84, 0x20, 0x01, 0xb9, 0x5a, 0xd5, 0x4a, 0xb5, 0xaa, 0x6e, 0x55, 0x25,
   0x00, 0x02, 0x00, 0x40, 0x11, 0x00, 0x00, 0x00, 0x2a, 0xad, 0xb6, 0x52,
   0x25, 0x09, 0x91, 0x42, 0x93, 0x10, 0x02, 0x00, 0xd2, 0x6a, 0x55, 0x55,
   0xa5, 0x4a, 0xd0, 0x56, 0xa5, 0x4a, 0x0a, 0x00, 0x00, 0x02, 0x00, 0x00,
   0x00, 0x54, 0xab, 0xaa, 0x4a, 0x94, 0x54, 0x4a, 0x54, 0x09, 0x42, 0x88,
   0x24, 0xb5, 0xb7, 0x4a, 0x95, 0xaa, 0x52, 0x55, 0xab, 0x14, 0x10, 0x00,
   0x09, 0x40, 0x09, 0x00, 0x00, 0x00, 0x54, 0x55, 0xaa, 0x94, 0x22, 0xa1,
   0x88, 0xa8, 0xa2, 0x14, 0x11, 0x00, 0x68, 0xd5, 0x5a, 0x55, 0x42, 0xa5,
   0xa0, 0xae, 0x45, 0xa1, 0x2a, 0x50, 0x01, 0x11, 0x00, 0x00, 0x00, 0xaa,
   0x56, 0x9b, 0xaa, 0x94, 0x14, 0x51, 0x62, 0x48, 0x42, 0x44, 0x92, 0xa8,
   0xb6, 0x55, 0x55, 0x4a, 0x55, 0x45, 0x55, 0x2a, 0x04, 0x44, 0x05, 0x02,
   0x02, 0x00, 0x00, 0x00, 0x90, 0x55, 0x52, 0x2a, 0x25, 0x25, 0x85, 0x08,
   0x49, 0x54, 0x41, 0x00, 0xe2, 0x56, 0x55, 0xa9, 0x94, 0x4a, 0x89, 0x7a,
   0x95, 0xa4, 0x88, 0x54, 0xaa, 0x54, 0x00, 0x00, 0x00, 0xd4, 0xaa, 0xad,
   0xa4, 0x48, 0xa8, 0x28, 0x25, 0x24, 0x81, 0x14, 0x25, 0xc9, 0xad, 0xb5,
   0x4a, 0x44, 0xb5, 0xa4, 0xaa, 0x22, 0x10, 0x29, 0x00, 0x10, 0x12, 0x01,
   0x00, 0x00, 0xa0, 0xaa, 0x59, 0xa9, 0x4a, 0x05, 0x45, 0x80, 0x40, 0x2d,
   0x55, 0x20, 0x88, 0x7b, 0x6b, 0x95, 0x14, 0xa5, 0x02, 0xd5, 0xaa, 0x45,
   0xa2, 0x92, 0x42, 0x20, 0x14, 0x00, 0x00, 0xd8, 0x4a, 0x95, 0x26, 0x91,
   0xa8, 0x28, 0x15, 0x2a, 0xe9, 0xad, 0x85, 0xa0, 0x56, 0xd5, 0x52, 0xc8,
   0xaa, 0x14, 0x55, 0x05, 0x92, 0x44, 0x4a, 0x28, 0x85, 0x40, 0x00, 0x00,
   0xb0, 0x76, 0xbd, 0x48, 0x2a, 0x25, 0x25, 0xa1, 0x48, 0x1d, 0x00, 0x15,
   0x84, 0x7a, 0x55, 0x95, 0x12, 0x55, 0x21, 0xac, 0xba, 0xa4, 0x94, 0x10,
   0x89, 0xa8, 0x0a, 0x00, 0x00, 0xcc, 0xd9, 0x9d, 0xb6, 0xfa, 0x4a, 0x49,
   0x02, 0x52, 0xe3, 0x7f, 0x94, 0x10, 0xe7, 0xd6, 0x22, 0xa9, 0xaa, 0x4a,
   0xa9, 0x46, 0x12, 0x29, 0x45, 0x22, 0x00, 0x51, 0x00, 0x00, 0x34, 0x5b,
   0xbb, 0xa4, 0xa5, 0x2f, 0x49, 0x14, 0x44, 0xdb, 0xcb, 0x17, 0x21, 0xdd,
   0x95, 0x6b, 0x4a, 0xa9, 0x0a, 0xa8, 0xb4, 0xa8, 0x42, 0x40, 0x44, 0x41,
   0x04, 0x00, 0x00, 0xd6, 0xb6, 0x3d, 0x55, 0xdf, 0x5a, 0x92, 0x40, 0xa9,
   0xfc, 0x15, 0x00, 0x88, 0xaa, 0xad, 0x8a, 0x54, 0x55, 0xa9, 0x52, 0x95,
   0x12, 0x95, 0x2a, 0x08, 0x80, 0xaa, 0x00, 0x00, 0xea, 0xb6, 0x76, 0x69,
   0x91, 0xd2, 0x24, 0x05, 0xa0, 0xd7, 0x13, 0x49, 0x80, 0xae, 0x95, 0x52,
   0x55, 0x55, 0x2b, 0x44, 0x57, 0x52, 0x54, 0x4d, 0x51, 0x01, 0x10, 0x00,
   0x80, 0xb7, 0x6a, 0x3b, 0xb5, 0x56, 0x55, 0x95, 0x10, 0xd5, 0xb0, 0xcc,
   0x00, 0x12, 0xba, 0xab, 0xaa, 0xa4, 0xa0, 0xa4, 0x28, 0x29, 0x49, 0x55,
   0x59, 0x05, 0x00, 0x20, 0x00, 0x00, 0xad, 0x55, 0x76, 0xaa, 0x28, 0x55,
   0x25, 0x22, 0xd0, 0xa5, 0x95, 0x12, 0x40, 0x36, 0x97, 0x95, 0xaa, 0xa6,
   0x55, 0x25, 0x49, 0x52, 0x55, 0x55, 0xa9, 0x02, 0x40, 0x00, 0x00, 0x4b,
   0x55, 0xfb, 0x5a, 0xab, 0xaa, 0x4a, 0x81, 0xaa, 0xea, 0x13, 0x40, 0x04,
   0xed, 0xad, 0x6a, 0x55, 0x42, 0xab, 0xaa, 0xa4, 0x94, 0xaa, 0x55, 0x42,
   0x00, 0x00, 0x00, 0x80, 0xaa, 0x55, 0xd6, 0x52, 0xa9, 0xaa, 0x2a, 0x0a,
   0x68, 0x2b, 0xaa, 0x04, 0x20, 0x5c, 0xab, 0x4a, 0xa9, 0x48, 0x55, 0x29,
   0x15, 0x69, 0x55, 0xd5, 0x16, 0x49, 0x01, 0x00, 0x40, 0x4b, 0x6a, 0xbb,
   0xaa, 0xaa, 0x6a, 0x95, 0x00, 0x50, 0x55, 0x29, 0x40, 0x84, 0xb6, 0xd5,
   0xaa, 0x8a, 0x82, 0x9a, 0x52, 0xa5, 0x96, 0x56, 0xaa, 0x4a, 0x21, 0xa0,
   0x00, 0x80, 0x5a, 0x49, 0xf5, 0x55, 0x55, 0xd5, 0x2a, 0x52, 0x42, 0xaa,
   0x0a, 0x09, 0x10, 0xda, 0x9d, 0xaa, 0x2a, 0x10, 0x6b, 0x55, 0x54, 0x75,
   0x55, 0x09, 0x15, 0x05, 0x00, 0x00, 0x80, 0xca, 0x6a, 0x55, 0x55, 0xd5,
   0xae, 0x56, 0x01, 0x28, 0x21, 0x20, 0x80, 0x80, 0x68, 0x53, 0x49, 0x91,
   0x82, 0x96, 0xaa, 0x55, 0xc5, 0x22, 0x64, 0x4a, 0x20, 0x54, 0x00, 0x80,
   0x9a, 0x4a, 0xf7, 0x52, 0xd5, 0xfa, 0x2a, 0x0a, 0x00, 0xa6, 0x4a, 0x01,
   0x11, 0x6a, 0xaf, 0xa2, 0x52, 0x10, 0xb4, 0x4a, 0xb5, 0x5a, 0x4a, 0x49,
   0x19, 0x45, 0x01, 0x00, 0x80, 0x52, 0xa9, 0xd5, 0x95, 0xea, 0x83, 0x5b,
   0x20, 0x41, 0x08, 0x20, 0x04, 0x40, 0xbd, 0xb2, 0xaa, 0x0a, 0x85, 0x6a,
   0xb5, 0xd6, 0x26, 0x11, 0x25, 0x52, 0x08, 0x4a, 0x00, 0x00, 0xab, 0xaa,
   0xb6, 0xb5, 0x3a, 0x6d, 0x55, 0x05, 0x80, 0x50, 0x05, 0x20, 0x04, 0x69,
   0xad, 0xa2, 0x54, 0x00, 0xa8, 0xaa, 0xaa, 0x2a, 0x22, 0x44, 0x52, 0xa9,
   0x88, 0x00, 0x40, 0x55, 0x55, 0x6d, 0xa3, 0xa6, 0xbf, 0xab, 0x20, 0x12,
   0x00, 0x90, 0x08, 0x21, 0xda, 0x2a, 0x69, 0x09, 0x48, 0x52, 0xd5, 0x56,
   0x81, 0x48, 0x92, 0xa4, 0x00, 0x51, 0x00, 0x00, 0xaa, 0x52, 0xd5, 0xaf,
   0xf6, 0x37, 0x5c, 0x05, 0x00, 0x22, 0x01, 0x00, 0x80, 0xb4, 0x5b, 0x52,
   0x59, 0x01, 0xa0, 0xaa, 0x5a, 0x2a, 0x91, 0x90, 0x4a, 0x2b, 0x12, 0x00,
   0x80, 0xaa, 0xaa, 0xaa, 0xa2, 0x7d, 0x97, 0x53, 0x22, 0x40, 0x00, 0x08,
   0x21, 0x22, 0x6a, 0x55, 0xd1, 0x0a, 0x88, 0x88, 0xaa, 0x2a, 0x90, 0x44,
   0x22, 0x52, 0xaa, 0xca, 0x00, 0x00, 0x55, 0x95, 0x6a, 0x2f, 0x69, 0x37,
   0xab, 0x84, 0x04, 0x84, 0x10, 0x02, 0x84, 0xe8, 0x96, 0xa2, 0x52, 0x01,
   0x01, 0x12, 0xaa, 0x92, 0x10, 0x4a, 0x84, 0xaa, 0x52, 0x00, 0x00, 0x54,
   0x55, 0x55, 0xa6, 0x57, 0x59, 0xaa, 0x00, 0x40, 0x20, 0x00, 0x10, 0x00,
   0xb5, 0x55, 0x69, 0x2d, 0x04, 0xa8, 0x64, 0x15, 0x20, 0xa5, 0x50, 0x28,
   0x55, 0x85, 0x00, 0x00, 0x50, 0x55, 0xd5, 0x2c, 0xcb, 0x6b, 0x55, 0x55,
   0x08, 0x01, 0x91, 0xa0, 0x24, 0x64, 0x57, 0x8a, 0xd5, 0x91, 0x00, 0x49,
   0x69, 0x45, 0x24, 0x45, 0x51, 0x51, 0x1a, 0x00, 0x00, 0x90, 0xaa, 0x2a,
   0xcb, 0x2a, 0x9b, 0x52, 0x01, 0x01, 0x04, 0x04, 0x02, 0x80, 0xd8, 0x9a,
   0xb1, 0x4a, 0x04, 0x02, 0x14, 0x15, 0x91, 0x49, 0x08, 0x42, 0x4a, 0x21,
   0x00, 0x00, 0xa0, 0x54, 0xd5, 0x54, 0x6a, 0xb5, 0x54, 0x15, 0x20, 0x48,
   0x20, 0x04, 0x09, 0xd2, 0x2b, 0x86, 0xaa, 0x29, 0x54, 0x50, 0x6a, 0x12,
   0x92, 0xa2, 0x94, 0x12, 0x84, 0x00, 0x00, 0x00, 0x55, 0x55, 0x95, 0xaa,
   0xaa, 0xaa, 0x42, 0x02, 0x01, 0x09, 0x10, 0x20, 0x68, 0xdb, 0xba, 0x4a,
   0x11, 0x00, 0xa1, 0x9a, 0xa4, 0xaa, 0x14, 0x49, 0x48, 0x51, 0x00, 0x00,
   0x00, 0xd8, 0x55, 0x35, 0xa9, 0x8a, 0xa8, 0x0a, 0x10, 0x20, 0x40, 0x91,
   0x84, 0xea, 0x56, 0x41, 0x5a, 0x67, 0x25, 0x04, 0xa1, 0xa9, 0x28, 0xaa,
   0x92, 0x02, 0x05, 0x00, 0x00, 0x00, 0x35, 0x2b, 0x55, 0x55, 0x55, 0xaa,
   0x22, 0x82, 0x84, 0x04, 0x04, 0x10, 0xd0, 0xad, 0x96, 0xaa, 0x10, 0x90,
   0x90, 0x54, 0x0a, 0x45, 0x29, 0x24, 0x59, 0xaa, 0x00, 0x00, 0x00, 0xb4,
   0x5a, 0xb5, 0xa4, 0x92, 0xa4, 0x4a, 0x10, 0x08, 0x48, 0x20, 0x81, 0x94,
   0xad, 0x54, 0xa9, 0xab, 0x02, 0x02, 0xc9, 0x52, 0xa9, 0x42, 0x29, 0xa2,
   0x48, 0x00, 0x00, 0x00, 0xd4, 0xb6, 0xaa, 0x2a, 0x25, 0x55, 0x05, 0x84,
   0xa0, 0x02, 0x01, 0x24, 0xe2, 0xb6, 0x2b, 0x55, 0x29, 0xa8, 0x28, 0x24,
   0xad, 0x26, 0x95, 0xa2, 0x2a, 0x55, 0x00, 0x00, 0x00, 0xb4, 0x52, 0xb2,
   0x54, 0x4a, 0x49, 0x95, 0x10, 0x05, 0x24, 0x4a, 0x40, 0xa4, 0x6d, 0xaa,
   0xaa, 0xaa, 0x02, 0x82, 0x20, 0x55, 0x49, 0xaa, 0xac, 0x22, 0x11, 0x00,
   0x00, 0x00, 0xd4, 0xaa, 0x6a, 0xa9, 0x12, 0x55, 0x05, 0x00, 0x90, 0x10,
   0x00, 0x09, 0x91, 0xdb, 0x55, 0xa9, 0x94, 0x54, 0x08, 0x84, 0x5c, 0xb5,
   0xaa, 0xaa, 0x40, 0x22, 0x00, 0x00, 0x00, 0x78, 0xb5, 0x6a, 0xa5, 0x54,
   0x54, 0x55, 0x52, 0x02, 0x81, 0x24, 0x10, 0x21, 0x5b, 0xab, 0x52, 0x95,
   0x88, 0x92, 0x10, 0x51, 0x4b, 0xa9, 0x0a, 0x40, 0x44, 0x00, 0x00, 0x00,
   0xaa, 0x55, 0x6d, 0x95, 0x92, 0xa9, 0x0a, 0x00, 0x28, 0x24, 0x00, 0x01,
   0x54, 0xad, 0x56, 0x2a, 0x49, 0x52, 0x24, 0x44, 0xa4, 0xb4, 0x92, 0x04,
   0x00, 0x0a, 0x00, 0x00, 0x00, 0x68, 0xb5, 0x6a, 0xa9, 0x2a, 0x55, 0xab,
   0x54, 0x81, 0x84, 0x2a, 0x48, 0x81, 0xf6, 0xda, 0xaa, 0x4a, 0x8a, 0xa0,
   0x80, 0x10, 0x05, 0x92, 0x00, 0x00, 0x28, 0x00, 0x00, 0x00, 0xaa, 0xaa,
   0xb6, 0xaa, 0x52, 0xaa, 0x14, 0x02, 0x2a, 0x10, 0x80, 0x02, 0x54, 0xad,
   0x55, 0xab, 0x96, 0x52, 0x95, 0x12, 0x4a, 0xa8, 0x40, 0x00, 0x00, 0x40,
   0x00, 0x00, 0x00, 0x70, 0xad, 0xed, 0x2a, 0x95, 0x52, 0x53, 0xa0, 0x44,
   0x22, 0x01, 0x90, 0x00, 0x5a, 0xb7, 0xaa, 0x52, 0xaa, 0xa2, 0x04, 0x80,
   0x12, 0x04, 0x16, 0x00, 0x40, 0x00, 0x00, 0x00, 0xae, 0xaa, 0xaa, 0xa5,
   0x52, 0xaa, 0x2a, 0xa5, 0x2a, 0x00, 0x14, 0x09, 0xaa, 0xfa, 0xda, 0xb6,
   0xaa, 0x8a, 0x8a, 0x52, 0x2a, 0x48, 0x00, 0x90, 0x00, 0x00, 0x00, 0x00,
   0x00, 0xa8, 0xb5, 0xeb, 0xab, 0xaa, 0xaa, 0x4a, 0xc4, 0xa7, 0xa4, 0x20,
   0x40, 0x20, 0xa2, 0xbb, 0xed, 0x4a, 0xb5, 0x2a, 0x55, 0x00, 0x81, 0x02,
   0x40, 0x00, 0x40, 0x00, 0x00, 0x80, 0x6b, 0x55, 0xae, 0x96, 0x24, 0xa9,
   0xb5, 0x28, 0x08, 0x00, 0x04, 0x11, 0x45, 0x79, 0xd7, 0x96, 0xaa, 0x4a,
   0x55, 0x0a, 0x51, 0x2a, 0x08, 0x80, 0x02, 0x00, 0x00, 0x00, 0x00, 0x54,
   0xd5, 0xda, 0xab, 0xaa, 0x52, 0xa5, 0x22, 0x11, 0x89, 0x20, 0x02, 0x08,
   0xd2, 0x56, 0xb5, 0xaa, 0xaa, 0x4a, 0x29, 0x42, 0x00, 0x49, 0x00, 0x02,
   0x80, 0x00, 0x00, 0x40, 0x55, 0x55, 0xaa, 0x56, 0x49, 0x55, 0xab, 0x4a,
   0x40, 0x20, 0x08, 0x10, 0x50, 0xf1, 0xff, 0x56, 0xad, 0x2a, 0xa9, 0x84,
   0x14, 0x49, 0x00, 0x01, 0x08, 0x00, 0x00, 0x00, 0x40, 0x65, 0xd5, 0xb6,
   0x97, 0x2a, 0xaa, 0xf6, 0x14, 0x04, 0x02, 0x01, 0x91, 0x02, 0x44, 0xdb,
   0x76, 0xfb, 0x6b, 0x25, 0x29, 0x01, 0x00, 0x10, 0x02, 0x00, 0x80, 0x00,
   0x00, 0x40, 0x52, 0x25, 0xad, 0xaa, 0x54, 0x51, 0xcd, 0x6b, 0x00, 0x88,
   0x10, 0x04, 0xa8, 0xf2, 0x7d, 0xab, 0x95, 0xaa, 0x50, 0x41, 0x2a, 0x95,
   0x02, 0x48, 0x0c, 0x00, 0x00, 0x00, 0x90, 0x54, 0x55, 0x69, 0x5f, 0x49,
   0xa5, 0xba, 0x9a, 0x52, 0x00, 0x42, 0x20, 0x01, 0xa4, 0xd7, 0x6e, 0xb7,
   0x5e, 0x13, 0x94, 0x00, 0x10, 0xa4, 0x00, 0x10, 0x00, 0x00, 0x00, 0x40,
   0xa2, 0xaa, 0xda, 0x5a, 0x95, 0xaa, 0xaa, 0x22, 0x00, 0x08, 0x00, 0x00,
   0xa4, 0x72, 0xbf, 0xb5, 0xd4, 0x69, 0xc4, 0x22, 0xaa, 0x44, 0x00, 0x84,
   0x00, 0x80, 0x00, 0x00, 0x40, 0xa1, 0xa4, 0xaa, 0xba, 0xaa, 0xa4, 0xaa,
   0x4a, 0x02, 0x41, 0x12, 0x49, 0x04, 0xd4, 0xb5, 0xad, 0x95, 0xca, 0x89,
   0xa4, 0x00, 0x49, 0x95, 0x10, 0x28, 0x00, 0x00, 0x00, 0x90, 0xa0, 0x4a,
   0x55, 0x57, 0x95, 0xaa, 0xaa, 0x22, 0x48, 0x24, 0x40, 0x00, 0x50, 0x69,
   0xdf, 0x56, 0x55, 0x29, 0x25, 0x0b, 0x55, 0x84, 0x28, 0x85, 0x00, 0x00,
   0x00, 0x00, 0x80, 0xa2, 0x9a, 0xd2, 0x7c, 0x29, 0x89, 0x24, 0x4a, 0x01,
   0x80, 0x04, 0x48, 0x02, 0xd9, 0xdb, 0x5b, 0xab, 0x4a, 0x45, 0x28, 0x89,
   0x28, 0x43, 0x91, 0xa4, 0x00, 0x00, 0x00, 0x20, 0x40, 0xa5, 0xaa, 0xd3,
   0xaa, 0x32, 0x95, 0x20, 0x84, 0x54, 0x90, 0x00, 0x28, 0x6a, 0xbd, 0xd6,
   0x54, 0x95, 0x2a, 0x53, 0x52, 0x52, 0x2c, 0x05, 0x00, 0x02, 0x00, 0x00,
   0x20, 0x80, 0xaa, 0x2a, 0x55, 0x25, 0x45, 0x51, 0xa5, 0x94, 0xa0, 0x02,
   0x22, 0x81, 0xcc, 0xf7, 0xb6, 0xab, 0x54, 0x4a, 0x84, 0x94, 0xaa, 0xa9,
   0x5a, 0x09, 0x00, 0x00, 0x00, 0x00, 0x80, 0x54, 0x55, 0xea, 0xa9, 0x54,
   0x46, 0x95, 0x52, 0x7f, 0x21, 0x00, 0x54, 0xda, 0xad, 0xaf, 0x56, 0x55,
   0x15, 0xa9, 0xa2, 0x54, 0x2a, 0x55, 0x22, 0x00, 0x00, 0x00, 0x40, 0x80,
   0x55, 0x55, 0x15, 0xa7, 0xaa, 0x14, 0xaa, 0x48, 0x4a, 0x84, 0x88, 0x00,
   0xb2, 0xbd, 0xba, 0xb5, 0xd5, 0x2a, 0x29, 0x2a, 0x49, 0x21, 0x50, 0x45,
   0x00, 0x00, 0x00, 0x00, 0x00, 0x55, 0xa9, 0x6a, 0x55, 0x92, 0xd2, 0xaa,
   0xfa, 0x15, 0x01, 0x20, 0x52, 0xed, 0xab, 0x6e, 0x6f, 0xb5, 0x96, 0xa4,
   0xa4, 0x16, 0x4a, 0x85, 0x0a, 0x01, 0x00, 0x00, 0x00, 0x00, 0x92, 0xaa,
   0x4a, 0x95, 0x94, 0x14, 0xb5, 0x2a, 0x21, 0x10, 0x02, 0x40, 0x49, 0x7b,
   0x6d, 0x4a, 0x55, 0x15, 0x48, 0x55, 0xa9, 0x90, 0x2a, 0x5a, 0x00, 0x00,
   0x00, 0x00, 0x00, 0x54, 0x55, 0x55, 0x5a, 0x25, 0xd1, 0xfe, 0x45, 0x02,
   0x82, 0x90, 0x8a, 0xf2, 0x96, 0xba, 0xdd, 0x6a, 0x55, 0xa9, 0x24, 0x22,
   0xa5, 0xa4, 0x50, 0x05, 0x00, 0x00, 0x00, 0x00, 0xa8, 0xaa, 0xaa, 0x32,
   0xa9, 0xaa, 0x16, 0x49, 0x4a, 0x00, 0x00, 0x50, 0xe5, 0x76, 0x69, 0xab,
   0x5a, 0x2b, 0x41, 0x49, 0x24, 0xa8, 0x04, 0x02, 0x04, 0x00, 0x00, 0x00,
   0x00, 0x50, 0xd5, 0xaa, 0x54, 0x4a, 0xf2, 0x55, 0x2a, 0x01, 0x84, 0x04,
   0x41, 0xa9, 0xab, 0xb2, 0x5d, 0xab, 0x2a, 0x2a, 0x92, 0xd2, 0x0a, 0x50,
   0x49, 0x08, 0x00, 0x00, 0x00, 0x00, 0x50, 0x55, 0x55, 0xc9, 0x52, 0x45,
   0xab, 0x22, 0x89, 0x10, 0x20, 0x54, 0xea, 0xae, 0x64, 0x6b, 0xef, 0xd5,
   0x40, 0x92, 0x14, 0x45, 0x05, 0x08, 0x51, 0x00, 0x00, 0x00, 0x00, 0x50,
   0x55, 0x55, 0x55, 0x8a, 0x34, 0x55, 0x5d, 0x00, 0x00, 0x08, 0x51, 0xb1,
   0x59, 0xd1, 0xdd, 0x14, 0x55, 0x2b, 0x29, 0x69, 0x11, 0xa8, 0x52, 0x80,
   0x00, 0x00, 0x00, 0x00, 0x40, 0xd5, 0xaa, 0xaa, 0x29, 0x45, 0xaa, 0x52,
   0x25, 0x22, 0x01, 0x48, 0x65, 0xb7, 0x22, 0xdb, 0x76, 0x55, 0x55, 0x52,
   0x2b, 0xa5, 0x22, 0x82, 0x0a, 0x00, 0x00, 0x00, 0x00, 0x40, 0x55, 0x55,
   0xa5, 0xaa, 0x54, 0x49, 0x0d, 0x10, 0x00, 0x90, 0x2a, 0xb2, 0xaa, 0x90,
   0x6e, 0xab, 0xaa, 0x55, 0xad, 0x56, 0x48, 0x55, 0x29, 0x20, 0x00, 0x00,
   0x00, 0x00, 0x00, 0xab, 0x55, 0x55, 0x4b, 0x15, 0x29, 0xb5, 0x82, 0x08,
   0x02, 0x88, 0xf4, 0x55, 0x03, 0xda, 0xd6, 0x56, 0xad, 0xa9, 0xaa, 0xa2,
   0x00, 0x40, 0x25, 0x00, 0x00, 0x00, 0x00, 0x00, 0x54, 0xad, 0xaa, 0x96,
   0xa8, 0xa2, 0x4a, 0x10, 0x20, 0x90, 0x52, 0x50, 0xa5, 0x14, 0xb0, 0xb5,
   0x6a, 0x5b, 0xd5, 0xca, 0x0a, 0xaa, 0x4a, 0x92, 0x00, 0x00, 0x00, 0x00,
   0x00, 0xa4, 0x5a, 0x95, 0x2e, 0x23, 0x8a, 0x94, 0x02, 0x81, 0x00, 0x05,
   0x75, 0xab, 0x24, 0x60, 0xcd, 0xaa, 0xb6, 0xb6, 0x92, 0x92, 0x08, 0x50,
   0x25, 0x00, 0x00, 0x00, 0x00, 0x00, 0x54, 0xb5, 0xaa, 0x5a, 0x4c, 0xa9,
   0x22, 0x48, 0x00, 0x92, 0x50, 0x58, 0x55, 0x20, 0xa0, 0x37, 0xd5, 0xda,
   0xaa, 0x54, 0x4a, 0x52, 0x05, 0x4a, 0x00, 0x00, 0x00, 0x00, 0x00, 0xad,
   0x6a, 0xa5, 0xb6, 0x51, 0x92, 0x04, 0x00, 0x12, 0x00, 0x85, 0x72, 0xa5,
   0x02, 0x40, 0xfd, 0x9b, 0xaa, 0xaa, 0x52, 0x49, 0x02, 0x51, 0xa0, 0x00,
   0x00, 0x00, 0x00, 0x00, 0x52, 0xad, 0x2a, 0xd5, 0x4a, 0x49, 0x91, 0x00,
   0x40, 0x24, 0x10, 0xd8, 0x1a, 0x44, 0xc0, 0x53, 0x77, 0xab, 0x0a, 0x85,
   0x12, 0x28, 0x0a, 0x85, 0x00, 0x00, 0x00, 0x00, 0x00, 0x56, 0xb9, 0x55,
   0x57, 0x55, 0x4a, 0x02, 0x49, 0x00, 0x50, 0x42, 0xa9, 0xb2, 0x42, 0x82,
   0xde, 0x4a, 0xaa, 0xa8, 0xaa, 0xa4, 0xa2, 0x50, 0x94, 0x00, 0x00, 0x00,
   0x00, 0xa0, 0xad, 0xaa, 0xaa, 0xaa, 0xa5, 0x94, 0x08, 0x00, 0x42, 0x02,
   0x08, 0x5c, 0x29, 0x01, 0x00, 0x75, 0xab, 0x45, 0x55, 0x04, 0x15, 0x29,
   0x2b, 0x21, 0x00, 0x00, 0x00, 0x00, 0x20, 0x55, 0xd5, 0xd6, 0x56, 0x4d,
   0x21, 0x91, 0x04, 0x08, 0x94, 0x90, 0x74, 0xab, 0x20, 0x08, 0xd5, 0x3a,
   0x11, 0xa0, 0x6a, 0x55, 0x4a, 0xaa, 0x8a, 0x00, 0x00, 0x00, 0x00, 0x48,
   0x55, 0x55, 0x55, 0xab, 0x96, 0xaa, 0x04, 0x10, 0x40, 0x00, 0x00, 0xcc,
   0x48, 0x20, 0x00, 0xac, 0xab, 0xae, 0x4b, 0x09, 0xa9, 0xaa, 0x55, 0x15,
   0x00, 0x00, 0x00, 0x00, 0x28, 0xb5, 0x52, 0xad, 0xaa, 0xba, 0x14, 0x51,
   0x42, 0x02, 0x13, 0x91, 0x58, 0x5b, 0x62, 0x01, 0x58, 0x6b, 0x51, 0xaa,
   0x52, 0x25, 0x29, 0x55, 0x55, 0x00, 0x00, 0x00, 0x00, 0x50, 0x55, 0x95,
   0x52, 0xab, 0x6a, 0xa5, 0x04, 0x11, 0x48, 0x00, 0x00, 0xee, 0x14, 0x00,
   0x04, 0x50, 0xad, 0xaf, 0x2a, 0xad, 0xaa, 0xaa, 0xda, 0x2a, 0x00, 0x00,
   0x00, 0x00, 0xa4, 0x54, 0x15, 0xad, 0xaa, 0x4a, 0x29, 0x29, 0x02, 0x81,
   0x20, 0x22, 0x9a, 0x15, 0x92, 0x10, 0xe0, 0x6a, 0x54, 0x55, 0xa9, 0x54,
   0xad, 0xaa, 0xaa, 0x00, 0x00, 0x00, 0x00, 0x94, 0xaa, 0xaa, 0xd2, 0xa5,
   0xaa, 0x45, 0x44, 0x28, 0x54, 0x04, 0x80, 0x6a, 0xa6, 0x20, 0x44, 0x40,
   0x5b, 0xab, 0x56, 0x55, 0xab, 0xaa, 0xdd, 0x55, 0x00, 0x00, 0x00, 0x00,
   0x50, 0x55, 0x49, 0xac, 0xaa, 0x54, 0x55, 0x89, 0x82, 0x10, 0x40, 0x04,
   0xda, 0x02, 0x84, 0x00, 0x00, 0xab, 0xaa, 0xaa, 0x52, 0xd5, 0xaa, 0x2a,
   0x5b, 0x00, 0x00, 0x00, 0x00, 0xaa, 0xaa, 0x96, 0xb3, 0xa5, 0xaa, 0x96,
   0x24, 0x54, 0x0a, 0x01, 0x20, 0xab, 0xa9, 0x28, 0x88, 0x00, 0xd6, 0xaa,
   0xaa, 0xaa, 0xaa, 0x76, 0xd5, 0x56, 0x00, 0x00, 0x00, 0x00, 0x52, 0x55,
   0x69, 0x77, 0xa9, 0xaa, 0x94, 0xa4, 0x44, 0x22, 0x08, 0x01, 0x6e, 0x14,
   0x22, 0x01, 0x00, 0x58, 0xbb, 0xaa, 0xd6, 0x56, 0xa5, 0x15, 0xda, 0x00,
   0x00, 0x00, 0x00, 0x94, 0xaa, 0x56, 0x5a, 0x25, 0x25, 0xb5, 0x4a, 0x95,
   0x00, 0x20, 0x80, 0x2d, 0x69, 0x09, 0x08, 0x00, 0xb0, 0xaa, 0xdf, 0xaa,
   0xaa, 0x54, 0xa5, 0x68 };
