<?xml version="1.0" encoding="UTF-8"?>
<!DOCTYPE svg PUBLIC "-//W3C//DTD SVG 1.1//EN" "http://www.w3.org/Graphics/SVG/1.1/DTD/svg11.dtd">
<!-- Creator: CorelDRAW -->
<svg xmlns="http://www.w3.org/2000/svg" xml:space="preserve" width="199.452mm" height="113.646mm" style="shape-rendering:geometricPrecision; text-rendering:geometricPrecision; image-rendering:optimizeQuality; fill-rule:evenodd; clip-rule:evenodd"
viewBox="0 0 203.291 115.833"
 xmlns:xlink="http://www.w3.org/1999/xlink">
 <defs>
  <style type="text/css">
   <![CDATA[
    .str0 {stroke:black;stroke-width:0.0776666}
    .fil0 {fill:none}
    .fil1 {fill:black}
   ]]>
  </style>
 </defs>
 <g id="圖層_x0020_1">
  <metadata id="CorelCorpID_0Corel-Layer"/>
  <g id="_70510920">
   <line id="_70754176" class="fil0 str0" x1="99.5587" y1="56.7492" x2="98.4235" y2= "57.0047" />
   <line id="_70508904" class="fil0 str0" x1="97.1458" y1="57.3455" x2="95.9253" y2= "57.7994" />
   <line id="_70540536" class="fil0 str0" x1="94.7613" y1="58.3956" x2="93.739" y2= "58.935" />
   <polygon id="_70535752" class="fil1" points="99.5307,56.3518 99.5871,57.1467 101.943,56.5789 "/>
   <polygon id="_70746296" class="fil0 str0" points="99.5307,56.3518 99.5871,57.1467 101.943,56.5789 "/>
   <polygon id="_70837504" class="fil1" points="93.9664,59.2473 93.4835,58.6228 91.8086,60.3829 "/>
   <polygon id="_70542064" class="fil0 str0" points="93.9664,59.2473 93.4835,58.6228 91.8086,60.3829 "/>
   <polygon id="_70764728" class="fil1" points="94.6193,53.7682 94.3638,54.0237 94.5342,54.5064 94.5622,54.9039 94.5058,55.1594 94.3355,55.3014 93.938,55.6137 94.1932,55.642 94.4487,55.6137 94.6761,55.4717 94.8181,55.2729 94.8745,54.9891 94.8745,54.6483 94.7897,54.2225 "/>
   <polygon id="_70514224" class="fil1" points="93.739,52.5193 93.3415,52.8316 93.455,52.8033 93.7673,52.9168 93.8525,53.0019 94.0513,53.2856 94.2502,53.7399 93.3131,54.109 93.0576,54.3645 93.2566,54.8187 93.4835,55.1877 93.7106,55.4432 93.938,55.6137 94.3355,55.3014 94.1084,55.3014 93.8809,55.1594 93.6541,54.8471 93.427,54.3928 94.3638,54.0237 94.6193,53.7682 94.4204,53.2856 94.1932,52.9452 93.9664,52.6897 "/>
   <polygon id="_71001240" class="fil1" points="93.2283,52.5193 93.0011,52.6613 92.8592,52.8601 92.8021,53.1436 92.8021,53.4844 92.8872,53.8818 93.0576,54.3645 93.3131,54.109 93.143,53.5979 93.1147,53.2288 93.1712,52.9736 93.3415,52.8316 93.739,52.5193 93.4835,52.4626 "/>
   <polygon id="_70760112" class="fil1" points="95.6696,53.2572 95.3576,55.1877 95.755,55.0458 95.9253,53.7682 95.9534,53.4844 "/>
   <polygon id="_70837368" class="fil1" points="94.6761,52.0083 94.3068,52.1503 95.6696,53.2572 95.9534,53.4844 96.1525,53.6547 97.1743,54.478 97.543,54.3077 96.0389,53.0869 95.755,52.8884 95.7266,52.8601 95.414,52.6045 "/>
   <polygon id="_70754744" class="fil1" points="96.3228,51.3554 95.9818,51.4973 95.8114,52.491 95.7834,52.5193 95.755,52.8884 96.0389,53.0869 "/>
   <polygon id="_70753688" class="fil1" points="98.253,53.0019 98.1112,52.6329 99.0193,52.2922 99.1613,52.6613 "/>
   <line id="_70539328" class="fil0 str0" x1="20.3265" y1="63.165" x2="125.762" y2= "110.234" />
   <line id="_70760704" class="fil0 str0" x1="125.762" y1="110.234" x2="125.762" y2= "115.798" />
   <line id="_70906584" class="fil0 str0" x1="125.762" y1="110.234" x2="183.59" y2= "80.8227" />
   <line id="_70900168" class="fil0 str0" x1="20.3265" y1="68.7292" x2="125.762" y2= "115.798" />
   <line id="_70523168" class="fil0 str0" x1="125.762" y1="115.798" x2="183.59" y2= "86.4154" />
   <line id="_71285048" class="fil0 str0" x1="183.59" y1="80.8227" x2="183.59" y2= "86.4154" />
   <line id="_70509192" class="fil0 str0" x1="20.3265" y1="63.165" x2="20.3265" y2= "68.7292" />
   <line id="_70537912" class="fil0 str0" x1="20.3265" y1="63.165" x2="78.1254" y2= "33.7827" />
   <line id="_70535264" class="fil0 str0" x1="78.1254" y1="33.7827" x2="183.59" y2= "80.8227" />
   <line id="_70526760" class="fil0 str0" x1="24.9255" y1="60.8372" x2="125.648" y2= "105.777" />
   <line id="_70512392" class="fil0 str0" x1="125.648" y1="105.777" x2="174.278" y2= "81.0782" />
   <line id="_70856696" class="fil0 str0" x1="73.5263" y1="36.1105" x2="174.278" y2= "81.0782" />
   <line id="_70538432" class="fil0 str0" x1="29.6093" y1="62.9378" x2="78.2389" y2= "38.2114" />
   <line id="_70503264" class="fil0 str0" x1="29.5244" y1="58.4808" x2="34.2081" y2= "60.5817" />
   <line id="_70511112" class="fil0 str0" x1="68.9274" y1="38.4385" x2="73.6399" y2= "40.5675" />
   <line id="_70511776" class="fil0 str0" x1="57.7704" y1="94.4493" x2="146.116" y2= "49.5383" />
   <line id="_70510200" class="fil0 str0" x1="101.943" y1="71.9938" x2="101.943" y2= "16.6644" />
   <line id="_70339424" class="fil0 str0" x1="32.6749" y1="41.0785" x2="34.407" y2= "41.8451" />
   <line id="_71088688" class="fil0 str0" x1="35.5988" y1="42.3845" x2="36.7915" y2= "42.9239" />
   <line id="_70539720" class="fil0 str0" x1="37.9837" y1="43.4633" x2="39.1764" y2= "44.0027" />
   <line id="_70541080" class="fil0 str0" x1="40.3682" y1="44.5135" x2="41.5889" y2= "45.0529" />
   <line id="_69964032" class="fil0 str0" x1="42.7817" y1="45.5923" x2="43.9735" y2= "46.1317" />
   <line id="_70523736" class="fil0 str0" x1="45.1662" y1="46.6712" x2="46.3583" y2= "47.1823" />
   <line id="_70845720" class="fil0 str0" x1="47.551" y1="47.7216" x2="48.7428" y2= "48.261" />
   <line id="_70842408" class="fil0 str0" x1="49.9355" y1="48.8002" x2="51.128" y2= "49.3396" />
   <line id="_70268992" class="fil0 str0" x1="52.3484" y1="49.8506" x2="53.5408" y2= "50.39" />
   <line id="_70838656" class="fil0 str0" x1="54.7329" y1="50.9295" x2="55.9254" y2= "51.4689" />
   <line id="_70773080" class="fil0 str0" x1="57.1175" y1="51.9799" x2="58.3099" y2= "52.5193" />
   <line id="_70509360" class="fil0 str0" x1="59.5026" y1="53.0585" x2="60.6947" y2= "53.5979" />
   <line id="_70510000" class="fil0 str0" x1="61.887" y1="54.1373" x2="63.1076" y2= "54.6483" />
   <line id="_70705640" class="fil0 str0" x1="64.3" y1="55.1877" x2="65.4927" y2= "55.7272" />
   <line id="_69793328" class="fil0 str0" x1="66.6845" y1="56.2666" x2="67.8771" y2= "56.806" />
   <line id="_70511392" class="fil0 str0" x1="69.0694" y1="57.317" x2="70.2617" y2= "57.8562" />
   <line id="_70510640" class="fil0 str0" x1="71.4538" y1="58.3956" x2="72.6465" y2= "58.935" />
   <line id="_70509792" class="fil0 str0" x1="73.8674" y1="59.4745" x2="75.0592" y2= "59.9855" />
   <line id="_70512032" class="fil0 str0" x1="76.2518" y1="60.5249" x2="77.4439" y2= "61.0643" />
   <line id="_70708968" class="fil0 str0" x1="78.6366" y1="61.6038" x2="79.8284" y2= "62.1429" />
   <line id="_71047080" class="fil0 str0" x1="81.0211" y1="62.6539" x2="82.2136" y2= "63.1933" />
   <line id="_71048168" class="fil0 str0" x1="83.4054" y1="63.7328" x2="84.5981" y2= "64.2722" />
   <line id="_71049256" class="fil0 str0" x1="85.8185" y1="64.7832" x2="87.0109" y2= "65.3226" />
   <line id="_71050344" class="fil0 str0" x1="88.2031" y1="65.8621" x2="89.3955" y2= "66.4012" />
   <line id="_71051432" class="fil0 str0" x1="90.5882" y1="66.9406" x2="91.7803" y2= "67.4516" />
   <line id="_71052520" class="fil0 str0" x1="92.9727" y1="67.9911" x2="94.1648" y2= "68.5305" />
   <line id="_71053608" class="fil0 str0" x1="95.3576" y1="69.0699" x2="96.5783" y2= "69.6093" />
   <line id="_71054696" class="fil0 str0" x1="97.7701" y1="70.1203" x2="98.9628" y2= "70.6598" />
   <line id="_71055784" class="fil0 str0" x1="100.155" y1="71.1989" x2="101.347" y2= "71.7384" />
   <line id="_71056872" class="fil0 str0" x1="102.539" y1="72.2777" x2="103.732" y2= "72.7888" />
   <line id="_71057960" class="fil0 str0" x1="104.925" y1="73.3282" x2="106.117" y2= "73.8676" />
   <line id="_71059048" class="fil0 str0" x1="107.337" y1="74.407" x2="108.53" y2= "74.9464" />
   <line id="_71060136" class="fil0 str0" x1="109.722" y1="75.4572" x2="110.914" y2= "75.9966" />
   <line id="_71061224" class="fil0 str0" x1="112.107" y1="76.536" x2="113.299" y2= "77.0754" />
   <line id="_71062312" class="fil0 str0" x1="114.491" y1="77.5865" x2="115.684" y2= "78.1259" />
   <line id="_71063400" class="fil0 str0" x1="116.876" y1="78.6654" x2="118.097" y2= "79.2047" />
   <line id="_71064488" class="fil0 str0" x1="119.289" y1="79.7438" x2="120.481" y2= "80.2549" />
   <line id="_71065576" class="fil0 str0" x1="121.674" y1="80.7944" x2="122.866" y2= "81.3337" />
   <line id="_71066664" class="fil0 str0" x1="124.058" y1="81.8731" x2="125.25" y2= "82.4126" />
   <line id="_71067752" class="fil0 str0" x1="126.443" y1="82.9236" x2="127.635" y2= "83.4631" />
   <line id="_71068840" class="fil0 str0" x1="128.856" y1="84.0024" x2="130.048" y2= "84.5416" />
   <line id="_71069928" class="fil0 str0" x1="131.241" y1="85.081" x2="132.433" y2= "85.5921" />
   <line id="_71071016" class="fil0 str0" x1="133.625" y1="86.1314" x2="134.818" y2= "86.6708" />
   <line id="_71072104" class="fil0 str0" x1="136.01" y1="87.2103" x2="137.202" y2= "87.7497" />
   <line id="_71073192" class="fil0 str0" x1="138.395" y1="88.2607" x2="139.615" y2= "88.7998" />
   <line id="_71074280" class="fil0 str0" x1="140.808" y1="89.3393" x2="142" y2= "89.8787" />
   <line id="_71075368" class="fil0 str0" x1="143.192" y1="90.4181" x2="144.385" y2= "90.9291" />
   <line id="_71076456" class="fil0 str0" x1="145.577" y1="91.4686" x2="146.769" y2= "92.008" />
   <line id="_71077544" class="fil0 str0" x1="147.961" y1="92.5474" x2="149.154" y2= "93.0581" />
   <line id="_71078632" class="fil0 str0" x1="150.374" y1="93.5976" x2="151.567" y2= "94.137" />
   <line id="_71079720" class="fil0 str0" x1="152.759" y1="94.6764" x2="153.952" y2= "95.2159" />
   <line id="_71080808" class="fil0 str0" x1="155.144" y1="95.7268" x2="156.336" y2= "96.2663" />
   <line id="_71081896" class="fil0 str0" x1="157.529" y1="96.8057" x2="158.721" y2= "97.3452" />
   <line id="_71286824" class="fil0 str0" x1="159.913" y1="97.8843" x2="161.134" y2= "98.3953" />
   <line id="_71287912" class="fil0 str0" x1="162.326" y1="98.9347" x2="163.519" y2= "99.4742" />
   <line id="_71289000" class="fil0 str0" x1="164.711" y1="100.014" x2="165.903" y2= "100.553" />
   <line id="_71290088" class="fil0 str0" x1="167.096" y1="101.064" x2="168.288" y2= "101.603" />
   <line id="_71291176" class="fil0 str0" x1="169.48" y1="102.143" x2="171.212" y2= "102.909" />
   <line id="_71292264" class="fil0 str0" x1="136.039" y1="54.6768" x2="136.039" y2= "27.9914" />
   <line id="_71293352" class="fil0 str0" x1="62.313" y1="92.15" x2="62.313" y2= "73.1294" />
   <line id="_71294440" class="fil0 str0" x1="101.943" y1="71.9938" x2="62.313" y2= "73.1294" />
   <line id="_71295528" class="fil0 str0" x1="101.943" y1="71.9938" x2="136.039" y2= "27.9914" />
   <line id="_71296616" class="fil0 str0" x1="64.0729" y1="55.1026" x2="64.0729" y2= "54.2793" />
   <line id="_71297704" class="fil0 str0" x1="64.0729" y1="52.9736" x2="64.0729" y2= "51.6392" />
   <line id="_71298792" class="fil0 str0" x1="64.0729" y1="50.3333" x2="64.0729" y2= "49.0273" />
   <line id="_71299880" class="fil0 str0" x1="64.0729" y1="47.7216" x2="64.0729" y2= "46.4157" />
   <line id="_71300968" class="fil0 str0" x1="64.0729" y1="45.1097" x2="64.0729" y2= "43.8041" />
   <line id="_71302056" class="fil0 str0" x1="64.0729" y1="42.4981" x2="64.0729" y2= "41.1637" />
   <line id="_71303144" class="fil0 str0" x1="64.0729" y1="39.8577" x2="64.0729" y2= "38.5521" />
   <line id="_71304232" class="fil0 str0" x1="64.0729" y1="37.2461" x2="64.0729" y2= "35.9402" />
   <line id="_71305320" class="fil0 str0" x1="64.0729" y1="34.6344" x2="64.0729" y2= "33.3284" />
   <line id="_71306408" class="fil0 str0" x1="64.0729" y1="31.9942" x2="64.0729" y2= "30.6885" />
   <line id="_71307496" class="fil0 str0" x1="64.0729" y1="29.3825" x2="64.0729" y2= "28.5592" />
   <line id="_71308584" class="fil0 str0" x1="142.369" y1="90.049" x2="142.369" y2= "88.1472" />
   <line id="_71309672" class="fil0 str0" x1="142.369" y1="86.8412" x2="142.369" y2= "85.5353" />
   <line id="_71310760" class="fil0 str0" x1="142.369" y1="84.2293" x2="142.369" y2= "82.9236" />
   <line id="_71311848" class="fil0 str0" x1="142.369" y1="81.6176" x2="142.369" y2= "80.3116" />
   <line id="_71312936" class="fil0 str0" x1="142.369" y1="78.9777" x2="142.369" y2= "77.6717" />
   <line id="_71314024" class="fil0 str0" x1="142.369" y1="76.3656" x2="142.369" y2= "75.06" />
   <line id="_71315112" class="fil0 str0" x1="142.369" y1="73.754" x2="142.369" y2= "71.8802" />
   <line id="_71316200" class="fil0 str0" x1="101.943" y1="71.9938" x2="101.518" y2= "71.5112" />
   <line id="_71317288" class="fil0 str0" x1="100.638" y1="70.5178" x2="99.7862" y2= "69.5241" />
   <line id="_71318376" class="fil0 str0" x1="98.9344" y1="68.5305" x2="98.0541" y2= "67.5368" />
   <line id="_71319464" class="fil0 str0" x1="97.2023" y1="66.5715" x2="96.3509" y2= "65.5781" />
   <line id="_71320552" class="fil0 str0" x1="95.4994" y1="64.5845" x2="94.6193" y2= "63.5908" />
   <line id="_71321640" class="fil0 str0" x1="93.7673" y1="62.6255" x2="92.9156" y2= "61.6321" />
   <line id="_71322728" class="fil0 str0" x1="92.0358" y1="60.6384" x2="91.1844" y2= "59.6448" />
   <line id="_71323816" class="fil0 str0" x1="90.3327" y1="58.6796" x2="89.4522" y2= "57.6859" />
   <line id="_71324904" class="fil0 str0" x1="88.6006" y1="56.6924" x2="87.7491" y2= "55.6988" />
   <line id="_71325992" class="fil0 str0" x1="86.8693" y1="54.7335" x2="86.0176" y2= "53.7399" />
   <line id="_71327080" class="fil0 str0" x1="85.1659" y1="52.7464" x2="84.2855" y2= "51.7528" />
   <line id="_71328168" class="fil0 str0" x1="83.4338" y1="50.7875" x2="82.5823" y2= "49.7939" />
   <line id="_71329256" class="fil0 str0" x1="81.7306" y1="48.8002" x2="80.8508" y2= "47.8068" />
   <line id="_71330344" class="fil0 str0" x1="79.999" y1="46.8132" x2="79.1471" y2= "45.8479" />
   <line id="_71331432" class="fil0 str0" x1="78.2672" y1="44.8542" x2="77.4156" y2= "43.8608" />
   <line id="_71332520" class="fil0 str0" x1="76.5639" y1="42.8672" x2="75.6841" y2= "41.9018" />
   <line id="_71333608" class="fil0 str0" x1="74.8323" y1="40.9082" x2="73.9809" y2= "39.9145" />
   <line id="_71334696" class="fil0 str0" x1="73.1005" y1="38.9212" x2="72.2488" y2= "37.9558" />
   <line id="_71335784" class="fil0 str0" x1="71.3973" y1="36.9622" x2="70.5172" y2= "35.9685" />
   <line id="_71336872" class="fil0 str0" x1="69.6658" y1="34.9751" x2="68.8138" y2= "34.0098" />
   <line id="_71337960" class="fil0 str0" x1="67.962" y1="33.0162" x2="67.0822" y2= "32.0225" />
   <line id="_71339048" class="fil0 str0" x1="66.2305" y1="31.0288" x2="65.3791" y2= "30.0355" />
   <line id="_71340136" class="fil0 str0" x1="64.4991" y1="29.0702" x2="64.0729" y2= "28.5592" />
   <line id="_71341224" class="fil0 str0" x1="101.943" y1="71.9938" x2="103.164" y2= "71.9938" />
   <line id="_71342312" class="fil0 str0" x1="104.47" y1="71.9938" x2="105.804" y2= "71.9938" />
   <line id="_71343400" class="fil0 str0" x1="107.11" y1="71.9938" x2="108.416" y2= "71.9654" />
   <line id="_71344488" class="fil0 str0" x1="109.722" y1="71.9654" x2="111.028" y2= "71.9654" />
   <line id="_71345576" class="fil0 str0" x1="112.334" y1="71.9654" x2="113.64" y2= "71.9654" />
   <line id="_71346664" class="fil0 str0" x1="114.945" y1="71.9654" x2="116.252" y2= "71.9654" />
   <line id="_71347752" class="fil0 str0" x1="117.586" y1="71.937" x2="118.892" y2= "71.937" />
   <line id="_71348840" class="fil0 str0" x1="120.197" y1="71.937" x2="121.503" y2= "71.937" />
   <line id="_71349928" class="fil0 str0" x1="122.809" y1="71.937" x2="124.115" y2= "71.937" />
   <line id="_71351016" class="fil0 str0" x1="125.421" y1="71.937" x2="126.727" y2= "71.9087" />
   <line id="_71352104" class="fil0 str0" x1="128.032" y1="71.9087" x2="129.367" y2= "71.9087" />
   <line id="_71353192" class="fil0 str0" x1="130.673" y1="71.9087" x2="131.978" y2= "71.9087" />
   <line id="_71354280" class="fil0 str0" x1="133.285" y1="71.9087" x2="134.59" y2= "71.9087" />
   <line id="_71355368" class="fil0 str0" x1="135.897" y1="71.8802" x2="137.202" y2= "71.8802" />
   <line id="_71356456" class="fil0 str0" x1="138.508" y1="71.8802" x2="139.814" y2= "71.8802" />
   <line id="_71357544" class="fil0 str0" x1="141.148" y1="71.8802" x2="142.369" y2= "71.8802" />
   <polygon id="_71358632" class="fil1" points="174.306,104.442 173.057,106.514 173.568,106.514 174.363,105.124 174.534,104.811 "/>
   <polygon id="_71359440" class="fil1" points="173.71,102.512 173.199,102.512 174.306,104.442 174.534,104.811 174.676,105.095 175.47,106.514 176.01,106.514 174.789,104.414 174.562,104.045 174.534,103.988 174.306,103.534 "/>
   <polygon id="_71360248" class="fil1" points="175.925,102.512 175.442,102.512 174.818,103.591 174.789,103.619 174.562,104.045 174.789,104.414 "/>
   <polygon id="_71361056" class="fil1" points="177.514,103.221 177.145,103.221 177.145,104.329 176.265,104.329 176.265,104.783 177.145,104.783 177.145,105.862 177.514,105.862 177.514,104.783 178.394,104.783 178.394,104.329 177.514,104.329 "/>
   <polygon id="_71361864" class="fil1" points="26.9409,35.713 25.6917,37.7855 26.2028,37.7855 26.9974,36.3943 27.168,36.082 "/>
   <polygon id="_71362672" class="fil1" points="26.3447,33.7827 25.8336,33.7827 26.9409,35.713 27.168,36.082 27.2813,36.366 28.1046,37.7855 28.6157,37.7855 27.4232,35.6846 27.168,35.3156 27.168,35.2588 26.9125,34.8048 "/>
   <polygon id="_71363480" class="fil1" points="28.5304,33.7827 28.0763,33.7827 27.4232,34.8332 27.3949,34.8899 27.168,35.3156 27.4232,35.6846 "/>
   <polygon id="_71364288" class="fil1" points="30.0352,36.5931 30.0352,36.082 31.256,36.082 31.256,36.5931 "/>
   <polygon id="_71365168" class="fil1" points="50.3895,98.1114 50.4179,98.5656 50.6734,98.6224 51.0143,98.5089 51.2412,98.1398 50.6169,98.1398 "/>
   <polygon id="_71365904" class="fil1" points="50.6449,94.5345 50.2191,94.5345 51.0992,97.4584 51.2983,96.8909 51.2698,96.6922 51.128,96.2095 "/>
   <polygon id="_71366712" class="fil1" points="52.3484,94.5345 51.9512,94.5345 51.4683,96.2379 51.4118,96.4083 51.2983,96.8909 51.0992,97.4584 51.0709,97.572 50.9572,97.941 50.8154,98.083 50.6169,98.1398 51.2412,98.1398 51.2983,98.0263 51.4683,97.4868 "/>
   <polygon id="_71367520" class="fil1" points="52.5472,96.2379 52.5472,95.7553 53.7393,95.7553 53.7393,96.2379 "/>
   <polygon id="_71368400" class="fil1" points="2.07254,35.3156 1.67503,35.5142 1.61795,36.1673 1.50471,36.6215 1.30565,36.8771 1.05013,36.9906 0.454278,37.1609 0.709803,37.3312 1.05013,37.388 1.36273,37.3312 1.61795,37.1609 1.81701,36.8771 1.95899,36.4511 2.04379,35.9402 "/>
   <polygon id="_71369392" class="fil1" points="1.61795,33.4704 1.05013,33.6407 1.16367,33.6692 1.47597,33.953 1.53305,34.0667 1.64669,34.4925 1.67503,35.1171 0.397506,35.1171 0,35.3156 0.028437,35.9402 0.113544,36.4511 0.255525,36.8771 0.454278,37.1609 1.05013,36.9906 0.76627,36.8771 0.567822,36.6215 0.454278,36.1388 0.397506,35.5142 1.67503,35.5142 2.07254,35.3156 2.04379,34.6913 1.95899,34.1518 1.81701,33.7544 "/>
   <polygon id="_71370200" class="fil1" points="1.05013,33.2433 0.709803,33.3001 0.454278,33.4704 0.255525,33.7544 0.113544,34.1518 0.028437,34.6913 0,35.3156 0.397506,35.1171 0.454278,34.4641 0.567822,34.0098 0.76627,33.726 1.05013,33.6407 1.61795,33.4704 1.36273,33.3001 "/>
   <polygon id="_71371264" class="fil1" points="3.54851,35.2307 2.29932,37.3029 2.81067,37.3029 3.60559,35.9117 3.7759,35.6279 "/>
   <polygon id="_71372072" class="fil1" points="2.95266,33.3001 2.4413,33.3001 3.54851,35.2307 3.7759,35.6279 3.91758,35.8834 4.71259,37.3029 5.25167,37.3029 4.03112,35.2022 3.80403,34.8332 3.7759,34.7764 3.54851,34.3505 "/>
   <polygon id="_71372880" class="fil1" points="5.16677,33.3001 4.68385,33.3001 4.05956,34.379 4.03112,34.4073 3.80403,34.8332 4.03112,35.2022 "/>
   <polygon id="_71373688" class="fil1" points="6.67148,36.1105 6.67148,35.6279 7.86359,35.6279 7.86359,36.1105 "/>
   <polygon id="_71374568" class="fil1" points="11.6109,35.713 9.51028,35.713 9.51028,36.1673 11.6109,36.1673 "/>
   <polygon id="_71375376" class="fil1" points="11.6109,34.4925 9.51028,34.4925 9.51028,34.9467 11.6109,34.9467 "/>
   <polygon id="_71376344" class="fil1" points="13.7399,36.3376 13.3424,36.3943 13.4276,36.7351 13.6549,37.1326 14.2512,36.9906 13.9105,36.8203 13.8818,36.7918 "/>
   <polygon id="_71377240" class="fil1" points="14.7052,35.3723 14.3363,35.5142 13.5695,35.5994 13.8534,35.855 14.2512,35.9685 14.3077,35.9685 14.6767,35.7982 14.7335,35.7697 15.0175,35.4291 "/>
   <polygon id="_71378048" class="fil1" points="13.5979,33.6692 13.5414,33.726 13.3424,34.1518 13.2859,34.6344 13.2859,34.7196 13.3711,35.2022 13.5695,35.5994 14.3363,35.5142 14.2228,35.5142 13.8818,35.2871 13.7969,35.1455 13.7115,34.6628 13.7115,34.379 13.8818,33.953 13.9954,33.8395 14.3648,33.6975 "/>
   <polygon id="_71379408" class="fil1" points="14.3077,33.3001 14.2793,33.3001 13.9105,33.3852 13.5979,33.6692 14.3648,33.6975 14.4497,33.6975 14.7906,33.953 14.8755,34.1235 14.9607,34.6344 14.9607,34.8616 14.7906,35.2871 14.7052,35.3723 15.0175,35.4291 15.0175,35.5427 15.0175,35.6279 14.9607,36.1388 14.8187,36.5931 14.5916,36.8771 14.2512,36.9906 13.6549,37.1326 13.8534,37.3029 14.2512,37.388 14.5348,37.3597 14.8755,37.1609 15.0746,36.9054 15.273,36.4511 15.3301,36.2525 15.3865,35.7982 15.4149,35.2307 15.4149,35.0319 15.3584,34.4925 15.273,34.095 15.1597,33.8395 14.8755,33.4989 14.6767,33.3852 "/>
   <polygon id="_71380216" class="fil1" points="16.2382,33.5272 16.0962,33.726 15.8978,34.1802 15.8695,34.3221 15.8124,34.7764 15.784,35.3439 15.784,35.6279 15.8407,36.1957 15.9544,36.6215 16.0962,36.9622 16.1533,37.0189 16.8347,36.9906 16.6641,36.9622 16.3802,36.6499 16.2953,36.4228 16.2099,35.9685 16.1818,35.3439 16.2099,34.8048 16.2667,34.3221 16.3802,33.9815 16.4938,33.8679 16.8347,33.6975 "/>
   <polygon id="_71381352" class="fil1" points="16.8347,33.3001 16.5792,33.3284 16.2382,33.5272 16.8347,33.6975 16.9767,33.726 17.2887,34.0383 17.3736,34.237 17.4591,34.7196 17.4591,35.3439 17.4591,35.8265 17.4022,36.3376 17.2887,36.6499 17.1751,36.8203 16.8347,36.9906 16.1533,37.0189 16.4373,37.3029 16.8347,37.388 17.0899,37.3597 17.4022,37.1609 17.5726,36.9338 17.7711,36.4796 17.7994,36.366 17.8565,35.9117 17.8849,35.3439 17.8565,34.8332 17.7994,34.379 17.7711,34.237 17.601,33.7827 17.5726,33.7544 17.2887,33.4137 17.2316,33.3852 "/>
   <polygon id="_71382160" class="fil1" points="18.5379,33.4704 18.4808,33.5556 18.3672,34.0098 18.3672,34.1235 18.5379,34.5493 18.6228,34.6061 18.9637,34.7481 19.0773,34.7481 19.4177,34.5209 18.9921,34.4641 18.7082,34.3221 18.6228,34.0098 18.7082,33.6692 18.9921,33.5272 "/>
   <polygon id="_71383224" class="fil1" points="18.9637,33.2433 18.8783,33.2433 18.5379,33.4704 18.9921,33.5272 19.2477,33.6692 19.3326,34.0098 19.2477,34.3221 18.9921,34.4641 19.4177,34.5209 19.4744,34.4358 19.5881,34.0098 19.5881,33.8963 19.4177,33.4704 19.3326,33.3852 "/>
   <polygon id="_71384536" class="fil1" points="184.668,104.84 184.271,105.038 184.214,105.691 184.101,106.146 183.902,106.429 183.646,106.514 183.05,106.685 183.306,106.855 183.646,106.912 183.959,106.855 184.214,106.685 184.413,106.401 184.555,106.004 184.64,105.464 "/>
   <polygon id="_71385848" class="fil1" points="184.214,102.994 183.618,103.165 183.76,103.193 184.072,103.477 184.129,103.591 184.214,104.016 184.271,104.641 182.993,104.641 182.596,104.84 182.624,105.464 182.709,106.004 182.851,106.401 183.05,106.685 183.646,106.514 183.362,106.429 183.164,106.146 183.05,105.691 182.993,105.038 184.271,105.038 184.668,104.84 184.64,104.215 184.555,103.704 184.413,103.278 "/>
   <polygon id="_71386984" class="fil1" points="183.646,102.767 183.306,102.824 183.05,102.994 182.851,103.278 182.709,103.704 182.624,104.215 182.596,104.84 182.993,104.641 183.05,104.016 183.164,103.534 183.362,103.278 183.618,103.165 184.214,102.994 183.959,102.824 "/>
   <polygon id="_71388296" class="fil1" points="186.144,104.755 184.895,106.855 185.406,106.855 186.201,105.436 186.372,105.152 "/>
   <polygon id="_71389104" class="fil1" points="185.548,102.824 185.037,102.824 186.144,104.755 186.372,105.152 186.513,105.407 187.308,106.855 187.848,106.855 186.627,104.726 186.4,104.357 186.372,104.3 186.144,103.874 "/>
   <polygon id="_71389912" class="fil1" points="187.763,102.824 187.28,102.824 186.655,103.903 186.627,103.931 186.4,104.357 186.627,104.726 "/>
   <polygon id="_71390720" class="fil1" points="190.601,103.562 190.232,103.562 190.232,104.641 189.352,104.641 189.352,105.095 190.232,105.095 190.232,106.202 190.601,106.202 190.601,105.095 191.481,105.095 191.481,104.641 190.601,104.641 "/>
   <polygon id="_71391528" class="fil1" points="195.342,105.237 193.213,105.237 193.213,105.72 195.342,105.72 "/>
   <polygon id="_71392408" class="fil1" points="195.342,104.016 193.213,104.016 193.213,104.499 195.342,104.499 "/>
   <polygon id="_71393376" class="fil1" points="197.443,105.89 197.074,105.918 197.131,106.288 197.358,106.656 197.982,106.514 197.642,106.372 197.613,106.316 "/>
   <polygon id="_71394272" class="fil1" points="198.408,104.925 198.068,105.067 197.301,105.124 197.585,105.379 197.954,105.493 198.04,105.493 198.408,105.351 198.465,105.294 198.72,104.953 "/>
   <polygon id="_71395080" class="fil1" points="197.301,103.193 197.245,103.25 197.074,103.676 197.017,104.187 197.017,104.243 197.103,104.726 197.301,105.124 198.068,105.067 197.926,105.038 197.613,104.811 197.5,104.669 197.415,104.187 197.443,103.903 197.613,103.505 197.727,103.392 198.068,103.221 "/>
   <polygon id="_71397032" class="fil1" points="198.011,102.824 197.982,102.824 197.613,102.909 197.301,103.193 198.068,103.221 198.181,103.25 198.493,103.477 198.607,103.647 198.692,104.158 198.664,104.385 198.522,104.811 198.408,104.925 198.72,104.953 198.72,105.067 198.72,105.18 198.664,105.663 198.522,106.117 198.294,106.401 197.982,106.514 197.358,106.656 197.585,106.827 197.982,106.912 198.238,106.884 198.578,106.685 198.806,106.429 198.976,105.975 199.033,105.805 199.09,105.322 199.118,104.755 199.118,104.556 199.09,104.045 198.976,103.619 198.862,103.363 198.607,103.023 198.408,102.909 "/>
   <polygon id="_71397840" class="fil1" points="199.969,103.051 199.799,103.278 199.629,103.732 199.601,103.846 199.515,104.3 199.515,104.868 199.515,105.18 199.572,105.72 199.657,106.146 199.827,106.486 199.856,106.543 200.537,106.514 200.395,106.486 200.083,106.174 199.998,105.947 199.941,105.493 199.913,104.868 199.913,104.357 199.998,103.846 200.111,103.505 200.197,103.392 200.537,103.221 "/>
   <polygon id="_71398976" class="fil1" points="200.537,102.824 200.31,102.852 199.969,103.051 200.537,103.221 200.708,103.25 200.992,103.562 201.105,103.789 201.162,104.243 201.19,104.868 201.162,105.351 201.105,105.862 200.992,106.174 200.878,106.344 200.537,106.514 199.856,106.543 200.169,106.827 200.537,106.912 200.793,106.884 201.134,106.685 201.304,106.458 201.474,106.004 201.503,105.89 201.56,105.436 201.588,104.868 201.588,104.357 201.531,103.931 201.474,103.761 201.332,103.335 201.304,103.278 200.992,102.937 200.935,102.909 "/>
   <polygon id="_71399784" class="fil1" points="202.269,102.994 202.212,103.079 202.099,103.534 202.099,103.647 202.269,104.073 202.326,104.13 202.695,104.3 202.78,104.272 203.121,104.073 202.695,103.988 202.439,103.846 202.326,103.534 202.439,103.193 202.695,103.051 "/>
   <polygon id="_71401096" class="fil1" points="202.695,102.767 202.61,102.767 202.269,102.994 202.695,103.051 202.95,103.193 203.064,103.534 202.95,103.846 202.695,103.988 203.121,104.073 203.177,103.988 203.291,103.534 203.291,103.42 203.121,102.994 203.064,102.909 "/>
   <polygon id="_71402408" class="fil1" points="158.891,36.082 158.55,36.3376 158.55,36.8203 158.579,36.7918 158.948,36.5648 159.005,36.508 159.317,36.224 "/>
   <polygon id="_71403416" class="fil1" points="159.715,35.3439 159.459,35.3439 159.402,35.4859 159.118,35.8834 158.891,36.082 159.317,36.224 159.317,39.347 159.715,39.347 "/>
   <polygon id="_71404424" class="fil1" points="162.525,35.6562 161.787,35.7414 161.872,35.7414 162.213,35.9402 162.27,35.9969 162.383,36.4228 162.383,36.5648 162.213,37.0189 162.128,37.1609 161.872,37.4732 161.503,37.8707 161.248,38.1546 160.992,38.4953 160.907,38.6089 160.737,39.0063 160.68,39.347 162.809,39.347 162.809,38.8927 161.219,38.8927 161.39,38.6089 161.503,38.4953 161.844,38.1262 161.872,38.0694 162.213,37.7003 162.44,37.4164 162.497,37.3312 162.724,36.9338 162.781,36.4511 162.724,36.0537 "/>
   <polygon id="_71405624" class="fil1" points="161.787,35.3439 161.39,35.4007 161.077,35.6279 160.85,35.9969 160.765,36.508 161.162,36.5363 161.162,36.366 161.333,35.9685 161.418,35.8834 161.787,35.7414 162.525,35.6562 162.213,35.4007 "/>
   <polygon id="_71406872" class="fil1" points="166.301,36.7918 165.506,36.7918 165.676,36.8203 165.989,37.0757 166.131,37.3597 166.187,37.8991 166.159,38.3533 165.989,38.7508 165.875,38.8927 165.506,39.0347 164.739,39.0347 164.796,39.1199 165.108,39.347 165.506,39.4322 165.705,39.4038 166.074,39.2618 166.215,39.1199 166.471,38.7508 166.556,38.4101 166.613,37.8707 166.585,37.6435 166.499,37.1609 "/>
   <polygon id="_71408008" class="fil1" points="165.506,36.3943 165.108,36.4796 164.796,36.7066 164.626,36.9338 164.484,37.3597 164.427,37.8991 164.427,38.183 164.54,38.6656 164.739,39.0347 165.506,39.0347 165.336,39.0063 165.023,38.7508 164.881,38.4385 164.824,37.8991 164.881,37.4732 165.023,37.0757 165.137,36.9338 165.506,36.7918 166.301,36.7918 166.244,36.7066 165.903,36.4796 "/>
   <polygon id="_71409136" class="fil1" points="167.067,36.7634 166.954,36.0253 166.954,35.3439 167.408,35.3439 167.408,36.0253 167.294,36.7634 "/>
   <polygon id="_71409944" class="fil1" points="169.423,38.2966 169.423,38.4385 169.225,38.8359 169.225,38.8644 168.855,39.0347 168.089,39.0347 168.146,39.0915 168.458,39.347 168.855,39.4322 169.168,39.3754 169.509,39.1482 169.679,38.8359 169.821,38.3533 "/>
   <polygon id="_71410992" class="fil1" points="168.146,36.7066 167.919,37.1041 167.834,37.4164 167.805,37.9275 167.805,38.183 167.89,38.6656 168.089,39.0347 168.855,39.0347 168.713,39.0063 168.373,38.7508 168.26,38.4385 168.203,37.8991 168.231,37.4448 168.401,37.0474 168.515,36.9338 168.884,36.7918 "/>
   <polygon id="_71412600" class="fil1" points="168.855,36.3943 168.685,36.3943 168.288,36.5648 168.146,36.7066 168.884,36.7918 169.196,36.9338 169.225,36.9622 169.395,37.388 169.793,37.3029 169.707,36.9906 169.48,36.6215 169.253,36.4796 "/>
   <polygon id="_71413648" class="fil1" points="170.162,39.347 170.162,35.3439 170.53,35.3439 170.53,39.347 "/>
   <polygon id="_71414760" class="fil1" points="172.887,36.7918 172.092,36.7918 172.262,36.8203 172.575,37.0757 172.717,37.3597 172.773,37.8991 172.745,38.3533 172.575,38.7508 172.461,38.8927 172.092,39.0347 171.297,39.0347 171.382,39.1199 171.694,39.347 172.092,39.4322 172.291,39.4038 172.659,39.2618 172.801,39.1199 173.057,38.7508 173.142,38.4101 173.171,37.8707 173.171,37.6435 173.085,37.1609 "/>
   <polygon id="_71416144" class="fil1" points="172.092,36.3943 171.694,36.4796 171.354,36.7066 171.212,36.9338 171.042,37.3597 171.013,37.8991 171.013,38.183 171.127,38.6656 171.297,39.0347 172.092,39.0347 171.921,39.0063 171.61,38.7508 171.468,38.4385 171.411,37.8991 171.439,37.4732 171.61,37.0757 171.723,36.9338 172.092,36.7918 172.887,36.7918 172.801,36.7066 172.489,36.4796 "/>
   <polygon id="_71417272" class="fil1" points="175.158,38.2966 175.13,38.4385 174.959,38.8359 174.931,38.8644 174.562,39.0347 173.824,39.0347 173.852,39.0915 174.193,39.347 174.59,39.4322 174.874,39.3754 175.215,39.1482 175.413,38.8359 175.555,38.3533 "/>
   <polygon id="_71418320" class="fil1" points="173.88,36.7066 173.653,37.1041 173.568,37.4164 173.511,37.9275 173.54,38.183 173.625,38.6656 173.824,39.0347 174.562,39.0347 174.42,39.0063 174.108,38.7508 173.966,38.4385 173.937,37.8991 173.966,37.4448 174.108,37.0474 174.221,36.9338 174.59,36.7918 "/>
   <polygon id="_71419928" class="fil1" points="174.59,36.3943 174.392,36.3943 174.022,36.5648 173.88,36.7066 174.59,36.7918 174.931,36.9338 174.931,36.9622 175.13,37.388 175.499,37.3029 175.442,36.9906 175.187,36.6215 174.988,36.4796 "/>
   <polygon id="_71420976" class="fil1" points="177.713,36.4511 177.202,36.4511 176.265,37.6435 176.549,37.8707 177.316,39.347 177.798,39.347 176.833,37.53 "/>
   <polygon id="_71421944" class="fil1" points="176.265,35.3439 175.896,35.3439 175.896,39.347 176.265,39.347 176.265,38.2114 176.549,37.8707 176.265,37.6435 "/>
   <polygon id="_71422952" class="fil1" points="180.608,38.8644 180.268,39.0347 179.7,39.2335 179.842,39.3186 180.211,39.4322 180.608,39.3186 180.864,39.0063 "/>
   <polygon id="_71424192" class="fil1" points="180.211,36.3943 180.041,36.3943 179.672,36.5931 179.558,36.7066 179.331,37.1326 179.274,37.4164 179.217,37.8991 179.246,38.2398 179.36,38.694 179.445,38.8927 179.7,39.2335 180.268,39.0347 180.126,39.0063 179.814,38.7508 179.672,38.4385 179.615,37.8991 179.672,37.4448 179.814,37.0757 179.899,36.9622 180.24,36.7918 180.836,36.7918 180.58,36.508 "/>
   <polygon id="_71425648" class="fil1" points="181.233,35.3439 180.836,35.3439 180.836,36.7918 180.24,36.7918 180.382,36.8203 180.694,37.0757 180.836,37.4164 180.864,37.9558 180.836,38.3533 180.694,38.7508 180.608,38.8644 180.864,39.0063 180.864,39.347 181.233,39.347 "/>
   <polygon id="_71426960" class="fil1" points="182.255,36.4511 181.857,36.4511 181.857,39.347 182.255,39.347 "/>
   <polygon id="_71427840" class="fil1" points="182.255,35.3439 181.857,35.3439 181.857,35.9117 182.255,35.9117 "/>
   <polygon id="_71428928" class="fil1" points="183.192,36.4511 182.851,36.4511 182.851,39.347 183.249,39.347 183.249,37.8423 183.249,37.7571 183.306,37.2745 183.448,36.9906 183.674,36.9054 183.192,36.9054 "/>
   <polygon id="_71429984" class="fil1" points="183.703,36.3943 183.448,36.4796 183.448,36.508 183.192,36.9054 183.674,36.9054 183.959,37.0189 184.101,36.5363 184.072,36.5363 "/>
   <polygon id="_71431152" class="fil1" points="185.917,38.4385 185.917,38.4953 185.69,38.8927 185.321,39.0347 184.498,39.0347 184.583,39.1199 184.923,39.347 185.321,39.4322 185.633,39.3754 185.974,39.1767 186.173,38.9495 186.343,38.4953 "/>
   <polygon id="_71432608" class="fil1" points="184.498,36.7918 184.413,36.9622 184.243,37.388 184.214,37.9275 184.214,38.183 184.299,38.6656 184.498,39.0347 185.321,39.0347 185.151,39.0063 184.839,38.7792 184.697,38.5237 184.611,38.041 186.343,38.041 186.343,37.8991 186.343,37.6435 184.64,37.6152 184.668,37.4448 184.839,37.0189 184.923,36.9338 185.293,36.7918 "/>
   <polygon id="_71433728" class="fil1" points="185.293,36.3943 185.179,36.3943 184.81,36.508 184.498,36.7918 185.293,36.7918 185.463,36.8203 185.775,37.0757 185.832,37.1326 185.946,37.6152 184.64,37.6152 186.343,37.6435 186.258,37.1609 186.059,36.7918 186.002,36.7351 185.69,36.4796 "/>
   <polygon id="_71435024" class="fil1" points="188.359,38.2966 188.33,38.4385 188.16,38.8359 188.132,38.8644 187.763,39.0347 186.996,39.0347 187.053,39.0915 187.365,39.347 187.763,39.4322 188.075,39.3754 188.415,39.1482 188.614,38.8359 188.728,38.3533 "/>
   <polygon id="_71436072" class="fil1" points="187.053,36.7066 186.825,37.1041 186.74,37.4164 186.712,37.9275 186.712,38.183 186.825,38.6656 186.996,39.0347 187.763,39.0347 187.621,39.0063 187.28,38.7508 187.166,38.4385 187.109,37.8991 187.166,37.4448 187.308,37.0474 187.422,36.9338 187.791,36.7918 "/>
   <polygon id="_71437680" class="fil1" points="187.763,36.3943 187.592,36.3943 187.223,36.5648 187.053,36.7066 187.791,36.7918 188.132,36.9338 188.132,36.9622 188.302,37.388 188.7,37.3029 188.614,36.9906 188.387,36.6215 188.16,36.4796 "/>
   <polygon id="_71438728" class="fil1" points="189.92,38.9212 189.75,38.9495 189.182,39.0915 189.352,39.3186 189.693,39.4038 189.977,39.347 "/>
   <polygon id="_71439536" class="fil1" points="189.522,35.4291 189.154,35.7414 189.154,36.4511 188.842,36.4511 188.842,36.8486 189.154,36.8486 189.154,38.5237 189.154,38.6372 189.182,39.0915 189.75,38.9495 189.636,38.8927 189.551,38.8076 189.522,38.5237 189.522,36.8486 189.92,36.8486 189.92,36.4511 189.522,36.4511 "/>
   <polygon id="_71441128" class="fil1" points="190.715,36.4511 190.317,36.4511 190.317,39.347 190.715,39.347 "/>
   <polygon id="_71442008" class="fil1" points="190.715,35.3439 190.317,35.3439 190.317,35.9117 190.715,35.9117 "/>
   <polygon id="_71443208" class="fil1" points="193.043,36.7918 192.248,36.7918 192.418,36.8203 192.73,37.0757 192.872,37.3597 192.93,37.8991 192.901,38.3533 192.73,38.7508 192.617,38.8927 192.248,39.0347 191.453,39.0347 191.538,39.1199 191.85,39.347 192.248,39.4322 192.447,39.4038 192.816,39.2618 192.958,39.1199 193.213,38.7508 193.299,38.4101 193.327,37.8707 193.327,37.6435 193.242,37.1609 "/>
   <polygon id="_71444592" class="fil1" points="192.248,36.3943 191.85,36.4796 191.51,36.7066 191.368,36.9338 191.197,37.3597 191.169,37.8991 191.169,38.183 191.283,38.6656 191.453,39.0347 192.248,39.0347 192.078,39.0063 191.765,38.7508 191.623,38.4385 191.566,37.8991 191.595,37.4732 191.765,37.0757 191.879,36.9338 192.248,36.7918 193.043,36.7918 192.958,36.7066 192.646,36.4796 "/>
   <polygon id="_71445720" class="fil1" points="195.541,36.7351 194.803,36.8203 195.087,36.9054 195.257,37.1326 195.286,37.5868 195.286,39.347 195.683,39.347 195.683,37.5868 195.654,37.1041 "/>
   <polygon id="_71446528" class="fil1" points="194.15,36.4511 193.809,36.4511 193.809,39.347 194.178,39.347 194.178,37.7855 194.235,37.388 194.377,37.0189 194.434,36.9622 194.15,36.8771 "/>
   <polygon id="_71447544" class="fil1" points="194.888,36.3943 194.774,36.3943 194.434,36.5363 194.15,36.8771 194.434,36.9622 194.803,36.8203 195.541,36.7351 195.286,36.4796 "/>
   <polygon id="_71448720" class="fil1" points="160.623,44.1164 160.225,44.3148 160.169,44.9394 160.055,45.3936 159.857,45.6775 159.572,45.7626 159.005,45.9331 159.26,46.1317 159.572,46.1886 159.913,46.1317 160.169,45.9331 160.367,45.6491 160.509,45.2517 160.595,44.7406 "/>
   <polygon id="_71449784" class="fil1" points="160.169,42.2709 159.572,42.4412 159.715,42.4697 160.027,42.7535 160.083,42.8672 160.169,43.293 160.225,43.9176 158.948,43.9176 158.55,44.1164 158.579,44.7406 158.664,45.2517 158.806,45.6491 159.005,45.9331 159.572,45.7626 159.317,45.6775 159.118,45.3936 159.005,44.9394 158.948,44.3148 160.225,44.3148 160.623,44.1164 160.595,43.4633 160.509,42.9523 160.367,42.5549 "/>
   <polygon id="_71451264" class="fil1" points="159.572,42.0438 159.26,42.1006 159.005,42.2709 158.806,42.5549 158.664,42.9523 158.579,43.4633 158.55,44.1164 158.948,43.9176 159.005,43.2646 159.118,42.8104 159.317,42.5264 159.572,42.4412 160.169,42.2709 159.913,42.1006 "/>
   <polygon id="_71452576" class="fil1" points="161.049,46.7563 161.106,47.239 161.361,47.2958 161.674,47.1823 161.929,46.8132 161.276,46.8132 "/>
   <polygon id="_71453384" class="fil1" points="161.333,43.2078 160.907,43.2078 161.787,46.1034 161.986,45.564 161.929,45.3652 161.815,44.8825 "/>
   <polygon id="_71454192" class="fil1" points="163.036,43.2078 162.639,43.2078 162.128,44.911 162.099,45.0813 161.986,45.564 161.787,46.1034 161.758,46.2454 161.616,46.6144 161.503,46.7563 161.276,46.8132 161.929,46.8132 161.986,46.6712 162.156,46.1602 "/>
   <polygon id="_71455456" class="fil1" points="165.818,42.8104 165.42,42.8104 165.42,43.9176 164.569,43.9176 164.569,44.3716 165.42,44.3716 165.42,45.4503 165.818,45.4503 165.818,44.3716 166.67,44.3716 166.67,43.9176 165.818,43.9176 "/>
   <polygon id="_71456704" class="fil1" points="170.53,44.5135 168.43,44.5135 168.43,44.9677 170.53,44.9677 "/>
   <polygon id="_71457584" class="fil1" points="170.53,43.293 168.43,43.293 168.43,43.7473 170.53,43.7473 "/>
   <polygon id="_71458552" class="fil1" points="172.659,45.1381 172.262,45.1948 172.347,45.5356 172.575,45.9046 173.171,45.7626 172.83,45.6208 172.801,45.5923 "/>
   <polygon id="_71091800" class="fil1" points="173.625,44.1728 173.256,44.3148 172.489,44.3999 172.773,44.6554 173.171,44.7406 173.227,44.7406 173.596,44.5987 173.653,44.5702 173.937,44.2296 "/>
   <polygon id="_71092608" class="fil1" points="172.518,42.4697 172.461,42.5264 172.262,42.9239 172.205,43.435 172.205,43.5201 172.291,44.0027 172.489,44.3999 173.256,44.3148 173.142,44.3148 172.801,44.0879 172.717,43.9176 172.631,43.4633 172.631,43.1795 172.801,42.7535 172.915,42.64 173.284,42.4981 "/>
   <polygon id="_71093896" class="fil1" points="173.227,42.0722 173.199,42.0722 172.83,42.1858 172.518,42.4697 173.284,42.4981 173.369,42.4981 173.71,42.7535 173.795,42.9239 173.88,43.4066 173.88,43.6621 173.71,44.0879 173.625,44.1728 173.937,44.2296 173.937,44.3148 173.937,44.4284 173.88,44.911 173.88,44.9394 173.738,45.3936 173.511,45.6775 173.171,45.7626 172.575,45.9046 172.773,46.0749 173.171,46.1886 173.454,46.1317 173.795,45.9331 173.994,45.7059 174.193,45.2517 174.25,45.0529 174.306,44.5987 174.334,44.0312 174.334,43.8324 174.278,43.293 174.193,42.8955 174.079,42.64 173.795,42.2993 173.596,42.1858 "/>
   <polygon id="_71095568" class="fil1" points="175.158,42.3277 175.016,42.5264 174.818,42.9807 174.789,43.1227 174.732,43.5769 174.704,44.1444 174.704,44.4284 174.761,44.9677 174.874,45.422 175.016,45.7626 175.073,45.8194 175.754,45.7626 175.584,45.7343 175.3,45.4503 175.215,45.2233 175.13,44.769 175.101,44.1444 175.13,43.6053 175.187,43.1227 175.3,42.782 175.413,42.6684 175.754,42.4981 "/>
   <polygon id="_71097024" class="fil1" points="175.754,42.0722 175.499,42.129 175.158,42.3277 175.754,42.4981 175.896,42.5264 176.208,42.8104 176.293,43.0375 176.378,43.4918 176.378,44.1444 176.378,44.6271 176.322,45.1097 176.208,45.4503 176.095,45.6208 175.754,45.7626 175.073,45.8194 175.357,46.0749 175.754,46.1886 176.01,46.1317 176.322,45.9331 176.492,45.7343 176.691,45.28 176.719,45.1381 176.776,44.6839 176.804,44.1444 176.776,43.6053 176.719,43.1795 176.691,43.0375 176.52,42.5832 176.492,42.5264 176.208,42.2141 176.151,42.1858 "/>
   <polygon id="_71098232" class="fil1" points="177.457,42.2426 177.4,42.3277 177.287,42.782 177.287,42.8955 177.457,43.3213 177.542,43.4066 177.883,43.5485 177.997,43.5485 178.337,43.3213 177.911,43.2646 177.628,43.1227 177.542,42.782 177.628,42.4697 177.911,42.3277 "/>
   <polygon id="_71099544" class="fil1" points="177.883,42.0438 177.798,42.0438 177.457,42.2426 177.911,42.3277 178.167,42.4697 178.252,42.782 178.167,43.1227 177.911,43.2646 178.337,43.3213 178.394,43.2362 178.508,42.782 178.508,42.6684 178.337,42.2426 178.252,42.1858 "/>
   <polygon id="_71100856" class="fil1" points="25.9753,91.2131 25.2093,91.2982 25.3513,91.2982 25.6636,91.5254 25.7488,91.6957 25.8336,92.1783 25.8336,92.4623 25.6636,92.8597 25.5782,92.9449 25.2378,93.1149 24.528,93.2001 24.8684,93.4272 25.2378,93.5124 25.4078,93.5124 25.7488,93.3421 25.8907,93.2569 26.1173,92.8597 26.1741,92.6326 26.2593,92.15 26.2593,92.0932 26.1741,91.6105 "/>
   <polygon id="_71101984" class="fil1" points="25.2942,90.844 25.2378,90.844 24.8684,90.9859 24.8119,91.0427 24.528,91.3834 24.8684,91.4402 25.2093,91.2982 25.9753,91.2131 25.6917,90.9576 "/>
   <polygon id="_71103000" class="fil1" points="25.8907,89.6799 25.2659,89.8219 25.3227,89.8219 25.6636,90.049 25.8056,90.475 26.2028,90.4181 26.1173,90.0775 "/>
   <polygon id="_71104008" class="fil1" points="25.2942,89.4244 25.1239,89.4529 24.7549,89.5948 24.4709,89.8787 24.3577,90.0775 24.2441,90.475 24.1586,90.9859 24.1306,91.5822 24.1306,91.6957 24.187,92.2635 24.2724,92.7178 24.4426,93.0581 24.528,93.2001 25.2378,93.1149 24.9255,93.0014 24.6699,92.6326 24.5845,92.15 24.6129,91.9512 24.7835,91.5254 24.8684,91.4402 24.528,91.3834 24.5564,90.8724 24.6415,90.4465 24.6699,90.333 24.9255,89.9639 25.2659,89.8219 25.8907,89.6799 25.6636,89.5096 "/>
   <polygon id="_71105200" class="fil1" points="29.7229,90.8724 28.928,90.9008 29.0986,90.9291 29.4109,91.1563 29.5529,91.4686 29.6093,91.9796 29.581,92.4338 29.4109,92.8314 29.2973,92.9732 28.928,93.1149 28.1617,93.1149 28.2181,93.2001 28.5304,93.4272 28.928,93.5124 29.127,93.5124 29.4958,93.3421 29.6378,93.2286 29.8932,92.8314 29.9787,92.4906 30.0352,91.9512 30.0068,91.7241 29.9216,91.2414 "/>
   <polygon id="_71106656" class="fil1" points="28.928,90.475 28.5304,90.5601 28.2181,90.8156 28.0481,91.0427 27.9062,91.4686 27.8494,92.008 27.8494,92.2919 27.9626,92.7461 28.1617,93.1149 28.928,93.1149 28.7576,93.0866 28.4456,92.8314 28.3037,92.5191 28.2466,92.008 28.3037,91.5537 28.4456,91.1563 28.5592,91.0143 28.928,90.9008 29.7229,90.8724 29.6664,90.7873 29.3255,90.5601 "/>
   <polygon id="_71107784" class="fil1" points="30.4891,90.8724 30.3762,90.1058 30.3762,89.4529 30.8301,89.4529 30.8301,90.1058 30.7162,90.8724 "/>
   <polygon id="_71108592" class="fil1" points="32.8452,92.3771 32.8452,92.5191 32.6468,92.9449 32.6468,92.9732 32.2775,93.1149 31.5115,93.1149 31.568,93.2001 31.8803,93.4272 32.2775,93.5124 32.59,93.4556 32.9304,93.2286 33.1007,92.9449 33.2427,92.4623 "/>
   <polygon id="_71110312" class="fil1" points="31.568,90.7873 31.3411,91.1847 31.256,91.497 31.2276,92.008 31.2276,92.2635 31.3125,92.7461 31.5115,93.1149 32.2775,93.1149 32.1071,93.0866 31.7954,92.8597 31.6819,92.5474 31.6251,92.008 31.6534,91.5537 31.7954,91.1563 31.9374,91.0143 32.2775,90.9008 "/>
   <polygon id="_71111120" class="fil1" points="32.2775,90.475 32.0791,90.5033 31.71,90.6453 31.568,90.7873 32.2775,90.9008 32.6184,91.0427 32.6468,91.0427 32.8169,91.4686 33.2144,91.4119 33.1292,91.0996 32.9023,90.7304 32.6749,90.5601 "/>
   <polygon id="_71112368" class="fil1" points="33.5553,93.4556 33.5553,89.4529 33.9525,89.4529 33.9525,93.4556 "/>
   <polygon id="_71113480" class="fil1" points="36.3086,90.8724 35.5137,90.9008 35.6843,90.9291 35.9966,91.1563 36.1386,91.4686 36.1951,91.9796 36.1666,92.4338 35.9966,92.8314 35.8828,92.9732 35.5137,93.1149 34.7193,93.1149 34.8039,93.2001 35.1165,93.4272 35.5137,93.5124 35.7127,93.5124 36.0818,93.3421 36.2237,93.2286 36.4789,92.8314 36.5641,92.4906 36.5925,91.9512 36.5925,91.7241 36.5077,91.2414 "/>
   <polygon id="_71114864" class="fil1" points="35.5137,90.475 35.1165,90.5601 34.7758,90.8156 34.6055,91.0427 34.4635,91.4686 34.4355,92.008 34.4355,92.2919 34.5204,92.7461 34.7193,93.1149 35.5137,93.1149 35.3434,93.0866 35.0313,92.8314 34.8894,92.5191 34.8327,92.008 34.861,91.5537 35.0313,91.1563 35.145,91.0143 35.5137,90.9008 36.3086,90.8724 36.2237,90.7873 35.9111,90.5601 "/>
   <polygon id="_71116272" class="fil1" points="38.5801,92.3771 38.5515,92.5191 38.3812,92.9449 38.353,92.9732 37.9837,93.1149 37.2458,93.1149 37.274,93.2001 37.6149,93.4272 38.0121,93.5124 38.2963,93.4556 38.637,93.2286 38.8353,92.9449 38.9773,92.4623 "/>
   <polygon id="_71117320" class="fil1" points="37.3023,90.7873 37.0755,91.1847 36.99,91.497 36.9335,92.008 36.9619,92.2635 37.0471,92.7461 37.2458,93.1149 37.9837,93.1149 37.8417,93.0866 37.5294,92.8597 37.3878,92.5474 37.3594,92.008 37.3878,91.5537 37.5294,91.1563 37.6432,91.0143 38.0121,90.9008 "/>
   <polygon id="_71118648" class="fil1" points="38.0121,90.475 37.8133,90.5033 37.4443,90.6453 37.3023,90.7873 38.0121,90.9008 38.353,91.0427 38.5515,91.4686 38.9205,91.4119 38.8353,91.0996 38.6086,90.7304 38.4095,90.5601 "/>
   <polygon id="_71119456" class="fil1" points="41.1351,90.5601 40.6237,90.5601 39.6868,91.7241 39.9707,91.9796 40.7376,93.4556 41.2199,93.4556 40.2546,91.6389 "/>
   <polygon id="_71120424" class="fil1" points="39.6868,89.4529 39.2896,89.4529 39.2896,93.4556 39.6868,93.4556 39.6868,92.2919 39.9707,91.9796 39.6868,91.7241 "/>
   <polygon id="_71121432" class="fil1" points="26.2311,98.1966 25.8056,98.3953 25.7772,99.0483 25.6352,99.5025 25.4362,99.7864 25.1807,99.8716 24.5845,100.042 24.8684,100.212 25.1807,100.269 25.4933,100.212 25.7488,100.042 25.9475,99.7581 26.1173,99.3605 26.2028,98.8212 "/>
   <polygon id="_71122984" class="fil1" points="25.7488,96.3514 25.1807,96.5218 25.2942,96.5502 25.6068,96.8341 25.6636,96.9477 25.7772,97.3735 25.8056,97.9978 24.528,97.9978 24.1306,98.1966 24.1586,98.8212 24.2441,99.3605 24.3861,99.7581 24.5845,100.042 25.1807,99.8716 24.8967,99.7581 24.6984,99.5025 24.5845,99.0483 24.528,98.3953 25.8056,98.3953 26.2311,98.1966 26.2028,97.572 26.1173,97.0612 25.9475,96.6354 "/>
   <polygon id="_71124464" class="fil1" points="25.1807,96.1243 24.8684,96.1811 24.5845,96.3514 24.3861,96.6354 24.2441,97.0612 24.1586,97.572 24.1306,98.1966 24.528,97.9978 24.5845,97.3735 24.6984,96.8909 24.8967,96.6354 25.1807,96.5218 25.7488,96.3514 25.4933,96.1811 "/>
   <polygon id="_71125528" class="fil1" points="26.657,100.865 26.6851,101.32 26.9409,101.376 27.2813,101.263 27.5084,100.922 26.8842,100.894 "/>
   <polygon id="_71126336" class="fil1" points="26.9125,97.2883 26.4867,97.2883 27.3665,100.212 27.5652,99.6445 27.5368,99.4458 27.3949,98.9915 "/>
   <polygon id="_71127144" class="fil1" points="28.6157,97.2883 28.2181,97.2883 27.7358,98.9915 27.6788,99.1619 27.5652,99.6445 27.3665,100.212 27.3383,100.326 27.2245,100.695 27.0828,100.837 26.8842,100.894 27.5084,100.922 27.5652,100.78 27.7358,100.241 "/>
   <polygon id="_71128440" class="fil1" points="30.0352,98.9915 30.0352,98.5089 31.256,98.5089 31.256,98.9915 "/>
   <polygon id="_71129320" class="fil1" points="35.003,98.5941 32.9023,98.5941 32.9023,99.0767 35.003,99.0767 "/>
   <polygon id="_71130456" class="fil1" points="35.003,97.3735 32.9023,97.3735 32.9023,97.8558 35.003,97.8558 "/>
   <polygon id="_71131592" class="fil1" points="37.132,99.2187 36.7345,99.2754 36.82,99.6445 37.0184,100.014 37.6432,99.8716 37.3023,99.7296 37.274,99.6728 "/>
   <polygon id="_71132872" class="fil1" points="38.0972,98.2533 37.7281,98.3953 36.9619,98.4804 37.2458,98.736 37.6432,98.8496 37.6998,98.8496 38.0692,98.7076 38.1256,98.6508 38.4095,98.3101 "/>
   <polygon id="_71134032" class="fil1" points="36.9619,96.5502 36.9335,96.607 36.7345,97.0329 36.678,97.5435 36.678,97.6004 36.7629,98.083 36.9619,98.4804 37.7281,98.3953 37.6149,98.3953 37.274,98.1681 37.189,98.0263 37.0755,97.5435 37.1038,97.26 37.274,96.8625 37.3878,96.7206 37.7281,96.5786 "/>
   <polygon id="_71135872" class="fil1" points="37.6998,96.1811 37.6714,96.1811 37.274,96.2663 36.9619,96.5502 37.7281,96.5786 37.8417,96.607 38.1827,96.8341 38.2676,97.0045 38.353,97.5152 38.3247,97.7423 38.1827,98.1681 38.0972,98.2533 38.4095,98.3101 38.4095,98.4237 38.4095,98.5373 38.353,99.0199 38.1827,99.4742 37.9837,99.7581 37.6432,99.8716 37.0184,100.014 37.2458,100.184 37.6432,100.269 37.9272,100.241 38.2676,100.042 38.4666,99.7864 38.665,99.3322 38.6935,99.1619 38.7786,98.6792 38.7786,98.1114 38.7786,97.9127 38.7505,97.402 38.665,96.976 38.5515,96.7206 38.2676,96.3799 38.0692,96.2663 "/>
   <polygon id="_71137944" class="fil1" points="39.6303,96.4083 39.4884,96.6354 39.2896,97.0897 39.261,97.2032 39.2045,97.6572 39.1764,98.225 39.1764,98.5373 39.2325,99.0767 39.3464,99.5025 39.4884,99.8433 39.5165,99.9 40.2262,99.8716 40.0559,99.8433 39.772,99.531 39.6868,99.3038 39.6019,98.8496 39.5736,98.225 39.6019,97.714 39.6584,97.2032 39.772,96.8625 39.8574,96.7489 40.2262,96.5786 "/>
   <polygon id="_71139400" class="fil1" points="40.2262,96.1811 39.9707,96.2095 39.6303,96.4083 40.2262,96.5786 40.3682,96.607 40.6808,96.9192 40.7657,97.1464 40.8228,97.6004 40.8511,98.225 40.8511,98.7076 40.794,99.2187 40.6808,99.531 40.5672,99.7013 40.2262,99.8716 39.5165,99.9 39.8288,100.184 40.2262,100.269 40.4537,100.241 40.794,100.042 40.9646,99.8148 41.1351,99.3605 41.1915,99.247 41.2486,98.7927 41.2769,98.225 41.2486,97.714 41.1915,97.2883 41.1631,97.118 40.9931,96.6922 40.9646,96.6354 40.6808,96.2947 40.6237,96.2663 "/>
   <polygon id="_71140208" class="fil1" points="41.93,96.3514 41.8729,96.4366 41.7594,96.8909 41.7594,97.0045 41.93,97.4303 42.0149,97.4868 42.3558,97.6572 42.4691,97.6287 42.7817,97.4303 42.3558,97.3452 42.1003,97.2032 41.9867,96.8909 42.1003,96.5502 42.3558,96.4083 "/>
   <polygon id="_71141488" class="fil1" points="42.3558,96.1243 42.2704,96.1243 41.93,96.3514 42.3558,96.4083 42.6397,96.5502 42.7246,96.8909 42.6397,97.2032 42.3558,97.3452 42.7817,97.4303 42.8666,97.3452 42.9801,96.8909 42.9801,96.7774 42.7817,96.3514 42.7246,96.2663 "/>
   <polygon id="_71142800" class="fil1" points="97.3727,0 96.9468,0 96.9468,3.15131 96.9187,4.00309 97.3727,4.00309 "/>
   <polygon id="_71143608" class="fil1" points="95.272,0 94.8462,0 94.8462,4.00309 95.2437,4.00309 95.2437,0.851683 "/>
   <polygon id="_71144584" class="fil1" points="95.272,0 95.2437,0.851683 96.9187,4.00309 96.9468,3.15131 "/>
   <polygon id="_71145632" class="fil1" points="99.7574,1.44794 98.9628,1.44794 99.1332,1.47628 99.4451,1.7318 99.5871,2.01576 99.6442,2.55515 99.6156,3.00943 99.4451,3.40683 99.3316,3.54881 98.9628,3.69079 98.1679,3.69079 98.253,3.7759 98.5653,4.00309 98.9628,4.0882 99.1613,4.05986 99.5307,3.88955 99.6725,3.7759 99.9281,3.40683 100.013,3.0662 100.041,2.52671 100.041,2.29962 99.9565,1.81701 "/>
   <polygon id="_71147016" class="fil1" points="98.9628,1.05044 98.5653,1.13564 98.2244,1.36273 98.0824,1.58982 97.9121,2.01576 97.884,2.55515 97.884,2.83901 97.9975,3.32172 98.1679,3.69079 98.9628,3.69079 98.7922,3.66236 98.4799,3.40683 98.3379,3.09453 98.2815,2.55515 98.3095,2.12931 98.4799,1.7318 98.5935,1.58982 98.9628,1.44794 99.7574,1.44794 99.6725,1.36273 99.3602,1.13564 "/>
   <polygon id="_71148544" class="fil1" points="100.865,1.10721 100.496,1.10721 100.496,4.00309 100.893,4.00309 100.893,2.49838 100.893,2.41317 100.978,1.93056 101.12,1.64669 101.347,1.56149 100.865,1.56149 "/>
   <polygon id="_71149672" class="fil1" points="101.376,1.05044 101.12,1.13564 101.092,1.16398 100.865,1.56149 101.347,1.56149 101.631,1.67503 101.773,1.19242 101.745,1.19242 "/>
   <polygon id="_71151048" class="fil1" points="104.953,1.27763 104.356,1.47628 104.584,1.56149 104.726,1.76024 104.754,2.18608 104.754,4.00309 105.151,4.00309 105.151,2.01576 105.123,1.67503 "/>
   <polygon id="_71152232" class="fil1" points="102.653,1.19242 102.369,1.53305 102.653,1.58982 102.965,1.47628 "/>
   <polygon id="_71153112" class="fil1" points="102.369,1.10721 102,1.10721 102,4.00309 102.397,4.00309 102.397,2.49838 102.397,2.3564 102.455,1.90212 102.653,1.58982 102.369,1.53305 "/>
   <polygon id="_71154440" class="fil1" points="104.442,1.05044 104.328,1.05044 103.988,1.19242 103.704,1.56149 103.988,1.61826 104.356,1.47628 104.953,1.27763 104.811,1.16398 "/>
   <polygon id="_71155816" class="fil1" points="103.051,1.05044 103.022,1.05044 102.653,1.16398 102.653,1.19242 102.965,1.47628 103.278,1.64669 103.306,1.64669 103.391,2.12931 103.391,4.00309 103.789,4.00309 103.789,2.32806 103.789,2.07254 103.931,1.67503 103.988,1.61826 103.704,1.56149 103.476,1.19242 103.448,1.16398 "/>
   <polygon id="_71156624" class="fil1" points="106.883,3.57725 106.486,3.69079 105.804,3.83278 105.975,4.00309 106.4,4.0882 106.429,4.0882 106.826,3.97465 106.912,3.94632 107.252,3.66236 "/>
   <polygon id="_71157856" class="fil1" points="106.173,2.41317 105.889,2.58359 105.691,2.86745 105.605,3.23652 105.605,3.43527 105.804,3.83278 106.486,3.69079 106.145,3.57725 106.031,3.23652 106.088,3.00943 106.23,2.83901 106.571,2.7539 106.883,2.66869 107.224,2.55515 "/>
   <polygon id="_71159384" class="fil1" points="105.833,1.44794 105.804,1.47628 105.662,1.93056 106.06,2.01576 106.06,1.98733 106.259,1.56149 106.656,1.44794 "/>
   <polygon id="_71160392" class="fil1" points="106.713,1.05044 106.571,1.05044 106.202,1.13564 106.145,1.16398 105.833,1.44794 106.656,1.44794 106.77,1.44794 107.11,1.61826 107.224,2.0441 107.224,2.18608 106.968,2.24285 106.514,2.32806 106.173,2.41317 107.224,2.55515 107.224,2.72547 107.224,2.7539 107.167,3.23652 106.883,3.57725 107.252,3.66236 107.337,4.00309 107.735,4.00309 107.649,3.66236 107.621,3.43527 107.621,2.81067 107.621,2.12931 107.593,1.67503 107.479,1.36273 107.195,1.13564 107.11,1.10721 "/>
   <polygon id="_71161592" class="fil1" points="108.217,4.00309 108.217,0 108.615,0 108.615,4.00309 "/>
   <polygon id="_71162632" class="fil1" points="94.1084,8.77215 93.6824,8.9708 93.6541,9.59539 93.5121,10.0497 93.3131,10.3336 93.0576,10.4187 92.4617,10.5891 92.7172,10.7595 93.0576,10.8446 93.3701,10.7878 93.6253,10.5891 93.8244,10.3052 93.9664,9.90769 94.0799,9.39674 "/>
   <polygon id="_71163872" class="fil1" points="93.6253,6.927 93.0576,7.09732 93.1712,7.12576 93.4835,7.40962 93.5405,7.52316 93.6541,7.9491 93.6824,8.5737 92.4049,8.5737 92.0077,8.77215 92.0358,9.39674 92.1212,9.90769 92.2629,10.3052 92.4617,10.5891 93.0576,10.4187 92.7737,10.3336 92.5752,10.0497 92.4617,9.59539 92.4049,8.9708 93.6824,8.9708 94.1084,8.77215 94.0799,8.11942 93.9664,7.60837 93.8244,7.21086 "/>
   <polygon id="_71165352" class="fil1" points="93.0576,6.69992 92.7453,6.75669 92.4617,6.927 92.2629,7.21086 92.1212,7.60837 92.0358,8.11942 92.0077,8.77215 92.4049,8.5737 92.4617,7.92067 92.5752,7.46639 92.7737,7.18253 93.0576,7.09732 93.6253,6.927 93.3701,6.75669 "/>
   <polygon id="_71166664" class="fil1" points="95.1871,9.25476 94.3355,10.7595 94.8181,10.7595 95.414,9.62383 "/>
   <polygon id="_71167832" class="fil1" points="94.8745,7.8639 94.3922,7.8639 95.1871,9.25476 95.414,9.62383 95.5276,9.85092 96.0105,10.7595 96.4928,10.7595 95.6414,9.22632 95.414,8.85725 95.2437,8.54526 "/>
   <polygon id="_71168888" class="fil1" points="96.4363,7.8639 95.9818,7.8639 95.5846,8.54526 95.414,8.85725 95.6414,9.22632 "/>
   <polygon id="_71169864" class="fil1" points="100.155,9.16955 98.0259,9.16955 98.0259,9.62383 100.155,9.62383 "/>
   <polygon id="_71171072" class="fil1" points="100.155,7.9491 98.0259,7.9491 98.0259,8.40328 100.155,8.40328 "/>
   <polygon id="_71172368" class="fil1" points="103.931,8.77215 103.533,8.9708 103.476,9.59539 103.363,10.0497 103.164,10.3336 102.88,10.4187 102.313,10.5891 102.568,10.7595 102.88,10.8446 103.192,10.7878 103.476,10.5891 103.675,10.3052 103.817,9.90769 103.902,9.39674 "/>
   <polygon id="_71173608" class="fil1" points="103.476,6.927 102.88,7.09732 103.022,7.12576 103.334,7.40962 103.363,7.52316 103.476,7.9491 103.533,8.5737 102.256,8.5737 101.83,8.77215 101.858,9.39674 101.943,9.90769 102.085,10.3052 102.313,10.5891 102.88,10.4187 102.625,10.3336 102.426,10.0497 102.284,9.59539 102.256,8.9708 103.533,8.9708 103.931,8.77215 103.902,8.11942 103.817,7.60837 103.675,7.21086 "/>
   <polygon id="_71175088" class="fil1" points="102.88,6.69992 102.568,6.75669 102.313,6.927 102.085,7.21086 101.943,7.60837 101.858,8.11942 101.83,8.77215 102.256,8.5737 102.284,7.92067 102.426,7.46639 102.597,7.18253 102.88,7.09732 103.476,6.927 103.192,6.75669 "/>
   <polygon id="_71176400" class="fil1" points="104.356,11.4124 104.414,11.895 104.669,11.9519 104.981,11.8382 105.208,11.4692 104.584,11.4692 "/>
   <polygon id="_71177568" class="fil1" points="104.612,7.8639 104.186,7.8639 105.066,10.7595 105.265,10.22 105.237,10.0213 105.095,9.53862 "/>
   <polygon id="_71178736" class="fil1" points="106.315,7.8639 105.946,7.8639 105.435,9.56706 105.379,9.73737 105.265,10.22 105.066,10.7595 105.038,10.9014 104.925,11.2704 104.783,11.4124 104.584,11.4692 105.208,11.4692 105.265,11.3273 105.435,10.8162 "/>
   <polygon id="_71180000" class="fil1" points="109.978,9.16955 107.848,9.16955 107.848,9.62383 109.978,9.62383 "/>
   <polygon id="_71181048" class="fil1" points="109.978,7.9491 107.848,7.9491 107.848,8.40328 109.978,8.40328 "/>
   <polygon id="_71182184" class="fil1" points="112.107,6.98378 111.965,7.18253 111.766,7.63681 111.737,7.77869 111.681,8.23296 111.653,8.80048 111.653,9.08444 111.709,9.62383 111.823,10.0781 111.965,10.4187 112.021,10.4755 112.703,10.4187 112.532,10.3904 112.248,10.1064 112.163,9.87935 112.078,9.42508 112.05,8.80048 112.078,8.2614 112.135,7.77869 112.248,7.43805 112.362,7.29607 112.703,7.15409 "/>
   <polygon id="_71183880" class="fil1" points="112.703,6.72825 112.447,6.78502 112.107,6.98378 112.703,7.15409 112.845,7.18253 113.157,7.46639 113.242,7.69358 113.328,8.14776 113.328,8.80048 113.328,9.28309 113.271,9.76581 113.157,10.1064 113.044,10.2768 112.703,10.4187 112.021,10.4755 112.305,10.731 112.703,10.8446 112.958,10.7878 113.271,10.5891 113.441,10.3904 113.64,9.93613 113.668,9.79415 113.725,9.33987 113.753,8.80048 113.725,8.2614 113.668,7.83546 113.64,7.69358 113.47,7.2393 113.441,7.18253 113.157,6.87023 113.1,6.8418 "/>
   <polygon id="_71185664" class="fil1" points="114.406,6.89857 114.349,6.98378 114.236,7.43805 114.236,7.5516 114.406,7.97744 114.491,8.06265 114.832,8.20463 114.945,8.20463 115.286,7.97744 114.86,7.92067 114.576,7.77869 114.491,7.43805 114.576,7.12576 114.86,6.98378 "/>
   <polygon id="_71186720" class="fil1" points="114.832,6.69992 114.747,6.69992 114.406,6.89857 114.86,6.98378 115.116,7.12576 115.201,7.43805 115.116,7.77869 114.86,7.92067 115.286,7.97744 115.343,7.89233 115.457,7.43805 115.457,7.32451 115.286,6.89857 115.201,6.8418 "/>
   <polyline id="_71188032" class="fil0 str0" points="121.617,42.6684 117.643,40.3688 113.384,38.5804 108.927,37.3597 104.356,36.7634 "/>
   <polygon id="_71189080" class="fil1" points="121.872,42.3561 121.39,43.009 123.575,44.0879 "/>
   <polygon id="_71189976" class="fil0 str0" points="121.872,42.3561 121.39,43.009 123.575,44.0879 "/>
   <polygon id="_71190944" class="fil1" points="104.328,37.1609 104.356,36.366 101.943,36.6783 "/>
   <polygon id="_71191912" class="fil0 str0" points="104.328,37.1609 104.356,36.366 101.943,36.6783 "/>
   <polygon id="_71193040" class="fil1" points="114.037,32.8458 113.583,32.9026 113.328,33.4704 113.044,33.8679 112.788,34.0667 112.504,34.0667 111.879,34.0383 112.078,34.2653 112.362,34.4358 112.674,34.4925 112.987,34.4073 113.271,34.2086 113.526,33.8963 113.81,33.4137 "/>
   <polygon id="_71194592" class="fil1" points="114.207,30.9437 113.611,30.9153 113.725,30.9721 113.923,31.3696 113.923,31.4831 113.895,31.9089 113.725,32.5052 112.504,32.0793 112.078,32.1361 111.879,32.7323 111.794,33.2717 111.794,33.6975 111.879,34.0383 112.504,34.0667 112.277,33.8679 112.163,33.5556 112.22,33.0729 112.39,32.4484 113.583,32.9026 114.037,32.8458 114.236,32.2497 114.321,31.7102 114.321,31.2843 "/>
   <polygon id="_71196072" class="fil1" points="113.753,30.5465 113.441,30.4897 113.129,30.5465 112.845,30.7736 112.561,31.0856 112.305,31.5399 112.078,32.1361 112.504,32.0793 112.788,31.5115 113.044,31.114 113.328,30.9153 113.611,30.9153 114.207,30.9437 114.037,30.6885 "/>
   <polygon id="_71197384" class="fil1" points="113.554,35.4859 113.441,35.9402 113.668,36.082 114.009,36.082 114.349,35.8265 113.753,35.5994 "/>
   <polygon id="_71198552" class="fil1" points="115.002,32.2212 114.605,32.0793 114.434,35.1171 114.803,34.6628 114.832,34.4641 114.889,33.9815 "/>
   <polygon id="_71199720" class="fil1" points="116.592,32.7891 116.223,32.6755 115.201,34.095 115.087,34.237 114.803,34.6628 114.434,35.1171 114.377,35.2307 114.123,35.5142 113.952,35.6279 113.753,35.5994 114.349,35.8265 114.434,35.713 114.775,35.2871 "/>
   <polygon id="_71200776" class="fil1" points="119.346,33.3569 119.005,33.2433 118.636,34.2653 117.813,33.9815 117.643,34.4073 118.466,34.6913 118.097,35.7414 118.466,35.855 118.834,34.8332 119.658,35.1171 119.8,34.6913 118.976,34.379 "/>
   <polyline id="_71202024" class="fil0 str0" points="99.5307,36.6215 96.3228,36.9906 93.143,37.672 90.0488,38.6089 87.0677,39.8293 84.1722,41.334 81.4467,43.0658 78.8921,45.0813 76.5357,47.2958 74.4067,49.7087 72.4762,52.3206 70.8012,55.1026 69.3819,58.0265 68.246,61.0643 67.3942,64.187 66.8265,67.3665 66.5425,70.603 "/>
   <polygon id="_71203864" class="fil1" points="99.5307,36.224 99.5587,37.0189 101.943,36.5648 "/>
   <polygon id="_71204832" class="fil0 str0" points="99.5307,36.224 99.5587,37.0189 101.943,36.5648 "/>
   <polygon id="_71205952" class="fil1" points="66.9404,70.603 66.145,70.603 66.5425,73.0159 "/>
   <polygon id="_71207072" class="fil0 str0" points="66.9404,70.603 66.145,70.603 66.5425,73.0159 "/>
   <polygon id="_71208192" class="fil1" points="90.7014,32.4768 90.3608,32.7606 90.4747,33.3852 90.4747,33.8679 90.3327,34.1802 90.1053,34.3221 89.5658,34.6344 89.8784,34.7481 90.1907,34.7196 90.4747,34.6061 90.7014,34.379 90.815,34.0383 90.8721,33.6124 90.8434,33.1014 "/>
   <polygon id="_71209504" class="fil1" points="89.8213,30.802 89.2819,31.114 89.4239,31.0856 89.7933,31.2843 89.8784,31.3979 90.0771,31.767 90.2756,32.3632 89.0264,32.6755 88.686,32.9594 88.8561,33.584 89.0551,34.0667 89.3104,34.4073 89.5658,34.6344 90.1053,34.3221 90.1053,34.3505 89.8213,34.3221 89.5658,34.095 89.3104,33.6692 89.1116,33.0729 90.3608,32.7606 90.7014,32.4768 90.5311,31.8522 90.3327,31.3696 90.0771,31.0288 "/>
   <polygon id="_71211328" class="fil1" points="89.197,30.7168 88.9132,30.8301 88.686,31.0573 88.5721,31.3979 88.5157,31.8238 88.5721,32.3348 88.686,32.9594 89.0264,32.6755 88.9132,32.0509 88.9415,31.5683 89.0551,31.256 89.2819,31.114 89.8213,30.802 89.5375,30.6885 "/>
   <polygon id="_71212640" class="fil1" points="91.7803,34.9467 91.9223,35.4007 92.1778,35.3723 92.4617,35.2022 92.6034,34.8048 92.0077,34.9467 "/>
   <polygon id="_71213960" class="fil1" points="91.1844,31.4263 90.7585,31.5399 92.3197,34.1518 92.3763,33.5556 92.2629,33.3852 92.0358,32.9594 "/>
   <polygon id="_71215128" class="fil1" points="92.8307,31.0288 92.4332,31.114 92.3763,32.8743 92.3478,33.0729 92.3763,33.5556 92.3197,34.1518 92.2914,34.2653 92.2629,34.6628 92.1778,34.8332 92.0077,34.9467 92.6034,34.8048 92.6317,34.6628 92.6601,34.095 "/>
   <polygon id="_71216176" class="fil1" points="94.6193,32.3348 94.5058,31.8522 95.6696,31.5683 95.7834,32.0509 "/>
   <line id="_71217224" class="fil0 str0" x1="117.16" y1="69.5525" x2="116.876" y2= "68.4453" />
   <polyline id="_71218240" class="fil0 str0" points="116.564,67.1677 116.478,66.8838 116.052,65.9756 "/>
   <polyline id="_71219048" class="fil0 str0" points="115.513,64.7832 115.343,64.3574 114.832,63.6476 "/>
   <polyline id="_71220008" class="fil0 str0" points="114.094,62.5687 113.753,62.1145 113.242,61.5753 "/>
   <polyline id="_71220968" class="fil0 str0" points="112.305,60.6669 111.794,60.1558 111.312,59.8151 "/>
   <polyline id="_71221928" class="fil0 str0" points="110.233,59.077 109.524,58.5944 109.126,58.3956 "/>
   <polyline id="_71222888" class="fil0 str0" points="107.933,57.8562 107.025,57.4306 106.713,57.3738 "/>
   <line id="_71223848" class="fil0 str0" x1="105.463" y1="57.0615" x2="104.356" y2= "56.7776" />
   <polygon id="_71224936" class="fil1" points="117.557,69.5241 116.762,69.5809 117.359,71.937 "/>
   <polygon id="_71226056" class="fil0 str0" points="117.557,69.5241 116.762,69.5809 117.359,71.937 "/>
   <polygon id="_71227176" class="fil1" points="104.3,57.1752 104.385,56.3801 101.943,56.5789 "/>
   <polygon id="_71228296" class="fil0 str0" points="104.3,57.1752 104.385,56.3801 101.943,56.5789 "/>
   <polygon id="_71229576" class="fil1" points="116.024,58.3673 115.684,58.2253 115.258,58.5091 114.917,58.6511 114.633,58.6796 114.463,58.5376 114.065,58.2536 114.065,58.5091 114.207,58.7363 114.406,58.9066 114.633,58.9919 114.917,58.9919 115.229,58.8782 115.598,58.6511 "/>
   <polygon id="_71231128" class="fil1" points="116.933,57.1467 116.535,56.8912 116.592,56.9764 116.564,57.317 116.507,57.4022 116.308,57.6859 115.939,58.0265 115.286,57.2035 114.974,57.0615 114.605,57.4022 114.321,57.7142 114.123,57.9982 114.065,58.2536 114.463,58.5376 114.377,58.3388 114.434,58.055 114.661,57.771 115.059,57.4022 115.684,58.2253 116.024,58.3673 116.393,58.0265 116.677,57.7142 116.847,57.4306 "/>
   <polygon id="_71232608" class="fil1" points="116.791,56.6924 116.592,56.5221 116.365,56.4369 116.081,56.4369 115.74,56.5506 115.371,56.7492 114.974,57.0615 115.286,57.2035 115.712,56.9196 116.081,56.7776 116.336,56.7492 116.535,56.8912 116.933,57.1467 116.904,56.9196 "/>
   <polygon id="_71233920" class="fil1" points="116.791,59.2473 114.86,59.5028 115.116,59.8151 116.393,59.6165 116.649,59.588 "/>
   <polygon id="_71235072" class="fil1" points="117.699,57.913 117.444,57.6007 116.791,59.2473 116.649,59.588 116.564,59.7868 116.081,61.0075 116.336,61.3483 117.046,59.5312 117.16,59.1905 117.188,59.1622 117.359,58.7931 "/>
   <polygon id="_71236064" class="fil1" points="118.806,59.2757 118.58,58.9919 117.586,59.1337 117.557,59.1337 117.16,59.1905 117.046,59.5312 "/>
   <polygon id="_71237200" class="fil1" points="119.772,61.4334 119.601,61.2063 118.92,61.7457 118.466,61.2063 118.182,61.4334 118.608,61.9725 117.927,62.5119 118.125,62.7391 118.806,62.1996 119.232,62.7391 119.516,62.5119 119.09,61.9725 "/>
  </g>
 </g>
</svg>
