<?xml version="1.0" encoding="utf-8"?>
<!-- Generator: Adobe Illustrator 16.1.0, SVG Export Plug-In . SVG Version: 6.00 Build 0)  -->
<!DOCTYPE svg PUBLIC "-//W3C//DTD SVG 1.1//EN" "http://www.w3.org/Graphics/SVG/1.1/DTD/svg11.dtd">
<svg version="1.1" id="Layer_1" xmlns="http://www.w3.org/2000/svg" xmlns:xlink="http://www.w3.org/1999/xlink" x="0px" y="0px"
	 width="700px" height="400px" viewBox="-4 0 700 400" enable-background="new -4 0 700 400" xml:space="preserve">
<g id="圖層_x0020_1">
	<g id="_70510920">
		<line id="_70754176" fill="none" stroke="#000000" stroke-width="0.5" x1="339.778" y1="198.856" x2="336.2" y2="199.661"/>
		<line id="_70508904" fill="none" stroke="#000000" stroke-width="0.5" x1="332.173" y1="200.735" x2="328.327" y2="202.166"/>
		<line id="_70540536" fill="none" stroke="#000000" stroke-width="0.5" x1="324.657" y1="204.045" x2="321.436" y2="205.745"/>
		<polygon id="_70535752" points="339.689,197.604 339.867,200.109 347.292,198.318 		"/>
		<polygon id="_70746296" fill="none" stroke="#000000" stroke-width="0.5" points="339.689,197.604 339.867,200.109 
			347.292,198.318 		"/>
		<polygon id="_70837504" points="322.153,206.729 320.63,204.761 315.351,210.309 		"/>
		<polygon id="_70542064" fill="none" stroke="#000000" stroke-width="0.5" points="322.153,206.729 320.63,204.761 
			315.351,210.309 		"/>
		<polygon id="_70764728" points="324.209,189.461 323.404,190.267 323.942,191.787 324.031,193.04 323.852,193.846 
			323.316,194.293 322.063,195.277 322.866,195.366 323.672,195.277 324.389,194.83 324.836,194.203 325.014,193.309 
			325.014,192.234 324.748,190.893 		"/>
		<polygon id="_70514224" points="321.436,185.525 320.182,186.51 320.54,186.42 321.525,186.778 321.792,187.046 322.419,187.94 
			323.046,189.372 320.093,190.534 319.288,191.34 319.916,192.772 320.63,193.935 321.345,194.74 322.063,195.277 323.316,194.293 
			322.601,194.293 321.883,193.846 321.168,192.86 320.452,191.43 323.404,190.267 324.209,189.461 323.583,187.94 322.866,186.867 
			322.153,186.062 		"/>
		<polygon id="_71001240" points="319.827,185.525 319.11,185.973 318.663,186.599 318.483,187.492 318.483,188.566 
			318.751,189.819 319.288,191.34 320.093,190.534 319.557,188.924 319.468,187.761 319.646,186.956 320.182,186.51 
			321.436,185.525 320.63,185.347 		"/>
		<polygon id="_70760112" points="327.521,187.851 326.538,193.935 327.789,193.487 328.327,189.461 328.416,188.566 		"/>
		<polygon id="_70837368" points="324.389,183.914 323.225,184.361 327.521,187.851 328.416,188.566 329.042,189.104 
			332.262,191.698 333.424,191.161 328.684,187.313 327.789,186.688 327.701,186.599 326.715,185.793 		"/>
		<polygon id="_70754744" points="329.58,181.855 328.503,182.304 327.967,185.436 327.879,185.525 327.789,186.688 
			328.684,187.313 		"/>
		<polygon id="_70753688" points="335.662,187.046 335.214,185.883 338.078,184.809 338.525,185.973 		"/>
		<line id="_70539328" fill="none" stroke="#000000" stroke-width="0.5" x1="90.062" y1="219.077" x2="422.362" y2="367.424"/>
		<line id="_70760704" fill="none" stroke="#000000" stroke-width="0.5" x1="422.362" y1="367.424" x2="422.362" y2="384.959"/>
		<line id="_70906584" fill="none" stroke="#000000" stroke-width="0.5" x1="422.362" y1="367.424" x2="604.617" y2="274.729"/>
		<line id="_70900168" fill="none" stroke="#000000" stroke-width="0.5" x1="90.062" y1="236.613" x2="422.362" y2="384.959"/>
		<line id="_70523168" fill="none" stroke="#000000" stroke-width="0.5" x1="422.362" y1="384.959" x2="604.617" y2="292.354"/>
		<line id="_71285048" fill="none" stroke="#000000" stroke-width="0.5" x1="604.617" y1="274.729" x2="604.617" y2="292.354"/>
		<line id="_70509192" fill="none" stroke="#000000" stroke-width="0.5" x1="90.062" y1="219.077" x2="90.062" y2="236.613"/>
		<line id="_70537912" fill="none" stroke="#000000" stroke-width="0.5" x1="90.062" y1="219.077" x2="272.227" y2="126.473"/>
		<line id="_70535264" fill="none" stroke="#000000" stroke-width="0.5" x1="272.227" y1="126.473" x2="604.617" y2="274.729"/>
		<line id="_70526760" fill="none" stroke="#000000" stroke-width="0.5" x1="104.557" y1="211.74" x2="422.003" y2="353.376"/>
		<line id="_70512392" fill="none" stroke="#000000" stroke-width="0.5" x1="422.003" y1="353.376" x2="575.27" y2="275.533"/>
		<line id="_70856696" fill="none" stroke="#000000" stroke-width="0.5" x1="257.732" y1="133.81" x2="575.27" y2="275.533"/>
		<line id="_70538432" fill="none" stroke="#000000" stroke-width="0.5" x1="119.319" y1="218.36" x2="272.584" y2="140.431"/>
		<line id="_70503264" fill="none" stroke="#000000" stroke-width="0.5" x1="119.052" y1="204.313" x2="133.813" y2="210.935"/>
		<line id="_70511112" fill="none" stroke="#000000" stroke-width="0.5" x1="243.237" y1="141.146" x2="258.09" y2="147.857"/>
		<line id="_70511776" fill="none" stroke="#000000" stroke-width="0.5" x1="208.074" y1="317.675" x2="486.511" y2="176.13"/>
		<line id="_70510200" fill="none" stroke="#000000" stroke-width="0.5" x1="347.292" y1="246.902" x2="347.292" y2="72.521"/>
		<line id="_70339424" fill="none" stroke="#000000" stroke-width="0.5" x1="128.981" y1="149.467" x2="134.44" y2="151.883"/>
		<line id="_71088688" fill="none" stroke="#000000" stroke-width="0.5" x1="138.196" y1="153.583" x2="141.955" y2="155.283"/>
		<line id="_70539720" fill="none" stroke="#000000" stroke-width="0.5" x1="145.713" y1="156.983" x2="149.472" y2="158.683"/>
		<line id="_70541080" fill="none" stroke="#000000" stroke-width="0.5" x1="153.228" y1="160.293" x2="157.075" y2="161.993"/>
		<line id="_69964032" fill="none" stroke="#000000" stroke-width="0.5" x1="160.834" y1="163.692" x2="164.59" y2="165.394"/>
		<line id="_70523736" fill="none" stroke="#000000" stroke-width="0.5" x1="168.35" y1="167.094" x2="172.106" y2="168.704"/>
		<line id="_70845720" fill="none" stroke="#000000" stroke-width="0.5" x1="175.866" y1="170.403" x2="179.622" y2="172.104"/>
		<line id="_70842408" fill="none" stroke="#000000" stroke-width="0.5" x1="183.381" y1="173.804" x2="187.139" y2="175.503"/>
		<line id="_70268992" fill="none" stroke="#000000" stroke-width="0.5" x1="190.985" y1="177.113" x2="194.744" y2="178.814"/>
		<line id="_70838656" fill="none" stroke="#000000" stroke-width="0.5" x1="198.501" y1="180.515" x2="202.259" y2="182.214"/>
		<line id="_70773080" fill="none" stroke="#000000" stroke-width="0.5" x1="206.017" y1="183.824" x2="209.774" y2="185.525"/>
		<line id="_70509360" fill="none" stroke="#000000" stroke-width="0.5" x1="213.533" y1="187.225" x2="217.291" y2="188.924"/>
		<line id="_70510000" fill="none" stroke="#000000" stroke-width="0.5" x1="221.048" y1="190.624" x2="224.896" y2="192.234"/>
		<line id="_70705640" fill="none" stroke="#000000" stroke-width="0.5" x1="228.653" y1="193.935" x2="232.412" y2="195.635"/>
		<line id="_69793328" fill="none" stroke="#000000" stroke-width="0.5" x1="236.168" y1="197.335" x2="239.927" y2="199.036"/>
		<line id="_70511392" fill="none" stroke="#000000" stroke-width="0.5" x1="243.685" y1="200.646" x2="247.442" y2="202.345"/>
		<line id="_70510640" fill="none" stroke="#000000" stroke-width="0.5" x1="251.2" y1="204.045" x2="254.958" y2="205.745"/>
		<line id="_70509792" fill="none" stroke="#000000" stroke-width="0.5" x1="258.806" y1="207.445" x2="262.562" y2="209.056"/>
		<line id="_70512032" fill="none" stroke="#000000" stroke-width="0.5" x1="266.321" y1="210.756" x2="270.079" y2="212.456"/>
		<line id="_70708968" fill="none" stroke="#000000" stroke-width="0.5" x1="273.837" y1="214.156" x2="277.593" y2="215.855"/>
		<line id="_71047080" fill="none" stroke="#000000" stroke-width="0.5" x1="281.353" y1="217.467" x2="285.111" y2="219.167"/>
		<line id="_71048168" fill="none" stroke="#000000" stroke-width="0.5" x1="288.868" y1="220.866" x2="292.626" y2="222.566"/>
		<line id="_71049256" fill="none" stroke="#000000" stroke-width="0.5" x1="296.472" y1="224.177" x2="300.231" y2="225.878"/>
		<line id="_71050344" fill="none" stroke="#000000" stroke-width="0.5" x1="303.988" y1="227.577" x2="307.747" y2="229.276"/>
		<line id="_71051432" fill="none" stroke="#000000" stroke-width="0.5" x1="311.505" y1="230.976" x2="315.262" y2="232.586"/>
		<line id="_71052520" fill="none" stroke="#000000" stroke-width="0.5" x1="319.02" y1="234.287" x2="322.778" y2="235.987"/>
		<line id="_71053608" fill="none" stroke="#000000" stroke-width="0.5" x1="326.538" y1="237.687" x2="330.384" y2="239.388"/>
		<line id="_71054696" fill="none" stroke="#000000" stroke-width="0.5" x1="334.141" y1="240.997" x2="337.899" y2="242.698"/>
		<line id="_71055784" fill="none" stroke="#000000" stroke-width="0.5" x1="341.657" y1="244.396" x2="345.414" y2="246.097"/>
		<line id="_71056872" fill="none" stroke="#000000" stroke-width="0.5" x1="349.17" y1="247.797" x2="352.93" y2="249.408"/>
		<line id="_71057960" fill="none" stroke="#000000" stroke-width="0.5" x1="356.691" y1="251.107" x2="360.447" y2="252.808"/>
		<line id="_71059048" fill="none" stroke="#000000" stroke-width="0.5" x1="364.292" y1="254.508" x2="368.052" y2="256.207"/>
		<line id="_71060136" fill="none" stroke="#000000" stroke-width="0.5" x1="371.808" y1="257.818" x2="375.567" y2="259.519"/>
		<line id="_71061224" fill="none" stroke="#000000" stroke-width="0.5" x1="379.326" y1="261.219" x2="383.083" y2="262.918"/>
		<line id="_71062312" fill="none" stroke="#000000" stroke-width="0.5" x1="386.839" y1="264.529" x2="390.6" y2="266.229"/>
		<line id="_71063400" fill="none" stroke="#000000" stroke-width="0.5" x1="394.356" y1="267.929" x2="398.205" y2="269.629"/>
		<line id="_71064488" fill="none" stroke="#000000" stroke-width="0.5" x1="401.961" y1="271.328" x2="405.718" y2="272.938"/>
		<line id="_71065576" fill="none" stroke="#000000" stroke-width="0.5" x1="409.477" y1="274.639" x2="413.235" y2="276.339"/>
		<line id="_71066664" fill="none" stroke="#000000" stroke-width="0.5" x1="416.992" y1="278.039" x2="420.748" y2="279.739"/>
		<line id="_71067752" fill="none" stroke="#000000" stroke-width="0.5" x1="424.508" y1="281.349" x2="428.264" y2="283.05"/>
		<line id="_71068840" fill="none" stroke="#000000" stroke-width="0.5" x1="432.114" y1="284.75" x2="435.87" y2="286.448"/>
		<line id="_71069928" fill="none" stroke="#000000" stroke-width="0.5" x1="439.63" y1="288.148" x2="443.386" y2="289.76"/>
		<line id="_71071016" fill="none" stroke="#000000" stroke-width="0.5" x1="447.143" y1="291.46" x2="450.903" y2="293.159"/>
		<line id="_71072104" fill="none" stroke="#000000" stroke-width="0.5" x1="454.66" y1="294.859" x2="458.417" y2="296.56"/>
		<line id="_71073192" fill="none" stroke="#000000" stroke-width="0.5" x1="462.178" y1="298.171" x2="466.022" y2="299.869"/>
		<line id="_71074280" fill="none" stroke="#000000" stroke-width="0.5" x1="469.783" y1="301.57" x2="473.539" y2="303.271"/>
		<line id="_71075368" fill="none" stroke="#000000" stroke-width="0.5" x1="477.295" y1="304.97" x2="481.055" y2="306.58"/>
		<line id="_71076456" fill="none" stroke="#000000" stroke-width="0.5" x1="484.812" y1="308.281" x2="488.57" y2="309.981"/>
		<line id="_71077544" fill="none" stroke="#000000" stroke-width="0.5" x1="492.326" y1="311.681" x2="496.086" y2="313.29"/>
		<line id="_71078632" fill="none" stroke="#000000" stroke-width="0.5" x1="499.931" y1="314.99" x2="503.692" y2="316.69"/>
		<line id="_71079720" fill="none" stroke="#000000" stroke-width="0.5" x1="507.448" y1="318.391" x2="511.208" y2="320.092"/>
		<line id="_71080808" fill="none" stroke="#000000" stroke-width="0.5" x1="514.964" y1="321.701" x2="518.72" y2="323.401"/>
		<line id="_71081896" fill="none" stroke="#000000" stroke-width="0.5" x1="522.481" y1="325.102" x2="526.24" y2="326.803"/>
		<line id="_71286824" fill="none" stroke="#000000" stroke-width="0.5" x1="529.996" y1="328.5" x2="533.842" y2="330.111"/>
		<line id="_71287912" fill="none" stroke="#000000" stroke-width="0.5" x1="537.6" y1="331.812" x2="541.361" y2="333.512"/>
		<line id="_71289000" fill="none" stroke="#000000" stroke-width="0.5" x1="545.117" y1="335.213" x2="548.874" y2="336.911"/>
		<line id="_71290088" fill="none" stroke="#000000" stroke-width="0.5" x1="552.633" y1="338.522" x2="556.39" y2="340.221"/>
		<line id="_71291176" fill="none" stroke="#000000" stroke-width="0.5" x1="560.148" y1="341.923" x2="565.606" y2="344.337"/>
		<line id="_71292264" fill="none" stroke="#000000" stroke-width="0.5" x1="454.752" y1="192.325" x2="454.752" y2="108.22"/>
		<line id="_71293352" fill="none" stroke="#000000" stroke-width="0.5" x1="222.391" y1="310.428" x2="222.391" y2="250.481"/>
		<line id="_71294440" fill="none" stroke="#000000" stroke-width="0.5" x1="347.292" y1="246.902" x2="222.391" y2="250.481"/>
		<line id="_71295528" fill="none" stroke="#000000" stroke-width="0.5" x1="347.292" y1="246.902" x2="454.752" y2="108.22"/>
		<line id="_71296616" fill="none" stroke="#000000" stroke-width="0.5" x1="227.938" y1="193.666" x2="227.938" y2="191.072"/>
		<line id="_71297704" fill="none" stroke="#000000" stroke-width="0.5" x1="227.938" y1="186.956" x2="227.938" y2="182.751"/>
		<line id="_71298792" fill="none" stroke="#000000" stroke-width="0.5" x1="227.938" y1="178.636" x2="227.938" y2="174.519"/>
		<line id="_71299880" fill="none" stroke="#000000" stroke-width="0.5" x1="227.938" y1="170.403" x2="227.938" y2="166.288"/>
		<line id="_71300968" fill="none" stroke="#000000" stroke-width="0.5" x1="227.938" y1="162.172" x2="227.938" y2="158.057"/>
		<line id="_71302056" fill="none" stroke="#000000" stroke-width="0.5" x1="227.938" y1="153.941" x2="227.938" y2="149.735"/>
		<line id="_71303144" fill="none" stroke="#000000" stroke-width="0.5" x1="227.938" y1="145.62" x2="227.938" y2="141.504"/>
		<line id="_71304232" fill="none" stroke="#000000" stroke-width="0.5" x1="227.938" y1="137.389" x2="227.938" y2="133.273"/>
		<line id="_71305320" fill="none" stroke="#000000" stroke-width="0.5" x1="227.938" y1="129.157" x2="227.938" y2="125.042"/>
		<line id="_71306408" fill="none" stroke="#000000" stroke-width="0.5" x1="227.938" y1="120.836" x2="227.938" y2="116.721"/>
		<line id="_71307496" fill="none" stroke="#000000" stroke-width="0.5" x1="227.938" y1="112.605" x2="227.938" y2="110.01"/>
		<line id="_71308584" fill="none" stroke="#000000" stroke-width="0.5" x1="474.702" y1="303.807" x2="474.702" y2="297.812"/>
		<line id="_71309672" fill="none" stroke="#000000" stroke-width="0.5" x1="474.702" y1="293.697" x2="474.702" y2="289.58"/>
		<line id="_71310760" fill="none" stroke="#000000" stroke-width="0.5" x1="474.702" y1="285.465" x2="474.702" y2="281.349"/>
		<line id="_71311848" fill="none" stroke="#000000" stroke-width="0.5" x1="474.702" y1="277.234" x2="474.702" y2="273.117"/>
		<line id="_71312936" fill="none" stroke="#000000" stroke-width="0.5" x1="474.702" y1="268.913" x2="474.702" y2="264.797"/>
		<line id="_71314024" fill="none" stroke="#000000" stroke-width="0.5" x1="474.702" y1="260.681" x2="474.702" y2="256.565"/>
		<line id="_71315112" fill="none" stroke="#000000" stroke-width="0.5" x1="474.702" y1="252.45" x2="474.702" y2="246.544"/>
		<line id="_71316200" fill="none" stroke="#000000" stroke-width="0.5" x1="347.292" y1="246.902" x2="345.952" y2="245.382"/>
		<line id="_71317288" fill="none" stroke="#000000" stroke-width="0.5" x1="343.178" y1="242.25" x2="340.495" y2="239.118"/>
		<line id="_71318376" fill="none" stroke="#000000" stroke-width="0.5" x1="337.81" y1="235.987" x2="335.036" y2="232.855"/>
		<line id="_71319464" fill="none" stroke="#000000" stroke-width="0.5" x1="332.35" y1="229.812" x2="329.667" y2="226.682"/>
		<line id="_71320552" fill="none" stroke="#000000" stroke-width="0.5" x1="326.983" y1="223.551" x2="324.209" y2="220.419"/>
		<line id="_71321640" fill="none" stroke="#000000" stroke-width="0.5" x1="321.525" y1="217.376" x2="318.84" y2="214.246"/>
		<line id="_71322728" fill="none" stroke="#000000" stroke-width="0.5" x1="316.067" y1="211.114" x2="313.384" y2="207.982"/>
		<line id="_71323816" fill="none" stroke="#000000" stroke-width="0.5" x1="310.7" y1="204.94" x2="307.925" y2="201.809"/>
		<line id="_71324904" fill="none" stroke="#000000" stroke-width="0.5" x1="305.241" y1="198.678" x2="302.557" y2="195.546"/>
		<line id="_71325992" fill="none" stroke="#000000" stroke-width="0.5" x1="299.785" y1="192.503" x2="297.1" y2="189.372"/>
		<line id="_71327080" fill="none" stroke="#000000" stroke-width="0.5" x1="294.417" y1="186.24" x2="291.641" y2="183.108"/>
		<line id="_71328168" fill="none" stroke="#000000" stroke-width="0.5" x1="288.957" y1="180.066" x2="286.273" y2="176.936"/>
		<line id="_71329256" fill="none" stroke="#000000" stroke-width="0.5" x1="283.589" y1="173.804" x2="280.816" y2="170.673"/>
		<line id="_71330344" fill="none" stroke="#000000" stroke-width="0.5" x1="278.131" y1="167.541" x2="275.447" y2="164.499"/>
		<line id="_71331432" fill="none" stroke="#000000" stroke-width="0.5" x1="272.673" y1="161.367" x2="269.989" y2="158.236"/>
		<line id="_71332520" fill="none" stroke="#000000" stroke-width="0.5" x1="267.305" y1="155.104" x2="264.532" y2="152.062"/>
		<line id="_71333608" fill="none" stroke="#000000" stroke-width="0.5" x1="261.848" y1="148.93" x2="259.165" y2="145.798"/>
		<line id="_71334696" fill="none" stroke="#000000" stroke-width="0.5" x1="256.389" y1="142.668" x2="253.705" y2="139.625"/>
		<line id="_71335784" fill="none" stroke="#000000" stroke-width="0.5" x1="251.021" y1="136.494" x2="248.248" y2="133.362"/>
		<line id="_71336872" fill="none" stroke="#000000" stroke-width="0.5" x1="245.564" y1="130.231" x2="242.879" y2="127.189"/>
		<line id="_71337960" fill="none" stroke="#000000" stroke-width="0.5" x1="240.195" y1="124.057" x2="237.422" y2="120.926"/>
		<line id="_71339048" fill="none" stroke="#000000" stroke-width="0.5" x1="234.738" y1="117.794" x2="232.054" y2="114.663"/>
		<line id="_71340136" fill="none" stroke="#000000" stroke-width="0.5" x1="229.281" y1="111.621" x2="227.938" y2="110.01"/>
		<line id="_71341224" fill="none" stroke="#000000" stroke-width="0.5" x1="347.292" y1="246.902" x2="351.14" y2="246.902"/>
		<line id="_71342312" fill="none" stroke="#000000" stroke-width="0.5" x1="355.256" y1="246.902" x2="359.459" y2="246.902"/>
		<line id="_71343400" fill="none" stroke="#000000" stroke-width="0.5" x1="363.577" y1="246.902" x2="367.694" y2="246.812"/>
		<line id="_71344488" fill="none" stroke="#000000" stroke-width="0.5" x1="371.808" y1="246.812" x2="375.925" y2="246.812"/>
		<line id="_71345576" fill="none" stroke="#000000" stroke-width="0.5" x1="380.042" y1="246.812" x2="384.157" y2="246.812"/>
		<line id="_71346664" fill="none" stroke="#000000" stroke-width="0.5" x1="388.27" y1="246.812" x2="392.389" y2="246.812"/>
		<line id="_71347752" fill="none" stroke="#000000" stroke-width="0.5" x1="396.593" y1="246.723" x2="400.71" y2="246.723"/>
		<line id="_71348840" fill="none" stroke="#000000" stroke-width="0.5" x1="404.823" y1="246.723" x2="408.94" y2="246.723"/>
		<line id="_71349928" fill="none" stroke="#000000" stroke-width="0.5" x1="413.054" y1="246.723" x2="417.171" y2="246.723"/>
		<line id="_71351016" fill="none" stroke="#000000" stroke-width="0.5" x1="421.287" y1="246.723" x2="425.403" y2="246.635"/>
		<line id="_71352104" fill="none" stroke="#000000" stroke-width="0.5" x1="429.516" y1="246.635" x2="433.724" y2="246.635"/>
		<line id="_71353192" fill="none" stroke="#000000" stroke-width="0.5" x1="437.839" y1="246.635" x2="441.952" y2="246.635"/>
		<line id="_71354280" fill="none" stroke="#000000" stroke-width="0.5" x1="446.072" y1="246.635" x2="450.186" y2="246.635"/>
		<line id="_71355368" fill="none" stroke="#000000" stroke-width="0.5" x1="454.305" y1="246.544" x2="458.417" y2="246.544"/>
		<line id="_71356456" fill="none" stroke="#000000" stroke-width="0.5" x1="462.533" y1="246.544" x2="466.649" y2="246.544"/>
		<line id="_71357544" fill="none" stroke="#000000" stroke-width="0.5" x1="470.854" y1="246.544" x2="474.702" y2="246.544"/>
		<polygon id="_71358632" points="575.356,349.169 571.42,355.699 573.032,355.699 575.538,351.317 576.076,350.332 		"/>
		<polygon id="_71359440" points="573.479,343.086 571.868,343.086 575.356,349.169 576.076,350.332 576.523,351.228 
			579.026,355.699 580.728,355.699 576.879,349.08 576.164,347.918 576.076,347.737 575.356,346.307 		"/>
		<polygon id="_71360248" points="580.46,343.086 578.937,343.086 576.972,346.486 576.879,346.574 576.164,347.918 576.879,349.08 
					"/>
		<polygon id="_71361056" points="585.467,345.32 584.305,345.32 584.305,348.812 581.532,348.812 581.532,350.243 584.305,350.243 
			584.305,353.645 585.467,353.645 585.467,350.243 588.243,350.243 588.243,348.812 585.467,348.812 		"/>
		<polygon id="_71361864" points="110.909,132.557 106.972,139.088 108.583,139.088 111.087,134.704 111.625,133.719 		"/>
		<polygon id="_71362672" points="109.03,126.473 107.419,126.473 110.909,132.557 111.625,133.719 111.982,134.615 
			114.577,139.088 116.188,139.088 112.429,132.467 111.625,131.304 111.625,131.125 110.82,129.694 		"/>
		<polygon id="_71363480" points="115.918,126.473 114.488,126.473 112.429,129.784 112.34,129.962 111.625,131.304 
			112.429,132.467 		"/>
		<polygon id="_71364288" points="120.661,135.331 120.661,133.719 124.509,133.719 124.509,135.331 		"/>
		<polygon id="_71365168" points="184.812,329.218 184.901,330.648 185.707,330.826 186.781,330.47 187.496,329.306 
			185.528,329.306 		"/>
		<polygon id="_71365904" points="185.617,317.943 184.274,317.943 187.048,327.159 187.676,325.37 187.586,324.744 
			187.139,323.223 		"/>
		<polygon id="_71366712" points="190.985,317.943 189.734,317.943 188.211,323.312 188.034,323.849 187.676,325.37 
			187.048,327.159 186.959,327.517 186.601,328.68 186.154,329.127 185.528,329.306 187.496,329.306 187.676,328.948 
			188.211,327.247 		"/>
		<polygon id="_71367520" points="191.612,323.312 191.612,321.792 195.369,321.792 195.369,323.312 		"/>
		<polygon id="_71368400" points="32.532,131.304 31.279,131.93 31.099,133.988 30.742,135.42 30.115,136.226 29.31,136.583 
			27.432,137.12 28.237,137.657 29.31,137.836 30.295,137.657 31.099,137.12 31.727,136.226 32.174,134.883 32.441,133.273 		"/>
		<polygon id="_71369392" points="31.099,125.488 29.31,126.025 29.667,126.115 30.652,127.01 30.832,127.368 31.19,128.71 
			31.279,130.678 27.253,130.678 26,131.304 26.09,133.273 26.358,134.883 26.805,136.226 27.432,137.12 29.31,136.583 
			28.415,136.226 27.79,135.42 27.432,133.899 27.253,131.93 31.279,131.93 32.532,131.304 32.441,129.336 32.174,127.636 
			31.727,126.384 		"/>
		<polygon id="_71370200" points="29.31,124.773 28.237,124.952 27.432,125.488 26.805,126.384 26.358,127.636 26.09,129.336 
			26,131.304 27.253,130.678 27.432,128.621 27.79,127.189 28.415,126.294 29.31,126.025 31.099,125.488 30.295,124.952 		"/>
		<polygon id="_71371264" points="37.184,131.037 33.247,137.567 34.858,137.567 37.363,133.183 37.9,132.289 		"/>
		<polygon id="_71372072" points="35.306,124.952 33.694,124.952 37.184,131.037 37.9,132.289 38.347,133.094 40.853,137.567 
			42.552,137.567 38.705,130.947 37.989,129.784 37.9,129.605 37.184,128.262 		"/>
		<polygon id="_71372880" points="42.284,124.952 40.762,124.952 38.794,128.352 38.705,128.442 37.989,129.784 38.705,130.947 		
			"/>
		<polygon id="_71373688" points="47.026,133.81 47.026,132.289 50.784,132.289 50.784,133.81 		"/>
		<polygon id="_71374568" points="62.594,132.557 55.974,132.557 55.974,133.988 62.594,133.988 		"/>
		<polygon id="_71375376" points="62.594,128.71 55.974,128.71 55.974,130.142 62.594,130.142 		"/>
		<polygon id="_71376344" points="69.304,134.525 68.051,134.704 68.32,135.778 69.036,137.031 70.916,136.583 69.841,136.047 
			69.751,135.957 		"/>
		<polygon id="_71377240" points="72.346,131.483 71.184,131.93 68.767,132.199 69.662,133.004 70.916,133.362 71.093,133.362 
			72.256,132.825 72.436,132.736 73.331,131.662 		"/>
		<polygon id="_71378048" points="68.856,126.115 68.678,126.294 68.051,127.636 67.873,129.157 67.873,129.426 68.142,130.947 
			68.767,132.199 71.184,131.93 70.826,131.93 69.751,131.214 69.483,130.768 69.214,129.247 69.214,128.352 69.751,127.01 
			70.109,126.652 71.273,126.205 		"/>
		<polygon id="_71379408" points="71.093,124.952 71.004,124.952 69.841,125.22 68.856,126.115 71.273,126.205 71.541,126.205 
			72.615,127.01 72.883,127.547 73.151,129.157 73.151,129.873 72.615,131.214 72.346,131.483 73.331,131.662 73.331,132.02 
			73.331,132.289 73.151,133.899 72.704,135.331 71.988,136.226 70.916,136.583 69.036,137.031 69.662,137.567 70.916,137.836 
			71.809,137.747 72.883,137.12 73.51,136.314 74.136,134.883 74.315,134.257 74.493,132.825 74.583,131.037 74.583,130.41 
			74.405,128.71 74.136,127.457 73.778,126.652 72.883,125.579 72.256,125.22 		"/>
		<polygon id="_71380216" points="77.177,125.668 76.73,126.294 76.104,127.726 76.016,128.173 75.835,129.605 75.746,131.393 
			75.746,132.289 75.925,134.078 76.283,135.42 76.73,136.494 76.91,136.673 79.058,136.583 78.52,136.494 77.625,135.51 
			77.358,134.794 77.088,133.362 77,131.393 77.088,129.694 77.268,128.173 77.625,127.099 77.983,126.742 79.058,126.205 		"/>
		<polygon id="_71381352" points="79.058,124.952 78.252,125.042 77.177,125.668 79.058,126.205 79.505,126.294 80.489,127.278 
			80.756,127.905 81.025,129.426 81.025,131.393 81.025,132.915 80.846,134.525 80.489,135.51 80.131,136.047 79.058,136.583 
			76.91,136.673 77.805,137.567 79.058,137.836 79.862,137.747 80.846,137.12 81.383,136.404 82.009,134.973 82.098,134.615 
			82.278,133.183 82.367,131.393 82.278,129.784 82.098,128.352 82.009,127.905 81.473,126.473 81.383,126.384 80.489,125.31 
			80.308,125.22 		"/>
		<polygon id="_71382160" points="84.426,125.488 84.246,125.757 83.887,127.189 83.887,127.547 84.426,128.889 84.693,129.068 
			85.768,129.516 86.125,129.516 87.199,128.8 85.857,128.621 84.962,128.173 84.693,127.189 84.962,126.115 85.857,125.668 		"/>
		<polygon id="_71383224" points="85.768,124.773 85.499,124.773 84.426,125.488 85.857,125.668 86.663,126.115 86.93,127.189 
			86.663,128.173 85.857,128.621 87.199,128.8 87.377,128.531 87.735,127.189 87.735,126.831 87.199,125.488 86.93,125.22 		"/>
		<polygon id="_71384536" points="608.014,350.424 606.764,351.048 606.584,353.105 606.228,354.539 605.602,355.432 
			604.793,355.699 602.915,356.238 603.723,356.773 604.793,356.953 605.781,356.773 606.584,356.238 607.211,355.343 
			607.658,354.091 607.926,352.389 		"/>
		<polygon id="_71385848" points="606.584,344.604 604.706,345.145 605.153,345.232 606.137,346.128 606.317,346.486 
			606.584,347.826 606.764,349.796 602.736,349.796 601.485,350.424 601.574,352.389 601.841,354.091 602.289,355.343 
			602.915,356.238 604.793,355.699 603.9,355.432 603.276,354.539 602.915,353.105 602.736,351.048 606.764,351.048 
			608.014,350.424 607.926,348.454 607.658,346.843 607.211,345.5 		"/>
		<polygon id="_71386984" points="604.793,343.89 603.723,344.069 602.915,344.604 602.289,345.5 601.841,346.843 601.574,348.454 
			601.485,350.424 602.736,349.796 602.915,347.826 603.276,346.307 603.9,345.5 604.706,345.145 606.584,344.604 605.781,344.069 
					"/>
		<polygon id="_71388296" points="612.667,350.156 608.729,356.773 610.34,356.773 612.846,352.302 613.386,351.406 		"/>
		<polygon id="_71389104" points="610.788,344.069 609.178,344.069 612.667,350.156 613.386,351.406 613.829,352.21 
			616.334,356.773 618.037,356.773 614.19,350.063 613.475,348.9 613.386,348.722 612.667,347.378 		"/>
		<polygon id="_71389912" points="617.769,344.069 616.249,344.069 614.278,347.47 614.19,347.559 613.475,348.9 614.19,350.063 		
			"/>
		<polygon id="_71390720" points="626.713,346.396 625.551,346.396 625.551,349.796 622.778,349.796 622.778,351.228 
			625.551,351.228 625.551,354.716 626.713,354.716 626.713,351.228 629.489,351.228 629.489,349.796 626.713,349.796 		"/>
		<polygon id="_71391528" points="641.656,351.674 634.947,351.674 634.947,353.197 641.656,353.197 		"/>
		<polygon id="_71392408" points="641.656,347.826 634.947,347.826 634.947,349.348 641.656,349.348 		"/>
		<polygon id="_71393376" points="648.278,353.732 647.116,353.821 647.295,354.986 648.01,356.146 649.975,355.699 
			648.904,355.251 648.813,355.075 		"/>
		<polygon id="_71394272" points="651.319,350.691 650.248,351.139 647.831,351.317 648.725,352.121 649.889,352.481 
			650.159,352.481 651.319,352.034 651.499,351.854 652.301,350.78 		"/>
		<polygon id="_71395080" points="647.831,345.232 647.654,345.412 647.116,346.754 646.934,348.365 646.934,348.542 
			647.207,350.063 647.831,351.317 650.248,351.139 649.8,351.048 648.813,350.332 648.458,349.884 648.189,348.365 648.278,347.47 
			648.813,346.216 649.172,345.859 650.248,345.32 		"/>
		<polygon id="_71397032" points="650.069,344.069 649.975,344.069 648.813,344.337 647.831,345.232 650.248,345.32 
			650.604,345.412 651.586,346.128 651.946,346.663 652.213,348.273 652.126,348.989 651.677,350.332 651.319,350.691 
			652.301,350.78 652.301,351.139 652.301,351.495 652.126,353.018 651.677,354.447 650.96,355.343 649.975,355.699 648.01,356.146 
			648.725,356.686 649.975,356.953 650.784,356.864 651.855,356.238 652.574,355.432 653.11,354 653.289,353.465 653.468,351.942 
			653.557,350.156 653.557,349.527 653.468,347.918 653.11,346.574 652.75,345.768 651.946,344.696 651.319,344.337 		"/>
		<polygon id="_71397840" points="656.239,344.784 655.704,345.5 655.168,346.931 655.08,347.289 654.807,348.722 654.807,350.511 
			654.807,351.495 654.989,353.197 655.256,354.539 655.792,355.61 655.883,355.791 658.03,355.699 657.581,355.61 656.598,354.627 
			656.33,353.912 656.151,352.481 656.062,350.511 656.062,348.9 656.33,347.289 656.686,346.216 656.957,345.859 658.03,345.32 		
			"/>
		<polygon id="_71398976" points="658.03,344.069 657.313,344.157 656.239,344.784 658.03,345.32 658.568,345.412 659.464,346.396 
			659.818,347.11 660,348.542 660.086,350.511 660,352.034 659.818,353.645 659.464,354.627 659.103,355.162 658.03,355.699 
			655.883,355.791 656.87,356.686 658.03,356.953 658.835,356.864 659.912,356.238 660.447,355.523 660.983,354.091 
			661.073,353.732 661.252,352.302 661.341,350.511 661.341,348.9 661.162,347.559 660.983,347.021 660.536,345.681 660.447,345.5 
			659.464,344.426 659.283,344.337 		"/>
		<polygon id="_71399784" points="663.488,344.604 663.309,344.872 662.953,346.307 662.953,346.663 663.488,348.006 
			663.667,348.186 664.83,348.722 665.097,348.633 666.172,348.006 664.83,347.737 664.024,347.289 663.667,346.307 
			664.024,345.232 664.83,344.784 		"/>
		<polygon id="_71401096" points="664.83,343.89 664.561,343.89 663.488,344.604 664.83,344.784 665.635,345.232 665.994,346.307 
			665.635,347.289 664.83,347.737 666.172,348.006 666.35,347.737 666.708,346.307 666.708,345.948 666.172,344.604 
			665.994,344.337 		"/>
		<polygon id="_71402408" points="526.775,133.719 525.7,134.525 525.7,136.047 525.79,135.957 526.955,135.241 527.133,135.062 
			528.116,134.167 		"/>
		<polygon id="_71403416" points="529.372,131.393 528.563,131.393 528.384,131.841 527.49,133.094 526.775,133.719 
			528.116,134.167 528.116,144.01 529.372,144.01 		"/>
		<polygon id="_71404424" points="538.227,132.377 535.901,132.646 536.168,132.646 537.245,133.273 537.423,133.452 
			537.78,134.794 537.78,135.241 537.245,136.673 536.976,137.12 536.168,138.104 535.006,139.357 534.203,140.251 533.395,141.326 
			533.127,141.684 532.591,142.936 532.413,144.01 539.124,144.01 539.124,142.578 534.11,142.578 534.65,141.684 535.006,141.326 
			536.08,140.163 536.168,139.983 537.245,138.82 537.959,137.925 538.138,137.657 538.856,136.404 539.035,134.883 538.856,133.63 
					"/>
		<polygon id="_71405624" points="535.901,131.393 534.65,131.572 533.663,132.289 532.948,133.452 532.68,135.062 533.931,135.151 
			533.931,134.615 534.471,133.362 534.739,133.094 535.901,132.646 538.227,132.377 537.245,131.572 		"/>
		<polygon id="_71406872" points="550.128,135.957 547.623,135.957 548.159,136.047 549.145,136.852 549.592,137.747 
			549.77,139.446 549.681,140.878 549.145,142.131 548.785,142.578 547.623,143.025 545.206,143.025 545.385,143.294 
			546.368,144.01 547.623,144.278 548.249,144.188 549.414,143.742 549.856,143.294 550.664,142.131 550.932,141.057 
			551.111,139.357 551.022,138.641 550.752,137.12 		"/>
		<polygon id="_71408008" points="547.623,134.704 546.368,134.973 545.385,135.688 544.849,136.404 544.402,137.747 
			544.221,139.446 544.221,140.341 544.577,141.862 545.206,143.025 547.623,143.025 547.087,142.936 546.1,142.131 
			545.653,141.146 545.473,139.446 545.653,138.104 546.1,136.852 546.458,136.404 547.623,135.957 550.128,135.957 
			549.949,135.688 548.874,134.973 		"/>
		<polygon id="_71409136" points="552.543,135.868 552.187,133.541 552.187,131.393 553.617,131.393 553.617,133.541 
			553.258,135.868 		"/>
		<polygon id="_71409944" points="559.966,140.699 559.966,141.146 559.344,142.399 559.344,142.489 558.178,143.025 
			555.763,143.025 555.943,143.205 556.925,144.01 558.178,144.278 559.164,144.1 560.239,143.384 560.775,142.399 561.221,140.878 
					"/>
		<polygon id="_71410992" points="555.943,135.688 555.228,136.941 554.959,137.925 554.87,139.536 554.87,140.341 555.137,141.862 
			555.763,143.025 558.178,143.025 557.729,142.936 556.658,142.131 556.301,141.146 556.122,139.446 556.21,138.015 
			556.747,136.762 557.107,136.404 558.269,135.957 		"/>
		<polygon id="_71412600" points="558.178,134.704 557.643,134.704 556.39,135.241 555.943,135.688 558.269,135.957 
			559.251,136.404 559.344,136.494 559.88,137.836 561.133,137.567 560.863,136.583 560.148,135.42 559.431,134.973 		"/>
		<polygon id="_71413648" points="562.297,144.01 562.297,131.393 563.458,131.393 563.458,144.01 		"/>
		<polygon id="_71414760" points="570.885,135.957 568.379,135.957 568.916,136.047 569.903,136.852 570.349,137.747 
			570.527,139.446 570.438,140.878 569.903,142.131 569.542,142.578 568.379,143.025 565.875,143.025 566.142,143.294 
			567.125,144.01 568.379,144.278 569.006,144.188 570.166,143.742 570.613,143.294 571.42,142.131 571.689,141.057 571.78,139.357 
			571.78,138.641 571.509,137.12 		"/>
		<polygon id="_71416144" points="568.379,134.704 567.125,134.973 566.053,135.688 565.606,136.404 565.071,137.747 
			564.978,139.446 564.978,140.341 565.338,141.862 565.875,143.025 568.379,143.025 567.839,142.936 566.861,142.131 
			566.412,141.146 566.233,139.446 566.321,138.104 566.861,136.852 567.215,136.404 568.379,135.957 570.885,135.957 
			570.613,135.688 569.63,134.973 		"/>
		<polygon id="_71417272" points="578.043,140.699 577.955,141.146 577.415,142.399 577.326,142.489 576.164,143.025 
			573.837,143.025 573.926,143.205 575.002,144.01 576.252,144.278 577.147,144.1 578.222,143.384 578.846,142.399 579.293,140.878 
					"/>
		<polygon id="_71418320" points="574.015,135.688 573.3,136.941 573.032,137.925 572.85,139.536 572.944,140.341 573.211,141.862 
			573.837,143.025 576.164,143.025 575.717,142.936 574.734,142.131 574.285,141.146 574.194,139.446 574.285,138.015 
			574.734,136.762 575.088,136.404 576.252,135.957 		"/>
		<polygon id="_71419928" points="576.252,134.704 575.628,134.704 574.461,135.241 574.015,135.688 576.252,135.957 
			577.326,136.404 577.326,136.494 577.955,137.836 579.117,137.567 578.937,136.583 578.134,135.42 577.507,134.973 		"/>
		<polygon id="_71420976" points="586.095,134.883 584.484,134.883 581.532,138.641 582.425,139.357 584.845,144.01 586.363,144.01 
			583.322,138.283 		"/>
		<polygon id="_71421944" points="581.532,131.393 580.37,131.393 580.37,144.01 581.532,144.01 581.532,140.431 582.425,139.357 
			581.532,138.641 		"/>
		<polygon id="_71422952" points="595.219,142.489 594.148,143.025 592.357,143.652 592.804,143.92 593.968,144.278 595.219,143.92 
			596.027,142.936 		"/>
		<polygon id="_71424192" points="593.968,134.704 593.433,134.704 592.268,135.331 591.91,135.688 591.195,137.031 
			591.016,137.925 590.834,139.446 590.927,140.521 591.286,141.952 591.553,142.578 592.357,143.652 594.148,143.025 
			593.701,142.936 592.717,142.131 592.268,141.146 592.089,139.446 592.268,138.015 592.717,136.852 592.986,136.494 
			594.059,135.957 595.938,135.957 595.13,135.062 		"/>
		<polygon id="_71425648" points="597.189,131.393 595.938,131.393 595.938,135.957 594.059,135.957 594.506,136.047 
			595.491,136.852 595.938,137.925 596.027,139.625 595.938,140.878 595.491,142.131 595.219,142.489 596.027,142.936 
			596.027,144.01 597.189,144.01 		"/>
		<polygon id="_71426960" points="600.41,134.883 599.157,134.883 599.157,144.01 600.41,144.01 		"/>
		<polygon id="_71427840" points="600.41,131.393 599.157,131.393 599.157,133.183 600.41,133.183 		"/>
		<polygon id="_71428928" points="603.364,134.883 602.289,134.883 602.289,144.01 603.543,144.01 603.543,139.267 603.543,138.999 
			603.723,137.478 604.169,136.583 604.882,136.314 603.364,136.314 		"/>
		<polygon id="_71429984" points="604.973,134.704 604.169,134.973 604.169,135.062 603.364,136.314 604.882,136.314 
			605.781,136.673 606.228,135.151 606.137,135.151 		"/>
		<polygon id="_71431152" points="611.952,141.146 611.952,141.326 611.237,142.578 610.073,143.025 607.479,143.025 
			607.747,143.294 608.818,144.01 610.073,144.278 611.055,144.1 612.131,143.473 612.757,142.757 613.293,141.326 		"/>
		<polygon id="_71432608" points="607.479,135.957 607.211,136.494 606.675,137.836 606.584,139.536 606.584,140.341 
			606.852,141.862 607.479,143.025 610.073,143.025 609.538,142.936 608.554,142.221 608.107,141.416 607.835,139.894 
			613.293,139.894 613.293,139.446 613.293,138.641 607.926,138.552 608.014,138.015 608.554,136.673 608.818,136.404 
			609.984,135.957 		"/>
		<polygon id="_71433728" points="609.984,134.704 609.625,134.704 608.461,135.062 607.479,135.957 609.984,135.957 
			610.52,136.047 611.504,136.852 611.684,137.031 612.042,138.552 607.926,138.552 613.293,138.641 613.026,137.12 
			612.399,135.957 612.22,135.778 611.237,134.973 		"/>
		<polygon id="_71435024" points="619.648,140.699 619.557,141.146 619.021,142.399 618.933,142.489 617.769,143.025 
			615.352,143.025 615.531,143.205 616.516,144.01 617.769,144.278 618.753,144.1 619.825,143.384 620.452,142.399 620.81,140.878 
					"/>
		<polygon id="_71436072" points="615.531,135.688 614.814,136.941 614.546,137.925 614.458,139.536 614.458,140.341 
			614.814,141.862 615.352,143.025 617.769,143.025 617.322,142.936 616.249,142.131 615.887,141.146 615.708,139.446 
			615.887,138.015 616.334,136.762 616.695,136.404 617.857,135.957 		"/>
		<polygon id="_71437680" points="617.769,134.704 617.231,134.704 616.067,135.241 615.531,135.688 617.857,135.957 
			618.933,136.404 618.933,136.494 619.468,137.836 620.723,137.567 620.452,136.583 619.737,135.42 619.021,134.973 		"/>
		<polygon id="_71438728" points="624.568,142.668 624.033,142.757 622.242,143.205 622.778,143.92 623.853,144.188 624.748,144.01 
					"/>
		<polygon id="_71439536" points="623.313,131.662 622.154,132.646 622.154,134.883 621.17,134.883 621.17,136.136 622.154,136.136 
			622.154,141.416 622.154,141.773 622.242,143.205 624.033,142.757 623.671,142.578 623.404,142.31 623.313,141.416 
			623.313,136.136 624.568,136.136 624.568,134.883 623.313,134.883 		"/>
		<polygon id="_71441128" points="627.074,134.883 625.819,134.883 625.819,144.01 627.074,144.01 		"/>
		<polygon id="_71442008" points="627.074,131.393 625.819,131.393 625.819,133.183 627.074,133.183 		"/>
		<polygon id="_71443208" points="634.411,135.957 631.906,135.957 632.441,136.047 633.424,136.852 633.871,137.747 
			634.054,139.446 633.961,140.878 633.424,142.131 633.068,142.578 631.906,143.025 629.4,143.025 629.667,143.294 630.651,144.01 
			631.906,144.278 632.532,144.188 633.694,143.742 634.143,143.294 634.947,142.131 635.216,141.057 635.305,139.357 
			635.305,138.641 635.038,137.12 		"/>
		<polygon id="_71444592" points="631.906,134.704 630.651,134.973 629.58,135.688 629.132,136.404 628.592,137.747 
			628.503,139.446 628.503,140.341 628.865,141.862 629.4,143.025 631.906,143.025 631.37,142.936 630.382,142.131 629.936,141.146 
			629.756,139.446 629.847,138.104 630.382,136.852 630.741,136.404 631.906,135.957 634.411,135.957 634.143,135.688 
			633.159,134.973 		"/>
		<polygon id="_71445720" points="642.284,135.778 639.958,136.047 640.852,136.314 641.387,137.031 641.481,138.462 
			641.481,144.01 642.731,144.01 642.731,138.462 642.64,136.941 		"/>
		<polygon id="_71446528" points="637.899,134.883 636.824,134.883 636.824,144.01 637.988,144.01 637.988,139.088 638.167,137.836 
			638.614,136.673 638.793,136.494 637.899,136.226 		"/>
		<polygon id="_71447544" points="640.225,134.704 639.867,134.704 638.793,135.151 637.899,136.226 638.793,136.494 
			639.958,136.047 642.284,135.778 641.481,134.973 		"/>
		<polygon id="_71448720" points="532.233,159.042 530.978,159.667 530.801,161.636 530.443,163.067 529.818,163.962 
			528.919,164.229 527.133,164.768 527.937,165.394 528.919,165.572 529.996,165.394 530.801,164.768 531.425,163.872 
			531.875,162.619 532.145,161.009 		"/>
		<polygon id="_71449784" points="530.801,153.225 528.919,153.762 529.372,153.852 530.354,154.746 530.531,155.104 
			530.801,156.446 530.978,158.415 526.955,158.415 525.7,159.042 525.79,161.009 526.058,162.619 526.507,163.872 527.133,164.768 
			528.919,164.229 528.116,163.962 527.49,163.067 527.133,161.636 526.955,159.667 530.978,159.667 532.233,159.042 
			532.145,156.983 531.875,155.373 531.425,154.12 		"/>
		<polygon id="_71451264" points="528.919,152.509 527.937,152.688 527.133,153.225 526.507,154.12 526.058,155.373 525.79,156.983 
			525.7,159.042 526.955,158.415 527.133,156.356 527.49,154.926 528.116,154.03 528.919,153.762 530.801,153.225 529.996,152.688 
					"/>
		<polygon id="_71452576" points="533.575,167.361 533.756,168.883 534.559,169.062 535.544,168.704 536.348,167.541 
			534.292,167.541 		"/>
		<polygon id="_71453384" points="534.471,156.178 533.127,156.178 535.901,165.304 536.529,163.604 536.348,162.978 
			535.989,161.456 		"/>
		<polygon id="_71454192" points="539.838,156.178 538.585,156.178 536.976,161.546 536.885,162.083 536.529,163.604 
			535.901,165.304 535.81,165.751 535.363,166.914 535.006,167.361 534.292,167.541 536.348,167.541 536.529,167.094 
			537.065,165.483 		"/>
		<polygon id="_71455456" points="548.605,154.926 547.35,154.926 547.35,158.415 544.67,158.415 544.67,159.846 547.35,159.846 
			547.35,163.246 548.605,163.246 548.605,159.846 551.291,159.846 551.291,158.415 548.605,158.415 		"/>
		<polygon id="_71456704" points="563.458,160.293 556.836,160.293 556.836,161.725 563.458,161.725 		"/>
		<polygon id="_71457584" points="563.458,156.446 556.836,156.446 556.836,157.878 563.458,157.878 		"/>
		<polygon id="_71458552" points="570.166,162.262 568.916,162.44 569.183,163.515 569.903,164.678 571.78,164.229 570.706,163.783 
			570.613,163.692 		"/>
		<polygon id="_71091800" points="573.211,159.219 572.047,159.667 569.63,159.935 570.527,160.74 571.78,161.009 571.957,161.009 
			573.119,160.562 573.3,160.472 574.194,159.398 		"/>
		<polygon id="_71092608" points="569.723,153.852 569.542,154.03 568.916,155.283 568.736,156.894 568.736,157.162 
			569.006,158.683 569.63,159.935 572.047,159.667 571.689,159.667 570.613,158.952 570.349,158.415 570.078,156.983 
			570.078,156.089 570.613,154.746 570.974,154.389 572.135,153.941 		"/>
		<polygon id="_71093896" points="571.957,152.599 571.868,152.599 570.706,152.957 569.723,153.852 572.135,153.941 
			572.404,153.941 573.479,154.746 573.747,155.283 574.015,156.804 574.015,157.609 573.479,158.952 573.211,159.219 
			574.194,159.398 574.194,159.667 574.194,160.025 574.015,161.546 574.015,161.636 573.568,163.067 572.85,163.962 
			571.78,164.229 569.903,164.678 570.527,165.214 571.78,165.572 572.671,165.394 573.747,164.768 574.374,164.051 
			575.002,162.619 575.181,161.993 575.356,160.562 575.445,158.773 575.445,158.146 575.27,156.446 575.002,155.193 
			574.641,154.389 573.747,153.314 573.119,152.957 		"/>
		<polygon id="_71095568" points="578.043,153.404 577.594,154.03 576.972,155.462 576.879,155.91 576.7,157.341 576.611,159.13 
			576.611,160.025 576.791,161.725 577.147,163.156 577.594,164.229 577.775,164.409 579.92,164.229 579.384,164.141 
			578.491,163.246 578.222,162.53 577.955,161.098 577.864,159.13 577.955,157.431 578.134,155.91 578.491,154.836 578.846,154.478 
			579.92,153.941 		"/>
		<polygon id="_71097024" points="579.92,152.599 579.117,152.778 578.043,153.404 579.92,153.941 580.37,154.03 581.352,154.926 
			581.62,155.641 581.888,157.073 581.888,159.13 581.888,160.651 581.71,162.172 581.352,163.246 580.996,163.783 579.92,164.229 
			577.775,164.409 578.669,165.214 579.92,165.572 580.728,165.394 581.71,164.768 582.247,164.141 582.875,162.709 
			582.961,162.262 583.143,160.83 583.229,159.13 583.143,157.431 582.961,156.089 582.875,155.641 582.334,154.209 582.247,154.03 
			581.352,153.046 581.172,152.957 		"/>
		<polygon id="_71098232" points="585.288,153.136 585.108,153.404 584.751,154.836 584.751,155.193 585.288,156.535 
			585.555,156.804 586.631,157.252 586.99,157.252 588.061,156.535 586.719,156.356 585.828,155.91 585.555,154.836 
			585.828,153.852 586.719,153.404 		"/>
		<polygon id="_71099544" points="586.631,152.509 586.363,152.509 585.288,153.136 586.719,153.404 587.525,153.852 
			587.793,154.836 587.525,155.91 586.719,156.356 588.061,156.535 588.243,156.268 588.601,154.836 588.601,154.478 
			588.061,153.136 587.793,152.957 		"/>
		<polygon id="_71100856" points="107.866,307.476 105.452,307.743 105.899,307.743 106.884,308.46 107.152,308.996 
			107.419,310.517 107.419,311.413 106.884,312.665 106.614,312.934 105.542,313.47 103.305,313.737 104.377,314.454 
			105.542,314.722 106.078,314.722 107.152,314.186 107.599,313.916 108.313,312.665 108.492,311.948 108.761,310.428 
			108.761,310.249 108.492,308.729 		"/>
		<polygon id="_71101984" points="105.719,306.312 105.542,306.312 104.377,306.76 104.199,306.938 103.305,308.012 104.377,308.19 
			105.452,307.743 107.866,307.476 106.972,306.67 		"/>
		<polygon id="_71103000" points="107.599,302.644 105.63,303.091 105.809,303.091 106.884,303.807 107.332,305.149 108.583,304.97 
			108.313,303.896 		"/>
		<polygon id="_71104008" points="105.719,301.838 105.183,301.928 104.02,302.375 103.125,303.271 102.768,303.896 102.41,305.149 
			102.14,306.76 102.052,308.639 102.052,308.996 102.229,310.787 102.499,312.218 103.035,313.29 103.305,313.737 105.542,313.47 
			104.557,313.111 103.751,311.948 103.483,310.428 103.572,309.802 104.11,308.46 104.377,308.19 103.305,308.012 103.394,306.402 
			103.662,305.06 103.751,304.702 104.557,303.538 105.63,303.091 107.599,302.644 106.884,302.105 		"/>
		<polygon id="_71105200" points="119.677,306.402 117.172,306.49 117.71,306.58 118.694,307.296 119.141,308.281 119.319,309.892 
			119.23,311.322 118.694,312.575 118.335,313.022 117.172,313.47 114.756,313.47 114.934,313.737 115.918,314.454 117.172,314.722 
			117.799,314.722 118.961,314.186 119.409,313.828 120.213,312.575 120.483,311.502 120.661,309.802 120.572,309.086 
			120.303,307.564 		"/>
		<polygon id="_71106656" points="117.172,305.149 115.918,305.417 114.934,306.223 114.398,306.938 113.952,308.281 
			113.772,309.981 113.772,310.875 114.129,312.308 114.756,313.47 117.172,313.47 116.635,313.381 115.651,312.575 
			115.204,311.591 115.024,309.981 115.204,308.549 115.651,307.296 116.009,306.849 117.172,306.49 119.677,306.402 119.5,306.134 
			118.425,305.417 		"/>
		<polygon id="_71107784" points="122.092,306.402 121.736,303.985 121.736,301.928 123.167,301.928 123.167,303.985 
			122.808,306.402 		"/>
		<polygon id="_71108592" points="129.518,311.145 129.518,311.591 128.892,312.934 128.892,313.022 127.729,313.47 125.314,313.47 
			125.493,313.737 126.477,314.454 127.729,314.722 128.713,314.543 129.786,313.828 130.323,312.934 130.771,311.413 		"/>
		<polygon id="_71110312" points="125.493,306.134 124.777,307.386 124.509,308.37 124.419,309.981 124.419,310.787 
			124.687,312.308 125.314,313.47 127.729,313.47 127.191,313.381 126.209,312.665 125.851,311.681 125.672,309.981 
			125.761,308.549 126.209,307.296 126.657,306.849 127.729,306.49 		"/>
		<polygon id="_71111120" points="127.729,305.149 127.104,305.237 125.939,305.686 125.493,306.134 127.729,306.49 
			128.803,306.938 128.892,306.938 129.428,308.281 130.681,308.102 130.413,307.117 129.697,305.955 128.981,305.417 		"/>
		<polygon id="_71112368" points="131.756,314.543 131.756,301.928 133.007,301.928 133.007,314.543 		"/>
		<polygon id="_71113480" points="140.433,306.402 137.928,306.49 138.466,306.58 139.45,307.296 139.898,308.281 140.075,309.892 
			139.986,311.322 139.45,312.575 139.091,313.022 137.928,313.47 135.424,313.47 135.69,313.737 136.676,314.454 137.928,314.722 
			138.555,314.722 139.718,314.186 140.166,313.828 140.97,312.575 141.238,311.502 141.328,309.802 141.328,309.086 
			141.061,307.564 		"/>
		<polygon id="_71114864" points="137.928,305.149 136.676,305.417 135.602,306.223 135.065,306.938 134.618,308.281 
			134.53,309.981 134.53,310.875 134.797,312.308 135.424,313.47 137.928,313.47 137.391,313.381 136.408,312.575 135.96,311.591 
			135.781,309.981 135.871,308.549 136.408,307.296 136.766,306.849 137.928,306.49 140.433,306.402 140.166,306.134 
			139.181,305.417 		"/>
		<polygon id="_71116272" points="147.592,311.145 147.502,311.591 146.965,312.934 146.876,313.022 145.713,313.47 143.387,313.47 
			143.476,313.737 144.55,314.454 145.802,314.722 146.698,314.543 147.772,313.828 148.396,312.934 148.844,311.413 		"/>
		<polygon id="_71117320" points="143.565,306.134 142.85,307.386 142.581,308.37 142.403,309.981 142.492,310.787 142.761,312.308 
			143.387,313.47 145.713,313.47 145.265,313.381 144.281,312.665 143.834,311.681 143.745,309.981 143.834,308.549 
			144.281,307.296 144.639,306.849 145.802,306.49 		"/>
		<polygon id="_71118648" points="145.802,305.149 145.175,305.237 144.012,305.686 143.565,306.134 145.802,306.49 
			146.876,306.938 147.502,308.281 148.665,308.102 148.396,307.117 147.682,305.955 147.055,305.417 		"/>
		<polygon id="_71119456" points="155.645,305.417 154.033,305.417 151.08,309.086 151.975,309.892 154.392,314.543 
			155.912,314.543 152.87,308.816 		"/>
		<polygon id="_71120424" points="151.08,301.928 149.829,301.928 149.829,314.543 151.08,314.543 151.08,310.875 151.975,309.892 
			151.08,309.086 		"/>
		<polygon id="_71121432" points="108.672,329.485 107.332,330.111 107.242,332.17 106.794,333.601 106.167,334.496 
			105.361,334.764 103.483,335.302 104.377,335.838 105.361,336.017 106.347,335.838 107.152,335.302 107.778,334.406 
			108.313,333.152 108.583,331.454 		"/>
		<polygon id="_71122984" points="107.152,323.67 105.361,324.206 105.719,324.297 106.705,325.191 106.884,325.55 107.242,326.891 
			107.332,328.858 103.305,328.858 102.052,329.485 102.14,331.454 102.41,333.152 102.857,334.406 103.483,335.302 
			105.361,334.764 104.467,334.406 103.841,333.601 103.483,332.17 103.305,330.111 107.332,330.111 108.672,329.485 
			108.583,327.517 108.313,325.906 107.778,324.564 		"/>
		<polygon id="_71124464" points="105.361,322.953 104.377,323.133 103.483,323.67 102.857,324.564 102.41,325.906 102.14,327.517 
			102.052,329.485 103.305,328.858 103.483,326.891 103.841,325.37 104.467,324.564 105.361,324.206 107.152,323.67 
			106.347,323.133 		"/>
		<polygon id="_71125528" points="110.015,337.895 110.103,339.329 110.909,339.505 111.982,339.148 112.698,338.075 
			110.73,337.986 		"/>
		<polygon id="_71126336" points="110.82,326.623 109.478,326.623 112.25,335.838 112.877,334.049 112.787,333.423 112.34,331.99 		
			"/>
		<polygon id="_71127144" points="116.188,326.623 114.934,326.623 113.414,331.99 113.235,332.527 112.877,334.049 112.25,335.838 
			112.162,336.196 111.803,337.359 111.356,337.808 110.73,337.986 112.698,338.075 112.877,337.627 113.414,335.929 		"/>
		<polygon id="_71128440" points="120.661,331.99 120.661,330.47 124.509,330.47 124.509,331.99 		"/>
		<polygon id="_71129320" points="136.318,330.738 129.697,330.738 129.697,332.259 136.318,332.259 		"/>
		<polygon id="_71130456" points="136.318,326.891 129.697,326.891 129.697,328.412 136.318,328.412 		"/>
		<polygon id="_71131592" points="143.028,332.707 141.776,332.885 142.045,334.049 142.67,335.213 144.639,334.764 
			143.565,334.317 143.476,334.138 		"/>
		<polygon id="_71132872" points="146.07,329.664 144.907,330.111 142.492,330.379 143.387,331.185 144.639,331.544 
			144.818,331.544 145.982,331.096 146.16,330.917 147.055,329.843 		"/>
		<polygon id="_71134032" points="142.492,324.297 142.403,324.476 141.776,325.817 141.598,327.427 141.598,327.606 
			141.865,329.127 142.492,330.379 144.907,330.111 144.55,330.111 143.476,329.396 143.208,328.948 142.85,327.427 
			142.939,326.532 143.476,325.279 143.834,324.833 144.907,324.386 		"/>
		<polygon id="_71135872" points="144.818,323.133 144.729,323.133 143.476,323.401 142.492,324.297 144.907,324.386 
			145.265,324.476 146.34,325.191 146.607,325.728 146.876,327.338 146.788,328.053 146.34,329.396 146.07,329.664 147.055,329.843 
			147.055,330.201 147.055,330.559 146.876,332.079 146.34,333.512 145.713,334.406 144.639,334.764 142.67,335.213 
			143.387,335.749 144.639,336.017 145.535,335.929 146.607,335.302 147.234,334.496 147.86,333.064 147.95,332.527 
			148.218,331.006 148.218,329.218 148.218,328.591 148.129,326.98 147.86,325.639 147.502,324.833 146.607,323.759 
			145.982,323.401 		"/>
		<polygon id="_71137944" points="150.902,323.849 150.455,324.564 149.829,325.997 149.738,326.354 149.56,327.785 
			149.472,329.575 149.472,330.559 149.649,332.259 150.007,333.601 150.455,334.676 150.543,334.854 152.78,334.764 
			152.243,334.676 151.349,333.69 151.08,332.975 150.813,331.544 150.723,329.575 150.813,327.965 150.991,326.354 
			151.349,325.279 151.618,324.922 152.78,324.386 		"/>
		<polygon id="_71139400" points="152.78,323.133 151.975,323.223 150.902,323.849 152.78,324.386 153.228,324.476 154.213,325.459 
			154.48,326.175 154.66,327.606 154.75,329.575 154.75,331.096 154.569,332.707 154.213,333.69 153.855,334.228 152.78,334.764 
			150.543,334.854 151.528,335.749 152.78,336.017 153.497,335.929 154.569,335.302 155.107,334.585 155.645,333.152 
			155.822,332.796 156.002,331.364 156.092,329.575 156.002,327.965 155.822,326.623 155.733,326.085 155.197,324.744 
			155.107,324.564 154.213,323.491 154.033,323.401 		"/>
		<polygon id="_71140208" points="158.15,323.67 157.97,323.938 157.612,325.37 157.612,325.728 158.15,327.07 158.417,327.247 
			159.492,327.785 159.849,327.694 160.834,327.07 159.492,326.803 158.687,326.354 158.329,325.37 158.687,324.297 
			159.492,323.849 		"/>
		<polygon id="_71141488" points="159.492,322.953 159.223,322.953 158.15,323.67 159.492,323.849 160.387,324.297 160.655,325.37 
			160.387,326.354 159.492,326.803 160.834,327.07 161.102,326.803 161.46,325.37 161.46,325.012 160.834,323.67 160.655,323.401 		
			"/>
		<polygon id="_71142800" points="332.888,20 331.544,20 331.544,29.933 331.457,32.617 332.888,32.617 		"/>
		<polygon id="_71143608" points="326.267,20 324.924,20 324.924,32.617 326.177,32.617 326.177,22.685 		"/>
		<polygon id="_71144584" points="326.267,20 326.177,22.685 331.457,32.617 331.544,29.933 		"/>
		<polygon id="_71145632" points="340.404,24.564 337.899,24.564 338.436,24.653 339.42,25.458 339.867,26.354 340.046,28.054 
			339.957,29.485 339.42,30.738 339.061,31.185 337.899,31.633 335.394,31.633 335.662,31.901 336.647,32.617 337.899,32.885 
			338.525,32.796 339.689,32.259 340.136,31.901 340.942,30.738 341.208,29.665 341.297,27.964 341.297,27.248 341.032,25.727 		"/>
		<polygon id="_71147016" points="337.899,23.311 336.647,23.58 335.572,24.295 335.124,25.011 334.588,26.354 334.5,28.054 
			334.5,28.949 334.857,30.47 335.394,31.633 337.899,31.633 337.362,31.543 336.376,30.738 335.929,29.754 335.752,28.054 
			335.841,26.711 336.376,25.458 336.735,25.011 337.899,24.564 340.404,24.564 340.136,24.295 339.152,23.58 		"/>
		<polygon id="_71148544" points="343.894,23.49 342.731,23.49 342.731,32.617 343.983,32.617 343.983,27.875 343.983,27.606 
			344.25,26.085 344.699,25.19 345.414,24.922 343.894,24.922 		"/>
		<polygon id="_71149672" points="345.504,23.311 344.699,23.58 344.61,23.669 343.894,24.922 345.414,24.922 346.308,25.28 
			346.756,23.759 346.667,23.759 		"/>
		<polygon id="_71151048" points="356.778,24.027 354.897,24.653 355.616,24.922 356.062,25.548 356.151,26.89 356.151,32.617 
			357.403,32.617 357.403,26.354 357.315,25.28 		"/>
		<polygon id="_71152232" points="349.53,23.759 348.634,24.832 349.53,25.011 350.513,24.653 		"/>
		<polygon id="_71153112" points="348.634,23.49 347.472,23.49 347.472,32.617 348.723,32.617 348.723,27.875 348.723,27.428 
			348.906,25.996 349.53,25.011 348.634,24.832 		"/>
		<polygon id="_71154440" points="355.168,23.311 354.809,23.311 353.737,23.759 352.842,24.922 353.737,25.101 354.897,24.653 
			356.778,24.027 356.331,23.669 		"/>
		<polygon id="_71155816" points="350.784,23.311 350.693,23.311 349.53,23.669 349.53,23.759 350.513,24.653 351.5,25.19 
			351.586,25.19 351.856,26.711 351.856,32.617 353.11,32.617 353.11,27.338 353.11,26.533 353.557,25.28 353.737,25.101 
			352.842,24.922 352.124,23.759 352.035,23.669 		"/>
		<polygon id="_71156624" points="362.862,31.275 361.61,31.633 359.459,32.081 360,32.617 361.339,32.885 361.43,32.885 
			362.681,32.528 362.953,32.438 364.024,31.543 		"/>
		<polygon id="_71157856" points="360.625,27.606 359.728,28.144 359.105,29.038 358.833,30.201 358.833,30.828 359.459,32.081 
			361.61,31.633 360.536,31.275 360.176,30.201 360.356,29.485 360.803,28.949 361.877,28.68 362.862,28.411 363.935,28.054 		"/>
		<polygon id="_71159384" points="359.553,24.564 359.459,24.653 359.013,26.085 360.268,26.354 360.268,26.264 360.894,24.922 
			362.146,24.564 		"/>
		<polygon id="_71160392" points="362.327,23.311 361.877,23.311 360.715,23.58 360.536,23.669 359.553,24.564 362.146,24.564 
			362.505,24.564 363.577,25.101 363.935,26.443 363.935,26.89 363.129,27.069 361.698,27.338 360.625,27.606 363.935,28.054 
			363.935,28.591 363.935,28.68 363.756,30.201 362.862,31.275 364.024,31.543 364.292,32.617 365.546,32.617 365.276,31.543 
			365.188,30.828 365.188,28.859 365.188,26.711 365.099,25.28 364.74,24.295 363.844,23.58 363.577,23.49 		"/>
		<polygon id="_71161592" points="367.065,32.617 367.065,20 368.32,20 368.32,32.617 		"/>
		<polygon id="_71162632" points="322.601,47.647 321.257,48.273 321.168,50.242 320.72,51.674 320.093,52.569 319.288,52.837 
			317.41,53.374 318.216,53.911 319.288,54.179 320.272,54 321.078,53.374 321.705,52.479 322.153,51.227 322.51,49.616 		"/>
		<polygon id="_71163872" points="321.078,41.833 319.288,42.369 319.646,42.459 320.63,43.353 320.81,43.711 321.168,45.054 
			321.257,47.022 317.231,47.022 315.979,47.647 316.067,49.616 316.336,51.227 316.784,52.479 317.41,53.374 319.288,52.837 
			318.393,52.569 317.768,51.674 317.41,50.242 317.231,48.273 321.257,48.273 322.601,47.647 322.51,45.59 322.153,43.979 
			321.705,42.727 		"/>
		<polygon id="_71165352" points="319.288,41.117 318.304,41.296 317.41,41.833 316.784,42.727 316.336,43.979 316.067,45.59 
			315.979,47.647 317.231,47.022 317.41,44.964 317.768,43.532 318.393,42.638 319.288,42.369 321.078,41.833 320.272,41.296 		"/>
		<polygon id="_71166664" points="326,49.169 323.316,53.911 324.836,53.911 326.715,50.332 		"/>
		<polygon id="_71167832" points="325.014,44.785 323.495,44.785 326,49.169 326.715,50.332 327.073,51.047 328.594,53.911 
			330.115,53.911 327.431,49.079 326.715,47.916 326.177,46.933 		"/>
		<polygon id="_71168888" points="329.937,44.785 328.503,44.785 327.253,46.933 326.715,47.916 327.431,49.079 		"/>
		<polygon id="_71169864" points="341.657,48.9 334.947,48.9 334.947,50.332 341.657,50.332 		"/>
		<polygon id="_71171072" points="341.657,45.054 334.947,45.054 334.947,46.485 341.657,46.485 		"/>
		<polygon id="_71172368" points="353.557,47.647 352.303,48.273 352.124,50.242 351.767,51.674 351.14,52.569 350.246,52.837 
			348.458,53.374 349.262,53.911 350.246,54.179 351.228,54 352.124,53.374 352.751,52.479 353.198,51.227 353.466,49.616 		"/>
		<polygon id="_71173608" points="352.124,41.833 350.246,42.369 350.693,42.459 351.675,43.353 351.767,43.711 352.124,45.054 
			352.303,47.022 348.278,47.022 346.937,47.647 347.024,49.616 347.292,51.227 347.74,52.479 348.458,53.374 350.246,52.837 
			349.442,52.569 348.814,51.674 348.367,50.242 348.278,48.273 352.303,48.273 353.557,47.647 353.466,45.59 353.198,43.979 
			352.751,42.727 		"/>
		<polygon id="_71175088" points="350.246,41.117 349.262,41.296 348.458,41.833 347.74,42.727 347.292,43.979 347.024,45.59 
			346.937,47.647 348.278,47.022 348.367,44.964 348.814,43.532 349.354,42.638 350.246,42.369 352.124,41.833 351.228,41.296 		"/>
		<polygon id="_71176400" points="354.897,55.969 355.08,57.49 355.883,57.669 356.867,57.311 357.583,56.148 355.616,56.148 		"/>
		<polygon id="_71177568" points="355.704,44.785 354.362,44.785 357.134,53.911 357.762,52.211 357.673,51.585 357.227,50.063 		
			"/>
		<polygon id="_71178736" points="361.071,44.785 359.908,44.785 358.297,50.153 358.121,50.69 357.762,52.211 357.134,53.911 
			357.047,54.358 356.691,55.521 356.243,55.969 355.616,56.148 357.583,56.148 357.762,55.701 358.297,54.09 		"/>
		<polygon id="_71180000" points="372.616,48.9 365.903,48.9 365.903,50.332 372.616,50.332 		"/>
		<polygon id="_71181048" points="372.616,45.054 365.903,45.054 365.903,46.485 372.616,46.485 		"/>
		<polygon id="_71182184" points="379.326,42.011 378.877,42.638 378.251,44.069 378.16,44.516 377.984,45.948 377.895,47.737 
			377.895,48.632 378.072,50.332 378.43,51.764 378.877,52.837 379.055,53.016 381.204,52.837 380.665,52.748 379.77,51.853 
			379.501,51.137 379.234,49.706 379.145,47.737 379.234,46.038 379.414,44.516 379.77,43.443 380.129,42.996 381.204,42.548 		"/>
		<polygon id="_71183880" points="381.204,41.206 380.397,41.385 379.326,42.011 381.204,42.548 381.651,42.638 382.635,43.532 
			382.903,44.249 383.174,45.68 383.174,47.737 383.174,49.258 382.995,50.78 382.635,51.853 382.279,52.39 381.204,52.837 
			379.055,53.016 379.949,53.821 381.204,54.179 382.007,54 382.995,53.374 383.53,52.748 384.157,51.316 384.245,50.869 
			384.424,49.437 384.513,47.737 384.424,46.038 384.245,44.696 384.157,44.249 383.621,42.816 383.53,42.638 382.635,41.653 
			382.455,41.563 		"/>
		<polygon id="_71185664" points="386.572,41.743 386.392,42.011 386.036,43.443 386.036,43.801 386.572,45.143 386.839,45.412 
			387.914,45.859 388.27,45.859 389.344,45.143 388.002,44.964 387.107,44.516 386.839,43.443 387.107,42.459 388.002,42.011 		"/>
		<polygon id="_71186720" points="387.914,41.117 387.646,41.117 386.572,41.743 388.002,42.011 388.809,42.459 389.077,43.443 
			388.809,44.516 388.002,44.964 389.344,45.143 389.524,44.875 389.883,43.443 389.883,43.085 389.344,41.743 389.077,41.563 		"/>
		<polyline id="_71188032" fill="none" stroke="#000000" stroke-width="0.5" points="409.298,154.478 396.773,147.23 
			383.351,141.594 369.302,137.747 354.897,135.868 		"/>
		<polygon id="_71189080" points="410.102,153.494 408.583,155.552 415.469,158.952 		"/>
		<polygon id="_71189976" fill="none" stroke="#000000" stroke-width="0.5" points="410.102,153.494 408.583,155.552 
			415.469,158.952 		"/>
		<polygon id="_71190944" points="354.809,137.12 354.897,134.615 347.292,135.599 		"/>
		<polygon id="_71191912" fill="none" stroke="#000000" stroke-width="0.5" points="354.809,137.12 354.897,134.615 
			347.292,135.599 		"/>
		<polygon id="_71193040" points="385.409,123.521 383.977,123.699 383.174,125.488 382.279,126.742 381.472,127.368 
			380.578,127.368 378.608,127.278 379.234,127.994 380.129,128.531 381.113,128.71 382.099,128.442 382.995,127.815 
			383.798,126.831 384.692,125.31 		"/>
		<polygon id="_71194592" points="385.945,117.525 384.066,117.436 384.424,117.615 385.048,118.868 385.048,119.225 
			384.96,120.567 384.424,122.447 380.578,121.104 379.234,121.284 378.608,123.162 378.34,124.863 378.34,126.205 378.608,127.278 
			380.578,127.368 379.862,126.742 379.501,125.757 379.681,124.236 380.217,122.268 383.977,123.699 385.409,123.521 
			386.036,121.642 386.303,119.941 386.303,118.599 		"/>
		<polygon id="_71196072" points="384.513,116.273 383.53,116.094 382.547,116.273 381.651,116.989 380.756,117.973 
			379.949,119.404 379.234,121.284 380.578,121.104 381.472,119.315 382.279,118.062 383.174,117.436 384.066,117.436 
			385.945,117.525 385.409,116.721 		"/>
		<polygon id="_71197384" points="383.886,131.841 383.53,133.273 384.245,133.719 385.321,133.719 386.392,132.915 
			384.513,132.199 		"/>
		<polygon id="_71198552" points="388.451,121.551 387.198,121.104 386.66,130.678 387.822,129.247 387.914,128.621 
			388.094,127.099 		"/>
		<polygon id="_71199720" points="393.461,123.341 392.297,122.983 389.077,127.457 388.718,127.905 387.822,129.247 
			386.66,130.678 386.481,131.037 385.679,131.93 385.14,132.289 384.513,132.199 386.392,132.915 386.66,132.557 387.735,131.214 
					"/>
		<polygon id="_71200776" points="402.14,125.131 401.067,124.773 399.903,127.994 397.308,127.099 396.773,128.442 
			399.367,129.336 398.205,132.646 399.367,133.004 400.527,129.784 403.124,130.678 403.573,129.336 400.974,128.352 		"/>
		<polyline id="_71202024" fill="none" stroke="#000000" stroke-width="0.5" points="339.689,135.42 329.58,136.583 
			319.557,138.731 309.805,141.684 300.41,145.53 291.285,150.272 282.694,155.73 274.643,162.083 267.216,169.062 260.506,176.667 
			254.422,184.899 249.143,193.666 244.669,202.882 241.089,212.456 238.405,222.299 236.616,232.318 235.721,242.519 		"/>
		<polygon id="_71203864" points="339.689,134.167 339.778,136.673 347.292,135.241 		"/>
		<polygon id="_71204832" fill="none" stroke="#000000" stroke-width="0.5" points="339.689,134.167 339.778,136.673 
			347.292,135.241 		"/>
		<polygon id="_71205952" points="236.975,242.519 234.468,242.519 235.721,250.124 		"/>
		<polygon id="_71207072" fill="none" stroke="#000000" stroke-width="0.5" points="236.975,242.519 234.468,242.519 
			235.721,250.124 		"/>
		<polygon id="_71208192" points="311.862,122.357 310.789,123.252 311.148,125.22 311.148,126.742 310.7,127.726 309.983,128.173 
			308.283,129.157 309.268,129.516 310.252,129.426 311.148,129.068 311.862,128.352 312.22,127.278 312.4,125.936 312.309,124.326 
					"/>
		<polygon id="_71209504" points="309.088,117.079 307.388,118.062 307.835,117.973 309,118.599 309.268,118.957 309.894,120.12 
			310.52,121.999 306.583,122.983 305.51,123.878 306.046,125.847 306.673,127.368 307.478,128.442 308.283,129.157 
			309.983,128.173 309.983,128.262 309.088,128.173 308.283,127.457 307.478,126.115 306.851,124.236 310.789,123.252 
			311.862,122.357 311.325,120.389 310.7,118.868 309.894,117.794 		"/>
		<polygon id="_71211328" points="307.121,116.811 306.226,117.167 305.51,117.883 305.151,118.957 304.973,120.299 305.151,121.91 
			305.51,123.878 306.583,122.983 306.226,121.015 306.315,119.494 306.673,118.51 307.388,118.062 309.088,117.079 
			308.194,116.721 		"/>
		<polygon id="_71212640" points="315.262,130.142 315.709,131.572 316.515,131.483 317.41,130.947 317.856,129.694 
			315.979,130.142 		"/>
		<polygon id="_71213960" points="313.384,119.046 312.042,119.404 316.962,127.636 317.141,125.757 316.784,125.22 
			316.067,123.878 		"/>
		<polygon id="_71215128" points="318.573,117.794 317.32,118.062 317.141,123.61 317.051,124.236 317.141,125.757 316.962,127.636 
			316.873,127.994 316.784,129.247 316.515,129.784 315.979,130.142 317.856,129.694 317.946,129.247 318.035,127.457 		"/>
		<polygon id="_71216176" points="324.209,121.91 323.852,120.389 327.521,119.494 327.879,121.015 		"/>
		<line id="_71217224" fill="none" stroke="#000000" stroke-width="0.5" x1="395.251" y1="239.209" x2="394.356" y2="235.718"/>
		<polyline id="_71218240" fill="none" stroke="#000000" stroke-width="0.5" points="393.374,231.692 393.102,230.798 
			391.759,227.935 		"/>
		<polyline id="_71219048" fill="none" stroke="#000000" stroke-width="0.5" points="390.06,224.177 389.524,222.834 
			387.914,220.598 		"/>
		<polyline id="_71220008" fill="none" stroke="#000000" stroke-width="0.5" points="385.588,217.196 384.513,215.766 
			382.903,214.067 		"/>
		<polyline id="_71220968" fill="none" stroke="#000000" stroke-width="0.5" points="379.949,211.203 378.34,209.593 
			376.819,208.52 		"/>
		<polyline id="_71221928" fill="none" stroke="#000000" stroke-width="0.5" points="373.419,206.192 371.184,204.671 
			369.931,204.045 		"/>
		<polyline id="_71222888" fill="none" stroke="#000000" stroke-width="0.5" points="366.17,202.345 363.309,201.004 
			362.327,200.824 		"/>
		<line id="_71223848" fill="none" stroke="#000000" stroke-width="0.5" x1="358.386" y1="199.841" x2="354.897" y2="198.945"/>
		<polygon id="_71224936" points="396.502,239.118 393.998,239.297 395.878,246.723 		"/>
		<polygon id="_71226056" fill="none" stroke="#000000" stroke-width="0.5" points="396.502,239.118 393.998,239.297 
			395.878,246.723 		"/>
		<polygon id="_71227176" points="354.721,200.198 354.989,197.692 347.292,198.318 		"/>
		<polygon id="_71228296" fill="none" stroke="#000000" stroke-width="0.5" points="354.721,200.198 354.989,197.692 
			347.292,198.318 		"/>
		<polygon id="_71229576" points="391.671,203.956 390.6,203.508 389.256,204.403 388.183,204.851 387.287,204.94 386.75,204.492 
			385.497,203.598 385.497,204.403 385.945,205.118 386.572,205.656 387.287,205.924 388.183,205.924 389.166,205.565 
			390.328,204.851 		"/>
		<polygon id="_71231128" points="394.535,200.109 393.281,199.304 393.461,199.571 393.374,200.646 393.194,200.914 
			392.565,201.809 391.403,202.882 389.344,200.289 388.362,199.841 387.198,200.914 386.303,201.897 385.679,202.792 
			385.497,203.598 386.75,204.492 386.481,203.865 386.66,202.972 387.375,202.077 388.629,200.914 390.6,203.508 391.671,203.956 
			392.833,202.882 393.729,201.897 394.265,201.004 		"/>
		<polygon id="_71232608" points="394.088,198.678 393.461,198.141 392.746,197.872 391.85,197.872 390.776,198.23 389.613,198.856 
			388.362,199.841 389.344,200.289 390.688,199.394 391.85,198.945 392.654,198.856 393.281,199.304 394.535,200.109 
			394.444,199.394 		"/>
		<polygon id="_71233920" points="394.088,206.729 388.002,207.535 388.809,208.52 392.833,207.893 393.641,207.803 		"/>
		<polygon id="_71235072" points="396.95,202.524 396.146,201.539 394.088,206.729 393.641,207.803 393.374,208.43 391.85,212.276 
			392.654,213.351 394.891,207.624 395.251,206.551 395.339,206.462 395.878,205.298 		"/>
		<polygon id="_71236064" points="400.438,206.818 399.726,205.924 396.593,206.371 396.502,206.371 395.251,206.551 
			394.891,207.624 		"/>
		<polygon id="_71237200" points="403.484,213.62 402.944,212.902 400.799,214.604 399.367,212.902 398.473,213.62 399.814,215.318 
			397.669,217.019 398.292,217.734 400.438,216.034 401.782,217.734 402.676,217.019 401.334,215.318 		"/>
	</g>
</g>
</svg>
