<?xml version="1.0" encoding="UTF-8"?>
<!DOCTYPE svg PUBLIC "-//W3C//DTD SVG 1.1//EN" "http://www.w3.org/Graphics/SVG/1.1/DTD/svg11.dtd">
<!-- Creator: CorelDRAW -->
<svg xmlns="http://www.w3.org/2000/svg" xml:space="preserve" width="208.138mm" height="174.616mm" style="shape-rendering:geometricPrecision; text-rendering:geometricPrecision; image-rendering:optimizeQuality; fill-rule:evenodd; clip-rule:evenodd"
viewBox="0 0 219.205 183.899"
 xmlns:xlink="http://www.w3.org/1999/xlink">
 <defs>
  <style type="text/css">
   <![CDATA[
    .str1 {stroke:black;stroke-width:0.0802514}
    .str0 {stroke:blue;stroke-width:0.0802514}
    .fil0 {fill:none}
    .fil2 {fill:black}
    .fil1 {fill:blue}
   ]]>
  </style>
 </defs>
 <g id="圖層_x0020_1">
  <metadata id="CorelCorpID_0Corel-Layer"/>
  <g id="_69201904">
   <polyline id="_69818232" class="fil0 str0" points="113.507,43.4707 101.951,39.7014 89.8756,38.2796 77.7553,39.2277 66.0413,42.5455 55.2075,48.0978 45.6827,55.6589 37.8056,64.9127 31.8919,75.5661 28.168,87.1448 26.7909,99.2426 27.8069,111.363 31.1473,123.055 36.7445,133.866 44.3285,143.391 53.6276,151.223 64.2809,157.113 75.8593,160.792 87.9569,162.124 100.077,161.063 111.746,157.655 122.535,152.035 132.015,144.406 139.824,135.084 145.647,124.409 149.281,112.785 150.568,100.687 149.461,88.5668 146.031,76.8978 "/>
   <polygon id="_69818368" class="fil0 str0" points="19.9523,162.124 157.407,162.124 157.407,183.859 19.9523,183.859 "/>
   <line id="_69795512" class="fil0 str1" x1="88.6795" y1="38.2571" x2="88.6795" y2= "41.0106" />
   <line id="_70269512" class="fil0 str1" x1="88.6795" y1="44.825" x2="88.6795" y2= "48.6395" />
   <line id="_70839904" class="fil0 str1" x1="88.6795" y1="52.4765" x2="88.6795" y2= "56.2909" />
   <line id="_70529384" class="fil0 str1" x1="88.6795" y1="60.1053" x2="88.6795" y2= "63.9198" />
   <line id="_70530384" class="fil0 str1" x1="88.6795" y1="67.734" x2="88.6795" y2= "71.5484" />
   <line id="_70531400" class="fil0 str1" x1="88.6795" y1="75.3854" x2="88.6795" y2= "79.1999" />
   <line id="_70532416" class="fil0 str1" x1="88.6795" y1="83.0144" x2="88.6795" y2= "86.8287" />
   <line id="_70533432" class="fil0 str1" x1="88.6795" y1="90.6432" x2="88.6795" y2= "94.4577" />
   <line id="_70534448" class="fil0 str1" x1="88.6795" y1="98.2947" x2="88.6795" y2= "102.109" />
   <line id="_70535464" class="fil0 str1" x1="88.6795" y1="105.924" x2="88.6795" y2= "109.738" />
   <line id="_70535864" class="fil0 str1" x1="88.6795" y1="113.552" x2="88.6795" y2= "117.367" />
   <line id="_70544136" class="fil0 str1" x1="88.6795" y1="121.204" x2="88.6795" y2= "125.018" />
   <line id="_70545224" class="fil0 str1" x1="88.6795" y1="128.833" x2="88.6795" y2= "132.647" />
   <line id="_70546312" class="fil0 str1" x1="88.6795" y1="136.461" x2="88.6795" y2= "140.276" />
   <line id="_70547400" class="fil0 str1" x1="88.6795" y1="144.09" x2="88.6795" y2= "147.927" />
   <line id="_70548488" class="fil0 str1" x1="88.6795" y1="151.742" x2="88.6795" y2= "155.556" />
   <line id="_70549576" class="fil0 str1" x1="88.6795" y1="159.37" x2="88.6795" y2= "162.124" />
   <line id="_70550664" class="fil0 str0" x1="113.507" y1="43.4707" x2="123.257" y2= "37.5122" />
   <line id="_70551752" class="fil0 str0" x1="140.591" y1="66.4702" x2="160.047" y2= "54.5528" />
   <line id="_70552840" class="fil0 str0" x1="146.031" y1="76.8978" x2="165.487" y2= "64.9805" />
   <polygon id="_70554256" class="fil0 str0" points="160.047,54.5528 159.686,54.8689 159.415,55.3655 159.28,56.02 159.258,56.8101 159.37,57.6901 159.596,58.6607 159.957,59.6765 160.408,60.692 160.95,61.6626 161.537,62.5881 162.191,63.4006 162.869,64.0778 163.523,64.5967 164.155,64.9353 164.764,65.1159 165.261,65.0707 165.69,64.845 166.029,64.4387 166.232,63.8746 166.299,63.1524 166.254,62.2946 166.074,61.3691 165.78,60.3762 165.396,59.3604 164.9,58.3448 164.313,57.3967 163.681,56.5392 163.027,55.7943 162.35,55.1848 161.695,54.756 161.085,54.4851 160.521,54.4174 "/>
   <line id="_70555448" class="fil0 str0" x1="139.237" y1="92.1329" x2="148.965" y2= "86.1742" />
   <polygon id="_70556536" class="fil1" points="120.842,45.9988 123.28,40.8751 122.648,46.5177 "/>
   <polygon id="_70557680" class="fil0 str0" points="120.842,45.9988 123.28,40.8751 122.648,46.5177 "/>
   <line id="_70559600" class="fil0 str0" x1="121.745" y1="46.2697" x2="88.6795" y2= "162.124" />
   <polygon id="_70560688" class="fil1" points="123.844,46.8111 128.381,43.4029 125.198,48.0978 "/>
   <polygon id="_70561688" class="fil0 str0" points="123.844,46.8111 128.381,43.4029 125.198,48.0978 "/>
   <line id="_70841464" class="fil0 str0" x1="124.521" y1="47.4657" x2="39.0245" y2= "137.184" />
   <polygon id="_70842552" class="fil1" points="137.567,135.401 132.985,138.763 136.235,134.092 "/>
   <polygon id="_70843672" class="fil0 str0" points="137.567,135.401 132.985,138.763 136.235,134.092 "/>
   <line id="_70844792" class="fil0 str0" x1="136.912" y1="134.746" x2="144.474" y2= "127.027" />
   <polygon id="_70845880" class="fil1" points="35.7969,78.0941 34.1492,83.5335 33.946,77.8458 "/>
   <polygon id="_70847000" class="fil0 str0" points="35.7969,78.0941 34.1492,83.5335 33.946,77.8458 "/>
   <line id="_70848120" class="fil0 str0" x1="34.8712" y1="77.9812" x2="36.2707" y2= "67.2602" />
   <line id="_70849208" class="fil0 str0" x1="88.6795" y1="162.124" x2="144.474" y2= "127.027" />
   <line id="_70850296" class="fil0 str0" x1="88.6795" y1="162.124" x2="39.0245" y2= "137.184" />
   <polygon id="_70851384" class="fil1" points="144.406,116.171 145.782,110.663 146.256,116.328 "/>
   <polygon id="_70852504" class="fil0 str0" points="144.406,116.171 145.782,110.663 146.256,116.328 "/>
   <line id="_70853624" class="fil0 str0" x1="145.331" y1="116.238" x2="144.474" y2= "127.027" />
   <polygon id="_70854712" class="fil1" points="138.492,117.954 136.664,112.582 140.14,117.073 "/>
   <polygon id="_70855832" class="fil0 str0" points="138.492,117.954 136.664,112.582 140.14,117.073 "/>
   <line id="_70856952" class="fil0 str0" x1="139.328" y1="117.502" x2="144.474" y2= "127.027" />
   <polygon id="_70858040" class="fil1" points="133.798,128.991 128.133,128.607 133.617,127.117 "/>
   <polygon id="_70859160" class="fil0 str0" points="133.798,128.991 128.133,128.607 133.617,127.117 "/>
   <line id="_70860280" class="fil0 str0" x1="133.707" y1="128.065" x2="144.474" y2= "127.027" />
   <line id="_70861368" class="fil0 str0" x1="144.474" y1="127.027" x2="39.0245" y2= "137.184" />
   <polygon id="_70862456" class="fil1" points="135.107,121.542 131.067,117.525 136.19,120.008 "/>
   <polygon id="_70863576" class="fil0 str0" points="135.107,121.542 131.067,117.525 136.19,120.008 "/>
   <line id="_70864696" class="fil0 str0" x1="135.649" y1="120.775" x2="144.474" y2= "127.027" />
   <line id="_70865784" class="fil0 str0" x1="144.474" y1="127.027" x2="36.2707" y2= "67.2602" />
   <line id="_70866872" class="fil0 str0" x1="39.0245" y1="137.184" x2="160.747" y2= "61.3466" />
   <polyline id="_70867960" class="fil0 str0" points="140.591,66.4702 133.595,57.5999 125.108,50.129 "/>
   <line id="_70868920" class="fil0 str0" x1="88.6795" y1="162.124" x2="36.2707" y2= "67.2602" />
   <polygon id="_70870008" class="fil1" points="57.4419,80.0125 52.9956,76.4915 58.3445,78.3873 "/>
   <polygon id="_70871128" class="fil0 str0" points="57.4419,80.0125 52.9956,76.4915 58.3445,78.3873 "/>
   <line id="_70872248" class="fil0 str0" x1="57.8933" y1="79.1999" x2="144.474" y2= "127.027" />
   <polygon id="_70873336" class="fil1" points="99.5583,156.391 94.322,158.58 98.565,154.789 "/>
   <polygon id="_70874456" class="fil0 str0" points="99.5583,156.391 94.322,158.58 98.565,154.789 "/>
   <line id="_70875576" class="fil0 str0" x1="99.0619" y1="155.601" x2="144.474" y2= "127.027" />
   <polygon id="_70876664" class="fil1" points="85.0004,153.547 86.8962,158.919 83.3753,154.45 "/>
   <polygon id="_70877784" class="fil0 str0" points="85.0004,153.547 86.8962,158.919 83.3753,154.45 "/>
   <line id="_70878904" class="fil0 str0" x1="84.1876" y1="153.999" x2="36.2707" y2= "67.2602" />
   <polygon id="_70879992" class="fil1" points="79.8542,156.639 84.4362,160.002 79.0193,158.309 "/>
   <polygon id="_70881112" class="fil0 str0" points="79.8542,156.639 84.4362,160.002 79.0193,158.309 "/>
   <line id="_69956512" class="fil0 str0" x1="79.4254" y1="157.475" x2="39.0245" y2= "137.184" />
   <polygon id="_69957600" class="fil1" points="36.7899,126.553 37.0381,120.888 38.6405,126.327 "/>
   <polygon id="_69958720" class="fil0 str0" points="36.7899,126.553 37.0381,120.888 38.6405,126.327 "/>
   <line id="_69959840" class="fil0 str0" x1="37.7153" y1="126.44" x2="39.0245" y2= "137.184" />
   <polygon id="_69960928" class="fil1" points="49.7001,135.22 55.3652,135.604 49.8809,137.071 "/>
   <polygon id="_69962048" class="fil0 str0" points="49.7001,135.22 55.3652,135.604 49.8809,137.071 "/>
   <line id="_69963168" class="fil0 str0" x1="49.7906" y1="136.145" x2="39.0245" y2= "137.184" />
   <polygon id="_69964256" class="fil1" points="45.818,128.697 50.3547,125.289 47.1722,130.006 "/>
   <polygon id="_69965376" class="fil0 str0" points="45.818,128.697 50.3547,125.289 47.1722,130.006 "/>
   <line id="_69966496" class="fil0 str0" x1="46.4951" y1="129.352" x2="39.0245" y2= "137.184" />
   <polygon id="_69967584" class="fil1" points="44.2831,135.017 39.0245,137.184 43.2901,133.414 "/>
   <polygon id="_69968704" class="fil0 str0" points="44.2831,135.017 39.0245,137.184 43.2901,133.414 "/>
   <line id="_69969824" class="fil0 str0" x1="43.7867" y1="134.204" x2="160.747" y2= "61.3466" />
   <polygon id="_69970912" class="fil1" points="49.1134,141.201 53.6951,144.542 48.2781,142.871 "/>
   <polygon id="_69972032" class="fil0 str0" points="49.1134,141.201 53.6951,144.542 48.2781,142.871 "/>
   <line id="_69973152" class="fil0 str0" x1="48.6846" y1="142.036" x2="39.0245" y2= "137.184" />
   <polygon id="_69974240" class="fil1" points="41.146,76.943 42.3649,82.4952 39.4308,77.6427 "/>
   <polygon id="_69975360" class="fil0 str0" points="41.146,76.943 42.3649,82.4952 39.4308,77.6427 "/>
   <line id="_69976480" class="fil0 str0" x1="40.2881" y1="77.2815" x2="36.2707" y2= "67.2602" />
   <polygon id="_69977568" class="fil1" points="45.4345,73.0382 49.3392,77.1912 44.3056,74.5279 "/>
   <polygon id="_69978688" class="fil0 str0" points="45.4345,73.0382 49.3392,77.1912 44.3056,74.5279 "/>
   <line id="_69979808" class="fil0 str0" x1="44.8702" y1="73.783" x2="36.2707" y2= "67.2602" />
   <polygon id="_69980896" class="fil1" points="45.1184,60.9855 50.4453,58.9768 46.0663,62.6106 "/>
   <polygon id="_69982016" class="fil0 str0" points="45.1184,60.9855 50.4453,58.9768 46.0663,62.6106 "/>
   <line id="_69983136" class="fil0 str0" x1="45.5923" y1="61.798" x2="36.2707" y2= "67.2602" />
   <polygon id="_69984224" class="fil1" points="47.0822,66.5153 52.6793,67.5537 47.0594,68.3886 "/>
   <polygon id="_69985344" class="fil0 str0" points="47.0822,66.5153 52.6793,67.5537 47.0594,68.3886 "/>
   <line id="_69986464" class="fil0 str0" x1="47.0822" y1="67.4408" x2="36.2707" y2= "67.2602" />
   <polygon id="_69987552" class="fil1" points="56.0198,34.6457 55.5909,28.9804 57.8482,34.1943 "/>
   <polygon id="_69988672" class="fil0 str0" points="56.0198,34.6457 55.5909,28.9804 57.8482,34.1943 "/>
   <line id="_69989792" class="fil0 str0" x1="56.9455" y1="34.4201" x2="88.6795" y2= "162.124" />
   <line id="_69990880" class="fil0 str0" x1="42.5455" y1="15.2576" x2="47.4657" y2= "29.0932" />
   <line id="_69991968" class="fil0 str0" x1="47.4657" y1="29.0932" x2="59.4959" y2= "24.8051" />
   <line id="_69993056" class="fil0 str0" x1="54.5528" y1="10.9693" x2="59.4959" y2= "24.8051" />
   <polygon id="_69994144" class="fil2" points="3.85954,5.10081 2.1215,5.21371 2.68579,5.25878 3.13728,5.50712 3.63364,6.11659 3.88219,6.54544 4.3559,7.42578 5.3265,9.36666 6.56798,9.36666 5.28111,6.81631 4.94283,6.25203 4.44647,5.57484 "/>
   <polygon id="_69994976" class="fil2" points="5.4394,0.767233 3.34044,1.03811 3.97244,1.12836 4.55927,1.46696 4.73989,1.69265 4.94283,2.55046 4.73989,3.40816 4.17539,3.94991 3.90473,4.04016 3.11474,4.13021 0.970389,4.13021 5.46194,4.24311 5.8455,3.47588 5.9583,2.55046 5.93576,2.00871 5.6651,1.1509 "/>
   <polygon id="_69996992" class="fil2" points="3.29505,0 0,0 0,9.36666 0.970389,9.36666 0.970389,5.21371 2.1215,5.21371 3.85954,5.10081 4.17539,5.03309 4.92019,4.71714 5.46194,4.24311 0.970389,4.13021 0.970389,1.03811 3.34044,1.03811 5.4394,0.767233 4.82993,0.248337 4.8074,0.248337 4.17539,0.0677187 "/>
   <polygon id="_70276896" class="fil2" points="11.1047,7.17744 10.9919,7.53858 10.5404,8.23809 10.405,8.35099 9.68251,8.57668 7.78691,8.59922 8.23809,9.05071 8.89263,9.38931 9.68251,9.5021 9.84048,9.5021 10.6079,9.34413 11.2176,8.93781 11.2853,8.89263 11.7594,8.21555 12.0528,7.33542 "/>
   <polygon id="_70277976" class="fil2" points="7.78691,3.38562 7.76427,3.43069 7.38039,4.13021 7.17723,5.01055 7.08719,6.02623 7.17723,7.04201 7.40314,7.8995 7.78691,8.59922 9.68251,8.57668 9.1633,8.46378 8.55436,7.96721 8.19322,7.24516 8.03493,6.27456 12.0753,6.27456 12.0753,5.95851 12.0753,5.93597 8.10286,5.3265 8.19322,4.64942 8.57668,3.90473 8.91507,3.58867 9.63754,3.38562 "/>
   <polygon id="_70279352" class="fil2" points="9.61479,2.43756 9.0505,2.50528 8.37353,2.82123 7.78691,3.38562 9.63754,3.38562 10.1793,3.49841 10.7661,4.04016 10.924,4.3559 11.127,5.3265 8.10286,5.3265 12.0753,5.93597 12.0074,4.92019 11.7817,4.0627 11.3982,3.36298 11.0142,2.95666 10.3822,2.57299 "/>
   <polygon id="_70280712" class="fil2" points="16.7473,6.88403 16.6345,7.42578 16.273,8.14783 16.0927,8.32835 15.3704,8.57668 13.6098,8.59922 13.9711,9.00553 14.6258,9.38931 15.3932,9.5021 15.5286,9.5021 16.273,9.32159 16.8827,8.84756 17.0179,8.68958 17.4245,7.96721 17.6501,7.01947 "/>
   <polygon id="_70282048" class="fil2" points="13.6326,3.29526 13.2263,4.08534 13.2037,4.15275 13.0005,5.01055 12.9326,6.00369 13.0005,7.04201 13.2263,7.92203 13.6098,8.59922 15.3704,8.57668 14.874,8.46378 14.2872,7.94468 14.1969,7.80924 13.9486,7.04201 13.8809,5.95851 13.8809,5.68774 13.9938,4.6945 14.3097,3.99498 14.716,3.58867 15.4381,3.38562 "/>
   <polygon id="_70283384" class="fil2" points="15.3932,2.43756 14.8061,2.50528 14.1066,2.84387 13.6326,3.29526 15.4381,3.38562 15.551,3.38562 16.2055,3.72411 16.3407,3.88219 16.657,4.73968 17.5597,4.5817 17.289,3.65639 16.8375,2.97931 16.8148,2.95666 16.183,2.57299 "/>
   <polygon id="_70284192" class="fil2" points="22.1418,7.17744 22.006,7.53858 21.5772,8.23809 21.4418,8.35099 20.697,8.57668 18.8239,8.59922 19.2523,9.05071 19.9295,9.38931 20.697,9.5021 20.8775,9.5021 21.6226,9.34413 22.2546,8.93781 22.2998,8.89263 22.7733,8.21555 23.0895,7.33542 "/>
   <polygon id="_70285256" class="fil2" points="18.8239,3.38562 18.8012,3.43069 18.4176,4.13021 18.1919,5.01055 18.124,6.02623 18.1919,7.04201 18.4399,7.8995 18.8239,8.59922 20.697,8.57668 20.178,8.46378 19.5683,7.96721 19.2298,7.24516 19.0722,6.27456 23.1119,6.27456 23.1119,5.95851 23.1119,5.93597 19.1171,5.3265 19.2298,4.64942 19.5909,3.90473 19.9523,3.58867 20.6518,3.38562 "/>
   <polygon id="_70286384" class="fil2" points="20.6518,2.43756 20.0652,2.50528 19.388,2.82123 18.8239,3.38562 20.6518,3.38562 21.2161,3.49841 21.803,4.04016 21.9612,4.3559 22.1418,5.3265 19.1171,5.3265 23.1119,5.93597 23.0444,4.92019 22.8187,4.0627 22.435,3.36298 22.0514,2.95666 21.4194,2.57299 "/>
   <polygon id="_70287744" class="fil2" points="25.1662,2.59553 24.2404,2.59553 24.2404,9.36666 25.1662,9.36666 "/>
   <polygon id="_70288776" class="fil2" points="25.1662,0 24.2404,0 24.2404,1.33152 25.1662,1.33152 "/>
   <polygon id="_70289584" class="fil2" points="30.9665,2.59553 30.0184,2.59553 28.8226,6.72595 28.7098,7.15491 28.4841,8.0124 28.0551,9.36666 28.9129,9.36666 "/>
   <polygon id="_70290320" class="fil2" points="26.9715,2.59553 26.0011,2.59553 28.0551,9.36666 28.4841,8.0124 28.3712,7.53858 28.1226,6.63569 "/>
   <polygon id="_70291128" class="fil2" points="35.4809,7.17744 35.368,7.53858 34.9166,8.23809 34.7812,8.35099 34.0588,8.57668 32.163,8.59922 32.6143,9.05071 33.2688,9.38931 34.0588,9.5021 34.2167,9.5021 34.9841,9.34413 35.5938,8.93781 35.6612,8.89263 36.1355,8.21555 36.4287,7.33542 "/>
   <polygon id="_70292464" class="fil2" points="32.1853,3.38562 32.1405,3.43069 31.7791,4.13021 31.5533,5.01055 31.4633,6.02623 31.5533,7.04201 31.7791,7.8995 32.163,8.59922 34.0588,8.57668 33.5395,8.46378 32.9305,7.96721 32.5693,7.24516 32.4111,6.27456 36.4515,6.27456 36.474,5.95851 36.474,5.93597 32.4791,5.3265 32.5693,4.64942 32.9529,3.90473 33.2912,3.58867 34.0137,3.38562 "/>
   <polygon id="_70293592" class="fil2" points="33.9909,2.43756 33.4266,2.50528 32.7497,2.82123 32.1853,3.38562 34.0137,3.38562 34.578,3.49841 35.1423,4.04016 35.3001,4.3559 35.5032,5.3265 32.4791,5.3265 36.474,5.93597 36.3836,4.92019 36.1578,4.0627 35.7743,3.36298 35.413,2.95666 34.7583,2.57299 "/>
   <polygon id="_70294952" class="fil2" points="68.9978,174.019 68.0728,174.131 68.1631,174.966 68.4789,175.802 68.9075,176.411 71.2098,176.185 70.7584,176.14 70.0589,175.892 69.8556,175.757 69.3138,175.17 69.2009,174.944 "/>
   <polygon id="_70295760" class="fil2" points="73.1056,168.466 71.0295,168.715 71.7293,168.805 72.3382,169.166 72.6093,169.572 72.8351,170.497 73.7828,170.407 73.7153,169.775 73.4217,168.94 "/>
   <polygon id="_70296568" class="fil2" points="70.9841,167.609 70.307,167.676 69.6074,167.947 69.1786,168.218 68.6818,168.873 68.5014,169.279 68.3432,170.204 68.3658,170.475 68.6143,171.355 68.7946,171.649 69.4043,172.235 69.9684,172.506 70.8487,172.8 71.6387,173.048 72.1804,173.274 72.2482,173.296 72.8574,173.815 73.0608,174.583 72.8574,175.395 72.8124,175.44 72.2028,175.96 71.9771,176.05 71.2098,176.185 68.9075,176.411 69.5621,176.908 69.7429,176.998 70.4199,177.224 71.2552,177.291 71.9996,177.201 72.6996,176.908 73.1736,176.569 73.6699,175.892 73.8731,175.395 74.0087,174.492 73.986,173.996 73.7153,173.161 73.3994,172.732 72.7445,172.213 72.6316,172.145 71.9996,171.897 71.097,171.603 70.9616,171.558 70.0813,171.242 69.5849,170.949 69.5849,170.926 69.3138,170.114 69.3138,169.888 69.7203,169.121 70.1942,168.827 71.0295,168.715 73.1056,168.466 72.4511,167.947 71.7741,167.699 "/>
   <polygon id="_70297952" class="fil2" points="79.6965,176.253 78.7938,176.298 78.9739,177.133 79.9222,177.133 79.6965,176.321 "/>
   <polygon id="_70298760" class="fil2" points="76.2431,173.387 75.5886,173.77 75.1148,174.425 74.9343,175.35 75.0245,175.982 75.4078,176.727 77.0107,176.389 76.8749,176.366 76.1979,176.072 75.9272,175.305 76.0401,174.763 76.401,174.38 76.4461,174.38 77.2135,174.154 77.2364,174.154 78.0939,173.951 78.7035,173.725 "/>
   <polygon id="_70299824" class="fil2" points="75.4983,171.129 75.3629,171.378 75.092,172.281 75.9947,172.439 76.0626,172.168 76.4461,171.423 76.6267,171.31 77.4167,171.152 "/>
   <polygon id="_70300632" class="fil2" points="77.5296,170.204 77.0107,170.227 76.3106,170.43 76.0626,170.565 75.4983,171.129 77.4167,171.152 77.8232,171.197 78.4552,171.536 78.5227,171.626 78.7035,172.529 78.7035,172.822 78.613,172.867 77.9584,173.048 77.0781,173.229 76.9878,173.229 76.2431,173.387 78.7035,173.725 78.7035,174.154 78.7035,174.425 78.5681,175.305 78.5002,175.44 77.9584,176.095 77.7553,176.208 77.0107,176.389 75.4078,176.727 75.9947,177.133 76.7849,177.269 77.0781,177.269 77.8007,177.066 78.1393,176.863 78.7938,176.298 79.6965,176.253 79.6511,175.531 79.6285,174.289 79.6285,172.755 79.6285,172.597 79.5836,171.694 79.3125,170.904 79.29,170.904 78.6584,170.407 78.3424,170.294 "/>
   <polygon id="_70302560" class="fil2" points="87.9569,170.746 86.5123,171.197 87.0765,171.378 87.3926,171.874 87.4151,171.897 87.4829,172.867 87.4829,177.133 88.3857,177.133 88.3857,172.484 88.2955,171.468 "/>
   <polygon id="_70303688" class="fil2" points="82.4044,170.633 81.8857,171.31 82.6075,171.446 83.3073,171.197 "/>
   <polygon id="_70304688" class="fil2" points="81.8857,170.362 81.0503,170.362 81.0503,177.133 81.9757,177.133 81.9757,173.612 81.9986,173.025 82.134,172.19 82.134,172.168 82.6075,171.446 81.8857,171.31 "/>
   <polygon id="_70305944" class="fil2" points="83.5104,170.204 83.2624,170.227 82.5627,170.497 82.4044,170.633 83.3073,171.197 83.4202,171.197 84.0522,171.581 84.1427,171.761 84.2779,172.732 84.2779,177.133 85.2036,177.133 85.2036,173.184 85.2711,172.393 85.5647,171.671 85.8127,171.423 85.0453,171.378 85.0004,171.197 84.5037,170.52 84.2779,170.362 "/>
   <polygon id="_70307624" class="fil2" points="86.7154,170.204 86.1963,170.294 85.5647,170.678 85.0453,171.378 85.8127,171.423 86.5123,171.197 87.9569,170.746 87.5055,170.362 "/>
   <polygon id="_70308432" class="fil2" points="93.7576,176.366 90.6655,176.434 90.6881,176.456 91.2748,177.043 91.365,177.088 92.0876,177.269 92.6065,177.201 93.3062,176.84 "/>
   <polygon id="_70309648" class="fil2" points="93.3963,170.655 92.0876,171.107 92.4936,171.197 93.1031,171.739 93.1706,171.852 93.4417,172.642 93.5092,173.68 93.5092,173.996 93.3738,174.966 93.0806,175.689 92.7194,176.095 92.0422,176.343 93.7576,176.366 94.1637,175.553 94.1637,175.531 94.3894,174.673 94.4575,173.68 94.3894,172.8 94.1866,171.897 93.9155,171.287 "/>
   <polygon id="_70311040" class="fil2" points="90.5976,170.362 89.7627,170.362 89.7627,179.729 90.6655,179.729 90.6655,176.434 93.7576,176.366 92.0422,176.343 91.6134,176.253 91.0041,175.711 90.9362,175.598 90.6655,174.831 90.5976,173.77 90.5976,173.477 90.733,172.506 91.049,171.784 91.4104,171.355 90.5976,171.242 "/>
   <polygon id="_70311848" class="fil2" points="92.155,170.204 91.9747,170.204 91.2521,170.452 91.1394,170.565 90.5976,171.242 91.4104,171.355 92.0876,171.107 93.3963,170.655 92.9223,170.362 "/>
   <polygon id="_70312864" class="fil2" points="95.5409,177.133 95.5409,167.766 96.4659,167.766 96.4659,177.133 "/>
   <polygon id="_70313744" class="fil2" points="101.59,174.944 101.477,175.305 101.025,176.005 100.89,176.118 100.167,176.343 98.2716,176.366 98.7233,176.817 99.3777,177.156 100.167,177.269 100.326,177.269 101.093,177.111 101.702,176.704 101.77,176.659 102.244,175.982 102.538,175.102 "/>
   <polygon id="_70314704" class="fil2" points="98.2716,171.152 98.2491,171.197 97.8655,171.897 97.6624,172.777 97.5719,173.793 97.6624,174.808 97.8882,175.666 98.2716,176.366 100.167,176.343 99.6487,176.23 99.0391,175.734 98.6779,175.012 98.5202,174.041 102.56,174.041 102.56,173.725 102.56,173.702 98.5877,173.093 98.6779,172.416 99.0619,171.671 99.4005,171.355 100.122,171.152 "/>
   <polygon id="_70316400" class="fil2" points="100.1,170.204 99.5358,170.272 98.8588,170.588 98.2716,171.152 100.122,171.152 100.664,171.265 101.251,171.807 101.409,172.123 101.612,173.093 98.5877,173.093 102.56,173.702 102.493,172.687 102.267,171.829 101.883,171.129 101.499,170.723 100.867,170.339 "/>
   <polygon id="_70317760" class="fil2" points="164.494,35.9321 163.501,35.9321 163.501,45.2764 168.173,45.2764 168.173,44.1704 164.494,44.1704 "/>
   <polygon id="_70318752" class="fil2" points="170.159,38.5053 169.256,38.5053 169.256,45.2764 170.159,45.2764 "/>
   <polygon id="_70319792" class="fil2" points="170.159,35.9321 169.256,35.9321 169.256,37.2413 170.159,37.2413 "/>
   <polygon id="_70320920" class="fil2" points="171.4,45.8407 171.4,45.8859 171.536,46.8111 171.964,47.4657 172.077,47.5785 172.732,47.9171 173.545,48.03 174.244,47.9398 174.921,47.6463 175.282,47.3303 173.522,47.082 173.274,47.0594 172.596,46.766 172.28,45.9988 "/>
   <polygon id="_70321912" class="fil2" points="175.982,44.351 175.057,44.3962 175.034,45.0959 174.989,45.8634 174.944,46.0213 174.515,46.766 174.312,46.9015 173.522,47.082 175.282,47.3303 175.734,46.5854 175.801,46.3374 175.937,45.5022 "/>
   <polygon id="_70323384" class="fil2" points="171.897,39.2502 171.49,40.0625 171.287,40.8978 171.22,41.8457 171.265,42.5906 171.468,43.4933 171.829,44.2607 172.168,44.7121 172.8,45.141 173.545,45.2764 173.793,45.2539 174.47,44.983 175.057,44.3962 175.982,44.351 173.635,44.3285 173.183,44.2381 172.574,43.719 172.506,43.5836 172.235,42.8389 172.145,41.778 172.145,41.6426 172.28,40.6494 172.574,39.9272 172.935,39.5434 173.612,39.2954 "/>
   <polygon id="_70324552" class="fil2" points="175.982,38.5053 175.147,38.5053 175.147,39.3179 174.086,39.4082 174.696,39.9272 174.741,40.0174 175.034,40.7849 175.124,41.8007 175.124,42.0037 175.012,42.9967 174.696,43.719 174.334,44.1027 173.635,44.3285 175.982,44.351 "/>
   <polygon id="_70325360" class="fil2" points="173.567,38.3473 172.98,38.4376 172.303,38.7987 171.897,39.2502 173.612,39.2954 174.086,39.4082 175.147,39.3179 174.876,38.9793 174.267,38.5053 "/>
   <polygon id="_70326168" class="fil2" points="179.909,38.3473 179.526,38.3925 178.848,38.6859 178.284,39.2727 179.729,39.3405 179.932,39.3631 180.564,39.724 180.722,40.0174 180.857,40.988 180.857,45.2764 181.783,45.2764 181.783,40.988 181.76,40.2883 181.602,39.4757 181.512,39.2727 180.947,38.6407 180.677,38.4828 "/>
   <polygon id="_70327232" class="fil2" points="178.284,35.9321 177.381,35.9321 177.381,45.2764 178.284,45.2764 178.284,41.5749 178.307,41.1912 178.442,40.3108 178.465,40.2883 178.962,39.6111 179.007,39.5659 179.729,39.3405 178.284,39.2727 "/>
   <polygon id="_70328248" class="fil2" points="185.191,44.2381 184.784,44.2833 183.453,44.6444 183.837,45.1636 183.882,45.1862 184.627,45.3668 185.326,45.2539 "/>
   <polygon id="_70771608" class="fil2" points="184.265,36.1352 183.34,36.835 183.34,38.5053 182.663,38.5053 182.663,39.3856 183.34,39.3856 183.34,43.2901 183.363,43.8544 183.453,44.6444 184.784,44.2833 184.468,44.2156 184.311,43.9899 184.265,43.3579 184.265,39.3856 185.191,39.3856 185.191,38.5053 184.265,38.5053 "/>
   <polygon id="_70773224" class="fil2" points="189.525,43.0645 188.622,43.245 188.622,43.2901 188.87,44.2156 189.321,44.8702 190.924,44.4864 190.585,44.4639 189.953,44.1253 189.795,43.9447 "/>
   <polygon id="_70774032" class="fil2" points="192.594,39.205 190.834,39.2954 190.991,39.2954 191.668,39.5886 192.007,40.4011 192.91,40.2431 192.865,40.04 "/>
   <polygon id="_70775040" class="fil2" points="190.766,38.3473 190.721,38.3473 189.976,38.4828 189.389,38.8213 188.938,39.4531 188.757,40.3108 188.96,41.2137 189.005,41.2589 189.569,41.8457 190.089,42.0941 190.969,42.41 191.285,42.5229 191.894,42.7938 192.165,43.4029 191.872,44.1704 191.691,44.3058 190.924,44.4864 189.321,44.8702 189.457,45.0055 190.089,45.3216 190.924,45.4345 191.375,45.3893 192.075,45.141 192.323,44.983 192.842,44.3735 192.933,44.193 193.113,43.2901 193.113,43.1772 192.887,42.2972 192.865,42.2746 192.301,41.6878 191.804,41.4846 190.924,41.1685 190.811,41.1235 190.111,40.8751 189.773,40.5592 189.66,40.1754 189.931,39.5659 190.044,39.4531 190.834,39.2954 192.594,39.205 192.526,39.0922 191.872,38.573 191.533,38.4602 "/>
   <polygon id="_70777072" class="fil2" points="194.535,39.2954 194.174,39.9722 193.926,40.8526 193.858,41.8909 193.858,41.9586 193.948,42.9741 194.174,43.8319 194.558,44.509 196.409,44.4864 195.844,44.3735 195.257,43.8319 195.167,43.6965 194.896,42.9292 194.806,41.8909 194.806,41.6426 194.941,40.6494 195.257,39.9497 195.686,39.5209 196.409,39.2954 "/>
   <polygon id="_70778576" class="fil2" points="196.409,38.3473 196.025,38.3699 195.302,38.6182 194.693,39.0922 194.535,39.2954 196.409,39.2954 196.928,39.4082 197.537,39.9497 197.605,40.0625 197.898,40.8301 197.988,41.8457 197.988,42.1391 197.853,43.1321 197.537,43.8319 197.108,44.2833 196.409,44.4864 194.558,44.509 194.964,44.9378 195.618,45.2991 196.409,45.4345 197.018,45.3441 197.718,45.0055 198.169,44.5993 198.62,43.8544 198.688,43.6965 198.868,42.8615 198.936,41.8007 198.868,40.8301 198.62,39.9722 198.236,39.2727 197.831,38.8439 197.176,38.4828 "/>
   <polygon id="_70779928" class="fil2" points="202.751,44.2156 202.028,44.4413 200.336,44.6219 200.336,44.6444 200.945,45.2087 201.103,45.2764 201.848,45.4345 202.412,45.3441 203.044,44.9605 203.563,44.2833 "/>
   <polygon id="_70780616" class="fil2" points="200.9,38.5053 199.997,38.5053 199.997,42.7035 199.997,42.8615 200.042,43.7642 200.336,44.6219 202.028,44.4413 201.329,44.1704 200.968,43.4707 200.945,43.3127 200.9,42.252 "/>
   <polygon id="_70782064" class="fil2" points="204.376,38.5053 203.473,38.5053 203.473,42.1391 203.45,42.6132 203.315,43.4481 203.292,43.4933 202.796,44.1704 202.751,44.2156 203.563,44.2833 203.563,45.2764 204.376,45.2764 "/>
   <polygon id="_70783448" class="fil2" points="206.633,38.5053 205.798,38.5053 205.798,45.2764 206.723,45.2764 206.723,41.7329 206.746,41.304 206.881,40.4011 207.22,39.7691 207.761,39.5434 206.633,39.5209 "/>
   <polygon id="_70784576" class="fil2" points="207.807,38.3473 207.22,38.573 207.107,38.7084 206.633,39.5209 207.761,39.5434 208.439,39.7917 208.754,38.7311 208.506,38.5505 "/>
   <polygon id="_70785592" class="fil2" points="212.84,42.7938 212.727,43.3352 212.366,44.0801 212.185,44.2381 211.463,44.4864 209.702,44.509 210.063,44.9153 210.718,45.2991 211.485,45.4345 211.621,45.4345 212.366,45.2313 212.975,44.7573 213.111,44.6219 213.517,43.877 213.742,42.9518 "/>
   <polygon id="_70787368" class="fil2" points="209.725,39.205 209.296,39.9949 209.274,40.0625 209.093,40.9203 209.025,41.9134 209.025,41.936 209.093,42.9741 209.319,43.8319 209.702,44.509 211.463,44.4864 210.966,44.3735 210.379,43.877 210.289,43.719 210.041,42.9518 209.951,41.8909 209.973,41.62 210.086,40.6269 210.402,39.9045 210.808,39.4982 211.508,39.2954 "/>
   <polygon id="_70789072" class="fil2" points="211.485,38.3473 210.899,38.4376 210.199,38.7536 209.725,39.205 211.508,39.2954 211.621,39.2954 212.298,39.6337 212.433,39.7917 212.749,40.672 213.652,40.4915 213.381,39.5886 212.93,38.9116 212.885,38.8664 212.275,38.4828 "/>
   <polygon id="_70790384" class="fil2" points="218.234,43.087 218.099,43.4707 217.67,44.1478 217.512,44.2607 216.79,44.4864 214.916,44.509 215.345,44.9605 216,45.3216 216.79,45.4345 216.947,45.4345 217.715,45.2539 218.347,44.8476 218.392,44.8025 218.866,44.1253 219.182,43.245 "/>
   <polygon id="_70791720" class="fil2" points="214.916,39.2954 214.871,39.3405 214.51,40.04 214.284,40.9203 214.217,41.936 214.284,42.9518 214.51,43.8093 214.916,44.509 216.79,44.4864 216.27,44.3735 215.661,43.8996 215.323,43.1772 215.165,42.1843 219.205,42.1843 219.205,41.8683 215.21,41.2363 215.323,40.5817 215.684,39.8143 216.022,39.4982 216.744,39.2954 "/>
   <polygon id="_70793144" class="fil2" points="216.744,38.3473 216.157,38.415 215.48,38.7311 214.916,39.2954 216.744,39.2954 217.309,39.4082 217.896,39.9497 218.053,40.2657 218.234,41.2363 215.21,41.2363 219.205,41.8683 219.137,40.8301 218.889,39.9722 218.505,39.2727 218.144,38.8664 217.489,38.4828 "/>
   <polygon id="_70794200" class="fil2" points="162.869,84.9329 160.657,85.1586 161.063,85.1813 161.74,85.3167 162.35,85.8581 162.35,85.8808 162.553,86.7837 162.395,87.5511 162.034,88.0927 161.447,88.3411 160.792,88.3863 158.919,88.3863 162.914,88.7699 163.365,88.0025 163.455,87.7091 163.568,86.7837 163.523,86.1742 163.207,85.3616 "/>
   <polygon id="_70795592" class="fil2" points="162.733,80.9605 160.408,81.2314 160.905,81.2539 161.56,81.3668 162.056,81.8406 162.237,82.6758 162.056,83.4883 161.492,83.9623 161.356,83.985 160.544,84.0752 158.919,84.0752 162.44,84.3009 162.959,83.6464 163.049,83.4206 163.207,82.5177 163.184,82.1792 162.937,81.2991 "/>
   <polygon id="_70796968" class="fil2" points="160.747,80.1253 157.926,80.1253 157.926,89.492 160.792,89.492 161.289,89.4695 161.988,89.334 162.146,89.2663 162.801,88.8603 162.914,88.7699 158.919,88.3863 158.919,85.1586 160.657,85.1586 162.869,84.9329 162.169,84.5041 162.44,84.3009 158.919,84.0752 158.919,81.2314 160.408,81.2314 162.733,80.9605 162.124,80.4187 161.56,80.2156 "/>
   <polygon id="_70798664" class="fil2" points="169.256,88.612 168.353,88.6571 168.534,89.492 169.504,89.492 169.279,88.6797 "/>
   <polygon id="_70799472" class="fil2" points="165.825,85.7453 165.171,86.129 164.697,86.7837 164.516,87.7091 164.584,88.3411 164.99,89.0858 166.593,88.7474 166.435,88.7249 165.78,88.4313 165.487,87.6639 165.622,87.1223 165.983,86.7385 166.029,86.7385 166.773,86.5128 166.818,86.5128 167.676,86.3096 168.285,86.0839 "/>
   <polygon id="_70800280" class="fil2" points="165.08,83.4883 164.945,83.7366 164.674,84.6395 165.577,84.7975 165.645,84.5266 166.029,83.7818 166.186,83.6689 166.976,83.5109 "/>
   <polygon id="_70801496" class="fil2" points="167.112,82.5629 166.593,82.5854 165.893,82.7886 165.645,82.924 165.08,83.4883 166.976,83.5109 167.405,83.556 168.015,83.8946 168.082,83.985 168.285,84.8879 168.285,85.1813 168.173,85.2263 167.541,85.4068 166.638,85.5873 166.547,85.5873 165.825,85.7453 168.285,86.0839 168.285,86.5128 168.285,86.7837 168.128,87.6639 168.06,87.7993 167.518,88.454 167.315,88.5668 166.593,88.7474 164.99,89.0858 165.577,89.492 166.367,89.6274 166.638,89.6274 167.383,89.4243 167.699,89.2212 168.353,88.6571 169.256,88.612 169.211,87.8897 169.211,86.6482 169.211,85.1135 169.211,84.9556 169.166,84.0527 168.873,83.2626 168.241,82.766 167.924,82.6531 "/>
   <polygon id="_70803248" class="fil2" points="170.949,80.9831 170.926,81.0282 170.858,81.9986 170.858,82.7209 170.046,82.7209 170.046,83.6012 170.858,83.6012 170.858,89.492 171.761,89.492 171.761,83.6012 172.822,83.6012 172.822,82.7209 171.761,82.7209 171.761,82.0889 171.942,81.2539 172.529,81.0282 "/>
   <polygon id="_70804608" class="fil2" points="172.348,79.9673 172.1,79.9899 171.423,80.2608 171.4,80.2608 170.949,80.9831 172.529,81.0282 173.07,81.0959 173.206,80.0802 173.093,80.0576 "/>
   <polygon id="_70805624" class="fil2" points="173.838,80.9831 173.838,81.0282 173.747,81.9986 173.747,82.7209 172.935,82.7209 172.935,83.6012 173.747,83.6012 173.747,89.492 174.673,89.492 174.673,83.6012 175.711,83.6012 175.711,82.7209 174.673,82.7209 174.673,82.0889 174.831,81.2539 175.418,81.0282 "/>
   <polygon id="_70806984" class="fil2" points="175.26,79.9673 174.989,79.9899 174.312,80.2608 173.838,80.9831 175.418,81.0282 175.959,81.0959 176.118,80.0802 176.005,80.0576 "/>
   <polygon id="_70808200" class="fil2" points="176.411,89.492 176.411,80.1253 177.336,80.1253 177.336,89.492 "/>
   <polygon id="_70809248" class="fil2" points="182.46,87.3028 182.325,87.6639 181.896,88.3636 181.76,88.4765 181.038,88.7022 179.142,88.7249 179.593,89.176 180.248,89.5146 181.038,89.6274 181.196,89.6274 181.963,89.4695 182.573,89.0631 182.618,89.0181 183.114,88.3411 183.408,87.4607 "/>
   <polygon id="_70810256" class="fil2" points="179.142,83.5109 179.12,83.556 178.736,84.2557 178.533,85.1361 178.442,86.1517 178.533,87.1673 178.758,88.0251 179.142,88.7249 181.038,88.7022 180.519,88.5894 179.909,88.0927 179.548,87.3705 179.39,86.3999 183.431,86.3999 183.431,86.0839 183.431,86.0613 179.458,85.4518 179.548,84.775 179.932,84.03 180.27,83.7141 180.993,83.5109 "/>
   <polygon id="_70812264" class="fil2" points="180.97,82.5629 180.406,82.6306 179.729,82.9467 179.142,83.5109 180.993,83.5109 181.534,83.6237 182.121,84.1655 182.279,84.4815 182.46,85.4518 179.458,85.4518 183.431,86.0613 183.363,85.0458 183.137,84.188 182.753,83.4883 182.369,83.0821 181.738,82.6983 "/>
   <polygon id="_70813624" class="fil2" points="73.2413,12.4137 72.2933,12.5266 72.4061,13.3618 72.7222,14.1969 73.151,14.8287 75.4304,14.5806 75.002,14.5354 74.302,14.2872 74.0762,14.1743 73.5345,13.5649 73.4442,13.3618 "/>
   <polygon id="_70815088" class="fil2" points="77.3264,6.86139 75.2502,7.10973 75.9497,7.19998 76.559,7.56111 76.8524,7.98975 77.0781,8.89263 78.0264,8.80238 77.9584,8.19291 77.6652,7.33542 "/>
   <polygon id="_70816824" class="fil2" points="75.2277,6.02623 74.5503,6.09394 73.8506,6.34228 73.4217,6.63569 72.9025,7.2677 72.7222,7.69634 72.5867,8.59922 72.6093,8.89263 72.8574,9.75044 73.0382,10.0439 73.6474,10.6307 74.2117,10.9016 75.092,11.2174 75.8593,11.4656 76.4235,11.6688 76.4915,11.6914 77.1007,12.2105 77.3039,13.0005 77.0781,13.7906 77.0558,13.8357 76.4461,14.3774 76.2204,14.4678 75.4304,14.5806 73.151,14.8287 73.7828,15.3253 73.9634,15.4155 74.6632,15.6187 75.4983,15.6864 76.2431,15.5962 76.9203,15.3253 77.4167,14.964 77.9136,14.2872 78.1166,13.7906 78.2521,12.8877 78.2068,12.4137 77.9361,11.556 77.6424,11.1273 76.9653,10.6081 76.8524,10.5404 76.2431,10.2922 75.3175,9.99867 75.2049,9.97613 74.302,9.66018 73.8282,9.34413 73.5345,8.50896 73.5571,8.28327 73.9634,7.51604 74.4148,7.22262 75.2502,7.10973 77.3264,6.86139 76.6946,6.34228 76.0174,6.09394 "/>
   <polygon id="_70817632" class="fil2" points="84.9325,12.2557 84.8875,12.4589 84.5939,13.3618 84.1651,14.0388 84.1427,14.0388 83.5104,14.4903 82.743,14.6258 84.8196,14.8738 85.2711,14.2872 85.655,13.5197 85.9256,12.5717 "/>
   <polygon id="_70818896" class="fil2" points="80.7344,6.81631 80.1926,7.44832 79.764,8.23809 79.5383,8.8701 79.3804,9.77298 79.3125,10.7888 79.3351,11.4883 79.4708,12.4137 79.719,13.294 79.8768,13.7229 80.3054,14.4903 80.8698,15.0769 81.2987,15.3478 81.9986,15.5962 82.8333,15.6864 83.4881,15.6187 84.1876,15.3478 84.8196,14.8738 82.743,14.6258 82.1789,14.5354 81.4794,14.1969 81.0055,13.6777 80.6215,12.8651 80.554,12.662 80.3958,11.7817 80.3283,10.7661 80.3958,9.90841 80.5765,8.98299 80.8698,8.23809 81.3889,7.58376 81.4115,7.58376 82.0435,7.19998 82.8333,7.08719 "/>
   <polygon id="_70820128" class="fil2" points="82.8559,6.02623 82.4498,6.04887 81.7275,6.22938 81.028,6.59062 80.7344,6.81631 82.8333,7.08719 83.4202,7.15491 84.0747,7.53858 84.481,8.10265 84.8196,9.02807 85.7904,8.73466 85.6322,8.17037 85.2488,7.35806 84.7294,6.72595 84.3233,6.41 83.6233,6.11659 "/>
   <polygon id="_70821488" class="fil2" points="92.5616,6.18431 87.1669,6.18431 87.1669,15.5284 92.7422,15.5284 92.7422,14.4226 88.16,14.4226 88.16,11.2399 92.2908,11.2399 92.2908,10.1341 88.16,10.1341 88.16,7.29034 92.5616,7.29034 "/>
   <polygon id="_70822864" class="fil2" points="103.801,9.16351 102.357,9.59246 102.899,9.77298 103.237,10.2695 103.237,10.2922 103.328,11.2625 103.328,15.5284 104.23,15.5284 104.23,10.879 104.117,9.86323 "/>
   <polygon id="_70823768" class="fil2" points="98.2264,9.02807 97.7073,9.70526 98.4299,9.84069 99.152,9.59246 "/>
   <polygon id="_70824928" class="fil2" points="97.7073,8.7573 96.8949,8.7573 96.8949,15.5284 97.8202,15.5284 97.8202,12.0074 97.8202,11.4431 97.9559,10.6081 97.9784,10.5631 98.4299,9.84069 97.7073,9.70526 "/>
   <polygon id="_70825984" class="fil2" points="99.3551,8.59922 99.0845,8.62186 98.3845,8.89263 98.2264,9.02807 99.152,9.59246 99.2648,9.59246 99.8965,9.97613 99.9645,10.1568 100.1,11.1273 100.1,15.5284 101.025,15.5284 101.025,11.6011 101.093,10.7888 101.409,10.0664 101.635,9.84069 100.89,9.79551 100.822,9.615 100.348,8.91528 100.122,8.7573 "/>
   <polygon id="_70827616" class="fil2" points="102.56,8.59922 102.018,8.68958 101.409,9.07325 100.89,9.79551 101.635,9.84069 102.357,9.59246 103.801,9.16351 103.328,8.77984 "/>
   <polygon id="_70828784" class="fil2" points="105.923,9.54728 105.562,10.2245 105.336,11.1047 105.246,12.1428 105.246,12.2105 105.336,13.2263 105.562,14.084 105.946,14.761 107.796,14.7383 107.232,14.6258 106.645,14.084 106.555,13.9486 106.284,13.1811 106.194,12.1428 106.194,11.8945 106.329,10.9016 106.645,10.2018 107.074,9.77298 107.796,9.54728 "/>
   <polygon id="_70830192" class="fil2" points="107.796,8.59922 107.413,8.62186 106.691,8.8701 106.081,9.34413 105.923,9.54728 107.796,9.54728 108.338,9.66018 108.925,10.2018 108.993,10.3147 109.286,11.0822 109.377,12.0976 109.377,12.3912 109.241,13.3843 108.925,14.084 108.496,14.5129 107.796,14.7383 105.946,14.761 106.375,15.1898 107.029,15.551 107.796,15.6864 108.406,15.5962 109.105,15.2576 109.557,14.8512 110.008,14.1066 110.076,13.926 110.257,13.1134 110.324,12.0526 110.257,11.0822 110.008,10.2245 109.625,9.52474 109.218,9.09579 108.564,8.73466 "/>
   <polygon id="_70831840" class="fil2" points="114.161,14.4903 113.485,14.7383 112.22,15.2349 112.672,15.5284 113.394,15.6864 113.755,15.6412 114.41,15.3253 114.906,14.6708 "/>
   <polygon id="_70832856" class="fil2" points="113.349,8.59922 112.83,8.66694 112.153,9.05071 111.746,9.47956 111.34,10.3147 111.137,11.1724 111.069,12.1428 111.137,13.136 111.363,13.9938 111.678,14.6031 112.22,15.2349 113.485,14.7383 113.056,14.6483 112.446,14.084 112.378,13.9711 112.107,13.1811 112.017,12.1428 112.017,11.8945 112.13,10.879 112.423,10.1793 112.762,9.79551 113.439,9.54728 114.861,9.52474 114.816,9.45703 114.229,8.84756 114.093,8.77984 "/>
   <polygon id="_70834392" class="fil2" points="115.764,6.18431 114.861,6.18431 114.861,9.52474 113.439,9.54728 113.913,9.66018 114.5,10.2018 114.613,10.3824 114.839,11.1724 114.929,12.2331 114.929,12.3912 114.816,13.4068 114.5,14.1292 114.161,14.4903 114.906,14.6708 114.906,15.5284 115.764,15.5284 "/>
   <polygon id="_70697912" class="fil2" points="120.91,13.3391 120.797,13.7229 120.346,14.4001 120.21,14.5129 119.488,14.7383 117.592,14.761 118.044,15.2124 118.698,15.5735 119.488,15.6864 119.646,15.6864 120.413,15.5058 121.023,15.0995 121.09,15.0544 121.565,14.3774 121.858,13.4972 "/>
   <polygon id="_70699432" class="fil2" points="117.615,9.54728 117.569,9.59246 117.208,10.2922 116.983,11.1724 116.893,12.188 116.983,13.2037 117.208,14.0615 117.592,14.761 119.488,14.7383 118.969,14.6258 118.36,14.1517 117.998,13.4295 117.84,12.4362 121.88,12.4362 121.903,12.1203 117.908,11.4883 117.998,10.8338 118.382,10.0664 118.721,9.75044 119.443,9.54728 "/>
   <polygon id="_70701128" class="fil2" points="119.42,8.59922 118.856,8.66694 118.179,8.98299 117.615,9.54728 119.443,9.54728 120.007,9.66018 120.572,10.2018 120.729,10.5179 120.933,11.4883 117.908,11.4883 121.903,12.1203 121.813,11.0822 121.587,10.2245 121.203,9.52474 120.842,9.11843 120.188,8.73466 "/>
  </g>
 </g>
</svg>
