<?xml version="1.0" encoding="UTF-8"?>
<!DOCTYPE svg PUBLIC "-//W3C//DTD SVG 1.1//EN" "http://www.w3.org/Graphics/SVG/1.1/DTD/svg11.dtd">
<!-- Creator: CorelDRAW -->
<svg xmlns="http://www.w3.org/2000/svg" xml:space="preserve" width="234.961mm" height="354.835mm" style="shape-rendering:geometricPrecision; text-rendering:geometricPrecision; image-rendering:optimizeQuality; fill-rule:evenodd; clip-rule:evenodd"
viewBox="0 0 405.935 613.038"
 xmlns:xlink="http://www.w3.org/1999/xlink">
 <defs>
  <style type="text/css">
   <![CDATA[
    .str0 {stroke:black;stroke-width:0.351753}
    .str1 {stroke:gray;stroke-width:0.351753}
    .str2 {stroke:black;stroke-width:1.86139}
    .fil0 {fill:none}
    .fil1 {fill:black}
   ]]>
  </style>
 </defs>
 <g id="圖層_x0020_1">
  <metadata id="CorelCorpID_0Corel-Layer"/>
  <g id="_292829416">
   <polyline id="_287603848" class="fil0 str0" points="157.571,216.957 161.091,217.748 164.787,218.364 168.568,218.804 172.44,219.067 176.312,219.155 180.269,219.067 184.229,218.804 188.101,218.364 191.882,217.748 195.578,216.957 199.098,215.987 202.528,214.844 205.784,213.525 208.862,212.03 211.679,210.357 214.317,208.51 "/>
   <line id="_293978624" class="fil0 str0" x1="128.098" y1="157.482" x2="129.593" y2= "156.339" />
   <line id="_281987480" class="fil0 str0" x1="88.1559" y1="120.706" x2="86.6609" y2= "121.939" />
   <line id="_281680184" class="fil0 str0" x1="99.5051" y1="151.763" x2="101" y2= "150.62" />
   <line id="_282678632" class="fil0 str0" x1="28.505" y1="183.525" x2="157.571" y2= "216.957" />
   <line id="_283831496" class="fil0 str0" x1="65.8971" y1="114.987" x2="64.4022" y2= "116.133" />
   <line id="_282375176" class="fil0 str0" x1="77.3343" y1="146.045" x2="78.8292" y2= "144.902" />
   <polyline id="_288930800" class="fil0 str0" points="259.804,59.032 259.538,56.8336 259.186,54.6351 258.395,52.6099 257.516,50.5874 256.372,48.7405 255.053,46.9793 253.556,45.3964 251.973,43.9015 248.367,41.2607 244.407,39.0623 240.008,37.3033 235.257,35.8059 "/>
   <line id="_281671472" class="fil0 str0" x1="214.317" y1="208.51" x2="253.998" y2= "178.07" />
   <line id="_286033776" class="fil0 str0" x1="263.586" y1="159.768" x2="259.804" y2= "59.032" />
   <polyline id="_290849944" class="fil0 str0" points="9.85428,41.3487 7.74376,43.1098 5.89446,44.9567 4.22363,47.0672 2.72868,49.2683 1.58531,51.7306 0.793864,54.1954 0.263815,56.9215 0.175877,58.2406 0.175877,59.5623 "/>
   <line id="_278060904" class="fil0 str0" x1="0.175877" y1="59.5623" x2="3.95982" y2= "160.384" />
   <line id="_282450680" class="fil0 str0" x1="235.257" y1="35.8059" x2="106.191" y2= "2.46158" />
   <line id="_176310832" class="fil0 str0" x1="49.5328" y1="10.8209" x2="9.85428" y2= "41.3487" />
   <polyline id="_280270800" class="fil0 str0" points="253.998,178.07 256.108,176.309 257.955,174.374 259.628,172.351 261.036,170.15 262.179,167.688 263.058,165.135 263.586,162.497 263.674,161.178 263.586,159.768 "/>
   <polyline id="_293653312" class="fil0 str0" points="3.95982,160.384 4.22363,162.585 4.66333,164.696 5.36683,166.809 6.33657,168.831 7.47994,170.678 8.79902,172.351 10.294,174.022 11.8793,175.517 15.397,178.07 19.4447,180.268 23.7563,182.115 28.505,183.525 "/>
   <polyline id="_281128880" class="fil0 str0" points="62.995,213.701 63.7864,213.964 64.7539,214.404 65.8971,214.932 67.0403,215.635 69.4172,217.572 71.7036,220.035 73.6383,222.851 75.0479,225.666 75.4876,226.985 75.8393,228.306 76.0152,229.361 76.1031,230.329 "/>
   <line id="_280893712" class="fil0 str0" x1="45.8392" y1="188.01" x2="46.0151" y2= "192.585" />
   <line id="_283414312" class="fil0 str0" x1="233.674" y1="450.101" x2="224.347" y2= "200.856" />
   <line id="_280587184" class="fil0 str0" x1="76.1031" y1="230.329" x2="81.382" y2= "371.447" />
   <polyline id="_281979848" class="fil0 str0" points="46.0151,192.585 46.5427,196.721 47.7739,200.681 49.7966,204.374 52.3492,207.542 55.5152,210.269 59.1231,212.294 62.995,213.701 "/>
   <polyline id="_277815456" class="fil0 str0" points="106.191,2.46158 102.673,1.67014 98.9775,0.966631 95.1935,0.526939 91.3243,0.263124 87.4524,0.175186 83.5805,0.263124 79.6233,0.526939 75.7514,1.05457 71.9674,1.67014 68.2739,2.46158 64.666,3.4315 61.2338,4.5747 58.0678,5.89377 54.9876,7.38872 52.1734,8.97421 49.5328,10.8209 "/>
   <polyline id="_285648128" class="fil0 str0" points="81.382,371.447 81.382,372.239 81.2941,372.766 81.2062,373.118 "/>
   <polyline id="_286882624" class="fil0 str0" points="62.4649,375.319 59.2991,378.309 56.7463,381.741 54.8996,385.611 53.8442,389.834 53.5804,394.146 "/>
   <line id="_446773520" class="fil0 str0" x1="100.033" y1="471.744" x2="100.209" y2= "477.286" />
   <line id="_285885544" class="fil0 str0" x1="53.5804" y1="394.146" x2="55.867" y2= "454.676" />
   <line id="_282915976" class="fil0 str0" x1="80.9423" y1="361.065" x2="62.4649" y2= "375.319" />
   <line id="_283639968" class="fil0 str0" x1="76.4549" y1="508.957" x2="76.4549" y2= "509.573" />
   <polyline id="_287757760" class="fil0 str0" points="213.262,101.263 209.392,103.814 204.905,106.103 199.714,108.037 194.083,109.708 188.013,110.942 181.767,111.821 175.257,112.261 168.832,112.261 162.41,111.821 156.339,111.03 150.621,109.796 "/>
   <polyline id="_300674424" class="fil0 str0" points="156.251,95.1049 154.141,97.5674 152.556,100.296 151.412,103.374 150.709,106.542 150.621,109.796 "/>
   <polyline id="_399868296" class="fil0 str0" points="156.251,95.1049 161.003,96.0724 166.018,96.688 171.297,96.9518 176.664,96.7759 181.942,96.3362 187.045,95.3687 191.882,94.1376 196.194,92.5523 200.066,90.7056 203.231,88.6828 "/>
   <polyline id="_125817632" class="fil0 str0" points="213.262,101.263 212.558,97.9191 211.151,94.7532 209.041,92.1126 206.312,90.0019 203.231,88.6828 "/>
   <line id="_123391824" class="fil0 str0" x1="213.262" y1="101.263" x2="216.958" y2= "202.088" />
   <polyline id="_279890016" class="fil0 str0" points="154.405,210.532 160.123,211.766 166.194,212.645 172.616,212.997 179.038,212.997 185.548,212.557 191.794,211.678 197.867,210.444 203.498,208.773 208.686,206.839 213.174,204.638 216.958,202.088 "/>
   <line id="_286638936" class="fil0 str0" x1="154.405" y1="210.532" x2="150.621" y2= "109.796" />
   <polyline id="_292254936" class="fil0 str0" points="103.025,3.34356 98.274,2.37364 93.171,1.75808 87.98,1.49426 82.6132,1.5822 77.3343,2.10983 72.2313,3.07974 67.3921,4.31088 63.0829,5.80583 59.2112,7.65254 56.0428,9.76565 "/>
   <line id="_271552080" class="fil0 str0" x1="232.091" y1="36.7757" x2="103.025" y2= "3.34356" />
   <polyline id="_280813112" class="fil0 str0" points="242.912,58.1527 245.375,55.8663 247.046,53.4893 247.925,51.0271 248.013,48.5646 247.222,46.0999 245.639,43.8133 243.264,41.7004 240.096,39.7658 236.4,38.0948 232.091,36.7757 "/>
   <line id="_276614136" class="fil0 str0" x1="203.231" y1="88.6828" x2="242.912" y2= "58.1527" />
   <line id="_277138624" class="fil0 str0" x1="27.1859" y1="61.6728" x2="156.251" y2= "95.1049" />
   <polyline id="_277903728" class="fil0 str0" points="16.3643,40.2934 13.902,42.5822 12.231,44.9567 11.3492,47.419 11.2613,49.8839 12.0552,52.3461 13.6382,54.6351 16.0126,56.7456 19.1809,58.6803 22.8743,60.3537 27.1859,61.6728 "/>
   <line id="_132724440" class="fil0 str0" x1="56.0428" y1="9.76565" x2="16.3643" y2= "40.2934" />
   <line id="_275852032" class="fil0 str0" x1="150.621" y1="109.796" x2="21.5553" y2= "76.3663" />
   <polyline id="_275698400" class="fil0 str0" points="27.1859,61.6728 25.0754,64.1351 23.4925,66.9517 22.2588,69.9416 21.6432,73.11 21.5553,76.3663 "/>
   <polyline id="_121860056" class="fil0 str0" points="104.344,138.391 104.344,141.909 103.905,145.341 103.465,146.924 102.761,148.331 101.97,149.653 100.824,150.62 "/>
   <polyline id="_147160296" class="fil0 str0" points="93.7865,119.914 96.249,120.969 97.4825,121.675 98.6257,122.643 100.56,124.929 102.058,127.482 103.113,130.208 103.817,133.025 104.344,138.391 "/>
   <polyline id="_292671528" class="fil0 str0" points="88.0679,120.969 89.1232,120.09 90.6183,119.65 92.1157,119.65 93.7865,119.914 "/>
   <line id="_301857888" class="fil0 str0" x1="59.2991" y1="111.733" x2="45.3092" y2= "138.831" />
   <line id="_207901376" class="fil0 str0" x1="41.5276" y1="107.158" x2="59.2991" y2= "111.733" />
   <line id="_69860352" class="fil0 str0" x1="25.3392" y1="177.188" x2="154.405" y2= "210.532" />
   <line id="_290257472" class="fil0 str0" x1="21.5553" y1="76.3663" x2="25.3392" y2= "177.188" />
   <polyline id="_289013080" class="fil0 str0" points="82.1735,132.673 82.0855,136.19 81.6459,139.535 81.2062,141.118 80.5906,142.613 79.7991,143.934 78.6534,144.902 "/>
   <polyline id="_287923304" class="fil0 str0" points="71.5278,114.108 74.0804,115.163 75.3117,115.957 76.4549,116.924 78.3895,119.211 79.8871,121.763 80.9423,124.489 81.5579,127.218 82.1735,132.673 "/>
   <polyline id="_286877880" class="fil0 str0" points="65.8092,115.163 66.9524,114.371 68.3618,113.932 69.9449,113.932 71.5278,114.108 "/>
   <polyline id="_286047808" class="fil0 str0" points="133.289,146.221 133.113,149.211 132.849,150.708 132.498,152.115 131.97,153.346 131.266,154.49 129.329,156.339 "/>
   <polyline id="_285081752" class="fil0 str0" points="123.963,129.592 125.988,131.087 127.834,132.849 129.505,134.783 130.827,136.982 131.882,139.271 132.586,141.645 133.025,143.934 133.289,146.221 "/>
   <polyline id="_283159208" class="fil0 str0" points="114.814,126.072 119.39,127.482 123.963,129.592 "/>
   <line id="_282615680" class="fil0 str0" x1="108.92" y1="124.577" x2="114.814" y2= "126.072" />
   <line id="_282060880" class="fil0 str0" x1="252.94" y1="70.7356" x2="213.262" y2= "101.263" />
   <polyline id="_281514320" class="fil0 str0" points="252.94,70.7356 252.325,67.3914 250.83,64.3109 248.719,61.5848 246.078,59.5623 242.912,58.1527 "/>
   <line id="_280819128" class="fil0 str0" x1="256.724" y1="171.469" x2="252.94" y2= "70.7356" />
   <line id="_280348976" class="fil0 str0" x1="216.958" y1="202.088" x2="256.724" y2= "171.469" />
   <polyline id="_279811120" class="fil0 str0" points="114.638,154.138 118.862,155.108 122.907,155.547 "/>
   <polyline id="_278290280" class="fil0 str0" points="122.907,155.547 124.402,155.195 125.812,154.665 127.043,153.874 128.01,152.731 128.714,151.324 129.241,149.829 129.417,148.155 129.417,146.484 "/>
   <polyline id="_277898936" class="fil0 str0" points="129.417,146.484 128.89,142.613 128.186,140.678 127.307,138.831 126.075,137.07 124.668,135.487 123.083,134.168 121.412,133.025 "/>
   <polyline id="_277441608" class="fil0 str0" points="121.412,133.025 116.925,131.175 112.525,129.856 "/>
   <line id="_277056424" class="fil0 str0" x1="112.525" y1="129.856" x2="110.415" y2= "129.329" />
   <line id="_276301648" class="fil0 str0" x1="110.415" y1="129.329" x2="111.382" y2= "153.346" />
   <line id="_275557296" class="fil0 str0" x1="111.382" y1="153.346" x2="114.638" y2= "154.138" />
   <line id="_274798536" class="fil0 str0" x1="108.92" y1="155.723" x2="107.777" y2= "125.545" />
   <line id="_274205064" class="fil0 str0" x1="107.777" y1="125.545" x2="113.583" y2= "127.042" />
   <polyline id="_273158728" class="fil0 str0" points="113.583,127.042 118.244,128.449 122.819,130.472 "/>
   <polyline id="_272274624" class="fil0 str0" points="122.819,130.472 124.844,132.055 126.691,133.728 128.274,135.663 129.593,137.861 130.651,140.238 131.442,142.525 131.794,144.902 132.058,147.188 "/>
   <polyline id="_212274944" class="fil0 str0" points="132.058,147.188 131.882,150.092 131.706,151.499 131.355,152.907 130.123,155.283 129.329,156.339 128.45,157.218 127.395,157.922 126.252,158.449 124.932,158.801 123.611,158.889 120.709,158.625 117.804,158.098 "/>
   <line id="_272126336" class="fil0 str0" x1="117.804" y1="158.098" x2="108.92" y2= "155.723" />
   <line id="_282057784" class="fil0 str0" x1="132.058" y1="147.188" x2="133.289" y2= "146.221" />
   <line id="_287207280" class="fil0 str0" x1="122.819" y1="130.472" x2="123.963" y2= "129.592" />
   <line id="_296971832" class="fil0 str0" x1="124.138" y1="154.578" x2="126.867" y2= "153.786" />
   <polyline id="_305823408" class="fil0 str0" points="115.869,153.258 120.005,154.226 124.138,154.578 "/>
   <line id="_127949096" class="fil0 str0" x1="112.525" y1="152.379" x2="115.869" y2= "153.258" />
   <line id="_303836336" class="fil0 str0" x1="111.734" y1="129.592" x2="112.525" y2= "152.379" />
   <line id="_305397344" class="fil0 str0" x1="113.583" y1="127.042" x2="114.814" y2= "126.072" />
   <line id="_304784336" class="fil0 str0" x1="122.907" y1="155.547" x2="124.138" y2= "154.578" />
   <line id="_97452984" class="fil0 str0" x1="107.777" y1="125.545" x2="108.92" y2= "124.577" />
   <line id="_305127912" class="fil0 str0" x1="111.382" y1="153.346" x2="112.525" y2= "152.379" />
   <line id="_271697960" class="fil0 str0" x1="103.113" y1="139.359" x2="104.344" y2= "138.391" />
   <polyline id="_303921440" class="fil0 str0" points="92.5554,120.793 95.1056,121.851 96.249,122.643 97.3946,123.61 99.4172,125.896 100.824,128.449 101.88,131.175 102.586,133.904 103.113,139.359 "/>
   <line id="_292996384" class="fil0 str0" x1="92.5554" y1="120.793" x2="93.7865" y2= "119.914" />
   <polyline id="_97947632" class="fil0 str0" points="93.6986,149.477 95.8093,149.653 96.6911,149.477 97.5705,149.035 98.274,148.419 98.8016,147.628 99.681,145.957 "/>
   <polyline id="_200355056" class="fil0 str0" points="99.681,145.957 100.472,142.437 100.56,138.655 "/>
   <polyline id="_120586456" class="fil0 str0" points="100.56,138.655 100.121,134.432 99.681,132.319 98.9775,130.208 97.9222,128.098 96.5152,126.248 94.6659,124.841 92.7313,123.962 "/>
   <polyline id="_194664976" class="fil0 str0" points="92.7313,123.962 90.7966,123.786 89.9146,123.962 89.1232,124.314 87.8041,125.457 86.9247,127.042 86.3971,128.801 86.1333,130.824 86.1333,134.871 "/>
   <polyline id="_305569432" class="fil0 str0" points="86.1333,134.871 86.4851,139.095 86.8368,141.206 87.5403,143.316 88.5076,145.429 90.0026,147.276 91.7639,148.683 93.6986,149.477 "/>
   <polyline id="_306522168" class="fil0 str0" points="83.4926,134.256 83.5805,129.065 84.0202,126.6 84.8116,124.314 85.3419,123.346 86.0454,122.467 86.9247,121.675 87.8921,121.145 88.8594,120.706 90.0905,120.53 92.5554,120.793 "/>
   <polyline id="_305221512" class="fil0 str0" points="103.113,139.359 103.113,141.997 102.937,144.55 102.498,147.012 101.616,149.211 101.088,150.18 100.297,151.06 99.5051,151.763 98.5378,152.291 97.3946,152.731 96.249,152.907 93.6986,152.555 "/>
   <polyline id="_298565248" class="fil0 str0" points="93.6986,152.555 91.2363,151.587 90.0026,150.796 88.9473,149.829 87.0127,147.628 85.6057,144.989 84.6358,142.349 84.0202,139.623 83.4926,134.256 "/>
   <line id="_297053912" class="fil0 str0" x1="114.638" y1="154.138" x2="115.869" y2= "153.258" />
   <polyline id="_290140168" class="fil0 str0" points="94.9297,148.595 96.5152,148.771 97.2187,148.683 97.8343,148.419 "/>
   <polyline id="_287351056" class="fil0 str0" points="87.2765,133.992 87.6283,138.128 88.0679,140.326 88.6835,142.437 89.7388,144.462 91.1484,146.309 92.9951,147.716 94.9297,148.595 "/>
   <polyline id="_284376792" class="fil0 str0" points="89.8267,123.874 88.8594,124.665 88.2438,125.721 87.5403,128.273 87.2765,131.087 87.2765,133.992 "/>
   <line id="_282061144" class="fil0 str0" x1="86.1333" y1="134.871" x2="87.2765" y2= "133.992" />
   <polyline id="_274726592" class="fil0 str0" points="71.5278,143.758 73.5503,143.934 74.5203,143.758 75.3996,143.316 76.1031,142.701 76.6308,141.997 77.5102,140.238 "/>
   <polyline id="_271395208" class="fil0 str0" points="77.5102,140.238 78.2137,136.63 78.3016,132.849 "/>
   <polyline id="_154820120" class="fil0 str0" points="78.3016,132.849 77.9498,128.713 77.5102,126.6 76.7187,124.402 75.6635,122.379 74.2563,120.53 72.4951,119.035 70.5604,118.155 "/>
   <polyline id="_96906168" class="fil0 str0" points="70.5604,118.155 68.6256,118.067 67.7438,118.243 66.9524,118.595 65.5454,119.738 64.666,121.236 64.1382,123.082 63.8744,125.017 63.8744,129.153 "/>
   <polyline id="_388275840" class="fil0 str0" points="63.8744,129.153 64.2261,133.288 64.578,135.487 65.2815,137.598 66.3368,139.623 67.7438,141.469 69.5931,142.964 71.5278,143.758 "/>
   <polyline id="_123429008" class="fil0 str0" points="61.2338,128.449 61.4097,123.258 61.7614,120.793 62.5553,118.507 63.1708,117.54 63.8744,116.66 64.666,115.957 65.6333,115.339 66.6886,114.987 67.8318,114.811 70.3846,115.075 "/>
   <polyline id="_389291144" class="fil0 str0" points="70.3846,115.075 72.8468,116.133 74.0804,116.836 75.2238,117.804 77.1584,120.09 78.6534,122.731 79.7112,125.369 80.4147,128.185 80.9423,133.552 "/>
   <polyline id="_389070472" class="fil0 str0" points="80.9423,133.552 80.9423,136.19 80.7665,138.743 80.3268,141.206 79.4472,143.492 78.8292,144.462 78.1257,145.341 77.2463,146.045 76.279,146.572 75.2238,147.012 74.0804,147.188 71.5278,146.836 "/>
   <polyline id="_154287496" class="fil0 str0" points="71.5278,146.836 69.0653,145.869 67.8318,145.077 66.6886,144.11 64.7539,141.821 63.3467,139.271 62.377,136.542 61.7614,133.816 61.2338,128.449 "/>
   <line id="_154183616" class="fil0 str0" x1="80.9423" y1="133.552" x2="82.1735" y2= "132.673" />
   <line id="_388748808" class="fil0 str0" x1="70.3846" y1="115.075" x2="71.5278" y2= "114.108" />
   <line id="_153888416" class="fil0 str0" x1="93.6986" y1="149.477" x2="94.9297" y2= "148.595" />
   <polyline id="_388500240" class="fil0 str0" points="72.7589,142.877 74.2563,143.052 74.9599,142.964 75.6635,142.701 "/>
   <polyline id="_189761528" class="fil0 str0" points="65.1057,128.185 65.4574,132.407 65.8092,134.52 66.5127,136.63 67.5679,138.743 68.9774,140.59 70.7363,141.997 72.7589,142.877 "/>
   <polyline id="_164692024" class="fil0 str0" points="67.5679,118.067 66.6886,118.859 66.073,120.002 65.2815,122.555 65.0177,125.369 65.1057,128.185 "/>
   <line id="_388217552" class="fil0 str0" x1="63.8744" y1="129.153" x2="65.1057" y2= "128.185" />
   <line id="_392469488" class="fil0 str0" x1="40.2965" y1="108.037" x2="58.1558" y2= "112.701" />
   <line id="_152338832" class="fil0 str0" x1="58.1558" y1="112.701" x2="44.078" y2= "139.799" />
   <line id="_112465656" class="fil0 str0" x1="44.078" y1="139.799" x2="41.7915" y2= "137.861" />
   <line id="_134999960" class="fil0 str0" x1="41.7915" y1="137.861" x2="53.8442" y2= "114.635" />
   <line id="_428903232" class="fil0 str0" x1="53.8442" y1="114.635" x2="40.4724" y2= "111.206" />
   <line id="_134207176" class="fil0 str0" x1="40.4724" y1="111.206" x2="40.2965" y2= "108.037" />
   <line id="_148370744" class="fil0 str0" x1="58.1558" y1="112.701" x2="59.2991" y2= "111.733" />
   <line id="_153317200" class="fil0 str0" x1="40.2965" y1="108.037" x2="41.5276" y2= "107.158" />
   <line id="_133878960" class="fil0 str0" x1="44.078" y1="139.799" x2="45.3092" y2= "138.831" />
   <line id="_108924400" class="fil0 str0" x1="71.5278" y1="143.758" x2="72.7589" y2= "142.877" />
   <polyline id="_147184824" class="fil0 str0" points="162.85,488.02 168.128,489.076 173.583,489.427 178.95,489.076 184.229,487.932 189.332,486.171 194.171,483.709 "/>
   <polyline id="_133066848" class="fil0 str0" points="86.7489,238.686 86.1333,233.583 84.8116,228.658 82.9649,223.819 80.5906,219.331 77.5981,215.108 74.1683,211.326 70.2966,207.982 66.073,205.078 61.4976,202.791 56.6584,201.032 "/>
   <line id="_391249080" class="fil0 str0" x1="66.5127" y1="463.033" x2="162.85" y2= "488.02" />
   <line id="_145815128" class="fil0 str0" x1="64.3142" y1="402.59" x2="66.5127" y2= "463.033" />
   <polyline id="_382816328" class="fil0 str0" points="92.0278,379.804 91.8519,384.467 90.9725,388.779 89.387,392.739 87.1886,396.168 84.3719,398.985 81.0303,401.183 77.2463,402.678 73.1986,403.384 68.8015,403.384 64.3142,402.59 "/>
   <line id="_145839216" class="fil0 str0" x1="86.7489" y1="238.686" x2="92.0278" y2= "379.804" />
   <line id="_127722472" class="fil0 str0" x1="194.171" y1="483.709" x2="230.242" y2= "455.907" />
   <polyline id="_125954568" class="fil0 str0" points="230.242,455.907 232.003,454.412 233.234,452.387 233.674,450.101 "/>
   <polyline id="_168554376" class="fil0 str0" points="75.5755,373.206 71.9674,377.254 69.0653,381.741 66.7765,386.668 65.1936,391.859 64.4022,397.138 64.3142,402.59 "/>
   <polyline id="_171519584" class="fil0 str0" points="178.774,488.988 178.598,489.076 174.111,491.098 169.184,492.859 163.817,494.266 158.098,495.41 152.204,496.113 146.133,496.465 140.063,496.553 134.081,496.201 128.362,495.498 122.907,494.442 117.892,493.035 113.319,491.274 109.359,489.251 106.015,487.05 103.377,484.588 101.528,481.95 100.472,479.221 100.209,477.286 "/>
   <polyline id="_186843088" class="fil0 str0" points="66.5127,463.033 62.995,461.889 60.0906,460.395 57.892,458.721 56.4825,456.786 55.867,454.764 55.867,454.676 "/>
   <line id="_126805576" class="fil0 str0" x1="76.6308" y1="509.133" x2="115.342" y2= "519.163" />
   <polyline id="_106928208" class="fil0 str0" points="76.4549,508.869 76.4549,508.869 76.4549,508.957 76.4549,508.957 76.4549,509.045 76.4549,509.045 76.5428,509.133 76.5428,509.133 76.6308,509.133 "/>
   <line id="_160090648" class="fil0 str0" x1="81.6459" y1="504.912" x2="76.4549" y2= "508.869" />
   <line id="_388744728" class="fil0 str0" x1="121.148" y1="515.116" x2="81.6459" y2= "504.912" />
   <line id="_154723688" class="fil0 str0" x1="115.957" y1="519.075" x2="121.148" y2= "515.116" />
   <line id="_70352448" class="fil0 str0" x1="115.342" y1="519.163" x2="115.957" y2= "519.075" />
   <line id="_141893616" class="fil0 str0" x1="115.342" y1="519.779" x2="115.342" y2= "519.163" />
   <line id="_202357384" class="fil0 str0" x1="115.957" y1="519.075" x2="115.957" y2= "519.691" />
   <line id="_207777528" class="fil0 str0" x1="115.342" y1="519.779" x2="115.957" y2= "519.691" />
   <line id="_124226560" class="fil0 str0" x1="76.6308" y1="509.133" x2="76.6308" y2= "509.751" />
   <line id="_123386448" class="fil0 str0" x1="76.6308" y1="509.751" x2="115.342" y2= "519.779" />
   <line id="_170249512" class="fil0 str0" x1="122.468" y1="514.5" x2="122.468" y2= "514.676" />
   <line id="_170519896" class="fil0 str0" x1="121.148" y1="515.116" x2="121.148" y2= "515.558" />
   <line id="_169934072" class="fil0 str0" x1="121.148" y1="515.558" x2="122.468" y2= "514.5" />
   <line id="_169127904" class="fil0 str0" x1="115.957" y1="519.691" x2="122.468" y2= "514.676" />
   <line id="_210443160" class="fil0 str0" x1="83.2287" y1="504.121" x2="82.0855" y2= "505" />
   <line id="_127605952" class="fil0 str0" x1="83.8443" y1="503.854" x2="83.2287" y2= "504.121" />
   <line id="_207253048" class="fil0 str0" x1="88.9473" y1="501.832" x2="83.8443" y2= "503.854" />
   <line id="_392054688" class="fil0 str0" x1="88.9473" y1="501.832" x2="89.475" y2= "501.568" />
   <line id="_299067256" class="fil0 str0" x1="92.9071" y1="498.93" x2="89.475" y2= "501.568" />
   <line id="_133125120" class="fil0 str0" x1="135.312" y1="509.927" x2="92.9071" y2= "498.93" />
   <line id="_472820544" class="fil0 str0" x1="132.146" y1="512.302" x2="135.312" y2= "509.927" />
   <line id="_71048008" class="fil0 str0" x1="130.915" y1="512.829" x2="132.146" y2= "512.302" />
   <line id="_371957400" class="fil0 str0" x1="123.787" y1="514.06" x2="130.915" y2= "512.829" />
   <line id="_96569920" class="fil0 str0" x1="123.787" y1="514.06" x2="122.468" y2= "514.5" />
   <line id="_191028616" class="fil0 str0" x1="123.787" y1="514.06" x2="123.787" y2= "514.236" />
   <line id="_397145568" class="fil0 str0" x1="130.915" y1="512.829" x2="130.915" y2= "513.005" />
   <line id="_68560824" class="fil0 str0" x1="123.787" y1="514.236" x2="130.915" y2= "513.005" />
   <line id="_205647728" class="fil0 str0" x1="123.787" y1="514.236" x2="122.468" y2= "514.676" />
   <line id="_184629448" class="fil0 str0" x1="132.146" y1="512.302" x2="132.146" y2= "512.478" />
   <line id="_68561552" class="fil0 str0" x1="130.915" y1="513.005" x2="132.146" y2= "512.478" />
   <line id="_309554968" class="fil0 str0" x1="135.312" y1="509.927" x2="135.312" y2= "510.103" />
   <line id="_319549136" class="fil0 str0" x1="135.312" y1="510.103" x2="133.817" y2= "511.246" />
   <line id="_319548056" class="fil0 str0" x1="132.146" y1="512.478" x2="133.817" y2= "511.246" />
   <line id="_316628192" class="fil0 str0" x1="81.2941" y1="498.578" x2="81.2941" y2= "497.608" />
   <line id="_321232904" class="fil0 str0" x1="81.2941" y1="497.608" x2="91.3243" y2= "500.161" />
   <line id="_319569928" class="fil0 str0" x1="133.817" y1="511.246" x2="136.721" y2= "511.95" />
   <line id="_319180440" class="fil0 str0" x1="136.721" y1="511.95" x2="136.809" y2= "513.005" />
   <line id="_314550496" class="fil0 str0" x1="136.809" y1="513.005" x2="132.849" y2= "511.95" />
   <line id="_314730696" class="fil0 str0" x1="90.3543" y1="500.952" x2="81.2941" y2= "498.578" />
   <line id="_315182872" class="fil0 str0" x1="132.234" y1="508.694" x2="101.44" y2= "500.689" />
   <line id="_315361800" class="fil0 str0" x1="133.817" y1="507.462" x2="132.234" y2= "508.694" />
   <line id="_315541608" class="fil0 str0" x1="101.616" y1="481.95" x2="81.2941" y2= "497.608" />
   <line id="_315812936" class="fil0 str0" x1="136.721" y1="511.95" x2="158.365" y2= "495.322" />
   <line id="_298881920" class="fil0 str0" x1="160.123" y1="495.058" x2="136.809" y2= "513.005" />
   <line id="_295435472" class="fil0 str0" x1="132.234" y1="507.287" x2="133.729" y2= "506.055" />
   <line id="_311326568" class="fil0 str0" x1="101.352" y1="499.282" x2="132.234" y2= "507.287" />
   <line id="_313041008" class="fil0 str0" x1="102.937" y1="498.136" x2="101.352" y2= "499.282" />
   <line id="_203893744" class="fil0 str0" x1="133.729" y1="506.055" x2="102.937" y2= "498.136" />
   <line id="_410120032" class="fil0 str0" x1="101.352" y1="499.282" x2="101.44" y2= "500.689" />
   <line id="_134347856" class="fil0 str0" x1="132.234" y1="507.287" x2="132.234" y2= "508.694" />
   <line id="_132592384" class="fil0 str0" x1="133.817" y1="507.462" x2="133.729" y2= "506.055" />
   <line id="_132647808" class="fil0 str0" x1="101.88" y1="482.477" x2="87.5403" y2= "493.563" />
   <line id="_121299424" class="fil0 str0" x1="141.648" y1="505.352" x2="153.877" y2= "495.937" />
   <line id="_129473920" class="fil0 str0" x1="140.679" y1="505.528" x2="141.648" y2= "505.352" />
   <line id="_101124984" class="fil0 str0" x1="101.352" y1="495.322" x2="140.679" y2= "505.528" />
   <line id="_127183376" class="fil0 str0" x1="101.352" y1="495.322" x2="100.472" y2= "495.498" />
   <line id="_101215376" class="fil0 str0" x1="99.0654" y1="496.465" x2="100.472" y2= "495.498" />
   <line id="_149775176" class="fil0 str0" x1="98.0981" y1="496.641" x2="99.0654" y2= "496.465" />
   <line id="_101162048" class="fil0 str0" x1="87.8041" y1="494.003" x2="98.0981" y2= "496.641" />
   <polyline id="_192810288" class="fil0 str0" points="87.5403,493.563 87.4524,493.651 87.4524,493.651 87.4524,493.739 87.4524,493.827 87.5403,493.827 87.5403,493.915 87.6283,493.915 87.8041,494.003 "/>
   <polyline id="_132210032" class="fil0 str0" points="76.6308,509.751 76.5428,509.751 76.5428,509.751 76.4549,509.661 76.4549,509.661 76.4549,509.573 "/>
   <line id="_125274696" class="fil0 str0" x1="101.528" y1="497.432" x2="100.912" y2= "495.41" />
   <polyline id="_128778048" class="fil0 str0" points="101.352,495.322 101.264,495.322 101.176,495.322 101.088,495.322 101,495.41 100.912,495.41 "/>
   <line id="_124475576" class="fil0 str0" x1="140.679" y1="505.528" x2="141.294" y2= "505.616" />
   <line id="_101568112" class="fil0 str0" x1="142" y1="507.902" x2="141.294" y2= "505.616" />
   <line id="_100288552" class="fil0 str0" x1="101.528" y1="497.432" x2="142" y2= "507.902" />
   <line id="_162262768" class="fil0 str0" x1="141.294" y1="505.616" x2="141.648" y2= "505.352" />
   <line id="_101985936" class="fil0 str0" x1="142" y1="507.902" x2="158.365" y2= "495.322" />
   <polyline id="_100895352" class="fil0 str0" points="100.912,495.41 100.736,495.41 100.648,495.41 100.56,495.41 100.472,495.498 "/>
   <line id="_99420144" class="fil0 str0" x1="98.7137" y1="496.817" x2="99.4172" y2= "499.106" />
   <line id="_414291184" class="fil0 str0" x1="98.7137" y1="496.817" x2="99.0654" y2= "496.465" />
   <line id="_123129608" class="fil0 str0" x1="99.4172" y1="499.106" x2="101.528" y2= "497.432" />
   <line id="_126055112" class="fil0 str0" x1="98.7137" y1="496.817" x2="98.0981" y2= "496.641" />
   <line id="_131007400" class="fil0 str0" x1="87.1886" y1="493.827" x2="84.3719" y2= "495.234" />
   <line id="_127169624" class="fil0 str0" x1="87.8041" y1="494.003" x2="87.1886" y2= "493.827" />
   <line id="_128094344" class="fil0 str0" x1="84.3719" y1="495.234" x2="99.4172" y2= "499.106" />
   <line id="_144912288" class="fil0 str0" x1="87.1886" y1="493.827" x2="87.5403" y2= "493.563" />
   <line id="_418772048" class="fil0 str0" x1="101.616" y1="481.95" x2="84.3719" y2= "495.234" />
   <polyline id="_421587096" class="fil0 str0" points="87.8041,494.003 87.6283,493.915 87.5403,493.915 87.5403,493.827 87.4524,493.827 87.4524,493.739 87.4524,493.651 87.4524,493.651 87.5403,493.563 "/>
   <polyline id="_424666048" class="fil0 str1" points="157.571,216.957 157.395,216.867 156.427,216.339 155.636,215.372 155.02,214.052 154.581,212.469 154.405,210.532 "/>
   <polyline id="_422867384" class="fil0 str1" points="214.317,208.598 215.902,206.751 216.782,204.55 216.958,202.088 "/>
   <polyline id="_110876120" class="fil0 str1" points="28.505,183.525 28.3291,183.525 27.3618,182.907 26.5703,182.027 25.9548,180.708 25.5151,179.037 25.3392,177.188 "/>
   <polyline id="_420316248" class="fil0 str1" points="235.257,35.8059 233.586,35.8939 232.091,36.7757 "/>
   <polyline id="_202698704" class="fil0 str1" points="252.94,70.7356 255.669,68.5346 257.867,65.7205 259.274,62.4642 259.804,59.032 "/>
   <polyline id="_201094896" class="fil0 str1" points="253.998,178.07 255.581,176.221 256.548,173.934 256.724,171.469 "/>
   <polyline id="_391153408" class="fil0 str1" points="256.724,171.469 259.538,169.359 261.651,166.545 263.058,163.289 263.586,159.768 "/>
   <polyline id="_426025952" class="fil0 str1" points="21.5553,76.3663 16.3643,74.7808 11.701,72.8461 7.74376,70.5597 4.57539,68.0069 2.20088,65.3688 0.705926,62.4642 0.175877,59.5623 "/>
   <polyline id="_419830360" class="fil0 str1" points="16.3643,40.2934 14.0779,39.9416 11.8793,40.2934 9.76634,41.3487 "/>
   <polyline id="_99037472" class="fil0 str1" points="3.95982,160.384 4.57539,163.201 5.9824,166.103 8.35933,168.831 11.5251,171.382 15.4849,173.583 20.1483,175.517 25.3392,177.188 "/>
   <line id="_433675720" class="fil0 str1" x1="162.85" y1="488.02" x2="152.646" y2= "215.635" />
   <line id="_429367984" class="fil0 str1" x1="184.229" y1="218.804" x2="194.171" y2= "483.709" />
   <line id="_423104912" class="fil0 str1" x1="56.3066" y1="190.738" x2="56.6584" y2= "201.032" />
   <line id="_403090952" class="fil0 str1" x1="230.242" y1="455.907" x2="220.742" y2= "203.583" />
   <polyline id="_99585840" class="fil0 str1" points="106.191,2.46158 104.52,2.54952 103.025,3.34356 "/>
   <polyline id="_144440392" class="fil0 str1" points="56.0428,9.76565 53.7563,9.4139 51.5578,9.85359 49.5328,10.8209 "/>
   <polyline id="_387686496" class="fil0 str1" points="86.7489,238.686 83.2287,237.542 80.3268,236.135 78.0378,234.376 76.6308,232.439 76.1031,230.417 76.1031,230.417 "/>
   <polyline id="_386264672" class="fil0 str1" points="56.6584,201.032 57.1005,204.814 57.892,207.982 59.1231,210.62 60.7941,212.557 62.6432,213.613 62.907,213.701 "/>
   <polyline id="_192188696" class="fil0 str1" points="46.0151,192.585 46.0151,192.761 46.6307,194.786 48.0377,196.721 50.2363,198.392 53.1407,199.887 56.6584,201.032 "/>
   <polyline id="_462949656" class="fil0 str1" points="92.0278,379.804 88.5076,378.661 85.6057,377.254 83.4046,375.495 81.9097,373.558 81.382,371.535 81.382,371.447 "/>
   <polyline id="_108118792" class="fil0 str1" points="75.5755,373.206 77.5102,373.47 79.5352,373.294 81.47,372.59 "/>
   <polyline id="_208892288" class="fil0 str1" points="64.3142,402.59 60.7062,401.447 57.804,399.952 55.6031,398.193 54.1961,396.344 53.5804,394.322 53.5804,394.146 "/>
   <polyline id="_116125496" class="fil0 str1" points="75.5755,373.206 72.8468,372.59 70.1207,372.59 67.3921,373.03 64.8418,373.909 62.4649,375.319 "/>
   <line id="_456793040" class="fil0 str1" x1="75.5755" y1="373.206" x2="81.2941" y2= "368.806" />
   <polyline id="_467856752" class="fil0 str0" points="217.397,612.862 217.397,578.814 231.121,578.814 "/>
   <line id="_110955248" class="fil0 str0" x1="217.397" y1="595.882" x2="224.259" y2= "595.882" />
   <line id="_98943400" class="fil0 str0" x1="217.397" y1="612.862" x2="231.121" y2= "612.862" />
   <polyline id="_177985112" class="fil0 str0" points="238.073,612.862 238.073,578.814 248.367,578.814 251.797,584.445 251.797,590.164 248.367,595.882 238.073,595.882 "/>
   <polyline id="_71970544" class="fil0 str0" points="258.659,612.862 268.953,612.862 272.473,607.232 272.473,584.445 268.953,578.814 258.659,578.814 "/>
   <line id="_144379336" class="fil0 str0" x1="262.091" y1="578.814" x2="262.091" y2= "612.862" />
   <polyline id="_70259376" class="fil0 str0" points="299.923,612.862 299.923,578.814 310.214,578.814 313.646,584.445 313.646,590.164 310.214,595.882 299.923,595.882 "/>
   <polyline id="_128103264" class="fil0 str0" points="320.508,612.862 320.508,601.513 327.46,578.814 334.322,601.513 334.322,612.862 "/>
   <line id="_96590208" class="fil0 str0" x1="320.508" y1="601.513" x2="334.322" y2= "601.513" />
   <polyline id="_436847984" class="fil0 str0" points="341.184,612.862 341.184,578.814 354.908,612.862 354.908,578.814 "/>
   <polyline id="_110205304" class="fil0 str0" points="361.772,612.862 361.772,578.814 375.496,578.814 "/>
   <line id="_98829704" class="fil0 str0" x1="361.772" y1="595.882" x2="368.634" y2= "595.882" />
   <line id="_109971752" class="fil0 str0" x1="361.772" y1="612.862" x2="375.496" y2= "612.862" />
   <polyline id="_394402128" class="fil0 str0" points="382.445,578.814 382.445,612.862 396.172,612.862 "/>
   <polygon id="_108488688" class="fil1" points="123.347,539.312 98.8016,514.94 129.857,529.985 "/>
   <polygon id="_109332600" class="fil0 str2" points="123.347,539.312 98.8016,514.94 129.857,529.985 "/>
   <line id="_125532968" class="fil0 str0" x1="126.603" y1="534.649" x2="211.767" y2= "595.003" />
   <polyline id="_148005320" class="fil0 str0" points="336.96,293.849 350.686,293.849 340.392,327.897 "/>
   <polygon id="_99623888" class="fil0 str0" points="360.98,327.897 357.548,322.178 357.548,299.48 360.98,293.849 364.41,293.849 367.93,299.48 367.93,322.178 364.41,327.897 "/>
   <polygon id="_123630528" class="fil0 str0" points="378.224,327.897 374.792,322.178 374.792,299.48 378.224,293.849 381.654,293.849 385.086,299.48 385.086,322.178 381.654,327.897 "/>
   <polyline id="_391986128" class="fil0 str0" points="391.948,327.897 402.33,327.897 405.76,322.178 405.76,299.48 402.33,293.849 391.948,293.849 "/>
   <line id="_70750168" class="fil0 str0" x1="395.38" y1="293.849" x2="395.38" y2= "327.897" />
   <polygon id="_100876568" class="fil1" points="259.274,298.512 227.515,284.965 262.003,287.427 "/>
   <polygon id="_120719384" class="fil0 str2" points="259.274,298.512 227.515,284.965 262.003,287.427 "/>
   <line id="_211047512" class="fil0 str0" x1="260.684" y1="292.97" x2="331.242" y2= "310.125" />
  </g>
 </g>
</svg>
