<?xml version="1.0" encoding="UTF-8"?>
<!DOCTYPE svg PUBLIC "-//W3C//DTD SVG 1.1//EN" "http://www.w3.org/Graphics/SVG/1.1/DTD/svg11.dtd">
<!-- Creator: CorelDRAW -->
<svg xmlns="http://www.w3.org/2000/svg" xml:space="preserve" width="151.12mm" height="152.741mm" style="shape-rendering:geometricPrecision; text-rendering:geometricPrecision; image-rendering:optimizeQuality; fill-rule:evenodd; clip-rule:evenodd"
viewBox="0 0 198.471 200.6"
 xmlns:xlink="http://www.w3.org/1999/xlink">
 <defs>
  <style type="text/css">
   <![CDATA[
    .str0 {stroke:black;stroke-width:0.0766988}
    .str1 {stroke:black;stroke-width:0.180846}
    .fil0 {fill:none}
    .fil1 {fill:black}
   ]]>
  </style>
 </defs>
 <g id="圖層_x0020_1">
  <metadata id="CorelCorpID_0Corel-Layer"/>
  <g id="_69814560">
   <line id="_69218168" class="fil0 str0" x1="0.556066" y1="43.5719" x2="0.939561" y2= "43.3418" />
   <line id="_71555672" class="fil0 str0" x1="4.81351" y1="43.3418" x2="78.2072" y2= "0.958735" />
   <line id="_70545360" class="fil0 str0" x1="151.812" y1="0.728639" x2="152.54" y2= "0.728639" />
   <line id="_69882176" class="fil0 str0" x1="71.9551" y1="2.39723" x2="148.954" y2= "2.39723" />
   <line id="_69794480" class="fil0 str0" x1="78.3798" y1="43.5719" x2="78.9934" y2= "43.2074" />
   <line id="_35180328" class="fil0 str0" x1="152.138" y1="0.97791" x2="152.54" y2= "0.728639" />
   <line id="_69891560" class="fil0 str0" x1="79.6263" y1="47.1581" x2="152.176" y2= "5.25466" />
   <line id="_71023832" class="fil0 str0" x1="76.7113" y1="42.6512" x2="149.242" y2= "0.747814" />
   <line id="_69903920" class="fil0 str0" x1="0.556066" y1="43.5719" x2="0.824644" y2= "43.5719" />
   <line id="_69908336" class="fil0 str0" x1="70.8044" y1="43.5719" x2="78.3798" y2= "43.5719" />
   <line id="_69941920" class="fil0 str0" x1="3.29844" y1="41.8074" x2="79.818" y2= "41.8074" />
   <line id="_69808920" class="fil0 str0" x1="0.805469" y1="47.5418" x2="77.325" y2= "47.5418" />
   <line id="_71950440" class="fil0 str0" x1="15.6491" y1="183.934" x2="15.6491" y2= "186.274" />
   <line id="_71705808" class="fil0 str0" x1="51.0705" y1="183.934" x2="51.0705" y2= "186.274" />
   <line id="_70299952" class="fil0 str0" x1="7.55588" y1="190.934" x2="19.6956" y2= "183.934" />
   <line id="_70299688" class="fil0 str0" x1="42.9775" y1="190.934" x2="55.117" y2= "183.934" />
   <line id="_71024592" class="fil0 str0" x1="142.434" y1="145.77" x2="144.447" y2= "145.77" />
   <line id="_71746720" class="fil0 str0" x1="109.39" y1="164.852" x2="111.423" y2= "164.852" />
   <line id="_71748384" class="fil0 str0" x1="119.516" y1="163.145" x2="137.447" y2= "152.771" />
   <line id="_71749912" class="fil0 str0" x1="86.492" y1="182.208" x2="104.404" y2= "171.852" />
   <line id="_71751224" class="fil0 str0" x1="104.404" y1="166.559" x2="104.404" y2= "171.852" />
   <line id="_71883504" class="fil0 str0" x1="137.447" y1="148.647" x2="137.447" y2= "152.771" />
   <line id="_69923472" class="fil0 str0" x1="137.447" y1="152.771" x2="144.447" y2= "152.771" />
   <line id="_69832000" class="fil0 str0" x1="104.404" y1="171.852" x2="111.423" y2= "171.852" />
   <line id="_69848600" class="fil0 str0" x1="7.55588" y1="192.104" x2="21.7093" y2= "183.934" />
   <line id="_35171272" class="fil0 str0" x1="42.9775" y1="192.104" x2="57.1306" y2= "183.934" />
   <line id="_69830264" class="fil0 str0" x1="144.447" y1="145.77" x2="152.54" y2= "141.091" />
   <line id="_69824872" class="fil0 str0" x1="111.423" y1="164.852" x2="119.516" y2= "160.173" />
   <line id="_69823064" class="fil0 str0" x1="78.3798" y1="183.934" x2="86.492" y2= "179.255" />
   <line id="_69234200" class="fil0 str0" x1="78.3798" y1="190.934" x2="152.54" y2= "148.11" />
   <line id="_69892104" class="fil0 str0" x1="86.492" y1="178.085" x2="86.492" y2= "186.274" />
   <line id="_69887576" class="fil0 str0" x1="111.423" y1="163.683" x2="111.423" y2= "171.852" />
   <line id="_35242896" class="fil0 str0" x1="119.516" y1="159.003" x2="119.516" y2= "167.192" />
   <line id="_69858064" class="fil0 str0" x1="144.447" y1="144.601" x2="144.447" y2= "152.771" />
   <line id="_71726440" class="fil0 str0" x1="78.3798" y1="182.765" x2="152.54" y2= "139.921" />
   <line id="_71029336" class="fil0 str0" x1="60.6786" y1="182.765" x2="64.7251" y2= "180.425" />
   <line id="_71758040" class="fil0 str0" x1="42.9775" y1="182.765" x2="47.024" y2= "180.425" />
   <line id="_70986448" class="fil0 str0" x1="25.2572" y1="182.765" x2="29.323" y2= "180.425" />
   <line id="_71675888" class="fil0 str0" x1="7.55588" y1="182.765" x2="11.6027" y2= "180.425" />
   <line id="_71682544" class="fil0 str0" x1="71.3797" y1="181.595" x2="78.3798" y2= "181.595" />
   <line id="_71710424" class="fil0 str0" x1="53.6785" y1="181.595" x2="60.6786" y2= "181.595" />
   <line id="_71926960" class="fil0 str0" x1="35.9582" y1="181.595" x2="42.9775" y2= "181.595" />
   <line id="_71953264" class="fil0 str0" x1="18.2572" y1="181.595" x2="25.2572" y2= "181.595" />
   <line id="_69554896" class="fil0 str0" x1="71.3797" y1="192.104" x2="78.3798" y2= "192.104" />
   <line id="_71926504" class="fil0 str0" x1="71.3797" y1="190.934" x2="78.3798" y2= "190.934" />
   <line id="_71712672" class="fil0 str0" x1="35.9582" y1="192.104" x2="42.9775" y2= "192.104" />
   <line id="_71676960" class="fil0 str0" x1="35.9582" y1="190.934" x2="42.9775" y2= "190.934" />
   <line id="_71670312" class="fil0 str0" x1="71.3797" y1="181.595" x2="73.3936" y2= "180.425" />
   <line id="_71658008" class="fil0 str0" x1="60.6786" y1="181.595" x2="62.6922" y2= "180.425" />
   <line id="_71659104" class="fil0 str0" x1="53.6785" y1="181.595" x2="55.6923" y2= "180.425" />
   <line id="_71645736" class="fil0 str0" x1="42.9775" y1="181.595" x2="44.9912" y2= "180.425" />
   <line id="_71687616" class="fil0 str0" x1="35.9582" y1="181.595" x2="37.9911" y2= "180.425" />
   <line id="_70565840" class="fil0 str0" x1="25.2572" y1="181.595" x2="27.2901" y2= "180.425" />
   <line id="_71847816" class="fil0 str0" x1="18.2572" y1="181.595" x2="20.2708" y2= "180.425" />
   <line id="_69318560" class="fil0 str0" x1="7.55588" y1="181.595" x2="9.5888" y2= "180.425" />
   <line id="_69807608" class="fil0 str0" x1="7.55588" y1="181.595" x2="7.55588" y2= "192.104" />
   <line id="_69956992" class="fil0 str0" x1="18.2572" y1="181.595" x2="18.2572" y2= "182.765" />
   <line id="_71665712" class="fil0 str0" x1="35.9582" y1="181.595" x2="35.9582" y2= "192.104" />
   <line id="_34365080" class="fil0 str0" x1="25.2572" y1="181.595" x2="25.2572" y2= "182.765" />
   <line id="_71634904" class="fil0 str0" x1="42.9775" y1="181.595" x2="42.9775" y2= "192.104" />
   <line id="_71633728" class="fil0 str0" x1="53.6785" y1="181.595" x2="53.6785" y2= "182.765" />
   <line id="_71632552" class="fil0 str0" x1="60.6786" y1="181.595" x2="60.6786" y2= "182.765" />
   <line id="_71632696" class="fil0 str0" x1="71.3797" y1="181.595" x2="71.3797" y2= "192.104" />
   <line id="_71630192" class="fil0 str0" x1="0.556066" y1="182.765" x2="78.3798" y2= "182.765" />
   <line id="_71630472" class="fil0 str0" x1="0.556066" y1="183.934" x2="78.3798" y2= "183.934" />
   <line id="_71627688" class="fil0 str0" x1="0.556066" y1="190.934" x2="7.55588" y2= "190.934" />
   <line id="_71628232" class="fil0 str0" x1="152.54" y1="138.751" x2="152.54" y2= "149.28" />
   <line id="_71627056" class="fil0 str0" x1="0.556066" y1="181.595" x2="0.556066" y2= "192.104" />
   <line id="_71625880" class="fil0 str0" x1="78.3798" y1="192.104" x2="152.54" y2= "149.28" />
   <line id="_71626024" class="fil0 str0" x1="0.556066" y1="192.104" x2="7.55588" y2= "192.104" />
   <line id="_71623520" class="fil0 str0" x1="78.3798" y1="181.595" x2="78.3798" y2= "192.104" />
   <line id="_71623800" class="fil0 str0" x1="0.556066" y1="181.595" x2="2.56967" y2= "180.425" />
   <line id="_71660832" class="fil0 str0" x1="78.3798" y1="181.595" x2="152.54" y2= "138.751" />
   <line id="_71661376" class="fil0 str0" x1="0.556066" y1="181.595" x2="7.55588" y2= "181.595" />
   <line id="_71644200" class="fil0 str0" x1="78.3798" y1="180.425" x2="152.54" y2= "137.601" />
   <line id="_71613136" class="fil0 str0" x1="0.556066" y1="180.425" x2="78.3798" y2= "180.425" />
   <line id="_71613280" class="fil0 str0" x1="0.556066" y1="181.595" x2="78.3798" y2= "181.595" />
   <line id="_71610776" class="fil0 str0" x1="0.556066" y1="180.425" x2="0.556066" y2= "181.595" />
   <line id="_71611056" class="fil0 str0" x1="152.54" y1="137.601" x2="152.54" y2= "138.751" />
   <line id="_71608272" class="fil0 str0" x1="78.3798" y1="181.595" x2="152.54" y2= "138.751" />
   <line id="_71608816" class="fil0 str0" x1="78.3798" y1="180.425" x2="78.3798" y2= "181.595" />
   <line id="_71607640" class="fil0 str0" x1="0.556066" y1="43.9362" x2="0.556066" y2= "43.5719" />
   <line id="_71606536" class="fil0 str0" x1="78.3798" y1="43.9746" x2="78.3798" y2= "43.5719" />
   <line id="_71605424" class="fil0 str0" x1="82.2919" y1="179.293" x2="82.2919" y2= "42.5365" />
   <line id="_71604312" class="fil0 str0" x1="74.4865" y1="180.425" x2="74.4865" y2= "43.9746" />
   <line id="_70357512" class="fil0 str0" x1="152.54" y1="1.51493" x2="152.54" y2= "0.728639" />
   <line id="_70357792" class="fil0 str0" x1="152.003" y1="137.908" x2="152.003" y2= "2.39723" />
   <line id="_70338560" class="fil0 str0" x1="120.993" y1="43.15" x2="120.993" y2= "23.2626" />
   <line id="_70339160" class="fil0 str0" x1="101.777" y1="54.254" x2="101.777" y2= "34.3665" />
   <line id="_70748896" class="fil0 str0" x1="2.26288" y1="152.253" x2="74.4865" y2= "152.253" />
   <line id="_70336504" class="fil0 str0" x1="2.26288" y1="71.725" x2="74.4865" y2= "71.725" />
   <line id="_70337000" class="fil0 str0" x1="82.2919" y1="121.856" x2="151.006" y2= "82.1576" />
   <line id="_70335800" class="fil0 str0" x1="82.2919" y1="150.009" x2="151.006" y2= "110.33" />
   <line id="_70334488" class="fil0 str0" x1="81.6016" y1="17.0681" x2="120.993" y2= "17.0681" />
   <line id="_69333712" class="fil0 str0" x1="69.5962" y1="29.2845" x2="99.8205" y2= "29.2845" />
   <line id="_69334208" class="fil0 str0" x1="0.364319" y1="43.8787" x2="0.556066" y2= "43.7636" />
   <line id="_71036984" class="fil0 str0" x1="0.383494" y1="43.9362" x2="2.26288" y2= "43.9362" />
   <line id="_71115896" class="fil0 str0" x1="2.26288" y1="43.9362" x2="2.26288" y2= "180.425" />
   <line id="_107179024" class="fil0 str0" x1="1.80255" y1="44.2048" x2="2.26288" y2= "43.9362" />
   <line id="_107179520" class="fil0 str0" x1="1.80255" y1="43.9362" x2="1.80255" y2= "180.425" />
   <line id="_70985040" class="fil0 str0" x1="0.0575241" y1="43.8213" x2="0.556066" y2= "43.5335" />
   <line id="_71223672" class="fil0 str0" x1="0.249271" y1="44.2048" x2="1.80255" y2= "44.2048" />
   <line id="_71114488" class="fil0 str0" x1="0.0383494" y1="43.9554" x2="0.0383494" y2= "179.811" />
   <polyline id="_71115088" class="fil0 str0" points="0.0575241,43.8213 0.0575241,44.0513 0.249271,44.2048 "/>
   <line id="_71115232" class="fil0 str0" x1="0.0383494" y1="179.811" x2="0.556066" y2= "180.425" />
   <polyline id="_70954936" class="fil0 str0" points="0.364319,43.8787 0.345145,43.898 0.364319,43.9172 0.383494,43.9362 "/>
   <line id="_70744552" class="fil0 str0" x1="74.4865" y1="43.9746" x2="78.3798" y2= "43.9746" />
   <line id="_70740840" class="fil0 str0" x1="78.3798" y1="43.9746" x2="81.8319" y2= "41.9801" />
   <line id="_71014328" class="fil0 str0" x1="74.4865" y1="44.7802" x2="77.325" y2= "44.7802" />
   <line id="_71014944" class="fil0 str0" x1="79.6263" y1="44.0704" x2="82.2919" y2= "42.5365" />
   <line id="_71015088" class="fil0 str0" x1="81.8319" y1="41.9801" x2="82.2919" y2= "42.5365" />
   <line id="_70751000" class="fil0 str0" x1="151.006" y1="2.39723" x2="152.866" y2= "1.32319" />
   <line id="_70751616" class="fil0 str0" x1="152.003" y1="2.39723" x2="153.423" y2= "1.57233" />
   <line id="_70816440" class="fil0 str0" x1="151.006" y1="2.39723" x2="152.003" y2= "2.39723" />
   <line id="_70331936" class="fil0 str0" x1="151.006" y1="138.483" x2="151.006" y2= "2.39723" />
   <line id="_70332552" class="fil0 str0" x1="152.54" y1="1.11226" x2="152.809" y2= "1.11226" />
   <polyline id="_70331208" class="fil0 str0" points="153.423,1.59163 153.614,1.28484 153.538,0.920255 153.212,0.728639 "/>
   <line id="_70331736" class="fil0 str0" x1="152.54" y1="0.728639" x2="153.25" y2= "0.728639" />
   <polyline id="_70330512" class="fil0 str0" points="152.866,1.32319 152.905,1.24636 152.886,1.15048 152.809,1.11226 "/>
   <line id="_70330728" class="fil0 str0" x1="153.614" y1="135.28" x2="153.614" y2= "1.30401" />
   <line id="_71556744" class="fil0 str0" x1="78.073" y1="43.5719" x2="79.818" y2= "42.5554" />
   <line id="_71089928" class="fil0 str0" x1="78.073" y1="47.1007" x2="78.073" y2= "43.5719" />
   <line id="_71045480" class="fil0 str0" x1="1.16966" y1="43.0157" x2="3.29844" y2= "41.8074" />
   <line id="_71046096" class="fil0 str0" x1="0.805469" y1="47.5418" x2="0.805469" y2= "43.7062" />
   <line id="_70757864" class="fil0 str0" x1="79.818" y1="42.5554" x2="79.818" y2= "41.8074" />
   <line id="_70758360" class="fil0 str0" x1="77.7084" y1="43.0157" x2="79.818" y2= "41.8074" />
   <line id="_71199728" class="fil0 str0" x1="77.325" y1="47.5418" x2="77.325" y2= "43.7062" />
   <line id="_70989152" class="fil0 str0" x1="77.325" y1="47.5418" x2="78.073" y2= "47.1007" />
   <line id="_71000752" class="fil0 str0" x1="77.7084" y1="43.0157" x2="77.325" y2= "43.7062" />
   <line id="_71001104" class="fil0 str0" x1="152.54" y1="137.601" x2="153.614" y2= "135.28" />
   <line id="_70723808" class="fil0 str0" x1="0.65194" y1="43.3418" x2="4.81351" y2= "43.3418" />
   <line id="_71563392" class="fil0 str0" x1="4.81351" y1="43.3418" x2="4.81351" y2= "42.9006" />
   <line id="_71562296" class="fil0 str0" x1="0.939561" y1="42.9006" x2="4.81351" y2= "42.9006" />
   <line id="_71561192" class="fil0 str0" x1="4.81351" y1="42.9006" x2="78.2072" y2= "0.517586" />
   <polyline id="_71558400" class="fil0 str0" points="0.939561,42.9006 0.268446,43.1692 0.0383494,43.8595 "/>
   <line id="_71557304" class="fil0 str0" x1="0.65194" y1="43.3418" x2="0.65194" y2= "43.5142" />
   <line id="_71593112" class="fil0 str0" x1="0.460193" y1="43.0157" x2="74.0264" y2= "0.517586" />
   <line id="_71593464" class="fil0 str0" x1="74.0264" y1="0.517586" x2="78.2072" y2= "0.517586" />
   <line id="_71576144" class="fil0 str0" x1="78.2072" y1="0.958735" x2="78.2072" y2= "0.517586" />
   <line id="_71258192" class="fil0 str0" x1="78.9934" y1="47.1581" x2="78.9934" y2= "43.2074" />
   <line id="_71250704" class="fil0 str0" x1="76.7113" y1="43.2074" x2="78.9934" y2= "43.2074" />
   <line id="_71200416" class="fil0 str0" x1="76.7113" y1="43.2074" x2="76.7113" y2= "42.6512" />
   <line id="_71198344" class="fil0 str0" x1="76.7113" y1="42.6512" x2="79.2619" y2= "42.6512" />
   <line id="_71197728" class="fil0 str0" x1="79.6263" y1="47.1581" x2="79.6263" y2= "42.9965" />
   <line id="_71198848" class="fil0 str0" x1="78.9934" y1="47.1581" x2="79.6263" y2= "47.1581" />
   <line id="_71227440" class="fil0 str0" x1="152.176" y1="5.25466" x2="152.176" y2= "1.09309" />
   <line id="_71156312" class="fil0 str0" x1="149.242" y1="0.747814" x2="151.792" y2= "0.747814" />
   <polyline id="_71137624" class="fil0 str0" points="79.6263,42.9965 79.5111,42.7474 79.2619,42.6512 "/>
   <line id="_71109432" class="fil0 str0" x1="148.954" y1="2.39723" x2="152.329" y2= "0.441018" />
   <line id="_71108456" class="fil0 str0" x1="148.954" y1="2.39723" x2="148.954" y2= "1.9943" />
   <line id="_71107496" class="fil0 str0" x1="148.954" y1="1.9943" x2="152.329" y2= "0.0383494" />
   <line id="_71106512" class="fil0 str0" x1="71.9551" y1="1.9943" x2="148.954" y2= "1.9943" />
   <line id="_71105544" class="fil0 str0" x1="71.9551" y1="1.9943" x2="75.3113" y2= "0.0383494" />
   <line id="_71126216" class="fil0 str0" x1="71.9551" y1="2.39723" x2="71.9551" y2= "1.9943" />
   <line id="_71123176" class="fil0 str0" x1="152.329" y1="0.728639" x2="152.329" y2= "0.441018" />
   <polyline id="_71122208" class="fil0 str0" points="152.694,0.345145 152.579,0.114917 152.329,0.0383494 "/>
   <line id="_71121240" class="fil0 str0" x1="152.694" y1="0.728639" x2="152.694" y2= "0.345145" />
   <line id="_71120280" class="fil0 str0" x1="75.3113" y1="0.0383494" x2="152.329" y2= "0.0383494" />
   <line id="_71120632" class="fil0 str0" x1="60.3142" y1="11.2956" x2="91.5932" y2= "11.2956" />
   <line id="_71118352" class="fil0 str0" x1="71.1879" y1="23.0708" x2="106.993" y2= "2.39723" />
   <line id="_71117272" class="fil0 str0" x1="103.081" y1="17.0681" x2="128.472" y2= "2.39723" />
   <line id="_71087344" class="fil0 str0" x1="39.9282" y1="23.0708" x2="80.3549" y2= "23.0708" />
   <line id="_71084568" class="fil0 str0" x1="24.5283" y1="41.8074" x2="56.9582" y2= "23.0708" />
   <line id="_71083616" class="fil0 str0" x1="47.9252" y1="41.8074" x2="90.7494" y2= "17.0681" />
   <line id="_71082648" class="fil0 str0" x1="39.1994" y1="47.5418" x2="39.1994" y2= "71.725" />
   <line id="_71114040" class="fil0 str0" x1="18.545" y1="47.5418" x2="18.545" y2= "71.725" />
   <line id="_71113080" class="fil0 str0" x1="35.9008" y1="124.099" x2="35.9008" y2= "152.253" />
   <line id="_71101720" class="fil0 str0" x1="56.1333" y1="124.099" x2="56.1333" y2= "152.253" />
   <line id="_71100752" class="fil0 str0" x1="39.1994" y1="152.253" x2="39.1994" y2= "180.425" />
   <line id="_71212016" class="fil0 str0" x1="18.545" y1="152.253" x2="18.545" y2= "180.425" />
   <line id="_71098776" class="fil0 str0" x1="135.645" y1="119.19" x2="135.645" y2= "91.0177" />
   <line id="_71097792" class="fil0 str0" x1="116.409" y1="130.294" x2="116.409" y2= "102.122" />
   <line id="_71096824" class="fil0 str0" x1="120.993" y1="155.82" x2="120.993" y2= "127.647" />
   <line id="_71095864" class="fil0 str0" x1="101.777" y1="166.924" x2="101.777" y2= "138.751" />
   <line id="_71092824" class="fil0 str0" x1="77.7084" y1="43.0157" x2="71.8785" y2= "43.0157" />
   <line id="_71091856" class="fil0 str0" x1="70.0181" y1="43.0157" x2="68.177" y2= "43.0157" />
   <line id="_71090904" class="fil0 str0" x1="66.3169" y1="43.0157" x2="64.4566" y2= "43.0157" />
   <line id="_71063920" class="fil0 str0" x1="62.5964" y1="43.0157" x2="53.3335" y2= "43.0157" />
   <line id="_71064272" class="fil0 str0" x1="51.4925" y1="43.0157" x2="49.632" y2= "43.0157" />
   <line id="_71081000" class="fil0 str0" x1="47.7719" y1="43.0157" x2="45.9308" y2= "43.0157" />
   <line id="_71078808" class="fil0 str0" x1="44.0704" y1="43.0157" x2="34.8076" y2= "43.0157" />
   <line id="_71077696" class="fil0 str0" x1="32.9475" y1="43.0157" x2="31.1064" y2= "43.0157" />
   <line id="_71074920" class="fil0 str0" x1="29.246" y1="43.0157" x2="27.3859" y2= "43.0157" />
   <line id="_71073968" class="fil0 str0" x1="25.5448" y1="43.0157" x2="16.282" y2= "43.0157" />
   <line id="_71073000" class="fil0 str0" x1="14.4216" y1="43.0157" x2="12.5615" y2= "43.0157" />
   <line id="_71072032" class="fil0 str0" x1="10.7012" y1="43.0157" x2="8.86003" y2= "43.0157" />
   <line id="_71041536" class="fil0 str0" x1="6.99995" y1="43.0157" x2="1.16966" y2= "43.0157" />
   <line id="_71038496" class="fil0 str0" x1="70.0565" y1="43.7062" x2="58.6074" y2= "43.7062" />
   <line id="_71037528" class="fil0 str0" x1="56.7471" y1="43.7062" x2="54.8868" y2= "43.7062" />
   <line id="_70836496" class="fil0 str0" x1="53.0458" y1="43.7062" x2="51.1856" y2= "43.7062" />
   <line id="_71056584" class="fil0 str0" x1="49.3252" y1="43.7062" x2="40.0624" y2= "43.7062" />
   <line id="_71055624" class="fil0 str0" x1="38.2021" y1="43.7062" x2="36.3612" y2= "43.7062" />
   <line id="_71054672" class="fil0 str0" x1="34.5008" y1="43.7062" x2="32.6405" y2= "43.7062" />
   <line id="_71052576" class="fil0 str0" x1="30.7996" y1="43.7062" x2="21.5176" y2= "43.7062" />
   <line id="_71052928" class="fil0 str0" x1="19.6764" y1="43.7062" x2="17.8161" y2= "43.7062" />
   <line id="_71049536" class="fil0 str0" x1="15.9752" y1="43.7062" x2="14.1148" y2= "43.7062" />
   <line id="_71018368" class="fil0 str0" x1="12.2545" y1="43.7062" x2="0.805469" y2= "43.7062" />
   <line id="_71017256" class="fil0 str0" x1="1.16966" y1="43.0157" x2="0.805469" y2= "43.7062" />
   <polyline id="_71043816" class="fil0 str0" points="152.176,1.09309 152.061,0.843687 151.792,0.747814 "/>
   <line id="_71035520" class="fil0 str0" x1="79.6263" y1="42.9965" x2="87.815" y2= "38.2597" />
   <line id="_71034536" class="fil0 str0" x1="89.4071" y1="37.3391" x2="91.0177" y2= "36.4185" />
   <line id="_71033568" class="fil0 str0" x1="92.6287" y1="35.4979" x2="94.2397" y2= "34.5582" />
   <line id="_71032608" class="fil0 str0" x1="95.8314" y1="33.6378" x2="103.867" y2= "28.9966" />
   <line id="_71029568" class="fil0 str0" x1="105.459" y1="28.0762" x2="107.07" y2= "27.1365" />
   <line id="_71028600" class="fil0 str0" x1="108.681" y1="26.2159" x2="110.292" y2= "25.2954" />
   <line id="_71027648" class="fil0 str0" x1="111.883" y1="24.375" x2="119.919" y2= "19.7338" />
   <line id="_71026672" class="fil0 str0" x1="121.511" y1="18.7941" x2="123.122" y2= "17.8737" />
   <line id="_71027024" class="fil0 str0" x1="124.733" y1="16.9531" x2="126.343" y2= "16.0134" />
   <line id="_70995592" class="fil0 str0" x1="127.954" y1="15.0929" x2="135.971" y2= "10.471" />
   <line id="_71835248" class="fil0 str0" x1="137.582" y1="9.53127" x2="139.173" y2= "8.61063" />
   <line id="_70991544" class="fil0 str0" x1="140.784" y1="7.67093" x2="142.395" y2= "6.75055" />
   <line id="_71023096" class="fil0 str0" x1="143.987" y1="5.82977" x2="152.176" y2= "1.09309" />
   <line id="_71022136" class="fil0 str0" x1="79.2619" y1="42.6512" x2="87.4317" y2= "37.9144" />
   <line id="_71021520" class="fil0 str0" x1="89.0426" y1="36.9938" x2="90.6535" y2= "36.0734" />
   <line id="_71022640" class="fil0 str0" x1="92.2453" y1="35.1529" x2="93.8562" y2= "34.2132" />
   <line id="_71012192" class="fil0 str0" x1="95.4672" y1="33.2925" x2="103.484" y2= "28.6516" />
   <line id="_71011104" class="fil0 str0" x1="105.094" y1="27.731" x2="106.705" y2= "26.7913" />
   <line id="_71009992" class="fil0 str0" x1="108.297" y1="25.8709" x2="109.908" y2= "24.9309" />
   <line id="_71007208" class="fil0 str0" x1="111.519" y1="24.0297" x2="119.535" y2= "19.3885" />
   <line id="_71006256" class="fil0 str0" x1="121.146" y1="18.449" x2="122.757" y2= "17.5284" />
   <line id="_71004176" class="fil0 str0" x1="124.368" y1="16.6078" x2="125.96" y2= "15.6681" />
   <line id="_71003208" class="fil0 str0" x1="127.571" y1="14.7476" x2="135.587" y2= "10.1065" />
   <line id="_71002248" class="fil0 str0" x1="137.198" y1="9.186" x2="138.809" y2= "8.26561" />
   <line id="_70970640" class="fil0 str0" x1="140.42" y1="7.32566" x2="142.012" y2= "6.40527" />
   <line id="_70969672" class="fil0 str0" x1="143.623" y1="5.48475" x2="151.792" y2= "0.747814" />
   <line id="_70999240" class="fil0 str0" x1="0.939561" y1="42.9006" x2="9.30118" y2= "38.0488" />
   <line id="_70998264" class="fil0 str0" x1="11.334" y1="36.8979" x2="15.3805" y2= "34.5582" />
   <line id="_70998616" class="fil0 str0" x1="17.3941" y1="33.3884" x2="33.5804" y2= "24.0489" />
   <line id="_70988504" class="fil0 str0" x1="35.594" y1="22.8791" x2="39.6406" y2= "20.5394" />
   <line id="_107540400" class="fil0 str0" x1="41.6733" y1="19.3696" x2="57.8401" y2= "10.0298" />
   <line id="_70983344" class="fil0 str0" x1="59.873" y1="8.86003" x2="63.9195" y2= "6.52032" />
   <line id="_70982376" class="fil0 str0" x1="65.9334" y1="5.35053" x2="74.3139" y2= "0.517586" />
   <line id="_70981416" class="fil0 str0" x1="77.325" y1="44.7802" x2="79.6263" y2= "44.0704" />
   <line id="_70980800" class="fil0 str0" x1="79.6263" y1="44.0704" x2="79.6263" y2= "51.6265" />
   <line id="_70981920" class="fil0 str0" x1="79.6263" y1="53.4676" x2="79.6263" y2= "55.328" />
   <line id="_70978512" class="fil0 str0" x1="79.6263" y1="57.188" x2="79.6263" y2= "59.0484" />
   <line id="_70976312" class="fil0 str0" x1="79.6263" y1="60.8895" x2="79.6263" y2= "70.1717" />
   <line id="_70950056" class="fil0 str0" x1="79.6263" y1="72.0126" x2="79.6263" y2= "73.8729" />
   <line id="_70947272" class="fil0 str0" x1="79.6263" y1="75.714" x2="79.6263" y2= "77.5742" />
   <line id="_70965560" class="fil0 str0" x1="79.6263" y1="79.4345" x2="79.6263" y2= "88.6973" />
   <line id="_70964592" class="fil0 str0" x1="79.6263" y1="90.5577" x2="79.6263" y2= "92.4178" />
   <line id="_70963624" class="fil0 str0" x1="79.6263" y1="94.2781" x2="79.6263" y2= "96.119" />
   <line id="_70962664" class="fil0 str0" x1="79.6263" y1="97.9793" x2="79.6263" y2= "107.242" />
   <line id="_70959624" class="fil0 str0" x1="79.6263" y1="109.103" x2="79.6263" y2= "110.963" />
   <line id="_70958656" class="fil0 str0" x1="79.6263" y1="112.823" x2="79.6263" y2= "114.664" />
   <line id="_70957704" class="fil0 str0" x1="79.6263" y1="116.524" x2="79.6263" y2= "125.787" />
   <line id="_70956728" class="fil0 str0" x1="79.6263" y1="127.647" x2="79.6263" y2= "129.489" />
   <line id="_70957080" class="fil0 str0" x1="79.6263" y1="131.349" x2="79.6263" y2= "133.209" />
   <line id="_70925488" class="fil0 str0" x1="79.6263" y1="135.069" x2="79.6263" y2= "144.332" />
   <line id="_70924408" class="fil0 str0" x1="79.6263" y1="146.192" x2="79.6263" y2= "148.033" />
   <line id="_71256040" class="fil0 str0" x1="79.6263" y1="149.894" x2="79.6263" y2= "151.735" />
   <line id="_70952848" class="fil0 str0" x1="79.6263" y1="153.595" x2="79.6263" y2= "162.877" />
   <line id="_70931744" class="fil0 str0" x1="79.6263" y1="164.718" x2="79.6263" y2= "166.578" />
   <line id="_70838296" class="fil0 str0" x1="79.6263" y1="168.439" x2="79.6263" y2= "170.299" />
   <line id="_70746536" class="fil0 str0" x1="79.6263" y1="172.14" x2="79.6263" y2= "179.696" />
   <line id="_70745424" class="fil0 str0" x1="77.325" y1="43.9746" x2="77.325" y2= "51.9332" />
   <line id="_70823112" class="fil0 str0" x1="77.325" y1="53.7937" x2="77.325" y2= "55.6541" />
   <line id="_70822000" class="fil0 str0" x1="77.325" y1="57.5141" x2="77.325" y2= "59.3553" />
   <line id="_70820888" class="fil0 str0" x1="77.325" y1="61.2156" x2="77.325" y2= "70.4785" />
   <line id="_70819776" class="fil0 str0" x1="77.325" y1="72.3385" x2="77.325" y2= "74.1989" />
   <line id="_70818664" class="fil0 str0" x1="77.325" y1="76.0401" x2="77.325" y2= "77.9001" />
   <line id="_70817552" class="fil0 str0" x1="77.325" y1="79.7605" x2="77.325" y2= "89.0233" />
   <line id="_70756872" class="fil0 str0" x1="77.325" y1="90.8836" x2="77.325" y2= "92.7245" />
   <line id="_70755760" class="fil0 str0" x1="77.325" y1="94.5849" x2="77.325" y2= "96.4451" />
   <line id="_70754648" class="fil0 str0" x1="77.325" y1="98.3054" x2="77.325" y2= "107.568" />
   <line id="_70753536" class="fil0 str0" x1="77.325" y1="109.429" x2="77.325" y2= "111.27" />
   <line id="_70752424" class="fil0 str0" x1="77.325" y1="113.13" x2="77.325" y2= "114.971" />
   <line id="_70724664" class="fil0 str0" x1="77.325" y1="116.831" x2="77.325" y2= "126.094" />
   <line id="_70749584" class="fil0 str0" x1="77.325" y1="127.954" x2="77.325" y2= "129.815" />
   <line id="_70731680" class="fil0 str0" x1="77.325" y1="131.675" x2="77.325" y2= "133.516" />
   <line id="_70702136" class="fil0 str0" x1="77.325" y1="135.376" x2="77.325" y2= "144.639" />
   <line id="_70702488" class="fil0 str0" x1="77.325" y1="146.499" x2="77.325" y2= "148.36" />
   <line id="_70729768" class="fil0 str0" x1="77.325" y1="150.22" x2="77.325" y2= "152.061" />
   <line id="_70728696" class="fil0 str0" x1="77.325" y1="153.921" x2="77.325" y2= "163.203" />
   <line id="_70718744" class="fil0 str0" x1="77.325" y1="165.044" x2="77.325" y2= "166.904" />
   <line id="_70717776" class="fil0 str0" x1="77.325" y1="168.746" x2="77.325" y2= "170.606" />
   <line id="_70218376" class="fil0 str0" x1="77.325" y1="172.466" x2="77.325" y2= "180.425" />
   <line id="_70218872" class="fil0 str0" x1="28.9007" y1="26.5803" x2="32.2763" y2= "24.6241" />
   <line id="_71054072" class="fil0 str0" x1="49.9966" y1="14.3831" x2="53.3717" y2= "12.4462" />
   <line id="_70207832" class="fil0 str0" x1="35.9008" y1="71.725" x2="35.9008" y2= "99.8972" />
   <line id="_70204736" class="fil0 str0" x1="56.1333" y1="71.725" x2="56.1333" y2= "99.8972" />
   <line id="_70202632" class="fil0 str0" x1="39.1994" y1="124.099" x2="39.1994" y2= "99.8972" />
   <line id="_70203480" class="fil0 str0" x1="18.545" y1="124.099" x2="18.545" y2= "99.8972" />
   <line id="_71996896" class="fil0 str0" x1="2.26288" y1="99.8972" x2="74.4865" y2= "99.8972" />
   <line id="_71079488" class="fil0 str0" x1="2.26288" y1="124.099" x2="74.4865" y2= "124.099" />
   <line id="_71228256" class="fil0 str0" x1="82.2919" y1="93.6834" x2="151.006" y2= "53.9853" />
   <line id="_71228592" class="fil0 str0" x1="82.2919" y1="65.5113" x2="151.006" y2= "25.8324" />
   <line id="_71043312" class="fil0 str0" x1="120.993" y1="99.4944" x2="120.993" y2= "71.3223" />
   <line id="_69320352" class="fil0 str0" x1="101.777" y1="110.598" x2="101.777" y2= "82.4262" />
   <line id="_70739792" class="fil0 str0" x1="135.645" y1="62.8648" x2="135.645" y2= "34.6926" />
   <line id="_70761240" class="fil0 str0" x1="116.409" y1="73.9688" x2="116.409" y2= "45.7966" />
   <polyline id="_71998616" class="fil0 str0" points="0.0383494,179.811 13.7504,176.551 27.4049,173.061 54.6567,165.773 68.1962,161.88 81.5825,157.431 88.1411,154.861 94.6042,151.984 100.914,148.877 107.127,145.502 119.171,138.176 130.965,130.467 142.549,122.393 148.129,118.039 153.423,113.207 158.236,107.626 162.532,101.163 166.579,94.3163 170.721,87.7 172.965,84.6893 175.343,81.9275 177.836,79.4152 180.463,77.1522 183.167,75.1386 185.967,73.4126 188.844,71.9359 191.817,70.7468 "/>
   <polyline id="_107094088" class="fil0 str0" points="0.0383494,159.828 25.5833,153.403 51.2238,146.538 63.6319,142.913 69.577,141.014 75.2921,139.001 86.1852,134.436 96.848,128.952 107.472,122.546 118.365,115.47 128.894,108.259 138.732,100.818 143.316,97.0013 143.949,96.4069 144.543,95.6396 145.291,94.5657 147.017,92.0151 148.417,89.6947 149.146,88.3138 150.162,86.3191 152.464,81.7164 153.48,79.7028 154.286,78.1304 156.434,74.6783 161.88,67.4099 164.527,64.399 165.696,63.2293 166.693,62.3663 170.529,59.6813 174.672,57.265 178.795,55.1744 182.592,53.4484 185.795,52.1635 187.061,51.7034 188.038,51.339 189.189,50.917 189.611,50.7635 189.669,50.7445 "/>
   <line id="_107094800" class="fil0 str0" x1="192.104" y1="46.0075" x2="192.104" y2= "47.043" />
   <line id="_69864928" class="fil0 str0" x1="192.085" y1="68.3497" x2="192.085" y2= "71.6098" />
   <line id="_70308864" class="fil0 str0" x1="196.017" y1="46.0075" x2="196.017" y2= "47.0622" />
   <line id="_71602824" class="fil0 str0" x1="195.978" y1="68.3497" x2="195.978" y2= "71.6098" />
   <polygon id="_71603176" class="fil0 str0" points="192.085,71.6098 192.123,71.7633 192.219,71.9167 192.392,72.0509 192.622,72.1661 192.91,72.2619 193.236,72.3385 193.581,72.377 193.945,72.4154 194.31,72.3962 194.674,72.3577 195,72.3003 195.307,72.2235 195.575,72.1085 195.767,71.9744 195.901,71.84 195.978,71.6865 195.978,71.5332 195.901,71.3989 195.767,71.2456 195.575,71.1305 195.307,71.0155 195.019,70.9196 194.674,70.862 194.31,70.8237 193.945,70.8237 193.581,70.8427 193.236,70.8811 192.91,70.9577 192.622,71.0536 192.392,71.1879 192.238,71.3223 192.123,71.4565 "/>
   <polyline id="_70197920" class="fil0 str0" points="196.017,46.0075 195.978,45.8731 195.882,45.7199 195.71,45.5856 195.499,45.4705 195.23,45.3746 194.923,45.298 194.597,45.2404 194.233,45.221 193.888,45.221 193.523,45.2404 193.197,45.298 192.89,45.3746 192.622,45.4705 192.411,45.5856 192.238,45.7199 192.143,45.8539 192.104,46.0075 "/>
   <polyline id="_70716192" class="fil0 str0" points="195.978,70.2291 196.669,70.0181 197.263,69.7687 197.762,69.4619 198.126,69.1167 198.337,68.7524 198.414,68.369 "/>
   <polyline id="_70717176" class="fil0 str0" points="189.669,68.369 189.726,68.7524 189.956,69.1167 190.321,69.4619 190.8,69.7497 191.395,70.0181 192.085,70.2099 "/>
   <polyline id="_70717320" class="fil0 str0" points="198.433,48.9034 198.356,48.5196 198.145,48.1554 197.781,47.8102 197.301,47.5225 196.707,47.254 196.017,47.0622 195.249,46.9089 194.463,46.8513 193.658,46.8513 192.852,46.9089 192.104,47.043 191.414,47.254 190.819,47.5034 190.34,47.8102 189.975,48.1554 189.745,48.5196 189.688,48.9034 "/>
   <line id="_71957320" class="fil0 str0" x1="198.433" y1="48.9034" x2="198.414" y2= "68.369" />
   <line id="_71958432" class="fil0 str0" x1="189.669" y1="68.369" x2="189.669" y2= "50.7445" />
   <polyline id="_69854336" class="fil0 str0" points="195.978,68.3497 195.959,68.1962 195.863,68.0619 195.69,67.9278 195.48,67.8128 195.211,67.7169 194.904,67.64 194.578,67.5826 194.214,67.5634 193.869,67.5634 193.504,67.5826 193.178,67.64 192.871,67.7169 192.603,67.8128 192.392,67.9278 192.219,68.0619 192.123,68.1962 192.085,68.3497 "/>
   <line id="_107475680" class="fil0 str0" x1="0.0383494" y1="159.828" x2="0.0383494" y2= "179.811" />
   <polyline id="_71858512" class="fil0 str0" points="195.978,70.2291 196.688,70.0181 197.301,69.7497 197.8,69.4237 198.165,69.0593 198.375,68.6947 198.414,68.292 198.299,67.8894 198.03,67.5249 197.628,67.1799 197.071,66.8731 196.419,66.6237 195.671,66.4509 194.866,66.3361 194.041,66.2976 193.217,66.3361 192.411,66.4509 191.663,66.6237 191.011,66.8731 190.455,67.1799 190.052,67.5249 189.784,67.8894 189.669,68.2729 189.707,68.6758 189.918,69.0593 190.263,69.4237 190.762,69.7305 191.375,70.0181 192.085,70.2099 "/>
   <line id="_71859328" class="fil0 str0" x1="189.669" y1="50.7445" x2="189.688" y2= "48.9034" />
   <polygon id="_107123616" class="fil1" points="149.549,57.6677 151.006,53.9853 150.833,57.936 "/>
   <polygon id="_71194584" class="fil0 str1" points="149.549,57.6677 151.006,53.9853 150.833,57.936 "/>
   <path id="_71195472" class="fil1" d="M130.313 192.066l-0.0191747 0.114786 -0.0190434 0.115048 -0.0191747 0.11518 -0.0384807 0.115048 -0.0382181 0.0958735 -0.0576555 0.0958735 -0.0573928 0.0961362 -0.0768302 0.0765675 -0.0958735 0.0766988 -0.115048 0.0765675 -0.11518 0.0576555 -0.134092 0.0575241 -0.153529 0.0383494 -0.172441 0.0384807 -0.172704 0.0190434 -0.211053 0 -0.268315 0 -0.210922 -0.0190434 0 1.13144 0 0.153529 0.0382181 0.134092 0.0383494 0.115048 0.0576555 0.0765675 0.0766988 0.0576555 0.0958735 0.0384807 0.134223 0.0190434 0.153398 0.0191747 0 0.115048 -1.49589 0 0 -0.115048 0.153529 -0.0191747 0.134223 -0.0382181 0.0958735 -0.0576555 0.0575241 -0.0766988 0.0576555 -0.0765675 0.018912 -0.11518 0.0191747 -0.134223 0 -0.172572 0 -2.64677 0 -0.153266 -0.0191747 -0.134223 -0.0382181 -0.0958735 -0.0383494 -0.0575241 -0.0766988 -0.0576555 -0.0766988 -0.0380867 -0.134223 -0.0384807 -0.153529 -0.0191747 0 -0.11518 1.43837 0 0.306927 0.019306 0.249271 0.0573928 0.134092 0.0384807 0.0958735 0.0383494 0.11518 0.0573928 0.0957422 0.0576555 0.0961362 0.0766988 0.0958735 0.0958735 0.0766988 0.0958735 0.0573928 0.0958735 0.0384807 0.115048 0.0383494 0.115048 0.0190434 0.134354 0.0191747 0.134354zm-0.402669 0l0 -0.11518 -0.0191747 -0.0960049 -0.0382181 -0.0958735 -0.0191747 -0.0958735 -0.0576555 -0.0958735 -0.0575241 -0.0766988 -0.0576555 -0.0576555 -0.0765675 -0.0573928 -0.0958735 -0.0573928 -0.0958735 -0.0576555 -0.0958735 -0.0384807 -0.115048 -0.0382181 -0.268709 -0.0384807 -0.306795 -0.0191747 -0.134092 0.0191747 -0.0768302 0.019306 -0.0191747 0.0383494 -0.0190434 0.0575241 -0.0191747 0.0576555 0 0.0765675 0 1.64916 0.210922 0.019306 0.230096 0 0.268446 -0.019306 0.230096 -0.0380867 0.0958735 -0.0384807 0.0958735 -0.0384807 0.0766988 -0.0573928 0.0768302 -0.0573928 0.0766988 -0.0576555 0.0576555 -0.0766988 0.0382181 -0.0958735 0.0384807 -0.0768302 0.0380867 -0.0958735 0.019306 -0.11518 0.0191747 -0.0957422 0 -0.134092z"/>
   <polygon id="_70845392" class="fil1" points="132.212,192.526 132.193,192.622 132.173,192.68 132.116,192.718 132.039,192.718 131.943,192.718 131.828,192.66 131.713,192.603 131.637,192.584 131.579,192.603 131.502,192.66 131.426,192.737 131.349,192.852 131.272,192.986 131.215,193.082 131.176,193.178 131.176,193.274 131.176,194.482 131.176,194.617 131.215,194.732 131.253,194.827 131.33,194.904 131.387,194.943 131.464,194.981 131.579,195 131.694,195 131.694,195.096 130.409,195.096 130.409,195 130.524,194.981 130.62,194.943 130.697,194.923 130.754,194.885 130.812,194.808 130.831,194.732 130.869,194.635 130.869,194.521 130.869,193.063 130.869,192.967 130.85,192.871 130.831,192.795 130.793,192.737 130.754,192.699 130.716,192.66 130.658,192.641 130.582,192.622 130.505,192.641 130.428,192.641 130.428,192.545 130.563,192.507 130.735,192.43 130.946,192.334 131.176,192.238 131.176,192.948 131.234,192.852 131.464,192.545 131.617,192.373 131.694,192.296 131.771,192.238 131.848,192.219 131.943,192.219 132.001,192.219 132.058,192.238 132.097,192.258 132.135,192.296 132.173,192.354 132.193,192.392 132.212,192.449 "/>
   <path id="_70951712" class="fil1" d="M134.763 193.658l-0.0191747 0.268315 -0.0576555 0.249403 -0.0382181 0.115048 -0.0576555 0.115048 -0.0575241 0.11518 -0.0576555 0.114786 -0.0958735 0.11518 -0.0958735 0.115048 -0.0957422 0.0768302 -0.11518 0.0766988 -0.115048 0.0573928 -0.134354 0.0384807 -0.13396 0.0191747 -0.134354 0.0191747 -0.115048 -0.0191747 -0.134354 -0.0191747 -0.115048 -0.0384807 -0.11518 -0.0382181 -0.0958735 -0.0576555 -0.0957422 -0.0766988 -0.0958735 -0.0765675 -0.0958735 -0.0958735 -0.0766988 -0.115048 -0.0576555 -0.11518 -0.0573928 -0.134223 -0.0576555 -0.11518 -0.0382181 -0.134223 -0.0191747 -0.153266 -0.019306 -0.153529 0 -0.153266 0 -0.153529 0.019306 -0.134354 0.0191747 -0.134092 0.0382181 -0.134354 0.0383494 -0.134223 0.0575241 -0.115048 0.0768302 -0.11518 0.0766988 -0.0958735 0.0765675 -0.115048 0.0958735 -0.0766988 0.0958735 -0.0765675 0.0961362 -0.0576555 0.115048 -0.0573928 0.114917 -0.019306 0.115048 -0.0383494 0.134354 0 0.134223 0 0.134354 0.0191747 0.115048 0.0384807 0.114917 0.0380867 0.115048 0.0577868 0.0958735 0.0765675 0.0961362 0.0766988 0.0765675 0.0768302 0.0766988 0.115048 0.0765675 0.11518 0.0576555 0.114786 0.0575241 0.134354 0.0383494 0.134223 0.019306 0.134354 0.0191747 0.172572 0 0.153529zm-0.326101 0.172441l-0.0191747 -0.287621 -0.0576555 -0.287752 -0.0382181 -0.11518 -0.0384807 -0.13396 -0.0573928 -0.0958735 -0.0576555 -0.11518 -0.0573928 -0.0958735 -0.0768302 -0.0768302 -0.0766988 -0.0766988 -0.0958735 -0.0573928 -0.0766988 -0.0384807 -0.0957422 -0.0383494 -0.0958735 -0.019306 -0.0961362 -0.018912 -0.153266 0.018912 -0.134354 0.0384807 -0.134354 0.0766988 -0.115048 0.0958735 -0.0573928 0.0768302 -0.0573928 0.0573928 -0.0384807 0.0958735 -0.0384807 0.0769615 -0.0382181 0.210922 -0.0191747 0.229965 0 0.287752 0.0382181 0.268446 0.0768302 0.268577 0.0958735 0.230096 0.0573928 0.134092 0.0769615 0.11518 0.0765675 0.0958735 0.0958735 0.0768302 0.0958735 0.0573928 0.0958735 0.0384807 0.11518 0.0191747 0.115048 0.0190434 0.134223 -0.0190434 0.134354 -0.0384807 0.114917 -0.0576555 0.115048 -0.0957422 0.0576555 -0.0766988 0.0573928 -0.0766988 0.0576555 -0.115048 0.0382181 -0.0958735 0.0384807 -0.134354 0.0191747 -0.115048 0.0191747 -0.153266 0 -0.153529z"/>
   <polygon id="_69912360" class="fil1" points="136.45,194.693 136.393,194.789 136.335,194.885 136.258,194.962 136.182,195.019 136.105,195.077 136.009,195.115 135.913,195.134 135.837,195.153 135.721,195.134 135.626,195.115 135.568,195.057 135.491,194.981 135.453,194.885 135.414,194.751 135.395,194.578 135.395,194.367 135.395,192.43 134.993,192.43 134.993,192.334 134.993,192.315 135.108,192.258 135.261,192.143 135.357,192.027 135.453,191.874 135.549,191.682 135.626,191.471 135.702,191.471 135.702,192.258 136.335,192.258 136.335,192.43 135.702,192.43 135.702,194.233 135.702,194.54 135.741,194.712 135.798,194.77 135.856,194.827 135.932,194.846 136.028,194.866 136.143,194.846 136.22,194.808 136.316,194.751 136.374,194.674 "/>
   <path id="_71316504" class="fil1" d="M138.751 194.137l-0.0573928 0.172572 -0.0769615 0.153529 -0.0958735 0.134223 -0.0958735 0.134354 -0.0765675 0.0958735 -0.0958735 0.0958735 -0.0958735 0.0573928 -0.0958735 0.0576555 -0.115048 0.0573928 -0.11518 0.019306 -0.115048 0.0191747 -0.115048 0.0191747 -0.11518 -0.0191747 -0.0957422 -0.0191747 -0.11518 -0.019306 -0.0958735 -0.0383494 -0.0765675 -0.0575241 -0.0958735 -0.0573928 -0.0769615 -0.0768302 -0.0765675 -0.0958735 -0.0573928 -0.0958735 -0.0576555 -0.115048 -0.0575241 -0.11518 -0.0383494 -0.115048 -0.019306 -0.134092 -0.0191747 -0.134223 -0.0190434 -0.153529 0 -0.153398 0 -0.191616 0.0190434 -0.19201 0.0384807 -0.153266 0.0383494 -0.153529 0.0575241 -0.153266 0.0576555 -0.134354 0.0958735 -0.115048 0.0765675 -0.11518 0.0958735 -0.0765675 0.0766988 -0.0769615 0.0768302 -0.0573928 0.0958735 -0.0384807 0.0958735 -0.0380867 0.0958735 -0.0384807 0.0958735 -0.0191747 0.0958735 0 0.191747 0.0191747 0.153529 0.0384807 0.153266 0.0765675 0.134223 0.115048 0.0576555 0.0766988 0.0575241 0.0766988 0.0576555 0.0960049 0.0382181 0.0958735 0.0765675 0.230228 0.0384807 0.24914 -1.82199 0 0.019306 0.191747 0 0.19201 0.0384807 0.172441 0.018912 0.153529 0.0576555 0.153266 0.0384807 0.134354 0.0573928 0.115048 0.0766988 0.115048 0.0576555 0.0766988 0.0573928 0.0573928 0.0768302 0.0769615 0.0766988 0.0382181 0.0765675 0.0383494 0.0766988 0.019306 0.0768302 0.0191747 0.0958735 0 0.134092 0 0.134354 -0.0384807 0.134223 -0.0573928 0.11518 -0.0768302 0.115048 -0.0958735 0.115048 -0.134354 0.0958735 -0.134092 0.0958735 -0.172704 0.0766988 0.0191747zm-0.498542 -1.01626l-0.0384807 -0.172835 -0.0382181 -0.153266 -0.0576555 -0.115048 -0.0765675 -0.0958735 -0.0958735 -0.0768302 -0.0958735 -0.0575241 -0.134354 -0.0383494 -0.134354 -0.019306 -0.115048 0.019306 -0.115048 0.0191747 -0.115048 0.0576555 -0.0958735 0.0766988 -0.0766988 0.115048 -0.0766988 0.115048 -0.0768302 0.153266 -0.0573928 0.172835 1.40002 0z"/>
   <polygon id="_71316800" class="fil1" points="141.11,194.195 140.995,194.406 140.88,194.617 140.765,194.77 140.631,194.904 140.497,195.019 140.343,195.077 140.19,195.134 140.017,195.153 139.921,195.134 139.825,195.134 139.749,195.096 139.653,195.057 139.576,195.019 139.499,194.962 139.423,194.904 139.346,194.808 139.269,194.712 139.193,194.617 139.135,194.482 139.097,194.367 139.058,194.214 139.02,194.08 139.02,193.907 139.001,193.753 139.02,193.581 139.02,193.408 139.058,193.236 139.097,193.101 139.154,192.948 139.231,192.814 139.308,192.699 139.404,192.584 139.48,192.488 139.576,192.411 139.672,192.354 139.787,192.296 139.883,192.258 139.998,192.219 140.113,192.2 140.228,192.2 140.401,192.219 140.554,192.258 140.688,192.315 140.804,192.392 140.899,192.488 140.976,192.584 141.014,192.699 141.034,192.814 141.014,192.91 140.995,192.967 140.938,193.025 140.861,193.044 140.823,193.044 140.784,193.044 140.746,193.025 140.727,192.986 140.669,192.91 140.631,192.775 140.593,192.641 140.573,192.584 140.535,192.526 140.497,192.469 140.439,192.449 140.382,192.411 140.305,192.392 140.228,192.392 140.132,192.373 139.998,192.392 139.864,192.449 139.729,192.507 139.614,192.603 139.538,192.68 139.461,192.775 139.404,192.871 139.365,192.986 139.327,193.101 139.288,193.217 139.269,193.351 139.269,193.504 139.269,193.638 139.288,193.792 139.308,193.926 139.346,194.041 139.384,194.156 139.442,194.271 139.519,194.386 139.595,194.482 139.653,194.559 139.729,194.617 139.825,194.674 139.902,194.712 139.998,194.751 140.075,194.77 140.171,194.789 140.267,194.77 140.401,194.751 140.516,194.712 140.631,194.655 140.727,194.578 140.861,194.406 141.014,194.156 "/>
   <polygon id="_71316920" class="fil1" points="142.779,194.693 142.721,194.789 142.664,194.885 142.606,194.962 142.51,195.019 142.434,195.077 142.338,195.115 142.261,195.134 142.165,195.153 142.05,195.134 141.973,195.115 141.897,195.057 141.839,194.981 141.782,194.885 141.743,194.751 141.724,194.578 141.724,194.367 141.724,192.43 141.34,192.43 141.34,192.334 141.34,192.315 141.436,192.258 141.59,192.143 141.686,192.027 141.782,191.874 141.877,191.682 141.973,191.471 142.031,191.471 142.031,192.258 142.664,192.258 142.664,192.43 142.031,192.43 142.031,194.233 142.05,194.54 142.069,194.712 142.127,194.77 142.184,194.827 142.261,194.846 142.376,194.866 142.472,194.846 142.568,194.808 142.645,194.751 142.702,194.674 "/>
   <path id="_107177512" class="fil1" d="M145.33 193.658l-0.0191747 0.268315 -0.0576555 0.249403 -0.0382181 0.115048 -0.0576555 0.115048 -0.0573928 0.11518 -0.0769615 0.114786 -0.0765675 0.11518 -0.0958735 0.115048 -0.11518 0.0768302 -0.115048 0.0766988 -0.115048 0.0573928 -0.11518 0.0384807 -0.13396 0.0191747 -0.134354 0.0191747 -0.134354 -0.0191747 -0.115048 -0.0191747 -0.115048 -0.0384807 -0.115048 -0.0382181 -0.0958735 -0.0576555 -0.11518 -0.0766988 -0.0765675 -0.0765675 -0.0958735 -0.0958735 -0.0766988 -0.115048 -0.0768302 -0.11518 -0.0573928 -0.134223 -0.0384807 -0.11518 -0.0382181 -0.134223 -0.0191747 -0.153266 -0.019306 -0.153529 0 -0.153266 0 -0.153529 0.019306 -0.134354 0.0191747 -0.134092 0.0382181 -0.134354 0.0384807 -0.134223 0.0573928 -0.115048 0.0576555 -0.11518 0.0765675 -0.0958735 0.0958735 -0.115048 0.0769615 -0.0766988 0.114786 -0.0765675 0.0961362 -0.0576555 0.115048 -0.0573928 0.114917 -0.019306 0.115048 -0.0383494 0.134354 0 0.134223 0 0.11518 0.0191747 0.134223 0.0384807 0.114917 0.0380867 0.0960049 0.0577868 0.0958735 0.0765675 0.0958735 0.0766988 0.0958735 0.0768302 0.0766988 0.115048 0.0765675 0.11518 0.0576555 0.114786 0.0382181 0.134354 0.0384807 0.134223 0.0384807 0.134354 0 0.172572 0.0191747 0.153529zm-0.32597 0.172441l-0.019306 -0.287621 -0.0576555 -0.287752 -0.0382181 -0.11518 -0.0383494 -0.13396 -0.0575241 -0.0958735 -0.0576555 -0.11518 -0.0765675 -0.0958735 -0.0766988 -0.0768302 -0.0768302 -0.0766988 -0.0766988 -0.0573928 -0.0765675 -0.0384807 -0.0958735 -0.0383494 -0.0958735 -0.019306 -0.0961362 -0.018912 -0.153266 0.018912 -0.134354 0.0384807 -0.134223 0.0766988 -0.11518 0.0958735 -0.0573928 0.0768302 -0.0573928 0.0573928 -0.0384807 0.0958735 -0.0384807 0.0769615 -0.0573928 0.210922 -0.0191747 0.229965 0.0191747 0.287752 0.0382181 0.268446 0.0576555 0.268577 0.0958735 0.230096 0.0766988 0.134092 0.0768302 0.11518 0.0766988 0.0958735 0.0765675 0.0768302 0.0958735 0.0573928 0.115048 0.0384807 0.0958735 0.0191747 0.11518 0.0190434 0.153529 -0.0190434 0.115048 -0.0384807 0.115048 -0.0576555 0.115048 -0.0957422 0.0766988 -0.0766988 0.0573928 -0.0766988 0.0576555 -0.115048 0.0382181 -0.0958735 0.019306 -0.134354 0.0383494 -0.115048 0 -0.153266 0.019306 -0.153529z"/>
   <polygon id="_71111968" class="fil1" points="147.305,192.526 147.286,192.622 147.266,192.68 147.209,192.718 147.132,192.718 147.036,192.718 146.921,192.66 146.806,192.603 146.729,192.584 146.672,192.603 146.595,192.66 146.518,192.737 146.442,192.852 146.365,192.986 146.307,193.082 146.269,193.178 146.25,193.274 146.269,194.482 146.269,194.617 146.307,194.732 146.346,194.827 146.423,194.904 146.48,194.943 146.557,194.981 146.672,195 146.787,195 146.787,195.096 145.502,195.096 145.502,195 145.617,194.981 145.713,194.943 145.79,194.923 145.847,194.885 145.905,194.808 145.924,194.732 145.943,194.635 145.962,194.521 145.962,193.063 145.962,192.967 145.943,192.871 145.924,192.795 145.885,192.737 145.847,192.699 145.809,192.66 145.752,192.641 145.675,192.622 145.598,192.641 145.521,192.641 145.521,192.545 145.656,192.507 145.828,192.43 146.039,192.334 146.269,192.238 146.269,192.948 146.327,192.852 146.557,192.545 146.691,192.373 146.787,192.296 146.864,192.238 146.941,192.219 147.036,192.219 147.094,192.219 147.151,192.238 147.19,192.258 147.228,192.296 147.266,192.354 147.286,192.392 147.305,192.449 "/>
   <polyline id="_70997512" class="fil0 str0" points="150.201,57.802 120.82,196.611 147.132,196.63 "/>
   <polygon id="_71065440" class="fil1" points="83.5576,169.628 80.8345,166.77 84.344,168.592 "/>
   <polygon id="_71066208" class="fil0 str1" points="83.5576,169.628 80.8345,166.77 84.344,168.592 "/>
   <line id="_70748600" class="fil0 str0" x1="83.9413" y1="169.11" x2="120.82" y2= "196.611" />
   <polygon id="_68559688" class="fil1" points="165.217,101.067 164.929,97.1355 166.483,100.76 "/>
   <polygon id="_70921408" class="fil0 str1" points="165.217,101.067 164.929,97.1355 166.483,100.76 "/>
   <polygon id="_70923064" class="fil1" points="180.885,133.094 180.77,133.094 180.732,132.902 180.674,132.73 180.617,132.615 180.559,132.557 180.463,132.5 180.329,132.461 180.156,132.442 179.945,132.442 179.121,132.442 179.063,132.442 179.006,132.442 178.967,132.461 178.948,132.5 178.91,132.576 178.91,132.691 178.91,134.129 179.811,134.129 179.965,134.111 180.099,134.091 180.195,134.053 180.252,134.014 180.291,133.938 180.329,133.842 180.348,133.688 180.387,133.516 180.521,133.516 180.521,134.935 180.387,134.935 180.348,134.743 180.329,134.609 180.291,134.494 180.233,134.417 180.176,134.379 180.08,134.36 179.965,134.34 179.811,134.34 178.91,134.321 178.91,135.702 178.91,135.856 178.929,135.99 178.987,136.105 179.044,136.162 179.102,136.22 179.197,136.239 179.332,136.277 179.466,136.297 179.466,136.412 177.989,136.412 177.989,136.297 178.143,136.277 178.258,136.239 178.373,136.201 178.43,136.143 178.488,136.066 178.526,135.951 178.545,135.798 178.545,135.625 178.545,132.94 178.545,132.787 178.507,132.634 178.469,132.538 178.392,132.461 178.334,132.423 178.258,132.404 178.143,132.365 177.989,132.365 177.989,132.25 180.866,132.25 "/>
   <path id="_71230912" class="fil1" d="M181.882 132.404l-0.0191747 0.114786 -0.0382181 0.0769615 -0.0384807 0.0382181 -0.0383494 0.0191747 -0.0382181 0 -0.0576555 0 -0.0573928 0 -0.0384807 -0.0191747 -0.0382181 -0.0190434 -0.0384807 -0.0576555 -0.0383494 -0.0766988 -0.019306 -0.0765675 0.019306 -0.0961362 0.0383494 -0.0765675 0.0384807 -0.0382181 0.0382181 -0.0384807 0.0384807 0 0.0573928 -0.0191747 0.0958735 0.0191747 0.0768302 0.0573928 0.0382181 0.0958735 0.0191747 0.0961362zm0.44115 4.00804l-1.28484 0 0 -0.0958735 0.134223 -0.0191747 0.115048 -0.019306 0.0766988 -0.0382181 0.0573928 -0.0383494 0.0576555 -0.0766988 0.0384807 -0.115048 0.0190434 -0.134354 0.0191747 -0.172441 0 -1.32345 -0.0191747 -0.0958735 0 -0.0957422 -0.0382181 -0.0766988 -0.019306 -0.0576555 -0.0383494 -0.0384807 -0.0575241 -0.0382181 -0.0576555 -0.0191747 -0.0765675 -0.0191747 -0.0766988 0.0191747 -0.0958735 0.0191747 0 -0.0958735 0.153266 -0.0576555 0.172835 -0.0765675 0.210922 -0.0766988 0.24914 -0.115048 0 2.14796 0 0.153266 0.0191747 0.134354 0.0384807 0.0958735 0.0382181 0.0765675 0.0576555 0.0576555 0.0766988 0.0382181 0.115048 0.0384807 0.115048 0.0191747 0 0.0958735z"/>
   <polygon id="_71231224" class="fil1" points="183.877,136.412 182.592,136.412 182.592,136.297 182.707,136.277 182.822,136.258 182.899,136.22 182.976,136.162 183.014,136.105 183.052,136.009 183.071,135.913 183.071,135.779 183.071,132.921 183.071,132.826 183.052,132.73 183.033,132.653 182.995,132.595 182.937,132.538 182.88,132.5 182.822,132.48 182.726,132.48 182.669,132.48 182.573,132.5 182.573,132.384 182.726,132.346 182.918,132.289 183.129,132.212 183.398,132.116 183.398,135.817 183.398,135.932 183.417,136.047 183.455,136.124 183.493,136.182 183.57,136.239 183.647,136.258 183.743,136.297 183.877,136.297 "/>
   <polygon id="_69277544" class="fil1" points="188.192,136.412 187.041,136.412 187.041,136.316 187.156,136.297 187.233,136.258 187.31,136.239 187.348,136.201 187.387,136.143 187.425,136.047 187.444,135.932 187.444,135.798 187.444,134.609 187.444,134.436 187.425,134.283 187.387,134.149 187.329,134.053 187.271,133.976 187.176,133.919 187.079,133.88 186.964,133.861 186.869,133.88 186.773,133.9 186.677,133.919 186.581,133.976 186.485,134.034 186.408,134.091 186.332,134.187 186.274,134.283 186.274,135.741 186.274,135.894 186.293,136.028 186.351,136.124 186.408,136.22 186.466,136.258 186.543,136.277 186.619,136.297 186.715,136.316 186.715,136.412 185.545,136.412 185.545,136.316 185.661,136.297 185.737,136.277 185.814,136.239 185.871,136.22 185.91,136.143 185.948,136.047 185.967,135.932 185.987,135.798 185.987,134.571 185.967,134.398 185.948,134.264 185.91,134.149 185.852,134.034 185.795,133.957 185.718,133.919 185.622,133.88 185.507,133.861 185.373,133.88 185.258,133.919 185.124,133.976 185.008,134.072 184.913,134.149 184.836,134.206 184.798,134.264 184.778,134.302 184.778,135.913 184.798,136.009 184.817,136.086 184.855,136.143 184.893,136.201 184.951,136.239 185.028,136.277 185.124,136.297 185.219,136.316 185.219,136.412 184.05,136.412 184.05,136.316 184.165,136.297 184.241,136.277 184.318,136.258 184.376,136.22 184.433,136.162 184.471,136.066 184.491,135.951 184.491,135.817 184.491,134.36 184.491,134.245 184.471,134.149 184.452,134.072 184.433,133.995 184.395,133.957 184.337,133.919 184.28,133.9 184.222,133.88 184.145,133.88 184.069,133.9 184.069,133.803 184.261,133.727 184.433,133.669 184.606,133.612 184.759,133.535 184.759,133.535 184.759,134.091 184.913,133.957 185.047,133.842 185.162,133.746 185.296,133.669 185.411,133.593 185.507,133.554 185.622,133.516 185.718,133.516 185.814,133.535 185.91,133.554 186.006,133.612 186.063,133.688 186.159,133.861 186.236,134.091 186.351,133.957 186.466,133.842 186.581,133.746 186.715,133.65 186.83,133.593 186.945,133.554 187.061,133.516 187.195,133.516 187.271,133.516 187.348,133.535 187.425,133.573 187.482,133.612 187.54,133.669 187.597,133.727 187.636,133.803 187.674,133.88 187.712,134.034 187.751,134.187 187.751,134.398 187.77,134.609 187.77,135.875 187.77,135.971 187.789,136.047 187.827,136.124 187.866,136.182 187.924,136.239 188,136.277 188.077,136.297 188.192,136.316 "/>
   <polyline id="_71323608" class="fil0 str0" points="165.85,100.914 174.71,137.62 189.208,137.639 "/>
   <polygon id="_71565552" class="fil1" points="52.2403,190.033 51.0705,186.274 53.3909,189.438 "/>
   <polygon id="_71321584" class="fil0 str1" points="52.2403,190.033 51.0705,186.274 53.3909,189.438 "/>
   <path id="_71322712" class="fil1" d="M64.8595 196.304l0 0.11518 -0.019306 0.115048 -0.0191747 0.115048 -0.0384807 0.0958735 -0.0573928 0.11518 -0.0384807 0.0957422 -0.0765675 0.0766988 -0.0766988 0.0958735 -0.0958735 0.0766988 -0.0961362 0.0768302 -0.13396 0.0573928 -0.134354 0.0576555 -0.153529 0.0382181 -0.172572 0.0384807 -0.172441 0 -0.19201 0.0191747 -0.287621 0 -0.210922 -0.0191747 0 1.11213 0.0191747 0.172704 0.019306 0.134354 0.0382181 0.0958735 0.0768302 0.0958735 0.0573928 0.0573928 0.11518 0.0384807 0.115048 0.0191747 0.153529 0.0190434 0 0.115048 -1.47685 0 0 -0.115048 0.153529 -0.0190434 0.115048 -0.0383494 0.0958735 -0.0575241 0.0765675 -0.0768302 0.0384807 -0.0766988 0.0191747 -0.115048 0.0190434 -0.153266 0.0191747 -0.172704 0 -2.62733 -0.0191747 -0.153529 -0.0190434 -0.134354 -0.0191747 -0.0958735 -0.0576555 -0.0765675 -0.0573928 -0.0384807 -0.0958735 -0.0382181 -0.115048 -0.0383494 -0.153529 -0.019306 0 -0.115048 1.43837 0 0.287621 0.0191747 0.268577 0.0576555 0.11518 0.019306 0.114786 0.0573928 0.0961362 0.0573928 0.0958735 0.0576555 0.115048 0.0766988 0.0766988 0.0765675 0.0765675 0.0961362 0.0576555 0.114917 0.0573928 0.115048 0.019306 0.115048 0.0191747 0.115048 0.019306 0.153529zm-0.402931 0l0 -0.115048 -0.0190434 -0.0958735 -0.0191747 -0.115048 -0.0384807 -0.0766988 -0.0384807 -0.0960049 -0.0573928 -0.0766988 -0.0765675 -0.0573928 -0.0769615 -0.0769615 -0.0765675 -0.0380867 -0.0958735 -0.0577868 -0.11518 -0.0380867 -0.115048 -0.0384807 -0.268315 -0.0384807 -0.306927 -0.018912 -0.134223 0.018912 -0.0766988 0.019306 -0.0191747 0.0383494 -0.019306 0.0384807 -0.0191747 0.0766988 0 0.0765675 0 1.64942 0.210922 0 0.249403 0.018912 0.24914 -0.018912 0.230228 -0.0576555 0.0958735 -0.0191747 0.0958735 -0.0575241 0.0961362 -0.0383494 0.0765675 -0.0575241 0.0573928 -0.0765675 0.0576555 -0.0576555 0.0382181 -0.0958735 0.0576555 -0.0766988 0.019306 -0.0958735 0.0191747 -0.115048 0.0190434 -0.115048 0 -0.11518z"/>
   <path id="_71322904" class="fil1" d="M67.3523 199.085l-0.115048 0.134092 -0.115048 0.0961362 -0.115048 0.0380867 -0.114917 0.019306 -0.0576555 0 -0.0573928 -0.019306 -0.0384807 -0.0573928 -0.0384807 -0.0576555 -0.0380867 -0.0765675 -0.019306 -0.0958735 -0.0191747 -0.0958735 -0.019306 -0.134354 -0.268315 0.230228 -0.249403 0.172441 -0.115048 0.0576555 -0.0958735 0.0573928 -0.0958735 0.019306 -0.0766988 0 -0.115048 0 -0.0958735 -0.0384807 -0.0958735 -0.0382181 -0.0768302 -0.0768302 -0.0766988 -0.0958735 -0.0383494 -0.115048 -0.0382181 -0.114917 -0.019306 -0.134354 0.019306 -0.115048 0.0191747 -0.0958735 0.0190434 -0.0958735 0.0383494 -0.0958735 0.0573928 -0.0960049 0.0769615 -0.0766988 0.0765675 -0.0766988 0.0766988 -0.0765675 0.172704 -0.115048 0.230228 -0.134354 0.287621 -0.153529 0.364188 -0.153266 0.0191747 -0.364451 0 -0.11518 -0.0191747 -0.115048 -0.0382181 -0.0958735 -0.0576555 -0.0765675 -0.0765675 -0.0575241 -0.0958735 -0.0576555 -0.11518 -0.0191747 -0.115048 0 -0.0765675 0 -0.0958735 0.0191747 -0.0769615 0.019306 -0.0573928 0.0383494 -0.0766988 0.0575241 -0.0576555 0.0573928 -0.0191747 0.0576555 -0.0190434 0.0573928 0 0.0384807 0.0190434 0.172441 0 0.11518 -0.0382181 0.0768302 -0.0191747 0.0382181 -0.0384807 0.0191747 -0.0382181 0.019306 -0.0384807 0 -0.0573928 0 -0.0383494 -0.019306 -0.019306 -0.0191747 -0.0384807 -0.019306 -0.0380867 -0.0957422 0 -0.0958735 0 -0.11518 0.0380867 -0.115048 0.0769615 -0.0958735 0.0765675 -0.0958735 0.134354 -0.115048 0.172572 -0.0766988 0.172704 -0.0383494 0.191747 -0.0190434 0.134092 0 0.115048 0.0190434 0.0958735 0.0191747 0.0961362 0.0384807 0.0765675 0.0573928 0.0573928 0.0576555 0.0576555 0.0766988 0.0575241 0.0765675 0.0191747 0.115048 0.0384807 0.134354 0 0.172572 0.0191747 0.210922 0 1.18909 0 0.115048 0 0.0765675 0.0190434 0.0769615 0.0383494 0.0765675 0.0384807 0.0384807 0.0382181 0.0382181 0.0384807 0.0191747 0.0573928 0 0.0576555 0 0.0573928 -0.0191747 0.0576555 -0.0382181 0.0573928 -0.0384807 0 0.134354zm-0.747945 -0.613591l0 -0.844081 -0.24914 0.115048 -0.230096 0.0958735 -0.172835 0.115048 -0.153266 0.11518 -0.115048 0.115048 -0.0958735 0.115048 -0.0576555 0.11518 0 0.115048 0 0.0191747 0 0.11518 0.0191747 0.0957422 0.0384807 0.0766988 0.0382181 0.0766988 0.0576555 0.0576555 0.0766988 0.0382181 0.0765675 0.0383494 0.115048 0.019306 0.0958735 0 0.0961362 -0.0384807 0.114917 -0.0382181 0.115048 -0.0768302 0.115048 -0.0958735 0.0576555 -0.0958735 0.0382181 -0.115048 0.0191747 -0.134092z"/>
   <polygon id="_71155144" class="fil1" points="68.7524,199.334 67.4867,199.334 67.4867,199.238 67.6017,199.219 67.6976,199.181 67.7935,199.142 67.8511,199.104 67.9087,199.027 67.947,198.951 67.9661,198.836 67.9661,198.72 67.9661,195.863 67.9661,195.748 67.947,195.652 67.9087,195.594 67.8702,195.518 67.832,195.48 67.7743,195.441 67.6976,195.422 67.621,195.422 67.5634,195.422 67.4675,195.422 67.4675,195.326 67.621,195.269 67.8128,195.211 68.0237,195.134 68.2731,195.038 68.2731,198.74 68.2731,198.874 68.3113,198.97 68.3305,199.066 68.3882,199.123 68.4456,199.162 68.5414,199.2 68.6373,199.219 68.7524,199.238 "/>
   <polygon id="_70935584" class="fil1" points="70.2675,199.334 69.0018,199.334 69.0018,199.238 69.1169,199.219 69.2128,199.181 69.3086,199.142 69.3661,199.104 69.4237,199.027 69.4429,198.951 69.4811,198.836 69.4811,198.72 69.4811,195.863 69.4811,195.748 69.4619,195.652 69.4237,195.594 69.3853,195.518 69.347,195.48 69.2894,195.441 69.2128,195.422 69.1358,195.422 69.0785,195.422 68.9826,195.422 68.9826,195.326 69.1358,195.269 69.3279,195.211 69.5388,195.134 69.7879,195.038 69.7879,198.74 69.7879,198.874 69.8071,198.97 69.8456,199.066 69.903,199.123 69.9606,199.162 70.0565,199.2 70.1524,199.219 70.2675,199.238 "/>
   <path id="_71234568" class="fil1" d="M72.6838 198.375l-0.0573928 0.153529 -0.0766988 0.153529 -0.0961362 0.153266 -0.0958735 0.134354 -0.0957422 0.0958735 -0.0766988 0.0765675 -0.0958735 0.0766988 -0.115048 0.0576555 -0.0958735 0.0384807 -0.11518 0.0380867 -0.115048 0.019306 -0.115048 0 -0.115048 0 -0.0958735 -0.019306 -0.11518 -0.0191747 -0.0958735 -0.0382181 -0.0957422 -0.0576555 -0.0766988 -0.0765675 -0.0768302 -0.0766988 -0.0766988 -0.0768302 -0.0573928 -0.0958735 -0.0576555 -0.11518 -0.0575241 -0.114786 -0.0383494 -0.115048 -0.019306 -0.134354 -0.0380867 -0.153529 0 -0.134092 0 -0.172704 0 -0.172572 0.018912 -0.191747 0.0191747 -0.153529 0.0576555 -0.172441 0.0575241 -0.134354 0.0576555 -0.134223 0.0765675 -0.134354 0.0958735 -0.0958735 0.0766988 -0.0765675 0.0958735 -0.0766988 0.0768302 -0.0576555 0.0958735 -0.0573928 0.0958735 -0.019306 0.0958735 -0.0383494 0.0958735 -0.0190434 0.0958735 0 0.172704 0.0190434 0.172572 0.0383494 0.153266 0.0766988 0.134354 0.115048 0.0576555 0.0576555 0.0573928 0.0958735 0.0576555 0.0766988 0.0382181 0.115048 0.0768302 0.210922 0.0382181 0.268446 -1.82186 0 0 0.191878 0.0191747 0.191747 0.0384807 0.172572 0.0191747 0.153529 0.0382181 0.153266 0.0576555 0.134354 0.0573928 0.115048 0.0576555 0.115048 0.0766988 0.0766988 0.0573928 0.0576555 0.0768302 0.0573928 0.0575241 0.0576555 0.0765675 0.0382181 0.0958735 0.0191747 0.0769615 0.019306 0.0958735 0 0.134223 0 0.134092 -0.0384807 0.134354 -0.0573928 0.115048 -0.0766988 0.115048 -0.115048 0.115048 -0.115048 0.0958735 -0.153529 0.0958735 -0.153398 0.0766988 0.0190434zm-0.498542 -1.01626l-0.0384807 -0.172572 -0.0382181 -0.153529 -0.0576555 -0.115048 -0.0765675 -0.0958735 -0.0958735 -0.0958735 -0.0958735 -0.0576555 -0.134354 -0.0190434 -0.134223 -0.0191747 -0.11518 0 -0.115048 0.0382181 -0.115048 0.0576555 -0.0958735 0.0765675 -0.0958735 0.11518 -0.0766988 0.115048 -0.0573928 0.153529 -0.0576555 0.172572 1.40002 0z"/>
   <polygon id="_71154232" class="fil1" points="74.2948,198.931 74.2374,199.027 74.1797,199.123 74.1223,199.2 74.0264,199.258 73.9495,199.315 73.8536,199.353 73.777,199.373 73.6812,199.373 73.5661,199.373 73.4894,199.334 73.4126,199.296 73.3551,199.219 73.2977,199.123 73.2592,198.97 73.24,198.816 73.24,198.605 73.24,196.668 72.8374,196.668 72.8565,196.573 72.8565,196.534 72.9524,196.496 73.1057,196.381 73.2015,196.266 73.2977,196.112 73.3936,195.92 73.4703,195.71 73.5468,195.71 73.5468,196.496 74.1797,196.496 74.1797,196.668 73.5468,196.668 73.5468,198.471 73.5661,198.778 73.5853,198.931 73.6427,199.008 73.7003,199.066 73.777,199.085 73.8921,199.085 73.988,199.085 74.0838,199.046 74.1604,198.989 74.2182,198.893 "/>
   <polyline id="_70893856" class="fil0 str0" points="52.8155,189.726 58.2813,200.542 74.8703,200.562 "/>
  </g>
 </g>
</svg>
